<svg width="30" height="30" viewBox="0 0 30 30" fill="none" xmlns="http://www.w3.org/2000/svg">
<path fill-rule="evenodd" clip-rule="evenodd" d="M0 14.625C0 6.54784 6.54784 1.36847e-07 14.625 1.36847e-07C18.504 -0.000530153 22.2242 1.54014 24.967 4.28298C27.7099 7.02581 29.2505 10.746 29.25 14.625C29.25 22.7022 22.7022 29.25 14.625 29.25C6.54784 29.25 0 22.7022 0 14.625ZM14.625 16.214L18.33 19.92C18.5398 20.1325 18.8261 20.252 19.1247 20.2518C19.4233 20.2516 19.7094 20.1317 19.919 19.919C20.3548 19.479 20.3548 18.77 19.919 18.33L16.214 14.625L19.919 10.92C20.2157 10.6388 20.3364 10.2187 20.2342 9.82295C20.1319 9.42716 19.8228 9.11809 19.4271 9.01584C19.0313 8.91358 18.6112 9.03427 18.33 9.331L14.625 13.036L10.92 9.331C10.4779 8.91213 9.78272 8.92149 9.35211 9.35211C8.92149 9.78272 8.91213 10.4779 9.331 10.92L13.036 14.625L9.331 18.33C9.03427 18.6112 8.91358 19.0313 9.01584 19.4271C9.11809 19.8228 9.42716 20.1319 9.82295 20.2342C10.2187 20.3364 10.6388 20.2157 10.92 19.919L14.625 16.214Z" fill="#EFF0F6"/>
</svg>
