<svg width="243" height="243" viewBox="0 0 243 243" fill="none" xmlns="http://www.w3.org/2000/svg">
<g clip-path="url(#clip0_941_19915)">
<path d="M136.249 201.12C139.837 201.12 142.745 198.217 142.745 194.635C142.745 191.053 139.837 188.15 136.249 188.15C132.661 188.15 129.753 191.053 129.753 194.635C129.753 198.217 132.661 201.12 136.249 201.12Z" fill="#F2F7FF"/>
<path d="M136.241 202.27C132.026 202.27 128.593 198.844 128.593 194.635C128.593 190.427 132.026 187 136.241 187C140.457 187 143.889 190.427 143.889 194.635C143.889 198.844 140.457 202.27 136.241 202.27ZM136.241 189.3C133.293 189.3 130.897 191.691 130.897 194.635C130.897 197.579 133.293 199.97 136.241 199.97C139.19 199.97 141.586 197.579 141.586 194.635C141.586 191.691 139.19 189.3 136.241 189.3Z" fill="#000927"/>
<path d="M177.37 213.025C180.957 213.025 183.866 210.122 183.866 206.54C183.866 202.958 180.957 200.055 177.37 200.055C173.782 200.055 170.873 202.958 170.873 206.54C170.873 210.122 173.782 213.025 177.37 213.025Z" fill="#F2F7FF"/>
<path d="M177.37 214.183C173.154 214.183 169.721 210.756 169.721 206.548C169.721 202.339 173.154 198.913 177.37 198.913C181.585 198.913 185.018 202.339 185.018 206.548C185.018 210.756 181.585 214.183 177.37 214.183ZM177.37 201.212C174.421 201.212 172.025 203.604 172.025 206.548C172.025 209.491 174.421 211.883 177.37 211.883C180.318 211.883 182.714 209.491 182.714 206.548C182.714 203.604 180.318 201.212 177.37 201.212Z" fill="#000927"/>
<path d="M215.649 193.83C218.465 193.83 220.748 191.551 220.748 188.74C220.748 185.929 218.465 183.65 215.649 183.65C212.833 183.65 210.55 185.929 210.55 188.74C210.55 191.551 212.833 193.83 215.649 193.83Z" fill="#F2F7FF"/>
<path d="M215.649 194.988C212.201 194.988 209.398 192.19 209.398 188.748C209.398 185.306 212.201 182.508 215.649 182.508C219.097 182.508 221.9 185.306 221.9 188.748C221.9 192.19 219.097 194.988 215.649 194.988ZM215.649 184.808C213.476 184.808 211.702 186.579 211.702 188.748C211.702 190.917 213.476 192.688 215.649 192.688C217.822 192.688 219.596 190.917 219.596 188.748C219.596 186.579 217.822 184.808 215.649 184.808Z" fill="#000927"/>
<path d="M182.776 200.131C182.676 200.131 182.576 200.116 182.484 200.093L131.964 186.854C131.519 186.739 131.181 186.364 131.119 185.904L122.773 128.679C121.989 128.503 120.607 128.342 119.563 129.108C118.242 130.074 117.651 132.359 117.866 135.716C117.904 136.352 117.428 136.897 116.791 136.935C116.161 136.966 115.608 136.49 115.57 135.862C115.293 131.607 116.192 128.71 118.219 127.238C120.799 125.375 124.093 126.663 124.239 126.717C124.623 126.87 124.892 127.215 124.953 127.621L133.293 184.815L182.645 197.747L215.826 180.384L173.883 171.04C173.261 170.902 172.87 170.289 173.008 169.668C173.146 169.047 173.753 168.656 174.383 168.794L219.396 178.821C219.872 178.928 220.226 179.311 220.287 179.794C220.349 180.269 220.11 180.737 219.68 180.967L183.321 199.993C183.152 200.078 182.968 200.124 182.783 200.124L182.776 200.131Z" fill="#000927"/>
<path d="M174.121 171.078C173.561 171.078 173.069 170.672 172.985 170.105L163.455 108.089C162.672 107.913 161.29 107.752 160.238 108.518C158.917 109.484 158.326 111.768 158.541 115.126C158.579 115.762 158.103 116.307 157.466 116.345C156.867 116.391 156.283 115.908 156.245 115.272C155.968 111.017 156.867 108.12 158.894 106.648C161.474 104.785 164.769 106.073 164.914 106.127C165.291 106.28 165.559 106.617 165.621 107.023L175.258 169.76C175.358 170.388 174.92 170.971 174.298 171.071C174.237 171.078 174.183 171.086 174.121 171.086V171.078Z" fill="#000927"/>
<path d="M128.248 151.147L169.276 138.353L220.732 148.916L185.517 163.658L128.248 151.147Z" fill="#F2F7FF"/>
<path d="M185.517 164.808C185.432 164.808 185.356 164.8 185.271 164.777L128.002 152.266C127.487 152.159 127.119 151.715 127.096 151.193C127.073 150.672 127.403 150.204 127.902 150.043L168.93 137.257C169.115 137.196 169.314 137.188 169.506 137.226L220.963 147.79C221.454 147.889 221.831 148.303 221.877 148.802C221.923 149.3 221.639 149.775 221.178 149.974L185.962 164.716C185.824 164.777 185.671 164.808 185.517 164.808ZM132.74 150.948L185.409 162.454L216.855 149.292L169.337 139.541L132.74 150.948Z" fill="#000927"/>
<path d="M131.119 175.839L182.776 189.813L185.517 163.658L128.248 151.147L131.119 175.839Z" fill="#F2F7FF"/>
<path d="M182.775 190.963C182.676 190.963 182.576 190.948 182.476 190.925L130.828 176.95C130.375 176.828 130.037 176.437 129.983 175.977L127.103 151.285C127.057 150.917 127.195 150.549 127.472 150.296C127.748 150.043 128.125 149.944 128.493 150.028L185.763 162.539C186.339 162.661 186.722 163.198 186.661 163.78L183.92 189.936C183.881 190.273 183.705 190.572 183.428 190.764C183.236 190.894 183.006 190.963 182.775 190.963ZM132.179 174.934L181.77 188.349L184.258 164.562L129.576 152.619L132.179 174.942V174.934Z" fill="#000927"/>
<path d="M182.776 189.813L215.388 174.735L220.733 148.917L185.517 163.658L182.776 189.813Z" fill="#F2F7FF"/>
<path d="M182.776 190.963C182.538 190.963 182.307 190.894 182.108 190.748C181.77 190.511 181.585 190.105 181.631 189.691L184.373 163.535C184.419 163.121 184.688 162.753 185.072 162.592L220.287 147.851C220.679 147.69 221.132 147.751 221.462 148.027C221.792 148.296 221.946 148.733 221.861 149.146L216.517 174.965C216.44 175.317 216.202 175.624 215.872 175.777L183.259 190.856C183.106 190.925 182.937 190.963 182.776 190.963ZM186.592 164.455L184.135 187.92L214.374 173.938L219.158 150.825L186.584 164.463L186.592 164.455Z" fill="#000927"/>
<path d="M168.17 159.871V128.809H194.448V159.871L185.517 163.658L168.17 159.871Z" fill="#B3F7FF"/>
<path d="M185.517 164.808C185.432 164.808 185.356 164.8 185.271 164.777L167.932 160.99C167.402 160.875 167.026 160.408 167.026 159.871V128.81C167.026 128.173 167.541 127.66 168.178 127.66H194.455C195.093 127.66 195.607 128.173 195.607 128.81V159.871C195.607 160.331 195.331 160.753 194.908 160.929L185.97 164.716C185.824 164.777 185.671 164.808 185.517 164.808ZM169.33 158.944L185.409 162.454L193.303 159.105V129.959H169.33V158.944Z" fill="#000927"/>
<path d="M194.448 146.234L213.353 115.41L229.387 125.437L215.403 151.148L194.448 159.871V146.234Z" fill="#00F6B4"/>
<path d="M194.448 161.021C194.225 161.021 194.002 160.959 193.81 160.829C193.488 160.615 193.296 160.254 193.296 159.871V146.234C193.296 146.019 193.357 145.812 193.465 145.636L212.37 114.812C212.531 114.551 212.792 114.367 213.092 114.29C213.391 114.221 213.706 114.275 213.967 114.436L230.001 124.463C230.515 124.785 230.692 125.452 230.4 125.988L216.417 151.699C216.294 151.929 216.094 152.113 215.849 152.213L194.893 160.936C194.747 160.998 194.601 161.028 194.448 161.028V161.021ZM195.599 146.563V158.146L214.582 150.243L227.858 125.835L213.729 117.004L195.599 146.563Z" fill="#000927"/>
<path d="M167.694 159.894C169.683 157.471 170.873 154.382 170.873 151.009C170.873 143.259 164.577 136.973 156.813 136.973C149.05 136.973 142.753 143.259 142.753 151.009C142.753 152.19 142.914 153.332 143.191 154.436L167.694 159.901V159.894Z" fill="#ADB8CD"/>
<path d="M167.694 161.044C167.61 161.044 167.525 161.036 167.441 161.013L142.937 155.555C142.515 155.463 142.177 155.134 142.07 154.712C141.755 153.462 141.594 152.221 141.594 151.009C141.594 142.638 148.42 135.823 156.805 135.823C165.191 135.823 172.017 142.638 172.017 151.009C172.017 154.505 170.796 157.916 168.577 160.622C168.355 160.89 168.024 161.044 167.687 161.044H167.694ZM144.151 153.47L167.226 158.614C168.838 156.414 169.714 153.746 169.714 151.009C169.714 143.903 163.924 138.123 156.805 138.123C149.687 138.123 143.897 143.903 143.897 151.009C143.897 151.807 143.982 152.634 144.151 153.47Z" fill="#000927"/>
<path d="M183.866 128.809V113.332H201.75V133.332L194.448 146.233V128.809H183.866Z" fill="#CFD8E6"/>
<path d="M194.448 147.383C194.348 147.383 194.256 147.368 194.156 147.345C193.649 147.215 193.296 146.755 193.296 146.234V129.959H183.866C183.229 129.959 182.714 129.446 182.714 128.809V113.332C182.714 112.696 183.229 112.182 183.866 112.182H201.75C202.388 112.182 202.902 112.696 202.902 113.332V133.332C202.902 133.531 202.848 133.723 202.756 133.899L195.454 146.801C195.246 147.169 194.862 147.383 194.448 147.383ZM185.018 127.66H194.448C195.085 127.66 195.599 128.173 195.599 128.809V141.864L200.598 133.033V114.482H185.018V127.66Z" fill="#000927"/>
<path d="M174.951 161.42V148.434L189.218 148.794V162.087L185.517 163.658L174.951 161.42Z" fill="#F2F7FF"/>
<path d="M185.517 164.808C185.44 164.808 185.356 164.8 185.279 164.785L174.713 162.546C174.183 162.431 173.799 161.964 173.799 161.419V148.426C173.799 148.119 173.922 147.82 174.144 147.606C174.367 147.391 174.651 147.253 174.974 147.284L189.241 147.644C189.863 147.659 190.362 148.173 190.362 148.794V162.086C190.362 162.546 190.086 162.968 189.664 163.144L185.962 164.716C185.816 164.777 185.663 164.808 185.509 164.808H185.517ZM176.103 160.492L185.402 162.462L188.066 161.335V149.921L176.103 149.614V160.492Z" fill="#000927"/>
<path d="M146.723 141.236L142.745 125.429L156.821 120.308L161.121 137.633C161.121 137.633 153.68 133.677 146.731 141.228L146.723 141.236Z" fill="#F2F7FF"/>
<path d="M146.723 142.386C146.631 142.386 146.531 142.378 146.439 142.347C146.032 142.24 145.709 141.926 145.602 141.512L141.624 125.713C141.478 125.138 141.793 124.555 142.346 124.348L156.422 119.228C156.729 119.113 157.067 119.143 157.358 119.289C157.65 119.442 157.857 119.711 157.934 120.025L162.234 137.349C162.342 137.786 162.181 138.254 161.827 138.53C161.467 138.806 160.975 138.852 160.576 138.637C160.307 138.499 153.803 135.226 147.575 141.995C147.353 142.232 147.046 142.37 146.731 142.37L146.723 142.386ZM144.112 126.157L147.353 139.013C150.762 136.039 154.164 135.433 156.544 135.448C157.673 135.464 158.679 135.632 159.485 135.839L156.007 121.826L144.112 126.157Z" fill="#000927"/>
<path d="M93.6232 139.825C98.0002 134.681 105.725 134.06 110.878 138.43C113.304 140.492 114.709 143.298 115.078 146.218H115.093C118.372 162.838 103.537 184.286 103.537 184.286L89.8452 181.979L90.7129 147.652C90.7282 144.877 91.6804 142.094 93.6232 139.817V139.825Z" fill="#F2F7FF"/>
<path d="M103.529 185.444C103.468 185.444 103.399 185.444 103.337 185.429L89.6456 183.121C89.0773 183.029 88.6704 182.531 88.6857 181.956L89.5534 147.629C89.5534 147.629 89.5534 147.59 89.5534 147.575C89.5918 144.463 90.7206 141.443 92.7402 139.074C95.0592 136.352 98.2997 134.697 101.863 134.413C105.433 134.122 108.897 135.241 111.615 137.556C114.118 139.679 115.739 142.638 116.192 145.904C116.199 145.935 116.207 145.965 116.215 145.996C117.62 153.125 116.061 161.856 111.584 171.952C108.282 179.403 104.627 184.716 104.474 184.946C104.259 185.26 103.898 185.444 103.529 185.444ZM91.0124 181.021L102.984 183.037C105.303 179.48 116.721 161.013 113.988 146.602C113.957 146.525 113.942 146.448 113.934 146.364C113.588 143.604 112.237 141.098 110.125 139.304C107.868 137.387 104.988 136.46 102.047 136.705C99.0983 136.943 96.4107 138.315 94.491 140.569C92.8093 142.546 91.8725 145.068 91.8571 147.667C91.8571 147.698 91.8571 147.728 91.8571 147.759L91.0124 181.013V181.021Z" fill="#000927"/>
<path d="M103.529 184.294C103.529 184.294 112.92 191.117 111.093 192.979C109.273 194.842 91.9877 189.415 90.6515 186.755C89.3154 184.103 89.8376 181.987 89.8376 181.987L103.529 184.294Z" fill="#000927"/>
<path d="M87.8334 149C87.8334 149 72.4064 177.057 55.9044 168.441C55.9044 168.441 44.8775 163.328 68.3289 126.708C68.3289 126.708 77.3132 149.353 87.8334 149Z" fill="#F2F7FF"/>
<path d="M62.3778 171.224C59.9743 171.224 57.6246 170.641 55.367 169.461C55.2211 169.392 53.501 168.525 52.641 165.582C51.1282 160.407 52.4567 149.353 67.3538 126.088C67.5842 125.728 67.9911 125.513 68.4365 125.559C68.8665 125.597 69.2351 125.881 69.3964 126.279C71.8152 132.366 79.8397 148.104 87.7874 147.851C88.1944 147.82 88.5937 148.043 88.8087 148.395C89.0237 148.748 89.0391 149.185 88.8394 149.553C88.6781 149.844 84.8387 156.781 78.8722 162.761C73.2742 168.372 67.684 171.224 62.3778 171.224ZM68.1294 129.169C54.0846 151.569 53.7544 161.174 54.8525 164.93C55.4131 166.839 56.3729 167.391 56.3883 167.391C69.5807 174.275 82.4275 155.593 85.9061 149.982C77.4362 148.303 70.5098 134.482 68.1294 129.169Z" fill="#000927"/>
<path d="M80.8071 78.3611C80.8071 78.3611 101.648 77.6865 113.819 109.446C125.99 141.205 119.54 146.272 94.5754 148.802C69.6113 151.331 65.027 134.382 70.694 121.726C76.361 109.078 66.8929 102.056 68.5285 96.9582C70.1565 91.8681 67.1924 78.0085 80.8148 78.3611H80.8071Z" fill="#7FB1FC"/>
<path d="M89.7531 150.205C78.8644 150.205 73.3893 146.042 70.6633 142.286C66.6856 136.79 66.294 128.733 69.642 121.251C73.0054 113.731 70.717 108.35 68.8818 104.026C67.7069 101.274 66.701 98.8902 67.4305 96.6058C67.7683 95.5633 67.8912 93.9458 68.0294 92.2363C68.5209 86.1344 69.2811 76.9279 80.8071 77.2038C82.1279 77.1885 102.707 77.2191 114.894 109.032C121.352 125.897 122.527 135.142 118.948 140.944C115.362 146.755 107.008 148.695 94.6906 149.944C92.9321 150.12 91.2889 150.205 89.7531 150.205ZM80.308 79.5035C71.3621 79.5035 70.8092 86.3644 70.3254 92.428C70.1718 94.3521 70.0336 96.0156 69.6189 97.3111C69.1505 98.7906 69.9645 100.707 70.9935 103.137C72.9055 107.621 75.5164 113.762 71.7383 122.194C68.7282 128.925 69.0277 136.107 72.5293 140.937C76.4762 146.387 84.0553 148.71 94.4603 147.652C106.078 146.471 113.896 144.739 116.983 139.733C120.1 134.689 118.825 125.751 112.736 109.852C106.608 93.8538 98.2536 86.4564 92.3178 83.0681C85.929 79.4192 80.8916 79.5112 80.8379 79.5035C80.8148 79.5035 80.7918 79.5035 80.7764 79.5035C80.6152 79.5035 80.4616 79.5035 80.308 79.5035Z" fill="#000927"/>
<path d="M56.6108 148.395C56.6108 148.395 49.3773 137.747 46.8202 139.089C44.2631 140.43 33.0289 147.973 55.9044 168.441C55.9044 168.441 53.3166 157.134 56.6108 148.395Z" fill="#F2F7FF"/>
<path d="M55.9044 169.591C55.628 169.591 55.3515 169.491 55.1365 169.3C44.8007 160.055 39.9553 152.167 40.7309 145.85C41.3068 141.159 44.8007 138.851 46.2751 138.077C49.2929 136.49 54.6374 143.458 57.5554 147.751C57.7627 148.058 57.8088 148.449 57.6783 148.801C54.5453 157.103 56.9948 168.073 57.0179 168.188C57.1254 168.679 56.9104 169.177 56.4803 169.438C56.2961 169.545 56.0964 169.599 55.8967 169.599L55.9044 169.591ZM47.3655 140.124C47.3655 140.124 47.3347 140.124 47.3117 140.124C46.1983 140.714 43.4646 142.523 43.0192 146.134C42.5815 149.652 44.2632 155.77 54.1997 165.298C53.6775 161.304 53.2706 154.497 55.3285 148.564C52.1878 144.041 48.5019 140.124 47.3655 140.124Z" fill="#000927"/>
<path d="M48.525 138.974C48.525 138.974 45.369 133.907 40.3777 139.089C36.7302 142.876 41.2454 149.89 41.2454 149.89C41.2454 149.89 43.5337 141.389 48.525 138.967V138.974Z" fill="#000927"/>
<path d="M39.2181 145.091C39.2181 145.091 38.7497 154.857 40.37 154.857C41.9902 154.857 42.9655 152.427 42.9655 152.427L41.7983 141.864L39.2105 145.084L39.2181 145.091Z" fill="#000927"/>
<path d="M131.043 48.6104C131.043 48.6104 106.355 59.9097 90.3675 82.401C90.3675 82.401 100.949 85.6206 106.969 95.7854C106.969 95.7854 120.108 73.5164 124.969 70.2584C136.572 62.47 138.269 55.8162 136.241 52.3589C134.214 48.9016 131.035 48.6104 131.035 48.6104H131.043Z" fill="#7FB1FC"/>
<path d="M106.969 96.9276C106.562 96.9276 106.186 96.713 105.979 96.3604C100.266 86.7245 90.1295 83.5202 90.0296 83.4896C89.6764 83.3823 89.3923 83.1063 89.2771 82.7613C89.1542 82.4087 89.2157 82.0254 89.4307 81.7265C105.411 59.2505 130.313 47.6752 130.567 47.5602C130.751 47.4759 130.951 47.4453 131.15 47.4606C131.304 47.4759 134.944 47.8515 137.247 51.7764C139.605 55.8086 137.793 63.0297 125.621 71.2091C121.813 73.7618 111.592 90.2354 107.975 96.368C107.768 96.7207 107.392 96.9353 106.985 96.9353L106.969 96.9276ZM92.1874 81.8338C95.1899 83.045 102.062 86.4409 106.939 93.5854C110.095 88.342 120.039 72.1673 124.324 69.2926C135.182 61.9948 136.994 55.9159 135.243 52.9263C133.869 50.5805 131.926 49.952 131.204 49.791C128.355 51.1631 106.839 62.0025 92.1874 81.8261V81.8338Z" fill="#000927"/>
<path d="M139.505 52.3281C140.004 52.4661 140.488 52.6271 140.972 52.7957C141.225 52.8877 141.478 52.9874 141.732 53.087C141.839 53.1253 141.939 53.1713 142.047 53.2097C142.1 53.2327 142.538 53.409 142.254 53.294C141.97 53.179 142.338 53.3323 142.4 53.3553C142.523 53.409 142.646 53.4626 142.768 53.5163C142.999 53.6159 143.229 53.7156 143.46 53.8153C144.066 54.0759 144.673 54.3289 145.287 54.5742L143.943 53.2327C144.112 53.9762 144.665 54.3825 145.333 54.6508C146.001 54.9191 146.715 54.5742 147.199 54.1602L147.222 54.1372C147.744 53.6926 147.86 52.903 147.714 52.2744C147.545 51.5309 146.9 51.0019 146.178 50.8563C145.886 50.7949 145.602 50.7413 145.31 50.657C144.734 50.496 144.181 50.2813 143.621 50.0667C142.377 49.5914 141.156 49.2005 139.82 49.1238C139.152 49.0855 138.491 49.5148 138.161 50.0744C137.785 50.7183 137.877 51.3622 138.161 52.0061C138.914 53.7233 140.288 55.1951 141.901 56.138C142.715 56.6133 143.613 56.9429 144.488 57.2955C144.895 57.4565 144.081 57.1192 144.488 57.2955C144.565 57.3262 144.642 57.3645 144.711 57.3952C144.919 57.4871 145.118 57.5868 145.318 57.6865C145.494 57.7784 145.671 57.8781 145.84 57.9931C145.924 58.0467 146.009 58.1081 146.093 58.1617C146.401 58.3687 145.779 57.9011 146.093 58.1617L148.42 55.1491L147.614 54.7045C146.738 54.2139 145.479 54.4668 144.988 55.3944C144.496 56.322 144.742 57.4948 145.679 58.0161L146.485 58.4607C147.33 58.9283 148.374 58.729 148.965 57.9701C149.51 57.2648 149.549 56.0766 148.812 55.4557C148.075 54.8348 147.314 54.3672 146.439 53.9916C145.947 53.7769 145.448 53.5776 144.957 53.3706C144.634 53.2403 145.241 53.4933 145.018 53.3936C144.926 53.3553 144.826 53.3093 144.734 53.271C144.55 53.1867 144.366 53.1023 144.181 53.0027C143.82 52.8187 143.506 52.5581 143.16 52.3664C143.237 52.4124 143.46 52.6117 143.268 52.4431C143.175 52.3664 143.083 52.2898 142.999 52.2054C142.868 52.0828 142.738 51.9601 142.615 51.8298C142.477 51.6842 142.346 51.5309 142.223 51.3775C142.07 51.2012 142.461 51.7148 142.269 51.4312C142.216 51.3469 142.154 51.2702 142.1 51.1859C141.87 50.8333 141.67 50.4653 141.501 50.0744L139.843 52.9567C139.843 52.9567 140.204 53.0104 140.219 52.9874C139.92 52.9414 139.873 52.9414 140.081 52.972L140.204 52.995C140.449 53.041 140.695 53.1023 140.941 53.1713C141.448 53.317 141.947 53.5086 142.446 53.6926C142.945 53.8766 143.398 54.0606 143.89 54.2215C144.128 54.2982 144.373 54.3749 144.619 54.4362C144.865 54.4975 145.141 54.5052 145.364 54.5972L144.02 53.2557V53.2863L144.519 51.4235L144.496 51.4465L146.362 50.9559L146.331 50.9406L147.675 52.2821C147.598 51.9295 147.406 51.6305 147.168 51.3699C146.884 51.0556 146.5 50.9483 146.124 50.7949C145.994 50.7413 145.863 50.6876 145.725 50.634C145.663 50.611 145.594 50.5803 145.533 50.5496C145.756 50.6416 145.802 50.6646 145.671 50.611C145.149 50.3887 144.627 50.1664 144.112 49.9441C142.945 49.4458 141.778 48.9782 140.549 48.6332C139.582 48.3649 138.414 48.9628 138.184 49.9747C137.954 50.9866 138.491 52.0445 139.528 52.3358L139.505 52.3281Z" fill="#F2F7FF"/>
<path d="M139.727 49.3844C139.727 49.3844 142.438 49.9977 144.604 50.8716C146.769 51.7455 146.923 50.6186 144.604 48.6102C142.285 46.6017 136.978 46.9237 136.978 46.9237C138.307 44.6086 136.733 39.9862 134.874 40.6071C133.016 41.228 132.494 49.1161 132.494 49.1161C132.494 49.1161 137.424 50.4499 136.832 56.6362C136.832 56.6362 143.129 59.2502 145.003 61.8412C145.54 62.5848 146.485 62.9834 147.353 62.6998C148.144 62.4392 148.681 61.7646 147.683 60.1088C145.679 56.7972 143.091 56.6439 143.091 56.6439C143.091 56.6439 149.203 59.8788 149.203 57.4948C149.203 55.1107 146.132 54.3058 146.132 54.3058" fill="#F2F7FF"/>
<path d="M146.769 63.5508C145.863 63.5508 144.972 63.0909 144.381 62.286C142.653 59.9019 136.594 57.3645 136.533 57.3415C136.218 57.2112 136.034 56.8969 136.065 56.5596C136.587 51.117 132.463 49.8981 132.287 49.8521C131.933 49.7525 131.703 49.4228 131.726 49.0625C131.895 46.5328 132.517 40.5842 134.629 39.879C135.435 39.6107 136.287 39.9173 136.948 40.7299C137.961 41.9641 138.522 44.2868 138.084 46.1419C139.866 46.1649 143.252 46.4409 145.095 48.0353C146.784 49.4995 147.368 50.5957 146.877 51.3929C146.477 52.0445 145.61 52.1135 144.304 51.5846C142.231 50.749 139.574 50.1434 139.543 50.1357C139.128 50.0438 138.867 49.6298 138.967 49.2159C139.059 48.8019 139.474 48.5413 139.889 48.6409C140.004 48.6639 142.684 49.2772 144.88 50.1587C144.98 50.1971 145.08 50.2354 145.164 50.2661C144.949 49.9978 144.611 49.6375 144.089 49.1929C142.392 47.721 138.407 47.6061 137.017 47.6904C136.748 47.7057 136.464 47.5677 136.318 47.3301C136.172 47.0924 136.164 46.7858 136.303 46.5482C137.063 45.2297 136.641 42.7766 135.757 41.7034C135.589 41.4965 135.327 41.2665 135.112 41.3355C134.437 41.5578 133.6 44.9537 133.3 48.6103C134.675 49.2159 137.877 51.1783 137.639 56.1534C139.221 56.8509 143.951 59.0817 145.633 61.3967C146.001 61.9027 146.623 62.1403 147.122 61.9717C147.23 61.941 147.406 61.8643 147.452 61.7493C147.475 61.688 147.552 61.3584 147.038 60.4998C146.485 59.5876 145.894 58.9437 145.333 58.4837C144.235 58.0775 143.237 57.5715 142.745 57.3109C142.423 57.1422 142.269 56.7743 142.369 56.4293C142.469 56.0844 142.799 55.8467 143.152 55.8697C143.237 55.8697 144.542 55.9694 146.063 57.1039C147.214 57.5179 148.167 57.7172 148.451 57.5485C148.451 57.5485 148.451 57.5179 148.451 57.4795C148.451 55.7164 145.978 55.0418 145.955 55.0342C145.548 54.9268 145.302 54.5052 145.41 54.0989C145.517 53.6927 145.932 53.4473 146.347 53.5547C146.493 53.593 149.994 54.5359 149.994 57.4872C149.994 58.0928 149.733 58.5757 149.265 58.8594C148.927 59.0663 148.481 59.1353 147.975 59.1123C148.105 59.2963 148.236 59.4956 148.359 59.7026C148.981 60.7375 149.165 61.573 148.904 62.2783C148.766 62.6539 148.428 63.1522 147.614 63.4205C147.345 63.5125 147.061 63.5508 146.784 63.5508H146.769Z" fill="#000927"/>
<path d="M147.222 55.0493C145.218 55.0493 141.939 53.5622 140.864 53.0485C140.48 52.8646 140.319 52.4046 140.503 52.029C140.687 51.6457 141.148 51.4847 141.524 51.6687C144.089 52.9029 146.892 53.7461 147.529 53.5008C147.529 53.4932 147.529 53.4778 147.514 53.4548C147.237 52.8186 145.456 51.9753 144.343 51.5997C143.943 51.4694 143.721 51.0325 143.859 50.6338C143.989 50.2352 144.427 50.0129 144.826 50.1509C145.395 50.3425 148.266 51.3621 148.919 52.8416C149.111 53.2862 149.111 53.7461 148.919 54.1754C148.812 54.4207 148.574 54.7503 148.074 54.9267C147.829 55.0186 147.537 55.057 147.214 55.057L147.222 55.0493Z" fill="#000927"/>
<path d="M110.332 138.43C110.332 138.43 118.272 144.846 120.484 142.301C122.695 139.756 119.332 139.549 119.332 139.549C119.332 139.549 123.602 143.397 125.306 140.308C127.011 137.219 120.046 134.436 120.046 134.436L125.752 137.786C126.834 138.422 128.247 137.502 127.994 136.276C127.349 133.179 121.352 129.929 121.352 129.929C124.792 125.789 111.477 127.422 111.477 127.422" fill="#F2F7FF"/>
<path d="M118.987 144.041C115.754 144.041 111.208 140.622 109.611 139.319C109.119 138.921 109.042 138.192 109.442 137.702C109.841 137.211 110.563 137.134 111.062 137.533C114.402 140.231 118.772 142.516 119.616 141.542C119.678 141.466 119.739 141.397 119.785 141.335C119.133 140.898 118.672 140.5 118.564 140.4C118.203 140.07 118.088 139.549 118.273 139.105C118.464 138.652 118.91 138.376 119.401 138.399C119.77 138.422 121.636 138.606 122.227 140.001C122.235 140.024 122.25 140.055 122.258 140.078C122.734 140.285 123.202 140.4 123.579 140.339C123.778 140.308 124.047 140.208 124.3 139.749C124.446 139.488 124.462 139.258 124.362 138.974C124.216 138.568 123.87 138.146 123.417 137.74L119.47 135.425C118.948 135.118 118.756 134.467 119.017 133.93C119.278 133.394 119.923 133.148 120.476 133.371C120.83 133.509 123.033 134.421 124.73 135.847L126.343 136.79C126.535 136.897 126.704 136.79 126.758 136.759C126.904 136.652 126.881 136.544 126.873 136.498C126.481 134.628 122.949 132.09 120.807 130.925C120.507 130.764 120.292 130.473 120.223 130.136C120.162 129.798 120.246 129.446 120.469 129.185C120.622 129.001 120.699 128.871 120.737 128.794C119.885 128.181 115.677 128.058 111.623 128.557C110.993 128.626 110.417 128.189 110.34 127.552C110.263 126.924 110.709 126.349 111.346 126.272C115.086 125.82 121.544 125.398 122.826 127.744C123.056 128.158 123.202 128.756 122.934 129.507C124.823 130.665 128.547 133.271 129.131 136.038C129.338 137.035 128.946 138.031 128.102 138.637C127.687 138.928 127.218 139.097 126.735 139.135C126.765 139.726 126.627 140.316 126.328 140.86C125.644 142.094 124.669 142.485 123.97 142.608C123.271 142.723 122.55 142.608 121.866 142.386C121.728 142.608 121.559 142.83 121.359 143.052C120.745 143.758 119.923 144.041 118.994 144.041H118.987Z" fill="#000927"/>
<path d="M69.2119 91.8914C71.7152 87.7059 77.0751 86.303 81.1833 88.7561C82.9572 89.814 84.4008 91.3624 85.0458 93.1792C87.9254 99.3501 90.4057 116.261 90.4057 116.261C94.9516 115.893 112.982 123.85 112.982 123.85C117.85 131.6 111.254 140.5 111.254 140.5C111.254 140.5 89.3384 140.155 76.576 126.816C71.792 121.818 67.2384 105.36 67.4227 98.8289C66.8314 96.6058 67.9218 94.0454 69.2119 91.8914Z" fill="#7FB1FC"/>
<path d="M111.246 141.657H111.231C110.317 141.642 88.6857 141.144 75.7391 127.621C70.7247 122.378 66.1481 105.82 66.2633 98.9667C65.7642 96.851 66.4015 94.3366 68.2214 91.3086C71.0473 86.5865 77.129 85.0074 81.767 87.7747C83.8557 89.0166 85.3915 90.7873 86.1056 92.7498C88.6473 98.2461 90.8205 111.439 91.3964 115.141C97.1479 115.67 111.699 122.033 113.443 122.799C113.65 122.891 113.827 123.045 113.949 123.236C119.179 131.554 112.46 140.799 112.168 141.182C111.953 141.473 111.607 141.65 111.239 141.65L111.246 141.657ZM70.1949 92.4891C68.6898 95.0035 68.1293 97.0426 68.5286 98.5451C68.5593 98.6524 68.567 98.7597 68.567 98.8747C68.3212 107.506 74.0574 122.539 77.4054 126.034C88.5168 137.648 107.054 139.151 110.647 139.335C111.838 137.479 115.646 130.695 112.176 124.762C106.985 122.493 93.8997 117.158 90.4903 117.418C89.8836 117.464 89.3461 117.035 89.254 116.437C89.2309 116.268 86.766 99.6259 83.9862 93.6773C83.9709 93.6467 83.9555 93.6083 83.9478 93.5777C83.4257 92.0905 82.2278 90.7337 80.5845 89.7525C77.0291 87.6291 72.368 88.8632 70.1949 92.4891Z" fill="#000927"/>
<path d="M56.1119 51.1401L58.4002 72.6118L55.2365 74.4976L53.5088 75.3332L51.8962 80.0323L55.344 86.2262L58.7611 88.6026L64.2592 89.3462L70.7479 89.1392L83.303 90.0591L91.1892 89.2235L99.8203 85.5669L106.685 80.7682L108.766 76.7207L109.419 73.2864L111.247 67.5831L110.609 61.5808L107.829 58.3459L103.03 57.4796L102.04 44.9615L98.2922 39.7104L85.9368 43.3747L56.1119 51.1401Z" fill="white"/>
<path d="M104.005 57.6713C103.644 57.6713 103.337 57.426 103.253 57.0733C102.546 53.9457 100.258 45.8124 97.6471 43.0987C96.979 44.0646 95.6122 45.728 93.3392 47.2305C90.2523 49.2619 84.8156 51.3547 76.4686 49.7832C76.054 49.7066 75.7775 49.3079 75.8543 48.8863C75.9311 48.4724 76.3381 48.1964 76.7527 48.2731C91.6268 51.0787 96.5797 41.9795 96.787 41.5885C96.8869 41.3969 97.0712 41.2512 97.2785 41.1976C97.4935 41.1439 97.7162 41.1822 97.9005 41.3049C100.573 43.1293 102.723 49.3463 103.859 53.3171C105.51 40.7453 99.0754 37.4107 98.9986 37.38C98.6146 37.1961 98.461 36.7361 98.6453 36.3528C98.8296 35.9695 99.298 35.8162 99.6743 36.0002C100.035 36.1765 108.405 40.5 104.742 57.0733C104.666 57.426 104.351 57.6713 103.998 57.6713H104.005Z" fill="#000927"/>
<path d="M60.4044 74.7122C60.0972 74.7122 59.8054 74.5282 59.6903 74.2293C58.5538 71.3546 58.0547 65.6436 59.3677 60.7222C60.3737 56.9353 57.7475 55.4482 57.6323 55.3869C57.2637 55.1875 57.1255 54.7276 57.3175 54.352C57.5095 53.9764 57.9702 53.8384 58.3465 54.03C63.0152 56.4217 66.5322 53.6544 69.358 51.4237L69.8648 51.025C71.7538 49.5532 74.0114 49.4459 75.5703 49.6145C74.2341 48.2654 71.9612 47.2918 70.9706 46.9699C70.5636 46.8395 70.3486 46.4026 70.4791 46.004C70.6097 45.5977 71.0397 45.3831 71.4467 45.5134C71.6694 45.5824 76.845 47.3072 77.9277 50.4808C78.0198 50.7567 77.9507 51.0634 77.7434 51.2703C77.5361 51.4773 77.2289 51.5463 76.9525 51.4543C76.9141 51.439 73.3357 50.2661 70.8093 52.2362L70.3102 52.6272C67.9835 54.4593 64.6816 57.058 60.5196 56.3681C61.1032 57.5486 61.3796 59.1354 60.8575 61.1132C59.6749 65.5516 60.0665 70.979 61.1262 73.662C61.2798 74.0529 61.0878 74.4976 60.6962 74.6585C60.6041 74.6969 60.5042 74.7122 60.4121 74.7122H60.4044Z" fill="#000927"/>
<path d="M55.9582 43.4437C55.7816 43.4437 55.605 43.3823 55.4591 43.2597C55.1366 42.9837 55.0982 42.5008 55.367 42.1788C56.5802 40.7453 62.0783 36.9201 66.4016 35.4483C70.2717 34.1298 75.6931 33.1102 81.268 32.6503C86.0135 32.2593 92.1874 28.9401 92.2488 28.9094C92.5329 28.7561 92.8785 28.7944 93.1242 29.0091C93.3623 29.2237 93.4467 29.561 93.3315 29.86C93.3085 29.9136 93.0551 30.5652 92.4101 31.3241C94.5141 31.1708 97.1864 31.3701 99.4593 32.7806C101.847 34.2601 103.314 36.7745 103.821 40.2394C103.882 40.661 103.591 41.0443 103.176 41.1056C102.746 41.1746 102.37 40.8756 102.308 40.4617C101.863 37.4567 100.634 35.3103 98.653 34.0761C94.8136 31.6921 89.3462 33.4092 89.2924 33.4245C88.8931 33.5548 88.4631 33.3325 88.3249 32.9339C88.2558 32.7346 88.2788 32.5276 88.3633 32.3513C86.2439 33.1792 83.6945 33.9765 81.3908 34.1681C75.9388 34.6204 70.648 35.6093 66.893 36.8894C62.8001 38.2769 57.5094 42.0025 56.5341 43.16C56.3806 43.3363 56.1656 43.4283 55.9505 43.4283L55.9582 43.4437Z" fill="#000927"/>
<path d="M53.1247 75.9772C52.9097 75.9772 52.6947 75.8852 52.5488 75.7166C52.2186 75.341 44.532 66.4334 45.4458 58.3383C45.776 55.41 47.1966 52.9493 49.6616 51.0405C49.508 49.1701 49.4773 42.3629 56.9489 40.8834C57.3635 40.7914 57.7705 41.0674 57.8473 41.489C57.9318 41.903 57.663 42.3093 57.2407 42.3859C50.0762 43.8041 51.1743 50.9562 51.2281 51.2629C51.2741 51.5465 51.1589 51.8378 50.9209 52.0064C48.5942 53.6929 47.2657 55.8853 46.9663 58.507C46.1216 65.9351 53.6239 74.628 53.7007 74.7124C53.9771 75.0343 53.9464 75.5173 53.6239 75.7932C53.478 75.9236 53.3014 75.9849 53.1171 75.9849L53.1247 75.9772Z" fill="#000927"/>
<path d="M81.7748 91.255C77.321 91.255 72.3988 90.6801 66.8546 89.5456C66.2327 89.4153 65.8257 88.8097 65.9562 88.1887C66.0868 87.5678 66.6934 87.1615 67.3154 87.2918C84.4931 90.7951 95.3818 88.8173 104.873 80.4693C113.435 72.9416 103.153 57.7097 103.053 57.5564C102.692 57.0351 102.83 56.3146 103.353 55.9619C103.875 55.6016 104.597 55.7396 104.95 56.2609C105.065 56.4295 107.837 60.4924 109.457 65.6668C111.684 72.7652 110.624 78.4839 106.393 82.2018C99.4056 88.342 91.7651 91.2627 81.7671 91.2627L81.7748 91.255Z" fill="#000927"/>
<path d="M109.411 72.4279C108.935 72.4279 108.49 72.129 108.321 71.6614C108.113 71.0634 108.428 70.4042 109.027 70.1972C109.242 70.1205 109.473 69.8293 109.657 69.3923C110.44 67.5679 110.363 63.597 109.004 60.5844C108.712 59.9481 108.236 59.1509 107.584 59.0129C106.916 58.8672 106.148 59.3962 105.91 59.6108C105.441 60.0324 104.712 59.9941 104.289 59.5265C103.867 59.0589 103.898 58.3383 104.366 57.909C104.543 57.748 106.125 56.3682 108.044 56.7592C109.334 57.0275 110.363 57.9933 111.108 59.6338C112.621 62.9761 112.913 67.6522 111.776 70.2969C111.2 71.6384 110.379 72.1673 109.787 72.3666C109.665 72.4126 109.534 72.4279 109.404 72.4279H109.411Z" fill="#000927"/>
<path d="M91.8802 68.7558C91.6268 68.7558 91.3888 68.6332 91.2352 68.4109C91.0048 68.0583 91.1046 67.583 91.4579 67.353C91.8188 67.1154 91.8802 66.8777 91.8879 66.7014C91.9493 65.6666 90.4366 63.9724 89.469 63.1445C89.1465 62.8686 89.1081 62.3856 89.3846 62.0637C89.661 61.7417 90.1448 61.7034 90.4673 61.9793C90.7821 62.2476 93.5542 64.6623 93.4237 66.7934C93.3776 67.5447 92.986 68.1809 92.3026 68.6332C92.172 68.7175 92.0261 68.7558 91.8802 68.7558Z" fill="#000927"/>
<path d="M99.6897 33.0797C97.4781 31.6692 94.875 31.4009 92.794 31.5083C93.3699 30.803 93.608 30.2204 93.631 30.1744C93.7616 29.8448 93.6771 29.4692 93.416 29.2392C93.1549 29.0016 92.771 28.9556 92.4561 29.1166C92.3947 29.1472 86.1824 32.3745 81.4599 32.7041C75.8697 33.0951 70.4407 34.0456 66.5475 35.3028C63.1687 36.399 59.0682 38.9134 56.8183 40.6458C49.5463 42.11 49.4311 48.7562 49.554 50.6803C47.066 52.5737 45.6147 55.0114 45.2461 57.9474C44.2172 66.0654 51.8039 75.088 52.1264 75.4713C52.3184 75.6936 52.6102 75.8009 52.902 75.755C53.1631 75.7166 53.3858 75.5556 53.5086 75.3257C54.0539 74.9194 57.0717 74.5821 60.0511 74.5974C60.1432 74.5974 60.2277 74.5821 60.3122 74.5591C60.3122 74.5591 60.3352 74.5514 60.3506 74.5438C60.3736 74.5438 60.3813 74.5208 60.4043 74.5131C60.4734 74.4824 60.5349 74.4441 60.5963 74.3904C60.627 74.3675 60.65 74.3445 60.6731 74.3138C60.6961 74.2908 60.7192 74.2755 60.7345 74.2525C60.7652 74.2141 60.7883 74.1681 60.8036 74.1221C60.8036 74.1145 60.819 74.0992 60.819 74.0915C60.8574 74.0072 60.8804 73.9152 60.8804 73.8155C60.8804 73.7925 60.8804 73.7772 60.8804 73.7542C60.8804 73.6622 60.8727 73.5779 60.842 73.4859L60.6116 72.7883C59.7746 69.9443 59.5904 65.0229 60.7345 60.9601C61.272 59.0436 61.0493 57.4798 60.5195 56.2993C64.6354 56.9662 67.9373 54.4442 70.2717 52.6504L70.7785 52.2671C73.2972 50.3583 76.8218 51.5695 76.8602 51.5849C77.1597 51.6922 77.4976 51.6155 77.728 51.3932C77.9583 51.1709 78.0428 50.8336 77.943 50.527C77.8969 50.3967 77.8432 50.2663 77.7817 50.1437C85.3608 51.3549 90.4135 49.4461 93.3622 47.568C95.6045 46.1345 96.9867 44.5247 97.6932 43.5588C98.9602 44.954 100.127 47.66 101.064 50.4043C101.103 50.6573 101.187 50.9026 101.302 51.1326C102.116 53.6316 102.731 56.077 103.03 57.4875C103.114 57.8708 103.452 58.1544 103.844 58.1544C103.936 58.1544 104.028 58.1391 104.113 58.1161C104.389 58.0241 104.604 57.8018 104.673 57.5105C106.578 49.4001 105.549 44.1951 103.959 40.9755C103.982 40.8758 103.998 40.7685 103.982 40.6535C103.514 37.1579 102.07 34.6129 99.682 33.0874L99.6897 33.0797ZM52.9251 73.7695H52.9404L52.9097 73.7542V73.7695H52.9251Z" fill="#000927"/>
<path d="M62.5774 90.2506C60.604 90.2506 58.5921 89.6067 56.68 88.3035C52.6102 85.5439 50.2144 80.6148 51.3509 77.3185C53.4779 71.1246 63.115 73.6926 63.522 73.8076C63.9289 73.9226 64.167 74.3442 64.0595 74.7505C63.9443 75.1568 63.522 75.3944 63.115 75.2871C63.0305 75.2641 54.4608 72.9797 52.8022 77.8244C51.9114 80.4155 54.123 84.7236 57.5401 87.0387C59.6211 88.4492 63.7677 90.2506 68.1984 86.4637C68.5209 86.1878 69.0047 86.2261 69.2811 86.5481C69.5576 86.87 69.5192 87.353 69.1967 87.6289C67.1541 89.3767 64.8888 90.2583 62.5774 90.2583V90.2506Z" fill="#000927"/>
<path fill-rule="evenodd" clip-rule="evenodd" d="M58.0912 73.423C55.3924 73.5397 52.5815 74.4318 51.565 77.3918L51.5649 77.3921C51.0231 78.9635 51.3162 80.9553 52.2668 82.9136C53.2152 84.8674 54.8053 86.7591 56.8072 88.1165L56.8076 88.1168C58.6868 89.3975 60.6549 90.0245 62.5774 90.0245C62.5975 90.0245 62.6169 90.0271 62.6354 90.032C64.8657 90.0174 67.0594 89.1601 69.0494 87.4572C69.2774 87.2621 69.3039 86.9219 69.1093 86.6952C68.9138 86.4675 68.5728 86.441 68.3457 86.6354L68.3456 86.6355C66.0853 88.5673 63.8815 89.0839 61.9694 88.9255C60.0658 88.7678 58.4715 87.9431 57.413 87.2257C55.6715 86.0459 54.2394 84.3606 53.3543 82.6382C52.4733 80.924 52.1138 79.1309 52.588 77.7511C53.4691 75.178 56.1757 74.5361 58.5458 74.5043C60.9236 74.4724 63.0994 75.0487 63.1734 75.0687C63.4612 75.1442 63.7591 74.9761 63.8411 74.6908C63.9161 74.4035 63.747 74.1061 63.4603 74.0251C63.2654 73.97 60.7816 73.3067 58.0912 73.423ZM62.5181 90.4765C60.5129 90.4637 58.4784 89.8029 56.5524 88.4902C54.4847 87.088 52.8421 85.1354 51.8594 83.1108C50.8788 81.0906 50.5422 78.9697 51.1368 77.2449L51.3509 77.3185L51.1367 77.2451C51.1368 77.2451 51.1368 77.245 51.1368 77.2449C52.2475 74.0112 55.3185 73.0904 58.0716 72.9713C60.8333 72.8519 63.3715 73.5301 63.5836 73.5901C64.1102 73.7388 64.4171 74.2836 64.2783 74.8082L64.2773 74.8121L64.2773 74.812C64.1282 75.3379 63.5825 75.6442 63.0572 75.5056L63.0554 75.5052L63.0554 75.5052C63.0199 75.4955 60.8805 74.9252 58.5519 74.9564C56.2015 74.9879 53.794 75.6261 53.0164 77.8976L53.0163 77.8978C52.5998 79.1091 52.9007 80.7655 53.757 82.4318C54.6093 84.0901 55.9915 85.7164 57.6671 86.8516L57.6672 86.8516C58.6897 87.5447 60.2092 88.326 62.0068 88.4749C63.7959 88.6231 65.8807 88.147 68.0511 86.2921C68.469 85.9345 69.0956 85.9847 69.453 86.4009C69.8112 86.8181 69.7609 87.4438 69.3439 87.8006C67.266 89.5786 64.9498 90.4843 62.5774 90.4843C62.5569 90.4843 62.537 90.4816 62.5181 90.4765Z" fill="#000927"/>
<path d="M60.2813 84.4553C60.2813 84.4553 60.2045 84.4553 60.1662 84.4477C59.7438 84.3863 59.4597 83.9954 59.5211 83.5738C59.7976 81.7647 61.0646 81.0058 62.2011 80.7528C61.3487 79.8712 59.5672 79.2886 58.8454 79.1276C58.4307 79.0357 58.1696 78.6217 58.2695 78.2078C58.3616 77.7938 58.7763 77.5332 59.1833 77.6328C59.644 77.7401 63.7215 78.7214 64.1669 81.2971C64.2053 81.5347 64.1361 81.7723 63.9749 81.9486C63.8136 82.1249 63.5756 82.2093 63.3375 82.1939C63.1302 82.1786 61.3026 82.0713 61.0339 83.8038C60.9724 84.1794 60.6499 84.4553 60.2737 84.4553H60.2813Z" fill="#000927"/>
<path d="M97.7009 58.7599C96.3724 57.978 94.4834 58.7292 94.1071 60.2164C94.038 60.477 94.1916 60.7913 94.468 60.8526C94.7445 60.9139 95.0286 60.7836 95.0977 60.5C95.0977 60.4693 95.1284 60.316 95.1591 60.3007C95.1284 60.362 95.1284 60.3773 95.1438 60.3467C95.1438 60.3313 95.1591 60.316 95.1668 60.3007C95.1822 60.27 95.1975 60.2394 95.2129 60.2087C95.2436 60.1474 95.282 60.0937 95.3281 60.0324C95.3818 59.9557 95.2743 60.086 95.3204 60.0477C95.3434 60.0247 95.3665 59.9941 95.3895 59.9711C95.4356 59.9174 95.4893 59.8714 95.5431 59.8254C95.5661 59.8101 95.5891 59.7871 95.6122 59.7717C95.6967 59.7028 95.5277 59.8254 95.6122 59.7717C95.735 59.6951 95.8502 59.6338 95.9808 59.5724C96.0729 59.5264 95.881 59.6031 95.9808 59.5724C96.0115 59.5648 96.0499 59.5494 96.0806 59.5418C96.142 59.5264 96.2035 59.5111 96.2649 59.4958C96.2956 59.4958 96.334 59.4804 96.3647 59.4804C96.4492 59.4651 96.3878 59.4574 96.357 59.4804C96.4031 59.4574 96.5183 59.4804 96.5644 59.4804C96.6028 59.4804 96.741 59.4728 96.7717 59.4958C96.7026 59.4881 96.6872 59.4804 96.7256 59.4958C96.741 59.4958 96.7563 59.4958 96.7794 59.5034C96.8101 59.5034 96.8485 59.5188 96.8792 59.5264C96.9176 59.5341 97.0558 59.5571 97.0789 59.5954C97.0558 59.5648 96.9867 59.5494 97.0712 59.5954C97.1096 59.6184 97.148 59.6338 97.1787 59.6568C97.4167 59.7947 97.7546 59.7258 97.8852 59.4804C98.0157 59.2351 97.9466 58.9208 97.6932 58.7752L97.7009 58.7599Z" fill="#000927"/>
<path fill-rule="evenodd" clip-rule="evenodd" d="M93.8879 60.1599C94.3033 58.5213 96.3628 57.7099 97.8158 58.5651C97.8462 58.583 97.8709 58.6069 97.8893 58.6346C98.1887 58.8634 98.2524 59.272 98.085 59.5865C97.8848 59.9627 97.3959 60.044 97.065 59.8522C97.0574 59.8478 97.05 59.8429 97.0429 59.8376C97.043 59.8377 97.0395 59.8351 97.0224 59.8261C97.0202 59.825 97.0176 59.8236 97.0146 59.822C97.0008 59.8149 96.9796 59.8039 96.959 59.7918C96.9464 59.7849 96.9304 59.7757 96.9141 59.7646C96.9025 59.7617 96.8902 59.759 96.8779 59.7565L96.8552 59.752L96.8348 59.7481L96.8243 59.746C96.8109 59.7427 96.7983 59.7386 96.7899 59.7361C96.7881 59.7356 96.7864 59.7351 96.7848 59.7346C96.7779 59.7325 96.7734 59.7312 96.7687 59.7299C96.7676 59.7295 96.7666 59.7293 96.7658 59.7291C96.7506 59.7282 96.7355 59.7257 96.7207 59.7218C96.6936 59.7212 96.6668 59.7157 96.6416 59.7057C96.6414 59.7056 96.641 59.7054 96.6406 59.7053C96.6314 59.7053 96.6221 59.7054 96.613 59.7056L96.588 59.7061C96.5808 59.7063 96.572 59.7065 96.5644 59.7065C96.5502 59.7065 96.5369 59.7056 96.5269 59.7049C96.5164 59.7041 96.5057 59.703 96.4965 59.7021C96.493 59.7018 96.4895 59.7014 96.4863 59.7011C96.4708 59.6995 96.4578 59.6982 96.4446 59.6973C96.4412 59.697 96.4381 59.6968 96.4353 59.6967C96.4239 59.6994 96.4135 59.7013 96.4052 59.7028C96.3954 59.7046 96.3855 59.7057 96.3756 59.7062C96.3734 59.7067 96.3699 59.7074 96.3639 59.7088L96.3626 59.7091C96.3547 59.7108 96.3414 59.7138 96.3274 59.7162C96.3199 59.7174 96.3108 59.7188 96.3003 59.7199L96.1355 59.7611C96.1302 59.7624 96.1217 59.7651 96.1022 59.7715C96.1014 59.7718 96.1005 59.7721 96.0996 59.7724C96.0895 59.7758 96.0754 59.7805 96.06 59.785C95.9452 59.8396 95.8441 59.8938 95.737 59.9604C95.7355 59.9616 95.7316 59.9647 95.7225 59.9722C95.7219 59.9727 95.7212 59.9733 95.7205 59.9739C95.7125 59.9806 95.6984 59.9923 95.6821 60.0041C95.6304 60.0485 95.5925 60.0818 95.5613 60.1182C95.5575 60.1226 95.5536 60.1268 95.5495 60.1309C95.5453 60.1351 95.5396 60.1416 95.5268 60.1565C95.5262 60.1571 95.5257 60.1578 95.5251 60.1585C95.5147 60.1706 95.4982 60.1898 95.4804 60.2076C95.4798 60.2082 95.4791 60.2088 95.4785 60.2094C95.4505 60.2482 95.431 60.2785 95.4153 60.3098L95.3692 60.4018C95.3645 60.4112 95.3597 60.4196 95.3557 60.4259C95.3529 60.4334 95.3498 60.4407 95.3462 60.4478C95.3461 60.448 95.3459 60.4483 95.3458 60.4487C95.3438 60.4526 95.3384 60.4636 95.3299 60.4772C95.3283 60.4844 95.3269 60.4913 95.3258 60.4975C95.3248 60.5033 95.3242 60.5076 95.3238 60.5103C95.3231 60.5248 95.3211 60.5393 95.3176 60.5534C95.2126 60.9843 94.7858 61.1547 94.4189 61.0733C93.9963 60.9795 93.7926 60.5224 93.8879 60.1599ZM97.1559 59.3729C97.1491 59.3693 97.1414 59.3656 97.133 59.362C97.1016 59.348 97.0694 59.3382 97.0443 59.3313C96.9997 59.3192 96.9517 59.3101 96.9314 59.3062C96.9305 59.3061 96.9296 59.3059 96.9289 59.3058C96.9254 59.3048 96.9237 59.3043 96.9212 59.3035C96.9169 59.3021 96.9106 59.3 96.8898 59.2942C96.8825 59.2922 96.8723 59.2894 96.8599 59.2867C96.8433 59.279 96.8289 59.2744 96.8193 59.2716C96.7984 59.2655 96.7787 59.262 96.7633 59.2598C96.7326 59.2555 96.7011 59.254 96.6759 59.2535C96.6497 59.2529 96.6243 59.2532 96.6043 59.2536C96.5939 59.2538 96.5863 59.2539 96.5804 59.2541C96.5729 59.2543 96.5682 59.2544 96.5644 59.2544C96.5657 59.2545 96.565 59.2544 96.5644 59.2544C96.562 59.2542 96.5548 59.2536 96.5415 59.2523C96.5391 59.252 96.5365 59.2517 96.5336 59.2515C96.5182 59.2499 96.4974 59.2478 96.4768 59.2463C96.4689 59.2458 96.4602 59.2452 96.4509 59.2448C96.4411 59.2428 96.4334 59.2419 96.429 59.2414C96.3865 59.2367 96.3486 59.2439 96.3261 59.2498C96.3148 59.2527 96.3012 59.2569 96.2862 59.263C96.2785 59.2646 96.2717 59.2661 96.267 59.2671L96.2657 59.2674C96.2597 59.2687 96.2562 59.2695 96.254 59.27C96.2391 59.2707 96.2244 59.2728 96.21 59.2764L96.0257 59.3224C96.0146 59.3252 96.0035 59.3284 95.9931 59.3316C95.992 59.3317 95.991 59.3317 95.99 59.3318C95.981 59.3324 95.9735 59.3335 95.9686 59.3343C95.9635 59.3351 95.9591 59.336 95.9558 59.3367C95.9493 59.3381 95.9438 59.3396 95.9402 59.3406C95.9328 59.3427 95.9263 59.3448 95.9216 59.3464C95.9121 59.3497 95.9023 59.3534 95.8938 59.3568C95.8854 59.3601 95.8758 59.3642 95.8665 59.3684C95.8621 59.3705 95.8558 59.3735 95.8489 59.3771C95.8455 59.3789 95.8404 59.3817 95.8344 59.3854C95.8314 59.3872 95.8274 59.3898 95.8228 59.3929C95.8189 59.3956 95.8132 59.3998 95.8066 59.4053C95.7244 59.4458 95.646 59.4879 95.5661 59.5351C95.5632 59.5361 95.5607 59.5369 95.5586 59.5377C95.5493 59.5411 95.542 59.5444 95.5379 59.5464C95.5334 59.5485 95.5296 59.5505 95.527 59.5519C95.5218 59.5547 95.5175 59.5573 95.5148 59.5589C95.5093 59.5622 95.5044 59.5655 95.5009 59.5678C95.4936 59.5728 95.4858 59.5782 95.4791 59.5831C95.4722 59.5881 95.4647 59.5937 95.4578 59.5991C95.4544 59.6018 95.4501 59.6052 95.4457 59.6089C95.4434 59.6108 95.4404 59.6134 95.4371 59.6165L95.4308 59.6224C95.4285 59.6246 95.4253 59.6279 95.4216 59.6319C95.4201 59.6335 95.4181 59.6357 95.4158 59.6385C95.4088 59.6432 95.4022 59.6483 95.3958 59.6537C95.3943 59.655 95.3927 59.6563 95.3912 59.6577C95.3427 59.6991 95.2814 59.7516 95.226 59.8143C95.2202 59.8178 95.2157 59.8209 95.2127 59.823C95.2059 59.8277 95.2005 59.832 95.197 59.8349C95.1902 59.8407 95.1849 59.8457 95.182 59.8486C95.1759 59.8546 95.171 59.86 95.1679 59.8635C95.1614 59.8708 95.155 59.8786 95.1495 59.8855C95.1439 59.8926 95.1376 59.9009 95.1315 59.9096C95.1284 59.9139 95.1248 59.9193 95.121 59.9252C95.1177 59.9304 95.1121 59.9397 95.1064 59.9513C95.1062 59.9518 95.1059 59.9523 95.1056 59.9528C95.0722 59.9996 95.0391 60.0502 95.0104 60.1075L94.9897 60.1489C94.974 60.1652 94.964 60.1799 94.9587 60.1879C94.9445 60.2095 94.9346 60.2306 94.9281 60.2459C94.9148 60.2772 94.9049 60.3105 94.8979 60.3375C94.8905 60.3657 94.8844 60.3941 94.8801 60.4186C94.8782 60.4291 94.8756 60.4443 94.8738 60.461C94.8344 60.5892 94.6965 60.6717 94.5171 60.6319C94.3874 60.6031 94.2839 60.4327 94.3259 60.2742L94.3266 60.2717C94.6578 58.9626 96.316 58.2733 97.5151 58.9148C97.5325 58.937 97.5544 58.9562 97.5803 58.9711C97.7173 59.0498 97.7645 59.2255 97.6853 59.3743C97.6255 59.4867 97.4442 59.5433 97.3002 59.4657C97.2743 59.4478 97.2496 59.4346 97.2332 59.426C97.2312 59.425 97.2293 59.424 97.2275 59.423C97.2015 59.3985 97.1746 59.3825 97.1559 59.3729ZM96.9356 59.7705C96.9424 59.776 96.9495 59.7812 96.9568 59.7858L96.9356 59.7705Z" fill="#000927"/>
<path d="M83.8508 65.2999C82.5224 64.518 80.6333 65.2692 80.2571 66.7564C80.188 67.017 80.3415 67.3313 80.618 67.3927C80.8944 67.454 81.1786 67.3237 81.2477 67.04C81.2477 67.0094 81.2784 66.8561 81.3091 66.8407C81.2784 66.902 81.2784 66.9174 81.2937 66.8867C81.2937 66.8714 81.3091 66.8561 81.3168 66.8407C81.3321 66.8101 81.3475 66.7794 81.3628 66.7487C81.3936 66.6874 81.432 66.6337 81.478 66.5724C81.5318 66.4958 81.4243 66.6261 81.4703 66.5878C81.4934 66.5648 81.5164 66.5341 81.5395 66.5111C81.5855 66.4574 81.6393 66.4114 81.693 66.3654C81.7161 66.3501 81.7391 66.3271 81.7621 66.3118C81.8466 66.2428 81.6777 66.3654 81.7621 66.3118C81.885 66.2351 82.0002 66.1738 82.1307 66.1125C82.2229 66.0665 82.0309 66.1431 82.1307 66.1125C82.1615 66.1048 82.1998 66.0895 82.2306 66.0818C82.292 66.0665 82.3534 66.0512 82.4149 66.0358C82.4456 66.0358 82.484 66.0205 82.5147 66.0205C82.5991 66.0052 82.5377 65.9975 82.507 66.0205C82.5531 65.9975 82.6683 66.0205 82.7143 66.0205C82.7527 66.0205 82.8909 66.0128 82.9217 66.0358C82.8526 66.0282 82.8372 66.0205 82.8756 66.0358C82.8909 66.0358 82.9063 66.0358 82.9293 66.0435C82.9601 66.0435 82.9985 66.0588 83.0292 66.0665C83.0676 66.0741 83.2058 66.0971 83.2288 66.1355C83.2058 66.1048 83.1367 66.0895 83.2211 66.1355C83.2595 66.1585 83.2979 66.1738 83.3286 66.1968C83.5667 66.3348 83.9046 66.2658 84.0351 66.0205C84.1656 65.7752 84.0965 65.4609 83.8431 65.3152L83.8508 65.2999Z" fill="#000927"/>
<path fill-rule="evenodd" clip-rule="evenodd" d="M80.0379 66.6999C80.4533 65.0614 82.5128 64.2499 83.9657 65.1051C83.9961 65.123 84.0209 65.147 84.0392 65.1746C84.3386 65.4034 84.4023 65.812 84.235 66.1266C84.0348 66.5027 83.5459 66.5841 83.215 66.3923C83.2073 66.3878 83.1999 66.383 83.1929 66.3776C83.193 66.3777 83.1895 66.3752 83.1724 66.3662C83.1702 66.365 83.1675 66.3636 83.1645 66.3621C83.1508 66.355 83.1295 66.344 83.1089 66.3318C83.0964 66.3249 83.0803 66.3158 83.0641 66.3047C83.0525 66.3018 83.0401 66.299 83.0278 66.2965L83.0051 66.2921L82.9848 66.2881L82.9742 66.286C82.9609 66.2827 82.9483 66.2787 82.9399 66.2762C82.938 66.2756 82.9363 66.2751 82.9348 66.2746C82.9279 66.2726 82.9234 66.2712 82.9187 66.2699C82.9175 66.2696 82.9166 66.2693 82.9158 66.2691C82.9005 66.2682 82.8854 66.2657 82.8707 66.2618C82.8436 66.2612 82.8168 66.2558 82.7915 66.2457C82.7913 66.2456 82.791 66.2455 82.7905 66.2453C82.7814 66.2453 82.7721 66.2455 82.7629 66.2456L82.738 66.2462C82.7307 66.2463 82.722 66.2465 82.7143 66.2465C82.7002 66.2465 82.6868 66.2457 82.6768 66.2449C82.6664 66.2441 82.6557 66.2431 82.6465 66.2422C82.6429 66.2418 82.6395 66.2415 82.6362 66.2411C82.6207 66.2396 82.6078 66.2383 82.5945 66.2373C82.5911 66.2371 82.588 66.2369 82.5853 66.2367C82.5738 66.2394 82.5635 66.2414 82.5551 66.2429C82.5454 66.2446 82.5355 66.2458 82.5256 66.2463C82.5233 66.2467 82.5198 66.2475 82.5138 66.2488L82.5125 66.2491C82.5047 66.2508 82.4913 66.2538 82.4773 66.2562C82.4699 66.2575 82.4607 66.2589 82.4503 66.26L82.2854 66.3011C82.2802 66.3024 82.2717 66.3051 82.2522 66.3116C82.2513 66.3119 82.2505 66.3122 82.2496 66.3125C82.2394 66.3158 82.2253 66.3205 82.21 66.3251C82.0952 66.3796 81.994 66.4339 81.8869 66.5005C81.8854 66.5016 81.8815 66.5047 81.8725 66.5123C81.8719 66.5128 81.8712 66.5133 81.8705 66.5139C81.8625 66.5206 81.8484 66.5323 81.832 66.5442C81.7803 66.5885 81.7425 66.6219 81.7113 66.6582C81.7075 66.6626 81.7036 66.6669 81.6995 66.6709C81.6952 66.6752 81.6895 66.6816 81.6767 66.6966C81.6762 66.6972 81.6756 66.6978 81.6751 66.6985C81.6647 66.7106 81.6482 66.7298 81.6304 66.7476C81.6297 66.7482 81.6291 66.7488 81.6285 66.7495C81.6005 66.7882 81.581 66.8185 81.5653 66.8498L81.5192 66.9418C81.5145 66.9513 81.5096 66.9596 81.5057 66.966C81.5029 66.9734 81.4997 66.9807 81.4962 66.9878C81.496 66.9881 81.4959 66.9884 81.4957 66.9887C81.4938 66.9926 81.4883 67.0037 81.4798 67.0172C81.4783 67.0244 81.4769 67.0313 81.4758 67.0376C81.4748 67.0433 81.4741 67.0476 81.4738 67.0503C81.4731 67.0648 81.471 67.0793 81.4676 67.0935C81.3626 67.5243 80.9357 67.6947 80.5689 67.6133C80.1463 67.5196 79.9426 67.0624 80.0379 66.6999ZM83.3059 65.9129C83.2991 65.9093 83.2914 65.9056 83.283 65.902C83.2515 65.8881 83.2194 65.8782 83.1943 65.8714C83.1497 65.8592 83.1016 65.8501 83.0813 65.8463C83.0804 65.8461 83.0796 65.846 83.0788 65.8458C83.0754 65.8449 83.0736 65.8443 83.0712 65.8435C83.0669 65.8421 83.0605 65.84 83.0398 65.8343C83.0324 65.8322 83.0222 65.8295 83.0099 65.8268C82.9932 65.8191 82.9788 65.8144 82.9692 65.8116C82.9483 65.8055 82.9286 65.802 82.9133 65.7999C82.8826 65.7955 82.8511 65.7941 82.8259 65.7935C82.7997 65.7929 82.7742 65.7932 82.7543 65.7936C82.7439 65.7938 82.7362 65.794 82.7303 65.7941C82.7228 65.7943 82.7181 65.7944 82.7143 65.7944C82.7157 65.7945 82.715 65.7944 82.7143 65.7944C82.7119 65.7942 82.7047 65.7936 82.6915 65.7923C82.6891 65.7921 82.6864 65.7918 82.6836 65.7915C82.6681 65.7899 82.6473 65.7878 82.6268 65.7864C82.6188 65.7858 82.6101 65.7853 82.6009 65.7849C82.5911 65.7828 82.5834 65.7819 82.579 65.7814C82.5365 65.7767 82.4985 65.784 82.476 65.7898C82.4648 65.7928 82.4511 65.797 82.4361 65.8031C82.4284 65.8046 82.4217 65.8061 82.417 65.8072L82.4157 65.8075C82.4097 65.8088 82.4062 65.8095 82.4039 65.81C82.3891 65.8107 82.3744 65.8129 82.36 65.8165L82.1757 65.8625C82.1646 65.8652 82.1534 65.8685 82.1431 65.8716C82.142 65.8717 82.141 65.8718 82.14 65.8718C82.1309 65.8725 82.1235 65.8735 82.1186 65.8743C82.1134 65.8751 82.1091 65.876 82.1057 65.8767C82.0992 65.8782 82.0938 65.8796 82.0901 65.8806C82.0828 65.8827 82.0762 65.8849 82.0716 65.8864C82.062 65.8897 82.0523 65.8934 82.0438 65.8968C82.0354 65.9002 82.0257 65.9042 82.0165 65.9085C82.0121 65.9105 82.0057 65.9135 81.9989 65.9171C81.9954 65.9189 81.9903 65.9218 81.9844 65.9254C81.9814 65.9273 81.9774 65.9298 81.9728 65.933C81.9689 65.9357 81.9632 65.9398 81.9566 65.9453C81.8744 65.9859 81.796 66.0279 81.7161 66.0752C81.7132 66.0761 81.7107 66.077 81.7086 66.0777C81.6992 66.0811 81.692 66.0845 81.6878 66.0864C81.6833 66.0886 81.6796 66.0905 81.677 66.092C81.6718 66.0948 81.6675 66.0973 81.6648 66.0989C81.6593 66.1023 81.6544 66.1055 81.6509 66.1079C81.6435 66.1128 81.6358 66.1182 81.629 66.1232C81.6222 66.1281 81.6147 66.1337 81.6077 66.1392C81.6044 66.1418 81.6001 66.1452 81.5956 66.149C81.5934 66.1508 81.5904 66.1534 81.587 66.1565L81.5808 66.1624C81.5785 66.1647 81.5752 66.1679 81.5715 66.1719C81.5701 66.1735 81.5681 66.1758 81.5657 66.1785C81.5588 66.1832 81.5521 66.1883 81.5457 66.1938C81.5442 66.1951 81.5427 66.1964 81.5411 66.1977C81.4927 66.2391 81.4314 66.2916 81.3759 66.3544C81.3701 66.3579 81.3656 66.3609 81.3626 66.363C81.3558 66.3678 81.3505 66.3721 81.347 66.375C81.3401 66.3807 81.3349 66.3858 81.3319 66.3886C81.3259 66.3946 81.3209 66.4001 81.3179 66.4035C81.3113 66.4109 81.3049 66.4186 81.2994 66.4256C81.2938 66.4326 81.2875 66.441 81.2814 66.4496C81.2784 66.454 81.2747 66.4593 81.271 66.4652C81.2677 66.4705 81.262 66.4797 81.2564 66.4913C81.2561 66.4918 81.2559 66.4923 81.2556 66.4929C81.2222 66.5396 81.1891 66.5903 81.1604 66.6476L81.1397 66.689C81.124 66.7053 81.114 66.7199 81.1087 66.7279C81.0944 66.7495 81.0845 66.7706 81.078 66.786C81.0648 66.8172 81.0549 66.8505 81.0478 66.8775C81.0404 66.9058 81.0344 66.9342 81.03 66.9586C81.0282 66.9691 81.0256 66.9844 81.0237 67.001C80.9843 67.1292 80.8464 67.2118 80.6671 67.172C80.5373 67.1432 80.4338 66.9728 80.4759 66.8142L80.4765 66.8118C80.8077 65.5027 82.466 64.8133 83.6651 65.4549C83.6825 65.477 83.7044 65.4963 83.7302 65.5111C83.8672 65.5899 83.9144 65.7655 83.8352 65.9144C83.7754 66.0267 83.5942 66.0834 83.4502 66.0057C83.4243 65.9879 83.3995 65.9747 83.3831 65.9661C83.3812 65.965 83.3793 65.964 83.3775 65.9631C83.3514 65.9386 83.3246 65.9226 83.3059 65.9129ZM83.0855 66.3105C83.0923 66.3161 83.0994 66.3212 83.1068 66.3259L83.0855 66.3105Z" fill="#000927"/>
</g>
<defs>
<clipPath id="clip0_941_19915">
<rect width="217.298" height="185.365" fill="white" transform="translate(13.2404 28.8174)"/>
</clipPath>
</defs>
</svg>
