<svg width="243" height="243" viewBox="0 0 243 243" fill="none" xmlns="http://www.w3.org/2000/svg">
<g clip-path="url(#clip0_941_20246)">
<path d="M151.797 66.5913H147.903V70.875L150.239 81.7788L154.134 73.6009L151.797 66.5913Z" fill="#ADB8CD"/>
<path d="M151.098 81.3934L151.073 81.4247L151.051 81.4579C150.824 81.7985 150.519 82.0884 150.153 82.3127C149.806 82.5252 149.429 82.6654 149.042 82.724C149.041 82.7238 149.041 82.7237 149.041 82.7236C149.031 82.7198 149.02 82.7134 149.01 82.7047C149.009 82.7044 149.009 82.7037 149.009 82.7027C149.007 82.6991 149.002 82.688 149.001 82.6671C149 82.6628 149.001 82.6596 149.002 82.6561C149.003 82.6523 149.006 82.6454 149.013 82.6365C149.018 82.6307 149.021 82.6289 149.022 82.6283C149.023 82.6278 149.027 82.6256 149.037 82.6245L149.095 82.6179L149.152 82.6044C149.915 82.425 150.59 81.961 151.028 81.3046C151.946 80.1287 152.683 78.2446 153.115 76.1941C153.555 74.0993 153.704 71.7036 153.337 69.4816L153.337 69.4816L153.336 69.4783C153.089 68.0123 152.536 66.7099 151.384 66.1274L151.321 66.0956L151.254 66.0729C150.715 65.8899 150.149 65.8191 149.585 65.8582C148.999 65.891 148.44 66.0575 147.946 66.3045L147.935 66.3101L147.924 66.3158C147.92 66.3183 147.916 66.3192 147.913 66.3194C147.91 66.3197 147.905 66.3195 147.899 66.3176L147.886 66.3135L147.878 66.3109C147.875 66.3084 147.867 66.301 147.859 66.2859C147.857 66.2813 147.856 66.2776 147.856 66.2744C147.855 66.2709 147.856 66.2664 147.857 66.2606C147.861 66.2511 147.865 66.2428 147.87 66.2369C147.873 66.2341 147.874 66.2326 147.875 66.2319C148.001 66.1719 148.476 65.9507 149.123 65.8203C149.849 65.6739 150.686 65.6644 151.435 66.0371C152.393 66.5196 153.13 67.5595 153.443 69.4639L153.443 69.4643C153.783 71.5278 153.692 73.9011 153.253 76.0886C152.812 78.2908 152.039 80.1997 151.098 81.3934Z" fill="#ADB8CD" stroke="#000927" stroke-width="2"/>
<path d="M125.589 140.699C123.439 139.881 121.812 137.669 119.958 135.441C115.783 130.418 112.668 115.386 113.19 109.334C112.87 107.481 113.556 105.37 115.285 102.886C116.578 100.993 118.564 99.6768 120.822 99.2173C123.081 98.7655 125.425 99.2017 127.357 100.44C129.133 101.554 130.465 103.252 131.119 105.246C132.848 109.693 134.468 117.738 135.145 121.336C135.208 121.648 135.363 121.936 135.589 122.154C135.815 122.372 136.111 122.513 136.43 122.559C141.703 123.291 155.8 126.679 157.374 126.874C158.487 127.108 159.484 127.723 160.185 128.619C160.886 129.514 161.245 130.628 161.198 131.757L161.128 133.782C161.042 136.205 160.123 138.526 158.534 140.348C156.938 142.178 154.765 143.409 152.366 143.83C148.799 143.97 147.093 145.59 143.557 145.154C143.58 145.169 133.331 143.495 125.597 140.691L125.589 140.699Z" fill="#F2F7FF"/>
<path d="M144.71 146.011C144.312 146.011 143.892 145.987 143.448 145.933C142.685 145.902 141.057 145.567 137.287 144.741C134.055 144.04 129.351 142.887 125.316 141.431H125.309C123.206 140.629 121.64 138.721 119.973 136.696L119.35 135.94C115.051 130.769 111.897 115.667 112.395 109.366C112.084 107.325 112.816 105.059 114.631 102.442C116.04 100.37 118.182 98.9527 120.651 98.4542C123.12 97.9558 125.643 98.4309 127.762 99.7861C129.686 100.993 131.134 102.847 131.843 105.004C133.525 109.319 135.106 117.006 135.901 121.197C135.932 121.352 136.002 121.485 136.119 121.594C136.228 121.703 136.376 121.773 136.524 121.788C139.865 122.256 146.696 123.767 151.68 124.873C154.484 125.496 156.906 126.033 157.459 126.103C158.815 126.384 159.975 127.1 160.785 128.136C161.595 129.172 162.016 130.473 161.961 131.789L161.891 133.814C161.805 136.4 160.816 138.907 159.103 140.87C157.397 142.825 155.045 144.157 152.483 144.609C152.451 144.609 152.412 144.616 152.381 144.616C150.909 144.671 149.757 145.006 148.635 145.325C147.451 145.668 146.228 146.018 144.71 146.018V146.011ZM143.627 144.383H143.635C145.465 144.609 146.735 144.243 148.207 143.822C149.398 143.479 150.637 143.129 152.264 143.059C154.461 142.662 156.47 141.517 157.927 139.842C159.399 138.152 160.255 135.987 160.333 133.759L160.403 131.734C160.442 130.784 160.139 129.85 159.554 129.102C158.97 128.354 158.129 127.832 157.195 127.638C156.634 127.568 154.414 127.077 151.338 126.391C146.376 125.293 139.585 123.782 136.306 123.331C135.823 123.268 135.387 123.05 135.036 122.715C134.686 122.38 134.452 121.952 134.367 121.477C133.588 117.341 132.03 109.763 130.379 105.526C129.771 103.673 128.549 102.115 126.929 101.102C125.145 99.9574 123.034 99.5602 120.963 99.9808C118.891 100.401 117.1 101.585 115.916 103.322C114.311 105.635 113.665 107.551 113.945 109.195C113.953 109.257 113.961 109.327 113.953 109.397C113.447 115.262 116.515 130.099 120.542 134.943L121.173 135.706C122.699 137.568 124.14 139.32 125.846 139.967C133.37 142.693 143.284 144.328 143.619 144.383H143.627Z" fill="#000927"/>
<path d="M59.5974 196.129H64.3327V121.158H59.5974V196.129Z" fill="#ADB8CD"/>
<path d="M64.3249 197.298H59.5973C58.9509 197.298 58.4291 196.776 58.4291 196.129V121.158C58.4291 120.511 58.9509 119.989 59.5973 119.989H64.3327C64.9792 119.989 65.501 120.511 65.501 121.158V196.129C65.501 196.776 64.9792 197.298 64.3327 197.298H64.3249ZM60.7578 194.961H63.1567V122.326H60.7578V194.961Z" fill="#000927"/>
<path d="M109.249 215.702H116.617V196.706H109.249V215.702Z" fill="#ADB8CD"/>
<path d="M116.617 216.878H109.249C108.602 216.878 108.081 216.356 108.081 215.709V196.713C108.081 196.067 108.602 195.545 109.249 195.545H116.617C117.263 195.545 117.785 196.067 117.785 196.713V215.709C117.785 216.356 117.263 216.878 116.617 216.878ZM110.417 214.541H115.448V197.881H110.417V214.541Z" fill="#000927"/>
<path d="M142.895 215.702H150.263V196.706H142.895V215.702Z" fill="#ADB8CD"/>
<path d="M150.255 216.878H142.887C142.241 216.878 141.719 216.356 141.719 215.709V196.713C141.719 196.067 142.241 195.545 142.887 195.545H150.255C150.901 195.545 151.423 196.067 151.423 196.713V215.709C151.423 216.356 150.901 216.878 150.255 216.878ZM144.055 214.541H149.087V197.881H144.055V214.541Z" fill="#000927"/>
<path d="M134.787 97.0908C134.787 97.0908 123.805 102.512 91.4677 90.7588C91.4677 90.7588 71.9265 123.315 73.6477 162.849C73.6477 162.849 76.2646 147.147 101.141 149.702C101.141 149.702 116.079 144.086 125.581 155.271C125.581 155.271 130.761 147.529 142.856 150.964C146.563 140.457 146.485 128.992 142.638 118.54L134.779 97.0908H134.787Z" fill="#7FB1FC"/>
<path d="M73.6477 164.017C73.6477 164.017 73.601 164.017 73.5776 164.017C72.9779 163.978 72.5106 163.503 72.4795 162.903C70.7582 123.478 90.2683 90.4863 90.463 90.1591C90.7512 89.6763 91.3353 89.4738 91.865 89.6607C123.112 101.016 134.172 96.0939 134.281 96.0394C134.577 95.8992 134.92 95.8914 135.231 96.0161C135.535 96.1407 135.776 96.3821 135.885 96.6937L143.736 118.143C147.669 128.829 147.755 140.621 143.962 151.361C143.759 151.945 143.136 152.264 142.544 152.093C131.399 148.923 126.601 155.855 126.555 155.925C126.352 156.229 126.017 156.423 125.651 156.439C125.277 156.462 124.935 156.307 124.693 156.026C115.853 145.621 102.13 150.582 101.554 150.8C101.382 150.862 101.203 150.886 101.024 150.87C77.5108 148.448 74.8238 162.896 74.8004 163.044C74.707 163.612 74.2163 164.017 73.6477 164.017ZM91.9896 92.1919C89.1702 97.2466 74.8004 124.639 74.707 157.623C77.7834 152.95 84.9099 146.937 101.001 148.518C103.073 147.833 116.36 143.962 125.542 153.495C127.544 151.392 132.793 147.326 142.101 149.562C145.356 139.616 145.161 128.782 141.54 118.945L134.078 98.5863C130.441 99.6611 118.299 101.616 91.9818 92.1997L91.9896 92.1919Z" fill="#000927"/>
<path d="M171.658 191.62C171.658 191.62 171.354 147.989 137.77 150.107C137.77 150.107 131.516 148.822 125.62 155.279C125.62 155.279 134.561 155.403 136.687 189.517L146.579 200.771C146.579 200.771 158.23 190.568 171.658 191.62Z" fill="#F2F7FF"/>
<path d="M146.579 201.939C146.252 201.939 145.932 201.807 145.699 201.542L135.807 190.288C135.636 190.093 135.535 189.844 135.519 189.587C133.533 157.654 125.628 156.455 125.55 156.447C125.09 156.447 124.701 156.167 124.522 155.746C124.343 155.325 124.444 154.835 124.756 154.492C130.55 148.144 136.711 148.76 137.832 148.939C146.54 148.425 153.861 150.855 159.586 156.19C172.514 168.246 172.818 190.669 172.826 191.612C172.826 191.939 172.694 192.25 172.452 192.476C172.211 192.702 171.899 192.811 171.564 192.788C158.814 191.799 147.459 201.55 147.35 201.651C147.132 201.846 146.851 201.939 146.579 201.939ZM137.832 189.042L146.711 199.151C149.577 196.9 158.807 190.373 169.664 190.373C169.921 190.373 170.178 190.373 170.443 190.381C170.178 185.529 168.511 167.693 157.989 157.888C152.732 152.989 145.956 150.761 137.848 151.275C137.747 151.275 137.638 151.275 137.536 151.252C137.326 151.213 132.63 150.364 127.707 154.842C130.776 156.782 136.205 163.784 137.832 189.042Z" fill="#000927"/>
<path d="M136.688 189.509C136.688 189.509 119.857 197.056 116.367 204.004C116.367 204.004 106.85 183.785 105.269 178.769C105.269 178.769 91.3042 184.462 81.4751 180.973C71.6383 177.484 73.8035 159.609 73.8035 159.609C73.8035 159.609 86.8803 137.467 120.488 151.003C120.488 150.964 137.03 153.534 136.688 189.501V189.509Z" fill="#F2F7FF"/>
<path d="M116.367 205.172H116.352C115.908 205.172 115.503 204.907 115.308 204.502C114.942 203.731 106.904 186.627 104.56 180.288C100.946 181.588 89.6686 185.124 81.0857 182.079C70.4934 178.317 72.5495 160.24 72.643 159.477C72.6586 159.313 72.7131 159.165 72.7988 159.025C72.9312 158.799 86.7635 136.205 120.869 149.905C122.263 150.115 124.288 151.291 124.319 151.307C129.483 154.329 138.113 163.316 137.864 189.525C137.864 189.976 137.591 190.389 137.17 190.576C137.007 190.646 120.682 198.03 117.419 204.533C117.224 204.93 116.819 205.179 116.375 205.179L116.367 205.172ZM105.269 177.6C105.44 177.6 105.612 177.639 105.767 177.71C106.063 177.85 106.289 178.107 106.383 178.418C107.644 182.406 114.14 196.456 116.539 201.605C121.118 195.74 132.567 190.14 135.527 188.754C135.636 155.411 121.025 152.288 120.386 152.171C120.277 152.163 120.168 152.132 120.059 152.093C89.1935 139.663 76.4204 157.701 74.9406 159.999C74.7381 162.109 73.6243 176.946 81.8723 179.875C91.1795 183.177 104.7 177.741 104.833 177.686C104.973 177.632 105.121 177.6 105.277 177.6H105.269Z" fill="#000927"/>
<path d="M171.658 191.619C171.658 191.619 186.487 195.786 184.267 198.31C182.055 200.833 146.579 200.755 146.579 200.755C146.579 200.755 153.97 190.295 171.658 191.619Z" fill="#000927"/>
<path d="M147.389 201.145C146.789 201.145 146.384 201.238 146.228 200.934C146.158 200.802 146.174 200.646 146.26 200.529C146.337 200.42 153.986 189.906 171.681 191.23C171.704 191.23 171.736 191.23 171.759 191.246C173.013 191.596 184.041 194.766 184.828 197.414C184.953 197.827 184.859 198.224 184.555 198.567C182.406 201.012 153.542 201.145 147.381 201.145H147.389ZM147.397 200.366C161.587 200.343 182.46 199.774 183.971 198.053C184.127 197.881 184.111 197.741 184.08 197.632C183.582 195.958 176.167 193.294 171.588 192.001C156.875 190.911 149.328 198.17 147.397 200.358V200.366Z" fill="#000927"/>
<path d="M136.688 189.509C136.688 189.509 153.246 199.027 151.026 201.55C148.806 204.074 116.367 203.996 116.367 203.996C116.367 203.996 119 188.201 136.688 189.517V189.509Z" fill="#000927"/>
<path d="M117.131 204.377C116.601 204.377 116.266 204.463 116.071 204.237C116.001 204.151 115.962 204.035 115.986 203.926C116.009 203.762 118.899 187.803 136.719 189.12C136.773 189.12 136.836 189.143 136.882 189.174C138.331 190.008 151.049 197.399 151.595 200.748C151.665 201.161 151.563 201.527 151.314 201.807C149.165 204.245 122.793 204.377 117.123 204.377H117.131ZM116.85 203.598C117.029 203.598 117.216 203.598 117.403 203.598C130.363 203.598 149.235 202.999 150.738 201.285C150.8 201.207 150.87 201.098 150.831 200.865C150.419 198.357 140.473 192.134 136.571 189.883C121.181 188.793 117.458 201.052 116.85 203.591V203.598Z" fill="#000927"/>
<path d="M84.1388 105.604C84.1388 105.604 58.8029 102.847 58.8029 115.168C58.8029 125.044 59.6207 139.406 59.6207 139.406H75.0029L84.1388 105.604Z" fill="#ADB8CD"/>
<path d="M75.0029 140.574H59.6207C58.9976 140.574 58.4914 140.091 58.4524 139.468C58.4446 139.328 57.6346 124.958 57.6346 115.16C57.6346 112.582 58.6082 110.401 60.532 108.68C67.2456 102.66 83.578 104.365 84.2712 104.435C84.6139 104.474 84.9176 104.654 85.1123 104.942C85.307 105.222 85.3616 105.573 85.2759 105.908L76.14 139.709C75.9998 140.216 75.5403 140.574 75.0107 140.574H75.0029ZM60.7267 138.237H74.1072L82.6434 106.655C78.6479 106.383 66.9886 106.024 62.0819 110.425C60.6566 111.702 59.9634 113.252 59.9634 115.168C59.9634 123.323 60.532 134.686 60.7189 138.237H60.7267Z" fill="#000927"/>
<path d="M59.5974 196.129H92.231V181.876H59.5974V196.129Z" fill="#ADB8CD"/>
<path d="M92.231 197.297H59.5973C58.9509 197.297 58.4291 196.776 58.4291 196.129V181.876C58.4291 181.23 58.9509 180.708 59.5973 180.708H92.231C92.8774 180.708 93.3993 181.23 93.3993 181.876V196.129C93.3993 196.776 92.8774 197.297 92.231 197.297ZM60.7656 194.961H91.0627V183.045H60.7656V194.961Z" fill="#000927"/>
<path d="M92.231 196.129H112.925L106.445 181.884H92.231V196.129Z" fill="#ADB8CD"/>
<path d="M112.925 197.297H92.231C91.5846 197.297 91.0627 196.776 91.0627 196.129V181.884C91.0627 181.238 91.5846 180.716 92.231 180.716H106.445C106.904 180.716 107.317 180.981 107.512 181.401L113.992 195.646C114.156 196.005 114.124 196.425 113.914 196.76C113.696 197.095 113.33 197.297 112.933 197.297H112.925ZM93.3993 194.961H111.11L105.689 183.052H93.3993V194.961Z" fill="#000927"/>
<path d="M84.131 215.702H91.4989V196.706H84.131V215.702Z" fill="#ADB8CD"/>
<path d="M91.4989 216.878H84.131C83.4845 216.878 82.9627 216.356 82.9627 215.709V196.713C82.9627 196.067 83.4845 195.545 84.131 195.545H91.4989C92.1453 195.545 92.6671 196.067 92.6671 196.713V215.709C92.6671 216.356 92.1453 216.878 91.4989 216.878ZM85.2992 214.541H90.3306V197.881H85.2992V214.541Z" fill="#000927"/>
<path d="M60.6566 215.702H68.0244V196.706H60.6566V215.702Z" fill="#ADB8CD"/>
<path d="M68.0244 216.878H60.6566C60.0101 216.878 59.4883 216.356 59.4883 215.709V196.713C59.4883 196.067 60.0101 195.545 60.6566 195.545H68.0244C68.6709 195.545 69.1927 196.067 69.1927 196.713V215.709C69.1927 216.356 68.6709 216.878 68.0244 216.878ZM61.8248 214.541H66.8562V197.881H61.8248V214.541Z" fill="#000927"/>
<path d="M141.968 128.035V111.897H146.532V129.094L141.968 128.035Z" fill="#F2F7FF"/>
<path d="M146.532 130.262C146.447 130.262 146.353 130.254 146.267 130.231L141.703 129.172C141.174 129.047 140.8 128.58 140.8 128.034V111.897C140.8 111.25 141.322 110.729 141.968 110.729H146.532C147.179 110.729 147.7 111.25 147.7 111.897V129.094C147.7 129.452 147.537 129.787 147.257 130.005C147.046 130.169 146.789 130.262 146.532 130.262ZM143.136 127.108L145.364 127.622V113.065H143.136V127.108Z" fill="#000927"/>
<path d="M146.532 111.897H157.794L156.735 143.464L146.532 145.419V111.897Z" fill="#F2F7FF"/>
<path d="M146.532 146.587C146.26 146.587 146.003 146.493 145.784 146.322C145.52 146.096 145.364 145.769 145.364 145.418V111.897C145.364 111.25 145.886 110.729 146.532 110.729H157.794C158.114 110.729 158.417 110.861 158.635 111.087C158.854 111.313 158.97 111.624 158.963 111.936L157.903 143.502C157.888 144.048 157.491 144.507 156.953 144.608L146.75 146.563C146.68 146.579 146.602 146.587 146.532 146.587ZM147.7 113.065V144.001L155.598 142.49L156.587 113.065H147.7Z" fill="#000927"/>
<path d="M133.705 142.981C133.705 142.981 145.27 146.454 146.555 142.685C147.841 138.915 144.063 140.193 144.063 140.193C144.063 140.193 150.465 142.498 150.956 138.362C151.447 134.227 142.568 134.289 142.568 134.289L150.317 135.41C150.652 135.465 150.987 135.41 151.299 135.278C151.61 135.146 151.867 134.92 152.054 134.647C152.241 134.367 152.342 134.04 152.35 133.705C152.35 133.37 152.264 133.043 152.093 132.755C149.998 129.663 141.976 128.775 141.976 128.775C143.9 122.723 130.044 130.402 130.044 130.402" fill="#F2F7FF"/>
<path d="M142.225 145.239C138.783 145.239 134.694 144.094 133.479 143.728C133.066 143.604 132.832 143.168 132.957 142.755C133.081 142.342 133.51 142.108 133.93 142.233C138.432 143.588 145.099 144.538 145.816 142.435C145.948 142.046 146.018 141.727 146.034 141.493C144.897 141.314 143.993 141.002 143.791 140.932C143.479 140.823 143.269 140.527 143.277 140.192C143.277 139.865 143.495 139.569 143.806 139.46C144.024 139.382 145.971 138.767 147.023 139.819C147.093 139.889 147.163 139.967 147.218 140.052C148.02 140.099 148.814 140.013 149.375 139.663C149.834 139.382 150.091 138.923 150.169 138.276C150.232 137.762 150.099 137.342 149.757 136.96C149.336 136.485 148.658 136.127 147.872 135.862L142.451 135.075C142.046 135.021 141.758 134.655 141.789 134.25C141.82 133.845 142.155 133.525 142.56 133.525C143.004 133.525 145.847 133.533 148.253 134.343L150.426 134.663C150.621 134.694 150.808 134.663 150.979 134.592C151.151 134.515 151.299 134.39 151.4 134.234C151.501 134.078 151.563 133.899 151.563 133.712C151.563 133.525 151.517 133.346 151.423 133.183C149.897 130.924 144.016 129.81 141.882 129.569C141.649 129.546 141.446 129.413 141.314 129.218C141.181 129.024 141.15 128.782 141.22 128.556C141.407 127.972 141.415 127.544 141.252 127.412C140.239 126.586 134.826 128.65 130.41 131.103C130.036 131.314 129.561 131.173 129.351 130.8C129.141 130.426 129.281 129.951 129.655 129.74C132.022 128.432 139.912 124.304 142.241 126.204C142.63 126.524 143.02 127.108 142.903 128.136C145.099 128.471 150.87 129.585 152.732 132.342C153.004 132.786 153.137 133.261 153.121 133.744C153.113 134.226 152.965 134.694 152.693 135.099C152.428 135.496 152.046 135.815 151.602 136.01C151.447 136.08 151.283 136.135 151.12 136.166C151.61 136.828 151.821 137.622 151.719 138.463C151.587 139.585 151.057 140.457 150.193 140.995C149.429 141.462 148.495 141.625 147.576 141.625C147.545 142.023 147.443 142.459 147.28 142.942C146.688 144.686 144.608 145.239 142.217 145.239H142.225Z" fill="#000927"/>
<path d="M97.8387 138.822C95.6891 138.012 94.0691 135.8 92.2155 133.572C88.0331 128.549 84.9255 113.517 85.4395 107.466C85.1202 105.612 85.8056 103.493 87.5424 101.009C88.8353 99.1163 90.8213 97.7923 93.0722 97.3406C95.3309 96.881 97.6752 97.325 99.6067 98.5711C101.382 99.6849 102.722 101.375 103.376 103.369C105.098 107.824 106.718 115.862 107.395 119.468C107.45 119.779 107.605 120.067 107.839 120.285C108.065 120.503 108.361 120.644 108.68 120.69C113.953 121.422 128.05 124.81 129.623 124.997L133.596 125.807L133.837 143.44L126.485 143.729C122.933 143.861 119.382 143.697 115.861 143.254C115.861 143.254 105.573 141.672 97.8465 138.837L97.8387 138.822Z" fill="#7FB1FC"/>
<path d="M124.094 144.928C121.29 144.928 118.478 144.749 115.713 144.406C115.254 144.336 105.183 142.771 97.4415 139.92H97.4337C95.2374 139.087 93.6485 137.139 91.9584 135.083L91.3276 134.32C86.9972 129.117 83.7961 113.914 84.2712 107.504C83.9597 105.37 84.7152 103.018 86.5922 100.331C88.0564 98.1816 90.2839 96.7018 92.8541 96.1877C95.4243 95.6659 98.049 96.1644 100.253 97.5819C102.247 98.828 103.758 100.752 104.498 102.995C106.188 107.349 107.769 115.051 108.556 119.242C108.571 119.312 108.602 119.382 108.657 119.428C108.711 119.475 108.774 119.514 108.852 119.522C112.177 119.981 118.945 121.485 123.883 122.575C126.633 123.183 129.234 123.759 129.764 123.821C129.795 123.821 129.826 123.829 129.857 123.837L133.829 124.647C134.367 124.756 134.756 125.223 134.764 125.776L135.013 143.409C135.021 144.04 134.522 144.57 133.892 144.593L126.531 144.881C125.721 144.912 124.911 144.928 124.094 144.928ZM98.2515 137.731C105.775 140.496 115.931 142.077 116.033 142.093C119.452 142.521 122.957 142.677 126.438 142.552L132.653 142.311L132.435 126.757L129.429 126.142C128.751 126.049 126.765 125.613 123.369 124.865C118.463 123.782 111.749 122.295 108.517 121.843C107.956 121.765 107.442 121.516 107.037 121.126C106.624 120.737 106.352 120.231 106.25 119.678C105.627 116.368 103.992 108.182 102.286 103.789C101.694 102.006 100.534 100.526 98.9914 99.5601C97.2935 98.4698 95.2763 98.0881 93.3136 98.4853C91.3432 98.8825 89.6453 100.012 88.5159 101.671C86.9583 103.898 86.3352 105.729 86.6 107.271C86.6156 107.372 86.6234 107.465 86.6156 107.567C86.1171 113.385 89.1546 128.058 93.1267 132.832L93.7654 133.611C95.253 135.418 96.6549 137.124 98.2593 137.739L98.2515 137.731Z" fill="#000927"/>
<path d="M159.149 140.504C158.075 136.664 159.796 136.43 159.796 136.43C159.796 136.43 155.263 140.083 155.006 135.932C154.757 131.781 158.277 133.494 158.277 133.494L155.769 133.043C155.434 133.074 155.099 133.011 154.796 132.863C154.492 132.715 154.243 132.482 154.071 132.194C153.9 131.905 153.814 131.578 153.822 131.243C153.83 130.908 153.939 130.581 154.134 130.309C156.4 127.334 159.469 129.359 159.469 129.359" fill="#F2F7FF"/>
<path d="M159.149 141.283C158.807 141.283 158.495 141.057 158.402 140.714C158.153 139.834 158.028 139.055 158.02 138.385C157.226 138.697 156.361 138.845 155.621 138.518C154.78 138.144 154.313 137.295 154.227 135.986C154.165 135.013 154.297 134.226 154.601 133.634C154.546 133.611 154.492 133.588 154.437 133.564C154.001 133.346 153.643 133.011 153.394 132.591C153.145 132.17 153.02 131.695 153.035 131.212C153.051 130.729 153.207 130.254 153.479 129.857C155.645 127.014 158.612 127.855 159.889 128.696C160.248 128.93 160.349 129.413 160.107 129.779C159.874 130.137 159.391 130.239 159.025 129.997C158.776 129.834 156.494 128.463 154.733 130.768C154.648 130.893 154.593 131.072 154.585 131.259C154.585 131.446 154.624 131.625 154.726 131.788C154.819 131.952 154.959 132.077 155.131 132.162C155.302 132.248 155.489 132.279 155.676 132.264C155.746 132.264 155.824 132.264 155.894 132.271L156.486 132.38C157.506 132.279 158.464 132.723 158.604 132.793C158.955 132.965 159.126 133.362 159.001 133.736C158.885 134.109 158.503 134.328 158.121 134.257L156.462 133.954C156.377 133.977 156.291 134.008 156.221 134.063C155.87 134.296 155.715 134.943 155.769 135.885C155.793 136.267 155.886 136.929 156.237 137.085C156.735 137.31 157.763 136.851 158.596 136.321C159.04 135.768 159.57 135.675 159.679 135.659C160.03 135.613 160.357 135.807 160.497 136.127C160.637 136.446 160.544 136.82 160.271 137.038C160.17 137.124 159.959 137.279 159.687 137.466C159.531 137.848 159.438 138.681 159.882 140.286C159.998 140.698 159.757 141.127 159.344 141.244C159.274 141.267 159.204 141.275 159.134 141.275L159.149 141.283Z" fill="#000927"/>
<path d="M147.225 64.7532C147.404 64.7376 147.584 64.6831 147.732 64.5819C147.887 64.4806 148.004 64.3482 148.09 64.1924C157.895 45.4145 149.133 37.4858 148.76 37.1587C148.658 37.0574 148.534 36.9718 148.401 36.9172C148.269 36.8627 148.121 36.8394 147.981 36.8394C147.833 36.8394 147.693 36.8783 147.56 36.9406C147.428 37.0029 147.311 37.0886 147.217 37.1976C147.124 37.3067 147.046 37.4313 147.007 37.5715C146.96 37.7117 146.945 37.8519 146.96 37.9998C146.976 38.1478 147.023 38.2802 147.093 38.4126C147.163 38.5372 147.264 38.6463 147.381 38.732C147.693 39.0123 153.916 44.8303 148.246 58.8651C148.137 53.6858 147.529 45.9752 144.92 42.9611C144.819 42.852 144.702 42.7664 144.562 42.7041C144.429 42.6418 144.281 42.6106 144.133 42.6106C143.985 42.6106 143.837 42.6418 143.705 42.7041C143.572 42.7664 143.448 42.852 143.347 42.9611C142.981 43.3583 134.125 52.6344 117.193 44.5421C117.068 44.472 116.928 44.4331 116.788 44.4175C116.648 44.402 116.5 44.4175 116.367 44.4643C116.235 44.511 116.103 44.5811 115.994 44.6745C115.885 44.768 115.799 44.8848 115.737 45.0095C115.674 45.1341 115.643 45.2743 115.635 45.4222C115.635 45.5624 115.651 45.7104 115.705 45.8428C115.76 45.9752 115.838 46.0998 115.931 46.2011C116.032 46.3023 116.149 46.388 116.282 46.4425C125.854 51.0144 133.089 50.2433 137.474 48.7946C139.826 48.0314 142.015 46.8397 143.931 45.282C146.135 49.4099 146.26 59.753 146.104 63.694C146.104 63.9354 146.174 64.1769 146.322 64.3638C146.47 64.5585 146.68 64.6909 146.922 64.7454C147.023 64.761 147.132 64.7688 147.233 64.761L147.225 64.7532Z" fill="#000927"/>
<path d="M89.2636 71.2175H89.3103C89.4505 71.202 89.5829 71.163 89.6997 71.0929C89.8244 71.0228 89.9256 70.9372 90.0191 70.8281C90.1047 70.7191 90.1671 70.5945 90.206 70.4621C90.2449 70.3297 90.2527 70.1895 90.2371 70.0493C89.8244 66.5055 91.1017 59.8931 93.9445 54.9552C94.9959 53.2573 95.4165 51.2323 95.1127 49.2541C99.8793 51.3102 104.646 49.2541 108.01 47.8288L108.735 47.5172C112.356 45.9907 116.243 48.522 116.29 48.5453C116.453 48.6544 116.648 48.7167 116.843 48.7167C117.037 48.7167 117.232 48.6699 117.403 48.5765C117.575 48.4752 117.715 48.335 117.801 48.1637C117.894 47.9923 117.933 47.7976 117.925 47.6029C117.637 43.3972 111.928 39.6509 111.687 39.464C111.453 39.316 111.173 39.2693 110.9 39.3316C110.627 39.3939 110.394 39.5497 110.246 39.7833C110.098 40.017 110.043 40.2896 110.098 40.5622C110.152 40.8347 110.308 41.0684 110.542 41.2242C112.317 42.3847 113.852 43.8722 115.059 45.6091C112.761 44.7056 110.207 44.7056 107.917 45.6091L107.185 45.9284C103.096 47.6808 97.9867 49.8694 93.1968 45.539C92.9865 45.3676 92.7217 45.282 92.4491 45.3053C92.1765 45.3287 91.9272 45.4455 91.7481 45.6402C91.569 45.8349 91.4677 46.0997 91.4677 46.3646C91.4677 46.6372 91.5768 46.8864 91.7715 47.0811C91.8805 47.1823 94.513 49.7603 92.1142 53.9116C88.9443 59.4102 87.6981 66.451 88.1421 70.2907C88.1732 70.5555 88.3056 70.8048 88.5159 70.9761C88.7184 71.1474 88.991 71.2331 89.2558 71.2175H89.2636Z" fill="#000927"/>
<path d="M151.439 44.5812C151.688 44.5656 151.914 44.4644 152.093 44.293C152.272 44.1217 152.381 43.8958 152.412 43.6544C152.919 39.3006 151.953 35.788 149.546 33.2256C147.404 31.1228 144.663 29.7286 141.703 29.2302C142.241 28.8407 142.716 28.389 143.129 27.8672C143.253 27.6958 143.315 27.4855 143.323 27.2753C143.323 27.065 143.261 26.8547 143.144 26.6755C143.027 26.4964 142.856 26.364 142.653 26.2861C142.451 26.2082 142.233 26.1927 142.03 26.2394C141.952 26.2394 133.463 28.2566 127.653 27.213C121.453 26.0369 115.145 25.5618 108.844 25.8188C103.119 26.1927 95.2762 29.0744 93.3135 30.3673C93.0877 30.5308 92.9319 30.7723 92.8852 31.0449C92.8384 31.3175 92.9008 31.5979 93.0565 31.8237C93.2123 32.0496 93.4537 32.2054 93.7263 32.2599C93.9989 32.3144 94.2793 32.2599 94.513 32.0963C96.0473 31.0293 103.587 28.2644 108.945 27.9061C115.074 27.6647 121.212 28.132 127.24 29.2925C130.153 29.713 133.113 29.7364 136.033 29.3626C135.94 29.5417 135.893 29.7364 135.901 29.9389C135.916 30.2115 136.041 30.4763 136.251 30.6555C136.454 30.8424 136.726 30.9358 137.007 30.9203C137.077 30.9203 144.18 30.6165 147.989 34.6821C149.951 36.7772 150.722 39.7134 150.302 43.4207C150.286 43.5609 150.302 43.6933 150.333 43.8335C150.372 43.9659 150.434 44.0905 150.52 44.1996C150.605 44.3086 150.715 44.3943 150.831 44.4644C150.948 44.5345 151.088 44.5734 151.221 44.589H151.431L151.439 44.5812Z" fill="#000927"/>
<path d="M86.8414 69.7067C85.2837 64.4106 91.3846 54 94.6298 49.4567C93.851 43.2259 114.101 47.1202 116.048 43.226C117.606 40.1106 133.313 42.9663 140.971 44.7836C140.712 43.6154 141.127 41.824 144.865 44.0048C148.604 46.1856 147.981 55.0384 147.202 59.1923C146.683 60.2308 145.956 62.6192 147.202 63.8654C148.448 65.1115 149.279 73.4711 149.538 77.4952C149.409 81 148.292 88.7106 144.865 91.5144C140.613 94.9934 134.059 96.5539 125.964 98.4811L125.784 98.524C119.241 100.082 102.548 94.7596 95.0193 91.9038C94.6298 91.2548 92.9943 89.9567 89.5673 89.9567C86.1404 89.9567 85.2837 87.6202 85.2837 86.4519C86.452 83.0769 88.3991 75.0029 86.8414 69.7067Z" fill="white"/>
<path d="M77.4407 58.4761C77.6276 59.8625 77.9547 61.2255 78.4065 62.5495C78.4376 62.643 78.4844 62.7364 78.5389 62.8299C78.5389 63.523 78.6713 64.2084 78.9127 64.8549C79.0373 65.4468 79.2009 66.0231 79.4034 66.5995C79.567 67.1135 79.9019 67.5575 80.338 67.8612C80.782 68.165 81.3116 68.3207 81.849 68.2974C82.6278 68.788 83.5001 69.1074 84.4114 69.2476C85.3226 69.3878 86.2495 69.341 87.1451 69.1074C87.5813 68.9672 87.9707 68.7102 88.2667 68.3675C88.5704 68.0248 88.7651 67.6042 88.8508 67.1603C88.8508 66.911 88.8508 66.654 88.9053 66.397C88.9988 66.1088 89.0533 65.8051 89.0689 65.5013C89.1546 63.6477 89.4817 61.8174 90.0502 60.0494C91.8883 58.1646 93.0877 55.7502 93.4694 53.1488C93.555 52.5491 93.4616 51.9338 93.1812 51.3886C93.6874 50.2048 93.8276 48.8963 93.594 47.6268C97.8543 49.4259 103.851 48.32 107.598 46.7078C108.096 46.4975 116.274 49.6596 112.543 47.6813C114.498 47.6813 112.543 46.2091 114.49 46.3415C114.919 46.3805 115.254 47.3231 115.659 47.1829C116.064 47.0427 115.651 47.471 115.963 47.1829C116.111 47.3231 116.438 47.5098 116.438 47.1204C116.562 47.2294 116.858 47.4321 117.014 47.5022C118.034 48.0162 120.363 48.4368 121.5 48.5303C121.812 48.7483 122.31 48.164 122.668 48.2887C124.117 48.7638 125.176 47.876 126.703 47.8293C126.96 47.8215 127.209 47.767 127.45 47.6813C128.011 47.9072 128.588 48.1175 129.148 48.3667C129.639 48.5692 130.176 48.6315 130.706 48.5303C131.228 48.429 131.711 48.1798 132.092 47.8137C133.315 47.8137 134.53 47.7047 135.737 47.5022C139.094 46.9336 139.974 46.879 142.918 45.1733C142.918 45.5627 144.865 50.2358 145.255 51.7935C145.309 52.1985 145.434 53.0007 145.644 53.3512C145.574 53.5926 146.01 54.2624 146.034 54.5194L146.524 54.4339C146.556 54.9012 146.517 53.546 146.781 53.9277L147.225 54.4339C147.342 54.5274 147.467 54.6053 147.591 54.6754C147.42 54.6754 147.256 54.7065 147.101 54.7844C146.945 54.8623 146.813 54.9791 146.711 55.1193C146.61 55.2595 146.548 55.423 146.524 55.5944L146.33 58.149C146.314 58.3204 146.345 58.4917 146.408 58.6475L147.467 61.093C147.552 61.28 147.685 61.4435 147.856 61.5526C148.028 61.6616 148.23 61.7239 148.433 61.7317H148.495C148.69 61.7239 148.876 61.6538 149.032 61.5448C149.188 61.4357 149.313 61.28 149.391 61.1008L150.917 57.596C151.018 57.3624 151.034 57.1054 150.964 56.8639C150.886 56.6225 150.73 56.42 150.512 56.2876L148.464 55.0025L149.141 55.0492C149.492 55.0336 149.834 54.9324 150.138 54.7532C150.458 54.6286 150.738 54.4183 150.956 54.1535C151.19 53.9043 151.353 53.6083 151.447 53.2812C151.587 52.9619 151.641 52.6036 151.602 52.2531V51.708C151.571 51.2952 151.447 50.898 151.229 50.5553C151.291 50.3138 151.314 50.0568 151.283 49.8076C150.847 46.6766 150.512 43.5379 150.271 40.3835C150.785 40.1109 151.174 39.6592 151.353 39.1062C151.54 38.561 151.501 37.9613 151.26 37.4395C150.839 36.4504 150.177 35.5858 149.32 34.9238C146.369 31.9175 142.389 30.2352 138.23 29.3473C133.44 28.327 128.471 28.1868 123.603 27.8285C117.972 27.408 112.208 26.6213 106.562 27.1354C103.828 27.3301 101.141 27.9843 98.6253 29.0747C97.4103 29.6277 96.2888 30.3754 95.066 30.9206C93.851 31.4657 93.4694 31.1231 92.2154 30.8427C89.1078 30.1339 86.9582 32.8677 85.6731 35.3132C84.8242 36.9644 84.3179 38.7713 84.1855 40.6172C83.6559 40.586 83.1341 40.7496 82.7057 41.0611C82.2072 41.2403 81.7633 41.544 81.4206 41.9412C81.2726 42.1204 81.1402 42.3151 81.039 42.5176C78.975 44.5659 77.542 47.1517 76.9033 49.9867C76.2646 52.8139 76.4438 55.7657 77.4173 58.4995L77.4407 58.4761ZM148.464 58.0478V57.4948L148.619 57.596L148.464 58.0555V58.0478Z" fill="#000927"/>
<path fill-rule="evenodd" clip-rule="evenodd" d="M144.328 34.1164C144.599 33.7184 145.141 33.6161 145.538 33.888L145.047 34.6088C145.538 33.888 145.539 33.8885 145.539 33.8889L145.541 33.89L145.545 33.8927L145.555 33.8999C145.563 33.9056 145.573 33.913 145.586 33.9222C145.611 33.9406 145.646 33.9661 145.688 33.9988C145.773 34.0643 145.89 34.1589 146.032 34.2844C146.317 34.5353 146.705 34.9101 147.14 35.4227C148.011 36.4488 149.069 38.0245 149.872 40.2565C151.484 44.7357 152.03 51.7475 148.169 62.0945C148.026 62.4775 147.637 62.7096 147.233 62.653C146.829 62.5965 146.519 62.2663 146.486 61.8587L146.485 61.8483L146.482 61.8141C146.48 61.7836 146.476 61.7377 146.471 61.6774C146.46 61.5567 146.444 61.3781 146.421 61.1489C146.377 60.6904 146.308 60.0296 146.212 59.2234C146.019 57.61 145.718 55.4205 145.282 53.1102C144.845 50.796 144.277 48.3823 143.557 46.3125C142.991 44.6844 142.356 43.3486 141.67 42.4354C141.394 42.7408 141.033 43.1147 140.585 43.5292C139.419 44.6074 137.658 45.9637 135.258 47.0994C130.435 49.3816 123.117 50.7327 113.029 47.297C112.574 47.1419 112.33 46.6462 112.485 46.1898C112.639 45.7333 113.134 45.489 113.589 45.644C123.26 48.9378 130.11 47.6049 134.515 45.5208C136.728 44.4733 138.345 43.2259 139.405 42.2461C139.934 41.7564 140.323 41.3344 140.577 41.0394C140.704 40.892 140.796 40.7764 140.856 40.7001C140.885 40.662 140.907 40.6337 140.92 40.6162L140.934 40.597C140.934 40.5967 140.934 40.5964 140.934 40.5962C140.934 40.5965 140.934 40.597 141.643 41.1026M147.782 57.7561C147.591 56.3115 147.332 54.5863 146.993 52.7857C146.548 50.4292 145.961 47.9218 145.201 45.7374C144.453 43.5866 143.492 41.6149 142.231 40.4584C142.047 40.2897 141.799 40.2082 141.551 40.2347C141.303 40.2611 141.079 40.3927 140.934 40.5962M147.782 57.7561C147.435 58.9416 147.023 60.1832 146.538 61.4828L147.354 61.7886C148.221 61.7185 148.221 61.7183 148.221 61.7181L148.221 61.7146L148.22 61.7047L148.217 61.6671C148.214 61.6343 148.21 61.586 148.205 61.5233C148.194 61.3977 148.177 61.2139 148.154 60.9792C148.108 60.5099 148.038 59.8364 147.94 59.0162C147.894 58.6274 147.841 58.2053 147.782 57.7561ZM147.782 57.7561C150.114 49.7809 149.492 44.343 148.235 40.8489C147.51 38.8346 146.565 37.4383 145.814 36.554C145.439 36.1114 145.111 35.7964 144.884 35.5964C144.77 35.4964 144.682 35.4252 144.625 35.3812C144.596 35.3592 144.576 35.344 144.564 35.3355L144.555 35.3287C144.159 35.0566 144.057 34.5141 144.328 34.1164" fill="#000927"/>
<path fill-rule="evenodd" clip-rule="evenodd" d="M106.042 41.4425C106.254 41.0098 106.776 40.8312 107.207 41.0436L106.824 41.8271C107.207 41.0436 107.207 41.0435 107.207 41.0436L107.21 41.0449L107.215 41.0472L107.231 41.0554C107.245 41.0622 107.264 41.0721 107.289 41.0848C107.339 41.1102 107.41 41.1472 107.5 41.1953C107.68 41.2913 107.936 41.4317 108.244 41.6122C108.859 41.9723 109.69 42.4963 110.548 43.1507C112.212 44.4183 114.197 46.3357 114.642 48.6441C114.705 48.9715 114.577 49.3063 114.311 49.507C114.046 49.7073 113.69 49.7388 113.394 49.5883L113.393 49.5876L113.388 49.5851C113.381 49.582 113.371 49.5768 113.356 49.5695C113.325 49.555 113.278 49.5326 113.214 49.5041C113.087 49.4471 112.896 49.366 112.653 49.2747C112.165 49.0916 111.473 48.8706 110.662 48.7199C109.027 48.4161 106.997 48.413 105.159 49.4707C104.925 49.6052 104.684 49.7463 104.434 49.8918C102.513 51.0133 100.145 52.3955 97.5346 53.0578C95.4726 53.5809 93.2474 53.6608 90.9344 52.8683C91.5304 54.4605 91.7053 56.6136 90.5805 59.2672C89.4366 61.966 88.7073 65.12 88.3848 68.1017C88.0613 71.093 88.1547 73.8407 88.6065 75.7342C88.7183 76.203 88.43 76.674 87.9624 76.7861C87.4948 76.8983 87.0251 76.6091 86.9133 76.1403C86.3988 73.9839 86.3181 71.0189 86.654 67.9135C86.9909 64.7985 87.7544 61.4717 88.9783 58.5844C90.0586 56.0355 89.6774 54.1838 89.0893 52.9824C88.7882 52.367 88.4222 51.9026 88.1334 51.5939C87.9895 51.4401 87.8666 51.327 87.7834 51.255C87.7419 51.2191 87.7105 51.1936 87.6916 51.1787C87.6822 51.1713 87.6759 51.1665 87.6731 51.1643L87.6738 51.1649M87.6718 51.1634C87.6716 51.1632 87.6719 51.1635 87.6718 51.1634V51.1634ZM112.207 47.2924C111.549 46.2877 110.55 45.3445 109.495 44.5404C108.707 43.9401 107.939 43.4549 107.366 43.1195C107.081 42.9522 106.845 42.8232 106.683 42.7368C106.602 42.6937 106.54 42.6612 106.498 42.64L106.452 42.6167L106.442 42.6115L106.44 42.6106" fill="#000927"/>
<path d="M125.067 99.1393C130.87 98.7109 136.532 97.1221 141.711 94.474C147.856 91.4365 150.901 85.0422 150.52 75.9764C150.294 71.6849 149.5 67.4402 148.152 63.3513C148.051 63.1098 147.856 62.9073 147.607 62.7983C147.366 62.6893 147.085 62.6815 146.836 62.7672C146.587 62.8528 146.376 63.032 146.252 63.2734C146.127 63.5071 146.096 63.7874 146.174 64.0445C146.252 64.2625 153.822 86.1559 140.784 92.597C126.547 99.6299 112.722 98.5162 93.0566 88.7495C92.932 88.6872 92.7996 88.6482 92.6594 88.6404C92.5192 88.6326 92.379 88.6482 92.2544 88.6949C92.122 88.7417 92.0051 88.8118 91.8961 88.8974C91.7949 88.9909 91.7092 89.0999 91.6469 89.2246C91.5846 89.3492 91.5456 89.4816 91.5378 89.6218C91.53 89.762 91.5378 89.8944 91.5924 90.0268C91.6391 90.1592 91.7092 90.276 91.7949 90.385C91.8883 90.4863 91.9974 90.572 92.122 90.6343C104.926 96.9897 115.378 99.7623 125.075 99.1471L125.067 99.1393Z" fill="#000927"/>
<path d="M90.2761 90.8911C92.0597 90.7587 93.7965 90.2836 95.4009 89.4892C95.6268 89.3568 95.7981 89.1465 95.876 88.8895C95.9539 88.6403 95.9383 88.3677 95.8215 88.1262C95.7047 87.8848 95.5099 87.7057 95.2607 87.6044C95.0115 87.5032 94.7389 87.5032 94.4897 87.6044C88.0019 90.7042 83.6247 87.2461 81.5997 84.9096C78.2585 81.0621 76.989 75.2363 78.8816 72.4403C82.3942 67.2298 91.8805 72.6739 91.9584 72.7362C92.0752 72.8219 92.2154 72.8764 92.3556 72.8998C92.4958 72.931 92.6438 72.9232 92.784 72.8998C92.9242 72.8764 93.0566 72.8063 93.1734 72.7207C93.2902 72.635 93.3915 72.526 93.4616 72.4013C93.5317 72.2767 93.5784 72.1365 93.6018 71.9963C93.6173 71.8561 93.6018 71.7082 93.5628 71.568C93.5239 71.4278 93.4538 71.3032 93.3525 71.1941C93.2591 71.0851 93.1422 70.9916 93.0098 70.9293C92.5503 70.6645 81.7166 64.4182 77.1058 71.2798C74.6524 74.9014 75.9453 81.6307 79.9797 86.2804C82.8537 89.5749 86.4442 91.156 90.2605 90.8989L90.2761 90.8911Z" fill="#000927"/>
<path d="M85.9768 82.8691C86.1715 82.8535 86.3506 82.7912 86.5064 82.6822C86.6622 82.5732 86.7868 82.4174 86.8647 82.246C87.6825 80.3768 89.6607 80.9687 90.0424 81.1089C90.1904 81.1634 90.3539 81.179 90.5175 81.1634C90.681 81.1479 90.829 81.0933 90.9692 80.9999C91.1094 80.9142 91.2262 80.7896 91.3119 80.6494C91.3976 80.5092 91.4443 80.3457 91.4521 80.1821C91.7558 76.9265 87.1217 74.3641 86.5454 74.0837C86.3039 73.9825 86.0235 73.9747 85.7743 74.0604C85.5251 74.146 85.3148 74.3252 85.198 74.5666C85.0733 74.8003 85.05 75.0729 85.1123 75.3299C85.1824 75.5869 85.3459 75.805 85.5718 75.9452C86.8958 76.6306 88.0485 77.6041 88.9442 78.788C88.0719 78.7334 87.2152 78.9593 86.4753 79.4188C85.7431 79.8861 85.1746 80.5637 84.8553 81.3737C84.7462 81.6308 84.7384 81.9189 84.8397 82.1759C84.9409 82.433 85.1434 82.6433 85.4005 82.7601C85.5796 82.8535 85.7743 82.8925 85.9768 82.8769V82.8691Z" fill="#000927"/>
<path d="M137.357 71.0309C138.308 71.0309 139.079 70.2598 139.079 69.3096C139.079 68.3594 138.308 67.5884 137.357 67.5884C136.407 67.5884 135.636 68.3594 135.636 69.3096C135.636 70.2598 136.407 71.0309 137.357 71.0309Z" fill="#000927"/>
<path d="M116.017 71.2643C116.967 71.2643 117.738 70.4932 117.738 69.543C117.738 68.5928 116.967 67.8218 116.017 67.8218C115.067 67.8218 114.296 68.5928 114.296 69.543C114.296 70.4932 115.067 71.2643 116.017 71.2643Z" fill="#000927"/>
<path d="M129.055 74.1618C129.141 74.1618 129.234 74.1384 129.32 74.1151C129.787 73.9827 130.208 73.7334 130.558 73.4063C130.909 73.0714 131.173 72.6586 131.329 72.2069C132.147 69.6445 129.608 65.8281 129.312 65.392C129.242 65.2674 129.141 65.1583 129.024 65.0805C128.907 64.9948 128.775 64.9403 128.634 64.9091C128.494 64.878 128.346 64.878 128.206 64.9091C128.066 64.9403 127.933 64.9948 127.809 65.0727C127.692 65.1505 127.591 65.2596 127.513 65.3842C127.435 65.5088 127.388 65.6412 127.365 65.7814C127.341 65.9216 127.349 66.0696 127.388 66.2098C127.427 66.35 127.489 66.4824 127.583 66.5914C128.541 67.9778 129.717 70.4233 129.343 71.5449C129.289 71.6929 129.203 71.8253 129.078 71.9265C128.961 72.0278 128.813 72.0979 128.665 72.129C128.424 72.2069 128.222 72.3782 128.089 72.5963C127.957 72.8144 127.918 73.0714 127.965 73.3284C128.011 73.5777 128.151 73.8035 128.354 73.9593C128.556 74.1151 128.806 74.193 129.063 74.1774L129.055 74.1618Z" fill="#000927"/>
<path d="M148.604 57.4319C145.231 57.65 144.873 52.4239 148.253 52.2059C151.626 51.9878 151.992 57.2061 148.604 57.4319Z" fill="#000927"/>
<path d="M148.799 58.242C145.426 58.4601 145.06 53.234 148.448 53.0159C151.836 52.7978 152.187 58.0161 148.799 58.242Z" fill="#000927"/>
<path d="M89.2636 71.2179C89.4817 71.2024 89.6997 71.1167 89.8711 70.9843C90.0035 70.8752 90.097 70.7428 90.167 70.5871C90.2294 70.4313 90.2605 70.2677 90.2449 70.1042L90.0191 66.8486C90.0035 66.6072 89.9022 66.3735 89.7309 66.1944C89.5595 66.0153 89.3337 65.9062 89.0922 65.8751L86.3507 65.5635C86.1871 65.5402 86.0158 65.5635 85.86 65.618C85.7043 65.6726 85.5641 65.7738 85.4472 65.8984C85.3382 66.023 85.2525 66.171 85.2058 66.3346C85.1591 66.4981 85.1591 66.6617 85.1902 66.8252L85.4784 68.1259C85.4862 68.1804 85.5018 68.235 85.5251 68.2817C83.8973 67.9078 82.2072 67.8144 80.5483 68.0013C79.2165 64.9482 75.2054 54.6519 78.0949 47.3619C78.6869 45.8509 79.5981 44.4879 80.7742 43.3664C81.9502 42.2449 83.3521 41.3881 84.8865 40.8507C85.0734 40.7806 85.2292 40.6638 85.346 40.508C85.4628 40.3523 85.5329 40.1653 85.5563 39.9706C85.5563 39.5968 86.5766 30.7413 95.5489 31.3332C95.6891 31.3488 95.837 31.3332 95.9772 31.3021C96.1174 31.2631 96.242 31.193 96.3511 31.0996C96.4601 31.0061 96.5536 30.8971 96.6159 30.7725C96.6782 30.6478 96.7171 30.5077 96.7327 30.3597C96.7405 30.2195 96.7249 30.0715 96.6782 29.9391C96.6315 29.8067 96.5536 29.6821 96.4601 29.573C96.3589 29.4718 96.242 29.3861 96.1096 29.3238C95.9772 29.2693 95.837 29.2381 95.6891 29.2381C86.2183 28.6151 84.0064 36.7228 83.5624 39.1217C81.8723 39.7837 80.3458 40.7884 79.0685 42.0657C77.7912 43.343 76.7943 44.8774 76.1322 46.5597C72.4016 56.0304 78.7959 69.2163 79.0763 69.7693C79.1542 69.9251 79.2632 70.0653 79.4112 70.1665C79.5514 70.2677 79.7227 70.3301 79.8941 70.3534C80.0576 70.369 80.2134 70.3456 80.3692 70.2833C80.5171 70.2288 80.6573 70.1353 80.7664 70.0185C81.5842 69.6914 85.2915 70.2054 88.8819 71.1323C88.9988 71.179 89.1312 71.2024 89.2558 71.1946L89.2636 71.2179Z" fill="#000927"/>
<path d="M117.045 59.7532C116.687 59.4106 116.258 59.1457 115.783 58.9822C115.316 58.8108 114.818 58.7485 114.319 58.7797C113.821 58.8186 113.338 58.951 112.894 59.1847C112.45 59.4183 112.068 59.7377 111.757 60.1271C111.702 60.1972 111.663 60.2751 111.64 60.353C111.616 60.4386 111.616 60.5243 111.624 60.61C111.64 60.6957 111.671 60.7813 111.718 60.8514C111.764 60.9215 111.827 60.9838 111.897 61.0383C112.053 61.1318 112.24 61.163 112.419 61.1318C112.598 61.1007 112.761 60.9994 112.87 60.8592C112.87 60.8592 113.011 60.6489 113.05 60.6411C113.089 60.6333 112.964 60.719 113.011 60.6879L113.057 60.6411L113.166 60.5555C113.244 60.4932 113.322 60.4386 113.392 60.3841C113.462 60.3296 113.291 60.4308 113.392 60.3841L113.517 60.3218C113.603 60.2751 113.688 60.2439 113.782 60.205H113.899C114.046 60.1505 113.758 60.205 113.899 60.205C114.085 60.1582 114.272 60.1271 114.459 60.1037C114.599 60.1037 114.319 60.1037 114.459 60.1037H114.997C115.114 60.1037 115.043 60.1037 114.997 60.1037C115.09 60.1193 115.184 60.1427 115.269 60.1738C115.316 60.1738 115.487 60.2283 115.519 60.2829L115.643 60.353C115.682 60.353 115.838 60.462 115.853 60.5087C115.869 60.5555 115.76 60.4231 115.853 60.5087L115.962 60.6333C116.087 60.758 116.258 60.8358 116.445 60.8514C116.624 60.8592 116.804 60.8047 116.944 60.6957C117.014 60.6411 117.076 60.5788 117.115 60.5009C117.162 60.4231 117.185 60.3452 117.201 60.2595C117.209 60.1738 117.201 60.0882 117.185 60.0025C117.17 59.9168 117.123 59.8389 117.068 59.7688H117.045V59.7532Z" fill="#000927"/>
<path d="M112.294 61.3422C112.123 61.3422 111.959 61.2955 111.811 61.2098C111.71 61.1397 111.624 61.0618 111.57 60.9606C111.507 60.8671 111.469 60.7581 111.453 60.6413C111.437 60.5322 111.445 60.4154 111.469 60.3064C111.5 60.1973 111.546 60.0961 111.624 60.0026C111.951 59.5898 112.356 59.2549 112.824 59.0057C113.291 58.7565 113.797 58.6163 114.319 58.5773C114.849 58.5384 115.363 58.6085 115.861 58.7876C116.344 58.959 116.78 59.2238 117.154 59.5743L117.193 59.5898L117.224 59.6366C117.294 59.73 117.349 59.8313 117.38 59.9403C117.411 60.0493 117.419 60.1662 117.403 60.2752C117.388 60.3842 117.349 60.4933 117.294 60.5945C117.232 60.6958 117.162 60.7737 117.068 60.8438C116.897 60.984 116.663 61.0541 116.438 61.0385C116.212 61.0229 115.994 60.9294 115.83 60.7659V60.7503L115.791 60.7659L115.651 60.5634C115.651 60.5634 115.612 60.54 115.604 60.54H115.55V60.5167L115.425 60.4466L115.464 60.3765V60.3142L115.355 60.3842C115.355 60.3842 115.285 60.3687 115.254 60.3687L115.191 60.3531C115.121 60.3219 115.051 60.3064 114.981 60.2908H114.498C114.304 60.3064 114.124 60.3375 113.953 60.3765H113.813C113.743 60.4154 113.673 60.4466 113.603 60.4777L113.501 60.5322C113.501 60.5322 113.447 60.5712 113.416 60.5945C113.377 60.6257 113.33 60.6568 113.291 60.688L113.213 60.7581C113.182 60.8048 113.135 60.836 113.112 60.8516C113.089 60.8827 113.057 60.9217 113.034 60.9606C112.886 61.1553 112.684 61.2799 112.458 61.3189C112.403 61.3267 112.341 61.3344 112.286 61.3344L112.294 61.3422ZM114.584 58.9667C114.506 58.9667 114.42 58.9668 114.342 58.9745C113.867 59.0057 113.416 59.1381 112.995 59.3562C112.574 59.5742 112.216 59.878 111.92 60.2518C111.881 60.2986 111.858 60.3531 111.842 60.4076C111.827 60.4621 111.827 60.5244 111.835 60.5867C111.842 60.6491 111.866 60.7036 111.897 60.7503C111.928 60.797 111.975 60.8438 112.021 60.8749C112.131 60.9372 112.263 60.9606 112.395 60.9372C112.528 60.9139 112.645 60.8438 112.73 60.7347C112.746 60.7114 112.761 60.688 112.777 60.6724L112.761 60.6491L112.847 60.5867C112.909 60.5089 112.948 60.4777 112.987 60.4621L113.057 60.3998C113.057 60.3998 113.104 60.3609 113.127 60.3453V60.3297L113.455 60.1194L113.47 60.135C113.532 60.1039 113.603 60.0727 113.665 60.0493L113.712 60.0338H113.735L113.891 59.9948C113.891 59.9948 113.961 59.987 113.992 59.9948C114.124 59.9637 114.288 59.9325 114.444 59.9247H115.09C115.176 59.9481 115.261 59.9715 115.347 60.0026C115.433 60.0182 115.581 60.0649 115.674 60.1428L115.76 60.1895C115.76 60.1895 115.822 60.2207 115.861 60.2363H115.869L115.908 60.2674C115.962 60.3064 116.017 60.3609 116.048 60.4076L116.142 60.5167C116.227 60.6023 116.352 60.6568 116.484 60.6646C116.617 60.6646 116.749 60.6335 116.85 60.5478C116.905 60.5089 116.944 60.4621 116.975 60.4076C117.006 60.3531 117.029 60.2986 117.037 60.2363C117.045 60.174 117.037 60.1117 117.022 60.0571C117.006 60.0104 116.991 59.9637 116.959 59.9247L116.928 59.9092C116.586 59.582 116.181 59.3406 115.737 59.177C115.363 59.0446 114.981 58.9745 114.592 58.9745L114.584 58.9667Z" fill="#000927"/>
<path d="M140.114 59.4262C139.756 59.0757 139.328 58.8031 138.861 58.6318C138.393 58.4604 137.887 58.3825 137.389 58.4215C136.89 58.4526 136.399 58.5928 135.955 58.8265C135.512 59.0601 135.122 59.3872 134.818 59.7767C134.764 59.8468 134.725 59.9246 134.702 60.0103C134.678 60.096 134.678 60.1817 134.686 60.2673C134.702 60.353 134.733 60.4387 134.779 60.5088C134.826 60.5789 134.888 60.649 134.959 60.6957C135.114 60.7892 135.301 60.8281 135.48 60.797C135.659 60.7658 135.823 60.6645 135.94 60.5166C135.94 60.5166 136.08 60.3063 136.119 60.2985L136.072 60.3452L136.127 60.2985L136.236 60.1972C136.306 60.1349 136.384 60.0804 136.462 60.0337C136.36 60.0337 136.571 59.9636 136.462 60.0337L136.594 59.9714L136.859 59.8545H136.976C136.836 59.8545 137.124 59.8078 136.976 59.8545C137.116 59.8545 137.35 59.7845 137.552 59.7533H138.097C138.144 59.7533 138.214 59.7533 138.097 59.7533C138.051 59.7533 138.3 59.8078 138.37 59.8234C138.432 59.839 138.588 59.8779 138.627 59.9324L138.744 59.9947C138.744 59.9947 138.946 60.1116 138.962 60.1583C138.861 60.0726 138.977 60.205 138.962 60.1583L139.071 60.2751C139.195 60.4075 139.367 60.4854 139.546 60.501C139.725 60.5166 139.912 60.4543 140.052 60.3374C140.122 60.2829 140.185 60.2206 140.224 60.1427C140.27 60.0648 140.301 59.9792 140.309 59.8935C140.317 59.8078 140.309 59.7144 140.294 59.6287C140.27 59.543 140.231 59.4651 140.177 59.395L140.13 59.4106L140.114 59.4262Z" fill="#000927"/>
<path d="M135.348 61.007C135.177 61.007 135.005 60.9603 134.857 60.8668C134.756 60.7967 134.67 60.7111 134.616 60.6176C134.553 60.5241 134.515 60.4073 134.499 60.2983C134.483 60.1814 134.491 60.0724 134.515 59.9556C134.546 59.8388 134.6 59.7375 134.67 59.6518C134.997 59.2313 135.402 58.8964 135.87 58.6471C136.337 58.3979 136.843 58.2577 137.381 58.2188C137.918 58.1798 138.432 58.2577 138.931 58.4446C139.39 58.616 139.811 58.873 140.169 59.2001L140.239 59.1767L140.325 59.2858C140.395 59.3792 140.449 59.4805 140.48 59.5895C140.512 59.6986 140.519 59.8154 140.504 59.9322C140.488 60.049 140.449 60.1581 140.395 60.2593C140.34 60.3528 140.262 60.4385 140.169 60.5086C139.998 60.6488 139.764 60.7189 139.538 60.7111C139.304 60.6955 139.086 60.5942 138.931 60.4229L138.868 60.3606C138.868 60.3606 138.798 60.3061 138.767 60.2593C138.767 60.2593 138.697 60.2048 138.658 60.1814L138.541 60.1191L138.572 60.0646V59.9867L138.471 60.0568C138.471 60.0568 138.455 60.0568 138.331 60.0335L138.269 60.0179C138.191 60.0023 138.128 59.9867 138.074 59.9634H137.56C137.505 59.9712 137.42 59.9867 137.334 60.0101C137.225 60.0335 137.116 60.0568 137.022 60.0646H136.913L136.54 60.2438C136.485 60.2827 136.43 60.3216 136.376 60.3606L136.22 60.5008C136.22 60.5008 136.158 60.5864 136.127 60.6332C135.979 60.8279 135.776 60.9525 135.543 60.9914C135.488 60.9992 135.426 61.007 135.371 61.007H135.348ZM137.63 58.6004C137.552 58.6004 137.482 58.6004 137.404 58.6004C136.929 58.6315 136.477 58.7639 136.049 58.982C135.628 59.2079 135.27 59.5039 134.974 59.8855C134.935 59.9322 134.904 59.9867 134.888 60.049C134.873 60.1036 134.873 60.1659 134.881 60.2282C134.888 60.2905 134.912 60.345 134.943 60.3995C134.974 60.454 135.021 60.5008 135.068 60.5319C135.177 60.5942 135.309 60.6176 135.449 60.602C135.582 60.5787 135.706 60.5086 135.784 60.3995C135.909 60.2126 135.979 60.1503 136.033 60.1269L136.103 60.0646C136.15 60.0335 136.189 59.9945 136.228 59.9712V59.9011L136.726 59.7141V59.6986L137.124 59.6285V59.6518C137.17 59.6518 137.202 59.6363 137.233 59.6285C137.326 59.6051 137.427 59.5895 137.513 59.5739H138.152V59.6051C138.152 59.6051 138.269 59.6207 138.331 59.6363L138.401 59.6518C138.557 59.6908 138.65 59.7297 138.713 59.7764L138.822 59.8388C138.822 59.8388 138.876 59.8699 138.907 59.8855L138.954 59.9166C139.032 59.9712 139.079 60.0101 139.102 60.0413L139.195 60.1425C139.289 60.236 139.406 60.2983 139.546 60.3061C139.678 60.3061 139.811 60.2749 139.912 60.1892C139.966 60.1503 140.013 60.0958 140.044 60.049C140.075 59.9945 140.099 59.9322 140.107 59.8699C140.114 59.8076 140.107 59.7453 140.091 59.683C140.091 59.6674 140.083 59.644 140.075 59.6285H140.06L139.974 59.5506C139.632 59.2157 139.234 58.9664 138.79 58.8029C138.417 58.6627 138.027 58.5926 137.622 58.5926L137.63 58.6004Z" fill="#000927"/>
<path d="M96.6673 77.1055C96.6673 83.0054 91.8845 87.7882 85.9846 87.7882C80.0847 87.7882 75.3019 83.0054 75.3019 77.1055C75.3019 71.2057 80.0847 66.4229 85.9846 66.4229C91.8845 66.4229 96.6673 71.2057 96.6673 77.1055Z" fill="#ADB8CD" stroke="#000927" stroke-width="2"/>
<mask id="path-62-inside-1_941_20246" fill="white">
<path d="M118.696 90.3462C119.343 90.3462 119.864 89.8243 119.864 89.1779C119.864 88.5315 119.343 88.0096 118.696 88.0096V90.3462ZM93.851 83.7259C96.499 85.1824 97.3246 85.2603 102.504 87.0672C107.668 88.8664 113.525 90.3462 118.696 90.3462V88.0096C113.906 88.0096 108.338 86.6311 103.267 84.8631C98.2203 83.1029 97.5583 83.1729 95.0192 81.7788L94.6298 82.9471L93.851 83.7259Z"/>
</mask>
<path d="M118.696 90.3462C119.343 90.3462 119.864 89.8243 119.864 89.1779C119.864 88.5315 119.343 88.0096 118.696 88.0096V90.3462ZM93.851 83.7259C96.499 85.1824 97.3246 85.2603 102.504 87.0672C107.668 88.8664 113.525 90.3462 118.696 90.3462V88.0096C113.906 88.0096 108.338 86.6311 103.267 84.8631C98.2203 83.1029 97.5583 83.1729 95.0192 81.7788L94.6298 82.9471L93.851 83.7259Z" fill="#ADB8CD"/>
<path d="M117.196 88.0096V90.3462H120.196V88.0096H117.196ZM93.851 83.7259L91.7296 81.6046L88.9049 84.4294L92.4052 86.3546L93.851 83.7259ZM102.504 87.0672L101.516 89.8998L101.517 89.9002L102.504 87.0672ZM103.267 84.8631L102.279 87.6957L102.279 87.6958L103.267 84.8631ZM95.0192 81.7788L96.4631 79.1491L93.3105 77.4181L92.1732 80.8301L95.0192 81.7788ZM94.6298 82.9471L96.7511 85.0684L97.2519 84.5676L97.4758 83.8958L94.6298 82.9471ZM118.696 93.3462C120.999 93.3462 122.864 91.4812 122.864 89.1779H116.864C116.864 88.1675 117.686 87.3462 118.696 87.3462V93.3462ZM122.864 89.1779C122.864 86.8746 120.999 85.0096 118.696 85.0096V91.0096C117.686 91.0096 116.864 90.1883 116.864 89.1779H122.864ZM92.4052 86.3546C95.3446 87.9712 96.5758 88.1764 101.516 89.8998L103.492 84.2347C98.0735 82.3442 97.6535 82.3935 95.2967 81.0973L92.4052 86.3546ZM101.517 89.9002C106.803 91.742 113.031 93.3462 118.696 93.3462V87.3462C114.019 87.3462 108.532 85.9907 103.491 84.2342L101.517 89.9002ZM118.696 85.0096C114.399 85.0096 109.201 83.7548 104.255 82.0304L102.279 87.6958C107.475 89.5073 113.413 91.0096 118.696 91.0096V85.0096ZM104.255 82.0304C98.8203 80.1349 98.7113 80.3836 96.4631 79.1491L93.5753 84.4085C96.4052 85.9623 97.6204 86.0709 102.279 87.6957L104.255 82.0304ZM92.1732 80.8301L91.7837 81.9984L97.4758 83.8958L97.8653 82.7275L92.1732 80.8301ZM92.5085 80.8258L91.7296 81.6046L95.9723 85.8472L96.7511 85.0684L92.5085 80.8258Z" fill="#000927" mask="url(#path-62-inside-1_941_20246)"/>
<path d="M121.09 89.567C121.09 90.029 120.716 90.4035 120.254 90.4035C119.792 90.4035 119.417 90.029 119.417 89.567C119.417 89.105 119.792 88.7305 120.254 88.7305C120.716 88.7305 121.09 89.105 121.09 89.567Z" fill="#ADB8CD" stroke="#000927" stroke-width="3"/>
<path d="M94.8299 39.843C100.725 33.4159 108.897 30.3314 119.078 30.6466C130.683 31.0002 139.428 34.7941 144.973 41.9943L144.973 41.9944C151.311 50.2278 151.391 60.184 150.481 64.7753L151.783 65.0784C153.073 58.7539 151.849 48.74 146.027 41.1792L146.027 41.179C140.27 33.6963 131.24 29.6803 119.11 29.3096C108.465 29.0015 99.9848 32.2482 93.8378 38.9458L93.8377 38.9458C84.6212 48.9866 82.3988 60.0443 82.996 66.7454L85.1292 66.2121C84.4754 59.6597 85.9164 49.5585 94.8299 39.843ZM94.8299 39.843L95.1984 40.1809L94.8299 39.843Z" fill="#ADB8CD" stroke="#000927"/>
</g>
<defs>
<clipPath id="clip0_941_20246">
<rect width="127.263" height="191.176" fill="white" transform="translate(57.6346 25.7021)"/>
</clipPath>
</defs>
</svg>
