<svg width="243" height="243" viewBox="0 0 243 243" fill="none" xmlns="http://www.w3.org/2000/svg">
<g clip-path="url(#clip0_941_19603)">
<path d="M121.889 218.856C177.163 218.856 221.971 174.048 221.971 118.774C221.971 63.5004 177.163 18.6923 121.889 18.6923C66.6158 18.6923 21.8077 63.5004 21.8077 118.774C21.8077 174.048 66.6158 218.856 121.889 218.856Z" fill="#F2F7FF"/>
<path d="M71.8642 64.5196L68.9824 88.9676L64.9947 90.2683L62.8685 90.7589L59.8855 95.58L62.1442 103.337L65.3452 106.842L71.2567 109.062L78.5155 110.464L92.2154 114.662L101.188 115.713L111.687 113.821L120.519 110.215L123.852 106.242L125.449 102.59L128.922 96.7015L129.725 89.871L127.45 85.5718L122.349 83.4066L124.405 69.2316L121.578 62.4479L106.936 63.4059L71.8642 64.5196Z" fill="white"/>
<path d="M175.038 101.974L204.525 131.532L207.687 128.362L178.2 98.8044L175.038 101.974Z" fill="#CFD8E6"/>
<path d="M204.533 132.7C204.221 132.7 203.925 132.575 203.707 132.357L174.22 102.8C173.768 102.34 173.768 101.608 174.22 101.149L177.382 97.9788C177.818 97.5427 178.597 97.5427 179.033 97.9788L208.52 127.536C208.972 127.996 208.972 128.728 208.52 129.187L205.358 132.357C205.14 132.575 204.844 132.7 204.533 132.7ZM176.697 101.974L204.533 129.873L206.044 128.354L178.208 100.456L176.697 101.974V101.974Z" fill="#000927"/>
<path d="M178.924 158.573L208.411 129.016L205.249 125.846L175.762 155.403L178.924 158.573V158.573Z" fill="#CFD8E6"/>
<path d="M178.924 159.741C178.613 159.741 178.317 159.617 178.099 159.399L174.937 156.229C174.485 155.777 174.485 155.037 174.937 154.578L204.424 125.02C204.86 124.584 205.639 124.584 206.075 125.02L209.237 128.19C209.689 128.65 209.689 129.382 209.237 129.841L179.75 159.399C179.532 159.617 179.236 159.741 178.924 159.741V159.741ZM177.413 155.403L178.924 156.922L206.76 129.024L205.249 127.505L177.413 155.403Z" fill="#000927"/>
<path d="M175.139 105.705L180.155 101.452C182.616 99.3651 182.928 95.6656 180.84 93.1967C178.753 90.7277 175.061 90.4162 172.6 92.5113L167.584 96.7638C165.123 98.8511 164.812 102.551 166.899 105.02C168.986 107.488 172.67 107.8 175.139 105.705Z" fill="#CFD8E6"/>
<path d="M171.37 108.26C171.175 108.26 170.972 108.252 170.778 108.236C168.908 108.08 167.21 107.208 166.003 105.767C163.503 102.808 163.877 98.3682 166.829 95.8681L171.845 91.6156C173.278 90.4006 175.092 89.8164 176.962 89.98C178.831 90.1358 180.529 91.0081 181.736 92.4411C184.236 95.4008 183.862 99.8402 180.91 102.34L175.895 106.593C174.617 107.675 173.028 108.26 171.377 108.26H171.37ZM176.37 92.2854C175.264 92.2854 174.212 92.6748 173.356 93.3913L168.34 97.6438C166.369 99.3184 166.12 102.278 167.787 104.256C168.597 105.214 169.726 105.798 170.972 105.9C172.218 106.001 173.426 105.611 174.384 104.809L179.399 100.557C181.37 98.8822 181.619 95.9148 179.952 93.9443C179.142 92.9863 178.013 92.4022 176.767 92.301C176.635 92.2932 176.502 92.2854 176.37 92.2854Z" fill="#000927"/>
<path d="M146.587 102.574C148.074 100.775 149.92 99.3183 152.007 98.2747C154.095 97.2388 156.369 96.6391 158.698 96.5301C161.026 96.421 163.347 96.8027 165.52 97.6438C167.693 98.485 169.664 99.7701 171.315 101.421C172.966 103.072 174.251 105.043 175.092 107.224C175.934 109.397 176.315 111.725 176.206 114.062C176.097 116.391 175.513 118.68 174.477 120.768C173.441 122.855 171.985 124.709 170.193 126.204L146.594 102.574H146.587Z" fill="#CFD8E6"/>
<path d="M170.186 127.372C169.882 127.372 169.586 127.256 169.36 127.03L145.761 103.4C145.333 102.971 145.302 102.294 145.691 101.826C147.288 99.8947 149.242 98.3448 151.486 97.2311C153.729 96.1095 156.135 95.4865 158.643 95.3696C161.143 95.2528 163.604 95.6578 165.941 96.5613C168.277 97.4647 170.365 98.8277 172.141 100.603C173.916 102.379 175.272 104.467 176.183 106.811C177.086 109.155 177.491 111.609 177.382 114.116C177.265 116.624 176.642 119.039 175.529 121.29C174.415 123.54 172.873 125.495 170.949 127.1C170.731 127.279 170.466 127.372 170.201 127.372H170.186ZM148.191 102.527L170.232 124.6C171.541 123.346 172.616 121.889 173.426 120.254C174.399 118.299 174.937 116.196 175.038 114.015C175.139 111.834 174.789 109.693 173.994 107.652C173.208 105.611 172.024 103.797 170.482 102.255C168.94 100.713 167.125 99.5287 165.092 98.742C163.059 97.9554 160.925 97.6049 158.752 97.7062C156.579 97.8074 154.484 98.3526 152.529 99.3262C150.894 100.144 149.437 101.219 148.191 102.535V102.527Z" fill="#000927"/>
<path d="M162.615 118.424C162.07 119.109 161.385 119.67 160.614 120.075C159.835 120.48 158.986 120.713 158.114 120.768C157.241 120.822 156.369 120.69 155.551 120.378C154.733 120.067 153.993 119.592 153.37 118.976C152.747 118.361 152.264 117.621 151.945 116.804C151.626 115.986 151.486 115.113 151.524 114.241C151.563 113.369 151.789 112.512 152.186 111.725C152.584 110.939 153.137 110.253 153.814 109.7L162.623 118.431L162.615 118.424Z" fill="#FFCB2F"/>
<path d="M157.74 121.936C156.852 121.936 155.972 121.773 155.138 121.461C154.157 121.087 153.285 120.526 152.545 119.794C151.805 119.062 151.236 118.19 150.855 117.216C150.473 116.243 150.309 115.215 150.356 114.171C150.403 113.127 150.668 112.123 151.143 111.188C151.61 110.253 152.264 109.443 153.074 108.781C153.534 108.408 154.212 108.439 154.632 108.859L163.441 117.598C163.861 118.018 163.9 118.688 163.534 119.156C162.88 119.973 162.078 120.635 161.151 121.11C160.224 121.593 159.227 121.866 158.184 121.928C158.036 121.936 157.888 121.944 157.74 121.944V121.936ZM153.807 111.328C153.581 111.609 153.386 111.912 153.222 112.232C152.903 112.87 152.716 113.563 152.685 114.28C152.654 114.997 152.763 115.698 153.028 116.367C153.285 117.037 153.674 117.629 154.188 118.135C154.694 118.642 155.294 119.023 155.964 119.272C156.634 119.522 157.327 119.631 158.043 119.592C158.76 119.553 159.438 119.358 160.076 119.031C160.403 118.86 160.699 118.665 160.98 118.431L153.814 111.328H153.807Z" fill="#000927"/>
<path d="M161.72 158.986H203.427V154.5H161.72V158.986Z" fill="#CFD8E6"/>
<path d="M203.419 160.154H161.712C161.065 160.154 160.544 159.632 160.544 158.986V154.5C160.544 153.853 161.065 153.331 161.712 153.331H203.419C204.065 153.331 204.587 153.853 204.587 154.5V158.986C204.587 159.632 204.065 160.154 203.419 160.154ZM162.88 157.818H202.251V155.668H162.88V157.818Z" fill="#000927"/>
<path d="M103.322 154.243C101.414 153.518 99.9649 151.532 98.3137 149.546C94.6064 145.052 91.8337 131.602 92.3011 126.196C92.0207 124.537 92.6282 122.645 94.1625 120.433C95.3074 118.735 97.0754 117.559 99.0848 117.146C101.086 116.741 103.174 117.131 104.895 118.244C106.476 119.233 107.66 120.752 108.236 122.528C109.778 126.5 111.211 133.704 111.819 136.929C111.873 137.209 112.014 137.458 112.216 137.653C112.419 137.848 112.683 137.972 112.964 138.011C117.645 138.673 130.176 141.703 131.57 141.867C132.56 142.069 133.447 142.622 134.071 143.424C134.694 144.227 135.013 145.216 134.966 146.236L134.904 148.051C134.842 150.224 134.032 152.311 132.614 153.954C131.197 155.598 129.257 156.712 127.115 157.085C123.946 157.21 122.435 158.666 119.288 158.269C119.288 158.23 110.191 156.743 103.33 154.227L103.322 154.243Z" fill="#F2F7FF"/>
<path d="M120.332 159.126C119.973 159.126 119.592 159.103 119.187 159.056C119.148 159.056 119.101 159.04 119.062 159.033C118.992 159.017 118.829 158.986 118.595 158.947C112.208 157.755 106.982 156.416 103.057 154.983H103.049C101.172 154.266 99.7702 152.553 98.2904 150.746L97.7218 150.052C93.8899 145.418 91.086 131.89 91.5222 126.235C91.2418 124.389 91.896 122.349 93.5238 119.997C94.7933 118.128 96.7093 116.842 98.929 116.391C101.149 115.939 103.415 116.367 105.316 117.598C107.037 118.68 108.345 120.347 108.976 122.302C110.479 126.181 111.881 133.05 112.582 136.796C112.606 136.913 112.66 137.015 112.746 137.1C112.831 137.178 112.94 137.233 113.065 137.256C116.001 137.669 121.991 139.008 126.368 139.982C128.946 140.558 131.165 141.049 131.656 141.111C132.894 141.368 133.946 142.023 134.678 142.965C135.41 143.907 135.792 145.091 135.745 146.283L135.683 148.09C135.613 150.426 134.733 152.7 133.206 154.476C131.679 156.252 129.561 157.459 127.256 157.872C127.224 157.872 127.186 157.88 127.147 157.88C125.854 157.934 124.833 158.23 123.844 158.511C122.785 158.814 121.695 159.134 120.339 159.134L120.332 159.126ZM119.382 157.506C120.986 157.708 122.107 157.381 123.408 157.008C124.421 156.712 125.573 156.384 127.03 156.314C128.969 155.956 130.737 154.944 132.022 153.448C133.323 151.945 134.071 150.013 134.125 148.027L134.187 146.213C134.219 145.379 133.962 144.562 133.447 143.907C132.941 143.253 132.209 142.801 131.407 142.63C130.932 142.576 129.14 142.178 126.033 141.485C121.687 140.512 115.729 139.188 112.855 138.783C112.411 138.72 112.006 138.526 111.687 138.214C111.359 137.902 111.141 137.505 111.063 137.069C110.51 134.094 109.046 126.749 107.52 122.808C106.99 121.165 105.915 119.794 104.49 118.899C102.924 117.886 101.063 117.536 99.2483 117.902C97.4336 118.268 95.8604 119.319 94.8167 120.861C93.3992 122.91 92.8306 124.608 93.0799 126.056C93.0877 126.118 93.0954 126.189 93.0877 126.251C92.6359 131.477 95.3541 144.717 98.929 149.04L99.5054 149.741C100.845 151.384 102.114 152.934 103.61 153.503C107.457 154.912 112.598 156.221 118.891 157.397C119.07 157.428 119.241 157.459 119.389 157.498L119.382 157.506Z" fill="#000927"/>
<path d="M44.6668 203.816H48.8726V136.773H44.6668V203.816Z" fill="#ADB8CD"/>
<path d="M48.8726 204.984H44.6668C44.0204 204.984 43.4985 204.463 43.4985 203.816V136.773C43.4985 136.127 44.0204 135.605 44.6668 135.605H48.8726C49.519 135.605 50.0408 136.127 50.0408 136.773V203.816C50.0408 204.463 49.519 204.984 48.8726 204.984ZM45.8351 202.648H47.7043V137.941H45.8351V202.648Z" fill="#000927"/>
<path d="M88.7885 221.325H95.3308V204.338H88.7885V221.325Z" fill="#ADB8CD"/>
<path d="M95.3308 222.493H88.7884C88.142 222.493 87.6202 221.971 87.6202 221.325V204.338C87.6202 203.692 88.142 203.17 88.7884 203.17H95.3308C95.9772 203.17 96.499 203.692 96.499 204.338V221.325C96.499 221.971 95.9772 222.493 95.3308 222.493ZM89.9567 220.156H94.1625V205.506H89.9567V220.156Z" fill="#000927"/>
<path d="M118.681 221.325H125.223V204.338H118.681V221.325Z" fill="#ADB8CD"/>
<path d="M125.231 222.493H118.688C118.042 222.493 117.52 221.971 117.52 221.325V204.338C117.52 203.692 118.042 203.17 118.688 203.17H125.231C125.877 203.17 126.399 203.692 126.399 204.338V221.325C126.399 221.971 125.877 222.493 125.231 222.493ZM119.857 220.156H124.062V205.506H119.857V220.156Z" fill="#000927"/>
<path d="M111.461 115.238C111.461 115.238 101.702 120.082 73.0012 109.584C73.0012 109.584 55.6329 138.666 57.1673 174.049C57.1673 174.049 59.4882 160.006 81.5997 162.296C81.5997 162.296 94.879 157.272 103.314 167.273C103.314 167.273 107.917 160.349 118.665 163.433C121.959 154.032 121.889 143.783 118.47 134.429L111.453 115.246L111.461 115.238Z" fill="#7FB1FC"/>
<path d="M57.1673 175.209C57.1673 175.209 57.1206 175.209 57.0894 175.209C56.4975 175.17 56.0224 174.695 55.999 174.095C54.4725 138.775 71.8174 109.28 71.9965 108.984C72.2847 108.501 72.8688 108.291 73.3984 108.485C101.047 118.603 110.845 114.233 110.947 114.187C111.243 114.046 111.593 114.031 111.897 114.155C112.201 114.28 112.442 114.522 112.559 114.833L119.576 134.016C123.081 143.596 123.151 154.18 119.779 163.807C119.576 164.391 118.953 164.71 118.353 164.547C108.54 161.735 104.334 167.849 104.295 167.911C104.093 168.215 103.758 168.41 103.392 168.433C103.018 168.441 102.667 168.301 102.434 168.02C94.6454 158.783 82.5343 163.192 82.0203 163.379C81.8489 163.441 81.6698 163.464 81.4907 163.449C60.8201 161.307 58.4212 173.706 58.3278 174.236C58.2265 174.796 57.7436 175.209 57.1751 175.209H57.1673ZM73.5308 111.017C70.9217 115.737 58.4446 139.842 58.2421 168.94C61.116 164.788 67.5182 159.726 81.4595 161.097C83.3988 160.458 95.1127 157.078 103.283 165.489C105.136 163.573 109.794 160.092 117.91 162.016C120.752 153.168 120.573 143.557 117.372 134.818L110.752 116.718C107.348 117.684 96.5302 119.288 73.5231 111.017H73.5308Z" fill="#000927"/>
<path d="M144.242 199.782C144.242 199.782 143.97 160.769 114.132 162.662C114.132 162.662 108.579 161.509 103.337 167.28C103.337 167.28 111.282 167.39 113.174 197.905L121.96 207.975C121.96 207.975 132.318 198.847 144.242 199.797V199.782Z" fill="#CFD8E6"/>
<path d="M121.96 209.128C121.96 209.128 121.905 209.128 121.882 209.128C121.57 209.104 121.282 208.964 121.079 208.731L112.294 198.668C112.123 198.473 112.021 198.232 112.006 197.975C110.253 169.609 103.33 168.457 103.267 168.441C102.808 168.441 102.426 168.161 102.239 167.74C102.06 167.319 102.169 166.829 102.473 166.494C107.637 160.808 113.135 161.33 114.194 161.494C121.936 161.034 128.447 163.207 133.549 167.958C139.632 173.628 142.537 181.993 143.9 188.013C145.364 194.486 145.418 199.571 145.418 199.782C145.418 200.109 145.286 200.42 145.045 200.646C144.803 200.872 144.484 200.981 144.157 200.958C132.887 200.07 122.84 208.762 122.738 208.847C122.528 209.034 122.248 209.136 121.967 209.136L121.96 209.128ZM114.311 197.422L122.092 206.34C124.81 204.206 133.191 198.302 143.02 198.551C142.763 194.034 141.213 178.293 131.937 169.656C127.295 165.333 121.329 163.371 114.194 163.822C114.093 163.822 113.984 163.822 113.883 163.799C113.704 163.76 109.654 163.036 105.378 166.875C108.166 168.768 112.878 175.248 114.303 197.43L114.311 197.422Z" fill="#000927"/>
<path d="M113.174 197.889C113.174 197.889 98.2202 204.626 95.1204 210.849C95.1204 210.849 86.6699 192.772 85.2602 188.247C85.2602 188.247 72.8532 193.341 64.1146 190.225C55.3759 187.11 57.2919 171.12 57.2919 171.12C57.2919 171.12 68.9123 151.314 98.781 163.425C98.781 163.425 113.47 165.715 113.174 197.889V197.889Z" fill="#CFD8E6"/>
<path d="M95.1127 212.017H95.0971C94.6453 212.017 94.2403 211.753 94.0534 211.348C93.7341 210.662 86.6855 195.568 84.5359 189.766C81.1791 190.965 71.28 194.026 63.7096 191.331C54.1999 187.943 56.0379 171.673 56.1236 170.988C56.1392 170.824 56.1937 170.676 56.2794 170.536C56.404 170.326 68.7331 150.052 99.1003 162.304C100.798 162.654 114.615 166.447 114.335 197.905C114.335 198.356 114.062 198.769 113.649 198.956C113.501 199.018 99.038 205.6 96.1563 211.371C95.9616 211.768 95.5566 212.017 95.1127 212.017V212.017ZM85.2525 187.079C85.4238 187.079 85.5951 187.118 85.7509 187.188C86.0469 187.328 86.2727 187.585 86.3662 187.897C87.4722 191.433 93.0954 203.707 95.2918 208.458C99.4352 203.302 109.288 198.427 112.006 197.141C112.037 181.533 108.4 173.503 105.316 169.508C101.998 165.209 98.6175 164.586 98.5863 164.578C98.5006 164.562 98.415 164.539 98.3371 164.508C71.1164 153.472 59.792 169.368 58.4212 171.502C58.2343 173.472 57.2997 186.557 64.4962 189.119C72.713 192.048 84.6839 187.211 84.8007 187.157C84.9409 187.094 85.0967 187.071 85.2447 187.071L85.2525 187.079Z" fill="#000927"/>
<path d="M144.242 199.782C144.242 199.782 157.42 203.512 155.45 205.763C153.479 208.022 121.96 207.944 121.96 207.944C121.96 207.944 128.525 198.582 144.242 199.774V199.782Z" fill="#000927"/>
<path d="M122.248 208.333H121.96C121.812 208.333 121.679 208.256 121.617 208.123C121.547 207.991 121.562 207.835 121.64 207.718C121.71 207.617 123.369 205.288 127.006 203.076C130.348 201.043 136.049 198.761 144.273 199.385C144.297 199.385 144.328 199.385 144.351 199.4C145.465 199.719 155.286 202.554 155.995 204.945C156.112 205.327 156.026 205.701 155.746 206.02C155.38 206.441 154.406 207.555 137.98 208.092C130.807 208.326 123.751 208.341 122.248 208.341V208.333ZM122.777 207.555H122.879C135.052 207.555 153.845 207.009 155.162 205.506C155.286 205.366 155.279 205.257 155.247 205.171C154.803 203.684 148.238 201.324 144.18 200.171C136.205 199.564 130.683 201.776 127.45 203.73C125.036 205.187 123.509 206.737 122.777 207.562V207.555Z" fill="#000927"/>
<path d="M113.174 197.889C113.174 197.889 127.887 206.394 125.916 208.653C123.938 210.919 95.1205 210.834 95.1205 210.834C95.1205 210.834 97.457 196.698 113.174 197.881V197.889Z" fill="#000927"/>
<path d="M95.432 211.231H95.1127C94.9958 211.231 94.8868 211.176 94.8167 211.091C94.7466 211.005 94.7077 210.888 94.731 210.771C94.7544 210.623 97.309 196.3 113.197 197.5C113.252 197.5 113.314 197.523 113.361 197.554C114.646 198.302 125.955 204.907 126.461 207.929C126.524 208.31 126.438 208.653 126.204 208.918C125.838 209.338 124.857 210.46 109.786 210.989C103.283 211.215 96.904 211.231 95.432 211.231ZM95.5956 210.452C95.7435 210.452 95.8837 210.452 96.0317 210.452C107.161 210.452 124.304 209.907 125.62 208.396C125.675 208.334 125.729 208.24 125.698 208.045C125.363 206.044 117.987 201.121 113.057 198.263C99.3574 197.274 96.1407 208.038 95.5956 210.444V210.452Z" fill="#000927"/>
<path d="M66.4745 122.886C66.4745 122.886 43.9581 120.425 43.9581 131.446C43.9581 140.27 44.6824 153.113 44.6824 153.113H58.3511L66.4745 122.886Z" fill="#ADB8CD"/>
<path d="M58.3589 154.282H44.6902C44.0671 154.282 43.5609 153.799 43.5219 153.176C43.5219 153.043 42.7898 140.192 42.7898 131.438C42.7898 129.086 43.6777 127.1 45.4301 125.527C51.4506 120.129 65.9916 121.648 66.6069 121.718C66.9496 121.757 67.2533 121.936 67.4481 122.217C67.6428 122.497 67.6973 122.847 67.6116 123.182L59.4883 153.409C59.3481 153.923 58.8885 154.274 58.3589 154.274V154.282ZM45.7961 151.945H57.4633L64.9869 123.938C61.3185 123.704 51.2636 123.447 46.9878 127.279C45.7338 128.401 45.1263 129.764 45.1263 131.446C45.1263 138.642 45.617 148.651 45.7884 151.945H45.7961Z" fill="#000927"/>
<path d="M44.6668 203.816H73.671V191.074H44.6668V203.816Z" fill="#ADB8CD"/>
<path d="M73.671 204.984H44.6668C44.0204 204.984 43.4985 204.463 43.4985 203.816V191.066C43.4985 190.42 44.0204 189.898 44.6668 189.898H73.671C74.3175 189.898 74.8393 190.42 74.8393 191.066V203.816C74.8393 204.463 74.3175 204.984 73.671 204.984ZM45.8351 202.648H72.5028V192.235H45.8351V202.648Z" fill="#000927"/>
<path d="M73.6711 203.816H92.0596L86.304 191.074H73.6711V203.816Z" fill="#ADB8CD"/>
<path d="M92.0596 204.984H73.6711C73.0246 204.984 72.5028 204.463 72.5028 203.816V191.074C72.5028 190.428 73.0246 189.906 73.6711 189.906H86.304C86.7635 189.906 87.1763 190.171 87.371 190.591L93.1344 203.333C93.298 203.692 93.2668 204.112 93.0488 204.447C92.8307 204.782 92.4646 204.984 92.0674 204.984H92.0596ZM74.8393 202.648H90.2527L85.5485 192.243H74.8393V202.648V202.648Z" fill="#000927"/>
<path d="M66.4745 221.325H73.0168V204.338H66.4745V221.325Z" fill="#ADB8CD"/>
<path d="M73.0168 222.493H66.4745C65.828 222.493 65.3062 221.971 65.3062 221.325V204.338C65.3062 203.692 65.828 203.17 66.4745 203.17H73.0168C73.6632 203.17 74.1851 203.692 74.1851 204.338V221.325C74.1851 221.971 73.6632 222.493 73.0168 222.493ZM67.6428 220.156H71.8485V205.506H67.6428V220.156Z" fill="#000927"/>
<path d="M45.6092 221.325H52.1515V204.338H45.6092V221.325V221.325Z" fill="#ADB8CD"/>
<path d="M52.1515 222.493H45.6092C44.9627 222.493 44.4409 221.971 44.4409 221.325V204.338C44.4409 203.692 44.9627 203.17 45.6092 203.17H52.1515C52.7979 203.17 53.3198 203.692 53.3198 204.338V221.325C53.3198 221.971 52.7979 222.493 52.1515 222.493ZM46.7775 220.156H50.9832V205.506H46.7775V220.156Z" fill="#000927"/>
<path d="M110.518 156.275C110.518 156.275 120.799 159.391 121.936 156.018C123.073 152.646 119.724 153.783 119.724 153.783C119.724 153.783 125.41 155.847 125.846 152.148C126.282 148.448 118.392 148.51 118.392 148.51L125.277 149.507C125.573 149.554 125.877 149.515 126.15 149.398C126.422 149.281 126.656 149.079 126.827 148.83C126.991 148.58 127.084 148.292 127.092 147.988C127.092 147.685 127.014 147.397 126.858 147.14C124.997 144.367 117.871 143.572 117.871 143.572C119.576 138.159 107.263 145.029 107.263 145.029" fill="#F2F7FF"/>
<path d="M117.894 158.791C116.048 158.791 113.556 158.417 110.176 157.397C109.56 157.21 109.21 156.556 109.397 155.941C109.584 155.325 110.23 154.975 110.853 155.162C115.199 156.478 120.386 156.969 120.822 155.652C120.861 155.528 120.892 155.419 120.916 155.325C120.082 155.162 119.467 154.944 119.311 154.889C118.844 154.718 118.533 154.274 118.54 153.775C118.54 153.277 118.867 152.841 119.335 152.677C119.693 152.553 121.562 152 122.676 153.113C122.699 153.137 122.723 153.16 122.746 153.191C123.307 153.215 123.829 153.129 124.179 152.911C124.374 152.794 124.6 152.584 124.67 152.015C124.709 151.688 124.631 151.439 124.413 151.197C124.101 150.855 123.587 150.574 122.964 150.356L118.205 149.671C117.598 149.585 117.17 149.048 117.209 148.432C117.247 147.825 117.754 147.35 118.369 147.342C118.766 147.342 121.274 147.35 123.478 148.066L125.433 148.347C125.519 148.362 125.597 148.347 125.667 148.323C125.737 148.292 125.799 148.246 125.838 148.175C125.877 148.113 125.9 148.043 125.9 147.965C125.9 147.887 125.885 147.809 125.838 147.747C124.732 146.096 120.262 145.013 117.715 144.733C117.364 144.694 117.053 144.499 116.866 144.211C116.679 143.923 116.624 143.557 116.733 143.222C116.819 142.942 116.842 142.77 116.842 142.677C115.822 142.357 111.624 143.923 107.816 146.049C107.255 146.361 106.538 146.158 106.227 145.597C105.915 145.037 106.11 144.32 106.679 144.009C110.121 142.085 116.219 139.125 118.392 140.885C118.774 141.197 119.163 141.727 119.187 142.576C121.469 142.949 126.157 144.001 127.816 146.485C128.112 146.968 128.253 147.482 128.245 148.004C128.237 148.526 128.081 149.032 127.785 149.468C127.513 149.881 127.131 150.208 126.695 150.419C126.967 150.987 127.077 151.618 126.999 152.28C126.827 153.736 126.041 154.507 125.418 154.897C124.779 155.286 124.023 155.465 123.268 155.512C123.221 155.793 123.143 156.081 123.042 156.392C122.801 157.101 121.819 158.791 117.894 158.791V158.791Z" fill="#000927"/>
<path d="M78.6479 152.599C76.7397 151.875 75.2988 149.889 73.6477 147.895C69.9326 143.401 67.1677 129.958 67.6272 124.553C67.3468 122.886 67.9621 120.994 69.4964 118.782C70.6413 117.084 72.4093 115.908 74.411 115.495C76.4126 115.09 78.4999 115.479 80.2134 116.593C81.7944 117.59 82.9783 119.109 83.5624 120.885C85.0967 124.857 86.5376 132.061 87.1373 135.278C87.1918 135.558 87.3242 135.807 87.5345 136.01C87.737 136.205 88.0018 136.329 88.2822 136.368C92.9709 137.022 105.495 140.052 106.889 140.223L110.417 140.948L110.643 156.712L104.108 156.976C100.946 157.093 97.7763 156.953 94.6298 156.556C94.6298 156.556 85.5173 155.099 78.6479 152.591V152.599Z" fill="#7FB1FC"/>
<path d="M101.959 158.191C99.4586 158.191 96.9585 158.036 94.4818 157.724C94.069 157.662 85.1357 156.213 78.2507 153.697H78.2351C76.2568 152.934 74.8315 151.19 73.3206 149.336L72.752 148.643C68.8889 143.977 66.0384 130.348 66.4589 124.6C66.1785 122.66 66.8639 120.542 68.5384 118.12C69.8547 116.165 71.8641 114.825 74.1851 114.358C76.506 113.883 78.8737 114.335 80.8598 115.627C82.6589 116.757 84.0141 118.501 84.6839 120.542C86.2806 124.67 87.737 132.084 88.2978 135.083C88.2978 135.122 88.3211 135.153 88.3523 135.184C88.3834 135.208 88.4146 135.231 88.4535 135.231C91.4521 135.652 97.5427 137.007 101.99 138.004C104.358 138.533 106.585 139.032 107.052 139.086C107.084 139.086 107.115 139.094 107.146 139.102L110.674 139.826C111.211 139.935 111.601 140.403 111.609 140.956L111.835 156.719C111.842 157.35 111.344 157.88 110.713 157.903L104.178 158.168C103.446 158.199 102.714 158.207 101.982 158.207L101.959 158.191ZM79.0607 151.501C85.7432 153.947 94.7233 155.395 94.8167 155.411C97.8542 155.793 100.977 155.933 104.069 155.816L109.467 155.598L109.272 141.906L106.702 141.376C106.11 141.29 104.474 140.932 101.476 140.262C97.0676 139.281 91.0315 137.934 88.1264 137.521C87.6046 137.451 87.1217 137.217 86.7323 136.851C86.3507 136.485 86.0936 136.018 85.9924 135.496C85.5718 133.206 84.0609 125.425 82.4798 121.313C81.9658 119.74 80.9455 118.431 79.5981 117.59C78.1183 116.632 76.3659 116.297 74.6524 116.648C72.9389 116.998 71.4513 117.987 70.47 119.444C69.107 121.414 68.5618 123.019 68.7877 124.366C68.8033 124.46 68.811 124.561 68.8033 124.662C68.3671 129.841 71.0463 142.918 74.5589 147.163L75.1353 147.872C76.4359 149.468 77.6743 150.987 79.0607 151.517V151.501Z" fill="#000927"/>
<path d="M133.128 154.063C132.186 150.637 133.705 150.426 133.705 150.426C133.705 150.426 129.67 153.705 129.452 149.982C129.226 146.259 132.357 147.802 132.357 147.802L130.13 147.397C129.834 147.428 129.53 147.373 129.257 147.241C128.985 147.108 128.767 146.898 128.611 146.641C128.455 146.384 128.385 146.088 128.393 145.784C128.401 145.481 128.502 145.192 128.673 144.943C130.675 142.287 133.409 144.102 133.409 144.102" fill="#F2F7FF"/>
<path d="M133.128 154.842C132.785 154.842 132.474 154.617 132.38 154.274C132.178 153.534 132.061 152.872 132.046 152.296C131.36 152.545 130.613 152.654 129.966 152.373C129.429 152.14 128.767 151.54 128.673 150.037C128.619 149.196 128.72 148.503 128.977 147.973C128.954 147.965 128.93 147.95 128.915 147.942C128.51 147.739 128.175 147.428 127.949 147.038C127.723 146.649 127.606 146.205 127.622 145.753C127.637 145.302 127.785 144.865 128.042 144.499C129.997 141.914 132.692 142.685 133.845 143.456C134.203 143.697 134.304 144.18 134.063 144.538C133.821 144.897 133.346 144.998 132.98 144.756C132.762 144.616 130.799 143.424 129.296 145.418C129.226 145.52 129.179 145.668 129.172 145.816C129.172 145.964 129.203 146.119 129.281 146.244C129.359 146.376 129.468 146.478 129.608 146.548C129.74 146.618 129.896 146.641 130.044 146.626C130.122 146.626 130.2 146.626 130.27 146.633L130.776 146.727C131.703 146.641 132.575 147.046 132.708 147.108C133.058 147.28 133.229 147.685 133.105 148.051C132.98 148.417 132.606 148.651 132.225 148.573L130.76 148.308C130.698 148.323 130.644 148.347 130.597 148.378C130.317 148.565 130.184 149.133 130.231 149.943C130.262 150.496 130.394 150.862 130.597 150.948C130.994 151.127 131.874 150.73 132.606 150.271C133.019 149.772 133.502 149.679 133.603 149.663C133.962 149.609 134.289 149.803 134.421 150.123C134.561 150.442 134.468 150.816 134.195 151.034C134.102 151.112 133.93 151.244 133.689 151.408C133.58 151.727 133.486 152.451 133.876 153.861C133.993 154.274 133.743 154.702 133.331 154.819C133.261 154.835 133.19 154.85 133.12 154.85L133.128 154.842Z" fill="#000927"/>
<path d="M122.536 86.3117C122.699 86.3039 122.855 86.2494 122.988 86.1637C123.12 86.0781 123.237 85.9535 123.307 85.8133C132.022 69.0213 124.234 61.9416 123.899 61.6379C123.712 61.4821 123.47 61.4042 123.229 61.4198C122.988 61.4354 122.754 61.5522 122.598 61.7391C122.435 61.9261 122.357 62.1675 122.365 62.4089C122.38 62.6582 122.489 62.884 122.668 63.0476C122.941 63.289 128.478 68.4995 123.439 81.0545C123.346 76.4282 122.801 69.5276 120.488 66.8328C120.402 66.7315 120.293 66.6536 120.176 66.5991C120.059 66.5446 119.927 66.5135 119.794 66.5135C119.662 66.5135 119.53 66.5446 119.413 66.5991C119.296 66.6536 119.187 66.7315 119.101 66.8328C118.774 67.1911 110.908 75.4858 95.8604 68.2425C95.7514 68.1802 95.6267 68.1335 95.4943 68.1179C95.3697 68.1023 95.2373 68.1179 95.1127 68.1568C94.9881 68.1958 94.8713 68.2581 94.7778 68.3437C94.6843 68.4294 94.5987 68.5307 94.5441 68.6475C94.4896 68.7643 94.4585 68.8889 94.4507 69.0213C94.4507 69.1537 94.4663 69.2784 94.513 69.403C94.5597 69.5198 94.6298 69.6288 94.7233 69.7223C94.8167 69.8158 94.9258 69.8859 95.0426 69.9326C103.54 74.0215 109.965 73.3361 113.867 72.0355C115.962 71.3501 117.902 70.2831 119.607 68.8889C121.57 72.5885 121.679 81.8334 121.539 85.3615C121.539 85.5796 121.601 85.7899 121.734 85.9612C121.866 86.1326 122.053 86.2494 122.263 86.2962C122.357 86.3117 122.45 86.3195 122.536 86.2962V86.3117Z" fill="#000927"/>
<path d="M71.0308 92.1063H71.0775C71.3267 92.0752 71.5526 91.9583 71.7083 91.7636C71.8641 91.5689 71.9342 91.3197 71.9108 91.0782C71.5448 87.9083 72.6819 81.9891 75.2054 77.5808C76.14 76.0621 76.506 74.2552 76.2412 72.4872C80.4782 74.3253 84.7073 72.4872 87.7058 71.2099L88.3523 70.9295C91.5689 69.5587 95.027 71.8252 95.0659 71.8485C95.2061 71.9498 95.3775 72.0043 95.5566 72.0121C95.728 72.0121 95.9071 71.9732 96.0551 71.8875C96.2031 71.8018 96.3277 71.6694 96.4133 71.5136C96.499 71.3579 96.5302 71.1865 96.5224 71.0074C96.2732 67.2456 91.1873 63.8887 90.9848 63.7252C90.8835 63.6473 90.7667 63.585 90.6421 63.5538C90.5175 63.5227 90.3851 63.5149 90.2605 63.5382C90.1358 63.5616 90.0112 63.6083 89.9022 63.6784C89.7932 63.7485 89.6997 63.842 89.6296 63.951C89.5595 64.0601 89.5128 64.1847 89.4894 64.3093C89.466 64.4339 89.4738 64.5663 89.505 64.6909C89.5361 64.8156 89.5907 64.9324 89.6763 65.0336C89.7542 65.1349 89.8555 65.2206 89.9723 65.2829C91.5456 66.3265 92.9085 67.6583 93.9911 69.216C91.9583 68.3905 89.6841 68.3749 87.6435 69.1693L86.9893 69.4497C83.3599 71.023 78.827 72.9701 74.5589 69.0992C74.372 68.9434 74.1383 68.8733 73.8969 68.8889C73.6555 68.9045 73.4374 69.0135 73.2738 69.1927C73.1103 69.3718 73.0246 69.6055 73.0246 69.8469C73.0246 70.0883 73.1258 70.3142 73.2894 70.4856C73.3829 70.579 75.7272 72.8844 73.6009 76.5995C70.7737 81.5218 69.6678 87.8149 70.065 91.234C70.0883 91.4755 70.2052 91.7013 70.3921 91.8571C70.579 92.0129 70.8127 92.0985 71.0541 92.083L71.0308 92.1063Z" fill="#000927"/>
<path d="M126.282 68.2891C126.5 68.2735 126.71 68.1879 126.866 68.0321C127.022 67.8841 127.123 67.6738 127.147 67.4558C127.598 63.5615 126.742 60.4228 124.6 58.133C122.699 56.2482 120.262 55.002 117.629 54.5581C118.104 54.2154 118.533 53.8026 118.891 53.3431C119 53.1873 119.054 53.0004 119.054 52.8057C119.054 52.611 119 52.4318 118.891 52.2683C118.782 52.1125 118.634 51.9879 118.455 51.9178C118.276 51.8477 118.081 51.8399 117.902 51.8788C117.824 51.8788 110.285 53.678 105.121 52.7434C99.6144 51.6841 94.0145 51.2636 88.4146 51.4816C83.3288 51.8243 76.3581 54.3945 74.6135 55.555C74.4343 55.703 74.3097 55.9211 74.2786 56.1547C74.2474 56.3884 74.3019 56.622 74.4343 56.8167C74.5667 57.0114 74.7692 57.1438 75.0029 57.1984C75.2365 57.2529 75.4702 57.2139 75.6805 57.0893C77.0435 56.1391 83.7415 53.6702 88.5081 53.3509C93.9522 53.1328 99.4119 53.5456 104.763 54.5814C107.348 54.9631 109.981 54.9864 112.574 54.6515C112.489 54.8073 112.45 54.9864 112.458 55.1578C112.458 55.2824 112.497 55.3992 112.551 55.5083C112.606 55.6173 112.676 55.7186 112.769 55.7964C112.863 55.8743 112.964 55.9444 113.081 55.9834C113.198 56.0223 113.322 56.0379 113.439 56.0379C113.501 56.0379 119.818 55.7731 123.198 59.4025C124.942 61.2717 125.636 63.912 125.254 67.2299C125.238 67.3545 125.254 67.4791 125.285 67.596C125.316 67.7128 125.379 67.8218 125.449 67.9231C125.527 68.0165 125.62 68.1022 125.729 68.1567C125.838 68.219 125.955 68.2502 126.08 68.2658C126.15 68.2813 126.212 68.2813 126.282 68.2658V68.2891Z" fill="#000927"/>
<path d="M102.847 116.733C108.01 116.352 113.042 114.934 117.645 112.567C123.097 109.856 125.799 104.139 125.464 96.0239C125.262 92.1841 124.561 88.3912 123.361 84.7384C123.276 84.5047 123.104 84.31 122.886 84.201C122.66 84.0919 122.403 84.0764 122.17 84.162C121.936 84.2477 121.749 84.4191 121.64 84.6449C121.531 84.8708 121.516 85.1278 121.593 85.3615C121.664 85.5562 128.393 105.136 116.804 110.9C104.194 117.201 91.8493 116.204 74.4187 107.473C74.3097 107.403 74.1851 107.364 74.0527 107.34C73.9281 107.325 73.7957 107.34 73.671 107.372C73.5464 107.411 73.4296 107.465 73.3284 107.551C73.2271 107.636 73.1492 107.738 73.0869 107.855C73.0324 107.971 72.9934 108.096 72.9857 108.228C72.9857 108.361 73.0012 108.485 73.048 108.61C73.0947 108.735 73.1648 108.844 73.2583 108.937C73.3517 109.031 73.4608 109.101 73.5776 109.147C84.9409 114.841 94.217 117.333 102.839 116.749L102.847 116.733Z" fill="#000927"/>
<path d="M71.9342 109.7C73.5153 109.576 75.0652 109.147 76.4905 108.446C76.6151 108.4 76.7241 108.33 76.8098 108.236C76.9033 108.143 76.9734 108.034 77.0201 107.917C77.0668 107.8 77.0902 107.668 77.0824 107.535C77.0824 107.403 77.0435 107.278 76.9889 107.161C76.9344 107.045 76.8565 106.943 76.7553 106.858C76.654 106.772 76.545 106.71 76.4204 106.671C76.2958 106.632 76.1634 106.616 76.0388 106.632C75.9141 106.647 75.7895 106.686 75.6727 106.749C69.9092 109.513 66.0228 106.421 64.2159 104.334C61.2485 100.899 60.1191 95.689 61.7937 93.1889C64.9168 88.5236 73.3439 93.3992 73.414 93.4537C73.5231 93.5316 73.6399 93.5783 73.7645 93.6017C73.8891 93.625 74.0215 93.625 74.1462 93.6017C74.2708 93.5705 74.3876 93.5238 74.4966 93.4459C74.5979 93.368 74.6914 93.2746 74.7537 93.1577C74.816 93.0487 74.8627 92.9241 74.8783 92.7917C74.8939 92.6593 74.8783 92.5347 74.8471 92.41C74.8082 92.2854 74.7459 92.1686 74.6602 92.0751C74.5745 91.9739 74.4733 91.896 74.3564 91.8415C73.9514 91.6 64.3171 86.0157 60.2204 92.1452C58.0396 95.3852 59.1923 101.406 62.775 105.557C65.3296 108.509 68.5229 109.918 71.9109 109.693L71.9342 109.7Z" fill="#000927"/>
<path d="M68.1101 102.504C68.2814 102.488 68.445 102.434 68.5852 102.333C68.7254 102.231 68.8344 102.099 68.9045 101.943C69.6288 100.269 71.389 100.79 71.7317 100.915C71.8641 100.962 72.0121 100.985 72.1523 100.97C72.2925 100.954 72.4327 100.907 72.5495 100.829C72.6741 100.752 72.7754 100.65 72.8455 100.526C72.9233 100.401 72.9623 100.261 72.9779 100.121C73.2505 97.2078 69.1304 94.9258 68.6163 94.6765C68.3982 94.5597 68.1412 94.5364 67.9076 94.6142C67.6739 94.6921 67.4714 94.8557 67.3624 95.0738C67.2456 95.2918 67.2222 95.5489 67.3001 95.7825C67.3702 96.0162 67.5415 96.2187 67.7596 96.3277C68.9356 96.943 69.9559 97.8153 70.7581 98.8745C69.9871 98.82 69.216 99.0147 68.5618 99.4353C67.9076 99.8559 67.4013 100.463 67.1287 101.188C67.082 101.297 67.0508 101.421 67.0508 101.546C67.0508 101.671 67.0664 101.787 67.1131 101.904C67.1599 102.021 67.2222 102.122 67.3079 102.208C67.3935 102.294 67.4948 102.372 67.6038 102.418C67.7596 102.496 67.9387 102.52 68.1101 102.496V102.504Z" fill="#000927"/>
<path d="M124.195 103.29C124.693 103.236 125.184 103.065 125.612 102.808C126.048 102.543 126.422 102.192 126.703 101.78C128.611 99.3339 129.608 94.3415 128.969 90.4006C128.665 88.5391 127.902 87.2852 126.703 86.6855C124.88 85.7664 122.832 86.8179 122.746 86.8568C122.528 86.9736 122.357 87.1684 122.287 87.4098C122.217 87.6512 122.232 87.9083 122.349 88.1263C122.466 88.3444 122.66 88.5158 122.902 88.5859C123.136 88.6637 123.393 88.6404 123.618 88.5236C123.969 88.3444 124.343 88.2354 124.732 88.212C125.122 88.1809 125.511 88.2354 125.877 88.36C126.508 88.6793 126.929 89.4737 127.131 90.7043C127.739 94.4194 126.648 98.8277 125.238 100.611C124.981 101.024 124.569 101.312 124.094 101.429C123.844 101.452 123.618 101.569 123.455 101.756C123.291 101.943 123.213 102.192 123.229 102.434C123.245 102.675 123.361 102.901 123.541 103.057C123.72 103.22 123.953 103.298 124.195 103.29V103.29Z" fill="#000927"/>
<path d="M113.766 91.9428C114.615 91.9428 115.3 91.2574 115.3 90.4085C115.3 89.5595 114.615 88.8741 113.766 88.8741C112.917 88.8741 112.232 89.5595 112.232 90.4085C112.232 91.2574 112.917 91.9428 113.766 91.9428Z" fill="#000927"/>
<path d="M94.8012 92.153C95.6501 92.153 96.3355 91.4676 96.3355 90.6187C96.3355 89.7697 95.6501 89.0844 94.8012 89.0844C93.9522 89.0844 93.2668 89.7697 93.2668 90.6187C93.2668 91.4676 93.9522 92.153 94.8012 92.153Z" fill="#000927"/>
<path d="M106.375 94.7388C106.453 94.7388 106.531 94.7232 106.608 94.692C107.021 94.5752 107.403 94.3494 107.714 94.0534C108.026 93.7574 108.26 93.3836 108.4 92.9786C109.124 90.6966 106.865 87.2696 106.608 86.8958C106.46 86.7089 106.25 86.5843 106.017 86.5531C105.783 86.5219 105.541 86.5765 105.347 86.7089C105.152 86.8413 105.012 87.0516 104.965 87.2852C104.911 87.5189 104.95 87.7603 105.074 87.9628C105.923 89.1934 106.967 91.3897 106.632 92.3944C106.585 92.5268 106.507 92.6437 106.406 92.7371C106.305 92.8306 106.172 92.8929 106.04 92.9241C105.822 92.9942 105.635 93.1343 105.518 93.3368C105.401 93.5316 105.355 93.7652 105.401 93.9911C105.44 94.2169 105.573 94.4195 105.752 94.5596C105.939 94.6998 106.165 94.7621 106.39 94.7466L106.375 94.7388Z" fill="#000927"/>
<path d="M123.759 79.7694C120.76 79.9719 120.449 75.2988 123.447 75.0963C126.446 74.8938 126.765 79.5747 123.759 79.7694Z" fill="#000927"/>
<path d="M123.938 80.5015C120.939 80.704 120.62 76.0309 123.626 75.8284C126.633 75.6259 126.944 80.3068 123.938 80.5015Z" fill="#000927"/>
<path d="M71.0308 92.1063C71.28 92.0908 71.5059 91.9739 71.6694 91.7792C71.833 91.5923 71.9187 91.3431 71.8953 91.0938L71.6928 88.1809C71.6772 87.9629 71.5838 87.7604 71.4358 87.5968C71.2878 87.441 71.0853 87.3398 70.8672 87.3086L68.4606 87.0127C68.3126 86.9971 68.1568 87.0127 68.0167 87.0672C67.8765 87.1217 67.7518 87.2074 67.6506 87.3164C67.5493 87.4255 67.4792 87.5657 67.4403 87.7058C67.4014 87.8538 67.4014 88.0018 67.4325 88.1498L67.6895 89.3181C67.6973 89.3648 67.7129 89.4037 67.7363 89.4505C66.2876 89.1156 64.7922 89.0299 63.3124 89.209C62.1286 86.4831 58.5615 77.2615 61.1317 70.7426C61.6613 69.3952 62.4713 68.1724 63.5149 67.1677C64.5586 66.163 65.8047 65.3919 67.1677 64.9168C67.3313 64.8545 67.4715 64.7533 67.5805 64.6131C67.6895 64.4729 67.7518 64.3093 67.7674 64.1302C67.7674 63.7953 68.6787 55.8822 76.6463 56.404C76.8955 56.4196 77.1369 56.3417 77.3239 56.1782C77.5108 56.0146 77.6198 55.7809 77.6432 55.5395C77.6588 55.2903 77.5809 55.0488 77.4173 54.8619C77.2538 54.675 77.0279 54.5582 76.7787 54.5426C68.3593 53.974 66.3967 61.2407 65.9994 63.3747C64.5041 63.9666 63.1411 64.8701 62.004 66.015C60.8668 67.1599 59.979 68.5307 59.3948 70.0338C56.0847 78.4999 61.7625 90.2916 62.0117 90.7901C62.0818 90.9303 62.1831 91.0471 62.3077 91.1406C62.4323 91.234 62.5803 91.2885 62.7361 91.3041C62.8763 91.3197 63.0242 91.3041 63.1567 91.2496C63.2891 91.1951 63.4137 91.1172 63.5071 91.0159C64.2315 90.7278 67.5338 91.1873 70.7192 92.0129C70.8205 92.0518 70.9217 92.083 71.0308 92.0907V92.1063Z" fill="#000927"/>
<path d="M60.5241 80.7118C60.6955 81.9501 60.9836 83.1651 61.3809 84.349C61.412 84.4346 61.4509 84.5203 61.4977 84.5982C61.4977 85.2135 61.6145 85.8288 61.8326 86.4051C61.9416 86.9347 62.0896 87.4566 62.2765 87.9628C62.4245 88.4223 62.7127 88.8195 63.1099 89.0921C63.5071 89.3647 63.9744 89.5049 64.4573 89.4816C65.1505 89.9177 65.9293 90.2059 66.7315 90.3305C67.5415 90.4551 68.3671 90.4162 69.1615 90.2059C69.5432 90.0813 69.8936 89.8476 70.1585 89.5439C70.4233 89.2401 70.6024 88.8663 70.6803 88.4691C70.6803 88.2354 70.6803 88.0095 70.7348 87.7837C70.8127 87.5189 70.8594 87.2463 70.875 86.9737C70.9451 85.3225 71.241 83.6792 71.7473 82.1059C73.3829 80.4158 74.4421 78.2584 74.7848 75.9296C74.8627 75.3922 74.777 74.8393 74.5278 74.3564C74.9795 73.2971 75.1041 72.1211 74.8938 70.984C78.679 72.5962 84.0063 71.5993 87.332 70.1662C87.7682 69.9793 88.142 69.6677 88.4146 69.2705C90.1514 69.2705 91.8883 69.3562 93.6251 69.4808C94.0067 69.512 94.3884 69.4652 94.7466 69.3406C95.1049 69.216 95.432 69.0135 95.7124 68.7565C95.8448 68.8811 95.9928 68.9901 96.1485 69.0758C96.2654 69.1615 96.39 69.2394 96.5224 69.3095C97.4259 69.769 98.415 70.0494 99.4275 70.135C99.7001 70.3297 100.004 70.4855 100.323 70.5945C101.616 71.0229 102.963 71.2176 104.326 71.1709C104.552 71.1709 104.778 71.1242 104.988 71.0463C105.487 71.241 106.001 71.4357 106.499 71.6538C106.936 71.8407 107.418 71.8952 107.878 71.8095C108.345 71.7239 108.774 71.498 109.109 71.1709C110.191 71.1631 111.274 71.0619 112.349 70.8905C115.332 70.3843 118.198 69.3406 120.807 67.8219C120.986 69.6521 121.188 71.4591 121.438 73.2971C121.484 73.6632 121.609 74.0137 121.796 74.333C121.734 74.5511 121.71 74.777 121.726 75.0028V75.4935C121.749 75.9141 121.889 76.3113 122.123 76.6618L122.512 77.1057C122.614 77.1914 122.723 77.2615 122.84 77.3238C122.692 77.3238 122.536 77.3549 122.403 77.425C122.263 77.4951 122.146 77.5964 122.053 77.721C121.967 77.8456 121.913 77.9936 121.889 78.1494L121.718 80.4314C121.702 80.5794 121.734 80.7351 121.788 80.8753L122.731 83.0561C122.801 83.2274 122.925 83.3676 123.073 83.4689C123.229 83.5701 123.408 83.6246 123.587 83.6246H123.65C123.821 83.6091 123.985 83.5546 124.125 83.4533C124.265 83.3521 124.374 83.2196 124.444 83.0639L125.838 79.9641C125.932 79.7616 125.947 79.5279 125.877 79.3098C125.807 79.0918 125.667 78.9126 125.472 78.7958L123.626 77.6353L124.226 77.682C124.841 77.612 125.402 77.3316 125.83 76.8876C126.041 76.6696 126.189 76.397 126.267 76.101C126.391 75.8128 126.438 75.5013 126.407 75.1897L126.368 74.6913C126.344 74.3252 126.228 73.967 126.033 73.6554C126.087 73.4373 126.111 73.2115 126.087 72.9856C125.706 70.1895 125.402 67.3701 125.184 64.5585C125.643 64.317 125.986 63.9043 126.15 63.4136C126.313 62.9229 126.282 62.3855 126.064 61.9182C125.69 61.0303 125.098 60.2593 124.343 59.6673C121.718 56.9803 118.182 55.4771 114.49 54.6827C110.23 53.7715 105.822 53.6469 101.499 53.3197C96.4912 52.9381 91.3742 52.2527 86.3584 52.7045C83.9284 52.8758 81.5374 53.4599 79.3021 54.4257C78.2195 54.9242 77.2226 55.594 76.14 56.0769C75.0574 56.5675 74.7225 56.256 73.6087 56.0068C70.8516 55.3759 68.9357 57.8215 67.7985 60.0022C67.0431 61.482 66.5991 63.102 66.4745 64.7532C66.0072 64.7298 65.5399 64.87 65.1583 65.1426C64.7143 65.2984 64.3249 65.5788 64.0211 65.937C63.8887 66.0928 63.7719 66.2642 63.6784 66.4433C61.8637 68.2814 60.602 70.5945 60.0412 73.118C59.4805 75.6415 59.644 78.274 60.5163 80.704L60.5241 80.7118ZM123.634 80.3223L123.673 79.8317L123.813 79.9173L123.642 80.3146L123.634 80.3223Z" fill="#000927"/>
<path d="M95.7202 81.8488C94.583 80.5482 92.0907 80.7117 91.0315 82.1915C90.9848 82.2538 90.9458 82.3239 90.9303 82.394C90.9147 82.4641 90.9069 82.5498 90.9147 82.6277C90.9225 82.7056 90.9536 82.7757 90.9926 82.8458C91.0315 82.9081 91.086 82.9704 91.1483 83.0093C91.2885 83.095 91.4521 83.1184 91.6079 83.095C91.7636 83.0638 91.9116 82.9782 92.0128 82.8535C92.0128 82.8535 92.1375 82.6588 92.1764 82.6588L92.2231 82.6121L92.3166 82.5342L92.5191 82.3862C92.6204 82.3239 92.4334 82.4252 92.5191 82.3862L92.6281 82.3239L92.8696 82.2227L92.963 82.1837C93.0954 82.1292 92.8462 82.1837 92.963 82.1837C93.0799 82.1837 93.2902 82.1214 93.4615 82.0981C93.6329 82.0747 93.3369 82.0981 93.4615 82.0981H93.9444C94.0456 82.0981 93.9911 82.0981 93.9444 82.0981C94.0301 82.0981 94.1079 82.1214 94.1858 82.1604C94.2326 82.1604 94.3805 82.2071 94.4117 82.246L94.5207 82.3006C94.5207 82.3006 94.6921 82.4018 94.7077 82.4485C94.7232 82.4953 94.6298 82.3629 94.7077 82.4485L94.8011 82.5498C94.918 82.6666 95.0659 82.7367 95.2295 82.7445C95.393 82.7523 95.5488 82.7056 95.6734 82.5965C95.7357 82.5498 95.7903 82.4875 95.8292 82.4252C95.8681 82.3551 95.8915 82.285 95.9071 82.2071C95.9149 82.1292 95.9071 82.0513 95.8915 81.9735C95.8681 81.8956 95.837 81.8255 95.7825 81.771L95.728 81.841L95.7202 81.8488Z" fill="#000927"/>
<path d="M116.212 81.5607C115.892 81.2492 115.518 81.0077 115.098 80.8519C114.677 80.6962 114.233 80.6339 113.789 80.6572C113.345 80.6884 112.909 80.8052 112.52 81.0155C112.123 81.2258 111.78 81.514 111.507 81.8644C111.461 81.9267 111.422 81.9968 111.406 82.0747C111.391 82.1526 111.383 82.2305 111.391 82.3084C111.398 82.3863 111.43 82.4564 111.468 82.5265C111.507 82.5966 111.562 82.6511 111.624 82.6978C111.764 82.7835 111.928 82.8146 112.092 82.7835C112.255 82.7523 112.395 82.6667 112.497 82.542C112.497 82.542 112.621 82.3473 112.66 82.3473V82.3863L112.707 82.3395C112.707 82.3395 112.769 82.285 112.8 82.2617C112.863 82.2071 112.933 82.1526 113.003 82.1059C113.096 82.0436 112.917 82.1526 113.003 82.1059L113.112 82.0514C113.19 82.0124 113.26 81.9735 113.345 81.9501H113.447C113.579 81.8956 113.322 81.9501 113.447 81.9501C113.61 81.9034 113.782 81.88 113.953 81.8644C114.078 81.8644 113.821 81.8644 113.953 81.8644H114.428C114.529 81.8644 114.475 81.8644 114.428 81.8644C114.514 81.8722 114.592 81.8956 114.67 81.9345C114.747 81.9501 114.825 81.9813 114.895 82.0202L114.997 82.0825C114.997 82.0825 115.176 82.1838 115.191 82.2305C115.207 82.2772 115.106 82.1448 115.191 82.2305L115.285 82.3317C115.394 82.4486 115.55 82.5265 115.705 82.5342C115.869 82.542 116.025 82.4953 116.157 82.3941C116.219 82.3473 116.274 82.285 116.313 82.2149C116.352 82.1448 116.375 82.0747 116.391 81.9891C116.399 81.9112 116.391 81.8333 116.375 81.7554C116.352 81.6775 116.321 81.6074 116.266 81.5451H116.204L116.212 81.5607Z" fill="#000927"/>
<path d="M77.1681 71.6227L77.8924 75.8129L59.7375 82.7913C59.7375 82.7913 57.5567 83.1885 58.3979 77.1447L77.1681 71.6227V71.6227Z" fill="#CFD8E6"/>
<path d="M59.6518 83.9752C59.2079 83.9752 58.6393 83.8116 58.1565 83.3443C57.0894 82.3162 56.7857 80.2367 57.2452 76.9889C57.3075 76.5372 57.6346 76.1556 58.0708 76.031L76.841 70.5089C77.1603 70.4155 77.503 70.4622 77.7912 70.6413C78.0715 70.8205 78.2663 71.1087 78.3286 71.4358L79.0529 75.626C79.1464 76.1789 78.8426 76.7163 78.3208 76.9188L60.1659 83.8973C60.0958 83.9207 60.0257 83.944 59.9556 83.9596C59.8699 83.9752 59.7687 83.983 59.6674 83.983L59.6518 83.9752ZM59.4649 78.056C59.2157 80.4236 59.5428 81.2882 59.7064 81.5608L76.5762 75.073L76.2335 73.1181L59.4571 78.056H59.4649Z" fill="#000927"/>
<path d="M77.1681 71.6226C77.1681 71.6226 95.4554 49.1296 125.379 63.7096V70.579C125.379 70.579 102.138 64.1224 81.9424 77.0356C81.9424 77.02 77.1603 79.746 77.1603 71.6226H77.1681Z" fill="#CFD8E6"/>
<path d="M80.2523 78.6323C79.6448 78.6323 78.9906 78.4999 78.3597 78.1105C76.7942 77.1447 76.0076 74.9639 76.0076 71.6305C76.0076 71.3657 76.101 71.1008 76.2724 70.8906C76.4593 70.6569 95.4943 47.8523 125.9 62.6659C126.305 62.8607 126.555 63.2657 126.555 63.7174V70.5868C126.555 70.9529 126.383 71.2956 126.095 71.5136C125.807 71.7317 125.425 71.8096 125.075 71.7083C124.849 71.646 102.083 65.5555 82.581 78.0248C82.5343 78.0559 82.4876 78.0793 82.4408 78.1027C82.0904 78.274 81.2414 78.6323 80.2523 78.6323V78.6323ZM78.3441 72.0588C78.3986 74.1929 78.8426 75.6649 79.5825 76.1244C80.2289 76.5216 81.1402 76.1322 81.3738 76.0232C99.0614 64.7455 118.696 67.8998 124.21 69.107V64.4573C97.7374 51.9802 80.6495 69.4886 78.3363 72.0666L78.3441 72.0588Z" fill="#000927"/>
<path d="M81.9501 77.0279C81.9501 77.0279 85.0655 83.8973 93.7964 81.6153C102.527 79.3254 133.074 75.4156 138.681 79.5513L125.386 70.5712C125.386 70.5712 105.02 62.0506 81.9501 77.0279Z" fill="#CFD8E6"/>
<path d="M90.4006 83.243C83.5702 83.243 80.9143 77.573 80.8831 77.503C80.6417 76.9733 80.8286 76.358 81.3115 76.0387C104.63 60.8979 124.974 69.1226 125.83 69.4808C125.9 69.512 125.971 69.5509 126.033 69.5899L139.086 78.4064C139.188 78.4687 139.281 78.531 139.367 78.6011C139.881 78.975 139.99 79.6993 139.624 80.2133C139.258 80.7352 138.541 80.8598 138.019 80.5093L137.754 80.3302C132.295 76.9967 103.649 80.2289 94.0846 82.729C92.7372 83.0795 91.5144 83.2353 90.4006 83.2353V83.243ZM83.5234 77.4017C84.6294 78.9828 87.6124 82.0203 93.4927 80.4781C99.3496 78.9438 120.698 75.7428 132.497 76.7864L124.826 71.6071C123.299 71.023 104.576 64.2859 83.5234 77.4017V77.4017Z" fill="#000927"/>
<path d="M123.354 85.0655C123.354 85.0655 134.11 84.5826 138.681 79.5591C138.681 79.5591 130.363 77.207 123.058 78.9204L123.354 85.0655V85.0655Z" fill="#CFD8E6"/>
<path d="M123.354 86.2339C122.731 86.2339 122.217 85.751 122.185 85.1201L121.889 78.975C121.858 78.4142 122.24 77.908 122.793 77.7834C130.309 76.0232 138.65 78.3363 139.001 78.4376C139.39 78.5466 139.694 78.8504 139.803 79.2398C139.912 79.6292 139.818 80.0498 139.546 80.3458C134.709 85.6653 123.868 86.2105 123.408 86.2261C123.393 86.2261 123.377 86.2261 123.354 86.2261V86.2339ZM124.273 79.8629L124.467 83.8038C126.882 83.5624 132.513 82.7368 136.181 80.1978C133.494 79.6838 128.743 79.0451 124.28 79.8629H124.273Z" fill="#000927"/>
<path d="M105.588 155.317H130.301V159.437H106.881L105.588 155.317Z" fill="#ADB8CD"/>
<path d="M130.309 160.606H106.889C106.375 160.606 105.931 160.271 105.775 159.788L104.482 155.668C104.373 155.31 104.435 154.928 104.654 154.624C104.872 154.321 105.222 154.149 105.596 154.149H130.309C130.955 154.149 131.477 154.671 131.477 155.317V159.438C131.477 160.084 130.955 160.606 130.309 160.606V160.606ZM107.746 158.269H129.14V156.486H107.185L107.746 158.269Z" fill="#000927"/>
<path d="M130.309 159.437H176.533L183.153 155.317H130.317V159.437H130.309Z" fill="#ADB8CD"/>
<path d="M176.525 160.606H130.301C129.655 160.606 129.133 160.084 129.133 159.438V155.317C129.133 154.671 129.655 154.149 130.301 154.149H183.138C183.66 154.149 184.119 154.492 184.259 154.998C184.4 155.497 184.197 156.034 183.753 156.314L177.133 160.434C176.946 160.551 176.736 160.614 176.518 160.614L176.525 160.606ZM131.469 158.269H176.191L179.057 156.486H131.469V158.269V158.269Z" fill="#000927"/>
<path d="M60.9915 159.438H127.084V166.245H60.9915C60.1114 166.245 59.278 165.894 58.6549 165.271C58.0318 164.648 57.6891 163.807 57.6891 162.927V162.763C57.6891 162.327 57.767 161.891 57.9306 161.486C58.0941 161.081 58.3356 160.715 58.6471 160.403C58.9509 160.092 59.3169 159.85 59.7219 159.679C60.1269 159.508 60.5553 159.422 60.9915 159.422V159.438Z" fill="#ADB8CD"/>
<path d="M127.084 167.413H60.9915C59.792 167.413 58.6705 166.946 57.8293 166.097C56.9882 165.256 56.5209 164.126 56.5209 162.927V162.763C56.5209 162.179 56.6299 161.595 56.8558 161.05C57.0816 160.497 57.4088 160.006 57.8215 159.586C58.2421 159.165 58.725 158.838 59.278 158.604C59.8232 158.378 60.3995 158.261 60.9992 158.261H127.092C127.739 158.261 128.26 158.783 128.26 159.43V166.237C128.26 166.883 127.739 167.405 127.092 167.405L127.084 167.413ZM60.9915 160.606C60.7111 160.606 60.4307 160.66 60.1737 160.769C59.9089 160.878 59.6752 161.034 59.4727 161.237C59.278 161.431 59.1144 161.681 59.0054 161.938C58.8964 162.202 58.8418 162.475 58.8496 162.763V162.927C58.8496 163.495 59.0755 164.041 59.4727 164.446C59.8777 164.851 60.4151 165.076 60.9837 165.076H125.908V160.606H60.9915V160.606Z" fill="#000927"/>
<path d="M69.808 219.136V166.728H76.397V219.136C76.397 220.016 76.0465 220.857 75.4313 221.48C74.8082 222.103 73.9748 222.446 73.0947 222.446C72.2224 222.446 71.389 222.088 70.7738 221.465C70.1585 220.842 69.8158 220.008 69.8158 219.128L69.808 219.136Z" fill="#ADB8CD"/>
<path d="M73.0869 223.615C71.8875 223.615 70.7737 223.139 69.9326 222.29C69.0914 221.449 68.6319 220.328 68.6319 219.136V166.728C68.6319 166.081 69.1537 165.559 69.8002 165.559H76.3892C77.0356 165.559 77.5575 166.081 77.5575 166.728V219.136C77.5575 220.336 77.0902 221.457 76.249 222.306C75.4001 223.155 74.2785 223.622 73.0869 223.622V223.615ZM70.9762 167.896V219.136C70.9762 219.705 71.1943 220.242 71.5993 220.647C71.9965 221.052 72.5339 221.278 73.1025 221.278C73.6632 221.278 74.2006 221.052 74.6056 220.655C75.0106 220.25 75.2287 219.712 75.2287 219.136V167.896H70.9762Z" fill="#000927"/>
<path d="M114.638 219.136V166.728H121.227V219.136C121.227 220.016 120.877 220.857 120.262 221.48C119.639 222.103 118.797 222.446 117.925 222.446C117.053 222.446 116.219 222.088 115.604 221.465C114.989 220.842 114.646 220.008 114.646 219.128L114.638 219.136Z" fill="#ADB8CD"/>
<path d="M117.925 223.615C116.726 223.615 115.612 223.139 114.771 222.29C113.93 221.449 113.47 220.328 113.47 219.136V166.728C113.47 166.081 113.992 165.559 114.638 165.559H121.227C121.874 165.559 122.396 166.081 122.396 166.728V219.136C122.396 220.336 121.928 221.457 121.087 222.306C120.238 223.155 119.117 223.622 117.925 223.622V223.615ZM115.807 167.896V219.136C115.807 219.705 116.025 220.242 116.43 220.647C116.827 221.052 117.364 221.278 117.933 221.278C118.494 221.278 119.031 221.052 119.436 220.647C119.841 220.242 120.059 219.705 120.059 219.128V167.888H115.807V167.896Z" fill="#000927"/>
<path d="M160.294 219.136V166.728H166.883V219.136C166.883 220.016 166.533 220.857 165.918 221.48C165.302 222.103 164.453 222.446 163.581 222.446C162.709 222.446 161.86 222.096 161.245 221.48C160.621 220.857 160.279 220.016 160.279 219.136H160.302H160.294Z" fill="#ADB8CD"/>
<path d="M163.581 223.614C162.405 223.614 161.252 223.139 160.419 222.298C159.578 221.449 159.11 220.328 159.11 219.128C159.11 219.05 159.11 218.98 159.134 218.902V166.72C159.134 166.073 159.656 165.552 160.302 165.552H166.891C167.538 165.552 168.059 166.073 168.059 166.72V219.128C168.059 220.328 167.592 221.449 166.751 222.298C165.918 223.132 164.765 223.614 163.589 223.614H163.581ZM161.455 219.315C161.494 219.822 161.712 220.289 162.07 220.655C162.865 221.449 164.298 221.449 165.092 220.655C165.497 220.25 165.715 219.712 165.715 219.136V167.896H161.463V219.136C161.463 219.198 161.463 219.261 161.447 219.315H161.455Z" fill="#000927"/>
<path d="M186.83 219.128V166.72H193.419V219.128C193.419 220.008 193.068 220.85 192.453 221.473C191.83 222.096 190.989 222.438 190.116 222.438C189.244 222.438 188.411 222.08 187.795 221.457C187.18 220.834 186.837 220.001 186.837 219.12L186.83 219.128Z" fill="#ADB8CD"/>
<path d="M190.109 223.607C188.909 223.607 187.795 223.132 186.954 222.283C186.113 221.442 185.654 220.32 185.654 219.128V166.72C185.654 166.073 186.175 165.552 186.822 165.552H193.411C194.057 165.552 194.579 166.073 194.579 166.72V219.128C194.579 220.328 194.112 221.449 193.271 222.298C192.422 223.147 191.3 223.614 190.109 223.614V223.607ZM187.998 167.888V219.128C187.998 219.697 188.216 220.234 188.621 220.639C189.018 221.044 189.556 221.27 190.116 221.27C190.677 221.27 191.215 221.044 191.62 220.647C192.025 220.242 192.243 219.705 192.243 219.128V167.888H187.99H187.998Z" fill="#000927"/>
<path d="M202.897 166.245H127.061V159.438H202.897C203.77 159.445 204.603 159.804 205.218 160.427C205.833 161.05 206.168 161.891 206.168 162.763V162.942C206.168 163.378 206.083 163.807 205.919 164.212C205.756 164.617 205.514 164.983 205.203 165.287C204.899 165.598 204.533 165.84 204.128 166.003C203.723 166.167 203.294 166.252 202.866 166.252L202.905 166.237L202.897 166.245Z" fill="#ADB8CD"/>
<path d="M202.866 167.429C202.804 167.429 202.741 167.429 202.679 167.413H127.069C126.422 167.413 125.9 166.891 125.9 166.245V159.438C125.9 158.791 126.422 158.269 127.069 158.269H202.905C204.104 158.285 205.218 158.76 206.059 159.609C206.893 160.458 207.352 161.579 207.344 162.771V162.95C207.344 163.542 207.228 164.118 207.002 164.664C206.776 165.209 206.449 165.699 206.036 166.12C205.615 166.541 205.132 166.868 204.587 167.094C204.042 167.319 203.466 167.436 202.874 167.436L202.866 167.429ZM128.237 165.076H202.905C202.952 165.076 202.998 165.076 203.037 165.076C203.263 165.061 203.474 165.006 203.684 164.921C203.941 164.812 204.175 164.656 204.377 164.453C204.572 164.251 204.735 164.017 204.837 163.76C204.946 163.495 205 163.223 205 162.942V162.763C205 162.187 204.782 161.649 204.385 161.244C203.988 160.839 203.45 160.614 202.889 160.606H128.237V165.076V165.076Z" fill="#000927"/>
<path d="M105.588 155.317C105.588 155.317 106.359 144.593 117.863 143.58C129.366 142.568 163.62 143.58 163.62 143.58C163.62 143.58 183.161 143.868 183.161 155.317H105.588Z" fill="#ADB8CD"/>
<path d="M183.161 156.486H105.588C105.261 156.486 104.957 156.353 104.731 156.112C104.513 155.87 104.397 155.559 104.42 155.232C104.428 155.115 105.401 143.495 117.754 142.412C129.195 141.407 162.249 142.365 163.651 142.412C163.838 142.412 168.745 142.505 173.729 144.04C180.661 146.174 184.322 150.076 184.322 155.317C184.322 155.964 183.8 156.486 183.153 156.486H183.161ZM106.967 154.149H181.907C180.575 145.122 163.784 144.748 163.604 144.748C163.246 144.741 129.273 143.752 117.964 144.748C113.595 145.13 110.386 147.038 108.423 150.418C107.605 151.836 107.177 153.207 106.967 154.157V154.149Z" fill="#000927"/>
<path d="M170.116 131.913H134.148C129.701 131.913 126.095 135.527 126.095 139.982C126.095 144.445 129.701 148.059 134.148 148.059H170.116C174.563 148.059 178.169 144.445 178.169 139.99C178.169 135.527 174.563 131.913 170.116 131.913Z" fill="#ADB8CD"/>
<path d="M170.116 149.227H134.148C129.063 149.227 124.927 145.083 124.927 139.982C124.927 134.881 129.063 130.737 134.148 130.737H170.116C175.201 130.737 179.337 134.881 179.337 139.974C179.337 145.068 175.201 149.219 170.116 149.219V149.227ZM134.148 133.074C130.348 133.074 127.263 136.173 127.263 139.974C127.263 143.775 130.355 146.883 134.148 146.883H170.116C173.916 146.883 177.001 143.783 177.001 139.974C177.001 136.166 173.909 133.066 170.116 133.066H134.148V133.074Z" fill="#000927"/>
<path d="M188.886 202.36C189.306 199.462 189.267 196.511 188.769 193.629C184.322 167.678 183.231 128.432 166.907 130.745L134.951 131.757C134.951 131.757 146.524 129.234 149.803 153.775C151.54 166.767 152.545 184.579 156.338 199.782C156.805 201.783 157.802 203.622 159.204 205.109C159.991 205.927 160.847 206.566 161.486 206.379C163.09 205.919 165.357 200.919 165.357 200.919L168.441 204.712C168.605 204.907 168.807 205.062 169.041 205.171C169.274 205.273 169.524 205.327 169.781 205.312C170.038 205.304 170.287 205.234 170.505 205.109C170.731 204.984 170.918 204.813 171.058 204.603L174.423 199.673L177.289 203.816C177.421 204.011 177.6 204.167 177.803 204.284C178.005 204.4 178.239 204.463 178.473 204.47C178.706 204.478 178.94 204.432 179.158 204.338C179.368 204.245 179.563 204.097 179.711 203.91L183.153 199.673L186.471 203.139C186.658 203.318 186.892 203.442 187.149 203.505C187.406 203.567 187.671 203.551 187.912 203.474C188.161 203.396 188.38 203.248 188.559 203.053C188.73 202.858 188.847 202.617 188.901 202.36L188.878 202.375L188.886 202.36Z" fill="#F2F7FF"/>
<path d="M161.26 207.578C159.967 207.578 158.791 206.355 158.371 205.919C156.813 204.268 155.722 202.243 155.208 200.047C152.49 189.166 151.19 176.946 150.053 166.159C149.585 161.79 149.149 157.662 148.651 153.931C146.992 141.532 143.214 136.477 140.34 134.421C138.814 133.331 137.42 132.98 136.469 132.887L134.99 132.933C134.382 132.965 133.868 132.513 133.79 131.913C133.712 131.313 134.11 130.76 134.701 130.628C134.764 130.612 135.426 130.48 136.462 130.55L166.805 129.592C169.508 129.226 171.969 129.873 174.127 131.508C182.351 137.747 184.984 157.677 187.531 176.946C188.302 182.803 189.034 188.333 189.914 193.442C190.412 196.378 190.467 199.361 190.07 202.313C190.07 202.407 190.07 202.492 190.046 202.586C189.961 203.045 189.75 203.474 189.439 203.824C189.119 204.182 188.722 204.439 188.27 204.587C187.827 204.727 187.344 204.751 186.884 204.642C186.425 204.533 186.004 204.307 185.669 203.988L183.224 201.441L180.614 204.65C180.357 204.969 180.022 205.234 179.641 205.405C179.259 205.576 178.846 205.662 178.426 205.639C178.013 205.623 177.6 205.506 177.234 205.312C176.876 205.109 176.557 204.829 176.323 204.478L174.423 201.737L172.016 205.265C171.767 205.623 171.44 205.927 171.066 206.137C170.692 206.347 170.256 206.472 169.82 206.488C169.383 206.503 168.955 206.425 168.558 206.246C168.161 206.067 167.81 205.802 167.53 205.467L165.59 203.084C164.64 204.891 163.207 207.111 161.798 207.516C161.611 207.57 161.424 207.594 161.245 207.594L161.26 207.578ZM141.952 132.708C146.54 136.158 149.57 143.191 150.964 153.627C151.47 157.389 151.906 161.533 152.373 165.918C153.511 176.627 154.796 188.761 157.475 199.501C157.903 201.308 158.791 202.967 160.061 204.307C160.723 204.992 161.097 205.179 161.221 205.226C161.86 204.875 163.293 202.656 164.298 200.436C164.461 200.07 164.812 199.813 165.209 199.758C165.614 199.704 166.011 199.867 166.268 200.179L169.352 203.972C169.399 204.027 169.454 204.073 169.524 204.097C169.586 204.128 169.664 204.136 169.734 204.136C169.812 204.136 169.882 204.112 169.936 204.081C170.007 204.042 170.061 203.988 170.1 203.933L173.465 199.011C173.683 198.691 174.041 198.504 174.423 198.504C174.804 198.504 175.162 198.691 175.381 199.011L178.247 203.154C178.278 203.201 178.317 203.24 178.364 203.263C178.41 203.287 178.465 203.302 178.512 203.302C178.558 203.302 178.621 203.302 178.675 203.271C178.722 203.248 178.761 203.217 178.8 203.178L182.25 198.933C182.46 198.676 182.772 198.512 183.107 198.504C183.442 198.489 183.769 198.621 183.995 198.863L187.312 202.329C187.312 202.329 187.351 202.352 187.406 202.36C187.453 202.368 187.507 202.368 187.554 202.36C187.601 202.344 187.647 202.313 187.686 202.274C187.694 202.259 187.71 202.243 187.717 202.227V202.204C188.122 199.416 188.084 196.604 187.608 193.831C186.728 188.675 185.988 183.122 185.21 177.25C182.842 159.329 180.155 139.016 172.709 133.362C171.027 132.084 169.173 131.609 167.062 131.905C167.024 131.905 166.977 131.913 166.938 131.913L141.945 132.708H141.952Z" fill="#000927"/>
<path d="M152.132 139.195C151.509 139.195 150.987 138.705 150.964 138.074C150.94 137.427 151.439 136.882 152.085 136.859L170.762 136.127C171.408 136.103 171.954 136.602 171.977 137.248C172 137.895 171.502 138.44 170.855 138.463L152.179 139.195C152.179 139.195 152.148 139.195 152.132 139.195Z" fill="#000927"/>
<path d="M153.814 143.035C153.191 143.035 152.669 142.544 152.646 141.913C152.623 141.267 153.121 140.722 153.768 140.698L172.444 139.974C173.13 139.943 173.636 140.449 173.659 141.096C173.683 141.742 173.184 142.287 172.538 142.311L153.861 143.035C153.861 143.035 153.83 143.035 153.814 143.035Z" fill="#000927"/>
<path d="M157.28 154.5C156.657 154.5 156.135 154.009 156.112 153.378C156.089 152.732 156.587 152.187 157.233 152.163L175.91 151.439C176.58 151.408 177.102 151.914 177.125 152.56C177.149 153.207 176.65 153.752 176.004 153.775L157.327 154.5C157.327 154.5 157.296 154.5 157.28 154.5Z" fill="#000927"/>
<path d="M157.561 158.908C156.938 158.908 156.416 158.417 156.392 157.786C156.369 157.14 156.867 156.595 157.514 156.571L176.198 155.847C176.876 155.816 177.39 156.322 177.413 156.969C177.437 157.615 176.938 158.16 176.292 158.184L157.607 158.908C157.607 158.908 157.576 158.908 157.561 158.908Z" fill="#000927"/>
<path d="M159.749 172.257C159.126 172.257 158.604 171.767 158.581 171.136C158.558 170.489 159.056 169.944 159.702 169.921L178.379 169.189C179.018 169.165 179.571 169.664 179.594 170.31C179.618 170.957 179.119 171.502 178.473 171.525L159.796 172.257C159.796 172.257 159.765 172.257 159.749 172.257Z" fill="#000927"/>
<path d="M160.473 177.11C159.85 177.11 159.329 176.619 159.305 175.988C159.282 175.342 159.78 174.796 160.427 174.773L179.103 174.049C179.789 174.018 180.295 174.524 180.318 175.17C180.342 175.817 179.843 176.362 179.197 176.385L160.52 177.11C160.52 177.11 160.489 177.11 160.473 177.11Z" fill="#000927"/>
<path d="M161.899 189.945C161.276 189.945 160.754 189.454 160.73 188.823C160.707 188.177 161.206 187.632 161.852 187.608L180.537 186.876C181.214 186.853 181.728 187.351 181.752 187.998C181.775 188.644 181.276 189.189 180.63 189.213L161.945 189.945C161.945 189.945 161.914 189.945 161.899 189.945Z" fill="#000927"/>
</g>
<defs>
<clipPath id="clip0_941_19603">
<rect width="200.163" height="204.922" fill="white" transform="translate(21.8077 18.6923)"/>
</clipPath>
</defs>
</svg>
