<svg width="243" height="243" viewBox="0 0 243 243" fill="none" xmlns="http://www.w3.org/2000/svg">
<g clip-path="url(#clip0_2_31)">
<path d="M98.5562 113.137H126.1L127.285 122.655L116.349 133.422L100.737 128.128L92.2023 119.219V112.664L98.5562 113.137Z" fill="white"/>
<path d="M183.82 139.189L160.879 143.465C160.879 143.465 133.377 151.512 124.129 144.862L127.337 122.655C154.231 124.157 183.82 138.685 183.82 138.685" fill="#7FB1FC"/>
<path d="M183.82 139.189L160.879 143.465C160.879 143.465 133.377 151.512 124.129 144.862L127.337 122.655C154.231 124.157 183.82 138.685 183.82 138.685" stroke="#000927" stroke-width="2.35583" stroke-linecap="round" stroke-linejoin="round"/>
<path d="M33.8848 169.328C33.8848 169.328 49.7696 108.578 78.4985 105.752C84.433 109.208 85.775 112.055 92.1918 114.398C101.565 117.833 110.551 140.019 123.164 122.423L127.306 122.655L120.732 182.806C120.732 182.806 99.4894 222.032 33.8848 169.328Z" fill="#7FB1FC" stroke="#000927" stroke-width="2.35583" stroke-linecap="round" stroke-linejoin="round"/>
<path d="M43.9189 167.668C43.6019 167.668 43.2858 167.699 42.9753 167.763C38.8524 166.635 34.4696 166.943 30.544 168.636C26.6184 170.329 23.3825 173.306 21.3658 177.082C19.349 180.857 18.6709 185.206 19.4423 189.418C20.2137 193.629 22.3889 197.454 25.6121 200.265V200.265C25.6121 200.265 38.1941 219.174 97.8642 207.619V190.548C97.8642 190.548 54.7604 167.658 43.9189 167.668Z" fill="#F2F7FF" stroke="#000927" stroke-width="2.35583" stroke-linecap="round" stroke-linejoin="round"/>
<path d="M109.691 211.17C103.286 209.92 96.9787 208.21 90.8184 206.054C88.7035 205.306 86.8961 203.876 85.6798 201.988C84.4635 200.1 83.9069 197.861 84.0974 195.622L86.0686 173.121C86.2016 171.548 86.6477 170.019 87.3807 168.622C88.1136 167.226 89.1185 165.991 90.336 164.99C93.4458 162.608 96.9192 160.746 100.622 159.475C116.695 153.434 149.031 140.019 186.001 142.099C186.001 142.099 200.198 143.959 204.654 146.522" fill="#F2F7FF"/>
<path d="M109.691 211.17C103.286 209.92 96.9787 208.21 90.8184 206.054C88.7035 205.306 86.8961 203.876 85.6798 201.988C84.4635 200.1 83.9069 197.861 84.0974 195.622L86.0686 173.121C86.2016 171.548 86.6477 170.019 87.3807 168.622C88.1136 167.226 89.1185 165.991 90.336 164.99C93.4458 162.608 96.9192 160.746 100.622 159.475C116.695 153.434 149.031 140.019 186.001 142.099C186.001 142.099 200.198 143.959 204.654 146.522" stroke="#000927" stroke-width="2.35583" stroke-linecap="round" stroke-linejoin="round"/>
<path d="M86.5928 167.742L101.618 170.127" stroke="#000927" stroke-width="2.35583" stroke-linecap="round" stroke-linejoin="round"/>
<path d="M165.325 148.833C161.529 148.833 161.215 150.84 163.049 154.275C164.884 157.71 168.407 156.155 175.265 154.569C182.122 152.983 182.793 138.811 182.793 138.811C182.793 138.811 171.259 129.042 163.312 140.271C163.312 140.271 163.637 148.108 166.635 150.44" fill="#F2F7FF"/>
<path d="M165.325 148.833C161.529 148.833 161.215 150.84 163.049 154.275C164.884 157.71 168.407 156.155 175.265 154.569C182.122 152.983 182.793 138.811 182.793 138.811C182.793 138.811 171.259 129.042 163.312 140.271C163.312 140.271 163.637 148.108 166.635 150.44" stroke="#000927" stroke-width="2.35583" stroke-linecap="round" stroke-linejoin="round"/>
<path d="M165.723 156.26C165.723 156.26 172.297 155.315 172.381 149.232Z" fill="#F2F7FF"/>
<path d="M165.723 156.26C165.723 156.26 172.297 155.315 172.381 149.232" stroke="#000927" stroke-width="2.35583" stroke-linecap="round" stroke-linejoin="round"/>
<path d="M171.029 154.621C171.029 154.621 177.602 153.676 177.676 147.593Z" fill="#F2F7FF"/>
<path d="M171.029 154.621C171.029 154.621 177.602 153.676 177.676 147.593" stroke="#000927" stroke-width="2.35583" stroke-linecap="round" stroke-linejoin="round"/>
<path d="M105.309 209.783C103.195 209.038 101.388 207.61 100.173 205.724C98.9578 203.837 98.4038 201.599 98.5981 199.362L100.559 176.86C100.695 175.288 101.143 173.758 101.878 172.362C102.613 170.966 103.619 169.731 104.837 168.73C107.94 166.344 111.411 164.481 115.112 163.214C131.185 157.174 163.521 143.759 200.502 145.829C200.502 145.829 217.561 145.608 219.605 167.385C221.702 189.445 226.945 206.4 218.169 212.483C216.826 213.375 215.27 213.894 213.66 213.985C201.519 214.931 133.083 219.679 105.309 209.783Z" fill="#F2F7FF" stroke="#000927" stroke-width="2.35583" stroke-linecap="round" stroke-linejoin="round"/>
<path d="M138.578 185.653L145.456 159.811L145.948 159.947C147.897 159.69 149.726 158.862 151.207 157.568C152.687 156.273 153.754 154.57 154.272 152.67C154.79 150.771 154.738 148.761 154.121 146.892C153.504 145.022 152.349 143.377 150.803 142.162C150.829 142.256 150.85 142.35 150.866 142.446C150.866 142.446 146.536 145.282 148.916 149.463C149.796 151.029 147.521 155.525 144.827 155.01L141.566 154.138C138.976 153.245 139.238 148.203 140.779 147.289C144.973 144.852 142.572 140.229 142.572 140.229C142.572 140.229 142.709 140.093 142.782 140.019C140.831 140.293 139.004 141.141 137.533 142.454C136.062 143.767 135.012 145.488 134.516 147.399C134.02 149.31 134.1 151.325 134.747 153.19C135.393 155.055 136.577 156.686 138.148 157.878L130.41 183.468C128.591 183.942 126.98 185.006 125.828 186.493C124.676 187.98 124.047 189.808 124.04 191.691C124.033 193.573 124.648 195.406 125.789 196.902C126.929 198.398 128.532 199.474 130.347 199.962C132.162 200.45 134.087 200.322 135.822 199.6C137.557 198.877 139.005 197.599 139.94 195.966C140.875 194.333 141.244 192.436 140.99 190.57C140.736 188.705 139.873 186.976 138.536 185.653H138.578ZM131.647 195.255C130.944 195.066 130.313 194.673 129.833 194.125C129.353 193.578 129.046 192.9 128.95 192.177C128.855 191.454 128.975 190.719 129.296 190.065C129.617 189.411 130.125 188.867 130.754 188.502C131.384 188.137 132.107 187.967 132.833 188.013C133.559 188.06 134.256 188.321 134.834 188.763C135.412 189.206 135.846 189.811 136.081 190.5C136.316 191.19 136.342 191.934 136.155 192.639C136.031 193.107 135.816 193.547 135.522 193.932C135.228 194.317 134.862 194.641 134.443 194.884C134.024 195.127 133.561 195.284 133.082 195.348C132.602 195.412 132.114 195.38 131.647 195.255V195.255Z" fill="#7FB1FC" stroke="#000927" stroke-width="2.35583" stroke-linecap="round" stroke-linejoin="round"/>
<path d="M121.812 181.188C121.812 181.188 135.442 188.542 138.043 184.109C140.643 179.676 135.547 180.317 135.547 180.317C135.547 180.317 143.002 184.865 144.68 179.76C146.357 174.654 135.18 172.406 135.18 172.406L144.617 175.81C145.021 175.957 145.459 175.986 145.879 175.892C146.299 175.799 146.683 175.588 146.988 175.284C147.293 174.98 147.505 174.595 147.599 174.175C147.693 173.755 147.666 173.316 147.521 172.911C145.686 168.456 135.82 165.284 135.82 165.284C139.783 158.119 120.396 164.317 120.396 164.317" fill="#F2F7FF"/>
<path d="M121.812 181.188C121.812 181.188 135.442 188.542 138.043 184.109C140.643 179.676 135.547 180.317 135.547 180.317C135.547 180.317 143.002 184.865 144.68 179.76C146.357 174.654 135.18 172.406 135.18 172.406L144.617 175.81C145.021 175.957 145.459 175.986 145.879 175.892C146.299 175.799 146.683 175.588 146.988 175.284C147.293 174.98 147.505 174.595 147.599 174.175C147.693 173.755 147.666 173.316 147.521 172.911C145.686 168.456 135.82 165.284 135.82 165.284C139.783 158.119 120.396 164.317 120.396 164.317" stroke="#000927" stroke-width="2.35583" stroke-linecap="round" stroke-linejoin="round"/>
<path d="M65.5285 112.276C66.4121 110.953 67.5474 109.819 68.8695 108.937C70.1916 108.055 71.6744 107.443 73.2329 107.137C74.7915 106.83 76.3951 106.835 77.9518 107.151C79.5085 107.467 80.9877 108.087 82.3045 108.977C84.6765 110.48 86.4664 112.747 87.3792 115.406V115.406C90.9861 124.146 93.3976 147.646 93.3976 147.646C99.6886 147.52 124.171 160.021 124.171 160.021C130.462 171.104 120.764 182.806 120.764 182.806C120.764 182.806 90.4618 180.443 73.5809 160.987C67.2899 153.697 61.9636 130.649 62.6137 121.678C61.9426 118.558 63.6098 115.122 65.5285 112.276Z" fill="#7FB1FC" stroke="#000927" stroke-width="2.35583" stroke-linecap="round" stroke-linejoin="round"/>
<path d="M209.162 179.056L211.008 172.564L207.862 171.356C207.866 170.295 207.746 169.237 207.506 168.204L210.337 166.292L207.055 160.399L203.909 161.807C203.16 161.055 202.326 160.392 201.425 159.832L202.074 156.481L195.595 154.621L194.389 157.825C193.33 157.822 192.275 157.941 191.244 158.182L189.346 155.346L183.453 158.634L184.858 161.786C184.105 162.538 183.444 163.378 182.887 164.286L179.542 163.624L177.686 170.116L180.884 171.324C180.879 172.386 181.002 173.444 181.251 174.476L178.41 176.388L181.692 182.281L184.837 180.873C185.591 181.625 186.428 182.288 187.333 182.848L186.672 186.21L193.152 188.059L194.358 184.855C195.416 184.857 196.472 184.737 197.503 184.498L199.401 187.334L205.283 184.046L203.878 180.894C204.634 180.144 205.296 179.305 205.849 178.394L209.162 179.056ZM193.026 175.957C192.11 175.696 191.293 175.169 190.676 174.443C190.059 173.716 189.671 172.823 189.561 171.876C189.451 170.929 189.624 169.97 190.058 169.121C190.492 168.272 191.168 167.571 191.999 167.107C192.83 166.643 193.781 166.436 194.729 166.513C195.678 166.59 196.583 166.946 197.329 167.538C198.075 168.13 198.63 168.931 198.922 169.838C199.214 170.746 199.231 171.72 198.971 172.637C198.622 173.867 197.8 174.908 196.685 175.531C195.57 176.153 194.254 176.307 193.026 175.957V175.957Z" fill="#7FB1FC" stroke="#000927" stroke-width="2.35583" stroke-linecap="round" stroke-linejoin="round"/>
<path d="M207.799 206.337C210.886 206.337 213.388 203.831 213.388 200.738C213.388 197.646 210.886 195.139 207.799 195.139C204.713 195.139 202.211 197.646 202.211 200.738C202.211 203.831 204.713 206.337 207.799 206.337Z" fill="#7FB1FC" stroke="#000927" stroke-width="2.35583" stroke-linecap="round" stroke-linejoin="round"/>
<path d="M84.9257 42.4803L75.2481 76.0648L69.366 76.9683L66.2834 77.1574L60.999 83.2293L62.362 94.6167L66.0317 100.268L73.7802 104.744L83.6151 108.399L101.817 117.444L114.105 120.995L129.235 120.774L142.415 117.77L148.003 112.969L151.076 108.221L157.283 100.783L159.998 91.3916L157.807 84.847L151.17 80.624L157.325 61.2423L154.934 51.0734L134.237 49.0355L84.9257 42.4803Z" fill="white"/>
<path d="M158.352 47.1866C158.352 47.1866 168.187 58.2798 152.973 80.3509C152.973 80.3509 156.37 60.0237 152.344 53.9203C152.344 53.9203 138.462 65.8014 116.852 51.8193" stroke="#000927" stroke-width="2.35583" stroke-linecap="round" stroke-linejoin="round"/>
<path d="M110.425 44.3502C110.425 44.3502 116.936 49.8654 116.643 54.7397C116.643 54.7397 111.547 50.275 105.833 51.8928C100.119 53.5106 91.9087 56.4415 85.5234 48.9829C85.5234 48.9829 89.3923 53.6051 84.8943 59.572C80.3962 65.5388 77.4394 74.1634 77.387 79.2899" stroke="#000927" stroke-width="2.35583" stroke-linecap="round" stroke-linejoin="round"/>
<path d="M161.686 54.9603C166.216 36.503 145.414 34.9272 145.414 34.9272C146.725 35.0306 148.043 34.8619 149.286 34.4317C150.529 34.0015 151.67 33.3191 152.638 32.427C152.638 32.427 141.104 33.6982 133.429 31.282C125.762 28.7855 117.837 27.1679 109.807 26.4602C102.761 26.0505 92.3806 28.3616 89.8852 29.6852" stroke="#000927" stroke-width="2.35583" stroke-linecap="round" stroke-linejoin="round"/>
<path d="M65.7802 76.7056C65.7802 76.7056 54.8233 44.6653 76.3595 39.3498C76.3595 39.3498 79.2743 26.2501 92.2023 28.7607" stroke="#000927" stroke-width="2.35583" stroke-linecap="round" stroke-linejoin="round"/>
<path d="M78.5823 105.069C103.453 121.699 121.33 124.651 140.507 117.969C159.684 111.288 152.973 80.3404 152.973 80.3404" stroke="#000927" stroke-width="2.35583" stroke-linecap="round" stroke-linejoin="round"/>
<path d="M153.55 83.807C153.55 83.807 159.841 81.4854 160.072 88.8389C160.302 96.1924 156.213 105.405 152.281 105.206" stroke="#000927" stroke-width="2.35583" stroke-linecap="round" stroke-linejoin="round"/>
<path d="M128.543 80.2669C128.543 80.2669 132.895 88.6708 128.082 89.5743" stroke="#000927" stroke-width="2.35583" stroke-linecap="round" stroke-linejoin="round"/>
<path d="M161.068 41.9761C158.699 38.8754 155.433 36.5826 151.715 35.4105C152.485 35.0214 153.192 34.5186 153.812 33.9188C154.007 33.7182 154.136 33.4625 154.181 33.1863C154.226 32.9101 154.185 32.6267 154.064 32.3745C153.94 32.124 153.744 31.9167 153.501 31.7798C153.257 31.643 152.979 31.583 152.701 31.6077C152.596 31.6077 141.345 32.6582 134.09 30.2735C126.356 27.6334 118.346 25.8922 110.216 25.084C104.203 24.8863 98.194 25.5945 92.391 27.185C80.6269 24.9475 76.4014 34.8327 75.4053 37.8056C73.1232 38.3612 70.98 39.3822 69.1093 40.8046C67.2386 42.2271 65.6805 44.0205 64.5323 46.0731C58.0421 57.6286 63.8718 75.7918 64.1234 76.5376C64.191 76.7484 64.3091 76.9394 64.4673 77.0939C64.6256 77.2484 64.8193 77.3617 65.0314 77.4238C65.2435 77.486 65.4674 77.4953 65.6839 77.4506C65.9003 77.406 66.1026 77.3089 66.2729 77.1679C67.3214 76.8948 72.0501 78.2184 76.4958 80.0673C76.6246 80.1268 76.7632 80.1623 76.9047 80.1723H77.0724C77.1962 80.1615 77.3191 80.1404 77.4394 80.1093L77.5966 80.0357H77.7329L77.9217 79.8887C78.0298 79.7824 78.1185 79.6579 78.1838 79.521C78.1878 79.4896 78.1878 79.4579 78.1838 79.4265C78.2407 79.2928 78.2761 79.151 78.2887 79.0063L78.3726 77.8192C79.3248 71.4014 81.87 65.3258 85.775 60.1498C87.4349 58.1483 88.3272 55.6189 88.2914 53.0169C94.0372 56.5361 100.517 54.7607 105.067 53.5001L106.053 53.2375C110.97 51.9138 115.489 55.8743 115.552 55.9163C115.743 56.0856 115.976 56.1982 116.227 56.2412C116.478 56.2843 116.736 56.2561 116.972 56.1599C117.207 56.0637 117.412 55.9032 117.561 55.6968C117.71 55.4904 117.799 55.2462 117.817 54.9918C117.817 54.7712 117.817 54.5506 117.817 54.3195C128.397 60.7591 137.109 60.9902 142.667 59.9607C145.82 59.3994 148.842 58.2559 151.579 56.5886C152.627 59.4459 152.722 64.2257 152.439 68.911C152.348 69.3175 152.32 69.7355 152.355 70.1505C152.098 73.6998 151.664 77.234 151.055 80.7396C150.999 81.0446 151.049 81.3596 151.195 81.6326C151.342 81.9056 151.577 82.1205 151.862 82.2418C152.001 82.2919 152.145 82.3271 152.292 82.3468C152.527 82.3632 152.762 82.3186 152.975 82.2175C153.188 82.1163 153.372 81.9619 153.508 81.7691C161.298 70.7703 162.944 62.3348 162.525 56.5571C162.627 56.4167 162.705 56.2605 162.756 56.0948C164.297 50.4432 163.699 45.7159 161.068 41.9761Z" fill="#000927"/>
<path d="M81.4027 81.9581C81.4027 81.9581 69.041 72.4301 62.7605 79.6365C56.48 86.8429 64.3961 109.796 81.8116 103.987" stroke="#000927" stroke-width="2.35583" stroke-linecap="round" stroke-linejoin="round"/>
<path d="M72.6792 85.1096C72.6792 85.1096 78.1314 88.9229 77.387 92.3686C77.387 92.3686 73.4341 90.2676 71.3161 93.8393" stroke="#000927" stroke-width="2.35583" stroke-linecap="round" stroke-linejoin="round"/>
<path d="M108.769 78.4285C109.15 78.8946 109.63 79.2701 110.174 79.528C110.718 79.7858 111.312 79.9196 111.914 79.9196C112.516 79.9196 113.11 79.7858 113.654 79.528C114.198 79.2701 114.678 78.8946 115.06 78.4285C115.199 78.2543 115.263 78.032 115.238 77.8104C115.214 77.5888 115.102 77.386 114.928 77.2467C114.755 77.1074 114.533 77.0429 114.312 77.0675C114.09 77.0921 113.888 77.2038 113.749 77.378C113.749 77.378 113.592 77.6406 113.539 77.6406C113.487 77.6406 113.634 77.5461 113.592 77.6406H113.529L113.403 77.7456C113.317 77.8158 113.226 77.879 113.13 77.9347C112.994 78.0187 113.246 77.9347 113.13 77.9347L112.984 78.0082L112.669 78.1343H112.533C112.365 78.1868 112.701 78.1343 112.533 78.1343C112.365 78.1343 112.092 78.1973 111.862 78.2078H111.683L111.379 78.1553H111.212C111.075 78.1553 111.159 78.1553 111.212 78.1553C111.101 78.1357 110.994 78.0966 110.897 78.0398C110.834 78.0398 110.635 77.9557 110.603 77.8927H110.666H110.593L110.425 77.7561C110.373 77.7561 110.184 77.5985 110.174 77.5355C110.163 77.4725 110.278 77.6616 110.174 77.5355L110.048 77.3885C109.983 77.3017 109.901 77.2287 109.808 77.1737C109.714 77.1187 109.611 77.0828 109.504 77.0682C109.397 77.0535 109.288 77.0604 109.183 77.0883C109.078 77.1162 108.98 77.1647 108.894 77.2309C108.724 77.3657 108.613 77.5614 108.583 77.7769C108.554 77.9924 108.609 78.2108 108.737 78.3864L108.769 78.4285Z" fill="#000927"/>
<path d="M136.008 79.9097C136.387 80.3809 136.866 80.7612 137.41 81.0224C137.955 81.2837 138.55 81.4192 139.154 81.4192C139.758 81.4192 140.354 81.2837 140.898 81.0224C141.442 80.7612 141.921 80.3809 142.299 79.9097C142.43 79.732 142.488 79.511 142.46 79.2921C142.433 79.0732 142.323 78.8731 142.153 78.7331C142.067 78.6655 141.969 78.6154 141.865 78.5856C141.76 78.5559 141.651 78.5471 141.542 78.5598C141.434 78.5725 141.33 78.6064 141.235 78.6596C141.14 78.7127 141.056 78.7841 140.989 78.8697C140.989 78.8697 140.821 79.1323 140.779 79.1323V79.0798L140.716 79.1323L140.59 79.2478L140.318 79.4369C140.182 79.521 140.433 79.3844 140.318 79.4369C140.262 79.4527 140.209 79.4775 140.161 79.5105L139.857 79.6261H139.72C139.542 79.6261 139.888 79.6261 139.72 79.6261C139.498 79.6656 139.274 79.6901 139.049 79.6995H138.861H138.556H138.389C138.263 79.6995 138.336 79.6995 138.389 79.6995C138.277 79.6835 138.17 79.6441 138.074 79.584C138.011 79.584 137.802 79.4999 137.77 79.4369H137.833H137.76L137.623 79.3319C137.571 79.3319 137.382 79.1848 137.372 79.1113C137.361 79.0377 137.476 79.2373 137.372 79.1113L137.246 78.9537C137.113 78.7814 136.918 78.6676 136.703 78.6362C136.488 78.6049 136.269 78.6584 136.092 78.7856C135.921 78.9241 135.809 79.1234 135.779 79.3424C135.75 79.5614 135.806 79.7833 135.935 79.9622L136.008 79.9097Z" fill="#000927"/>
</g>
<defs>
<clipPath id="clip0_2_31">
<rect width="206.135" height="192" fill="white" transform="translate(18 25)"/>
</clipPath>
</defs>
</svg>
