<svg width="243" height="243" viewBox="0 0 243 243" fill="none" xmlns="http://www.w3.org/2000/svg">
<path d="M200.571 203.157C200.571 204.138 185.267 204.933 166.389 204.933C147.512 204.933 132.208 204.138 132.208 203.157C132.208 202.176 147.512 201.381 166.389 201.381C185.267 201.381 200.571 202.176 200.571 203.157Z" fill="#CFD8E6"/>
<g clip-path="url(#clip0_941_19407)">
<path d="M128.77 154.649C127.582 152.647 125.839 151.036 123.751 150.011C121.664 148.985 119.323 148.591 117.016 148.876C114.708 149.161 112.534 150.113 110.758 151.615C108.982 153.118 107.681 155.105 107.015 157.336C101.129 172.893 111.939 196.082 111.939 196.082H125.538L130.311 162.71C130.765 159.925 130.219 157.069 128.77 154.649Z" fill="#F2F7FF"/>
<path d="M125.522 196.835H111.923C111.78 196.835 111.639 196.794 111.518 196.717C111.396 196.639 111.3 196.529 111.24 196.398C109.293 191.981 107.717 187.409 106.526 182.73C104.707 175.557 103.189 165.291 106.293 157.072L106.331 156.989C107.064 154.64 108.461 152.553 110.353 150.981C112.245 149.409 114.551 148.42 116.993 148.133C119.435 147.845 121.908 148.272 124.112 149.362C126.317 150.451 128.159 152.157 129.416 154.272C130.935 156.83 131.512 159.839 131.047 162.777C131.051 162.795 131.051 162.813 131.047 162.83L126.274 196.195C126.247 196.374 126.156 196.538 126.018 196.655C125.879 196.773 125.704 196.837 125.522 196.835ZM112.412 195.329H124.868L129.544 162.664C129.544 162.664 129.544 162.612 129.544 162.589C129.983 159.784 129.345 156.916 127.758 154.563C126.171 152.21 123.752 150.547 120.989 149.907C118.225 149.268 115.323 149.701 112.865 151.118C110.408 152.536 108.578 154.833 107.744 157.546C107.726 157.608 107.698 157.667 107.661 157.72C102.489 171.644 110.999 192.093 112.412 195.322V195.329Z" fill="#000927"/>
<path d="M111.924 196.074C111.924 196.074 101.745 201.147 103.196 203.247C104.647 205.347 122.222 202.916 123.951 200.568C124.964 199.281 125.518 197.691 125.522 196.052L111.924 196.074Z" fill="#000927"/>
<path d="M87.8837 59.68C86.6982 60.0371 85.536 60.4669 84.4033 60.967L82.9373 61.5992C82.5464 61.7648 83.2458 61.4712 82.8775 61.5992L82.4939 61.7573C81.7422 62.0583 81.1033 62.3744 80.9079 63.2626L82.2157 61.953L84.0425 62.4422L84.5237 64.2711L83.2155 65.5807C83.4348 65.5172 83.6585 65.4694 83.8846 65.4377C84.1252 65.3775 84.3758 65.3098 84.6364 65.2345C85.1325 65.0764 85.6209 64.8883 86.102 64.7001C86.5831 64.5119 87.0419 64.3464 87.5155 64.2034C87.7561 64.1356 87.9966 64.0679 88.2672 64.0227L88.4401 63.9851C88.1169 64.0528 88.6204 63.9851 88.6805 63.9851L87.0644 61.1552C86.9089 61.5166 86.7227 61.8641 86.508 62.1938L86.3501 62.4422C86.1472 62.7282 86.3051 62.4422 86.3953 62.3895C86.2976 62.3895 86.0872 62.7583 86.0121 62.8335C85.9369 62.9088 85.7412 63.1195 85.5984 63.2475L85.373 63.4432L85.2827 63.5184C85.17 63.6088 85.2228 63.5711 85.4332 63.4056C85.3581 63.4056 85.0274 63.6916 84.9447 63.7367C84.862 63.7819 84.6063 63.94 84.4334 64.0303C84.2605 64.1206 84.0726 64.2109 83.8846 64.2937L83.6666 64.3915C83.2757 64.5646 84.0725 64.2259 83.6666 64.3915C83.2607 64.5571 82.7271 64.7754 82.2685 64.9711C81.4028 65.3332 80.5989 65.8284 79.8856 66.4387C79.5787 66.7635 79.3973 67.1871 79.374 67.6336C79.3506 68.0801 79.4869 68.5203 79.7583 68.8754C80.0297 69.2304 80.4185 69.4772 80.855 69.5713C81.2916 69.6654 81.7475 69.6008 82.1408 69.3891L82.8925 68.9526C83.1057 68.8275 83.292 68.6617 83.4413 68.4645C83.5905 68.2673 83.6996 68.0425 83.7621 67.8031C83.8245 67.5638 83.8391 67.3144 83.8054 67.0693C83.7716 66.8242 83.6898 66.5882 83.5649 66.3748C83.4401 66.1613 83.2745 65.9745 83.0775 65.8251C82.8805 65.6757 82.6563 65.5666 82.4172 65.5041C82.1781 65.4415 81.929 65.4267 81.6842 65.4605C81.4394 65.4943 81.2037 65.5761 80.9905 65.7011L80.2387 66.1452L82.4939 69.0956C82.8021 68.8321 82.2383 69.2611 82.4337 69.1332L82.6818 68.9601C82.8472 68.8547 83.0202 68.7569 83.1931 68.659C83.366 68.5612 83.5839 68.4633 83.7793 68.373L84.0575 68.2451C84.3733 68.1096 83.7718 68.358 83.9973 68.2451C84.8852 67.9166 85.7492 67.5268 86.5832 67.0785C88.1977 66.1469 89.4786 64.7302 90.2442 63.0292C90.4047 62.7377 90.489 62.4101 90.489 62.0771C90.489 61.7442 90.4047 61.4166 90.2442 61.125C90.0792 60.8404 89.8421 60.6044 89.557 60.4406C89.272 60.2767 88.949 60.1909 88.6203 60.1918C87.3389 60.3062 86.0835 60.6211 84.8995 61.125C84.3583 61.3282 83.8094 61.539 83.2456 61.697C82.9675 61.7798 82.6817 61.8325 82.4036 61.8927C82.0475 61.9596 81.7174 62.1257 81.4515 62.3721C81.1855 62.6184 80.9944 62.9349 80.9002 63.2851C80.8115 63.6071 80.8103 63.9469 80.8961 64.2697C80.982 64.5924 81.1522 64.8864 81.3891 65.1216C81.6232 65.3575 81.9153 65.527 82.2362 65.613C82.5571 65.6989 82.895 65.6982 83.2155 65.6108C83.5425 65.5126 83.8393 65.3324 84.0774 65.0875C84.3154 64.8425 84.487 64.5408 84.5762 64.2109L83.2607 65.528L84.9895 64.7754L85.7412 64.4518L86.0422 64.3238L86.2374 64.241L86.3802 64.1808L86.7487 64.0303L87.4326 63.7744C87.9212 63.5937 88.4248 63.4281 88.936 63.2851C89.4165 63.1524 89.8249 62.834 90.0709 62.3999C90.3169 61.9659 90.3804 61.4518 90.2478 60.9708C90.1153 60.4897 89.7975 60.081 89.364 59.8347C88.9305 59.5884 88.417 59.5246 87.9365 59.6574L87.8837 59.68Z" fill="#F2F7FF"/>
<path d="M136.986 165.178C136.986 165.178 152.088 192.725 168.242 184.265C168.242 184.265 179.037 179.245 156.08 143.291C156.08 143.291 147.285 165.524 136.986 165.178Z" fill="#F2F7FF"/>
<path d="M161.913 187.005C156.726 187.005 151.246 184.213 145.759 178.726C141.969 174.83 138.685 170.47 135.986 165.75C135.887 165.579 135.834 165.384 135.834 165.186C135.834 164.987 135.887 164.793 135.986 164.621C136.091 164.451 136.238 164.311 136.414 164.216C136.589 164.121 136.787 164.074 136.986 164.079H137.181C144.902 164.079 152.644 148.823 154.99 142.9C155.066 142.705 155.195 142.536 155.363 142.411C155.53 142.286 155.729 142.21 155.937 142.193C156.143 142.171 156.35 142.207 156.536 142.298C156.722 142.388 156.879 142.529 156.989 142.704C171.573 165.547 172.873 176.4 171.4 181.481C170.558 184.371 168.874 185.244 168.686 185.312C166.6 186.42 164.275 187.001 161.913 187.005ZM138.903 166.149C142.308 171.659 154.892 190.001 167.754 183.264C167.814 183.264 168.821 182.67 169.363 180.608C170.332 176.844 169.866 167.414 156.305 145.715C153.937 150.931 147.172 164.493 138.903 166.149Z" fill="#000927"/>
<path d="M143.864 91.3738C143.864 91.3738 123.463 90.6664 111.54 123.85C99.618 157.035 105.94 162.326 130.378 164.968C154.817 167.609 159.304 149.915 153.757 136.683C148.209 123.452 157.478 116.128 155.884 110.807C154.29 105.486 157.192 91.005 143.864 91.3738Z" fill="#7FB1FC"/>
<path d="M135.092 166.36C133.48 166.357 131.868 166.267 130.266 166.089C118.419 164.809 110.345 162.853 106.73 157.057C102.971 151.036 104.076 141.342 110.488 123.467C122.403 90.29 142.556 90.2148 143.864 90.2449C155.14 89.9438 155.892 99.5401 156.373 105.885C156.427 107.433 156.628 108.973 156.974 110.484C157.674 112.824 156.689 115.293 155.554 118.145C153.742 122.661 151.494 128.336 154.802 136.247C158.2 144.345 157.658 152.948 153.381 158.69C150.675 162.341 145.353 166.36 135.092 166.36ZM143.797 92.5028C142.872 92.5028 123.846 92.9394 112.615 124.234C106.541 141.146 105.354 150.577 108.639 155.845C111.781 160.866 119.336 162.619 130.506 163.831C140.331 164.9 147.623 162.649 151.555 157.328C155.358 152.225 155.794 144.473 152.705 137.105C149.029 128.344 151.577 121.954 153.456 117.295C154.479 114.728 155.291 112.704 154.81 111.116C154.415 109.452 154.186 107.752 154.125 106.043C153.539 98.2154 152.389 92.277 143.895 92.4953H143.797V92.5028Z" fill="#000927"/>
<path d="M167.551 164.584C167.551 164.584 174.632 154.129 177.143 155.454C179.654 156.779 190.674 164.177 168.242 184.265C168.22 184.265 170.776 173.164 167.551 164.584Z" fill="#F2F7FF"/>
<path d="M168.22 185.372C168.019 185.371 167.822 185.316 167.649 185.214C167.443 185.093 167.281 184.91 167.186 184.69C167.091 184.471 167.069 184.227 167.123 183.994C167.123 183.889 169.536 173.111 166.476 164.96C166.414 164.791 166.392 164.609 166.413 164.43C166.434 164.251 166.496 164.079 166.596 163.929C169.453 159.714 174.685 152.873 177.647 154.431C179.098 155.171 180.35 156.251 181.295 157.58C182.24 158.909 182.85 160.447 183.074 162.062C183.826 168.264 179.09 176.009 168.972 185.086C168.765 185.27 168.497 185.372 168.22 185.372ZM168.784 164.727C170.798 170.552 170.4 177.243 169.889 181.157C179.616 171.802 181.262 165.795 180.834 162.341C180.653 161.086 180.174 159.894 179.436 158.864C178.698 157.835 177.723 156.998 176.594 156.425H176.549C175.504 156.448 171.896 160.294 168.806 164.749L168.784 164.727Z" fill="#000927"/>
<path d="M175.467 155.334C175.467 155.334 178.564 150.366 183.45 155.454C187.02 159.172 182.593 166.059 182.593 166.059C182.593 166.059 180.36 157.712 175.467 155.334Z" fill="#000927"/>
<path d="M184.577 161.34C184.577 161.34 185.036 170.928 183.45 170.928C181.864 170.928 180.902 168.55 180.902 168.55L182.044 158.179L184.577 161.34Z" fill="#000927"/>
<path d="M97.1751 59.6801C97.1751 59.6801 121.335 70.7741 137.016 92.8491C137.016 92.8491 126.657 96.0103 120.764 105.99C120.764 105.99 107.902 84.1636 103.144 80.9272C91.7852 73.2803 90.1238 66.7549 92.1084 63.353C92.6196 62.3963 93.3415 61.5685 94.2193 60.9322C95.097 60.2959 96.1078 59.8677 97.1751 59.6801Z" fill="#7FB1FC"/>
<path d="M120.734 107.097C120.538 107.098 120.345 107.047 120.174 106.949C120.004 106.851 119.862 106.71 119.764 106.54C116.216 100.519 106.233 84.3517 102.475 81.8454C90.5599 73.8147 88.7858 66.7247 91.0936 62.7658C91.6971 61.6483 92.5494 60.685 93.5844 59.9502C94.6194 59.2154 95.8093 58.7289 97.0622 58.5284C97.2578 58.5116 97.4547 58.5453 97.6337 58.6262C97.8817 58.7391 122.252 70.1041 137.903 92.1792C138.006 92.3252 138.073 92.4936 138.098 92.6705C138.123 92.8474 138.106 93.0277 138.048 93.1967C137.99 93.3657 137.893 93.5185 137.765 93.6426C137.636 93.7666 137.48 93.8584 137.309 93.9103C137.212 93.9103 127.289 97.0789 121.696 106.547C121.596 106.713 121.455 106.851 121.286 106.947C121.118 107.044 120.928 107.095 120.734 107.097ZM97.0097 60.824C96.1728 61.0353 95.3886 61.4179 94.7068 61.9477C94.025 62.4775 93.4602 63.143 93.0481 63.9023C91.3417 66.8376 93.1082 72.8061 103.745 79.9713C107.932 82.7937 117.675 98.6745 120.764 103.815C124.371 98.6618 129.384 94.6584 135.205 92.2846C120.862 72.791 99.8136 62.1637 97.0097 60.8165V60.824Z" fill="#000927"/>
<path d="M88.6732 60.4326C87.0504 60.8091 85.4555 61.297 83.8997 61.8928C81.7798 62.7432 81.6445 61.6444 83.8997 59.6724C86.1548 57.7005 91.364 58.0091 91.364 58.0091C90.056 55.7512 91.6049 51.2353 93.4166 51.8073C95.2282 52.3793 95.7466 60.1617 95.7466 60.1617C95.7466 60.1617 90.9206 61.4638 91.4995 67.5451C91.4995 67.5451 85.3352 70.1116 83.5011 72.648C83.2554 73.0154 82.8995 73.2951 82.4847 73.4466C82.0699 73.5981 81.6176 73.6136 81.1934 73.491C80.4417 73.2351 79.893 72.5728 80.8777 70.9471C82.8397 67.6956 85.3881 67.5451 85.3881 67.5451" fill="#F2F7FF"/>
<path d="M81.7721 74.3113C81.4963 74.3136 81.2219 74.2704 80.9602 74.1834C80.6767 74.1086 80.4146 73.9681 80.1953 73.7733C79.9759 73.5785 79.8056 73.3349 79.6975 73.062C79.5934 72.6272 79.5869 72.1746 79.6792 71.7372C79.7715 71.2998 79.9603 70.8884 80.2312 70.533C82.3736 66.9881 85.2074 66.7698 85.3277 66.7698C85.5271 66.7588 85.7226 66.8276 85.8713 66.961C86.0201 67.0944 86.11 67.2814 86.1209 67.4811C86.1319 67.6807 86.0629 67.8765 85.9297 68.0254C85.7965 68.1743 85.6097 68.2641 85.4103 68.2751C85.3351 68.2751 83.2306 68.4783 81.5166 71.2857C81.013 72.1286 81.0881 72.4523 81.1107 72.5125C81.1332 72.5727 81.3284 72.6931 81.4337 72.7233C81.7052 72.793 81.9919 72.776 82.2533 72.6748C82.5148 72.5736 82.7383 72.3932 82.8923 72.1588C84.5311 69.9008 89.1691 67.6956 90.7102 67.0107C90.4846 62.1335 93.6117 60.2369 94.9573 59.6046C94.6641 56.0221 93.8448 52.6878 93.1833 52.4695C92.9653 52.3867 92.717 52.6201 92.5516 52.8233C91.6872 53.8845 91.2664 56.2855 92.0106 57.58C92.0766 57.6944 92.1112 57.8242 92.1112 57.9563C92.1112 58.0885 92.0766 58.2183 92.0106 58.3327C91.939 58.4479 91.8378 58.5416 91.7173 58.6039C91.5969 58.6662 91.4617 58.6946 91.3264 58.6864C89.9583 58.6036 86.0646 58.6864 84.3958 60.1917C84.0144 60.5111 83.6644 60.8665 83.3508 61.2529L83.6213 61.1476C85.2156 60.5398 86.8478 60.037 88.5075 59.6423C88.6042 59.6201 88.7044 59.6173 88.8022 59.634C88.9001 59.6508 88.9936 59.6868 89.0775 59.74C89.1614 59.7932 89.2342 59.8625 89.2911 59.9439C89.3481 60.0253 89.3884 60.1172 89.4097 60.2143C89.4524 60.4078 89.4172 60.6104 89.3117 60.7781C89.2061 60.9458 89.0387 61.0651 88.8459 61.1099C87.2638 61.4846 85.7069 61.9597 84.1851 62.5324C82.9072 63.0517 82.0577 62.984 81.6668 62.3442C81.1932 61.5916 81.7647 60.4852 83.411 59.0476C85.2151 57.4821 88.5299 57.2112 90.2814 57.1886C90.0908 56.274 90.0914 55.3298 90.2829 54.4153C90.4744 53.5009 90.8525 52.636 91.394 51.875C91.6343 51.5159 91.982 51.2419 92.3868 51.0919C92.7917 50.9419 93.2332 50.9236 93.6491 51.0395C95.7164 51.732 96.3255 57.58 96.4908 60.0713C96.4971 60.2402 96.4461 60.4063 96.3466 60.5428C96.247 60.6794 96.1047 60.7784 95.9421 60.8239C95.7692 60.8766 91.7325 62.0733 92.2437 67.4096C92.256 67.5674 92.2181 67.725 92.1358 67.8601C92.0535 67.9953 91.9306 68.101 91.7849 68.1622C91.7247 68.1622 85.7713 70.676 84.1025 73.0168C83.8452 73.4028 83.4992 73.7218 83.0939 73.9469C82.6885 74.1721 82.2354 74.297 81.7721 74.3113Z" fill="#000927"/>
<path d="M81.3289 65.9721C81.0428 65.9809 80.7574 65.9375 80.4869 65.8441C80.3037 65.7844 80.1354 65.6865 79.9928 65.5568C79.8503 65.427 79.7366 65.2684 79.6599 65.0915C79.5614 64.8873 79.5101 64.6635 79.5101 64.4367C79.5101 64.2099 79.5614 63.9861 79.6599 63.7819C80.2913 62.3293 83.1026 61.3283 83.6589 61.1401C83.7546 61.0985 83.8582 61.0773 83.9625 61.0778C84.0667 61.0783 84.1697 61.1005 84.2649 61.143C84.3602 61.1856 84.4455 61.2475 84.5156 61.3249C84.5857 61.4022 84.639 61.4933 84.672 61.5924C84.7049 61.6915 84.7169 61.7963 84.7072 61.9003C84.6975 62.0043 84.6661 62.1051 84.6154 62.1963C84.5647 62.2876 84.4956 62.3673 84.4125 62.4303C84.3293 62.4934 84.2342 62.5384 84.1328 62.5626C83.0428 62.9314 81.3062 63.7593 81.0356 64.384V64.4292C81.6595 64.6775 84.4032 63.8421 86.9139 62.6303C87.0934 62.545 87.2995 62.5344 87.4869 62.6007C87.6742 62.6669 87.8276 62.8048 87.9138 62.9841C87.9574 63.073 87.9831 63.1697 87.9894 63.2685C87.9956 63.3674 87.9822 63.4665 87.9501 63.5602C87.918 63.6539 87.8677 63.7404 87.8022 63.8146C87.7366 63.8888 87.657 63.9493 87.568 63.9926C86.493 64.5119 83.2758 65.9721 81.3289 65.9721Z" fill="#000927"/>
<path d="M79.8328 69.9462C79.5468 69.9537 79.2617 69.9103 78.9908 69.8182C78.8089 69.756 78.6419 69.6571 78.4997 69.5277C78.3575 69.3982 78.2433 69.2409 78.1642 69.0655C78.091 68.8943 78.053 68.7099 78.053 68.5237C78.053 68.3374 78.091 68.153 78.1642 67.9818C78.8257 66.2507 83.2233 64.2185 84.5538 63.6315C84.645 63.5857 84.7445 63.5589 84.8463 63.5529C84.9482 63.5469 85.0503 63.5617 85.1462 63.5965C85.2422 63.6312 85.3302 63.6851 85.4046 63.755C85.4791 63.8248 85.5385 63.9092 85.5793 64.0028C85.6202 64.0964 85.6418 64.1974 85.6425 64.2995C85.6431 64.4017 85.6227 64.503 85.583 64.5971C85.5433 64.6912 85.4848 64.7762 85.4112 64.847C85.3376 64.9178 85.2506 64.9729 85.155 65.0088C82.4639 66.1905 79.9833 67.7259 79.6074 68.4258C80.3592 68.5989 82.9826 67.7785 85.4182 66.6044C85.5986 66.5186 85.8055 66.508 85.9938 66.5751C86.182 66.6421 86.336 66.7813 86.4217 66.9619C86.5075 67.1426 86.5181 67.3499 86.4511 67.5383C86.3841 67.7268 86.245 67.8809 86.0646 67.9667C85.0047 68.486 81.7722 69.9462 79.8328 69.9462Z" fill="#000927"/>
<path d="M172.475 52.3417L169.814 77.3521L173.49 79.5423L175.497 80.5207L177.368 86L173.369 93.2103L169.4 95.9725L163.018 96.8456L155.471 96.6048L140.887 97.681L131.732 96.7026L121.711 92.4426L113.743 86.8505L111.322 82.1389L110.563 78.1424L108.436 71.489L109.18 64.4969L112.412 60.7412L117.983 59.7327L119.14 45.1464L123.485 39.0274L137.836 43.3024L172.475 52.3417Z" fill="white"/>
<path d="M116.848 59.8154C116.673 59.8193 116.502 59.7621 116.365 59.6535C116.228 59.545 116.133 59.392 116.096 59.2209C111.864 40.0284 121.493 35.0383 121.907 34.8351C122.084 34.7535 122.286 34.7442 122.471 34.8094C122.655 34.8745 122.806 35.0088 122.893 35.184C122.98 35.3591 122.996 35.5613 122.937 35.7476C122.877 35.934 122.748 36.0899 122.576 36.1824C122.47 36.2351 114.728 40.3671 116.945 55.5555C118.208 51.0396 120.772 43.2121 123.996 41.0068C124.084 40.9471 124.184 40.9068 124.289 40.8884C124.394 40.8701 124.501 40.8743 124.604 40.9006C124.707 40.9269 124.803 40.9748 124.887 41.0411C124.97 41.1075 125.038 41.1907 125.087 41.2853C125.32 41.7369 131.1 52.4245 148.503 49.1429C148.601 49.1246 148.703 49.126 148.801 49.1469C148.899 49.1678 148.992 49.2079 149.075 49.2649C149.157 49.3218 149.228 49.3946 149.283 49.4789C149.338 49.5632 149.375 49.6575 149.393 49.7563C149.412 49.8552 149.41 49.9567 149.389 50.055C149.368 50.1533 149.328 50.2465 149.272 50.3293C149.215 50.4121 149.142 50.4829 149.058 50.5376C148.974 50.5924 148.879 50.6299 148.781 50.6482C139.136 52.4696 132.859 50.0536 129.289 47.6979C127.299 46.4074 125.581 44.7405 124.229 42.7906C121.117 45.8614 118.389 55.5856 117.562 59.2585C117.519 59.4164 117.427 59.5562 117.298 59.6567C117.169 59.7572 117.011 59.8129 116.848 59.8154Z" fill="#000927"/>
<path d="M167.468 79.6627C167.373 79.6629 167.279 79.645 167.19 79.61C167.098 79.5735 167.015 79.5192 166.944 79.4502C166.873 79.3813 166.816 79.299 166.777 79.2082C166.738 79.1173 166.717 79.0196 166.716 78.9206C166.714 78.8217 166.732 78.7235 166.769 78.6315C168.009 75.4855 168.468 69.1256 167.085 63.9249C166.791 62.9903 166.685 62.0062 166.776 61.0305C166.866 60.0547 167.15 59.1068 167.611 58.2424C162.68 59.2133 158.786 56.1274 156.05 53.9673L155.478 53.5158C152.471 51.175 148.247 52.575 148.202 52.59C148.069 52.6337 147.927 52.6396 147.791 52.6069C147.655 52.5743 147.532 52.5044 147.433 52.4052C147.335 52.3059 147.266 52.1813 147.234 52.0451C147.203 51.9089 147.21 51.7666 147.254 51.6342C148.487 47.9914 154.433 46.0119 154.689 45.9291C154.784 45.8941 154.885 45.8787 154.986 45.8837C155.087 45.8886 155.186 45.9139 155.277 45.9581C155.368 46.0022 155.449 46.0643 155.515 46.1405C155.582 46.2168 155.632 46.3057 155.664 46.4019C155.695 46.4981 155.706 46.5997 155.698 46.7005C155.689 46.8014 155.66 46.8994 155.613 46.9887C155.565 47.0781 155.5 47.1569 155.422 47.2206C155.343 47.2842 155.252 47.3314 155.155 47.3591C153.93 47.7656 151.021 49.0225 149.495 50.7611C150.692 50.5492 151.92 50.5785 153.106 50.8473C154.293 51.1161 155.413 51.619 156.403 52.3266L156.982 52.7857C160.297 55.4049 164.424 58.6714 169.926 55.8415C170.101 55.7661 170.297 55.7596 170.476 55.8235C170.655 55.8873 170.804 56.0166 170.891 56.1854C170.979 56.3542 170.999 56.55 170.949 56.7333C170.898 56.9167 170.78 57.074 170.618 57.1736C170.49 57.2414 167.341 59.0176 168.543 63.541C170.047 69.2461 169.475 75.8543 168.168 79.1885C168.112 79.3285 168.015 79.4486 167.891 79.5332C167.766 79.6177 167.619 79.6628 167.468 79.6627Z" fill="#000927"/>
<path d="M172.655 43.2347C172.545 43.2358 172.437 43.2128 172.337 43.1672C172.237 43.1217 172.148 43.0548 172.076 42.9712C170.934 41.6165 164.762 37.2511 159.989 35.6254C154.503 33.9247 148.841 32.8591 143.113 32.4493C139.707 32.1708 135.821 30.7257 133.115 29.5365C133.535 29.7895 133.981 29.9964 134.445 30.1537C134.628 30.221 134.777 30.3565 134.862 30.5317C134.947 30.707 134.961 30.9083 134.9 31.0934C134.84 31.2786 134.71 31.4331 134.538 31.5245C134.367 31.616 134.166 31.6371 133.979 31.5837C133.912 31.5837 127.484 29.5516 122.981 32.3363C120.644 33.7965 119.223 36.3329 118.674 39.8628C118.644 40.059 118.538 40.2356 118.379 40.354C118.22 40.4724 118.021 40.5231 117.825 40.495C117.627 40.4671 117.449 40.3618 117.329 40.2023C117.209 40.0428 117.158 39.8422 117.186 39.6445C117.772 35.6405 119.441 32.7503 122.192 31.0493C124.944 29.3484 128.206 29.1753 130.634 29.4011C130.105 28.8369 129.677 28.1849 129.371 27.4743C129.315 27.3306 129.306 27.1732 129.342 27.0234C129.379 26.8737 129.46 26.7389 129.576 26.6371C129.691 26.5353 129.835 26.4715 129.988 26.4543C130.141 26.4371 130.296 26.4673 130.431 26.541C130.499 26.5861 137.708 30.4623 143.21 30.9214C149.059 31.3372 154.841 32.4283 160.44 34.1728C165.439 35.8738 171.791 40.3068 173.219 41.9702C173.283 42.0458 173.331 42.1332 173.361 42.2275C173.391 42.3218 173.402 42.421 173.394 42.5196C173.385 42.6181 173.358 42.7141 173.312 42.8019C173.267 42.8897 173.204 42.9677 173.129 43.0314C173 43.1529 172.832 43.2249 172.655 43.2347Z" fill="#000927"/>
<path d="M175.94 81.1304C175.795 81.1316 175.653 81.0909 175.53 81.0129C175.408 80.935 175.31 80.8232 175.25 80.6911C175.19 80.559 175.169 80.4122 175.19 80.2684C175.211 80.1247 175.273 79.9901 175.369 79.881C175.459 79.7832 184.209 69.6149 183.224 60.8993C183.045 59.3611 182.536 57.8797 181.733 56.5562C180.93 55.2327 179.852 54.0981 178.571 53.2298C178.456 53.1452 178.367 53.0295 178.315 52.8962C178.263 52.7629 178.25 52.6175 178.278 52.4772C178.338 52.1159 179.631 43.6562 171.182 41.9401C170.986 41.9019 170.814 41.7877 170.703 41.6227C170.592 41.4576 170.55 41.2551 170.588 41.0595C170.607 40.962 170.645 40.8691 170.7 40.7863C170.755 40.7036 170.825 40.6325 170.907 40.5772C170.99 40.522 171.083 40.4835 171.18 40.4643C171.278 40.445 171.378 40.4452 171.475 40.4649C180.142 42.181 179.992 50.1891 179.811 52.2213C181.185 53.2141 182.336 54.4849 183.188 55.9513C184.04 57.4177 184.575 59.0471 184.758 60.7337C185.81 70.1117 176.917 80.4379 176.541 80.8745C176.467 80.9597 176.374 81.0269 176.27 81.0713C176.166 81.1156 176.053 81.1358 175.94 81.1304Z" fill="#000927"/>
<path d="M142.662 98.8552C131.1 98.8552 122.275 95.4834 114.194 88.3633C109.353 84.0883 108.18 77.5102 110.699 69.3214C111.941 65.4731 113.69 61.808 115.9 58.4231C116.069 58.1756 116.329 58.0052 116.623 57.9495C116.917 57.8937 117.22 57.9571 117.468 58.1258C117.715 58.2945 117.885 58.5546 117.941 58.8489C117.996 59.1432 117.933 59.4476 117.765 59.6951C117.644 59.8757 105.594 77.7586 115.682 86.6699C126.77 96.4543 139.459 98.7574 159.485 94.663C159.778 94.6031 160.083 94.6623 160.333 94.8274C160.582 94.9925 160.756 95.2502 160.816 95.5436C160.875 95.837 160.816 96.1423 160.652 96.3921C160.487 96.6419 160.229 96.8159 159.936 96.8758C154.258 98.111 148.471 98.7741 142.662 98.8552Z" fill="#000927"/>
<path d="M110.571 76.9306C110.445 76.93 110.32 76.9071 110.202 76.8628C109.695 76.6593 109.237 76.349 108.859 75.953C108.482 75.5569 108.194 75.0844 108.015 74.5673C106.722 71.5567 107.06 66.1602 108.767 62.3142C109.601 60.4702 110.744 59.3789 112.179 59.0854C112.913 58.9861 113.658 59.05 114.364 59.2725C115.069 59.4949 115.717 59.8705 116.261 60.3724C116.372 60.4716 116.461 60.5919 116.525 60.7261C116.589 60.8604 116.625 61.006 116.632 61.1544C116.639 61.3029 116.617 61.4513 116.566 61.5909C116.515 61.7306 116.437 61.8587 116.336 61.968C116.134 62.1879 115.853 62.3191 115.555 62.3332C115.257 62.3473 114.965 62.2431 114.743 62.0433C114.46 61.7781 114.126 61.5743 113.761 61.4448C113.397 61.3152 113.009 61.2628 112.623 61.2906C111.781 61.4712 111.18 62.4497 110.819 63.2399C109.218 66.7999 109.135 71.5191 110.067 73.6716C110.206 74.1208 110.513 74.4985 110.924 74.7253C111.178 74.8118 111.393 74.9861 111.53 75.2169C111.667 75.4478 111.717 75.72 111.672 75.9847C111.627 76.2494 111.489 76.4893 111.283 76.6613C111.077 76.8333 110.816 76.9261 110.548 76.923L110.571 76.9306Z" fill="#000927"/>
<path d="M130.935 72.7233C130.788 72.7244 130.645 72.6825 130.521 72.6029C130.166 72.3875 129.868 72.0898 129.652 71.7348C129.436 71.3798 129.309 70.9779 129.281 70.5632C129.131 68.1472 132.288 65.3775 132.664 65.0764C132.815 64.9467 133.012 64.8825 133.211 64.898C133.41 64.9136 133.594 65.0075 133.724 65.1592C133.853 65.3109 133.917 65.5079 133.902 65.707C133.886 65.906 133.793 66.0907 133.641 66.2204C132.491 67.1989 130.702 69.231 130.785 70.4729C130.794 70.655 130.852 70.8314 130.951 70.9845C131.049 71.1377 131.187 71.2623 131.348 71.346C131.482 71.4356 131.583 71.5657 131.637 71.7171C131.691 71.8685 131.695 72.0333 131.649 72.1873C131.603 72.3413 131.508 72.4765 131.38 72.5729C131.251 72.6694 131.095 72.7221 130.935 72.7233Z" fill="#000927"/>
<path d="M116.878 40.1112C116.851 40.2327 116.851 40.3585 116.878 40.48C115.028 44.2432 113.871 50.2644 116.043 59.7477C116.082 59.9118 116.163 60.0631 116.278 60.1869C116.392 60.3108 116.537 60.4032 116.697 60.4552C116.799 60.4896 116.906 60.5049 117.013 60.5004C117.232 60.5009 117.446 60.4267 117.618 60.2899C117.79 60.1532 117.911 59.9621 117.96 59.7477C118.503 57.2472 119.17 54.7754 119.959 52.3417C120.097 52.0748 120.191 51.7877 120.238 51.4912C121.328 48.2924 122.681 45.1389 124.154 43.5207C125.526 45.3751 127.229 46.9596 129.176 48.1946C132.604 50.3848 138.474 52.6051 147.269 51.2052C147.202 51.3499 147.142 51.4982 147.089 51.6493C147.03 51.8235 147.022 52.0111 147.066 52.1899C147.11 52.3686 147.204 52.531 147.337 52.6578C147.467 52.7858 147.631 52.8748 147.809 52.9147C147.987 52.9546 148.172 52.9438 148.345 52.8836C148.39 52.8836 152.486 51.4611 155.411 53.6814L155.989 54.1254C158.703 56.2103 162.537 59.1531 167.318 58.3779C166.588 60.1012 166.5 62.0293 167.07 63.812C168.264 68.3222 168.311 73.0601 167.205 77.5929L166.942 78.4058C166.908 78.505 166.893 78.6096 166.897 78.7144V78.7821C166.903 78.8935 166.928 79.003 166.972 79.1057V79.1434C166.997 79.1951 167.025 79.2453 167.055 79.2939L167.13 79.3617L167.22 79.452C167.286 79.509 167.36 79.5571 167.438 79.595L167.498 79.6326H167.543C167.641 79.6628 167.742 79.678 167.844 79.6778C171.302 79.6778 174.805 80.0541 175.444 80.5283C175.514 80.6595 175.614 80.7727 175.735 80.8589C175.857 80.9451 175.996 81.0019 176.143 81.025C176.309 81.0508 176.479 81.0339 176.637 80.976C176.795 80.9181 176.935 80.821 177.045 80.6938C177.421 80.2498 186.231 69.7353 185.043 60.2821C184.834 58.6023 184.281 56.9838 183.42 55.5271C182.559 54.0704 181.407 52.8067 180.037 51.8148C180.18 49.5569 180.037 41.8348 171.595 40.1263C168.168 37.4992 164.368 35.4011 160.32 33.9019C154.691 32.2364 148.89 31.2262 143.03 30.8913C137.542 30.5074 130.333 26.7517 130.251 26.7141C130.073 26.6206 129.871 26.5839 129.673 26.6091C129.474 26.6343 129.287 26.72 129.139 26.8547C128.99 26.9895 128.887 27.1667 128.842 27.3623C128.798 27.5579 128.815 27.7626 128.89 27.9485C129.141 28.5094 129.468 29.0335 129.86 29.5064C127.064 29.2754 124.266 29.9142 121.846 31.3354C119.095 33.0815 117.419 36.0469 116.878 40.1112Z" fill="#000927"/>
<path d="M164.965 97.7639C162.154 97.7136 159.456 96.6439 157.373 94.7533C157.298 94.6891 157.236 94.6107 157.191 94.5226C157.147 94.4345 157.12 94.3384 157.112 94.2399C157.104 94.1413 157.116 94.0422 157.147 93.9482C157.177 93.8543 157.226 93.7672 157.29 93.6921C157.354 93.617 157.433 93.5552 157.521 93.5104C157.609 93.4656 157.704 93.4386 157.803 93.4309C157.901 93.4232 158 93.435 158.094 93.4656C158.188 93.4962 158.275 93.5451 158.35 93.6093C163.755 98.2456 168.927 95.6264 170.896 94.2867C174.986 91.5094 177.527 86.5194 176.452 83.3884C174.475 77.6306 164.424 80.3251 164.304 80.3778C164.208 80.4041 164.109 80.4113 164.011 80.399C163.913 80.3867 163.818 80.3552 163.732 80.3063C163.646 80.2574 163.571 80.192 163.51 80.1138C163.45 80.0357 163.405 79.9463 163.379 79.8509C163.353 79.7555 163.346 79.6559 163.358 79.5578C163.37 79.4596 163.401 79.3648 163.45 79.2788C163.499 79.1928 163.565 79.1173 163.643 79.0567C163.721 78.996 163.81 78.9513 163.905 78.9252C164.379 78.7972 175.444 75.8393 177.872 82.9293C179.173 86.6925 176.422 92.3825 171.738 95.5662C169.754 96.9663 167.393 97.7325 164.965 97.7639Z" fill="#000927"/>
<path d="M167.634 91.0126C167.453 91.0147 167.277 90.9511 167.138 90.8335C167 90.7159 166.909 90.5523 166.882 90.3729C166.552 88.2203 164.311 88.3482 164.056 88.3783C163.94 88.3859 163.825 88.3682 163.717 88.3266C163.609 88.285 163.512 88.2205 163.432 88.1375C163.353 88.0525 163.296 87.9505 163.263 87.8396C163.231 87.7286 163.224 87.6117 163.244 87.4978C163.747 84.585 168.393 83.456 168.919 83.3356C169.016 83.3134 169.116 83.3107 169.214 83.3274C169.312 83.3442 169.406 83.3802 169.489 83.4334C169.573 83.4866 169.646 83.5559 169.703 83.6373C169.76 83.7187 169.8 83.8106 169.821 83.9076C169.864 84.1022 169.828 84.3058 169.721 84.4737C169.614 84.6416 169.444 84.7601 169.25 84.8033C168.363 85.0065 166.078 85.7667 165.131 86.9333C165.952 87.0294 166.717 87.3981 167.304 87.9806C167.892 88.5632 168.267 89.3259 168.371 90.147C168.386 90.2449 168.381 90.3448 168.357 90.4409C168.334 90.537 168.291 90.6276 168.233 90.7073C168.174 90.787 168.1 90.8543 168.015 90.9054C167.931 90.9565 167.837 90.9904 167.739 91.0051L167.634 91.0126Z" fill="#000927"/>
<path d="M142.752 67.6203C143.131 67.4197 143.549 67.3051 143.977 67.2847C144.405 67.2644 144.833 67.3388 145.229 67.5026C145.625 67.6664 145.981 67.9157 146.27 68.2327C146.559 68.5496 146.774 68.9265 146.901 69.3364C146.945 69.4911 146.927 69.657 146.849 69.798C146.772 69.939 146.642 70.0436 146.488 70.089C146.411 70.112 146.331 70.1195 146.252 70.111C146.172 70.1026 146.095 70.0784 146.025 70.0399C145.955 70.0013 145.893 69.9492 145.844 69.8866C145.794 69.824 145.757 69.7521 145.736 69.6751C145.736 69.6751 145.691 69.4568 145.661 69.4417V69.4944C145.665 69.4771 145.665 69.4591 145.661 69.4417L145.608 69.3364C145.567 69.2658 145.522 69.1979 145.473 69.1332C145.413 69.0428 145.541 69.2009 145.473 69.1332C145.444 69.1048 145.416 69.0746 145.39 69.0428C145.336 68.9839 145.278 68.9285 145.217 68.8772L145.142 68.8171C145.037 68.7267 145.24 68.8773 145.142 68.8171C145.007 68.7329 144.866 68.6575 144.721 68.5913C144.609 68.5386 144.834 68.5913 144.721 68.5913L144.601 68.5536L144.39 68.5009H144.27C144.172 68.5009 144.27 68.5009 144.27 68.5009C144.27 68.5009 144.09 68.5009 144.029 68.5009C143.95 68.486 143.868 68.486 143.789 68.5009H143.676C143.631 68.5009 143.473 68.5009 143.451 68.5762C143.428 68.6515 143.556 68.5235 143.451 68.5762L143.331 68.6439C143.196 68.7142 143.039 68.73 142.893 68.6879C142.746 68.6458 142.622 68.5492 142.545 68.4179C142.468 68.2866 142.444 68.1307 142.478 67.9823C142.512 67.8339 142.602 67.7043 142.729 67.6203H142.752Z" fill="#000927"/>
<path fill-rule="evenodd" clip-rule="evenodd" d="M145.155 67.6825C144.785 67.5296 144.386 67.4602 143.987 67.4792C143.587 67.4982 143.196 67.6051 142.843 67.7924L142.8 67.8151H142.794C142.731 67.87 142.687 67.9437 142.668 68.0262C142.645 68.1259 142.661 68.2308 142.713 68.3192C142.764 68.4075 142.848 68.4725 142.947 68.5008C143.044 68.5288 143.148 68.5187 143.238 68.4726L143.312 68.4311C143.337 68.3996 143.368 68.3778 143.393 68.3633C143.437 68.3382 143.483 68.326 143.518 68.3193C143.584 68.3062 143.651 68.3062 143.674 68.3062C143.675 68.3062 143.676 68.3062 143.676 68.3062H143.772C143.863 68.2913 143.956 68.2913 144.046 68.3062H144.414L144.654 68.3661L144.678 68.3739C144.679 68.3738 144.68 68.3737 144.681 68.3737C144.697 68.3726 144.711 68.3735 144.719 68.3742C144.736 68.3758 144.753 68.3789 144.766 68.3819C144.779 68.385 144.794 68.3893 144.81 68.3952C144.818 68.3981 144.829 68.4026 144.841 68.4091C144.847 68.4124 144.855 68.4172 144.864 68.4238C144.873 68.4299 144.887 68.4408 144.901 68.4573C144.903 68.4591 144.904 68.4612 144.906 68.4635C144.991 68.5053 145.074 68.5501 145.155 68.5978C145.16 68.5987 145.163 68.5997 145.166 68.6006C145.172 68.6022 145.176 68.6038 145.18 68.6051C145.187 68.6077 145.192 68.6102 145.196 68.612C145.203 68.6154 145.209 68.6186 145.212 68.6205C145.219 68.6245 145.225 68.6284 145.229 68.6312C145.238 68.6369 145.247 68.6435 145.255 68.6494C145.263 68.6554 145.272 68.6622 145.28 68.6687C145.284 68.672 145.289 68.6759 145.294 68.6802C145.296 68.6824 145.299 68.6851 145.302 68.6883C145.305 68.6912 145.31 68.6963 145.316 68.7028C145.318 68.7055 145.322 68.7094 145.325 68.7143L145.342 68.7279C145.41 68.7848 145.474 68.8462 145.534 68.9115L145.538 68.9159L145.542 68.9206C145.546 68.9257 145.55 68.9307 145.554 68.9358C145.558 68.9379 145.561 68.9398 145.563 68.9414C145.57 68.9454 145.575 68.9491 145.578 68.9518C145.585 68.957 145.59 68.9618 145.593 68.9647C145.599 68.9705 145.605 68.976 145.608 68.9796C145.615 68.9872 145.622 68.9953 145.627 69.0023C145.633 69.0094 145.639 69.0176 145.645 69.0257C145.648 69.0298 145.652 69.0351 145.656 69.0412C145.658 69.0443 145.66 69.0485 145.663 69.0535C145.665 69.0579 145.67 69.0665 145.674 69.0778C145.675 69.0783 145.675 69.0788 145.675 69.0794C145.711 69.1312 145.745 69.1845 145.777 69.2391L145.78 69.244L145.823 69.3308C145.832 69.3426 145.839 69.3536 145.843 69.3618C145.854 69.3813 145.862 69.4012 145.868 69.4165C145.88 69.448 145.89 69.4839 145.898 69.5142C145.906 69.5455 145.913 69.5758 145.918 69.5979L145.924 69.6249L145.925 69.6281C145.94 69.6781 145.964 69.7248 145.996 69.7656C146.03 69.808 146.072 69.8432 146.119 69.8693C146.166 69.8953 146.218 69.9117 146.272 69.9174C146.326 69.9231 146.38 69.9181 146.432 69.9026L146.433 69.9023C146.537 69.8714 146.626 69.8003 146.678 69.7042C146.731 69.6086 146.744 69.4964 146.715 69.3918C146.596 69.0101 146.395 68.6591 146.126 68.3639C145.856 68.0681 145.524 67.8354 145.155 67.6825ZM145.545 69.714L145.545 69.7125L145.543 69.7064L145.538 69.6836C145.534 69.6643 145.528 69.6391 145.521 69.6139C145.515 69.5878 145.508 69.5663 145.503 69.5526C145.501 69.5487 145.501 69.547 145.501 69.547C145.501 69.547 145.501 69.5482 145.502 69.5504C145.504 69.5528 145.508 69.5604 145.516 69.57C145.522 69.5777 145.541 69.5994 145.574 69.6159L145.626 69.5121L145.54 69.5026L145.487 69.5291L145.47 69.4948L145.466 69.4944V69.4878L145.437 69.4289C145.403 69.371 145.366 69.3154 145.327 69.2622C145.297 69.2334 145.269 69.2026 145.243 69.1701C145.196 69.1196 145.146 69.072 145.094 69.0279L145.03 68.9765C144.907 68.9012 144.781 68.8334 144.651 68.7734L144.548 68.7411L144.366 68.6956H144.011L143.994 68.6923C143.938 68.6819 143.881 68.6819 143.825 68.6923L143.807 68.6956H143.676C143.667 68.6956 143.655 68.6957 143.642 68.6962C143.634 68.7073 143.626 68.716 143.619 68.7223C143.607 68.7349 143.591 68.748 143.573 68.7595C143.564 68.7654 143.552 68.7723 143.537 68.7785C143.523 68.7843 143.501 68.7923 143.472 68.7946C143.468 68.795 143.463 68.7952 143.459 68.7953L143.421 68.8167C143.241 68.9101 143.033 68.9309 142.839 68.875C142.645 68.8192 142.479 68.6908 142.377 68.5165C142.275 68.3423 142.243 68.1355 142.288 67.9384C142.334 67.7416 142.453 67.5695 142.622 67.458L142.67 67.4256H142.704C143.097 67.2256 143.528 67.1112 143.968 67.0902C144.425 67.0685 144.881 67.1479 145.303 67.3227C145.726 67.4975 146.105 67.7634 146.413 68.1015C146.722 68.4396 146.952 68.8416 147.087 69.2788L147.089 69.2829C147.147 69.4871 147.122 69.706 147.02 69.8917C146.918 70.0777 146.746 70.2158 146.543 70.2758C146.442 70.306 146.336 70.3158 146.231 70.3047C146.126 70.2935 146.024 70.2615 145.931 70.2105C145.839 70.1595 145.757 70.0905 145.691 70.0076C145.625 69.9247 145.577 69.8295 145.548 69.7277L145.547 69.721L145.545 69.714Z" fill="#000927"/>
<path d="M124.177 61.1852C124.555 60.9774 124.975 60.8566 125.406 60.8317C125.837 60.8068 126.268 60.8784 126.667 61.0414C127.067 61.2043 127.425 61.4545 127.716 61.7736C128.007 62.0928 128.223 62.4729 128.349 62.8862C128.387 63.0417 128.364 63.2059 128.286 63.3456C128.208 63.4853 128.08 63.5901 127.928 63.6389C127.851 63.6618 127.771 63.6693 127.692 63.6609C127.612 63.6524 127.535 63.6283 127.465 63.5897C127.395 63.5512 127.334 63.4991 127.284 63.4364C127.234 63.3738 127.198 63.3019 127.176 63.2249C127.176 63.2249 127.138 63.0067 127.101 62.9916C127.063 62.9766 127.138 63.0819 127.101 63.0443V62.9916L127.041 62.8787C127.003 62.811 126.958 62.7507 126.913 62.683C126.868 62.6153 126.98 62.7432 126.913 62.683L126.83 62.5927C126.776 62.5337 126.719 62.4784 126.657 62.4271L126.575 62.3594C126.477 62.2766 126.68 62.4271 126.575 62.3594C126.436 62.2767 126.293 62.2014 126.146 62.1336C126.041 62.0809 126.266 62.1336 126.146 62.1336H126.033L125.815 62.0809H125.695C125.598 62.0809 125.695 62.0809 125.695 62.0809C125.616 62.0658 125.534 62.0658 125.455 62.0809C125.409 62.0809 125.252 62.0809 125.214 62.0809H125.267H125.206H125.086C125.041 62.0809 124.883 62.126 124.853 62.1637C124.823 62.2013 124.966 62.111 124.853 62.1637L124.726 62.2314C124.59 62.3121 124.427 62.336 124.274 62.298C124.121 62.2599 123.988 62.163 123.906 62.0282C123.833 61.8871 123.815 61.7235 123.857 61.5701C123.899 61.4166 123.997 61.2846 124.132 61.2003L124.177 61.1852Z" fill="#000927"/>
<path fill-rule="evenodd" clip-rule="evenodd" d="M126.594 61.2217C126.221 61.0697 125.819 61.0028 125.417 61.0261C125.015 61.0493 124.624 61.162 124.271 61.3559L124.255 61.3644L124.217 61.377C124.133 61.4355 124.072 61.5218 124.045 61.6213C124.017 61.7254 124.028 61.8362 124.076 61.9323C124.132 62.0205 124.22 62.0838 124.321 62.109C124.425 62.1347 124.534 62.1185 124.626 62.064L124.634 62.0592L124.741 62.0031C124.769 61.9803 124.797 61.9664 124.811 61.9595C124.841 61.945 124.874 61.9328 124.904 61.9231C124.934 61.9133 124.965 61.9048 124.993 61.8985C125.016 61.8932 125.052 61.8862 125.086 61.8862H125.437C125.528 61.8711 125.621 61.8711 125.712 61.8862H125.839L126.038 61.9343C126.055 61.9263 126.07 61.9224 126.079 61.9203C126.092 61.9175 126.103 61.9164 126.111 61.9159C126.127 61.915 126.14 61.9157 126.148 61.9165C126.166 61.918 126.183 61.9211 126.196 61.9242C126.209 61.9274 126.226 61.932 126.242 61.9385C126.251 61.9417 126.263 61.947 126.277 61.9551C126.284 61.9592 126.294 61.9656 126.305 61.9746C126.313 61.9812 126.325 61.9926 126.338 62.0094C126.424 62.0518 126.509 62.0967 126.592 62.1442C126.597 62.1454 126.602 62.1466 126.605 62.1477C126.611 62.1494 126.615 62.1511 126.619 62.1524C126.626 62.1551 126.631 62.1577 126.635 62.1593C126.638 62.1611 126.641 62.1628 126.644 62.1641C126.648 62.1666 126.652 62.1689 126.655 62.1705C126.66 62.1739 126.665 62.1772 126.669 62.1799C126.677 62.1854 126.686 62.1916 126.694 62.1973C126.701 62.2031 126.71 62.2096 126.717 62.2157C126.721 62.2187 126.726 62.2225 126.73 62.2266C126.733 62.2286 126.736 62.2315 126.739 62.2349C126.741 62.2366 126.743 62.2389 126.746 62.2415C126.748 62.2441 126.752 62.2479 126.756 62.2528C126.758 62.2552 126.76 62.2583 126.763 62.262L126.782 62.2779C126.85 62.3347 126.914 62.3959 126.974 62.4613C126.974 62.4613 126.974 62.4613 126.974 62.4613L127.008 62.4988C127.012 62.5012 127.015 62.5033 127.017 62.5048C127.023 62.5089 127.028 62.5127 127.031 62.5155C127.038 62.5209 127.043 62.526 127.047 62.5296C127.054 62.5371 127.061 62.5448 127.067 62.5515C127.073 62.558 127.08 62.5663 127.087 62.5752C127.09 62.5794 127.095 62.5864 127.1 62.5951C127.103 62.5994 127.107 62.6066 127.111 62.6159C127.114 62.6206 127.116 62.6273 127.119 62.6355C127.12 62.6378 127.121 62.6405 127.122 62.6435C127.151 62.6868 127.184 62.7356 127.211 62.7842L127.213 62.7875L127.258 62.8728C127.269 62.8861 127.277 62.8974 127.28 62.9028C127.294 62.9248 127.303 62.9471 127.31 62.9636C127.323 62.9977 127.334 63.0357 127.341 63.0667C127.349 63.099 127.356 63.1301 127.36 63.1526C127.363 63.164 127.365 63.1735 127.366 63.1803C127.381 63.2294 127.405 63.2753 127.436 63.3155C127.47 63.3578 127.512 63.3931 127.559 63.4192C127.606 63.4452 127.659 63.4616 127.712 63.4673C127.765 63.4729 127.819 63.468 127.87 63.4529C127.975 63.419 128.063 63.3467 128.116 63.2506C128.17 63.1553 128.185 63.0436 128.161 62.9374C128.043 62.5538 127.842 62.2011 127.572 61.9048C127.301 61.607 126.967 61.3737 126.594 61.2217ZM126.759 62.8035C126.774 62.825 126.787 62.8437 126.798 62.8609C126.826 62.9013 126.848 62.9332 126.87 62.9716L126.897 63.0228C126.897 63.0256 126.898 63.0281 126.898 63.0303C126.9 63.0429 126.903 63.0542 126.906 63.0635V63.1248L126.963 63.1819C126.965 63.1839 126.967 63.1862 126.97 63.1888C126.973 63.2033 126.976 63.217 126.979 63.2286L126.983 63.2508L126.984 63.2566L126.984 63.2579M126.759 62.8035L126.687 62.7241C126.639 62.6717 126.587 62.6226 126.533 62.577L126.463 62.5193C126.346 62.4502 126.226 62.3865 126.103 62.3283H126.01L125.792 62.2756H125.652L125.652 62.2709C125.599 62.2617 125.544 62.2621 125.491 62.2722L125.473 62.2756H125.093C125.089 62.2761 125.084 62.2771 125.078 62.2786C125.063 62.2817 125.046 62.2864 125.029 62.292C125.027 62.2937 125.025 62.2953 125.024 62.2965C125.016 62.3036 125.008 62.3091 125.003 62.3125C124.998 62.3163 124.993 62.3197 124.988 62.3226C124.979 62.3284 124.969 62.3342 124.959 62.3395C124.95 62.3439 124.934 62.3517 124.915 62.3577C124.91 62.3594 124.903 62.3614 124.895 62.3632C124.894 62.3635 124.893 62.3637 124.891 62.3639L124.821 62.4014C124.642 62.5062 124.429 62.5369 124.227 62.4869C124.024 62.4366 123.849 62.3083 123.74 62.1299L123.736 62.1241L123.733 62.118C123.637 61.9333 123.615 61.7194 123.669 61.5189C123.724 61.3182 123.852 61.1455 124.028 61.0353L124.048 61.023L124.099 61.006" fill="#000927"/>
<path d="M148.976 110.468C148.976 110.468 140.707 103.853 151.712 93.835C162.717 83.8173 192.177 72.1739 195.725 73.19C195.725 73.19 189.268 79.3466 193.47 84.1334L168.242 104.455C163.912 107.947 160.673 110.055 155.426 111.899L155.065 112.026C154.022 112.416 152.886 112.48 151.807 112.212C150.727 111.943 149.753 111.354 149.014 110.521L148.976 110.468Z" fill="#7FB1FC"/>
<path d="M153.186 113.502C152.243 113.504 151.311 113.303 150.452 112.914C149.594 112.524 148.829 111.955 148.209 111.244C147.223 110.36 146.424 109.289 145.857 108.092C145.291 106.895 144.968 105.597 144.909 104.274C144.789 100.556 146.833 96.7477 150.983 92.9845C161.725 83.2001 191.576 70.7965 196.086 72.0835C196.278 72.1393 196.451 72.2444 196.59 72.3884C196.728 72.5323 196.827 72.7101 196.876 72.9039C196.922 73.0971 196.917 73.2992 196.86 73.4897C196.803 73.6801 196.697 73.852 196.552 73.9878C196.327 74.2135 190.937 79.4595 194.387 83.3732C194.488 83.4874 194.565 83.6209 194.613 83.7655C194.661 83.9102 194.679 84.0631 194.666 84.215C194.654 84.3669 194.61 84.5147 194.539 84.6495C194.468 84.7842 194.37 84.9031 194.252 84.999L169.024 105.32C164.732 108.783 161.364 111.025 155.877 112.945L155.523 113.073C154.776 113.354 153.984 113.5 153.186 113.502ZM193.117 74.5598C185.449 76.3736 162.424 85.6387 152.524 94.6704C148.901 97.9745 147.096 101.181 147.179 104.206C147.23 105.228 147.482 106.229 147.921 107.153C148.359 108.076 148.976 108.904 149.735 109.588L149.885 109.731L149.938 109.799C150.531 110.455 151.308 110.918 152.167 111.128C153.026 111.337 153.928 111.283 154.756 110.973L155.117 110.845C160.342 109.008 163.424 106.961 167.611 103.582L191.989 83.9377C189.93 80.754 191.298 77.1263 193.087 74.5598H193.117Z" fill="#000927"/>
<path d="M203.912 76.0123C203.912 76.0123 212.12 74.0254 212.181 77.766C212.241 81.5066 205.505 78.0896 204.596 79.3315C203.686 80.5733 212.865 81.198 212.226 83.5237C211.587 85.8494 208.557 85.872 201.995 83.2076C201.995 83.2076 201.559 83.8248 202.747 84.7129C203.934 85.601 208.008 86.4741 206.34 88.3557C204.671 90.2373 201.987 90.6739 198.514 85.1495C191.824 87.0085 191.335 78.052 191.335 78.052L192.14 75.0414L202.423 72.4448C202.423 72.4448 209.324 66.8526 209.94 71.3083C210.241 73.5662 203.927 75.9747 203.927 75.9747" fill="#F2F7FF"/>
<path d="M203.874 90.418H203.596C201.822 90.275 200.003 88.8073 198.176 86.0527C197.437 86.2498 196.664 86.2846 195.91 86.1546C195.156 86.0247 194.439 85.7332 193.809 85.3C190.899 83.2152 190.606 78.3832 190.591 78.18C190.583 78.1024 190.583 78.0243 190.591 77.9467L191.396 74.9361C191.43 74.8069 191.499 74.6893 191.594 74.5954C191.689 74.5014 191.807 74.4346 191.937 74.4017L202.07 71.8502C203.1 71.0299 206.911 68.1999 209.166 69.1031C209.598 69.2909 209.968 69.5967 210.234 69.9854C210.5 70.3742 210.651 70.83 210.67 71.3008C210.85 72.6104 209.625 73.8222 208.159 74.7856C209.463 74.6945 210.763 75.0185 211.872 75.7113C212.192 75.9594 212.451 76.2779 212.628 76.642C212.805 77.0061 212.897 77.4062 212.895 77.8112C212.922 78.1694 212.869 78.5291 212.738 78.8639C212.608 79.1987 212.405 79.4999 212.143 79.7455C211.128 80.6035 209.444 80.4229 207.851 80.167C210.519 80.9196 213.459 81.7777 212.94 83.7646C212.846 84.1698 212.661 84.5486 212.401 84.873C212.141 85.1974 211.811 85.459 211.437 85.6387C210.196 86.2634 208.287 86.1806 205.46 85.3302C206.4 85.8043 207.242 86.3838 207.422 87.2419C207.478 87.5469 207.457 87.861 207.363 88.1563C207.269 88.4517 207.103 88.7192 206.881 88.9353C206.516 89.3844 206.058 89.7494 205.539 90.0052C205.02 90.2611 204.452 90.4019 203.874 90.418ZM198.522 84.3969C198.65 84.3966 198.775 84.4289 198.887 84.4908C198.999 84.5527 199.093 84.6421 199.161 84.7506C201.213 88.0246 202.769 88.7998 203.716 88.8751C204.117 88.8825 204.513 88.7942 204.873 88.6175C205.232 88.4408 205.545 88.1808 205.784 87.859C205.897 87.7608 205.969 87.6239 205.987 87.4752C205.896 87.0612 204.588 86.4666 203.889 86.1505C203.334 85.923 202.802 85.6407 202.303 85.3076C200.536 83.9678 201.326 82.7937 201.363 82.7486C201.461 82.6103 201.602 82.509 201.765 82.4612C201.927 82.4134 202.101 82.4218 202.258 82.4851C206.655 84.2689 209.527 84.8485 210.79 84.2087C210.967 84.1204 211.121 83.9933 211.242 83.837C211.363 83.6806 211.448 83.499 211.489 83.3055C211.587 82.9066 210.174 82.297 207.287 81.4916C205.13 80.8895 204.084 80.5659 203.821 79.7982C203.768 79.641 203.753 79.473 203.78 79.309C203.806 79.145 203.872 78.9899 203.972 78.8574C204.596 78.0069 205.904 78.2327 207.565 78.5112C208.835 78.7295 210.572 79.023 211.166 78.5112C211.226 78.4585 211.414 78.2929 211.414 77.7585C211.421 77.5797 211.384 77.4019 211.307 77.2406C211.229 77.0793 211.114 76.9392 210.97 76.8328C209.715 75.8543 206.077 76.2532 204.085 76.7349C203.896 76.7868 203.695 76.7633 203.524 76.6694C203.352 76.5754 203.224 76.4183 203.167 76.2314C203.109 76.0445 203.126 75.8425 203.215 75.6682C203.304 75.4938 203.456 75.3608 203.641 75.2974C206.438 74.2286 209.339 72.4147 209.204 71.4363C209.091 70.6159 208.753 70.4804 208.64 70.4353C207.49 69.9762 204.588 71.6922 202.904 73.0545C202.822 73.1241 202.724 73.1731 202.619 73.1975L192.756 75.6812L192.102 78.1424C192.162 78.8273 192.576 82.5002 194.688 84.013C195.217 84.3644 195.822 84.5863 196.452 84.6608C197.083 84.7354 197.722 84.6604 198.319 84.442C198.385 84.4261 198.454 84.421 198.522 84.427V84.3969Z" fill="#000927"/>
<path d="M197.537 76.4715C197.537 76.4715 204.588 74.1609 202.566 71.203C201.01 68.9451 198.86 70.9019 198.86 70.9019C198.86 70.9019 191.012 72.1137 191.268 78.2779" fill="#F2F7FF"/>
<path d="M191.275 79.0003C191.076 79.0003 190.885 78.9211 190.744 78.7799C190.603 78.6388 190.523 78.4473 190.523 78.2477C190.305 72.9792 195.56 70.6611 198.544 70.1342C199.25 69.5452 200.154 69.2489 201.07 69.3063C201.507 69.3672 201.924 69.5262 202.291 69.7712C202.658 70.0162 202.966 70.3409 203.19 70.7212C203.434 71.052 203.594 71.4371 203.657 71.8434C203.72 72.2498 203.683 72.6653 203.551 73.0545C202.724 75.478 198.289 76.9908 197.777 77.1564C197.588 77.2181 197.382 77.2021 197.205 77.1117C197.027 77.0214 196.892 76.8642 196.83 76.6747C196.769 76.4851 196.785 76.2786 196.875 76.1008C196.965 75.923 197.122 75.7884 197.312 75.7264C198.935 75.192 201.686 73.8598 202.13 72.5652C202.186 72.3966 202.199 72.2166 202.167 72.0417C202.136 71.8668 202.061 71.7026 201.95 71.5642C201.842 71.3691 201.693 71.2004 201.512 71.0703C201.331 70.9401 201.124 70.8517 200.905 70.8116C200.346 70.8095 199.808 71.0224 199.401 71.4062C199.291 71.5042 199.156 71.5694 199.01 71.5943C198.717 71.6395 191.824 72.7835 192.05 78.1875C192.05 78.3871 191.97 78.5786 191.829 78.7197C191.688 78.8609 191.497 78.9402 191.298 78.9402L191.275 79.0003Z" fill="#000927"/>
</g>
<g clip-path="url(#clip1_941_19407)">
<path fill-rule="evenodd" clip-rule="evenodd" d="M73.7628 158.123L68.1008 148.858L19.2672 154.816L28.5762 165.011L73.7628 158.123Z" fill="#CFD8E6"/>
<path d="M28.5762 165.757C28.4729 165.758 28.3706 165.736 28.2762 165.694C28.1818 165.652 28.0975 165.591 28.0289 165.513L18.7199 155.318C18.6266 155.218 18.5633 155.093 18.5369 154.959C18.5105 154.825 18.5222 154.686 18.5706 154.557C18.6146 154.426 18.6949 154.309 18.8023 154.221C18.9097 154.133 19.0398 154.077 19.1776 154.06L68.0162 148.092C68.1582 148.077 68.3017 148.102 68.4301 148.164C68.5586 148.227 68.6669 148.324 68.7426 148.445L74.4046 157.71C74.4683 157.815 74.5053 157.934 74.5123 158.056C74.5192 158.178 74.4959 158.3 74.4444 158.412C74.393 158.524 74.3141 158.622 74.2149 158.696C74.1158 158.769 73.9997 158.817 73.8772 158.834L28.7105 165.747C28.6665 165.757 28.6212 165.761 28.5762 165.757ZM20.7946 155.383L28.8598 164.215L72.5438 157.556L67.7177 149.659L20.7946 155.383Z" fill="#000927"/>
<path fill-rule="evenodd" clip-rule="evenodd" d="M28.5762 165.011L32.7257 199.635C44.9898 205.765 57.6178 211.14 70.5387 215.728V174.033L28.5762 165.011Z" fill="#CFD8E6"/>
<path d="M70.5338 216.474C70.4488 216.474 70.3646 216.459 70.285 216.43C57.335 211.826 44.6774 206.438 32.3824 200.296C32.2747 200.24 32.1823 200.159 32.113 200.059C32.0436 199.96 31.9995 199.845 31.9843 199.725L27.8348 165.101C27.8217 164.983 27.8365 164.863 27.878 164.752C27.9195 164.64 27.9865 164.54 28.0737 164.459C28.1625 164.38 28.2685 164.323 28.3834 164.292C28.4982 164.261 28.6187 164.257 28.7354 164.28L70.693 173.302C70.8597 173.338 71.0089 173.431 71.1158 173.564C71.2226 173.697 71.2806 173.862 71.2801 174.033V215.728C71.2793 215.848 71.2501 215.966 71.1947 216.073C71.1393 216.179 71.0594 216.271 70.9616 216.34C70.8368 216.429 70.687 216.476 70.5338 216.474ZM33.4172 199.153C45.2321 205.019 57.3756 210.2 69.7874 214.669V174.634L29.4419 165.961L33.4172 199.153Z" fill="#000927"/>
<path fill-rule="evenodd" clip-rule="evenodd" d="M70.5338 174.033L114.317 163.306L109.193 199.879C109.193 199.879 99.3612 208.333 70.5586 215.728L70.5338 174.033Z" fill="#CFD8E6"/>
<path d="M70.5337 216.474C70.3685 216.474 70.2079 216.42 70.076 216.32C69.9869 216.249 69.9148 216.159 69.8648 216.057C69.8149 215.954 69.7885 215.842 69.7874 215.728V174.033C69.7879 173.866 69.8438 173.704 69.9465 173.573C70.0493 173.441 70.1928 173.348 70.3546 173.307L114.138 162.579C114.257 162.551 114.38 162.553 114.498 162.583C114.616 162.613 114.725 162.672 114.815 162.753C114.906 162.835 114.975 162.937 115.017 163.052C115.059 163.166 115.071 163.289 115.054 163.41L109.929 199.983C109.904 200.162 109.815 200.326 109.68 200.446C109.272 200.794 99.3861 209.099 70.7427 216.449C70.6746 216.468 70.6042 216.476 70.5337 216.474ZM71.28 174.62V214.764C85.5147 211.049 94.8585 207.095 100.227 204.409C105.202 201.923 107.755 200.043 108.471 199.486L113.397 164.29L71.28 174.62Z" fill="#000927"/>
<path fill-rule="evenodd" clip-rule="evenodd" d="M28.5762 165.011L73.7628 158.123L114.287 163.305L70.5338 174.033L28.5762 165.011Z" fill="#CFD8E6"/>
<path d="M70.5338 175.027C70.4643 175.035 70.3943 175.035 70.3248 175.027L28.3672 166.006C28.1409 165.957 27.9386 165.831 27.7951 165.65C27.6517 165.468 27.576 165.243 27.5811 165.011C27.5878 164.778 27.6762 164.555 27.8308 164.38C27.9854 164.206 28.1964 164.091 28.4269 164.056L73.6185 157.168C73.7093 157.156 73.8014 157.156 73.8922 157.168L114.417 162.351C114.647 162.38 114.86 162.49 115.018 162.659C115.176 162.829 115.269 163.049 115.283 163.281C115.295 163.512 115.226 163.74 115.088 163.927C114.95 164.113 114.751 164.245 114.526 164.3L70.7726 175.027C70.6933 175.037 70.6131 175.037 70.5338 175.027ZM34.084 165.18L70.5189 173.013L108.854 163.614L73.7777 159.138L34.084 165.18Z" fill="#000927"/>
<path fill-rule="evenodd" clip-rule="evenodd" d="M70.5338 174.033L58.9112 166.075C58.9112 166.075 30.9246 163.42 16.6501 158.118L28.5911 165.006L70.5338 174.033Z" fill="#CFD8E6"/>
<path d="M70.5338 174.779C70.4825 174.784 70.4308 174.784 70.3795 174.779L28.4219 165.757C28.3456 165.739 28.272 165.71 28.203 165.673L16.2621 158.785C16.1004 158.691 15.9799 158.539 15.9246 158.36C15.8693 158.182 15.8832 157.989 15.9635 157.82C16.0438 157.651 16.1845 157.519 16.3576 157.449C16.5308 157.379 16.724 157.377 16.8989 157.442C30.9146 162.649 58.6923 165.325 58.9659 165.349C59.0911 165.362 59.211 165.407 59.3142 165.479L70.9417 173.436C71.0836 173.534 71.1873 173.678 71.2353 173.844C71.2833 174.01 71.2728 174.187 71.2054 174.346C71.146 174.474 71.0513 174.583 70.9324 174.66C70.8135 174.736 70.6752 174.778 70.5338 174.779ZM28.8498 164.305L66.9813 172.506L58.6475 166.802C56.4882 166.588 36.915 164.578 22.8246 160.834L28.8498 164.305Z" fill="#000927"/>
<path fill-rule="evenodd" clip-rule="evenodd" d="M73.7678 158.123C73.7678 158.123 72.5588 160.938 77.6785 149.967L121.288 152.563L114.292 163.305L73.7678 158.123Z" fill="#CFD8E6"/>
<path d="M114.287 164.051H114.188L74.1907 158.934C74.0957 159.064 73.9569 159.156 73.7998 159.193C73.6427 159.229 73.4776 159.208 73.3349 159.133C72.6483 158.825 72.9468 158.138 73.0762 157.835C73.1164 157.738 73.1776 157.652 73.2553 157.581C73.6384 156.805 74.5986 154.796 76.9968 149.654C77.0586 149.517 77.161 149.403 77.2901 149.326C77.4191 149.25 77.5686 149.215 77.7182 149.226L121.328 151.822C121.458 151.829 121.584 151.871 121.693 151.943C121.803 152.014 121.891 152.113 121.95 152.23C122.008 152.347 122.035 152.478 122.028 152.608C122.021 152.739 121.98 152.866 121.91 152.976L114.909 163.718C114.842 163.821 114.749 163.905 114.641 163.964C114.532 164.022 114.411 164.052 114.287 164.051ZM74.9419 157.522L113.914 162.495L119.959 153.22L78.1361 150.733C76.7381 153.717 75.7081 155.92 75.0613 157.263C75.0265 157.357 74.9817 157.442 74.9469 157.522H74.9419Z" fill="#000927"/>
<path fill-rule="evenodd" clip-rule="evenodd" d="M114.287 163.305L70.5287 174.033L77.7232 176.614C77.7232 176.614 96.3511 172.76 104.138 169.776C111.924 166.792 129.711 161.406 129.711 161.406L114.287 163.305Z" fill="#CFD8E6"/>
<path d="M77.7282 177.36C77.6433 177.36 77.559 177.345 77.4794 177.315L70.285 174.734C70.1332 174.681 70.0028 174.58 69.9131 174.446C69.8235 174.312 69.7794 174.154 69.7874 173.993C69.7964 173.833 69.8563 173.68 69.9583 173.557C70.0604 173.433 70.1992 173.346 70.3546 173.307L114.138 162.579H114.223L129.647 160.68C129.832 160.657 130.019 160.705 130.171 160.813C130.323 160.922 130.429 161.084 130.467 161.266C130.506 161.447 130.477 161.635 130.385 161.795C130.293 161.954 130.145 162.074 129.97 162.132C129.791 162.187 112.153 167.543 104.476 170.487C96.7193 173.471 78.7083 177.201 77.9471 177.36C77.8745 177.37 77.8008 177.37 77.7282 177.36ZM73.121 174.167L77.7829 175.838C79.8378 175.41 96.6895 171.859 103.879 169.079C108.222 167.413 115.715 164.986 121.477 163.171L114.427 164.042L73.121 174.167Z" fill="#000927"/>
<path d="M73.7678 173.62C73.5699 173.62 73.38 173.541 73.2401 173.401C73.1001 173.262 73.0215 173.072 73.0215 172.874V158.123C73.0215 157.925 73.1001 157.736 73.2401 157.596C73.38 157.456 73.5699 157.377 73.7678 157.377C73.9657 157.377 74.1556 157.456 74.2955 157.596C74.4355 157.736 74.5141 157.925 74.5141 158.123V172.874C74.5141 173.072 74.4355 173.262 74.2955 173.401C74.1556 173.541 73.9657 173.62 73.7678 173.62Z" fill="#000927"/>
<path fill-rule="evenodd" clip-rule="evenodd" d="M90.7986 173.64L89.6094 209.8L98.5005 206.075L100.108 171.128L90.7986 173.64Z" fill="#F1DBFF"/>
<path d="M89.6094 210.551C89.4579 210.552 89.31 210.505 89.1865 210.417C89.0834 210.347 88.9996 210.251 88.9431 210.14C88.8865 210.029 88.859 209.905 88.8631 209.78L90.0523 173.615C90.0597 173.456 90.1171 173.303 90.2162 173.178C90.3153 173.053 90.4511 172.962 90.6045 172.919L99.9185 170.407C100.032 170.377 100.151 170.375 100.266 170.399C100.381 170.423 100.488 170.473 100.58 170.546C100.671 170.62 100.744 170.715 100.792 170.822C100.841 170.929 100.864 171.046 100.859 171.163L99.2468 206.11C99.2398 206.251 99.1932 206.387 99.1121 206.502C99.0311 206.617 98.9191 206.707 98.7891 206.762L89.898 210.491C89.8069 210.531 89.7087 210.551 89.6094 210.551ZM91.5299 174.217L90.3956 208.666L97.7791 205.568L99.3214 172.118L91.5299 174.217Z" fill="#000927"/>
<path d="M52.3934 170.134V208.666L43.3034 204.693L42.3929 167.98L52.3934 170.134Z" fill="#F1DBFF"/>
<path d="M52.3984 209.412C52.2959 209.413 52.1943 209.392 52.0999 209.353L43.0048 205.374C42.8747 205.317 42.7636 205.224 42.6844 205.106C42.6051 204.988 42.5609 204.85 42.557 204.708L41.6465 168C41.6437 167.888 41.6665 167.776 41.713 167.673C41.7595 167.571 41.8287 167.48 41.9152 167.408C42.003 167.337 42.1058 167.285 42.2161 167.259C42.3263 167.232 42.4411 167.23 42.5521 167.254L52.5526 169.403C52.7198 169.439 52.8697 169.531 52.9773 169.664C53.085 169.797 53.144 169.963 53.1447 170.134V208.666C53.1441 208.791 53.113 208.913 53.054 209.022C52.995 209.131 52.9099 209.224 52.8064 209.293C52.6847 209.371 52.543 209.413 52.3984 209.412ZM44.0397 204.2L51.6521 207.527V170.725L43.164 168.9L44.0397 204.2Z" fill="#000927"/>
<path d="M69.173 162.317H74.5V172.971H69.173V162.317Z" fill="#00DDF4"/>
<path fill-rule="evenodd" clip-rule="evenodd" d="M72.7243 164.093H70.9487V171.195H72.7243V164.093ZM69.173 162.317V172.971H74.5V162.317H69.173Z" fill="#000927"/>
</g>
<g clip-path="url(#clip2_941_19407)">
<path d="M33.3067 106.16C33.3067 106.16 41.5239 99.8382 41.7563 88.5721C41.9886 77.3061 34.3485 85.9619 34.3485 85.9619C34.3485 85.9619 37.6824 94.5065 33.3067 106.16Z" fill="#FFCB2F"/>
<path d="M32.8499 106.778C32.7141 106.679 32.6145 106.539 32.5663 106.379C32.5181 106.219 32.5239 106.048 32.5827 105.891C36.792 94.6791 33.6591 86.315 33.6282 86.2382C33.5801 86.1096 33.5677 85.9705 33.5922 85.8355C33.6167 85.7005 33.6774 85.5745 33.7677 85.4705C34.1549 85.0329 37.6399 81.2021 40.2692 82.2116C41.8684 82.8296 42.5926 84.9178 42.5345 88.6027C42.2906 100.088 34.1276 106.513 33.783 106.782C33.6468 106.887 33.4792 106.944 33.3067 106.943C33.1405 106.938 32.9804 106.88 32.8499 106.778ZM35.2314 86.1461C35.8045 87.9118 37.5547 94.5025 35.03 103.393C37.396 100.706 40.8384 95.608 40.9856 88.5567C41.0437 85.7584 40.5984 83.9505 39.7078 83.628C39.5775 83.5811 39.4397 83.5577 39.3011 83.5589C38.0929 83.5589 36.2498 85.0905 35.2314 86.1461Z" fill="#000927"/>
<path d="M21.9956 101.581C21.9956 101.581 20.9192 93.4393 17.1824 97.5849C13.4456 101.73 14.9364 106.16 14.9364 106.16L21.9956 106.294V101.581Z" fill="#FFCB2F"/>
<path d="M21.9802 107.062L14.9209 106.928C14.7607 106.925 14.6056 106.873 14.4766 106.778C14.3476 106.684 14.2511 106.553 14.2007 106.402C14.1349 106.206 12.6169 101.504 16.6054 97.0745C17.6858 95.8768 18.7468 95.4239 19.7613 95.7348C20.1486 95.8538 22.1312 96.6906 22.7624 101.493C22.7643 101.526 22.7643 101.559 22.7624 101.592V106.306C22.7624 106.51 22.6809 106.705 22.5357 106.849C22.3904 106.993 22.1933 107.074 21.9879 107.074L21.9802 107.062ZM19.3045 97.2011C18.7972 97.0476 18.1234 97.6963 17.7556 98.0993C15.0449 101.093 15.3043 104.203 15.5405 105.393L21.2174 105.5V101.631C21.0006 99.9956 20.2261 97.489 19.3045 97.2011Z" fill="#000927"/>
<path d="M27.9436 109.788C27.9436 109.788 16.7138 104.375 21.8215 93.4316C26.9291 82.488 30.8517 79.5861 31.9631 82.4304C33.0744 85.2748 38.484 85.5741 33.3067 106.16L27.9436 109.788Z" fill="#FFCB2F"/>
<path d="M27.6067 110.478C27.4866 110.421 15.7572 104.606 21.1165 93.1092C23.2928 88.4377 27.4246 80.6378 30.7238 80.6378H30.7896C31.2853 80.6378 32.1877 80.872 32.6872 82.154C32.9114 82.6265 33.2064 83.0627 33.5623 83.4476C35.4674 85.7814 38.3447 89.3014 34.058 106.344C34.0126 106.527 33.9009 106.687 33.7443 106.793L28.3811 110.421C28.2523 110.508 28.0998 110.555 27.9436 110.555C27.8267 110.557 27.7111 110.53 27.6067 110.478ZM32.3618 84.4149C31.8988 83.9087 31.5211 83.332 31.2428 82.7068C31.0376 82.1847 30.8206 82.1771 30.7393 82.1732C29.7596 82.1732 26.8129 84.5838 22.5378 93.7502C20.5629 97.9918 20.9074 101.842 23.56 105.197C24.7686 106.683 26.2444 107.935 27.9126 108.889L32.6407 105.692C36.6253 89.6353 34.0618 86.4954 32.3618 84.4149Z" fill="#000927"/>
<path d="M25.9958 112.843C25.9958 112.843 16.6403 113.837 15.1765 111.534C13.7128 109.231 12.7409 102.99 17.9337 100.433L20.5087 99.5311L27.9437 109.788L25.9958 112.843Z" fill="#FFCB2F"/>
<path d="M14.5221 111.941C13.4688 110.29 12.8066 107.204 13.5695 104.506C13.8561 103.473 14.3633 102.514 15.0568 101.692C15.7503 100.871 16.6139 100.207 17.5889 99.746L17.678 99.7114L20.2493 98.8055C20.4073 98.7503 20.5793 98.7473 20.7392 98.7972C20.8991 98.847 21.0383 98.9469 21.136 99.0819L28.5708 109.342C28.6606 109.466 28.7112 109.614 28.716 109.766C28.7208 109.919 28.6798 110.069 28.598 110.198L26.6619 113.269C26.5994 113.367 26.5153 113.45 26.4161 113.511C26.3168 113.572 26.205 113.61 26.0888 113.622C24.6469 113.775 23.198 113.853 21.7479 113.856C18.8475 113.841 15.5018 113.484 14.5221 111.941ZM27.0103 109.814L20.226 100.445L18.2473 101.143C17.4735 101.508 16.7887 102.034 16.2398 102.686C15.691 103.338 15.2913 104.1 15.0681 104.92C14.4331 107.166 14.9907 109.791 15.8426 111.123C16.6403 112.375 21.9685 112.455 25.5542 112.117L27.0103 109.814Z" fill="#000927"/>
<path d="M33.3067 106.16C33.3067 106.16 35.5798 106.298 34.1354 108.601C32.6911 110.905 29.1943 110.01 27.9397 114.286C26.6851 118.562 23.715 114.751 24.8418 113.799C25.9687 112.847 29.1594 106.978 33.3067 106.16Z" fill="#FFCB2F"/>
<path d="M24.0053 115.273C23.6762 114.444 23.8079 113.672 24.3578 113.211C24.7735 112.768 25.1554 112.295 25.5002 111.795C27.1033 109.653 29.783 106.072 33.1558 105.408C33.2213 105.398 33.2877 105.398 33.3532 105.408C33.4887 105.408 34.6931 105.519 35.1965 106.479C35.5528 107.17 35.4172 108.014 34.8093 109.024C34.1084 110.141 33.0512 110.62 32.0289 111.081C30.6542 111.703 29.3532 112.29 28.7026 114.536C28.1063 116.574 27.1072 117.038 26.3792 117.073H26.2939C25.1942 117.042 24.3461 116.136 24.0053 115.273ZM26.7432 112.712C26.3407 113.304 25.8844 113.858 25.3801 114.367C25.3916 114.671 25.5174 114.96 25.7326 115.177C25.7996 115.274 25.8889 115.354 25.9933 115.41C26.0977 115.466 26.214 115.497 26.3327 115.499C26.5534 115.449 26.9135 115.046 27.2 114.071C28.048 111.169 29.8913 110.336 31.3705 109.669C32.2573 109.285 33.0242 108.924 33.4772 108.198C33.8645 107.596 33.8644 107.269 33.8179 107.17C33.7715 107.07 33.5275 106.97 33.3417 106.935C30.6 107.553 28.1914 110.774 26.7432 112.712Z" fill="#000927"/>
<path d="M34.4104 107.434C34.5213 107.435 34.6309 107.411 34.7318 107.365C37.1675 106.248 40.9546 106.909 40.9933 106.916C41.0935 106.934 41.1963 106.933 41.2959 106.912C41.3954 106.89 41.4898 106.85 41.5736 106.793C41.6574 106.735 41.729 106.662 41.7843 106.577C41.8395 106.492 41.8773 106.398 41.8956 106.298C41.9139 106.199 41.9123 106.097 41.8909 105.998C41.8695 105.9 41.8287 105.806 41.7708 105.723C41.7129 105.64 41.6391 105.569 41.5536 105.514C41.468 105.46 41.3724 105.422 41.2722 105.404C41.098 105.373 36.9662 104.636 34.0852 105.972C33.9261 106.046 33.7972 106.172 33.7197 106.328C33.6421 106.484 33.6204 106.662 33.6582 106.832C33.6961 107.002 33.7912 107.154 33.9278 107.264C34.0645 107.373 34.2347 107.434 34.4104 107.434Z" fill="#000927"/>
<path d="M41.0321 110.386C41.2059 110.386 41.3744 110.328 41.5109 110.221C41.6473 110.115 41.7436 109.966 41.7843 109.798C41.825 109.631 41.8076 109.455 41.7351 109.298C41.6626 109.142 41.5392 109.014 41.3846 108.935C41.2258 108.855 37.4774 106.993 34.3331 107.442C34.1277 107.471 33.9422 107.58 33.8176 107.744C33.6931 107.909 33.6396 108.116 33.6688 108.319C33.6981 108.523 33.8079 108.707 33.9738 108.83C34.1398 108.954 34.3483 109.007 34.5537 108.978C37.214 108.594 40.6488 110.302 40.6837 110.321C40.7935 110.368 40.9125 110.391 41.0321 110.386Z" fill="#000927"/>
</g>
<g clip-path="url(#clip3_941_19407)">
<path d="M209.522 138.383C209.522 138.383 201.558 132.2 201.329 121.228C201.1 110.255 208.512 118.681 208.512 118.681C208.512 118.681 205.276 127.017 209.522 138.383Z" fill="#FFCB2F"/>
<path d="M209.522 139.132C209.355 139.133 209.193 139.077 209.061 138.975C208.726 138.713 200.8 132.444 200.578 121.243C200.503 117.648 201.22 115.607 202.771 115.008C205.313 114.019 208.7 117.756 209.076 118.187C209.164 118.288 209.223 118.411 209.248 118.543C209.272 118.674 209.261 118.81 209.215 118.936C209.181 119.015 206.147 127.175 210.228 138.11C210.285 138.263 210.29 138.43 210.242 138.586C210.195 138.743 210.098 138.879 209.966 138.975C209.839 139.073 209.683 139.128 209.522 139.132ZM203.71 116.333C203.575 116.331 203.441 116.355 203.315 116.404C202.47 116.73 202.02 118.483 202.08 121.209C202.223 128.092 205.557 133.065 207.851 135.683C205.418 127.014 207.1 120.58 207.656 118.857C206.669 117.831 204.9 116.333 203.71 116.333Z" fill="#000927"/>
<path d="M220.491 133.919C220.491 133.919 221.535 125.976 225.158 130.021C228.782 134.065 227.34 138.383 227.34 138.383L220.491 138.514V133.919Z" fill="#FFCB2F"/>
<path d="M220.491 139.263C220.294 139.263 220.106 139.187 219.965 139.05C219.894 138.98 219.837 138.897 219.798 138.805C219.76 138.713 219.74 138.614 219.74 138.514V133.919C219.738 133.887 219.738 133.854 219.74 133.822C220.352 129.148 222.271 128.328 222.65 128.205C223.634 127.901 224.663 128.343 225.71 129.515C229.578 133.833 228.11 138.421 228.042 138.615C227.992 138.762 227.899 138.889 227.774 138.98C227.649 139.072 227.498 139.122 227.344 139.125L220.498 139.256L220.491 139.263ZM221.242 133.968V137.75L226.747 137.645C226.976 136.473 227.216 133.444 224.599 130.53C224.249 130.156 223.592 129.508 223.097 129.658C222.192 129.924 221.46 132.369 221.242 133.968Z" fill="#000927"/>
<path d="M214.723 141.926C214.723 141.926 225.613 136.646 220.66 125.965C215.707 115.285 211.903 112.457 210.825 115.232C209.748 118.007 204.502 118.299 209.522 138.383L214.723 141.926Z" fill="#FFCB2F"/>
<path d="M214.723 142.675C214.572 142.675 214.424 142.629 214.299 142.544L209.098 139.005C208.948 138.9 208.84 138.744 208.794 138.567C204.637 121.936 207.427 118.502 209.274 116.228C209.621 115.852 209.907 115.425 210.123 114.963C210.611 113.712 211.486 113.502 211.963 113.487H212.027C215.226 113.487 219.233 121.093 221.343 125.651C226.54 136.867 215.166 142.544 215.053 142.6C214.95 142.649 214.837 142.674 214.723 142.675ZM210.183 137.926L214.768 141.05C216.386 140.12 217.818 138.898 218.989 137.447C221.561 134.17 221.895 130.414 219.98 126.28C215.85 117.333 212.977 114.985 212.027 114.985C211.948 114.985 211.738 114.985 211.539 115.506C211.268 116.114 210.903 116.676 210.457 117.172C208.794 119.202 206.304 122.261 210.183 137.926Z" fill="#000927"/>
<path d="M216.612 144.907C216.612 144.907 225.684 145.877 227.103 143.626C228.523 141.375 229.465 135.294 224.43 132.8L221.933 131.916L214.723 141.926L216.612 144.907Z" fill="#FFCB2F"/>
<path d="M220.742 145.877C219.336 145.872 217.931 145.797 216.533 145.652C216.42 145.64 216.312 145.603 216.216 145.543C216.119 145.484 216.038 145.403 215.977 145.308L214.1 142.312C214.02 142.185 213.979 142.038 213.984 141.888C213.989 141.739 214.038 141.594 214.126 141.473L221.336 131.466C221.43 131.335 221.565 131.237 221.72 131.189C221.875 131.14 222.042 131.143 222.195 131.197L224.693 132.077L224.775 132.114C225.721 132.564 226.559 133.211 227.231 134.013C227.904 134.814 228.395 135.75 228.673 136.758C229.424 139.379 228.77 142.401 227.753 144.012C226.788 145.528 223.543 145.877 220.742 145.877ZM217.051 144.199C220.528 144.529 225.688 144.446 226.469 143.229C227.291 141.93 227.832 139.364 227.22 137.177C227.004 136.377 226.617 135.632 226.084 134.995C225.552 134.359 224.888 133.844 224.137 133.489L222.218 132.811L215.632 141.952L217.051 144.199Z" fill="#000927"/>
<path d="M209.522 138.383C209.522 138.383 207.318 138.522 208.719 140.769C210.119 143.016 213.51 142.143 214.727 146.311C215.943 150.479 218.823 146.764 217.731 145.836C216.638 144.907 213.536 139.181 209.522 138.383Z" fill="#FFCB2F"/>
<path d="M216.345 149H216.262C215.549 148.966 214.58 148.509 214.009 146.521C213.379 144.349 212.132 143.776 210.784 143.173C209.793 142.72 208.768 142.255 208.088 141.162C207.483 140.188 207.337 139.353 207.713 138.683C208.197 137.743 209.365 137.645 209.496 137.638C209.56 137.631 209.624 137.631 209.688 137.638C212.958 138.286 215.56 141.784 217.111 143.873C217.446 144.359 217.817 144.819 218.219 145.251C218.752 145.701 218.88 146.453 218.561 147.266C218.241 148.079 217.389 149 216.345 149ZM209.489 139.143C209.308 139.177 209.079 139.263 209.027 139.372C208.974 139.48 208.993 139.788 209.357 140.372C209.797 141.08 210.54 141.417 211.4 141.81C212.834 142.461 214.622 143.27 215.444 146.105C215.722 147.053 216.071 147.45 216.289 147.495C216.443 147.532 216.664 147.405 216.867 147.18C217.076 146.968 217.198 146.687 217.209 146.39C216.72 145.893 216.277 145.353 215.887 144.776C214.483 142.888 212.147 139.75 209.489 139.143Z" fill="#000927"/>
<path d="M208.452 139.63C208.344 139.63 208.238 139.606 208.141 139.559C205.779 138.473 202.106 139.113 202.069 139.121C201.969 139.145 201.866 139.148 201.765 139.13C201.665 139.113 201.569 139.075 201.483 139.02C201.398 138.964 201.324 138.891 201.268 138.806C201.211 138.721 201.173 138.626 201.155 138.526C201.137 138.425 201.139 138.322 201.162 138.223C201.185 138.124 201.229 138.03 201.289 137.948C201.35 137.866 201.426 137.797 201.515 137.746C201.603 137.694 201.701 137.662 201.802 137.649C201.971 137.615 205.974 136.9 208.768 138.2C208.924 138.271 209.051 138.393 209.128 138.546C209.205 138.7 209.227 138.875 209.19 139.042C209.153 139.209 209.059 139.359 208.925 139.466C208.791 139.573 208.624 139.631 208.452 139.63Z" fill="#000927"/>
<path d="M202.031 142.51C201.861 142.512 201.696 142.456 201.562 142.352C201.428 142.247 201.334 142.101 201.294 141.936C201.255 141.771 201.272 141.598 201.344 141.445C201.416 141.291 201.538 141.166 201.69 141.091C201.844 141.016 205.478 139.218 208.527 139.638C208.727 139.666 208.906 139.772 209.027 139.933C209.148 140.093 209.2 140.295 209.171 140.494C209.143 140.692 209.037 140.871 208.876 140.992C208.715 141.112 208.512 141.164 208.313 141.136C205.734 140.761 202.403 142.428 202.369 142.443C202.263 142.491 202.148 142.514 202.031 142.51Z" fill="#000927"/>
</g>
<path d="M79.7822 163.595H63.7742C62.4822 163.604 61.2014 163.356 60.0055 162.868C58.8095 162.379 57.7222 161.658 56.8061 160.747C55.89 159.836 55.1633 158.753 54.6679 157.56C54.1725 156.367 53.9182 155.087 53.9197 153.795V142.616C53.9196 140.012 54.9504 137.513 56.7866 135.667C58.6229 133.82 61.1154 132.776 63.7194 132.761H79.7384C82.352 132.761 84.8585 133.8 86.7066 135.648C88.5547 137.496 89.5929 140.002 89.5929 142.616V153.795C89.5929 156.409 88.5547 158.915 86.7066 160.763C84.8585 162.611 82.352 163.65 79.7384 163.65" fill="#00DDF4"/>
<path fill-rule="evenodd" clip-rule="evenodd" d="M63.7622 161.819L63.7742 161.819L79.7822 161.819V161.874C81.909 161.862 83.9463 161.013 85.451 159.508C86.9661 157.993 87.8173 155.938 87.8173 153.795V142.616C87.8173 140.473 86.9661 138.418 85.451 136.903C83.936 135.388 81.8811 134.537 79.7384 134.537H63.7246C61.5914 134.55 59.55 135.406 58.0457 136.919C56.5403 138.433 55.6953 140.481 55.6953 142.616V153.795H53.9197V142.616C53.9196 140.012 54.9504 137.513 56.7866 135.667C58.6229 133.82 61.1154 132.776 63.7194 132.761H79.7384C82.352 132.761 84.8585 133.8 86.7066 135.648C88.5547 137.496 89.5929 140.002 89.5929 142.616V153.795C89.5929 156.409 88.5547 158.915 86.7066 160.763C84.8688 162.601 82.38 163.638 79.7822 163.65C79.7676 163.65 79.753 163.65 79.7384 163.65L79.7822 163.595H63.7742C62.4822 163.604 61.2014 163.356 60.0055 162.868C58.8095 162.379 57.7222 161.658 56.8061 160.747C55.89 159.836 55.1633 158.753 54.6679 157.56C54.1725 156.367 53.9182 155.087 53.9197 153.795L55.6953 153.797C55.6941 154.855 55.9023 155.902 56.3078 156.879C56.7134 157.856 57.3082 158.742 58.0581 159.488C58.8081 160.234 59.6982 160.824 60.6772 161.224C61.6561 161.624 62.7046 161.826 63.7622 161.819Z" fill="#000927"/>
<path d="M78.0512 144.897C78.0512 143.701 77.7272 142.645 76.7327 141.448C76.088 140.601 74.8111 139.757 74.8111 139.757C74.0236 139.218 72.7748 139.031 71.8714 139.031C68.6774 139.031 65.6218 141.002 65.6218 144.897C65.6218 148.513 68.0969 150.715 71.8714 150.715C74.0011 150.715 75.1126 151.606 75.1126 152.997C75.1126 154.429 73.3992 155.11 71.8253 155.11C70.0432 155.086 68.377 154.171 68.4693 152.551H65.6679C65.5554 155.859 67.8674 157.878 71.8253 157.878C74.8809 157.878 78.0512 156.281 78.0512 152.997C78.0512 151.871 77.6586 150.134 75.2274 149.241C77.1028 148.371 78.0512 146.963 78.0512 144.897ZM71.8714 148.092C70.0196 148.092 68.4456 146.918 68.4456 144.897C68.4456 142.738 70.0207 141.682 71.8714 141.682C73.7221 141.682 75.2274 142.926 75.2274 144.897C75.2274 146.893 73.7232 148.089 71.8714 148.089V148.092Z" fill="#000927"/>
<path d="M77.9759 138.346H74.7819V141.585H77.9759V138.346Z" fill="white"/>
<defs>
<clipPath id="clip0_941_19407">
<rect width="134.949" height="177.564" fill="white" transform="translate(78.0513 26.4808)"/>
</clipPath>
<clipPath id="clip1_941_19407">
<rect width="114.529" height="68.3622" fill="white" transform="translate(15.9038 148.112)"/>
</clipPath>
<clipPath id="clip2_941_19407">
<rect width="29.2981" height="36.4007" fill="white" transform="translate(13.2404 80.6378)"/>
</clipPath>
<clipPath id="clip3_941_19407">
<rect width="28.4102" height="35.5128" fill="white" transform="translate(200.57 113.487)"/>
</clipPath>
</defs>
</svg>
