<?xml version="1.0" encoding="UTF-8"?>
<!DOCTYPE svg PUBLIC "-//W3C//DTD SVG 1.1//EN" "http://www.w3.org/Graphics/SVG/1.1/DTD/svg11.dtd">
<!-- Creator: CorelDRAW 2018 -->
<svg xmlns="http://www.w3.org/2000/svg" xml:space="preserve" width="40.2166mm" height="26.9875mm" version="1.1" style="shape-rendering:geometricPrecision; text-rendering:geometricPrecision; image-rendering:optimizeQuality; fill-rule:evenodd; clip-rule:evenodd"
viewBox="0 0 548.14 367.83"
 xmlns:xlink="http://www.w3.org/1999/xlink">
 <defs>
  <style type="text/css">
   <![CDATA[
    .fil0 {fill:#2CBAD8}
    .fil1 {fill:#E73743}
    .fil2 {fill:#FDC608}
   ]]>
  </style>
 </defs>
 <g id="Layer_x0020_1">
  <metadata id="CorelCorpID_0Corel-Layer"/>
  <g id="_632053496">
   <g>
    <path id="Fill-242" class="fil0" d="M-0 219.98c0,81.66 66.19,147.85 147.85,147.85 81.66,0 147.85,-66.2 147.85,-147.85 0,-81.66 -66.2,-147.85 -147.85,-147.85 -81.66,0 -147.85,66.2 -147.85,147.85l0 0zm235.31 0c0,48.3 -39.16,87.46 -87.46,87.46 -48.3,0 -87.46,-39.16 -87.46,-87.46 0,-48.3 39.16,-87.46 87.46,-87.46 48.3,0 87.46,39.16 87.46,87.46z"/>
   </g>
   <path id="Fill-244" class="fil1" d="M144.25 180.31c19.92,0 36.06,16.15 36.06,36.06 0,19.92 -16.15,36.06 -36.06,36.06 -19.92,0 -36.06,-16.14 -36.06,-36.06 0,-19.92 16.15,-36.06 36.06,-36.06z"/>
   <g>
    <path id="Fill-246" class="fil1" d="M295.7 126.22c0,69.71 56.51,126.22 126.21,126.22 69.71,0 126.22,-56.51 126.22,-126.22 0,-69.71 -56.51,-126.22 -126.22,-126.22 -69.71,0 -126.21,56.51 -126.21,126.22l0 0zm200.88 0c0,41.23 -33.43,74.66 -74.66,74.66 -41.23,0 -74.66,-33.43 -74.66,-74.66 0,-41.23 33.43,-74.66 74.66,-74.66 41.23,0 74.66,33.43 74.66,74.66z"/>
   </g>
   <path id="Fill-248" class="fil2" d="M425.53 93.76c17.93,0 32.46,14.53 32.46,32.45 0,17.93 -14.53,32.46 -32.46,32.46 -17.93,0 -32.45,-14.53 -32.45,-32.46 0,-17.92 14.53,-32.45 32.45,-32.45z"/>
  </g>
 </g>
</svg>
