<svg width="24" height="24" viewBox="0 0 24 24" fill="none" xmlns="http://www.w3.org/2000/svg">
<path fill-rule="evenodd" clip-rule="evenodd" d="M6.69231 6.69231H4.84615V19.6154H10.3846V21.4615H4.84615C3.83077 21.4615 3 20.6308 3 19.6154V6.69231C3 5.67692 3.83077 4.84615 4.84615 4.84615H8.70462C9.09231 3.77538 10.1077 3 11.3077 3C12.5077 3 13.5231 3.77538 13.9108 4.84615H17.7692C18.7846 4.84615 19.6154 5.67692 19.6154 6.69231V11.3077H17.7692V6.69231H15.9231V9.46154H6.69231V6.69231ZM12.2308 5.76923C12.2308 5.26154 11.8154 4.84615 11.3077 4.84615C10.8 4.84615 10.3846 5.26154 10.3846 5.76923C10.3846 6.27692 10.8 6.69231 11.3077 6.69231C11.8154 6.69231 12.2308 6.27692 12.2308 5.76923Z" fill="#4A546A"/>
<path d="M19.6155 12.6923L14.5478 17.7692L11.7694 15L10.3848 16.3846L14.5478 20.5384L21.0002 14.0769L19.6155 12.6923Z" fill="#4A546A"/>
</svg>
