<?xml version="1.0" encoding="UTF-8"?>
<!DOCTYPE svg PUBLIC "-//W3C//DTD SVG 1.1//EN" "http://www.w3.org/Graphics/SVG/1.1/DTD/svg11.dtd">
<!-- Creator: CorelDRAW 2018 -->
<svg xmlns="http://www.w3.org/2000/svg" xml:space="preserve" width="34.3824mm" height="33.0196mm" version="1.1" style="shape-rendering:geometricPrecision; text-rendering:geometricPrecision; image-rendering:optimizeQuality; fill-rule:evenodd; clip-rule:evenodd"
viewBox="0 0 124751.94 119807.21"
 xmlns:xlink="http://www.w3.org/1999/xlink">
 <defs>
  <style type="text/css">
   <![CDATA[
    .str0 {stroke:white;stroke-width:673.06;stroke-miterlimit:22.9256}
    .fil4 {fill:none}
    .fil0 {fill:#2CBAD8}
    .fil1 {fill:#E73743}
    .fil2 {fill:#FDC608}
    .fil3 {fill:white}
   ]]>
  </style>
   <clipPath id="id0">
    <path d="M-0 0l124751.94 0 0 119807.21 -124751.94 0 0 -119807.21z"/>
   </clipPath>
 </defs>
 <g id="Layer_x0020_1">
  <metadata id="CorelCorpID_0Corel-Layer"/>
  <g>
  </g>
  <g style="clip-path:url(#id0)">
   <g>
    <g id="_632638488">
     <g id="Desktop">
      <g id="Home-empty-desktop">
       <g id="Group-9">
        <g id="Group-7-Copy">
         <polygon id="Fill-231" class="fil0" points="124656.88,87119.98 124656.88,54479.56 123915.97,54479.56 92016.46,87119.98 "/>
         <polygon id="Fill-233" class="fil0" points="124656.88,119760.04 92016.46,119760.04 124656.88,87119.98 "/>
        </g>
        <g id="Group-250-Copy">
         <g>
          <path id="Fill-242" class="fil0" d="M3696.22 28559.6c0,21737.91 17621.89,39360.16 39359.79,39360.16 21737.91,0 39360.52,-17622.25 39360.52,-39360.16 0,-21738.27 -17622.61,-39360.16 -39360.52,-39360.16 -21737.91,0 -39359.79,17621.89 -39359.79,39360.16l0 0zm62643.38 0c0,12858.93 -10424.66,23283.59 -23283.59,23283.59 -12858.93,0 -23283.59,-10424.66 -23283.59,-23283.59 0,-12859.29 10424.66,-23283.59 23283.59,-23283.59 12858.93,0 23283.59,10424.3 23283.59,23283.59z"/>
         </g>
         <path id="Fill-244" class="fil1" d="M42096.31 17999.6c5301.77,0 9599.93,4297.8 9599.93,9600.29 0,5301.77 -4298.16,9599.57 -9599.93,9599.57 -5301.77,0 -9599.93,-4297.8 -9599.93,-9599.57 0,-5302.49 4298.16,-9600.29 9599.93,-9600.29z"/>
         <g>
          <path id="Fill-246" class="fil1" d="M82416.53 3599.34c0,18556.92 15043.21,33600.12 33599.76,33600.12 18557.28,0 33600.49,-15043.21 33600.49,-33600.12 0,-18556.92 -15043.21,-33600.12 -33600.49,-33600.12 -18556.55,0 -33599.76,15043.21 -33599.76,33600.12l0 0zm53476.32 0c0,10977.26 -8899.29,19876.55 -19876.55,19876.55 -10977.26,0 -19875.47,-8899.29 -19875.47,-19876.55 0,-10977.26 8898.21,-19876.55 19875.47,-19876.55 10977.26,0 19876.55,8899.29 19876.55,19876.55z"/>
         </g>
         <path id="Fill-248" class="fil2" d="M116976.72 -5040.53c4772.03,0 8640.23,3868.56 8640.23,8639.87 0,4772.03 -3868.2,8640.23 -8640.23,8640.23 -4772.03,0 -8639.87,-3868.2 -8639.87,-8640.23 0,-4771.3 3867.84,-8639.87 8639.87,-8639.87z"/>
        </g>
        <g id="Group-284-Copy-3">
         <path id="Fill-264" class="fil3" d="M70580.07 101307.62c-2625.49,0 -4754.61,2121.51 -4754.61,4739.01 0,2616.78 2129.13,4738.28 4754.61,4738.28 2625.85,0 4754.97,-2121.51 4754.97,-4738.28 0,-2617.5 -2129.13,-4739.01 -4754.97,-4739.01z"/>
         <path id="Fill-266" class="fil3" d="M70580.07 79767.1c-2625.49,0 -4754.61,2121.51 -4754.61,4739.01 0,2617.14 2129.13,4738.65 4754.61,4738.65 2625.85,0 4754.97,-2121.51 4754.97,-4738.65 0,-2617.5 -2129.13,-4739.01 -4754.97,-4739.01z"/>
         <path id="Fill-270" class="fil3" d="M46525.09 103227.75c-2625.49,0 -4754.61,2121.51 -4754.61,4738.65 0,2617.14 2129.13,4738.65 4754.61,4738.65 2625.85,0 4754.97,-2121.51 4754.97,-4738.65 0,-2617.14 -2129.13,-4738.65 -4754.97,-4738.65z"/>
         <path id="Fill-272" class="fil3" d="M46525.09 81687.23c-2625.49,0 -4754.61,2121.51 -4754.61,4739.01 0,2616.78 2129.13,4738.28 4754.61,4738.28 2625.85,0 4754.97,-2121.51 4754.97,-4738.28 0,-2617.5 -2129.13,-4739.01 -4754.97,-4739.01z"/>
         <path id="Stroke-276" class="fil4 str0" d="M58600.29 91107.19c-2646.89,0 -4792.35,2146.18 -4792.35,4793.8 0,2647.62 2145.45,4793.8 4792.35,4793.8 2646.53,0 4791.98,-2146.18 4791.98,-4793.8 0,-2647.62 -2145.45,-4793.8 -4791.98,-4793.8zm-24245.83 4799.97c-2646.53,0 -4792.71,2146.18 -4792.71,4793.8 0,2647.98 2146.18,4793.8 4792.71,4793.8 2646.89,0 4792.35,-2145.82 4792.35,-4793.8 0,-2647.62 -2145.45,-4793.8 -4792.35,-4793.8z"/>
         <path id="Fill-278" class="fil3" d="M22469.75 107067.65c-2625.49,0 -4754.61,2121.51 -4754.61,4739.01 0,2616.78 2129.13,4738.28 4754.61,4738.28 2625.85,0 4754.97,-2121.51 4754.97,-4738.28 0,-2617.5 -2129.13,-4739.01 -4754.97,-4739.01z"/>
         <path id="Fill-282" class="fil3" d="M22469.75 85527.13c-2625.49,0 -4754.61,2121.51 -4754.61,4739.01 0,2617.14 2129.13,4738.65 4754.61,4738.65 2625.85,0 4754.97,-2121.51 4754.97,-4738.65 0,-2617.5 -2129.13,-4739.01 -4754.97,-4739.01z"/>
        </g>
       </g>
      </g>
     </g>
    </g>
   </g>
  </g>
  <polygon class="fil4" points="-0,0 124751.94,0 124751.94,119807.21 -0,119807.21 "/>
 </g>
</svg>
