<svg width="121" height="36" viewBox="0 0 121 36" fill="none" xmlns="http://www.w3.org/2000/svg">
<g clip-path="url(#clip0_4748_7945)">
<path fill-rule="evenodd" clip-rule="evenodd" d="M16.3221 14.3805C17.6139 13.1152 19.7048 13.1152 20.9992 14.3805L27.7873 21.0256C28.0523 21.1971 28.3075 21.3888 28.5505 21.6007L35.558 28.3709L30.8315 32.9373L19.3349 21.8261C21.621 19.6153 25.148 19.3433 27.7472 20.9998C25.1503 18.6932 21.1368 18.768 18.6344 21.224L6.69684 32.9373L2.03027 28.3626L16.3221 14.3805ZM77.9673 14.3805C79.2617 13.1152 81.3526 13.1152 82.6469 14.3805L89.635 21.224C87.0515 18.6909 82.8657 18.6909 80.2796 21.224L68.3446 32.9373L63.678 28.3626L77.9673 14.3805ZM79.9011 21.8273C82.4316 19.3766 86.4867 19.3075 89.1167 21.6019L96.1242 28.3714L91.399 32.9373L79.9011 21.8273ZM99.3689 19.9335C99.3662 23.5342 102.351 26.4522 106.034 26.447L119.918 26.4341L119.912 32.9373L102.704 32.927C100.865 32.927 99.3702 31.4686 99.3689 29.667V19.9335ZM61.1767 13.4316L65.8411 18.0065L51.5505 31.9893C50.2586 33.2533 48.1648 33.2533 46.8729 31.9893L39.8842 25.1455C42.4679 27.6774 46.6567 27.6774 49.2379 25.1455L61.1767 13.4316ZM38.1192 13.4316L49.618 24.5435C47.0887 26.9921 43.0306 27.0612 40.4017 24.7663L33.3949 17.9983L38.1192 13.4316ZM105.858 13.4316L105.845 25.3517C102.373 25.353 99.5413 22.7006 99.3689 19.3629L99.3727 13.4353L105.858 13.4316ZM48.6989 2.59504C49.5357 2.59504 50.266 2.90042 50.8663 3.53384C51.477 4.14859 51.7811 4.9447 51.7811 5.91951C51.7811 6.89698 51.477 7.69042 50.8663 8.32251C50.266 8.93993 49.5357 9.24664 48.6989 9.24664C47.6334 9.24664 46.82 8.85992 46.2456 8.07848V11.2643H45.2919V2.74839H46.2456V3.7632C46.82 2.98043 47.6334 2.59504 48.6989 2.59504ZM21.5563 0.427734C23.4262 0.427734 24.9423 1.33566 25.5477 2.84498L24.6527 3.15538C24.0552 1.97068 22.9335 1.34729 21.5563 1.34729C20.6089 1.34729 19.8017 1.68615 19.1557 2.34704C18.5136 3.00535 18.1834 3.80463 18.1834 4.7617C18.1834 5.72135 18.5136 6.53227 19.1688 7.19317C19.8371 7.85277 20.6469 8.1761 21.6048 8.1761C22.4919 8.1761 23.2231 7.90321 23.8167 7.35483C24.4103 6.80646 24.7641 6.10806 24.8676 5.24799H21.1278V4.35042H25.8137C25.8242 4.46294 25.8242 4.60262 25.8242 4.77592C25.8242 6.00847 25.4179 7.02891 24.6265 7.86441C23.8311 8.68697 22.8182 9.09695 21.5838 9.09695C20.3416 9.09695 19.2985 8.67662 18.4494 7.84113C17.6043 7.00434 17.1718 5.97226 17.1718 4.7617C17.1718 3.55243 17.5898 2.52164 18.4363 1.68615C19.2828 0.851948 20.3298 0.427734 21.5563 0.427734ZM32.903 2.59504C33.1027 2.59504 33.2662 2.6086 33.3949 2.64791L33.3125 3.60232C33.2256 3.58741 33.0867 3.58741 32.903 3.58741C31.1349 3.58741 30.1452 4.80211 30.1452 6.61874V9.09695H29.0688V2.66147H30.1452V4.24085C30.7877 3.1441 31.7079 2.59504 32.903 2.59504ZM36.4595 2.59504V6.21226C36.4595 7.39662 37.1067 8.18262 38.0556 8.18262C39.2868 8.18262 40.0606 7.25492 40.0606 5.64548V2.59504H40.9657V8.92986H40.0606V7.89923C39.5666 8.6986 38.8428 9.09695 37.8817 9.09695C37.1882 9.09695 36.625 8.855 36.1894 8.34971C35.7697 7.8471 35.558 7.20546 35.558 6.39406V2.59504H36.4595ZM58.2755 2.59504C59.1816 2.59504 59.9512 2.89849 60.5729 3.51585C61.2048 4.12144 61.515 4.88922 61.515 5.83357C61.515 6.78054 61.2048 7.56009 60.5729 8.17745C59.9512 8.7922 59.1816 9.09695 58.2755 9.09695C57.3578 9.09695 56.5895 8.7922 55.9575 8.17745C55.3359 7.56009 55.0257 6.78054 55.0257 5.83357C55.0257 4.88922 55.3359 4.12144 55.9575 3.51585C56.5895 2.89849 57.3578 2.59504 58.2755 2.59504ZM48.5469 3.45649C47.9362 3.45649 47.3943 3.68586 46.9304 4.14859C46.4704 4.59665 46.2456 5.19007 46.2456 5.91951C46.2456 6.64094 46.4704 7.23169 46.9304 7.69042C47.3943 8.14249 47.9362 8.37452 48.5469 8.37452C49.1979 8.37452 49.7514 8.15582 50.1893 7.70776C50.6272 7.25703 50.8546 6.65294 50.8546 5.91951C50.8546 5.19007 50.6272 4.58599 50.1893 4.13526C49.7514 3.68586 49.1979 3.45649 48.5469 3.45649ZM58.2755 3.43999C57.6294 3.43999 57.0863 3.66496 56.6255 4.12144C56.1712 4.56484 55.946 5.14035 55.946 5.83357C55.946 6.53987 56.1712 7.12061 56.6255 7.57186C57.0863 8.02573 57.6294 8.25331 58.2755 8.25331C58.9087 8.25331 59.4544 8.02573 59.9023 7.57186C60.3618 7.12061 60.5844 6.53987 60.5844 5.83357C60.5844 5.14035 60.3618 4.56484 59.9023 4.12144C59.4544 3.66496 58.9087 3.43999 58.2755 3.43999Z" fill="white"/>
</g>
<defs>
<clipPath id="clip0_4748_7945">
<rect width="120.051" height="34.6769" fill="white" transform="translate(0.948242 0.427734)"/>
</clipPath>
</defs>
</svg>
