<svg width="162" height="40" viewBox="0 0 162 40" fill="none" xmlns="http://www.w3.org/2000/svg">
<g clip-path="url(#clip0_4748_7921)">
<path d="M53.8429 13.8799C53.8429 20.625 49.2331 26.0882 41.6346 26.0882C34.0361 26.0882 29.4727 20.625 29.4727 13.8799C29.4727 7.13477 34.1253 1.66797 41.5846 1.66797C49.0439 1.66797 53.8429 7.18119 53.8429 13.8763M35.268 13.8763C35.268 17.4399 37.4068 20.7643 41.6346 20.7643C45.8623 20.7643 48.0012 17.4399 48.0012 13.8763C48.0012 10.3127 45.5303 6.94195 41.6346 6.94195C37.4533 6.94195 35.268 10.3627 35.268 13.8763Z" fill="white"/>
<path d="M63.6944 2.14648V14.4013C63.6944 17.9648 65.6404 20.6715 69.3469 20.6715C73.0533 20.6715 75.3314 17.6792 75.3314 14.1156V2.14648H81.0803V25.6134H75.9027L75.5207 22.4318C73.0997 24.8064 70.8644 25.949 67.5865 25.949C61.9804 25.949 57.8955 21.7213 57.8955 14.4512V2.14648H63.6908H63.6944Z" fill="white"/>
<path d="M25.5129 13.261C25.5129 10.8365 24.8488 8.70121 22.8063 6.27668C21.4816 4.56272 18.8642 2.85591 18.8642 2.85591C17.2502 1.76326 14.6829 1.38477 12.8297 1.38477C6.27021 1.38477 0 5.37328 0 13.261C0 20.5775 5.08473 25.0445 12.8261 25.0445C17.1967 25.0445 19.4784 26.8513 19.4784 29.6543C19.4784 32.4573 15.9612 33.9285 12.7332 33.9285C9.07324 33.882 5.65605 32.0288 5.8453 28.7509H0.0964099C-0.142829 35.4496 4.60982 39.5345 12.7332 39.5345C19.0035 39.5345 25.5129 36.303 25.5129 29.6543C25.5129 27.3726 24.7059 23.859 19.7176 22.0522C23.5669 20.2954 25.5129 17.4424 25.5129 13.2646M12.8297 19.7241C9.03039 19.7241 5.79888 17.3495 5.79888 13.2646C5.79888 8.89403 9.03039 6.75515 12.8297 6.75515C16.6289 6.75515 19.7176 9.27252 19.7176 13.2646C19.7176 17.2567 16.6289 19.7241 12.8297 19.7241Z" fill="white"/>
<path d="M91.775 10.9843H90.8287L87.208 2.46094H88.1435L91.3001 10.0523L94.4102 2.46094H95.3564L91.775 10.9843Z" fill="white"/>
<path d="M96.2171 8.30123C96.3277 9.55099 97.299 10.2937 98.4881 10.2937C99.2165 10.2937 100.091 10.0009 100.516 9.46886L101.063 9.95448C100.466 10.6936 99.4343 11.0721 98.4881 11.0721C96.7027 11.0721 95.3779 9.86878 95.3779 7.9513C95.3779 6.15522 96.6634 4.85547 98.4488 4.85547C100.234 4.85547 101.666 5.9374 101.437 8.3048H96.2171V8.30123ZM100.673 7.60851C100.648 6.29805 99.6664 5.58033 98.4631 5.58033C97.2597 5.58033 96.3742 6.30876 96.2171 7.60851H100.673Z" fill="white"/>
<path d="M107.619 10.9621V7.59847C107.619 6.30943 106.865 5.63099 105.665 5.63099C104.501 5.64527 103.698 6.54153 103.698 7.69488V10.9621H102.884V4.96326H103.662L103.687 5.97021C104.184 5.20607 104.962 4.86328 105.776 4.86328C107.329 4.86328 108.447 5.78453 108.447 7.58418V10.9585H107.622L107.619 10.9621Z" fill="white"/>
<path d="M116.078 2.46094V10.9629H115.289L115.264 9.75952C114.778 10.6236 113.853 11.07 112.907 11.07C111.208 11.07 109.883 9.95234 109.883 7.95987C109.883 5.9674 111.208 4.85333 112.907 4.85333C113.843 4.85333 114.814 5.26754 115.264 6.15308V2.46094H116.078ZM110.701 7.95987C110.701 9.46672 111.707 10.2916 112.957 10.2916C114.207 10.2916 115.228 9.34532 115.228 7.94916C115.228 6.553 114.232 5.63175 112.957 5.63175C111.682 5.63175 110.701 6.4316 110.701 7.96344" fill="white"/>
<path d="M118.42 8.30123C118.531 9.55099 119.502 10.2937 120.691 10.2937C121.42 10.2937 122.294 10.0009 122.719 9.46886L123.266 9.95448C122.669 10.6936 121.637 11.0721 120.691 11.0721C118.906 11.0721 117.581 9.86878 117.581 7.9513C117.581 6.15522 118.867 4.85547 120.652 4.85547C122.437 4.85547 123.869 5.9374 123.641 8.3048H118.42V8.30123ZM122.876 7.60851C122.851 6.29805 121.87 5.58033 120.666 5.58033C119.463 5.58033 118.577 6.30876 118.42 7.60851H122.876Z" fill="white"/>
<path d="M125.608 12.0662H125.001L125.34 11.0092C125.133 10.9485 124.976 10.7914 124.976 10.5236C124.976 9.82016 126.129 9.77017 126.129 10.5343C126.129 10.8378 125.861 11.3234 125.608 12.0626" fill="white"/>
<path d="M92.793 24.7157C92.161 25.3335 91.3826 25.6263 90.572 25.6263C88.8724 25.6263 87.4619 24.4836 87.4619 22.5304C87.4619 20.5772 88.8331 19.4453 90.572 19.4453C91.3719 19.4453 92.0789 19.7238 92.6966 20.3309L92.161 20.8522C91.7111 20.4166 91.1648 20.2095 90.5827 20.2095C89.308 20.2095 88.276 21.0593 88.276 22.5304C88.276 24.0016 89.3187 24.8478 90.572 24.8478C91.179 24.8478 91.7861 24.6157 92.236 24.1694L92.793 24.7157Z" fill="white"/>
<path d="M99.7523 22.5427C99.7523 24.3995 98.4418 25.6278 96.6672 25.6278C94.8925 25.6278 93.582 24.4031 93.582 22.5427C93.582 20.6823 94.8675 19.4219 96.6672 19.4219C98.4668 19.4219 99.7523 20.6859 99.7523 22.5427ZM94.3962 22.5427C94.3962 23.9389 95.3424 24.8637 96.6672 24.8637C97.9919 24.8637 98.9381 23.9424 98.9381 22.5427C98.9381 21.143 98.0026 20.1646 96.6672 20.1646C95.3317 20.1646 94.3962 21.1608 94.3962 22.5427Z" fill="white"/>
<path d="M105.59 25.5317V22.0574C105.59 21.0005 104.886 20.1863 103.829 20.1863C102.772 20.1863 102.069 21.0005 102.069 22.0574V25.5317H101.255V19.5329H102.019L102.055 20.4684C102.444 19.715 103.183 19.4258 103.912 19.4258C104.772 19.4258 105.672 19.8007 106.025 20.8112C106.425 19.865 107.3 19.4258 108.186 19.4258C109.714 19.4258 110.71 20.4577 110.71 22.036V25.5317H109.896V22.036C109.896 20.9683 109.228 20.1899 108.171 20.1899C107.114 20.1899 106.397 21.004 106.397 22.061V25.5353H105.583L105.59 25.5317Z" fill="white"/>
<path d="M112.532 28.3945V19.532H113.321L113.346 20.8067C113.807 19.9569 114.732 19.4355 115.774 19.4355C117.463 19.4855 118.724 20.6496 118.724 22.5314C118.724 24.4132 117.435 25.6522 115.689 25.6522C114.768 25.6522 113.818 25.2273 113.332 24.3167V28.3981H112.532V28.3945ZM117.91 22.5278C117.91 21.0352 116.939 20.2211 115.649 20.2211C114.36 20.2211 113.403 21.2066 113.403 22.5421C113.403 23.8775 114.364 24.8595 115.649 24.8595C116.935 24.8595 117.91 24.0347 117.91 22.5278Z" fill="white"/>
<path d="M121.009 19.5316L121.059 20.5136C121.448 19.7137 122.248 19.4316 122.965 19.4316C123.512 19.4316 123.89 19.553 124.326 19.8566L123.951 20.535C123.647 20.3279 123.308 20.2172 122.919 20.2172C121.887 20.2279 121.062 21.017 121.062 22.1097V25.5233H120.248V19.5245H121.012L121.009 19.5316Z" fill="white"/>
<path d="M130.139 19.531H130.903V25.5299H130.15V24.3408C129.628 25.2263 128.668 25.6513 127.768 25.6513C126.068 25.6513 124.708 24.4372 124.708 22.5304C124.708 20.6237 126.079 19.4453 127.779 19.4453C128.7 19.4453 129.686 19.8702 130.136 20.7201V19.531H130.139ZM125.526 22.5304C125.526 23.9516 126.547 24.8871 127.807 24.8871C130.903 24.8871 130.903 20.188 127.807 20.188C126.543 20.188 125.526 21.1236 125.526 22.5304Z" fill="white"/>
<path d="M136.62 25.5317V20.297H135.431V19.5936H136.62V19.0972C136.62 17.7975 137.252 16.9727 138.537 16.9727C139.012 16.9727 139.448 17.1298 139.823 17.3976L139.469 18.0046C139.141 17.8118 138.898 17.7011 138.548 17.7011C137.855 17.7011 137.43 18.126 137.43 19.0972V19.5936H139.348V20.297H137.43V25.5317H136.616H136.62Z" fill="white"/>
<path d="M145.336 20.7216V19.5325H146.101V25.5314H145.347V24.3423C144.826 25.2279 143.865 25.6528 142.965 25.6528C141.266 25.6528 139.905 24.4387 139.905 22.532C139.905 20.6252 141.276 19.4468 142.976 19.4468C143.897 19.4468 144.883 19.8718 145.333 20.7216M143.001 20.186C141.737 20.186 140.719 21.1215 140.719 22.5284C140.719 23.9353 141.741 24.8851 143.001 24.8851C146.097 24.8851 146.097 20.186 143.001 20.186ZM144.508 16.9688H143.537L142.626 18.4756V18.5256H143.369L144.512 16.9937V16.9688H144.508Z" fill="white"/>
<path d="M152.939 24.7157C152.307 25.3335 151.528 25.6263 150.718 25.6263C149.018 25.6263 147.607 24.4836 147.607 22.5304C147.607 20.5772 148.979 19.4453 150.718 19.4453C151.517 19.4453 152.224 19.7238 152.842 20.3309L152.307 20.8522C151.857 20.4166 151.31 20.2095 150.728 20.2095C149.453 20.2095 148.422 21.0593 148.422 22.5304C148.422 24.0016 149.464 24.8478 150.718 24.8478C151.325 24.8478 151.932 24.6157 152.381 24.1694L152.939 24.7157Z" fill="white"/>
<path d="M155.257 17.6493C155.257 18.4134 154.104 18.4134 154.104 17.6493C154.104 16.8851 155.257 16.8851 155.257 17.6493ZM154.261 25.5299H155.075V19.5061H154.261V25.5299Z" fill="white"/>
<path d="M157.866 17.0293H157.052V25.5276H157.866V17.0293Z" fill="white"/>
<path d="M161.411 25.1669C161.411 25.931 160.258 25.931 160.258 25.1669C160.258 24.4027 161.411 24.4027 161.411 25.1669Z" fill="white"/>
<path d="M25.3557 0H18.7998V6.55587H25.3557V0Z" fill="#00DDF4"/>
</g>
<defs>
<clipPath id="clip0_4748_7921">
<rect width="161.412" height="39.5316" fill="white"/>
</clipPath>
</defs>
</svg>
