<svg width="134" height="20" viewBox="0 0 134 20" fill="none" xmlns="http://www.w3.org/2000/svg">
<path d="M6.12311 0.921131C4.13043 0.921131 2.61332 1.46761 1.56704 2.55817C0.52314 3.65112 0 5.15452 0 7.06598V15.2034H3.37187V11.2206H8.83393V15.2034H12.2914V7.06598C12.2914 5.15213 11.7659 3.65112 10.7125 2.55817C9.65906 1.46761 8.13007 0.921131 6.12311 0.921131ZM8.83393 8.22336H3.37187V7.06598C3.37187 6.09474 3.59302 5.36451 4.03293 4.87054C4.47284 4.37895 5.16482 4.13077 6.10171 4.13077C7.05525 4.13077 7.74722 4.37657 8.18238 4.87054C8.61516 5.36213 8.83393 6.09474 8.83393 7.06598V8.22336ZM21.2514 4.62475L18.9472 12.0773H18.9044L16.6002 4.62475H13.1641L16.9402 15.2034H20.8233L24.5995 4.62475H21.2514ZM34.2347 5.87758C33.7449 5.38599 33.1504 5.00656 32.4537 4.74406C31.757 4.47918 30.996 4.34793 30.1709 4.34793C29.3315 4.34793 28.5658 4.48634 27.8762 4.76554C27.1866 5.04474 26.5874 5.42895 26.0833 5.92292C25.5792 6.41451 25.1868 7.00394 24.9086 7.68882C24.6304 8.3737 24.4925 9.11586 24.4925 9.91528C24.4925 10.9008 24.6518 11.7432 24.9728 12.4424C25.2938 13.1416 25.698 13.7167 26.1879 14.1654C26.6777 14.614 27.2223 14.9481 27.8191 15.1605C28.416 15.3753 28.9938 15.4826 29.5479 15.4826C30.3302 15.4826 31.0055 15.3084 31.5739 14.9576C32.1422 14.6068 32.5559 14.1415 32.8104 13.5545H32.8532V15.2034H35.797V10.0203C35.797 9.14927 35.6591 8.36416 35.3809 7.66496C35.1098 6.96576 34.727 6.37155 34.2347 5.87758ZM31.9305 11.7766C31.4835 12.2467 30.8962 12.483 30.1709 12.483C29.4456 12.483 28.8583 12.2467 28.4112 11.7766C27.9642 11.3065 27.7383 10.6837 27.7383 9.9129C27.7383 9.14211 27.9618 8.52166 28.4112 8.04916C28.8583 7.57905 29.4456 7.3428 30.1709 7.3428C30.8962 7.3428 31.4835 7.57905 31.9305 8.04916C32.3776 8.51927 32.6035 9.14211 32.6035 9.9129C32.6035 10.6837 32.38 11.3065 31.9305 11.7766ZM37.7017 15.2034H40.9024V0H37.7017V15.2034ZM83.2149 7.68166C83.4741 7.40484 83.7856 7.19246 84.1518 7.03973C84.518 6.88939 84.927 6.81303 85.3812 6.81303C86.0494 6.81303 86.6177 6.9753 87.0861 7.29984C87.5546 7.62439 87.897 8.06348 88.1134 8.61472H90.8789C90.7505 7.98711 90.5198 7.41439 90.1917 6.89417C89.8635 6.37394 89.4617 5.92769 88.9861 5.55542C88.5105 5.18315 87.9707 4.89202 87.362 4.68679C86.7532 4.48156 86.0922 4.37895 85.3812 4.37895C84.5513 4.37895 83.7927 4.51736 83.1103 4.79179C82.4254 5.06861 81.8333 5.45281 81.3316 5.9444C80.8298 6.43599 80.4422 7.02064 80.1664 7.69598C79.8906 8.37132 79.755 9.10631 79.755 9.89381C79.755 10.6932 79.893 11.4306 80.1664 12.1012C80.4399 12.7717 80.8298 13.354 81.3316 13.8456C81.8333 14.3372 82.4254 14.7214 83.1103 14.9982C83.7951 15.275 84.5513 15.411 85.3812 15.411C86.0922 15.411 86.7532 15.3084 87.362 15.1032C87.9707 14.898 88.5129 14.6092 88.9861 14.2346C89.4593 13.8623 89.8611 13.4161 90.1917 12.8958C90.5198 12.3756 90.7505 11.8029 90.8789 11.1753H88.1134C87.897 11.7265 87.5546 12.1656 87.0861 12.4902C86.6177 12.8147 86.0494 12.977 85.3812 12.977C84.9294 12.977 84.518 12.9006 84.1518 12.7503C83.7856 12.5999 83.4717 12.3852 83.2149 12.1083C82.9557 11.8315 82.756 11.5046 82.6157 11.1276C82.4754 10.7481 82.4064 10.3377 82.4064 9.89381C82.4064 9.44995 82.4754 9.03949 82.6157 8.66006C82.7583 8.28541 82.9581 7.95848 83.2149 7.68166ZM98.7878 8.16848C98.4097 7.79621 97.9603 7.50268 97.4372 7.29269C96.914 7.08269 96.3409 6.9753 95.7155 6.9753C95.0783 6.9753 94.5004 7.0803 93.9773 7.29269C93.4542 7.50268 93.0024 7.79621 92.6195 8.16848C92.2367 8.54075 91.9394 8.98699 91.7302 9.50722C91.5209 10.0274 91.4139 10.5882 91.4139 11.1944C91.4139 11.8005 91.5185 12.3637 91.7302 12.8815C91.9394 13.4017 92.2367 13.848 92.6195 14.2203C93.0024 14.5925 93.4542 14.8861 93.9773 15.0961C94.5004 15.306 95.0783 15.4134 95.7155 15.4134C96.719 15.4134 97.5751 15.1629 98.2861 14.6593C98.9971 14.1558 99.4822 13.4876 99.7413 12.6548H97.235C97.0828 12.872 96.8783 13.0223 96.6215 13.1082C96.3623 13.1941 96.0603 13.2371 95.7155 13.2371C95.2637 13.2371 94.8809 13.1273 94.567 12.9054C94.2531 12.6835 94.0439 12.3517 93.9369 11.9079V11.8745H99.9672V11.192C99.9672 10.5858 99.865 10.0227 99.6605 9.50483C99.456 8.98938 99.1635 8.54075 98.7878 8.16848ZM97.4776 10.3353H93.9844V10.3019C94.1128 9.92244 94.3292 9.63608 94.6312 9.44279C94.9332 9.24711 95.2947 9.15165 95.7155 9.15165C96.1364 9.15165 96.5003 9.24949 96.807 9.44279C97.1138 9.63847 97.3373 9.92483 97.4776 10.3019V10.3353ZM107.631 7.9895C107.286 7.64825 106.87 7.3953 106.385 7.22587C105.9 7.05882 105.36 6.9753 104.768 6.9753C104.176 6.9753 103.636 7.06121 103.151 7.23541C102.666 7.40962 102.25 7.66496 101.905 8.0062C101.56 8.34745 101.294 8.77222 101.104 9.28051C100.914 9.78881 100.821 10.3782 100.821 11.0488V15.2034H103.246V11.0488C103.246 10.4116 103.387 9.95108 103.667 9.66949C103.948 9.3879 104.314 9.24711 104.766 9.24711C105.218 9.24711 105.584 9.3879 105.864 9.66949C106.145 9.95108 106.285 10.4116 106.285 11.0488V15.2034H108.711V11.0488C108.711 10.3663 108.616 9.7721 108.428 9.26381C108.245 8.75552 107.976 8.33075 107.631 7.9895ZM114.166 12.0391C114.166 12.4615 114.08 12.7503 113.907 12.9078C113.733 13.0653 113.512 13.144 113.243 13.144C112.974 13.144 112.753 13.0653 112.58 12.9078C112.406 12.7503 112.32 12.4615 112.32 12.0391V9.37836H116.104V7.18769H112.32V4.60804H109.895V12.0391C109.895 12.6119 109.976 13.1106 110.138 13.533C110.299 13.9554 110.528 14.3062 110.825 14.5878C111.122 14.8693 111.474 15.077 111.883 15.213C112.292 15.349 112.746 15.4158 113.241 15.4158C113.735 15.4158 114.19 15.349 114.599 15.213C115.008 15.077 115.362 14.8693 115.657 14.5878C115.954 14.3062 116.182 13.9554 116.344 13.533C116.506 13.1106 116.586 12.6142 116.586 12.0391V11.7957H114.161V12.0391H114.166ZM124.4 8.16848C124.022 7.79621 123.573 7.50268 123.05 7.29269C122.526 7.08269 121.953 6.9753 121.328 6.9753C120.693 6.9753 120.113 7.0803 119.59 7.29269C119.067 7.50268 118.615 7.79621 118.232 8.16848C117.849 8.54075 117.552 8.98699 117.343 9.50722C117.133 10.0274 117.026 10.5882 117.026 11.1944C117.026 11.8005 117.131 12.3637 117.343 12.8815C117.554 13.3994 117.849 13.848 118.232 14.2203C118.615 14.5925 119.067 14.8861 119.59 15.0961C120.113 15.306 120.691 15.4134 121.328 15.4134C122.331 15.4134 123.188 15.1629 123.899 14.6593C124.61 14.1558 125.095 13.4876 125.354 12.6548H122.847C122.695 12.872 122.491 13.0223 122.234 13.1082C121.975 13.1941 121.673 13.2371 121.328 13.2371C120.876 13.2371 120.493 13.1273 120.179 12.9054C119.866 12.6835 119.656 12.3517 119.549 11.9079V11.8745H125.58V11.192C125.58 10.5858 125.477 10.0227 125.273 9.50483C125.068 8.98938 124.778 8.54075 124.4 8.16848ZM123.09 10.3353H119.597V10.3019C119.725 9.92244 119.942 9.63608 120.244 9.44279C120.546 9.24711 120.907 9.15165 121.328 9.15165C121.749 9.15165 122.113 9.24949 122.419 9.44279C122.726 9.63847 122.95 9.92483 123.09 10.3019V10.3353ZM133.617 10.7076C133.617 10.0704 133.531 9.51438 133.358 9.04427C133.184 8.57416 132.942 8.18518 132.63 7.87496C132.316 7.56712 131.941 7.34041 131.498 7.19246C131.056 7.04689 130.566 6.97291 130.026 6.97291C129.487 6.97291 128.999 7.04689 128.564 7.19246C128.129 7.33803 127.751 7.56234 127.432 7.86541C127.113 8.16848 126.869 8.55029 126.697 9.00847C126.524 9.46904 126.438 10.0131 126.438 10.6383V15.1987H128.864V10.6431C128.864 10.1014 128.971 9.73392 129.187 9.54063C129.403 9.34495 129.682 9.24949 130.029 9.24949C130.374 9.24949 130.654 9.34733 130.871 9.54063C131.087 9.73631 131.194 10.1038 131.194 10.6431V10.7076H133.617ZM53.0321 2.46271C52.6326 2.06419 52.1285 1.75158 51.5174 1.53204C50.9062 1.31011 50.181 1.20033 49.3416 1.20033H43.3017V15.2034H44.8378V10.1277H49.3392C50.1786 10.1277 50.9039 10.0131 51.515 9.78403C52.1261 9.55495 52.6326 9.24233 53.0297 8.84143C53.4268 8.44291 53.7241 7.97041 53.9143 7.42871C54.1069 6.88701 54.202 6.29281 54.202 5.65088C54.202 5.00895 54.1069 4.41713 53.9143 3.87305C53.7265 3.33373 53.4316 2.86123 53.0321 2.46271ZM52.4781 6.86314C52.3639 7.24257 52.1761 7.56712 51.9121 7.83677C51.6482 8.10882 51.3081 8.3212 50.8872 8.4787C50.4663 8.6362 49.9598 8.71495 49.3606 8.71495H44.8378V2.61305H49.3606C49.9575 2.61305 50.4663 2.6918 50.8872 2.8493C51.3057 3.0068 51.6482 3.22157 51.9121 3.49123C52.1761 3.76327 52.3639 4.08305 52.4781 4.45532C52.5922 4.82759 52.6493 5.22611 52.6493 5.65565C52.6493 6.08042 52.5922 6.48371 52.4781 6.86314ZM64.4912 5.91099C63.9943 5.41224 63.395 5.02565 62.6983 4.75361C62.0016 4.48395 61.2406 4.34793 60.4155 4.34793C59.5761 4.34793 58.8104 4.48634 58.1208 4.76554C57.4312 5.04474 56.832 5.42895 56.3279 5.92292C55.8238 6.41451 55.4314 7.00394 55.1532 7.68882C54.875 8.3737 54.7371 9.11586 54.7371 9.91528C54.7371 10.772 54.8821 11.5452 55.1746 12.2396C55.4671 12.9316 55.8618 13.5163 56.3588 13.9959C56.8558 14.4732 57.436 14.8407 58.097 15.0984C58.7581 15.3562 59.4596 15.485 60.1991 15.485C61.2668 15.485 62.1942 15.2345 62.9836 14.7357C63.7731 14.237 64.3462 13.5569 64.7005 12.7025H64.7433V15.2082H66.0654V9.97733C66.0654 9.14927 65.9275 8.39041 65.6493 7.69598C65.3758 7.00632 64.9882 6.40974 64.4912 5.91099ZM64.3295 11.6048C64.1227 12.1179 63.8349 12.5641 63.4664 12.9436C63.0954 13.323 62.6507 13.6189 62.1324 13.8313C61.614 14.0461 61.0409 14.1534 60.4155 14.1534C59.7901 14.1534 59.217 14.0461 58.6987 13.8313C58.1803 13.6165 57.7356 13.3206 57.3647 12.9436C56.9937 12.5665 56.706 12.1203 56.5015 11.6048C56.2946 11.0918 56.1923 10.5262 56.1923 9.9129C56.1923 9.29961 56.2946 8.73404 56.5015 8.22098C56.7083 7.70791 56.9961 7.26166 57.3647 6.88223C57.7332 6.50519 58.1779 6.2069 58.6987 5.99451C59.217 5.77974 59.7901 5.67235 60.4155 5.67235C61.0409 5.67235 61.614 5.77974 62.1324 5.99451C62.6507 6.20928 63.0954 6.50519 63.4664 6.88223C63.8349 7.26166 64.125 7.70791 64.3295 8.22098C64.5364 8.73404 64.6387 9.29961 64.6387 9.9129C64.6387 10.5286 64.5364 11.0918 64.3295 11.6048ZM76.6091 10.0847C76.6091 11.3829 76.2643 12.3756 75.5747 13.0605C74.8851 13.7454 73.9696 14.089 72.8329 14.089C71.6797 14.089 70.7642 13.7501 70.0793 13.0724C69.3969 12.3947 69.0544 11.3996 69.0544 10.0847V4.62475H67.6253V10.0847C67.6253 10.9844 67.7537 11.7695 68.0105 12.44C68.2674 13.1106 68.6193 13.669 69.0663 14.1105C69.5134 14.5543 70.0413 14.8813 70.6453 15.0961C71.2493 15.3108 71.9079 15.4182 72.6189 15.4182C73.5439 15.4182 74.3405 15.2225 75.0087 14.8288C75.6769 14.4374 76.1953 13.8838 76.5663 13.1703H76.6091V14.8622C76.6091 15.5471 76.5163 16.1365 76.3308 16.6281C76.1454 17.1197 75.8838 17.523 75.5414 17.838C75.199 18.153 74.7947 18.3797 74.3263 18.5229C73.8578 18.666 73.3371 18.7376 72.7687 18.7376C71.8865 18.7376 71.1375 18.5634 70.5169 18.2126C69.8986 17.8618 69.4468 17.3249 69.1615 16.5971H67.7323C67.9035 17.1674 68.1485 17.6685 68.4695 18.0957C68.7905 18.5229 69.1662 18.876 69.6014 19.1552C70.0341 19.4344 70.5216 19.6444 71.0638 19.7876C71.6036 19.9308 72.1743 20.0024 72.7711 20.0024C73.5106 20.0024 74.2002 19.9069 74.8399 19.7136C75.4796 19.5203 76.0384 19.2149 76.5139 18.7925C76.9895 18.3701 77.3629 17.8356 77.6339 17.1865C77.905 16.5374 78.0406 15.7475 78.0406 14.8192V4.62475H76.6114V10.0847H76.6091Z" fill="#00DDF4"/>
</svg>
