<svg width="141" height="20" viewBox="0 0 141 20" fill="none" xmlns="http://www.w3.org/2000/svg">
<path fill-rule="evenodd" clip-rule="evenodd" d="M19.7865 2.12181C15.5481 4.79713 13.4676 10.4098 13.4676 10.4098C10.7416 6.24734 4.42641 7.21415 4.42641 7.21415C14.1538 8.7603 13.4381 16.6055 13.4381 16.6055C14.2607 12.2991 17.3372 7.17356 18.0749 6.14771C22.0441 0.841343 26.4042 0 26.4042 0C24.6158 0.819702 22.9735 1.92659 21.5424 3.27681C22.028 3.73525 22.4267 4.27783 22.7191 4.87831C24.7812 8.97802 22.0109 14.6608 15.4928 18.0446C9.70507 21.0336 2.73695 20.2956 0.678601 16.1811C-1.37974 12.0666 1.32045 6.5979 7.74632 3.1329C11.9626 0.878244 16.6658 0.627317 19.7865 2.12181ZM11.2101 12.0223C11.2101 12.0223 5.30803 11.0113 5.30803 13.3102C5.30803 14.2844 6.25236 15.5243 9.45792 16.0113C10.0076 16.0999 11.9405 16.3804 13.202 15.5353C13.202 15.5353 12.4643 17.1848 8.84558 16.908C8.21849 16.8748 4.52232 16.5759 3.24969 14.0704C2.90294 13.3877 2.88081 11.4873 5.58838 11.0408C7.03439 10.8009 9.7604 10.9485 11.2212 12.0223" fill="#05519C"/>
<path fill-rule="evenodd" clip-rule="evenodd" d="M19.7604 2.12181C15.5183 4.79713 13.4378 10.4098 13.4378 10.4098C10.697 6.24734 4.38549 7.21415 4.38549 7.21415C14.1165 8.7603 13.4009 16.6055 13.4009 16.6055C14.2309 12.3139 17.2926 7.18832 18.0525 6.16247C22.0105 0.841343 26.3744 0 26.3744 0C23.1504 0 19.7604 2.12181 19.7604 2.12181ZM11.1729 12.0223C11.1729 12.0223 5.2708 11.0113 5.2708 13.3102C5.2708 14.2844 6.21145 15.5243 9.41332 16.0113C9.96295 16.0999 11.9033 16.3804 13.1538 15.5353C13.1538 15.5353 12.416 17.1848 8.80098 16.908C8.18126 16.8748 4.4814 16.5759 3.21246 14.0704C2.84358 13.3877 2.81776 11.4873 5.54746 11.0408C6.98978 10.8009 9.7158 10.9485 11.1729 12.0223Z" fill="white"/>
<path fill-rule="evenodd" clip-rule="evenodd" d="M46.0214 17.0225H48.7511L49.4888 13.1626C49.6142 12.4689 49.7839 11.5058 49.8577 10.9486C50.2624 10.7274 50.6974 10.567 51.1488 10.4725C52.3329 10.2807 52.5911 10.8932 52.4472 11.8084C52.3808 12.2438 52.3329 12.6608 52.2517 13.0778L51.4771 17.004H54.2252L54.963 13.0888C55.1455 12.3532 55.2688 11.6042 55.3319 10.8489C55.3319 9.21053 54.8376 8.29907 53.185 8.29907C51.6652 8.29907 50.9385 8.87104 50.186 9.46145H50.1528L50.3188 8.47989H47.5854C47.5006 9.24005 47.3715 10.0851 47.2165 10.812L46.0214 17.0225Z" fill="#E00328"/>
<path fill-rule="evenodd" clip-rule="evenodd" d="M63.6536 14.1813H63.2847C62.9395 14.5308 62.5264 14.806 62.071 14.99C61.6155 15.1741 61.1272 15.263 60.6362 15.2514C59.4447 15.2514 58.7328 14.4876 58.8324 13.2735C58.9541 11.5982 59.8615 10.1517 61.4366 10.0705C61.8839 10.038 62.3326 10.1117 62.746 10.2854C63.1595 10.4592 63.5261 10.7282 63.8159 11.0705C63.9561 11.0705 64.1848 11.0705 64.3028 11.0705L64.609 8.87861C63.7035 8.48124 62.7339 8.25001 61.7465 8.19594C58.4008 8.16642 56.0879 10.6388 56.0363 13.399C56.0104 15.7237 57.3642 17.0706 59.773 17.0706C60.9417 17.0281 62.1009 16.8447 63.2257 16.5245L63.6536 14.1813Z" fill="#E00328"/>
<path fill-rule="evenodd" clip-rule="evenodd" d="M98.2657 5.78247H95.2962L91.2902 13.4874H91.2533L90.1319 5.78247H87.1477L88.9958 17.0225H92.1313L98.2657 5.78247Z" fill="#E00328"/>
<path fill-rule="evenodd" clip-rule="evenodd" d="M114.515 17.0226H117.219L119.461 5.30652H116.754L114.515 17.0226Z" fill="#E00328"/>
<path fill-rule="evenodd" clip-rule="evenodd" d="M132.375 16.4245C133.48 16.9851 134.719 17.2266 135.954 17.1219C138.739 16.7972 140.148 15.9817 140.354 13.9116C140.638 11.1477 136.33 12.1219 136.297 10.8303C136.297 10.2473 137.208 9.97053 137.846 9.96684C138.79 9.94839 139.749 10.4908 140.605 10.9853L141 8.80077C139.948 8.48182 138.86 8.29829 137.761 8.25464C135.743 8.25464 133.442 9.47237 133.427 11.4281C133.427 14.3212 137.484 13.3211 137.484 14.5204C137.484 15.2105 136.488 15.3618 136.031 15.3618C134.856 15.3378 133.727 14.9016 132.84 14.1293L132.375 16.4245Z" fill="#E00328"/>
<path fill-rule="evenodd" clip-rule="evenodd" d="M111.306 5.78247H108.332L104.334 13.4874H104.301L103.168 5.78247H100.184L102.032 17.0225H105.164L111.306 5.78247Z" fill="#E00328"/>
<path fill-rule="evenodd" clip-rule="evenodd" d="M119.074 17.0226H121.774L124.021 5.30652H121.298L119.074 17.0226Z" fill="#E00328"/>
<path fill-rule="evenodd" clip-rule="evenodd" d="M41.4949 17.0226H44.2947C44.6119 14.4912 45.2095 12.4764 45.3386 11.1701C45.5231 9.32502 44.3869 8.30286 41.7642 8.31393C40.596 8.33271 39.4318 8.45621 38.2857 8.68294L37.9906 10.7974C38.9708 10.3337 40.0457 10.105 41.1297 10.1295C42.0704 10.1295 42.6052 10.5501 42.6052 11.1516C42.6104 11.2619 42.6005 11.3724 42.5757 11.48C42.2068 11.4505 41.6793 11.5428 41.1002 11.5686C38.5881 11.7125 36.6737 12.7384 36.5077 14.7901C36.3859 16.4691 37.1753 17.2071 38.9496 17.2071C40.0563 17.2071 40.7387 16.8085 41.6277 16.1259V16.3141L41.4949 17.0226ZM39.2337 14.7605C39.1451 13.8048 39.894 13.1295 41.3879 13.0889C41.5576 13.0889 41.8933 13.0409 42.2548 13.0188C42.19 13.6153 42.0927 14.2078 41.9634 14.7937C41.5257 15.1353 40.9998 15.3452 40.4473 15.3989C39.846 15.4727 39.289 15.2808 39.2337 14.7605Z" fill="#E00328"/>
<path fill-rule="evenodd" clip-rule="evenodd" d="M128.37 17.0226H131.177C131.487 14.4912 132.103 12.4764 132.214 11.1701C132.402 9.32502 131.262 8.30286 128.65 8.31393C127.477 8.33227 126.308 8.45576 125.157 8.68294L124.877 10.7974C125.855 10.3329 126.929 10.1042 128.012 10.1295C128.949 10.1295 129.488 10.5501 129.488 11.1516C129.494 11.2624 129.482 11.3735 129.451 11.48C129.049 11.4505 128.551 11.5428 127.975 11.5686C125.456 11.7125 123.549 12.7384 123.386 14.7901C123.261 16.4691 124.054 17.2071 125.821 17.2071C126.928 17.2071 127.606 16.8085 128.503 16.1259V16.3141L128.37 17.0226ZM126.123 14.7605C126.02 13.8048 126.762 13.1295 128.267 13.0889C128.44 13.0889 128.765 13.0409 129.141 13.0188C129.074 13.6152 128.975 14.2077 128.846 14.7937C128.407 15.1341 127.882 15.3438 127.33 15.3989C126.732 15.4727 126.171 15.2808 126.123 14.7605Z" fill="#E00328"/>
<path fill-rule="evenodd" clip-rule="evenodd" d="M70.9573 12.0261C70.6954 14.3804 69.9097 15.2734 68.6739 15.2734C67.7001 15.2734 66.8812 14.6535 67.3681 12.6534C67.689 11.3508 68.2276 10.0704 69.5039 10.0704C70.5183 10.0704 71.127 10.5501 70.9573 12.0446V12.0261ZM73.746 11.8047C73.9969 9.70136 72.3885 8.22901 69.9318 8.1958C66.8443 8.14783 64.5093 10.4615 64.5093 13.3619C64.5093 15.4653 65.188 17.052 68.246 17.052C71.304 17.052 73.3107 15.266 73.746 11.7789" fill="#E00328"/>
<path fill-rule="evenodd" clip-rule="evenodd" d="M76.0405 17.0225H78.9399L80.1425 14.6276H83.8792L84.119 17.0225H87.0553L85.2514 5.78247H82.1492L76.0405 17.0225ZM83.5767 12.6276H81.1532L83.0824 8.87847L83.5767 12.6276Z" fill="#E00328"/>
<path fill-rule="evenodd" clip-rule="evenodd" d="M25.995 17.0224L31.0228 16.9745C33.557 16.9413 35.6854 16.0372 36.0543 13.4283C36.2129 12.2032 35.8109 11.336 34.1398 10.8821C35.8588 10.1035 36.2941 8.83779 36.3199 7.93003C36.3457 6.08498 34.3501 5.79346 33.214 5.79346H28.2968L25.995 17.0224ZM30.6724 7.85991H31.447C32.5537 7.85991 33.2508 7.85991 33.1734 8.87838C33.107 9.73448 32.5094 10.2253 31.27 10.2253H30.2371L30.6724 7.85991ZM29.9088 12.1331H31.2478C32.5832 12.1331 33.1881 12.5021 33.0922 13.3877C32.9631 14.5538 32.2401 14.9006 30.7535 14.9006H29.3444L29.9088 12.1331Z" fill="#E00328"/>
<path fill-rule="evenodd" clip-rule="evenodd" d="M109.974 17.0226H112.693L114.297 8.53537H111.567L109.974 17.0226ZM111.748 7.32502H114.637L115.028 5.28809H112.139L111.748 7.32502Z" fill="#E00328"/>
</svg>
