<svg width="141" height="26" viewBox="0 0 141 26" fill="none" xmlns="http://www.w3.org/2000/svg">
<path d="M7.91463 1.61132C7.92787 1.70912 7.9241 1.80845 7.90252 1.90479C7.09596 5.62364 6.48576 8.46039 6.07192 10.415C5.97513 10.8449 6.31388 11.2508 6.74941 11.2508H9.84652C10.1127 11.2508 10.3546 11.1075 10.4756 10.8687C10.7902 10.2001 11.2257 9.57922 11.8064 9.0061C13.2824 7.45391 15.0003 6.66587 16.936 6.66587C18.2426 6.66587 19.3314 7.02407 20.1783 7.74047C21.0493 8.48074 21.5575 9.45982 21.6542 10.6299C21.6784 10.9881 21.993 11.2508 22.3559 11.2508H25.3804C25.7676 11.2508 26.0579 10.9643 26.0821 10.5822V10.3434C26.0821 8.05091 25.3079 6.14051 23.7593 4.65995C22.2108 3.1794 20.2509 2.43912 17.8796 2.43912C16.8042 2.42633 15.2761 2.81925 13.2953 3.61788C12.8505 3.79844 12.3429 3.58547 12.1624 3.14371C12.0966 2.9828 12.0813 2.80596 12.1186 2.63632L12.2096 2.22185C12.3839 1.42867 13.0919 0.863044 13.9105 0.863044H28.6953C30.1713 0.863044 31.2601 2.20032 30.9698 3.60924C29.5664 10.1523 28.163 16.6954 26.7596 23.2147C26.5419 24.2654 25.5982 25.0295 24.4852 25.0295H9.36535C8.40397 25.0295 7.62461 24.2567 7.62461 23.3034C7.62461 23.181 7.63773 23.059 7.66374 22.9394L7.73446 22.6143C7.93674 21.6823 8.8628 21.0896 9.80261 21.2905C9.91016 21.3135 10.0153 21.3465 10.1162 21.3898C11.523 21.9855 12.7075 22.2833 13.6695 22.2833C16.815 22.2833 19.6702 21.0655 22.2108 18.6297C23.2028 17.6984 24.0013 16.6954 24.6062 15.6686C24.8723 15.2149 24.5336 14.6418 24.0013 14.6418H20.9767C20.759 14.6418 20.5412 14.7373 20.4202 14.9283C20.2267 15.191 19.9847 15.4776 19.7427 15.7402C18.2426 17.2924 16.5247 18.0566 14.5406 18.0566C13.2582 18.0566 12.1935 17.6984 11.3467 16.982C10.7418 16.4566 10.3304 15.8358 10.0885 15.1194C9.99169 14.8328 9.72554 14.6418 9.43518 14.6418H5.73317C5.39442 14.6418 5.12827 14.8567 5.05568 15.191C4.60901 17.2735 3.94174 20.3576 3.05387 24.4431C2.98628 24.7542 2.72801 24.9843 2.41644 25.0236L2.32151 25.0295C0.845547 25.0295 -0.24328 23.6923 0.0470736 22.2833C1.45045 15.7402 2.85383 9.19714 4.25721 2.67792C4.47497 1.6272 5.41862 0.863044 6.53164 0.863044H6.93518C7.41264 0.807307 7.85069 1.13889 7.91463 1.61132ZM89.4191 10.2001C90.5061 10.2001 91.3707 10.531 92.013 11.1691C92.7047 11.8073 93.0505 12.6109 93.0505 13.5799C93.0505 14.9035 92.4823 16.0853 91.346 17.1252C90.2343 18.1416 88.9745 18.6615 87.5911 18.6615C86.6524 18.6615 85.936 18.4015 85.4172 17.8816C85.1702 18.9924 84.9478 20.1269 84.7008 21.2614C84.6514 21.5687 84.4291 21.7341 84.0832 21.7341H83.0457C82.6999 21.7341 82.5269 21.5923 82.5269 21.285C82.5269 21.2378 82.5269 21.1669 82.5516 21.1196C83.2927 17.6452 84.0585 14.1708 84.8243 10.6964C84.8984 10.3655 85.0714 10.2237 85.3678 10.271H86.4547C86.8253 10.271 87.0229 10.3892 87.0229 10.6492C87.0229 10.6964 87.0229 10.7673 86.9982 10.8383C87.7146 10.4128 88.5298 10.2001 89.4191 10.2001ZM108.805 10.2001C109.892 10.2001 110.756 10.531 111.398 11.1691C112.09 11.8073 112.436 12.6109 112.436 13.5799C112.436 14.9035 111.868 16.0853 110.731 17.1252C109.62 18.1416 108.36 18.6615 106.977 18.6615C106.038 18.6615 105.321 18.4015 104.803 17.8816C104.556 18.9924 104.333 20.1269 104.086 21.2614C104.042 21.5379 103.857 21.6996 103.569 21.7292L103.469 21.7341H102.431C102.085 21.7341 101.912 21.5923 101.912 21.285C101.912 21.2535 101.923 21.2115 101.931 21.173L101.937 21.1196L104.21 10.6964C104.277 10.3986 104.423 10.254 104.668 10.2625L104.753 10.271H105.84C106.211 10.271 106.408 10.3892 106.408 10.6492C106.408 10.6964 106.408 10.7673 106.384 10.8383C107.1 10.4128 107.915 10.2001 108.805 10.2001ZM75.6878 10.2001C76.6992 10.2001 77.5421 10.5192 78.1923 11.182C78.8666 11.8447 79.2037 12.6793 79.2037 13.6858C79.2037 15.0604 78.6498 16.3123 77.5421 17.3924C76.4825 18.4479 75.2544 18.9879 73.9058 18.9879C72.8703 18.9879 72.0275 18.6688 71.3532 18.006C70.6789 17.3433 70.3418 16.4841 70.3418 15.4532C70.3418 14.0785 70.8715 12.8512 71.9793 11.7711C73.063 10.7156 74.2911 10.2001 75.6878 10.2001ZM98.9738 10.2001C99.9851 10.2001 100.828 10.5192 101.478 11.1574C102.152 11.8202 102.489 12.6548 102.465 13.6858C102.465 15.0604 101.911 16.3123 100.804 17.3924C99.7443 18.4479 98.5163 18.9879 97.1679 18.9879C96.1326 18.9879 95.2898 18.6688 94.6157 18.006C93.9415 17.3433 93.6044 16.4841 93.6044 15.4532C93.6044 14.0785 94.1582 12.8512 95.2658 11.7711C96.3493 10.7156 97.5773 10.2001 98.9738 10.2001ZM140.163 10.2001C140.51 10.2001 140.684 10.3242 140.684 10.5973C140.684 10.6718 140.684 10.7214 140.659 10.7959L140.435 11.8882C140.386 12.2109 140.163 12.3846 139.815 12.3846H139.419C138.203 12.4095 137.459 12.9308 137.211 13.9982C136.889 15.4877 136.591 17.002 136.269 18.4914C136.219 18.8141 135.996 18.9879 135.649 18.9879H134.607C134.235 18.9879 134.037 18.839 134.037 18.5163C134.037 18.4666 134.062 18.417 134.062 18.3425C134.583 15.8104 135.128 13.3031 135.674 10.7711C135.748 10.4235 135.922 10.2746 136.219 10.3242H137.286C137.633 10.3242 137.831 10.4483 137.856 10.6966C138.228 10.3739 138.848 10.2249 139.741 10.2001H140.163ZM48.4304 10.2001C49.3294 10.2001 50.0391 10.4456 50.5596 10.9365C50.5596 10.8629 50.5833 10.7892 50.5833 10.7156C50.6471 10.4063 50.7877 10.2561 51.0221 10.2649L51.1037 10.2737H52.0974C52.4522 10.2737 52.6178 10.3965 52.6178 10.6665C52.6178 10.7156 52.6178 10.7892 52.5469 10.912C52.0501 13.4158 51.5296 15.895 51.0328 18.3742C50.9902 18.6614 50.8135 18.8293 50.5371 18.8601L50.4413 18.8652H49.5423C49.1875 18.8652 48.9982 18.7179 48.9982 18.3988C48.9982 18.3497 48.9982 18.3006 49.0219 18.227C49.0455 18.2024 49.0692 18.1779 49.0928 18.1533C48.4067 18.7179 47.6024 18.9879 46.7034 18.9879C45.6861 18.9879 44.8581 18.6443 44.1956 17.9815C43.5332 17.3187 43.202 16.4841 43.202 15.4532C43.202 14.1031 43.7462 12.8757 44.8344 11.7957C45.899 10.7401 47.0819 10.2001 48.4304 10.2001ZM120.038 10.7497L120.125 10.7581H121.301C121.677 10.7581 121.852 10.875 121.852 11.1322C121.852 11.1556 121.827 11.2257 121.827 11.366C121.301 13.704 120.75 16.0654 120.225 18.4034C120.18 18.677 119.993 18.8369 119.7 18.8661L119.599 18.871H118.622C118.272 18.871 118.072 18.7307 118.072 18.4502C117.621 18.8009 116.995 18.9879 116.219 18.9879C115.418 18.9879 114.742 18.8243 114.192 18.4736C113.39 17.9592 112.99 17.2344 112.99 16.2524C112.99 16.042 113.004 15.8447 113.043 15.6409L113.09 15.4341L114.066 11.1789C114.134 10.8844 114.283 10.7413 114.531 10.7497L114.617 10.7581H115.769C116.144 10.7581 116.319 10.875 116.319 11.1322C116.319 11.1789 116.294 11.2257 116.294 11.2958C115.969 12.6519 115.669 14.0313 115.343 15.3874C115.318 15.4575 115.318 15.551 115.318 15.6679C115.318 16.0888 115.468 16.3927 115.744 16.6265C115.994 16.8369 116.294 16.9305 116.645 16.9305C117.146 16.9305 117.596 16.7902 117.972 16.5096C118.297 16.2524 118.522 15.9017 118.622 15.4108C118.948 13.9846 119.273 12.5818 119.599 11.1789C119.639 10.9171 119.759 10.7749 119.959 10.7525L120.038 10.7497ZM129.85 10.2001C130.749 10.2001 131.458 10.4456 131.979 10.9365C131.979 10.8629 132.002 10.7892 132.002 10.7156C132.066 10.4063 132.207 10.2561 132.441 10.2649L132.523 10.2737H133.517C133.871 10.2737 134.037 10.421 134.037 10.691C134.037 10.7401 134.013 10.8138 133.966 10.912C133.469 13.4158 132.949 15.895 132.452 18.3742C132.409 18.6614 132.233 18.8293 131.956 18.8601L131.861 18.8652H130.962C130.607 18.8652 130.417 18.7179 130.417 18.3988C130.417 18.3497 130.417 18.3006 130.441 18.227C130.465 18.2024 130.488 18.1779 130.512 18.1533C129.826 18.7179 129.022 18.9879 128.123 18.9879C127.105 18.9879 126.277 18.6443 125.615 17.9815C124.952 17.3187 124.621 16.4841 124.621 15.4532C124.621 14.1031 125.165 12.8757 126.254 11.7957C127.318 10.7401 128.501 10.2001 129.85 10.2001ZM124.023 7.45426L124.107 7.46285H125.22C125.559 7.46285 125.729 7.58216 125.729 7.84464C125.729 7.89236 125.705 7.98781 125.705 8.10711C124.978 11.567 124.228 15.0508 123.501 18.5107C123.437 18.7864 123.277 18.949 123.004 18.9818L122.896 18.9879H121.855C121.492 18.9879 121.298 18.8447 121.298 18.5346C121.298 18.4868 121.322 18.4152 121.322 18.3675C122.073 14.8599 122.823 11.3761 123.574 7.89236C123.632 7.62511 123.752 7.48004 123.947 7.45713L124.023 7.45426ZM66.702 10.2001C67.8414 10.2001 68.7672 10.6186 69.4793 11.4309C69.6929 11.677 69.7879 11.8494 69.7879 11.9724C69.7879 12.1447 69.6929 12.3171 69.503 12.4401C69.1944 12.6371 68.9096 12.834 68.601 13.0309C68.4823 13.1048 68.3636 13.154 68.2687 13.154C68.1263 13.154 67.9601 13.0801 67.7939 12.9078C67.4616 12.5386 67.0106 12.3663 66.4172 12.3663C65.6576 12.3663 64.9929 12.6863 64.4232 13.3017C63.9485 13.8186 63.7111 14.4094 63.7111 15.074C63.7111 15.6402 63.901 16.0833 64.2571 16.4033C64.5657 16.674 64.9692 16.8217 65.4202 16.8217C66.1561 16.8217 66.7732 16.5263 67.3192 15.8863C67.4616 15.714 67.604 15.6402 67.7702 15.6402C67.8414 15.6402 67.9364 15.6648 68.055 15.714C68.3162 15.8371 68.5773 15.9848 68.8384 16.1079C69.052 16.231 69.1707 16.354 69.1707 16.5263C69.1707 16.7479 68.9333 17.0433 68.5061 17.4864C67.4616 18.4956 66.2985 18.9879 65.0167 18.9879C63.9722 18.9879 63.1414 18.6679 62.4768 18.0033C61.8121 17.3387 61.4798 16.4771 61.4798 15.4433C61.4798 14.0894 62.002 12.8586 63.0939 11.7755C64.1621 10.717 65.349 10.2001 66.702 10.2001ZM57.7209 10.2001C58.5219 10.2001 59.2227 10.3644 59.7484 10.7165C60.5494 11.2094 60.9499 11.937 60.9248 12.8524C60.9248 13.1106 60.8998 13.3923 60.8247 13.6739C60.5243 15.1057 60.1989 16.5375 59.8735 17.9692C59.8068 18.2405 59.6214 18.4004 59.3349 18.4326L59.2227 18.4387H58.1464C57.771 18.4387 57.5707 18.2978 57.5707 17.9927C57.5707 17.9458 57.5957 17.8988 57.5957 17.8519C57.9211 16.4671 58.2215 15.1057 58.5469 13.7443C58.5719 13.6504 58.5719 13.5566 58.5719 13.4392C58.5719 13.1341 58.4968 12.8759 58.2966 12.6646C58.0463 12.383 57.6959 12.2421 57.2453 12.2421C56.7697 12.2421 56.3442 12.383 55.9938 12.6412C55.6183 12.9228 55.393 13.3218 55.2679 13.8382C54.9425 15.2231 54.6421 16.5844 54.3167 17.9692C54.2717 18.2439 54.0847 18.4044 53.7923 18.4338L53.691 18.4387H52.6397C52.2642 18.4387 52.064 18.2978 52.064 17.9927C52.064 17.9458 52.089 17.8988 52.089 17.8284C52.6146 15.4343 53.1653 13.0637 53.716 10.6695C53.761 10.3738 53.9278 10.2301 54.1796 10.2386L54.2667 10.247H55.318C55.6684 10.247 55.8436 10.3644 55.8686 10.5991C56.3442 10.3409 56.97 10.2001 57.7209 10.2001ZM35.3345 6.90502L35.4159 6.91353H36.525C36.8554 6.91353 37.0206 7.03161 37.0206 7.2914C37.0206 7.33863 37.0206 7.40948 36.997 7.50395C36.761 8.56672 36.525 9.60588 36.289 10.645C36.9498 10.1963 37.7285 9.98375 38.6017 9.98375C39.6164 9.98375 40.466 10.2908 41.0795 10.9521C41.7639 11.5897 42.0943 12.3927 42.0943 13.361C42.0943 14.6836 41.5515 15.8644 40.466 16.9036C39.3804 17.9191 38.1769 18.4387 36.8554 18.4387C35.9586 18.4387 35.2507 18.1789 34.7315 17.6593V17.8246C34.6843 18.1553 34.4719 18.3206 34.1416 18.3206H33.1976C32.8436 18.3206 32.6785 18.1789 32.6785 17.8719C32.6785 17.8246 32.702 17.7774 32.702 17.7065C33.4572 14.2348 34.1888 10.7867 34.9203 7.33863C34.9675 7.00799 35.1327 6.86629 35.4159 6.91353L35.3345 6.90502ZM129.447 12.4093C128.714 12.4093 128.075 12.7039 127.507 13.3176C127.011 13.8331 126.774 14.4467 126.774 15.1095C126.774 15.6741 126.963 16.1159 127.318 16.435C127.626 16.705 128.004 16.8523 128.477 16.8523C129.211 16.8523 129.873 16.5332 130.441 15.9195C130.938 15.3795 131.198 14.7658 131.174 14.1031C131.174 13.563 130.985 13.1457 130.63 12.8266C130.323 12.5321 129.921 12.4093 129.447 12.4093ZM48.0519 12.3848C47.3185 12.3848 46.6797 12.6793 46.1119 13.293C45.6151 13.8085 45.3785 14.4222 45.3785 15.0849C45.3785 15.6495 45.5678 16.0914 45.9227 16.4105C46.2302 16.6805 46.6087 16.8278 47.0819 16.8278C47.8153 16.8278 48.4777 16.5087 49.0455 15.895C49.5423 15.3304 49.7789 14.7413 49.7789 14.0785C49.7789 13.5385 49.5896 13.1212 49.2348 12.8021C48.9272 12.5075 48.525 12.3848 48.0519 12.3848ZM75.3025 12.3602C74.556 12.3602 73.9058 12.6793 73.3278 13.293C72.8462 13.8085 72.6054 14.3976 72.6054 15.0604C72.6054 15.625 72.774 16.0668 73.1352 16.3859C73.4482 16.656 73.8336 16.8032 74.2911 16.8032C75.0376 16.8032 75.6878 16.4841 76.2658 15.8705C76.7715 15.3304 77.0364 14.7167 77.0364 14.054C77.0364 13.5139 76.8437 13.0966 76.4825 12.7775C76.1694 12.5075 75.7841 12.3602 75.3025 12.3602ZM98.5885 12.3602C97.8421 12.3602 97.1679 12.6793 96.6141 13.293C96.1326 13.8085 95.8918 14.3976 95.8918 15.0604C95.8918 15.625 96.0603 16.0668 96.4215 16.3859C96.7345 16.656 97.1198 16.8032 97.5773 16.8032C98.3237 16.8032 98.9738 16.4841 99.5517 15.8705C100.057 15.3059 100.298 14.6922 100.322 14.054C100.322 13.5139 100.13 13.0966 99.7684 12.7775C99.4554 12.5075 99.0701 12.3602 98.5885 12.3602ZM108.409 12.3036C107.644 12.3036 106.977 12.5873 106.384 13.1781C105.865 13.6745 105.618 14.2654 105.618 14.9035C105.618 15.4471 105.816 15.8726 106.186 16.1798C106.532 16.4398 106.927 16.5816 107.421 16.5816C108.187 16.5816 108.879 16.2744 109.472 15.6835C109.99 15.1635 110.237 14.5726 110.213 13.9581C110.213 13.4145 110.015 13.0127 109.645 12.7054C109.323 12.4218 108.903 12.3036 108.409 12.3036ZM89.0486 12.3036C88.2828 12.3036 87.6158 12.5873 87.0229 13.1781C86.5042 13.6745 86.2571 14.2654 86.2571 14.9035C86.2571 15.4471 86.4547 15.8726 86.8253 16.1798C87.1464 16.4398 87.5417 16.5816 88.0358 16.5816C88.8016 16.5816 89.4932 16.2744 90.0861 15.6835C90.6049 15.1635 90.8519 14.5726 90.8519 13.9581C90.8519 13.4145 90.6543 13.0127 90.2837 12.7054C89.9626 12.4218 89.5426 12.3036 89.0486 12.3036ZM38.2005 12.1093C37.469 12.1093 36.8082 12.3927 36.2418 12.9831C35.7699 13.4791 35.5103 14.0695 35.5103 14.7072C35.5103 15.2268 35.6991 15.6519 36.053 15.9589C36.3598 16.2187 36.761 16.3604 37.233 16.3604C37.9645 16.3604 38.6253 16.0534 39.2153 15.4629C39.7344 14.9433 39.9704 14.3529 39.9468 13.7625C39.9468 13.2429 39.7816 12.8178 39.404 12.5108C39.0973 12.251 38.6961 12.1093 38.2005 12.1093Z" fill="#009A36"/>
</svg>
