<svg width="141" height="33" viewBox="0 0 141 33" fill="none" xmlns="http://www.w3.org/2000/svg">
<g clip-path="url(#clip0_3771_11132)">
<path fill-rule="evenodd" clip-rule="evenodd" d="M2.70984 19.7221L16.2358 32.5385L29.7699 19.7221L26.6215 16.7428L16.2358 26.5732L9.00109 19.7221L16.2358 12.8729L19.3231 15.7889L22.4669 12.8086L16.2358 6.91052L2.70984 19.7221Z" fill="#0081FF"/>
<path fill-rule="evenodd" clip-rule="evenodd" d="M29.765 12.8169L16.239 0L2.70642 12.8169L5.84975 15.7942L16.239 5.96092L23.4742 12.8169L16.239 19.6656L13.1533 16.7462L10.0023 19.7216L16.239 25.627L29.765 12.8169Z" fill="#0081FF"/>
<path d="M60.5491 19.3927C59.8967 19.5257 59.2444 19.5906 58.8954 19.6029C58.3046 19.6324 57.9541 19.5241 57.7508 19.192C57.5475 18.8603 57.4923 18.3053 57.4923 17.442C57.4923 15.7143 57.7198 15.2166 58.8954 15.268C59.2444 15.2843 59.9928 15.4436 60.5538 15.4989L60.7154 14.4903C60.1651 14.3928 59.4449 14.2594 58.951 14.2407C56.3358 14.126 55.7005 15.229 55.7005 17.442C55.7005 19.6575 56.3369 20.7433 58.955 20.6394C59.4846 20.6203 60.1997 20.5223 60.7591 20.4148L60.5491 19.3927ZM38.6746 11.8922L39.0224 11.9014C40.7154 11.9933 41.7131 12.7734 41.7131 14.1973C41.7131 14.658 41.6341 15.0311 41.4924 15.3313C41.3506 15.6315 41.1465 15.8593 40.8972 16.0285C41.5043 16.3307 42.0343 16.8794 42.0343 17.9186C42.0343 19.894 40.6522 20.5168 38.8962 20.5168H35.1827V11.8922H38.6746ZM38.9158 16.7204L36.9221 16.7201V19.3087H38.8962L39.2233 19.2956C39.9348 19.2314 40.2782 18.9137 40.2782 17.9186C40.2782 16.7269 39.429 16.7201 38.8033 16.7201L38.9158 16.7204ZM38.6746 13.1011H36.9221V15.522H38.8033L39.1006 15.5049C39.7355 15.4241 39.9622 15.0482 39.9622 14.1973C39.9622 13.328 39.6692 13.1011 38.6746 13.1011ZM45.5746 14.2407C46.4374 14.2407 47.0651 14.4433 47.4772 14.8025C47.8897 15.1613 48.0862 15.6769 48.0862 16.3024V20.455L47.295 20.5438C46.4969 20.6251 45.6755 20.6725 44.8068 20.5849C43.3826 20.4359 42.5056 19.7045 42.5056 18.5482C42.5056 17.5018 43.1313 16.7552 44.7722 16.5621C45.3779 16.4903 46.0925 16.4758 46.2981 16.4731L46.356 16.4725V16.2351L46.3453 16.0118C46.2952 15.5284 46.0638 15.3046 45.5746 15.3046C44.9795 15.3046 44.2517 15.4448 43.2734 15.6367L43.0845 14.5919C44.1128 14.3876 44.825 14.2407 45.5746 14.2407ZM46.356 17.5018L45.7668 17.5177C45.5981 17.5272 45.4087 17.542 45.2181 17.5659C44.9239 17.6029 44.6936 17.6965 44.5368 17.8561C44.38 18.0162 44.2966 18.2424 44.2966 18.5462C44.2966 18.9985 44.4455 19.3971 45.0775 19.5217C45.4726 19.6014 45.878 19.5747 46.356 19.5217V17.5018ZM64.0243 14.2383L64.3828 14.2494C66.1265 14.3621 67.1525 15.3249 67.1525 17.3373C67.1525 18.4072 66.9917 19.2299 66.5204 19.7849C66.0487 20.34 65.267 20.6279 64.0243 20.6279C61.5662 20.6279 60.8452 19.6213 60.8452 17.315C60.8452 15.1398 61.8779 14.2383 64.0243 14.2383ZM64.0243 15.2839C63.5018 15.2839 63.1508 15.3723 62.93 15.6701C62.7097 15.968 62.62 16.4756 62.62 17.315C62.62 19.1116 62.8586 19.591 64.0243 19.591C65.1721 19.591 65.3777 19.0196 65.3777 17.3373L65.3718 17.055C65.3106 15.7036 64.8005 15.2839 64.0243 15.2839ZM75.9265 11.8974V20.4849L75.2626 20.5546C74.6472 20.6123 74.1609 20.6346 73.6471 20.6346C70.7313 20.6346 70.1338 19.4345 70.1338 17.3007C70.1338 15.4038 70.7893 14.2291 72.9999 14.2291C73.4514 14.2291 73.8635 14.2594 74.1958 14.3032V11.8974H75.9265ZM73.2502 15.2501L72.9999 15.2696C72.5688 15.3293 72.3008 15.4806 72.1396 15.7979C71.9792 16.1149 71.9264 16.5983 71.9264 17.3218C71.9264 18.844 72.1058 19.5042 73.3954 19.5779C73.9135 19.6065 74.1958 19.5583 74.1958 19.5583V15.3603L73.9453 15.305C73.6717 15.2548 73.3342 15.227 72.9999 15.2696L73.2502 15.2501ZM79.5764 14.2379C81.5766 14.2379 82.6224 15.1848 82.6224 17.2286V17.9354H78.4524L78.4802 18.3355C78.5719 19.2008 78.8696 19.5934 79.7487 19.5934C80.3319 19.5934 81.5754 19.4301 82.1964 19.2971L82.385 20.3372L81.6917 20.467C81.0116 20.5793 80.368 20.639 79.7308 20.639C78.4424 20.639 77.6682 20.3025 77.2164 19.7335C76.7646 19.1649 76.6348 18.3634 76.6348 17.4341C76.6348 15.0896 77.7246 14.2379 79.5764 14.2379ZM79.6403 15.2839C79.2444 15.2839 78.959 15.3803 78.7668 15.6295C78.5747 15.8792 78.4754 16.2817 78.4524 16.8937H80.8715L80.8401 16.4701C80.7329 15.5706 80.3792 15.2839 79.6403 15.2839ZM49.0097 20.512H50.7186V15.4539C51.0338 15.3707 51.5265 15.2696 51.9791 15.2696C52.7823 15.2696 53.1416 15.6582 53.2191 16.7799L53.2353 17.3062V20.512H54.9751V17.3062C54.9751 16.31 54.785 15.5407 54.3157 15.0203C53.846 14.4999 53.0964 14.2287 51.9791 14.2287C51.0612 14.2287 50.2429 14.4019 49.3818 14.7121L49.0097 14.8531V20.512Z" fill="#022047"/>
<path fill-rule="evenodd" clip-rule="evenodd" d="M93.4615 16.116C93.4615 13.1158 91.9945 11.8472 89.4321 11.8472C86.6231 11.8472 85.3287 13.0485 85.3287 16.0842C85.3287 17.6996 85.5515 18.844 86.1756 19.585C86.8001 20.3256 87.8253 20.6624 89.4321 20.6624C92.4693 20.6624 93.3535 19.2971 93.4516 16.6604L93.4615 16.116ZM87.1134 16.0842C87.1134 13.6657 87.7566 13.0445 89.4321 13.0445C90.1245 13.0445 90.6871 13.24 91.0766 13.7214C91.466 14.2032 91.6824 14.9709 91.6824 16.116C91.6824 18.3446 91.3862 19.3282 89.7727 19.4424L89.4321 19.4536C87.4961 19.4536 87.1134 18.6425 87.1134 16.0842ZM113.696 11.9429V20.5304L112.448 20.6367C112.086 20.6638 111.761 20.6801 111.417 20.6801C108.504 20.6801 107.903 19.48 107.903 17.3462C107.903 15.4492 108.562 14.2746 110.772 14.2746C111.223 14.2746 111.633 14.3049 111.965 14.3487V11.9429H113.696ZM110.772 15.315C110.34 15.3744 110.072 15.5261 109.912 15.8434C109.751 16.16 109.698 16.6434 109.698 17.3673C109.698 18.8895 109.877 19.5592 111.165 19.6233L111.215 19.6251C111.291 19.6278 111.379 19.6309 111.47 19.6309C111.55 19.6309 111.644 19.6239 111.735 19.6169C111.817 19.6108 111.897 19.6048 111.965 19.6038V15.4058L111.717 15.3505C111.513 15.3129 111.272 15.2875 111.023 15.2954C110.94 15.298 110.856 15.3043 110.772 15.315ZM107.047 13.4662H105.333V12.1693H107.047V13.4662ZM107.047 20.565H105.333V14.4H107.047V20.565ZM123.048 20.5574H121.343V14.8985L121.715 14.7575C122.576 14.4473 123.396 14.2741 124.309 14.2741C125.427 14.2741 126.176 14.5453 126.645 15.0657C127.115 15.5861 127.305 16.3554 127.305 17.3516V20.5574H125.566V17.3516L125.55 16.8253C125.472 15.7036 125.112 15.315 124.309 15.315C123.855 15.315 123.363 15.4161 123.048 15.4993V20.5574ZM128.732 12.9707V14.4281H127.674V15.4733H128.732V18.5301C128.732 19.9751 128.993 20.6799 130.512 20.6799C130.72 20.6799 131.108 20.6755 131.642 20.5975L132.063 20.5254L131.86 19.5013C131.757 19.5106 131.663 19.5201 131.577 19.5288C131.271 19.5599 131.062 19.5812 130.853 19.5495C130.627 19.5176 130.54 19.3587 130.51 18.9824L130.496 18.5301V15.4733H131.865V14.4281H130.496V12.9707H128.732ZM120.528 17.2637C120.528 15.2258 119.486 14.279 117.484 14.279C115.629 14.279 114.543 15.1279 114.543 17.4752C114.543 18.4037 114.672 19.2044 115.124 19.7742C115.576 20.3432 116.35 20.6801 117.641 20.6801C118.276 20.6801 118.917 20.6196 119.598 20.5057L120.292 20.3747L120.108 19.3315C119.481 19.4728 118.239 19.6309 117.659 19.6309C116.775 19.6309 116.48 19.2419 116.388 18.3754L116.36 17.9749H120.528V17.2637ZM116.674 15.6682C116.866 15.4182 117.151 15.321 117.548 15.321C118.283 15.321 118.637 15.6065 118.746 16.5092L118.778 16.9348H116.36C116.384 16.322 116.482 15.9183 116.674 15.6682ZM135.248 14.2833C137.249 14.2833 138.294 15.2302 138.294 17.274V17.9808H134.124L134.151 18.3809C134.242 19.2462 134.538 19.6388 135.417 19.6388C136.005 19.6388 137.244 19.4755 137.868 19.3425L138.057 20.3826L137.363 20.5124C136.683 20.6247 136.039 20.6844 135.402 20.6844C134.114 20.6844 133.341 20.348 132.89 19.779C132.439 19.2104 132.31 18.4088 132.31 17.4795C132.31 15.135 133.39 14.2833 135.248 14.2833ZM135.31 15.3293C134.913 15.3293 134.629 15.4257 134.437 15.6749C134.245 15.9246 134.147 16.3271 134.124 16.9391H136.539L136.507 16.5155C136.401 15.616 136.047 15.3293 135.31 15.3293ZM102.67 19.6483C103.022 19.6359 103.675 19.571 104.327 19.438L104.533 20.4602C103.974 20.5677 103.259 20.6656 102.731 20.6847C100.117 20.7887 99.4757 19.7028 99.4757 17.4874C99.4757 15.2743 100.111 14.1713 102.731 14.286C103.189 14.3034 103.844 14.4203 104.376 14.515L104.492 14.5357L104.331 15.5443C104.062 15.5176 103.748 15.4669 103.456 15.4196C103.142 15.3687 102.852 15.3218 102.67 15.3133C101.496 15.2619 101.272 15.7597 101.272 17.4874C101.272 18.3506 101.327 18.9057 101.53 19.2374C101.733 19.5694 102.082 19.6777 102.67 19.6483ZM98.9931 19.438C98.3411 19.571 97.6888 19.6359 97.3339 19.6483C96.7462 19.6777 96.3977 19.5694 96.1956 19.2374C95.9935 18.9057 95.9383 18.3506 95.9383 17.4874C95.9383 15.7597 96.1582 15.2619 97.3339 15.3133C97.519 15.3218 97.8115 15.3693 98.1278 15.4205C98.4177 15.4675 98.7276 15.5178 98.9931 15.5443L99.1562 14.5357L99.0677 14.5198C98.5345 14.4242 97.8621 14.3037 97.3926 14.286C94.7774 14.1713 94.1425 15.2743 94.1425 17.4874C94.1425 19.7028 94.7833 20.7887 97.395 20.6847C97.9254 20.6656 98.6417 20.5677 99.1979 20.4602L98.9931 19.438Z" fill="#0081FF"/>
</g>
<defs>
<clipPath id="clip0_3771_11132">
<rect width="141" height="32.5385" fill="white"/>
</clipPath>
</defs>
</svg>
