<svg width="141" height="29" viewBox="0 0 141 29" fill="none" xmlns="http://www.w3.org/2000/svg">
<path d="M31.856 16.3227C31.067 16.5191 30.4753 16.6173 29.8835 16.6173C28.4041 16.6173 28.1082 15.3407 28.1082 14.2605C28.1082 12.591 28.7 11.7072 29.8835 11.7072C30.4753 11.7072 30.8698 11.8054 30.8698 11.8054L31.9546 12.1982V10.8233L31.856 10.7251C31.4615 10.5287 30.5739 10.2341 29.489 10.2341C27.3192 10.2341 25.9385 11.8054 25.9385 14.1623C25.9385 16.4209 27.3192 17.894 29.2917 17.894C30.1794 17.894 30.9684 17.6976 32.1519 17.2065L32.3491 17.1083L32.0533 16.0281L31.856 16.3227Z" fill="#002C76"/>
<path fill-rule="evenodd" clip-rule="evenodd" d="M6.90379 12.4929C7.89004 12.1 8.28455 11.4126 8.28455 10.2342C8.28455 9.15395 7.79142 8.27013 6.90379 7.97552C6.31204 7.68091 5.72028 7.68091 3.8464 7.68091H0V8.76114C0 8.76114 0.88763 8.85934 1.18351 8.95755V17.9922H4.2409C5.72028 17.9922 6.41066 17.894 7.00241 17.5994C7.98867 17.1084 8.58042 16.2246 8.58042 15.0461C8.67905 13.6713 8.0873 12.7875 6.90379 12.4929ZM3.35327 8.95755H3.74777H3.94502C4.73403 8.95755 5.32578 8.95755 5.72028 9.25216C6.01616 9.44856 6.11478 9.84138 6.11478 10.2342C6.11478 11.2162 5.81891 11.7072 4.6354 11.8054L3.74777 11.9036L3.35327 12.5911V8.95755ZM3.74777 16.6174C4.6354 16.6174 5.32578 16.6174 5.81891 16.2246C6.21341 15.93 6.41066 15.4389 6.41066 14.8497C6.41066 14.2605 6.21341 13.8677 5.91753 13.5731C5.52303 13.2785 4.93128 13.2785 4.14227 13.2785H3.4519H3.35327V16.6174H3.74777Z" fill="#002C76"/>
<path fill-rule="evenodd" clip-rule="evenodd" d="M67.3613 12.4929C68.3476 12.1 68.7421 11.4126 68.7421 10.2342C68.7421 9.15395 68.2489 8.27013 67.3613 7.97552C66.7696 7.68091 66.1778 7.68091 64.3039 7.68091H60.4575V8.76114C60.4575 8.76114 61.3451 8.85934 61.641 8.95755V17.9922H64.6984C66.1778 17.9922 66.8682 17.894 67.4599 17.5994C68.4462 17.1084 69.0379 16.2246 69.0379 15.0461C69.1366 13.6713 68.5448 12.7875 67.3613 12.4929ZM63.8108 8.95755H64.2053H64.4025C65.1915 8.95755 65.7833 8.95755 66.1778 9.25216C66.4737 9.44856 66.5723 9.84138 66.5723 10.2342C66.5723 11.2162 66.2764 11.7072 65.0929 11.8054L64.2053 11.9036L63.8108 12.5911V8.95755ZM64.2053 16.6174C65.0929 16.6174 65.7833 16.6174 66.2764 16.2246C66.6709 15.93 66.9668 15.4389 66.8682 14.8497C66.8682 14.2605 66.6709 13.8677 66.3751 13.5731C65.9806 13.2785 65.3888 13.2785 64.5998 13.2785H63.9094H63.8108V16.6174H64.2053Z" fill="#002C76"/>
<path d="M22.8811 10.3324C22.2893 10.3324 21.5003 10.5288 20.5141 10.9216C20.5141 10.7252 20.5141 10.3324 20.5141 10.3324L17.4567 10.7252V11.8054C17.4567 11.8054 18.3443 11.8054 18.6402 11.8054C18.6402 12.1983 18.6402 17.894 18.6402 17.894H20.7113C20.7113 17.894 20.7113 12.5911 20.7113 12.1983C21.0072 12.1001 21.5989 11.9036 22.2893 11.9036C22.5852 11.9036 22.8811 12.0018 22.9797 12.1001C23.1769 12.2965 23.1769 12.6893 23.1769 13.1803V17.894H25.2481V13.0821C25.2481 12.0018 25.1495 11.609 24.8536 11.118C24.3605 10.627 23.7687 10.3324 22.8811 10.3324Z" fill="#002C76"/>
<path fill-rule="evenodd" clip-rule="evenodd" d="M32.645 14.1623C32.645 11.8054 34.1244 10.3324 36.3928 10.3324C38.6612 10.3324 40.0419 11.8054 40.0419 14.1623C40.0419 16.5192 38.6612 17.9922 36.3928 17.9922C34.0258 17.9922 32.645 16.5192 32.645 14.1623ZM34.8148 14.1623C34.8148 16.421 35.7024 16.7156 36.3928 16.7156C37.0832 16.7156 37.8722 16.421 37.9708 14.0641C37.9708 11.9036 37.0832 11.609 36.3928 11.609C35.6038 11.609 34.8148 11.9036 34.8148 14.1623Z" fill="#002C76"/>
<path fill-rule="evenodd" clip-rule="evenodd" d="M86.1987 14.1623C86.1987 11.8054 87.6781 10.3324 89.9465 10.3324C92.3135 10.3324 93.6943 11.8054 93.6943 14.1623C93.6943 16.5192 92.2149 17.9922 89.9465 17.9922C87.5795 17.9922 86.1987 16.5192 86.1987 14.1623ZM88.3685 14.1623C88.3685 16.421 89.2561 16.7156 89.9465 16.7156C90.7355 16.7156 91.5245 16.421 91.5245 14.0641C91.5245 11.9036 90.6369 11.609 89.9465 11.609C89.1575 11.609 88.3685 11.9036 88.3685 14.1623Z" fill="#002C76"/>
<path d="M98.6255 16.5191L97.1462 16.7156C96.8503 16.7156 96.7517 16.6173 96.653 16.5191C96.653 16.4209 96.5544 16.4209 96.5544 15.8317C96.5544 15.7335 96.5544 12.1982 96.5544 11.8054C96.9489 11.8054 98.6255 11.8054 98.6255 11.8054V10.5288C98.6255 10.5288 96.9489 10.5288 96.5544 10.5288C96.5544 10.1359 96.5544 8.5647 96.5544 8.5647H96.2585L94.4833 8.7611V15.7335C94.4833 16.5191 94.5819 17.0102 94.8778 17.403C95.1737 17.7958 95.6668 17.9922 96.3572 17.9922C97.0475 17.9922 97.7379 17.7958 98.5269 17.5012L98.7242 17.403L98.6255 16.5191Z" fill="#002C76"/>
<path fill-rule="evenodd" clip-rule="evenodd" d="M70.1228 14.1623C70.1228 11.8054 71.6022 10.3324 73.8706 10.3324C76.139 10.3324 77.5197 11.8054 77.5197 14.1623C77.5197 16.5192 76.139 17.9922 73.8706 17.9922C71.5036 17.9922 70.1228 16.5192 70.1228 14.1623ZM72.2926 14.1623C72.2926 16.421 73.1802 16.7156 73.8706 16.7156C74.6596 16.7156 75.4486 16.421 75.4486 14.0641C75.4486 11.9036 74.561 11.609 73.8706 11.609C73.0816 11.609 72.2926 11.9036 72.2926 14.1623Z" fill="#002C76"/>
<path fill-rule="evenodd" clip-rule="evenodd" d="M83.24 10.866C82.768 10.6145 82.2213 10.5288 81.7606 10.5288C79.6895 10.5288 78.2101 12.1983 78.2101 14.4569C78.2101 16.6174 79.3936 17.9922 81.1689 17.9922C81.662 17.9922 82.1551 17.894 83.24 17.403V17.9922C83.24 19.2689 82.7469 19.6617 81.1689 19.6617C80.4785 19.6617 79.4922 19.5635 78.7032 19.3671V20.6437C80.2812 20.9383 80.873 21.0365 81.662 21.0365C82.6482 21.0365 83.5359 20.8401 84.1276 20.5455C85.0152 20.0545 85.3111 19.3671 85.3111 18.0904V10.627H83.24V10.866ZM82.3524 16.5192C82.7469 16.5192 82.9441 16.5192 83.3386 16.421V12.0019C82.9441 11.9037 82.7469 11.9037 82.5496 11.9037C81.2675 11.9037 80.4785 12.6893 80.4785 14.2605C80.4785 15.7336 81.0702 16.5192 82.3524 16.5192Z" fill="#002C76"/>
<path fill-rule="evenodd" clip-rule="evenodd" d="M14.3993 10.7252H16.3718V16.5191H17.1608V17.6976L14.3007 17.9922V17.3048C13.413 17.894 12.8213 18.0904 12.3282 18.0904C10.4543 18.0904 9.36938 16.7155 9.36938 14.5551C9.36938 12.1982 10.8488 10.627 12.8213 10.627C13.413 10.627 13.9062 10.7252 14.3993 11.0198V10.7252ZM13.413 16.6173C13.8075 16.6173 14.0048 16.6173 14.3993 16.5191V12.0018C14.0048 11.9036 13.9062 11.9036 13.6103 11.9036C12.2295 11.9036 11.4405 12.7874 11.4405 14.3587C11.4405 15.8317 12.1309 16.6173 13.413 16.6173Z" fill="#002C76"/>
<path fill-rule="evenodd" clip-rule="evenodd" d="M104.247 10.7252H106.22V16.5191H107.009V17.6976L104.149 17.9922V17.3048C103.261 17.894 102.669 18.0904 102.176 18.0904C100.302 18.0904 99.2173 16.7155 99.2173 14.5551C99.2173 12.1982 100.697 10.627 102.669 10.627C103.261 10.627 103.754 10.7252 104.247 11.0198V10.7252ZM103.162 16.6173C103.557 16.6173 103.754 16.6173 104.149 16.5191V12.0018C103.754 11.9036 103.655 11.9036 103.36 11.9036C101.979 11.9036 101.19 12.7874 101.19 14.3587C101.19 15.8317 101.88 16.6173 103.162 16.6173Z" fill="#002C76"/>
<path d="M105.233 8.85933L104.74 7.28809L104.543 7.38629L101.288 8.66293L101.584 9.54676L105.233 8.85933Z" fill="#002C76"/>
<path fill-rule="evenodd" clip-rule="evenodd" d="M49.8059 7.09167H49.9045C49.9045 7.09167 49.8059 16.5192 49.9045 16.5192H50.7921V17.403L48.0306 17.7958V17.2066C47.2416 17.5994 45.8609 17.894 44.8746 17.5994C43.4938 17.1084 42.7048 15.7335 42.7048 14.0641C42.7048 12.1982 43.5925 10.9216 44.9732 10.4306C45.9595 10.136 47.143 10.3324 47.932 10.627V8.27011H46.9457V7.38628L49.6086 7.09167H49.8059ZM45.2691 16.0282C45.8609 16.8138 46.9457 16.7156 47.8334 16.421C47.8334 16.3891 47.836 16.2513 47.8399 16.0427C47.8602 14.9655 47.916 12.0018 47.8334 12.0018C47.0444 11.609 45.9595 11.5108 45.3677 12.1982C44.9732 12.6892 44.776 13.1803 44.776 13.9659V14.1623C44.776 14.8497 44.8746 15.5371 45.2691 16.0282Z" fill="#002C76"/>
<path fill-rule="evenodd" clip-rule="evenodd" d="M53.5537 10.5288C53.9482 10.3324 54.3427 10.3324 54.8358 10.3324C54.8375 10.3324 54.8402 10.3324 54.8437 10.3324C55.0409 10.3301 57.9935 10.2963 58.0904 13.7695V14.2605V14.3588H57.4987L53.5537 14.2605C53.5537 14.8498 53.6523 15.6354 54.0468 16.1264C54.7774 17.0357 55.9308 16.682 56.8806 16.3908C56.9565 16.3675 57.0312 16.3446 57.1042 16.3228L57.7946 16.1264L58.0904 17.2066H57.9918C56.7097 17.8941 54.8358 18.2869 53.5537 17.8941C52.0743 17.403 51.1866 16.0282 51.1866 14.2605C51.1866 12.2965 52.0743 11.0198 53.5537 10.5288ZM54.7372 11.7073C53.455 11.7073 53.3564 13.1803 53.3564 13.2785H56.1179C56.1179 13.1803 56.1179 11.7073 54.7372 11.7073Z" fill="#002C76"/>
<path d="M126.956 0.00418432C119.465 0.138083 113.271 5.4982 112.998 12.8626C112.728 20.2312 118.338 26.4323 125.527 26.7085C129.185 26.8508 132.55 25.4323 135.011 23.0305C137.379 20.7166 137.281 16.6452 135.399 18.4905C133.329 20.5199 130.435 21.7334 127.279 21.6162C121.261 21.3944 116.566 16.4151 116.79 10.4943C116.999 5.00026 122.314 0.652754 127.071 0.389142L127.193 0C127.116 0.00418432 127.038 0.00418432 126.956 0.00418432Z" fill="url(#paint0_linear_3771_11164)"/>
<path d="M128.006 0.389349C134.045 0.766069 139.015 6.04433 121.442 11.3226C125.919 12.2267 129.225 14.3824 129.225 14.3824C144.271 6.52988 135.713 -0.0250427 127.199 7.19299e-05L127.077 0.389349C127.391 0.36842 127.7 0.36842 128.006 0.389349Z" fill="#FFCB05"/>
<path d="M120.642 3.16493C122.539 1.54041 124.894 0.513515 127.13 0.387257C127.445 0.370423 127.756 0.370423 128.063 0.391466C131.031 0.576644 133.741 1.94444 133.659 3.92247L135.143 2.1254C133.161 0.774448 130.205 -0.00834999 127.253 6.71919e-05C127.175 6.71919e-05 127.098 6.71919e-05 127.016 6.71919e-05C124.236 0.0505703 121.636 0.820742 119.453 2.15066L120.642 3.16493Z" fill="url(#paint1_linear_3771_11164)"/>
<path d="M134.482 20.863C134.477 20.7919 134.232 19.0484 134.232 19.0484C133.623 14.9047 134.473 10.8908 140.669 10.5604C131.682 6.14085 125.708 10.3723 121.331 11.3632C125.315 11.8692 133.713 16.4769 134.482 20.863Z" fill="url(#paint2_linear_3771_11164)"/>
<path d="M137.443 11.7675C133.613 13.3849 134.006 17.8642 134.373 20.4915C134.447 20.7052 134.831 22.3393 133.944 24.0448C132.845 25.9639 131.063 27.4137 127.63 28.3523C136.429 28.7713 146.5 20.106 137.443 11.7675Z" fill="url(#paint3_linear_3771_11164)"/>
<defs>
<linearGradient id="paint0_linear_3771_11164" x1="126.344" y1="27.6864" x2="136.801" y2="27.6864" gradientUnits="userSpaceOnUse">
<stop stop-color="#ED1C24"/>
<stop offset="1" stop-color="white" stop-opacity="0.01"/>
</linearGradient>
<linearGradient id="paint1_linear_3771_11164" x1="121.072" y1="3.49563" x2="133.363" y2="3.49563" gradientUnits="userSpaceOnUse">
<stop stop-color="#ED1C24"/>
<stop offset="1" stop-color="#FFCB05"/>
</linearGradient>
<linearGradient id="paint2_linear_3771_11164" x1="127.476" y1="8.48746" x2="127.476" y2="12.9625" gradientUnits="userSpaceOnUse">
<stop stop-color="#E39717"/>
<stop offset="0.1236" stop-color="#E8A116"/>
<stop offset="0.4344" stop-color="#F4B710"/>
<stop offset="0.7321" stop-color="#FCC509"/>
<stop offset="1" stop-color="#FFCB05"/>
</linearGradient>
<linearGradient id="paint3_linear_3771_11164" x1="128.849" y1="17.4528" x2="132.466" y2="22.7346" gradientUnits="userSpaceOnUse">
<stop stop-color="#E39717"/>
<stop offset="0.1013" stop-color="#E8A116"/>
<stop offset="0.3561" stop-color="#F4B710"/>
<stop offset="0.6" stop-color="#FCC509"/>
<stop offset="0.8196" stop-color="#FFCB05"/>
<stop offset="1" stop-color="#FFCB05"/>
</linearGradient>
</defs>
</svg>
