<svg width="489" height="489" viewBox="0 0 489 489" fill="none" xmlns="http://www.w3.org/2000/svg">
<path d="M405.886 193.539C405.886 289.175 328.358 366.703 232.722 366.703C137.086 366.703 59.5576 289.175 59.5576 193.539C59.5576 97.9031 137.086 20.3749 232.722 20.3749C328.358 20.3749 405.886 97.9031 405.886 193.539Z" fill="#F2F7FF"/>
<g clip-path="url(#clip0_1179_3460)">
<path d="M362.842 241.237L231.494 167.299L100.127 241.237L231.476 310.448L362.842 241.237Z" fill="#ADB8CD"/>
<path fill-rule="evenodd" clip-rule="evenodd" d="M230.146 164.903C230.983 164.432 232.005 164.432 232.842 164.903L364.191 238.842C365.068 239.335 365.605 240.269 365.591 241.275C365.577 242.281 365.014 243.2 364.123 243.669L232.757 312.879C231.955 313.302 230.996 313.302 230.194 312.879L98.8462 243.669C97.9559 243.199 97.3931 242.281 97.3792 241.275C97.3652 240.269 97.9024 239.335 98.7794 238.842L230.146 164.903ZM105.873 241.157L231.476 307.341L357.097 241.157L231.494 170.453L105.873 241.157Z" fill="#000927"/>
<path d="M316.646 327.764L231.439 279.809L146.231 327.764L231.457 372.677L316.646 327.764Z" fill="#F2F7FF"/>
<path fill-rule="evenodd" clip-rule="evenodd" d="M230.091 277.414C230.928 276.943 231.95 276.943 232.787 277.414L317.995 325.368C318.872 325.862 319.409 326.795 319.395 327.802C319.381 328.808 318.819 329.726 317.928 330.195L232.739 375.108C231.937 375.531 230.978 375.531 230.176 375.108L144.95 330.195C144.059 329.726 143.497 328.808 143.483 327.802C143.469 326.795 144.006 325.862 144.883 325.368L230.091 277.414ZM151.976 327.684L231.457 369.569L310.902 327.685L231.439 282.963L151.976 327.684Z" fill="#000927"/>
<path fill-rule="evenodd" clip-rule="evenodd" d="M229.987 308.167C230.902 307.567 232.086 307.567 233.001 308.167L364.349 394.291C365.163 394.825 365.634 395.749 365.588 396.721C365.541 397.693 364.985 398.568 364.124 399.021L232.757 468.25C231.955 468.673 230.996 468.673 230.194 468.25L98.846 399.021C97.9851 398.567 97.4284 397.692 97.382 396.72C97.3357 395.749 97.8068 394.824 98.6205 394.291L229.987 308.167ZM105.534 396.332L231.476 462.712L357.436 396.332L231.494 313.752L105.534 396.332Z" fill="#000927"/>
<path d="M362.842 241.236V396.589L231.494 465.818V310.447L362.842 241.236Z" fill="#7FB1FC"/>
<path fill-rule="evenodd" clip-rule="evenodd" d="M364.262 238.883C365.087 239.38 365.591 240.273 365.591 241.236V396.589C365.591 397.609 365.026 398.545 364.124 399.021L232.776 468.25C231.924 468.699 230.899 468.669 230.074 468.172C229.25 467.674 228.746 466.781 228.746 465.818V310.447C228.746 309.427 229.31 308.491 230.213 308.015L361.561 238.804C362.413 238.356 363.438 238.385 364.262 238.883ZM234.243 312.105V461.262L360.094 394.931V245.791L234.243 312.105Z" fill="#000927"/>
<path d="M100.127 241.236V396.589L231.476 465.818V310.447L100.127 241.236Z" fill="#7FB1FC"/>
<path fill-rule="evenodd" clip-rule="evenodd" d="M98.7075 238.883C99.5321 238.385 100.557 238.356 101.409 238.804L232.757 308.015C233.659 308.491 234.224 309.427 234.224 310.447V465.818C234.224 466.781 233.72 467.674 232.896 468.172C232.071 468.669 231.046 468.699 230.194 468.25L98.8459 399.021C97.9437 398.545 97.3789 397.609 97.3789 396.589V241.236C97.3789 240.273 97.8829 239.38 98.7075 238.883ZM102.876 245.791V394.931L228.727 461.262V312.105L102.876 245.791Z" fill="#000927"/>
<path fill-rule="evenodd" clip-rule="evenodd" d="M231.475 164.55C232.993 164.55 234.224 165.781 234.224 167.299V279.809C234.224 281.327 232.993 282.558 231.475 282.558C229.957 282.558 228.727 281.327 228.727 279.809V167.299C228.727 165.781 229.957 164.55 231.475 164.55Z" fill="#000927"/>
<path d="M285.349 310.392H187.773C184.857 310.392 182.06 309.233 179.999 307.172C177.937 305.11 176.778 302.313 176.778 299.397V97.4274C176.778 94.5115 177.937 91.7149 179.999 89.653C182.06 87.5911 184.857 86.4329 187.773 86.4329H285.349C288.265 86.4329 291.062 87.5911 293.124 89.653C295.186 91.7149 296.344 94.5115 296.344 97.4274V299.379C296.344 302.295 295.186 305.091 293.124 307.153C291.062 309.215 288.265 310.374 285.349 310.374" fill="#F2F7FF"/>
<path fill-rule="evenodd" clip-rule="evenodd" d="M189.476 89.1637C183.971 89.1637 179.508 93.6267 179.508 99.132V297.657C179.508 303.162 183.971 307.625 189.476 307.625H283.608C289.113 307.625 293.576 303.162 293.576 297.657V99.132C293.576 93.6267 289.113 89.1637 283.608 89.1637H189.476ZM174.011 99.132C174.011 90.5906 180.935 83.6664 189.476 83.6664H283.608C292.15 83.6664 299.074 90.5906 299.074 99.132V297.657C299.074 306.198 292.15 313.123 283.608 313.123H189.476C180.935 313.123 174.011 306.198 174.011 297.657V99.132Z" fill="#000927"/>
<path d="M286.046 107.928H187.278V269.475H286.046V107.928Z" fill="white"/>
<path fill-rule="evenodd" clip-rule="evenodd" d="M184.529 107.928C184.529 106.41 185.76 105.179 187.278 105.179H286.046C287.564 105.179 288.794 106.41 288.794 107.928V269.475C288.794 270.993 287.564 272.223 286.046 272.223H187.278C185.76 272.223 184.529 270.993 184.529 269.475V107.928ZM190.027 110.677V266.726H283.297V110.677H190.027Z" fill="#000927"/>
<path d="M244.907 287.981C244.907 289.061 244.694 290.13 244.281 291.127C243.867 292.124 243.261 293.03 242.496 293.793C241.732 294.555 240.825 295.159 239.827 295.571C238.829 295.982 237.759 296.193 236.68 296.19C234.498 296.19 232.405 295.324 230.862 293.781C229.319 292.238 228.452 290.145 228.452 287.963C228.457 285.784 229.326 283.696 230.868 282.157C232.411 280.618 234.501 279.754 236.68 279.754C238.862 279.754 240.955 280.62 242.498 282.163C244.041 283.706 244.907 285.799 244.907 287.981Z" fill="white"/>
<path fill-rule="evenodd" clip-rule="evenodd" d="M236.68 282.502C235.229 282.502 233.837 283.078 232.81 284.103C231.784 285.127 231.205 286.516 231.201 287.966C231.202 289.418 231.779 290.81 232.806 291.837C233.833 292.865 235.227 293.442 236.68 293.442H236.686V293.442C237.404 293.444 238.116 293.303 238.779 293.03C239.443 292.756 240.047 292.354 240.555 291.847C241.063 291.34 241.467 290.737 241.742 290.074C242.017 289.411 242.159 288.699 242.159 287.981C242.159 286.528 241.582 285.135 240.554 284.107C239.527 283.08 238.133 282.502 236.68 282.502ZM228.927 280.211C230.985 278.158 233.773 277.005 236.68 277.005C239.591 277.005 242.383 278.161 244.441 280.22C246.5 282.278 247.656 285.07 247.656 287.981C247.656 289.422 247.372 290.849 246.82 292.18C246.267 293.511 245.458 294.721 244.438 295.738C243.418 296.756 242.207 297.563 240.875 298.112C239.543 298.661 238.117 298.942 236.677 298.939C233.767 298.938 230.976 297.782 228.918 295.724C226.86 293.666 225.704 290.874 225.704 287.963V287.957H225.704C225.71 285.05 226.869 282.264 228.927 280.211ZM236.677 298.939C236.676 298.939 236.675 298.939 236.674 298.939L236.68 296.191V298.939C236.679 298.939 236.678 298.939 236.677 298.939Z" fill="#000927"/>
<path d="M225.282 97.6477C225.283 98.1183 225.102 98.571 224.778 98.9121C224.454 99.2532 224.011 99.4566 223.541 99.4802C223.071 99.4566 222.628 99.2532 222.304 98.9121C221.98 98.571 221.8 98.1183 221.8 97.6477C221.8 97.1772 221.98 96.7245 222.304 96.3834C222.628 96.0422 223.071 95.8388 223.541 95.8153C224.011 95.8388 224.454 96.0422 224.778 96.3834C225.102 96.7245 225.283 97.1772 225.282 97.6477Z" fill="#000927"/>
<path fill-rule="evenodd" clip-rule="evenodd" d="M230.083 97.6477C230.083 96.6357 230.903 95.8153 231.915 95.8153H251.541C252.553 95.8153 253.373 96.6357 253.373 97.6477C253.373 98.6598 252.553 99.4802 251.541 99.4802H231.915C230.903 99.4802 230.083 98.6598 230.083 97.6477Z" fill="#000927"/>
<path d="M362.842 241.236L382.083 272.387C383.052 273.962 383.702 275.713 383.994 277.538C384.287 279.364 384.217 281.23 383.788 283.029C383.359 284.828 382.58 286.524 381.495 288.022C380.41 289.519 379.041 290.788 377.465 291.756C377.188 291.939 376.901 292.104 376.604 292.251L273.255 346.179C269.444 348.175 265.026 348.674 260.866 347.579C256.706 346.484 253.105 343.874 250.771 340.261L231.494 310.392L362.842 241.236Z" fill="#F2F7FF"/>
<path fill-rule="evenodd" clip-rule="evenodd" d="M361.562 238.804C362.84 238.131 364.422 238.563 365.181 239.792L384.424 270.947C385.582 272.829 386.359 274.921 386.709 277.104C387.058 279.286 386.974 281.516 386.462 283.666C385.949 285.816 385.018 287.844 383.721 289.634C382.433 291.413 380.809 292.921 378.941 294.076C378.59 294.305 378.227 294.513 377.852 294.7L274.53 348.614C274.53 348.615 274.529 348.615 274.528 348.615C270.111 350.928 264.988 351.507 260.166 350.237C255.343 348.968 251.169 345.941 248.463 341.752L229.185 311.882C228.767 311.235 228.64 310.441 228.836 309.695C229.031 308.949 229.531 308.319 230.214 307.96L361.562 238.804ZM235.432 311.425L253.08 338.769C253.08 338.769 253.08 338.769 253.08 338.769C255.042 341.806 258.069 344.001 261.565 344.921C265.062 345.842 268.777 345.422 271.98 343.744L375.332 289.814C375.35 289.805 375.367 289.796 375.385 289.788C375.58 289.691 375.769 289.582 375.952 289.462C375.976 289.446 376.001 289.43 376.026 289.414C377.294 288.635 378.396 287.614 379.269 286.409C380.142 285.204 380.769 283.839 381.114 282.391C381.459 280.944 381.516 279.443 381.28 277.973C381.045 276.505 380.523 275.098 379.744 273.832M379.742 273.828L361.852 244.864L235.432 311.425" fill="#000927"/>
<path d="M100.127 241.236L80.905 272.387C79.9323 273.96 79.2797 275.71 78.9844 277.536C78.6892 279.361 78.7572 281.227 79.1845 283.027C79.6118 284.826 80.39 286.523 81.4745 288.021C82.559 289.519 83.9284 290.788 85.5044 291.756C85.781 291.939 86.0687 292.104 86.3657 292.251L189.714 346.179C193.519 348.18 197.933 348.688 202.092 347.603C206.252 346.518 209.856 343.919 212.198 340.315L231.494 310.447L100.127 241.236Z" fill="#F2F7FF"/>
<path d="M100.127 241.236L80.905 272.387C79.9323 273.96 79.2797 275.71 78.9844 277.536C78.6892 279.361 78.7572 281.227 79.1845 283.027C79.6118 284.826 80.39 286.523 81.4745 288.021C82.559 289.519 83.9284 290.788 85.5044 291.756C85.781 291.939 86.0687 292.104 86.3657 292.251L189.714 346.179C193.519 348.18 197.933 348.688 202.092 347.603C206.252 346.518 209.856 343.919 212.198 340.315L231.494 310.447L100.127 241.236Z" fill="#F2F7FF"/>
<path fill-rule="evenodd" clip-rule="evenodd" d="M97.7882 239.793C98.5473 238.563 100.13 238.131 101.409 238.805L232.775 308.015C233.457 308.375 233.957 309.004 234.153 309.751C234.348 310.497 234.221 311.291 233.803 311.939L214.503 341.814C211.787 345.992 207.608 349.005 202.786 350.263C197.965 351.52 192.848 350.932 188.438 348.614C188.437 348.613 188.436 348.613 188.435 348.612L85.1182 294.7C84.7434 294.514 84.3798 294.305 84.0292 294.076C82.1606 292.922 80.5363 291.412 79.2482 289.633C77.9516 287.842 77.0212 285.813 76.5103 283.662C75.9995 281.511 75.9181 279.28 76.2711 277.097C76.624 274.915 77.404 272.824 78.5664 270.943C78.5667 270.943 78.5661 270.944 78.5664 270.943L97.7882 239.793ZM101.118 244.865L83.2429 273.833C82.4605 275.098 81.9354 276.506 81.6979 277.974C81.4604 279.443 81.5151 280.944 81.8589 282.392C82.2026 283.839 82.8286 285.204 83.701 286.409C84.5734 287.615 85.675 288.636 86.9428 289.414C86.9682 289.43 86.9933 289.446 87.0182 289.462C87.2003 289.582 87.3897 289.691 87.5852 289.788C87.6027 289.796 87.6201 289.805 87.6373 289.814L190.994 343.747C194.192 345.429 197.903 345.855 201.399 344.944C204.895 344.032 207.924 341.847 209.893 338.818C209.893 338.818 209.893 338.819 209.893 338.818L227.555 311.479L101.118 244.865Z" fill="#000927"/>
<path d="M333.139 61.2373H253.318C251.634 61.3595 250.066 62.1428 248.958 63.4164C247.849 64.6901 247.289 66.3506 247.4 68.0356V108.514C247.298 110.197 247.862 111.852 248.969 113.123C250.076 114.395 251.638 115.181 253.318 115.312H272.925L281.098 127.205C281.654 128.106 282.546 128.75 283.577 128.994C284.608 129.237 285.694 129.062 286.595 128.506C287.184 128.139 287.67 127.628 288.006 127.021L295.336 115.312H333.139C334.821 115.185 336.386 114.401 337.494 113.128C338.602 111.856 339.163 110.198 339.057 108.514V68.0356C339.168 66.3506 338.608 64.6901 337.499 63.4164C336.391 62.1428 334.823 61.3595 333.139 61.2373Z" fill="#FFCB2F"/>
<path d="M284.433 131.475C283.369 131.461 282.325 131.186 281.392 130.675C280.459 130.164 279.666 129.432 279.082 128.543L271.624 117.677H253.3C250.989 117.553 248.821 116.521 247.269 114.804C245.717 113.087 244.907 110.826 245.017 108.514V68.0363C244.907 65.7247 245.717 63.4635 247.269 61.7468C248.821 60.0301 250.989 58.9974 253.3 58.8741H333.139C335.449 58.9974 337.618 60.0301 339.169 61.7468C340.721 63.4635 341.531 65.7247 341.421 68.0363V108.514C341.531 110.826 340.721 113.087 339.169 114.804C337.618 116.521 335.449 117.553 333.139 117.677H296.49L289.93 128.268C289.366 129.209 288.576 129.995 287.632 130.554C286.689 131.114 285.621 131.431 284.524 131.475H284.378H284.433ZM253.226 63.6751C252.176 63.8084 251.218 64.3461 250.558 65.1742C249.897 66.0023 249.586 67.0554 249.69 68.1095V108.588C249.586 109.64 249.898 110.691 250.559 111.516C251.22 112.341 252.177 112.875 253.226 113.004H272.833C273.219 113.004 273.599 113.097 273.94 113.275C274.282 113.454 274.575 113.713 274.794 114.03L282.967 125.941C283.123 126.192 283.338 126.402 283.594 126.552C283.849 126.702 284.137 126.788 284.433 126.802C284.739 126.776 285.034 126.674 285.29 126.504C285.546 126.334 285.755 126.103 285.899 125.831L293.228 114.122C293.444 113.781 293.741 113.5 294.093 113.305C294.445 113.11 294.841 113.006 295.244 113.004H333.139C334.188 112.875 335.145 112.341 335.806 111.516C336.467 110.691 336.779 109.64 336.675 108.588V68.0363C336.779 66.9822 336.468 65.9291 335.807 65.101C335.147 64.2729 334.189 63.735 333.139 63.6017L253.226 63.6751Z" fill="#000927"/>
<path d="M278.99 84.6373C278.99 84.9986 278.848 85.3454 278.594 85.6026C278.34 85.8598 277.995 86.0068 277.634 86.0116C277.27 86.0116 276.92 85.8668 276.662 85.6091C276.405 85.3513 276.26 85.0018 276.26 84.6373C276.26 84.2728 276.405 83.9232 276.662 83.6655C276.92 83.4077 277.27 83.2629 277.634 83.2629C277.995 83.2678 278.34 83.4146 278.594 83.6718C278.848 83.929 278.99 84.2759 278.99 84.6373Z" fill="#000927"/>
<path d="M277.634 88.3755C276.662 88.3755 275.73 87.9893 275.043 87.302C274.355 86.6147 273.969 85.6826 273.969 84.7106C273.992 83.746 274.386 82.8273 275.068 82.145C275.751 81.4626 276.669 81.069 277.634 81.0458C278.599 81.069 279.517 81.4626 280.2 82.145C280.882 82.8273 281.276 83.746 281.299 84.7106C281.299 85.6826 280.913 86.6147 280.226 87.302C279.538 87.9893 278.606 88.3755 277.634 88.3755ZM277.634 83.6294C277.501 83.627 277.369 83.6514 277.245 83.7011C277.122 83.7509 277.01 83.825 276.916 83.9191C276.822 84.0132 276.748 84.1253 276.698 84.2487C276.648 84.3721 276.624 84.5043 276.626 84.6374C276.626 84.9047 276.732 85.1609 276.921 85.3499C277.11 85.5389 277.367 85.6452 277.634 85.6452C277.898 85.6404 278.15 85.532 278.335 85.3435C278.52 85.1551 278.624 84.9015 278.624 84.6374C278.626 84.5059 278.602 84.3753 278.554 84.2531C278.505 84.1309 278.433 84.0196 278.34 83.9257C278.248 83.8319 278.138 83.7574 278.017 83.7065C277.896 83.6556 277.766 83.6294 277.634 83.6294Z" fill="#000927"/>
<path d="M315.602 84.6373C315.602 84.9986 315.46 85.3454 315.206 85.6026C314.953 85.8598 314.608 86.0068 314.246 86.0116C313.882 86.0116 313.532 85.8668 313.275 85.6091C313.017 85.3513 312.872 85.0018 312.872 84.6373C312.872 84.2759 313.014 83.929 313.268 83.6718C313.522 83.4146 313.867 83.2678 314.228 83.2629C314.593 83.2629 314.942 83.4077 315.2 83.6655C315.458 83.9232 315.602 84.2728 315.602 84.6373Z" fill="#000927"/>
<path d="M314.228 88.3755C313.256 88.3755 312.324 87.9893 311.636 87.302C310.949 86.6147 310.563 85.6826 310.563 84.7106C310.587 83.7303 310.993 82.7982 311.695 82.1134C312.397 81.4286 313.339 81.0455 314.32 81.0458C315.291 81.0458 316.224 81.4318 316.911 82.1191C317.598 82.8064 317.984 83.7386 317.984 84.7106C317.985 85.1997 317.887 85.6839 317.697 86.1346C317.507 86.5853 317.229 86.9935 316.879 87.335C316.529 87.6765 316.114 87.9446 315.658 88.1233C315.203 88.302 314.717 88.3877 314.228 88.3755ZM314.228 83.6294C314.096 83.6294 313.966 83.6556 313.845 83.7065C313.724 83.7574 313.614 83.8319 313.522 83.9257C313.429 84.0196 313.357 84.1309 313.308 84.2531C313.26 84.3753 313.236 84.5059 313.238 84.6374C313.238 84.9015 313.342 85.1551 313.527 85.3435C313.712 85.532 313.964 85.6404 314.228 85.6452C314.495 85.6452 314.752 85.5389 314.941 85.3499C315.13 85.1609 315.236 84.9047 315.236 84.6374C315.238 84.5043 315.214 84.3721 315.164 84.2487C315.114 84.1253 315.04 84.0132 314.946 83.9191C314.852 83.825 314.74 83.7509 314.616 83.7011C314.493 83.6514 314.361 83.627 314.228 83.6294Z" fill="#000927"/>
<path d="M295.885 99.1319C292.134 99.0932 288.54 97.6176 285.843 95.0089C285.633 94.7759 285.472 94.5035 285.367 94.2077C285.262 93.9119 285.217 93.5983 285.234 93.285C285.251 92.9717 285.33 92.6649 285.466 92.3821C285.602 92.0993 285.793 91.8462 286.027 91.6372C286.463 91.2483 287.027 91.0334 287.612 91.0334C288.196 91.0334 288.76 91.2483 289.197 91.6372C289.838 92.2603 295.665 97.5561 302.738 91.5091C302.96 91.2874 303.222 91.1115 303.512 90.9916C303.801 90.8716 304.111 90.8099 304.424 90.8099C304.737 90.8099 305.047 90.8716 305.337 90.9916C305.626 91.1115 305.889 91.2874 306.11 91.5091C306.331 91.7288 306.507 91.9899 306.626 92.2776C306.746 92.5654 306.808 92.874 306.808 93.1857C306.808 93.4974 306.746 93.8059 306.626 94.0936C306.507 94.3814 306.331 94.6426 306.11 94.8623L305.854 95.1005C303.133 97.5972 299.595 99.0173 295.903 99.0952" fill="#000927"/>
</g>
<path d="M427.875 208.198C427.875 212.729 426.532 217.157 424.015 220.924C421.498 224.691 417.921 227.626 413.735 229.36C409.55 231.094 404.944 231.547 400.501 230.663C396.058 229.78 391.977 227.598 388.773 224.395C385.57 221.191 383.388 217.11 382.505 212.667C381.621 208.224 382.074 203.618 383.808 199.433C385.542 195.247 388.478 191.67 392.244 189.153C396.011 186.636 400.44 185.293 404.97 185.293C411.045 185.293 416.871 187.706 421.166 192.002C425.462 196.297 427.875 202.123 427.875 208.198Z" fill="#00DDF4"/>
<path d="M404.97 194.497L391.227 208.199L404.97 221.901L418.713 208.199L404.97 194.497Z" fill="#000927"/>
<path fill-rule="evenodd" clip-rule="evenodd" d="M113.684 53.7914L98.4949 68.9349L113.682 84.0765L128.871 68.933L113.684 53.7914ZM113.684 46.0287L136.657 68.933L113.682 91.8392L90.709 68.9349L113.684 46.0287Z" fill="#00DDF4"/>
<path d="M259.292 173.229C259.292 168.739 258.05 164.775 254.238 160.284C251.767 157.108 246.872 153.94 246.872 153.94C243.854 151.915 239.067 151.213 235.604 151.213C223.361 151.213 211.649 158.61 211.649 173.229C211.649 186.795 221.136 195.062 235.604 195.062C243.767 195.062 248.028 198.405 248.028 203.623C248.028 208.996 241.46 211.552 235.427 211.552C228.597 211.462 222.21 208.028 222.564 201.95H211.826C211.394 214.364 220.256 221.941 235.427 221.941C247.14 221.941 259.292 215.948 259.292 203.623C259.292 199.398 257.787 192.878 248.468 189.531C255.657 186.264 259.292 180.982 259.292 173.229ZM235.604 185.216C228.506 185.216 222.473 180.811 222.473 173.229C222.473 165.126 228.51 161.161 235.604 161.161C242.698 161.161 248.468 165.832 248.468 173.229C248.468 180.717 242.702 185.207 235.604 185.207V185.216Z" fill="#000927"/>
<path d="M259.003 148.644H246.76V160.798H259.003V148.644Z" fill="#00DDF4"/>
<defs>
<clipPath id="clip0_1179_3460">
<rect width="310.871" height="409.712" fill="white" transform="translate(76.0493 58.8553)"/>
</clipPath>
</defs>
</svg>
