<svg width="56" height="56" viewBox="0 0 56 56" fill="none" xmlns="http://www.w3.org/2000/svg">
<path d="M46.667 9.33334H9.33366C6.74366 9.33334 4.69033 11.41 4.69033 14L4.66699 42C4.66699 44.59 6.74366 46.6667 9.33366 46.6667H46.667C49.257 46.6667 51.3337 44.59 51.3337 42V14C51.3337 11.41 49.257 9.33334 46.667 9.33334ZM44.3337 42H11.667C10.3837 42 9.33366 40.95 9.33366 39.6667V28H46.667V39.6667C46.667 40.95 45.617 42 44.3337 42ZM46.667 18.6667H9.33366V16.3333C9.33366 15.05 10.3837 14 11.667 14H44.3337C45.617 14 46.667 15.05 46.667 16.3333V18.6667Z" fill="white"/>
</svg>
