<svg width="24" height="24" viewBox="0 0 24 24" fill="none" xmlns="http://www.w3.org/2000/svg">
<rect width="24" height="24" rx="12" fill="#00F6B4"/>
<g clip-path="url(#clip0_3190_22344)">
<path d="M16.9498 10.445L16.4248 8.26C16.3148 7.81 15.9248 7.5 15.4698 7.5H8.52476C8.07476 7.5 7.67976 7.815 7.57476 8.26L7.04976 10.445C6.92976 10.955 7.03976 11.475 7.35976 11.885C7.39976 11.94 7.45476 11.98 7.49976 12.03V15.5C7.49976 16.05 7.94976 16.5 8.49976 16.5H15.4998C16.0498 16.5 16.4998 16.05 16.4998 15.5V12.03C16.5448 11.985 16.5998 11.94 16.6398 11.89C16.9598 11.48 17.0748 10.955 16.9498 10.445ZM15.4548 8.495L15.9798 10.68C16.0298 10.89 15.9848 11.1 15.8548 11.265C15.7848 11.355 15.6348 11.5 15.3848 11.5C15.0798 11.5 14.8148 11.255 14.7798 10.93L14.4898 8.5L15.4548 8.495ZM12.4998 8.5H13.4798L13.7498 10.76C13.7748 10.955 13.7148 11.15 13.5848 11.295C13.4748 11.425 13.3148 11.5 13.1098 11.5C12.7748 11.5 12.4998 11.205 12.4998 10.845V8.5ZM10.2448 10.76L10.5198 8.5H11.4998V10.845C11.4998 11.205 11.2248 11.5 10.8548 11.5C10.6848 11.5 10.5298 11.425 10.4098 11.295C10.2848 11.15 10.2248 10.955 10.2448 10.76ZM8.01976 10.68L8.52476 8.5H9.50976L9.21976 10.93C9.17976 11.255 8.91976 11.5 8.61476 11.5C8.36976 11.5 8.21476 11.355 8.14976 11.265C8.01476 11.105 7.96976 10.89 8.01976 10.68ZM8.49976 15.5V12.485C8.53976 12.49 8.57476 12.5 8.61476 12.5C9.04976 12.5 9.44476 12.32 9.73476 12.025C10.0348 12.325 10.4348 12.5 10.8898 12.5C11.3248 12.5 11.7148 12.32 12.0048 12.035C12.2998 12.32 12.6998 12.5 13.1498 12.5C13.5698 12.5 13.9698 12.325 14.2698 12.025C14.5598 12.32 14.9548 12.5 15.3898 12.5C15.4298 12.5 15.4648 12.49 15.5048 12.485V15.5H8.49976Z" fill="white"/>
</g>
<defs>
<clipPath id="clip0_3190_22344">
<rect width="12" height="12" fill="white" transform="translate(6 6)"/>
</clipPath>
</defs>
</svg>
