<svg width="24" height="24" viewBox="0 0 24 24" fill="none" xmlns="http://www.w3.org/2000/svg">
<rect width="24" height="24" rx="12" fill="#00F6B4"/>
<path d="M7.5 14.9411V16.5294H16.5V14.9411C16.5 13.4799 15.3141 12.2941 13.8529 12.2941H10.1471C8.68588 12.2941 7.5 13.4799 7.5 14.9411ZM8.55882 14.9411C8.55882 14.0676 9.27353 13.3529 10.1471 13.3529H13.8529C14.7265 13.3529 15.4412 14.0676 15.4412 14.9411V15.4705H8.55882V14.9411Z" fill="white"/>
<path d="M9.61768 9.38235C9.61768 10.6953 10.6871 11.7647 12 11.7647C13.313 11.7647 14.3824 10.6953 14.3824 9.38235C14.3824 8.06941 13.313 7 12 7C10.6871 7 9.61768 8.06941 9.61768 9.38235ZM13.3236 9.38235C13.3236 10.1129 12.7306 10.7059 12 10.7059C11.2694 10.7059 10.6765 10.1129 10.6765 9.38235C10.6765 8.65176 11.2694 8.05882 12 8.05882C12.7306 8.05882 13.3236 8.65176 13.3236 9.38235Z" fill="white"/>
</svg>
