<svg width="24" height="24" viewBox="0 0 24 24" fill="none" xmlns="http://www.w3.org/2000/svg">
<rect width="24" height="24" rx="12" fill="#00F6B4"/>
<g clip-path="url(#clip0_3190_22336)">
<path d="M15.5 13V9C15.5 8.45 15.05 8 14.5 8H7.5C6.95 8 6.5 8.45 6.5 9V13C6.5 13.55 6.95 14 7.5 14H14.5C15.05 14 15.5 13.55 15.5 13ZM14.5 13H7.5V9H14.5V13ZM11 9.5C10.17 9.5 9.5 10.17 9.5 11C9.5 11.83 10.17 12.5 11 12.5C11.83 12.5 12.5 11.83 12.5 11C12.5 10.17 11.83 9.5 11 9.5ZM17.5 9.5V15C17.5 15.55 17.05 16 16.5 16H8C8 15.5 8 15.55 8 15H16.5V9.5C17.05 9.5 17 9.5 17.5 9.5Z" fill="white"/>
</g>
<defs>
<clipPath id="clip0_3190_22336">
<rect width="12" height="12" fill="white" transform="translate(6 6)"/>
</clipPath>
</defs>
</svg>
