<svg width="56" height="56" viewBox="0 0 56 56" fill="none" xmlns="http://www.w3.org/2000/svg">
<path d="M9.23981 26.5533C9.89314 23.1233 13.1131 20.7667 16.6131 20.7667H23.4498C24.6631 20.7667 25.6665 19.7633 25.6665 18.55C25.6665 17.3367 24.6631 16.3333 23.4498 16.3333H16.8465C10.7565 16.3333 5.31981 20.79 4.73648 26.8567C4.05981 33.81 9.51981 39.6667 16.3331 39.6667H23.4498C24.6631 39.6667 25.6665 38.6633 25.6665 37.45C25.6665 36.2367 24.6631 35.2333 23.4498 35.2333H16.3331C11.8765 35.2333 8.35314 31.1733 9.23981 26.5533ZM20.9998 30.3333H34.9998C36.2831 30.3333 37.3331 29.2833 37.3331 28C37.3331 26.7167 36.2831 25.6667 34.9998 25.6667H20.9998C19.7165 25.6667 18.6665 26.7167 18.6665 28C18.6665 29.2833 19.7165 30.3333 20.9998 30.3333ZM39.1531 16.3333H32.5498C31.3365 16.3333 30.3331 17.3367 30.3331 18.55C30.3331 19.7633 31.3365 20.7667 32.5498 20.7667H39.3865C42.8865 20.7667 46.1065 23.1233 46.7598 26.5533C47.6465 31.1733 44.1231 35.2333 39.6665 35.2333H32.5498C31.3365 35.2333 30.3331 36.2367 30.3331 37.45C30.3331 38.6633 31.3365 39.6667 32.5498 39.6667H39.6665C46.4798 39.6667 51.9398 33.81 51.2865 26.8567C50.7031 20.79 45.2431 16.3333 39.1531 16.3333Z" fill="white"/>
</svg>
