<svg width="32" height="32" viewBox="0 0 32 32" fill="none" xmlns="http://www.w3.org/2000/svg">
<rect width="32" height="32" rx="16" fill="#7FB1FC"/>
<g clip-path="url(#clip0_3187_15339)">
<path d="M20.667 17.3334V12C20.667 11.2667 20.067 10.6667 19.3337 10.6667H10.0003C9.26699 10.6667 8.66699 11.2667 8.66699 12V17.3334C8.66699 18.0667 9.26699 18.6667 10.0003 18.6667H19.3337C20.067 18.6667 20.667 18.0667 20.667 17.3334ZM19.3337 17.3334H10.0003V12H19.3337V17.3334ZM14.667 12.6667C13.5603 12.6667 12.667 13.56 12.667 14.6667C12.667 15.7734 13.5603 16.6667 14.667 16.6667C15.7737 16.6667 16.667 15.7734 16.667 14.6667C16.667 13.56 15.7737 12.6667 14.667 12.6667ZM23.3337 12.6667V20C23.3337 20.7334 22.7337 21.3334 22.0003 21.3334H10.667C10.667 20.6667 10.667 20.7334 10.667 20H22.0003V12.6667C22.7337 12.6667 22.667 12.6667 23.3337 12.6667Z" fill="white"/>
</g>
<defs>
<clipPath id="clip0_3187_15339">
<rect width="16" height="16" fill="white" transform="translate(8 8)"/>
</clipPath>
</defs>
</svg>
