<svg width="32" height="32" viewBox="0 0 32 32" fill="none" xmlns="http://www.w3.org/2000/svg">
<rect width="32" height="32" rx="16" fill="#7FB1FC"/>
<g clip-path="url(#clip0_3187_15347)">
<path d="M22.6 13.9267L21.9 11.0133C21.7533 10.4133 21.2333 10 20.6267 10H11.3667C10.7667 10 10.24 10.42 10.1 11.0133L9.4 13.9267C9.24 14.6067 9.38667 15.3 9.81334 15.8467C9.86667 15.92 9.94 15.9733 10 16.04V20.6667C10 21.4 10.6 22 11.3333 22H20.6667C21.4 22 22 21.4 22 20.6667V16.04C22.06 15.98 22.1333 15.92 22.1867 15.8533C22.6133 15.3067 22.7667 14.6067 22.6 13.9267ZM20.6067 11.3267L21.3067 14.24C21.3733 14.52 21.3133 14.8 21.14 15.02C21.0467 15.14 20.8467 15.3333 20.5133 15.3333C20.1067 15.3333 19.7533 15.0067 19.7067 14.5733L19.32 11.3333L20.6067 11.3267ZM16.6667 11.3333H17.9733L18.3333 14.3467C18.3667 14.6067 18.2867 14.8667 18.1133 15.06C17.9667 15.2333 17.7533 15.3333 17.48 15.3333C17.0333 15.3333 16.6667 14.94 16.6667 14.46V11.3333ZM13.66 14.3467L14.0267 11.3333H15.3333V14.46C15.3333 14.94 14.9667 15.3333 14.4733 15.3333C14.2467 15.3333 14.04 15.2333 13.88 15.06C13.7133 14.8667 13.6333 14.6067 13.66 14.3467ZM10.6933 14.24L11.3667 11.3333H12.68L12.2933 14.5733C12.24 15.0067 11.8933 15.3333 11.4867 15.3333C11.16 15.3333 10.9533 15.14 10.8667 15.02C10.6867 14.8067 10.6267 14.52 10.6933 14.24ZM11.3333 20.6667V16.6467C11.3867 16.6533 11.4333 16.6667 11.4867 16.6667C12.0667 16.6667 12.5933 16.4267 12.98 16.0333C13.38 16.4333 13.9133 16.6667 14.52 16.6667C15.1 16.6667 15.62 16.4267 16.0067 16.0467C16.4 16.4267 16.9333 16.6667 17.5333 16.6667C18.0933 16.6667 18.6267 16.4333 19.0267 16.0333C19.4133 16.4267 19.94 16.6667 20.52 16.6667C20.5733 16.6667 20.62 16.6533 20.6733 16.6467V20.6667H11.3333Z" fill="white"/>
</g>
<defs>
<clipPath id="clip0_3187_15347">
<rect width="16" height="16" fill="white" transform="translate(8 8)"/>
</clipPath>
</defs>
</svg>
