<svg width="32" height="32" viewBox="0 0 32 32" fill="none" xmlns="http://www.w3.org/2000/svg">
<circle cx="16" cy="16" r="16" fill="#9D14F3"/>
<path fill-rule="evenodd" clip-rule="evenodd" d="M21.421 16C21.421 16.255 21.3985 16.495 21.3685 16.735L22.951 17.9725C23.0935 18.085 23.131 18.2875 23.041 18.4525L21.541 21.0475C21.4735 21.1675 21.346 21.235 21.2185 21.235C21.1735 21.235 21.1285 21.2275 21.0835 21.2125L19.216 20.4625C18.826 20.755 18.406 21.01 17.9485 21.1975L17.6635 23.185C17.641 23.365 17.4835 23.5 17.296 23.5H14.296C14.1085 23.5 13.951 23.365 13.9285 23.185L13.6435 21.1975C13.186 21.01 12.766 20.7625 12.376 20.4625L10.5085 21.2125C10.471 21.2275 10.426 21.235 10.381 21.235C10.246 21.235 10.1185 21.1675 10.051 21.0475L8.55102 18.4525C8.46102 18.2875 8.49852 18.085 8.64102 17.9725L10.2235 16.735C10.1935 16.495 10.171 16.2475 10.171 16C10.171 15.7525 10.1935 15.505 10.2235 15.265L8.64102 14.0275C8.49852 13.915 8.45352 13.7125 8.55102 13.5475L10.051 10.9525C10.1185 10.8325 10.246 10.765 10.3735 10.765C10.4185 10.765 10.4635 10.7725 10.5085 10.7875L12.376 11.5375C12.766 11.245 13.186 10.99 13.6435 10.8025L13.9285 8.815C13.951 8.635 14.1085 8.5 14.296 8.5H17.296C17.4835 8.5 17.641 8.635 17.6635 8.815L17.9485 10.8025C18.406 10.99 18.826 11.2375 19.216 11.5375L21.0835 10.7875C21.121 10.7725 21.166 10.765 21.211 10.765C21.346 10.765 21.4735 10.8325 21.541 10.9525L23.041 13.5475C23.131 13.7125 23.0935 13.915 22.951 14.0275L21.3685 15.265C21.3985 15.505 21.421 15.745 21.421 16ZM19.9212 16C19.9212 15.8425 19.9137 15.685 19.8837 15.4525L19.7787 14.605L20.4462 14.08L21.2487 13.4425L20.7237 12.535L19.7712 12.9175L18.9762 13.24L18.2937 12.715C17.9937 12.49 17.6937 12.3175 17.3712 12.1825L16.5762 11.86L16.4562 11.0125L16.3137 10H15.2712L15.1212 11.0125L15.0012 11.86L14.2062 12.1825C13.8987 12.31 13.5912 12.49 13.2687 12.73L12.5937 13.24L11.8137 12.925L10.8612 12.5425L10.3362 13.45L11.1462 14.08L11.8137 14.605L11.7087 15.4525C11.6862 15.6775 11.6712 15.85 11.6712 16C11.6712 16.15 11.6862 16.3225 11.7087 16.555L11.8137 17.4025L11.1462 17.9275L10.3362 18.5575L10.8612 19.465L11.8137 19.0825L12.6087 18.76L13.2912 19.285C13.5912 19.51 13.8912 19.6825 14.2137 19.8175L15.0087 20.14L15.1287 20.9875L15.2712 22H16.3212L16.4712 20.9875L16.5912 20.14L17.3862 19.8175C17.6937 19.69 18.0012 19.51 18.3237 19.27L18.9987 18.76L19.7787 19.075L20.7312 19.4575L21.2562 18.55L20.4462 17.92L19.7787 17.395L19.8837 16.5475C19.9062 16.3225 19.9212 16.1575 19.9212 16ZM15.7964 13C14.1389 13 12.7964 14.3425 12.7964 16C12.7964 17.6575 14.1389 19 15.7964 19C17.4539 19 18.7964 17.6575 18.7964 16C18.7964 14.3425 17.4539 13 15.7964 13ZM14.296 16C14.296 16.825 14.971 17.5 15.796 17.5C16.621 17.5 17.296 16.825 17.296 16C17.296 15.175 16.621 14.5 15.796 14.5C14.971 14.5 14.296 15.175 14.296 16Z" fill="white"/>
</svg>
