<svg width="32" height="32" viewBox="0 0 32 32" fill="none" xmlns="http://www.w3.org/2000/svg">
<rect width="32" height="32" rx="16" fill="#7FB1FC"/>
<path d="M10 19.9216V22.0392H22V19.9216C22 17.9733 20.4188 16.3922 18.4706 16.3922H13.5294C11.5812 16.3922 10 17.9733 10 19.9216ZM11.4118 19.9216C11.4118 18.7569 12.3647 17.8039 13.5294 17.8039H18.4706C19.6353 17.8039 20.5882 18.7569 20.5882 19.9216V20.6274H11.4118V19.9216Z" fill="white"/>
<path d="M12.8232 12.5098C12.8232 14.2604 14.2491 15.6863 15.9997 15.6863C17.7503 15.6863 19.1762 14.2604 19.1762 12.5098C19.1762 10.7592 17.7503 9.33331 15.9997 9.33331C14.2491 9.33331 12.8232 10.7592 12.8232 12.5098ZM17.7644 12.5098C17.7644 13.4839 16.9738 14.2745 15.9997 14.2745C15.0256 14.2745 14.235 13.4839 14.235 12.5098C14.235 11.5357 15.0256 10.7451 15.9997 10.7451C16.9738 10.7451 17.7644 11.5357 17.7644 12.5098Z" fill="white"/>
</svg>
