<svg width="85" height="14" viewBox="0 0 85 14" fill="none" xmlns="http://www.w3.org/2000/svg">
<path d="M4.49563 1.3098C3.24671 1.3098 2.29586 1.65231 1.6401 2.33582C0.985838 3.02083 0.657959 3.96308 0.657959 5.1611V10.2613H2.77129V7.76502H6.19464V10.2613H8.36162V5.1611C8.36162 3.96159 8.03225 3.02083 7.37202 2.33582C6.71179 1.65231 5.75349 1.3098 4.49563 1.3098ZM6.19464 5.88649H2.77129V5.1611C2.77129 4.55237 2.90989 4.0947 3.18561 3.7851C3.46132 3.477 3.89502 3.32145 4.48222 3.32145C5.07985 3.32145 5.51354 3.4755 5.78628 3.7851C6.05752 4.09321 6.19464 4.55237 6.19464 5.1611V5.88649ZM13.9773 3.63105L12.5331 8.30196H12.5063L11.0621 3.63105H8.90858L11.2753 10.2613H13.709L16.0757 3.63105H13.9773ZM22.1146 4.41627C21.8076 4.10816 21.435 3.87035 20.9984 3.70583C20.5617 3.53982 20.0848 3.45755 19.5676 3.45755C19.0415 3.45755 18.5616 3.5443 18.1294 3.71929C17.6972 3.89428 17.3216 4.13508 17.0057 4.44468C16.6897 4.75279 16.4438 5.12221 16.2695 5.55146C16.0951 5.98071 16.0086 6.44586 16.0086 6.9469C16.0086 7.56461 16.1085 8.09257 16.3097 8.5308C16.5109 8.96902 16.7643 9.32947 17.0713 9.61065C17.3783 9.89184 17.7196 10.1012 18.0937 10.2343C18.4677 10.3689 18.8299 10.4363 19.1771 10.4363C19.6675 10.4363 20.0907 10.3271 20.4469 10.1072C20.8031 9.88735 21.0624 9.5957 21.2219 9.22777H21.2487V10.2613H23.0938V7.01271C23.0938 6.4668 23.0074 5.97473 22.833 5.53651C22.6631 5.09828 22.4231 4.72586 22.1146 4.41627ZM20.6705 8.11351C20.3903 8.40815 20.0222 8.55622 19.5676 8.55622C19.1131 8.55622 18.7449 8.40815 18.4648 8.11351C18.1846 7.81887 18.043 7.4285 18.043 6.94541C18.043 6.46231 18.1831 6.07344 18.4648 5.77731C18.7449 5.48266 19.1131 5.33459 19.5676 5.33459C20.0222 5.33459 20.3903 5.48266 20.6705 5.77731C20.9507 6.07195 21.0923 6.46231 21.0923 6.94541C21.0923 7.4285 20.9522 7.81887 20.6705 8.11351ZM24.2876 10.2613H26.2936V0.732483H24.2876V10.2613ZM52.813 5.54698C52.9755 5.37348 53.1707 5.24037 53.4002 5.14465C53.6297 5.05042 53.8861 5.00256 54.1707 5.00256C54.5895 5.00256 54.9457 5.10426 55.2393 5.30767C55.5329 5.51108 55.7475 5.78628 55.8832 6.13177H57.6164C57.536 5.73842 57.3914 5.37946 57.1857 5.05341C56.9801 4.72736 56.7282 4.44767 56.4301 4.21435C56.1321 3.98103 55.7937 3.79856 55.4122 3.66994C55.0307 3.54131 54.6164 3.477 54.1707 3.477C53.6506 3.477 53.1752 3.56375 52.7475 3.73575C52.3182 3.90924 51.9471 4.15004 51.6327 4.45814C51.3182 4.76625 51.0753 5.13268 50.9024 5.55595C50.7295 5.97922 50.6446 6.43988 50.6446 6.93344C50.6446 7.43448 50.731 7.89664 50.9024 8.31692C51.0738 8.7372 51.3182 9.10213 51.6327 9.41024C51.9471 9.71834 52.3182 9.95914 52.7475 10.1326C53.1767 10.3061 53.6506 10.3914 54.1707 10.3914C54.6164 10.3914 55.0307 10.3271 55.4122 10.1984C55.7937 10.0698 56.1335 9.88884 56.4301 9.65403C56.7267 9.42071 56.9786 9.14102 57.1857 8.81497C57.3914 8.48892 57.536 8.12996 57.6164 7.73661H55.8832C55.7475 8.0821 55.5329 8.3573 55.2393 8.56071C54.9457 8.76412 54.5895 8.86582 54.1707 8.86582C53.8876 8.86582 53.6297 8.81796 53.4002 8.72373C53.1707 8.62951 52.974 8.4949 52.813 8.3214C52.6506 8.14791 52.5254 7.94301 52.4375 7.70669C52.3495 7.46888 52.3063 7.21163 52.3063 6.93344C52.3063 6.65525 52.3495 6.398 52.4375 6.16019C52.5269 5.92538 52.6521 5.72047 52.813 5.54698ZM62.5734 5.85209C62.3364 5.61877 62.0547 5.4348 61.7269 5.30319C61.399 5.17157 61.0398 5.10426 60.6478 5.10426C60.2484 5.10426 59.8863 5.17007 59.5584 5.30319C59.2305 5.4348 58.9473 5.61877 58.7074 5.85209C58.4674 6.08541 58.2812 6.3651 58.15 6.69115C58.0188 7.0172 57.9518 7.36868 57.9518 7.74857C57.9518 8.12847 58.0174 8.48144 58.15 8.80599C58.2812 9.13205 58.4674 9.41173 58.7074 9.64505C58.9473 9.87838 59.2305 10.0623 59.5584 10.194C59.8863 10.3256 60.2484 10.3929 60.6478 10.3929C61.2768 10.3929 61.8133 10.2358 62.2589 9.92025C62.7045 9.60467 63.0086 9.18589 63.171 8.66391H61.6002C61.5048 8.80001 61.3766 8.89424 61.2157 8.94808C61.0532 9.00193 60.8639 9.02885 60.6478 9.02885C60.3647 9.02885 60.1247 8.96005 59.928 8.82095C59.7313 8.68186 59.6001 8.47396 59.5331 8.19577V8.17483H63.3126V7.74708C63.3126 7.36718 63.2485 7.01421 63.1203 6.68965C62.9922 6.36659 62.8089 6.08541 62.5734 5.85209ZM61.7522 7.21014H59.5629V7.1892C59.6433 6.95139 59.779 6.77191 59.9682 6.65076C60.1575 6.52812 60.384 6.4683 60.6478 6.4683C60.9116 6.4683 61.1397 6.52962 61.3319 6.65076C61.5242 6.77341 61.6643 6.95289 61.7522 7.1892V7.21014ZM68.116 5.73991C67.8999 5.52604 67.6391 5.3675 67.3351 5.26131C67.031 5.15661 66.6927 5.10426 66.3216 5.10426C65.9505 5.10426 65.6122 5.15811 65.3082 5.26729C65.0042 5.37647 64.7433 5.53651 64.5272 5.75038C64.3111 5.96426 64.1442 6.23049 64.025 6.54906C63.9058 6.86763 63.8476 7.23706 63.8476 7.65734V10.2613H65.3678V7.65734C65.3678 7.258 65.4557 6.96934 65.6316 6.79285C65.8074 6.61637 66.037 6.52812 66.3201 6.52812C66.6033 6.52812 66.8328 6.61637 67.0087 6.79285C67.1845 6.96934 67.2725 7.258 67.2725 7.65734V10.2613H68.7926V7.65734C68.7926 7.22958 68.733 6.85716 68.6153 6.53859C68.5005 6.22002 68.3321 5.95379 68.116 5.73991ZM72.2115 8.27803C72.2115 8.54276 72.1579 8.72373 72.0491 8.82245C71.9403 8.92116 71.8017 8.97052 71.6333 8.97052C71.4649 8.97052 71.3262 8.92116 71.2175 8.82245C71.1087 8.72373 71.055 8.54276 71.055 8.27803V6.61038H73.4262V5.23738H71.055V3.62058H69.5348V8.27803C69.5348 8.63699 69.5855 8.94958 69.6869 9.21431C69.7882 9.47904 69.9313 9.6989 70.1176 9.87538C70.3039 10.0519 70.5244 10.182 70.7808 10.2672C71.0371 10.3525 71.3218 10.3944 71.6318 10.3944C71.9418 10.3944 72.2264 10.3525 72.4828 10.2672C72.7391 10.182 72.9612 10.0519 73.146 9.87538C73.3323 9.6989 73.4753 9.47904 73.5767 9.21431C73.678 8.94958 73.7287 8.63848 73.7287 8.27803V8.12547H72.2085V8.27803H72.2115ZM78.626 5.85209C78.3891 5.61877 78.1074 5.4348 77.7795 5.30319C77.4516 5.17157 77.0924 5.10426 76.7005 5.10426C76.3026 5.10426 75.9389 5.17007 75.611 5.30319C75.2831 5.4348 75 5.61877 74.76 5.85209C74.5201 6.08541 74.3338 6.3651 74.2026 6.69115C74.0715 7.0172 74.0044 7.36868 74.0044 7.74857C74.0044 8.12847 74.07 8.48144 74.2026 8.80599C74.3353 9.13055 74.5201 9.41173 74.76 9.64505C75 9.87838 75.2831 10.0623 75.611 10.194C75.9389 10.3256 76.3011 10.3929 76.7005 10.3929C77.3294 10.3929 77.8659 10.2358 78.3116 9.92025C78.7572 9.60467 79.0612 9.18589 79.2236 8.66391H77.6528C77.5574 8.80001 77.4293 8.89424 77.2683 8.94808C77.1059 9.00193 76.9166 9.02885 76.7005 9.02885C76.4173 9.02885 76.1774 8.96005 75.9806 8.82095C75.7839 8.68186 75.6528 8.47396 75.5857 8.19577V8.17483H79.3652V7.74708C79.3652 7.36718 79.3012 7.01421 79.173 6.68965C79.0448 6.36659 78.863 6.08541 78.626 5.85209ZM77.8048 7.21014H75.6155V7.1892C75.696 6.95139 75.8316 6.77191 76.0209 6.65076C76.2102 6.52812 76.4367 6.4683 76.7005 6.4683C76.9643 6.4683 77.1923 6.52962 77.3846 6.65076C77.5768 6.77341 77.7169 6.95289 77.8048 7.1892V7.21014ZM84.4026 7.44346C84.4026 7.04412 84.349 6.69563 84.2402 6.40099C84.1314 6.10635 83.9794 5.86256 83.7841 5.66812C83.5874 5.47519 83.3519 5.3331 83.0747 5.24037C82.7975 5.14913 82.4905 5.10277 82.1522 5.10277C81.8139 5.10277 81.5084 5.14913 81.2356 5.24037C80.9629 5.3316 80.7259 5.47219 80.5262 5.66214C80.3265 5.85209 80.173 6.09139 80.0657 6.37856C79.9569 6.66722 79.9033 7.00823 79.9033 7.40009V10.2583H81.4234V7.40308C81.4234 7.06356 81.4905 6.83323 81.6261 6.71209C81.7617 6.58944 81.9361 6.52962 82.1537 6.52962C82.3698 6.52962 82.5457 6.59094 82.6813 6.71209C82.8169 6.83473 82.884 7.06506 82.884 7.40308V7.44346H84.4026ZM33.8959 2.27599C33.6455 2.02622 33.3296 1.83029 32.9466 1.69269C32.5635 1.55359 32.109 1.48479 31.5829 1.48479H27.7974V10.2613H28.7601V7.08002H31.5814C32.1075 7.08002 32.562 7.00822 32.9451 6.86464C33.3281 6.72106 33.6455 6.52513 33.8944 6.27386C34.1433 6.02409 34.3296 5.72795 34.4488 5.38844C34.5696 5.04892 34.6292 4.67651 34.6292 4.27418C34.6292 3.87185 34.5696 3.50093 34.4488 3.15992C34.3311 2.8219 34.1463 2.52577 33.8959 2.27599ZM33.5487 5.03397C33.4771 5.27178 33.3594 5.47519 33.194 5.64419C33.0285 5.8147 32.8154 5.94781 32.5516 6.04652C32.2878 6.14524 31.9704 6.19459 31.5948 6.19459H28.7601V2.37022H31.5948C31.9689 2.37022 32.2878 2.41957 32.5516 2.51829C32.8139 2.617 33.0285 2.75161 33.194 2.92062C33.3594 3.09112 33.4771 3.29154 33.5487 3.52486C33.6202 3.75818 33.656 4.00795 33.656 4.27717C33.656 4.5434 33.6202 4.79616 33.5487 5.03397ZM41.0779 4.43721C40.7665 4.12461 40.3909 3.88232 39.9542 3.71182C39.5175 3.54281 39.0406 3.45755 38.5235 3.45755C37.9974 3.45755 37.5175 3.5443 37.0853 3.71929C36.6531 3.89428 36.2775 4.13508 35.9616 4.44468C35.6456 4.75279 35.3997 5.12221 35.2253 5.55146C35.0509 5.98071 34.9645 6.44586 34.9645 6.9469C34.9645 7.48384 35.0554 7.96843 35.2387 8.40367C35.422 8.8374 35.6694 9.20384 35.9809 9.50446C36.2924 9.80359 36.6561 10.0339 37.0704 10.1955C37.4847 10.357 37.9244 10.4377 38.3879 10.4377C39.057 10.4377 39.6383 10.2807 40.1331 9.96811C40.6279 9.65552 40.987 9.22926 41.2091 8.69382H41.2359V10.2643H42.0646V6.98579C42.0646 6.4668 41.9781 5.99118 41.8038 5.55595C41.6324 5.12371 41.3894 4.7498 41.0779 4.43721ZM40.9766 8.00582C40.8469 8.32739 40.6666 8.60707 40.4356 8.84488C40.2031 9.08269 39.9244 9.26815 39.5995 9.40126C39.2746 9.53587 38.9154 9.60318 38.5235 9.60318C38.1315 9.60318 37.7723 9.53587 37.4474 9.40126C37.1225 9.26665 36.8438 9.08119 36.6113 8.84488C36.3789 8.60857 36.1985 8.32888 36.0703 8.00582C35.9407 7.68426 35.8766 7.32979 35.8766 6.94541C35.8766 6.56103 35.9407 6.20656 36.0703 5.88499C36.2 5.56343 36.3803 5.28374 36.6113 5.04593C36.8424 4.80962 37.1211 4.62267 37.4474 4.48955C37.7723 4.35494 38.1315 4.28764 38.5235 4.28764C38.9154 4.28764 39.2746 4.35494 39.5995 4.48955C39.9244 4.62416 40.2031 4.80962 40.4356 5.04593C40.6666 5.28374 40.8484 5.56343 40.9766 5.88499C41.1063 6.20656 41.1703 6.56103 41.1703 6.94541C41.1703 7.33129 41.1063 7.68426 40.9766 8.00582ZM48.6728 7.05309C48.6728 7.86673 48.4567 8.48892 48.0245 8.91817C47.5923 9.34742 47.0185 9.56279 46.3061 9.56279C45.5833 9.56279 45.0095 9.35041 44.5803 8.92565C44.1526 8.50088 43.9379 7.8772 43.9379 7.05309V3.63105H43.0422V7.05309C43.0422 7.61695 43.1227 8.10902 43.2837 8.5293C43.4446 8.94958 43.6652 9.29956 43.9454 9.57625C44.2256 9.85444 44.5564 10.0593 44.935 10.194C45.3135 10.3286 45.7264 10.3959 46.172 10.3959C46.7517 10.3959 47.251 10.2732 47.6698 10.0264C48.0886 9.78116 48.4135 9.43417 48.646 8.98697H48.6728V10.0474C48.6728 10.4766 48.6147 10.8461 48.4984 11.1542C48.3822 11.4623 48.2183 11.715 48.0036 11.9125C47.789 12.1099 47.5357 12.252 47.2421 12.3417C46.9485 12.4314 46.6221 12.4763 46.2659 12.4763C45.713 12.4763 45.2435 12.3671 44.8545 12.1473C44.467 11.9274 44.1839 11.5909 44.005 11.1347H43.1093C43.2166 11.4922 43.3701 11.8063 43.5713 12.074C43.7725 12.3417 44.008 12.5631 44.2807 12.7381C44.552 12.913 44.8575 13.0447 45.1973 13.1344C45.5356 13.2241 45.8933 13.269 46.2674 13.269C46.7309 13.269 47.1631 13.2092 47.564 13.088C47.9649 12.9669 48.3151 12.7754 48.6132 12.5107C48.9113 12.246 49.1453 11.911 49.3152 11.5041C49.4851 11.0973 49.57 10.6023 49.57 10.0205V3.63105H48.6743V7.05309H48.6728Z" fill="#053988"/>
</svg>
