<svg width="57" height="56" viewBox="0 0 57 56" fill="none" xmlns="http://www.w3.org/2000/svg">
<path d="M28.5 52.5C36.232 52.5 42.5 46.232 42.5 38.5C42.5 30.768 36.232 24.5 28.5 24.5C20.768 24.5 14.5 30.768 14.5 38.5C14.5 46.232 20.768 52.5 28.5 52.5Z" fill="#00F6B4"/>
<path d="M46 10.5H11C8.10462 10.5 5.75 12.8546 5.75 15.75V40.25C5.75 43.1454 8.10462 45.5 11 45.5H46C48.8954 45.5 51.25 43.1454 51.25 40.25V15.75C51.25 12.8546 48.8954 10.5 46 10.5ZM47.75 40.25C47.75 41.2151 46.9651 42 46 42H11C10.0349 42 9.25 41.2151 9.25 40.25V26.25H47.75V40.25ZM47.75 22.75H9.25V21H47.75V22.75ZM47.75 17.5H9.25V15.75C9.25 14.7849 10.0349 14 11 14H46C46.9651 14 47.75 14.7849 47.75 15.75V17.5ZM30.25 35H40.75C41.716 35 42.5 34.216 42.5 33.25C42.5 32.284 41.716 31.5 40.75 31.5H30.25C29.284 31.5 28.5 32.284 28.5 33.25C28.5 34.216 29.284 35 30.25 35Z" fill="#000927"/>
</svg>
