<svg width="64" height="64" viewBox="0 0 64 64" fill="none" xmlns="http://www.w3.org/2000/svg">
<path d="M47 58C53.0751 58 58 53.0751 58 47C58 40.9249 53.0751 36 47 36C40.9249 36 36 40.9249 36 47C36 53.0751 40.9249 58 47 58Z" fill="#00F6B4"/>
<path d="M32 16H22C20.896 16 20 16.896 20 18C20 19.104 20.896 20 22 20H32C33.104 20 34 19.104 34 18C34 16.896 33.105 16 32 16ZM30 24H22C20.896 24 20 24.896 20 26C20 27.104 20.896 28 22 28H30C31.104 28 32 27.104 32 26C32 24.896 31.105 24 30 24ZM58.958 38.244L52 34.449V12C52 8.691 49.309 6 46 6H18C14.691 6 12 8.691 12 12V52C12 55.309 14.691 58 18 58H40C40.031 58 40.059 57.992 40.089 57.991C42.094 59.256 44.459 60 47 60C54.168 60 60 54.168 60 47V40C60 39.269 59.601 38.595 58.958 38.244ZM18 54C16.897 54 16 53.103 16 52V12C16 10.897 16.897 10 18 10H46C47.103 10 48 10.897 48 12V32.267L47.958 32.244C47.36 31.918 46.64 31.918 46.042 32.244L35.042 38.244C34.399 38.595 34 39.269 34 40V47C34 49.578 34.764 51.977 36.063 54H18ZM56 47C56 51.963 51.963 56 47 56C42.037 56 38 51.963 38 47V41.188L47 36.279L56 41.188V47ZM45.414 45.586C44.633 44.805 43.367 44.805 42.586 45.586C41.805 46.367 41.805 47.633 42.586 48.414L44.586 50.414C44.977 50.805 45.488 51 46 51C46.512 51 47.023 50.805 47.414 50.414L51.414 46.414C52.195 45.633 52.195 44.367 51.414 43.586C50.633 42.805 49.367 42.805 48.586 43.586L46 46.172L45.414 45.586Z" fill="#000927"/>
</svg>
