<svg width="49" height="20" viewBox="0 0 49 20" fill="none" xmlns="http://www.w3.org/2000/svg">
<path d="M25.2006 6.51167V16.7906H22.1276V15.8294C21.4653 16.6037 20.4587 17.0842 19.0811 17.0842C16.4055 17.0842 14.2068 14.7081 14.2068 11.6645C14.2068 8.59415 16.4055 6.24469 19.0811 6.24469C20.4587 6.24469 21.4389 6.72526 22.1276 7.49952V6.53837H25.2006V6.51167ZM22.1541 11.6378C22.1541 10.0893 21.121 9.12812 19.7169 9.12812C18.3129 9.12812 17.2798 10.0893 17.2798 11.6378C17.2798 13.1863 18.3129 14.1474 19.7169 14.1474C21.121 14.1474 22.1541 13.1863 22.1541 11.6378Z" fill="#000035"/>
<path d="M9.59729 15.0018C9.59729 13.8537 10.5245 12.946 11.6371 12.946C12.7762 12.946 13.6769 13.8804 13.6769 15.0018C13.6769 16.1498 12.7497 17.0575 11.6371 17.0575C10.498 17.0842 9.59729 16.1498 9.59729 15.0018Z" fill="#E8415B"/>
<path d="M42.7642 15.0018C42.7642 13.8537 43.6913 12.946 44.804 12.946C45.9166 12.946 46.8438 13.8804 46.8438 15.0018C46.8438 16.1498 45.9166 17.0575 44.804 17.0575C43.6913 17.0575 42.7642 16.1498 42.7642 15.0018Z" fill="#F5BD41"/>
<path d="M26.949 2.42682H30.0219V16.7906H26.949V2.42682Z" fill="#000035"/>
<path d="M43.241 2.42682H46.3139V11.8514H43.241V2.42682Z" fill="#5FD0D6"/>
<path d="M36.8036 14.3076C37.6513 14.3076 38.3666 13.9873 38.764 13.5334L41.2011 14.9484C40.1945 16.3367 38.6845 17.0576 36.7506 17.0576C33.2538 17.0576 31.108 14.6814 31.108 11.6378C31.108 8.56748 33.3068 6.21802 36.5387 6.21802C39.5057 6.21802 41.731 8.54078 41.731 11.6378C41.731 12.065 41.678 12.4921 41.5985 12.8659H34.3664C34.7373 13.9606 35.691 14.3076 36.8036 14.3076ZM38.6845 10.5699C38.3666 9.36843 37.4394 8.94126 36.5122 8.94126C35.3466 8.94126 34.5784 9.52862 34.287 10.5699H38.6845Z" fill="#000035"/>
<path d="M8.59065 15.0018C8.59065 14.628 8.64363 14.2809 8.77609 13.9605C8.45819 14.094 8.11381 14.1474 7.74294 14.1474C6.33891 14.1474 5.30575 13.1863 5.30575 11.6378C5.30575 10.0893 6.33891 9.12812 7.74294 9.12812C9.14696 9.12812 10.1801 10.0893 10.1801 11.6378C10.1801 11.9048 10.1536 12.145 10.1006 12.3586C10.551 12.0916 11.0808 11.9315 11.6371 11.9315C12.2199 11.9315 12.7762 12.0916 13.2531 12.3853V2.42682H10.1801V7.47282C9.51784 6.69857 8.51118 6.21799 7.13364 6.21799C4.45804 6.21799 2.25928 8.59415 2.25928 11.6378C2.25928 14.7081 4.45804 17.0575 7.13364 17.0575C7.87539 17.0575 8.53767 16.9241 9.06749 16.6571C8.77609 16.2032 8.59065 15.6158 8.59065 15.0018Z" fill="#000035"/>
</svg>
