<svg width="25" height="24" viewBox="0 0 25 24" fill="none" xmlns="http://www.w3.org/2000/svg">
<path d="M12.658 0C19.2865 0 24.658 5.37143 24.658 12C24.658 18.6286 19.2865 24 12.658 24C6.02939 24 0.657959 18.6286 0.657959 12C0.657959 5.37143 6.02939 0 12.658 0Z" fill="#F2DA00"/>
<path d="M8.81445 9.99107C8.88663 8.58355 9.57235 7.44671 10.7453 6.59257C11.6054 5.96701 12.5739 5.67227 13.6505 5.78656C14.9919 5.9249 16.0746 6.98355 16.2129 8.3249C16.3513 9.72039 15.8099 10.8572 14.8235 11.7956C13.9693 12.6136 12.9528 13.0648 11.7558 13.0527C10.234 13.0347 9.07912 12.0242 8.85054 10.5204C8.82047 10.37 8.82648 10.2136 8.81445 9.99107ZM13.049 12.0723C12.9829 11.7414 12.9949 11.7174 13.2656 11.6272C13.9453 11.3986 14.3122 10.8933 14.2821 10.2317C14.2581 9.70235 13.9453 9.3655 13.5182 9.11889C13.1814 8.92039 12.8265 8.75197 12.4896 8.55949C12.3693 8.49332 12.2551 8.4031 12.1648 8.30084C11.9844 8.09633 12.0445 7.87377 12.2972 7.78956C12.3693 7.7655 12.4536 7.73543 12.5317 7.74746C12.8084 7.80159 13.0851 7.85573 13.3618 7.93393C13.5723 7.98806 13.7408 7.90385 13.8551 7.65122C13.9693 7.39257 13.9513 7.30836 13.7107 7.18806C13.5964 7.13393 13.4821 7.08581 13.3618 7.0437C12.9528 6.91738 12.9528 6.91738 12.9949 6.49032C12.9949 6.46626 13.0009 6.43618 13.0069 6.41212C13.025 6.19558 12.9769 6.14144 12.7663 6.1655C11.3949 6.35799 10.3844 7.08581 9.69265 8.26475C9.28363 8.96851 9.11521 9.72641 9.25355 10.5445C9.32573 10.9896 9.53626 11.4467 9.73475 11.6211C9.28964 10.7971 9.30167 10.1896 9.42197 9.66626C9.73475 8.24671 10.6069 7.31438 11.9423 6.78505C11.9964 6.76701 12.0505 6.75498 12.1047 6.74896C12.1648 6.94144 12.0866 7.00761 11.9182 7.06175C10.8596 7.38656 10.5829 8.57152 11.3889 9.3234C11.6114 9.53393 11.9002 9.67227 12.1648 9.82866C12.3874 9.96099 12.628 10.0572 12.8505 10.1896C13.0671 10.3159 13.1453 10.5023 13.0972 10.6648C13.049 10.8272 12.8746 10.9354 12.64 10.9535C12.243 10.9775 11.8821 10.8693 11.5393 10.6768C11.3227 10.5505 11.1964 10.5625 11.0942 10.7309C10.9558 10.9535 10.9017 11.3264 11.1182 11.4106C11.4069 11.5249 11.6896 11.6452 11.9844 11.7414C12.1047 11.7835 12.1708 11.8196 12.1588 11.952C12.1468 12.1144 12.1348 12.2828 12.1287 12.4452C12.1227 12.6377 12.1949 12.6918 12.3814 12.6678C13.1874 12.5535 13.9393 12.1926 14.5348 11.6272C15.4972 10.7189 16.0145 9.63017 15.8099 8.27678C15.7558 7.87979 15.5874 7.50686 15.3287 7.20611C15.5513 7.6031 15.6896 8.01814 15.7017 8.46926C15.7317 9.67829 15.1964 10.6287 14.2942 11.3926C13.9272 11.6933 13.5002 11.9279 13.049 12.0723Z" fill="black"/>
<path d="M16.1165 16.5354C16.321 16.9203 16.3992 16.9203 15.912 17.0587C15.8097 17.0888 15.7014 17.1008 15.5932 17.0948C15.2082 17.0827 14.9917 16.8602 14.9857 16.4752C14.9796 16.0782 14.9796 15.6752 14.9857 15.2782C14.9857 15.1399 14.9436 15.0978 14.8112 15.1038C14.739 15.1098 14.6067 15.0918 14.5947 15.0617C14.5706 14.9474 14.5766 14.8271 14.5827 14.7068C14.5827 14.6888 14.6428 14.6647 14.6789 14.6587C14.7691 14.6527 14.8593 14.6587 14.9796 14.6587C14.9796 14.5083 14.9736 14.376 14.9857 14.2436C14.9917 14.1955 15.0278 14.1233 15.0699 14.1053C15.2082 14.0512 15.3526 14.0151 15.521 13.9609V14.6587H16.2248C16.9405 14.6587 16.9706 14.6827 17.2473 15.3444C17.3796 15.6692 17.524 15.994 17.6623 16.3188C17.6684 16.3248 17.6804 16.3309 17.6984 16.3489C17.8608 15.8557 18.0353 15.3624 18.1857 14.8692C18.2398 14.7008 18.312 14.6346 18.4864 14.6587C18.5947 14.6647 18.703 14.6647 18.8112 14.6587C18.7932 14.7309 18.7872 14.779 18.7691 14.8271C18.4744 15.6391 18.1796 16.4572 17.8729 17.2692C17.8007 17.4677 17.6984 17.6542 17.5781 17.8286C17.3135 18.2015 16.8202 18.3339 16.3872 18.1715C16.2969 18.1354 16.2669 18.0933 16.303 18.003C16.339 17.9128 16.3691 17.8106 16.4052 17.7023C16.4413 17.7083 16.4714 17.7143 16.5075 17.7203C16.8684 17.8286 17.0729 17.7444 17.2654 17.4196C17.3977 17.197 17.4398 16.9985 17.3075 16.7399C17.0548 16.2527 16.8503 15.7474 16.6278 15.2482C16.5857 15.1519 16.5315 15.1098 16.4233 15.1158C16.1405 15.1218 15.8518 15.1158 15.5511 15.1158C15.5451 15.17 15.539 15.2181 15.539 15.2722C15.539 15.6211 15.539 15.97 15.539 16.3188C15.539 16.6376 15.6714 16.7279 15.9721 16.6136C16.0142 16.5775 16.0623 16.5594 16.1165 16.5354Z" fill="black"/>
<path d="M7.07011 15.994C7.05808 16.5715 7.50319 16.7459 8.33928 16.5053C8.3874 16.5955 8.42349 16.6858 8.45958 16.776C8.46559 16.8241 8.44755 16.8722 8.41146 16.9083C7.97838 17.1249 7.52725 17.173 7.08214 16.9504C6.66108 16.7339 6.50469 16.3489 6.50469 15.8978C6.49868 15.7113 6.52274 15.5249 6.57086 15.3444C6.71522 14.8452 7.12424 14.5625 7.60544 14.5985C8.10469 14.6406 8.44153 14.9534 8.53176 15.4767C8.54981 15.585 8.55582 15.6933 8.56785 15.8015C8.58589 15.9459 8.53778 16.0061 8.38138 16C8.00845 15.988 7.64153 15.994 7.2686 15.994H7.07011ZM7.07011 15.579H7.99041C7.98439 15.2361 7.80996 15.0376 7.52725 15.0376C7.25056 15.0437 7.06409 15.2602 7.07011 15.579Z" fill="black"/>
<path d="M10.7692 15.9941C10.7632 16.4692 11.2264 16.8662 12.0384 16.4933C12.0925 16.6016 12.1346 16.7098 12.1767 16.8241C12.1828 16.8482 12.1286 16.9083 12.0925 16.9264C11.6173 17.1429 11.1361 17.191 10.691 16.8963C10.2399 16.6016 10.1677 16.1204 10.2098 15.6211C10.2218 15.5309 10.2399 15.4407 10.27 15.3565C10.4143 14.8753 10.8113 14.5805 11.2865 14.6046C11.7858 14.6286 12.1226 14.9294 12.2249 15.4407C12.3391 15.9941 12.3331 16.0001 11.7797 16.0001H10.7692V15.9941ZM11.6955 15.579C11.6895 15.2362 11.5091 15.0316 11.2264 15.0377C10.9557 15.0437 10.7632 15.2662 10.7752 15.579H11.6955Z" fill="black"/>
<path d="M9.57826 14.6587H10.2279C10.1497 14.8211 10.1136 15.0016 10.0113 15.0798C9.90909 15.158 9.72864 15.1159 9.56022 15.1219C9.56022 15.1941 9.56022 15.2542 9.56022 15.3144C9.56022 15.8377 9.5542 16.361 9.56022 16.8903C9.56022 17.0106 9.51811 17.0467 9.40383 17.0467C9.01886 17.0527 9.01886 17.0527 9.01886 16.6738C9.01886 16.2046 9.01886 15.7414 9.01886 15.2723C9.01886 15.164 9.00082 15.0978 8.8745 15.1038C8.82037 15.0978 8.77225 15.0677 8.74217 15.0256C8.68804 14.9114 8.6339 14.791 8.5918 14.6647H9.02488C9.02488 14.5023 9.01886 14.37 9.02488 14.2317C9.05495 13.5159 9.69856 13.3835 10.1557 13.558C10.1978 13.582 10.2279 13.6301 10.2279 13.6783C10.2098 13.7865 10.1798 13.8948 10.1437 14.0031C9.6324 13.9129 9.52413 13.991 9.57826 14.6587Z" fill="black"/>
<path d="M14.3723 15.2121C13.9513 15.0196 13.5483 14.9294 13.2295 15.3384C13.025 15.6031 13.0129 16.1143 13.2174 16.373C13.5302 16.776 13.9272 16.6617 14.3302 16.4933C14.3783 16.5895 14.4204 16.6918 14.4565 16.794C14.4625 16.8422 14.4385 16.8843 14.4024 16.9143C13.9874 17.1369 13.5543 17.179 13.1272 16.9685C12.7182 16.764 12.5438 16.4091 12.5257 15.97C12.4836 15.0737 13.1453 14.4782 14.0174 14.6286C14.3603 14.6888 14.3904 14.7309 14.3844 15.0677C14.3844 15.1038 14.3783 15.1399 14.3723 15.2121Z" fill="black"/>
</svg>
