<svg width="57" height="56" viewBox="0 0 57 56" fill="none" xmlns="http://www.w3.org/2000/svg">
<path d="M41.625 50.75C46.9407 50.75 51.25 46.4407 51.25 41.125C51.25 35.8093 46.9407 31.5 41.625 31.5C36.3093 31.5 32 35.8093 32 41.125C32 46.4407 36.3093 50.75 41.625 50.75Z" fill="#00F6B4"/>
<path d="M51.2421 35.0779C51.243 35.0516 51.25 35.0271 51.25 35V15.75C51.25 12.8546 48.8954 10.5 46 10.5H11C8.10462 10.5 5.75 12.8546 5.75 15.75V40.25C5.75 42.1663 6.78512 43.841 8.3225 44.7571C8.34875 44.7746 8.375 44.7913 8.40213 44.8061C9.1695 45.2454 10.0541 45.5 11 45.5H31.1276C32.8452 49.6064 36.9026 52.5 41.625 52.5C47.897 52.5 53 47.397 53 41.125C53 38.9016 52.349 36.8323 51.2421 35.0779ZM9.25 15.75C9.25 14.7849 10.0349 14 11 14H46C46.9651 14 47.75 14.7849 47.75 15.75V16.4946L28.5 27.7244L9.25 16.4946V15.75ZM47.75 20.5468V31.5551C45.9799 30.4185 43.8807 29.75 41.625 29.75C40.7938 29.75 39.9853 29.8454 39.2039 30.0151L36.5141 27.1005L47.75 20.5468ZM9.2815 40.565C9.26313 40.4626 9.25 40.3576 9.25 40.25V20.5468L20.7711 27.2676L9.2815 40.565ZM30.25 41.125C30.25 41.4207 30.2719 41.7104 30.2946 42H12.6669L23.8467 29.0614L27.618 31.2611C27.891 31.4204 28.1955 31.5 28.5 31.5C28.8045 31.5 29.109 31.4204 29.382 31.262L33.4175 28.9074L35.7319 31.4142C32.4524 33.4128 30.25 37.0116 30.25 41.125ZM41.625 49C37.2824 49 33.75 45.4676 33.75 41.125C33.75 36.7824 37.2824 33.25 41.625 33.25C45.9676 33.25 49.5 36.7824 49.5 41.125C49.5 45.4676 45.9676 49 41.625 49ZM43.0127 38.1377L40.75 40.4005L40.2373 39.8877C39.5539 39.2044 38.4461 39.2044 37.7627 39.8877C37.0794 40.5711 37.0794 41.6789 37.7627 42.3623L39.5127 44.1123C39.8549 44.4544 40.302 44.625 40.75 44.625C41.198 44.625 41.6451 44.4544 41.9873 44.1123L45.4873 40.6123C46.1706 39.9289 46.1706 38.8211 45.4873 38.1377C44.8039 37.4544 43.6961 37.4544 43.0127 38.1377Z" fill="#000927"/>
</svg>
