<svg width="56" height="56" viewBox="0 0 56 56" fill="none" xmlns="http://www.w3.org/2000/svg">
<mask id="mask0_1344_4015" style="mask-type:alpha" maskUnits="userSpaceOnUse" x="5" y="17" width="28" height="28">
<ellipse cx="19.2496" cy="31.15" rx="13.65" ry="13.65" fill="white"/>
</mask>
<g mask="url(#mask0_1344_4015)">
<mask id="mask1_1344_4015" style="mask-type:alpha" maskUnits="userSpaceOnUse" x="-580" y="-287" width="1192" height="932">
<rect x="-579.282" y="-286.109" width="1191.27" height="930.682" fill="white"/>
</mask>
<g mask="url(#mask1_1344_4015)">
<rect x="4.77246" y="16.6726" width="28.9545" height="28.9545" fill="#00F6B4"/>
</g>
</g>
<path d="M40.9111 8.40002H15.0896C13.3302 8.40462 11.905 9.83538 11.9004 11.6017V20.5943C11.9004 21.389 12.5421 22.0333 13.3337 22.0333C14.1254 22.0333 14.7671 21.389 14.7671 20.5943V11.6023C14.7677 11.4233 14.9119 11.2783 15.0902 11.2774H40.9078C41.0861 11.278 41.2305 11.4227 41.2315 11.6017V44.3972C41.2309 44.5762 41.0866 44.7212 40.9084 44.7221H15.093C14.9147 44.7215 14.7702 44.5767 14.7693 44.3978V28.0293C14.7693 27.2346 14.1276 26.5903 13.336 26.5903C12.5443 26.5903 11.9026 27.2346 11.9026 28.0293V44.3983C11.9078 46.1646 13.333 47.5951 15.0924 47.6H40.9111C42.6706 47.5948 44.0955 46.1641 44.1004 44.3978V11.6012C44.0955 9.83504 42.6704 8.40462 40.9111 8.40002V8.40002Z" fill="#000927"/>
<path d="M14.3504 25.5582C14.9095 24.9966 14.9095 24.0863 14.3504 23.5246C13.7832 22.9812 12.8907 22.9812 12.3236 23.5246C11.7799 24.0894 11.7877 24.9876 12.3413 25.5427C12.8948 26.0977 13.7895 26.1047 14.3515 25.5582H14.3504Z" fill="#000927"/>
<path fill-rule="evenodd" clip-rule="evenodd" d="M18.2537 14.9238H26.6839C27.4754 14.9244 28.1169 15.5682 28.1178 16.3628V24.826C28.1169 25.6203 27.4757 26.264 26.6845 26.2649H18.2537C17.4624 26.264 16.8212 25.6203 16.8203 24.826V16.3628C16.8212 15.5685 17.4624 14.9247 18.2537 14.9238ZM25.2506 23.387V17.8012H19.6865V23.387H25.2506Z" fill="#000927"/>
<path d="M19.2685 34.3184C19.8285 34.8802 20.736 34.8802 21.2959 34.3184L24.2814 31.319C24.6839 30.7604 24.7059 30.0117 24.3369 29.4303L24.2498 29.3188C23.6897 28.758 22.7831 28.758 22.223 29.3188L20.28 31.2694L19.5866 30.5733C19.0192 30.0304 18.1272 30.0304 17.5598 30.5733C17.2908 30.8431 17.1396 31.2092 17.1396 31.5909C17.1396 31.9727 17.2908 32.3388 17.5598 32.6086L19.2685 34.3184Z" fill="#000927"/>
<path d="M38.2467 30.3516H28.0017C27.2101 30.3516 26.5684 30.9958 26.5684 31.7905C26.5684 32.5852 27.2101 33.2295 28.0017 33.2295H38.2467C39.0383 33.2295 39.6801 32.5852 39.6801 31.7905C39.6801 30.9958 39.0383 30.3516 38.2467 30.3516Z" fill="#000927"/>
<path d="M17.5626 39.3375L19.2686 41.0506C19.5373 41.3207 19.902 41.4725 20.2822 41.4725C20.6625 41.4725 21.0272 41.3207 21.2959 41.0506L24.2326 38.102C24.5174 37.8544 24.6908 37.5019 24.7136 37.1244C24.7364 36.7468 24.6066 36.376 24.3536 36.0957C24.2872 36.0228 24.2055 35.9656 24.1143 35.9285C23.5438 35.4884 22.7368 35.5404 22.2269 36.05L20.2839 38.0005L19.5905 37.3045C19.0231 36.7616 18.1311 36.7616 17.5637 37.3045C17.2947 37.5743 17.1436 37.9404 17.1436 38.3221C17.1436 38.7038 17.2947 39.0699 17.5637 39.3397L17.5626 39.3375Z" fill="#000927"/>
<path d="M38.2467 37.052H28.0017C27.2101 37.052 26.5684 37.6962 26.5684 38.491C26.5684 39.2857 27.2101 39.9299 28.0017 39.9299H38.2467C39.0383 39.9299 39.6801 39.2857 39.6801 38.491C39.6801 37.6962 39.0383 37.052 38.2467 37.052V37.052Z" fill="#000927"/>
</svg>
