<svg width="64" height="64" viewBox="0 0 64 64" fill="none" xmlns="http://www.w3.org/2000/svg">
<path d="M47 58C53.0751 58 58 53.0751 58 47C58 40.9249 53.0751 36 47 36C40.9249 36 36 40.9249 36 47C36 53.0751 40.9249 58 47 58Z" fill="#00F6B4"/>
<path d="M32 36H22C20.896 36 20 36.896 20 38C20 39.104 20.896 40 22 40H32C33.104 40 34 39.104 34 38C34 36.896 33.104 36 32 36ZM30 44H22C20.896 44 20 44.896 20 46C20 47.104 20.896 48 22 48H30C31.104 48 32 47.104 32 46C32 44.896 31.104 44 30 44ZM52 35.003V12C52 8.691 49.309 6 46 6H18C14.691 6 12 8.691 12 12V52C12 55.309 14.691 58 18 58H40C40.031 58 40.059 57.992 40.089 57.991C42.094 59.256 44.459 60 47 60C54.168 60 60 54.168 60 47C60 41.603 56.693 36.966 52 35.003ZM36.063 54H18C16.897 54 16 53.103 16 52V12C16 10.897 16.897 10 18 10H46C47.103 10 48 10.897 48 12V34.051C47.669 34.025 47.338 34 47 34C39.832 34 34 39.832 34 47C34 49.578 34.764 51.977 36.063 54ZM47 56C42.037 56 38 51.963 38 47C38 42.037 42.037 38 47 38C51.963 38 56 42.037 56 47C56 51.963 51.963 56 47 56ZM48.586 43.586L46 46.172L45.414 45.586C44.633 44.805 43.367 44.805 42.586 45.586C41.805 46.367 41.805 47.633 42.586 48.414L44.586 50.414C44.977 50.805 45.488 51 46 51C46.512 51 47.023 50.805 47.414 50.414L51.414 46.414C52.195 45.633 52.195 44.367 51.414 43.586C50.633 42.805 49.367 42.805 48.586 43.586ZM23.414 27.414L26 24.828L30.586 29.414C30.962 29.79 31.471 30 32 30C32.03 30 32.061 29.999 32.091 29.998C32.652 29.973 33.177 29.712 33.537 29.28L40.341 21.115C40.699 21.649 41.309 22 42 22C43.104 22 44 21.104 44 20V16C44 15.97 43.992 15.942 43.991 15.912C43.988 15.843 43.981 15.775 43.97 15.707C43.961 15.643 43.95 15.581 43.935 15.519C43.92 15.457 43.9 15.396 43.878 15.336C43.856 15.274 43.833 15.213 43.805 15.154C43.778 15.097 43.747 15.042 43.715 14.987C43.681 14.93 43.646 14.874 43.607 14.82C43.571 14.771 43.531 14.724 43.49 14.678C43.442 14.624 43.393 14.573 43.339 14.524C43.318 14.505 43.302 14.482 43.28 14.464C43.256 14.444 43.228 14.431 43.203 14.412C43.145 14.368 43.085 14.327 43.022 14.29C42.97 14.259 42.917 14.23 42.863 14.204C42.802 14.174 42.739 14.149 42.674 14.126C42.614 14.104 42.553 14.085 42.491 14.069C42.429 14.053 42.366 14.041 42.302 14.031C42.233 14.02 42.165 14.013 42.096 14.01C42.065 14.008 42.033 14 42 14H38C36.896 14 36 14.896 36 16C36 17.019 36.765 17.851 37.751 17.975L31.866 25.037L27.414 20.586C26.634 19.805 25.366 19.805 24.586 20.586L20.586 24.586C19.805 25.367 19.805 26.633 20.586 27.414C21.366 28.195 22.634 28.195 23.414 27.414Z" fill="#000927"/>
</svg>
