<svg width="141" height="22" viewBox="0 0 141 22" fill="none" xmlns="http://www.w3.org/2000/svg">
<g clip-path="url(#clip0_2992_19189)">
<path d="M94.9742 4.88792H96.936C96.936 4.93682 96.936 4.98571 96.936 5.05905C96.936 5.57243 96.7622 6.01247 96.4393 6.35472C96.1165 6.69697 95.6695 6.8681 95.148 6.8681C94.6265 6.8681 94.1795 6.69697 93.8318 6.33027C93.4841 5.98802 93.2855 5.54798 93.2855 5.0346C93.2855 4.52123 93.4593 4.08119 93.807 3.73894C94.1546 3.39668 94.6016 3.20111 95.1232 3.20111C95.9178 3.20111 96.5387 3.59226 96.8118 4.22787L96.4393 4.3501C96.191 3.86117 95.7192 3.59226 95.148 3.59226C94.7506 3.59226 94.403 3.73894 94.1298 4.00785C93.8566 4.27676 93.7325 4.61901 93.7325 5.0346C93.7325 5.4502 93.8815 5.768 94.1546 6.06136C94.4278 6.33027 94.7755 6.47695 95.1728 6.47695C95.5453 6.47695 95.8433 6.35472 96.0917 6.1347C96.34 5.91468 96.489 5.62132 96.5387 5.25462H94.9742V4.88792Z" fill="#005CB9"/>
<path d="M100.09 4.20343L100.065 4.59458C100.04 4.59458 99.9907 4.59458 99.9162 4.59458C99.2457 4.59458 98.8732 5.08351 98.8732 5.8169V6.81921H98.4758V4.22788H98.8483V4.86349C99.0967 4.42345 99.4443 4.20343 99.8914 4.20343C99.9907 4.20343 100.04 4.20343 100.09 4.20343Z" fill="#005CB9"/>
<path d="M103.741 4.22784V6.81918H103.343V6.40359C103.12 6.7214 102.797 6.89252 102.35 6.89252C102.027 6.89252 101.779 6.79474 101.58 6.59916C101.381 6.40359 101.282 6.13468 101.282 5.79243V4.22784H101.679V5.69464C101.679 6.18357 101.977 6.50138 102.399 6.50138C102.946 6.50138 103.318 6.13468 103.318 5.47462V4.22784H103.741Z" fill="#005CB9"/>
<path d="M107.788 4.54569C108.037 4.79015 108.186 5.1324 108.186 5.52355C108.186 5.91469 108.062 6.25695 107.788 6.50141C107.54 6.74588 107.217 6.89256 106.87 6.89256C106.423 6.89256 106.075 6.74588 105.827 6.40363V7.6993H105.429V4.22788H105.827V4.64347C106.075 4.32567 106.423 4.15454 106.87 4.15454C107.217 4.15454 107.515 4.27677 107.788 4.54569ZM107.49 6.25695C107.689 6.06137 107.764 5.81691 107.764 5.52355C107.764 5.23019 107.664 4.98572 107.49 4.79015C107.317 4.59458 107.068 4.52124 106.795 4.52124C106.547 4.52124 106.298 4.61903 106.1 4.8146C105.901 5.01017 105.802 5.23019 105.802 5.548C105.802 5.84136 105.901 6.08582 106.1 6.28139C106.298 6.47697 106.522 6.55031 106.795 6.55031C107.068 6.52586 107.292 6.42807 107.49 6.25695Z" fill="#005CB9"/>
<path d="M111.737 4.54569C112.01 4.79015 112.134 5.10796 112.134 5.52355C112.134 5.91469 112.01 6.2325 111.737 6.50141C111.464 6.77033 111.141 6.89256 110.744 6.89256C110.346 6.89256 110.023 6.77033 109.75 6.50141C109.477 6.2325 109.353 5.91469 109.353 5.52355C109.353 5.1324 109.477 4.8146 109.75 4.54569C110.023 4.27677 110.346 4.15454 110.744 4.15454C111.141 4.15454 111.464 4.27677 111.737 4.54569ZM111.439 6.2325C111.638 6.03693 111.737 5.79246 111.737 5.4991C111.737 5.20574 111.638 4.96128 111.439 4.79015C111.24 4.59458 111.017 4.49679 110.744 4.49679C110.47 4.49679 110.222 4.59458 110.048 4.79015C109.85 4.98572 109.75 5.20574 109.75 5.4991C109.75 5.79246 109.85 6.03693 110.048 6.2325C110.247 6.42807 110.47 6.52586 110.744 6.52586C111.017 6.52586 111.24 6.42807 111.439 6.2325Z" fill="#005CB9"/>
<path d="M93.2709 11.4403L98.7285 16.8883L100.679 14.9339L95.2218 9.48584L93.2709 11.4403Z" fill="#003764"/>
<path d="M94.728 8.99759C94.1847 8.46011 93.3204 8.46011 92.7771 8.99759L86.8009 14.9342L88.7518 16.8887L93.7402 11.9048C94.8267 10.8299 96.5801 10.8299 97.642 11.9048L94.728 8.99759Z" fill="#005CB9"/>
<path d="M119.225 11.4403L124.683 16.8883L126.634 14.9339L121.176 9.48584L119.225 11.4403Z" fill="#003764"/>
<path d="M120.682 8.99722C120.139 8.45975 119.275 8.45975 118.731 8.99722L112.73 14.9339L114.681 16.8883L119.67 11.9045C120.756 10.8295 122.51 10.8295 123.571 11.9045L120.682 8.99722Z" fill="#0060A4"/>
<path d="M107.322 14.0543L101.84 8.60626L99.889 10.5363L105.371 15.9843L107.322 14.0543Z" fill="#A32035"/>
<path d="M105.865 16.473C106.409 17.0104 107.273 17.0104 107.816 16.473L113.792 10.5363L111.841 8.58185L106.853 13.5657C105.766 14.6407 104.013 14.6407 102.927 13.5657L105.865 16.473Z" fill="#E1251B"/>
<path d="M128.091 8.58185H130.684V14.9338H128.091V8.58185Z" fill="#003764"/>
<path d="M128.091 15.569C128.091 16.2775 128.683 16.8639 129.4 16.8639H136.586V14.2986H130.684C129.251 14.2986 128.091 13.1504 128.091 11.709V15.569Z" fill="#0060A4"/>
</g>
<path d="M83.4433 1.07428H83.7396V20.9256H83.4433V1.07428Z" fill="#B0AFB1"/>
<path d="M8.34463 16.183C8.42182 16.1547 8.48752 16.1022 8.53173 16.0337C8.57594 15.9651 8.59625 15.8841 8.58956 15.8031C8.59626 15.7198 8.57575 15.6367 8.53103 15.5658C8.48632 15.4949 8.41976 15.4401 8.34113 15.4093C8.17104 15.3538 7.99087 15.3349 7.81277 15.354H7.14795V15.5406C7.14795 15.5406 7.3124 15.5613 7.35789 15.5716V17.1191H7.88625C8.05276 17.134 8.2205 17.1104 8.37612 17.05C8.45986 17.0122 8.53079 16.9514 8.58043 16.8748C8.63008 16.7982 8.65633 16.7092 8.65604 16.6183C8.66568 16.5209 8.63953 16.4234 8.58236 16.3435C8.52518 16.2635 8.4408 16.2066 8.34463 16.183ZM7.73229 15.582H7.83376C7.94132 15.5656 8.05133 15.5863 8.14518 15.6407C8.16903 15.6621 8.18794 15.6882 8.20062 15.7174C8.2133 15.7466 8.21946 15.7782 8.21866 15.81C8.21866 15.993 8.16268 16.0587 7.95273 16.0829H7.80227L7.73229 16.2003V15.582ZM8.16268 16.8255C8.05468 16.8796 7.93335 16.9024 7.81277 16.8911H7.74279V16.3108H7.87225C7.97785 16.2962 8.08545 16.3143 8.18017 16.3626C8.21182 16.3908 8.23671 16.4256 8.25305 16.4644C8.26939 16.5032 8.27677 16.5452 8.27465 16.5872C8.276 16.6312 8.26763 16.6751 8.25011 16.7156C8.23258 16.7562 8.20633 16.7925 8.17317 16.8221" fill="#184884"/>
<path d="M12.2566 15.8237C12.1221 15.8168 11.9887 15.8499 11.8736 15.9188C11.7584 15.9876 11.6669 16.0891 11.6108 16.2099C11.5548 16.3307 11.5368 16.4654 11.5592 16.5964C11.5816 16.7275 11.6433 16.8488 11.7365 16.9448C11.8296 17.0408 11.9498 17.1069 12.0814 17.1347C12.2131 17.1624 12.3502 17.1504 12.4749 17.1003C12.5995 17.0502 12.7061 16.9643 12.7808 16.8537C12.8554 16.7431 12.8946 16.6129 12.8934 16.48C12.904 16.3937 12.8951 16.3061 12.8673 16.2236C12.8395 16.1411 12.7934 16.0658 12.7325 16.003C12.6716 15.9402 12.5973 15.8915 12.515 15.8605C12.4327 15.8295 12.3444 15.817 12.2566 15.8237ZM12.2566 16.9153C12.1411 16.9153 11.9872 16.8738 11.9872 16.4835C11.9872 16.0932 12.1306 16.0552 12.2601 16.0552C12.3896 16.0552 12.526 16.1001 12.526 16.48C12.526 16.86 12.3896 16.9153 12.2566 16.9153Z" fill="#184884"/>
<path d="M13.7438 16.8807L13.4954 16.9118C13.4429 16.9118 13.4289 16.9118 13.4149 16.8842C13.4108 16.8452 13.4108 16.8058 13.4149 16.7668V16.0759H13.7648V15.8583H13.4149V15.5129H13.3624L13.0545 15.5336V16.7391C13.041 16.8389 13.0659 16.94 13.1245 17.0224C13.1568 17.0587 13.1976 17.0867 13.2433 17.1042C13.289 17.1216 13.3382 17.1279 13.3869 17.1225C13.5191 17.1167 13.6492 17.0887 13.7718 17.0396L13.8068 17.0224L13.7438 16.8807Z" fill="#184884"/>
<path d="M9.46785 15.8238C9.33399 15.8203 9.20214 15.8565 9.08923 15.9275C8.97632 15.9986 8.88749 16.1013 8.83416 16.2226C8.78082 16.3438 8.76541 16.478 8.78989 16.608C8.81438 16.738 8.87764 16.8577 8.97157 16.952C9.0655 17.0462 9.18581 17.1105 9.31705 17.1368C9.44829 17.163 9.58448 17.1499 9.70814 17.0992C9.83179 17.0485 9.93728 16.9624 10.0111 16.8521C10.0848 16.7418 10.1235 16.6122 10.1222 16.4801C10.1304 16.3939 10.1196 16.3071 10.0907 16.2254C10.0618 16.1437 10.0153 16.0692 9.95452 16.0069C9.89372 15.9446 9.82002 15.896 9.73844 15.8644C9.65687 15.8328 9.56934 15.8189 9.48184 15.8238H9.46785ZM9.48184 16.9153C9.36637 16.9153 9.21591 16.8738 9.21591 16.4835C9.21591 16.0932 9.35238 16.0552 9.48534 16.0552C9.6183 16.0552 9.75127 16.1001 9.75127 16.4801C9.75127 16.86 9.6183 16.9153 9.48184 16.9153Z" fill="#184884"/>
<path d="M11.1125 15.9274C11.0277 15.8817 10.9326 15.8579 10.836 15.8583C10.7505 15.8599 10.6662 15.8788 10.5884 15.914C10.5106 15.9491 10.441 15.9997 10.3838 16.0626C10.3267 16.1254 10.2833 16.1992 10.2564 16.2794C10.2294 16.3596 10.2195 16.4443 10.2272 16.5285C10.2272 16.905 10.4266 17.1364 10.7521 17.1364C10.8736 17.1271 10.9922 17.0954 11.102 17.0431V17.1433C11.102 17.3609 11.018 17.4265 10.7521 17.4265C10.6074 17.4239 10.4633 17.4077 10.3217 17.3782V17.5854C10.4854 17.6262 10.6532 17.6494 10.822 17.6545C10.9656 17.6605 11.1085 17.6321 11.2384 17.5716C11.3152 17.5332 11.3776 17.4716 11.4166 17.3959C11.4556 17.3201 11.4691 17.2341 11.4554 17.1502V15.8722H11.1055L11.1125 15.9274ZM11.1125 16.8635C11.0575 16.8768 11.0011 16.8837 10.9445 16.8842C10.7311 16.8842 10.6156 16.7461 10.6156 16.4939C10.6156 16.2418 10.7416 16.076 10.9655 16.076C11.0109 16.0729 11.0565 16.0729 11.102 16.076L11.1125 16.8635Z" fill="#184884"/>
<path d="M15.0627 15.879H14.7128V15.9274C14.6326 15.8794 14.5406 15.8543 14.4468 15.8549C14.3622 15.8573 14.2789 15.8769 14.2023 15.9125C14.1256 15.9481 14.0573 15.999 14.0014 16.0619C13.9456 16.1248 13.9035 16.1984 13.8778 16.2781C13.8521 16.3577 13.8433 16.4418 13.852 16.525C13.852 16.898 14.0445 17.1364 14.3594 17.1364C14.4852 17.1243 14.6058 17.0803 14.7093 17.0086V17.1226L15.2096 17.0776V16.8635H15.0662L15.0627 15.879ZM14.7128 16.8739C14.6581 16.8788 14.603 16.8788 14.5483 16.8739C14.3279 16.8739 14.1984 16.7322 14.1984 16.4766C14.1984 16.221 14.3314 16.0552 14.5483 16.0552C14.5925 16.0508 14.6371 16.0508 14.6813 16.0552L14.7128 16.8739Z" fill="#184884"/>
<path d="M14.9018 15.5613L14.8178 15.2919L14.7758 15.3091L14.223 15.5337L14.2684 15.6926L14.9018 15.5613Z" fill="#184884"/>
<path d="M11.6756 14.3592C11.5679 14.3926 11.4561 14.4112 11.3432 14.4145C11.0843 14.4145 11.0318 14.1934 11.0318 14.0069C11.0318 13.7306 11.1368 13.5751 11.3467 13.5751C11.4048 13.5745 11.4626 13.5827 11.5182 13.5993L11.7001 13.6788V13.4335H11.6756C11.5471 13.3786 11.4096 13.347 11.2697 13.3402C11.1814 13.3393 11.0939 13.3573 11.0133 13.393C10.9327 13.4286 10.8608 13.481 10.8026 13.5466C10.7445 13.6123 10.7014 13.6895 10.6763 13.7732C10.6512 13.8568 10.6448 13.9448 10.6574 14.0311C10.6476 14.1122 10.6552 14.1944 10.6796 14.2725C10.704 14.3505 10.7447 14.4226 10.7991 14.4842C10.8535 14.5457 10.9204 14.5953 10.9955 14.6297C11.0705 14.6641 11.152 14.6826 11.2348 14.6839C11.4096 14.6735 11.5802 14.6264 11.7351 14.5458H11.7666L11.7141 14.3661L11.6756 14.3592Z" fill="#184884"/>
<path d="M7.35781 13.696C7.43539 13.6686 7.50137 13.6162 7.54516 13.5473C7.58895 13.4784 7.608 13.3969 7.59925 13.3161C7.60405 13.2327 7.58236 13.1499 7.53719 13.0793C7.49202 13.0087 7.42563 12.9538 7.34731 12.9223C7.17651 12.8701 6.99681 12.8525 6.81896 12.8705H6.16113V13.057L6.36758 13.0881V14.6356H6.89593C7.06015 14.6503 7.22558 14.6266 7.3788 14.5665C7.46654 14.5306 7.54141 14.4697 7.59379 14.3915C7.64616 14.3134 7.67366 14.2215 7.67273 14.1278C7.68112 14.032 7.65526 13.9364 7.59965 13.8575C7.54403 13.7787 7.46218 13.7215 7.36831 13.696H7.35781ZM6.74547 13.095H6.84695C6.95183 13.0789 7.05916 13.0984 7.15137 13.1503C7.17705 13.1726 7.19732 13.2003 7.21064 13.2314C7.22397 13.2625 7.23002 13.2961 7.22835 13.3299C7.22835 13.506 7.16886 13.5751 6.96242 13.5924L6.80846 13.6131L6.74547 13.7306V13.095ZM7.16886 14.342C7.0601 14.3935 6.93886 14.4139 6.81896 14.4007H6.75947V13.8238H6.88544C6.99295 13.8093 7.10233 13.8299 7.19685 13.8825C7.22688 13.9101 7.2503 13.944 7.26543 13.9816C7.28057 14.0193 7.28702 14.0598 7.28433 14.1002C7.28696 14.1449 7.27919 14.1896 7.2616 14.2309C7.24401 14.2723 7.21707 14.3091 7.18286 14.3385" fill="#184884"/>
<path d="M10.122 13.3333C9.98004 13.3441 9.8413 13.3804 9.71258 13.4404C9.71258 13.4127 9.71258 13.3436 9.71258 13.3436L9.18073 13.4058V13.5923H9.36967V14.6286H9.71958C9.71958 14.6286 9.71958 13.7098 9.71958 13.658C9.80838 13.6264 9.90167 13.609 9.99601 13.6062C10.0348 13.6052 10.0732 13.6135 10.108 13.6303C10.1397 13.6859 10.152 13.7503 10.143 13.8134V14.6286H10.4929V13.8031C10.4929 13.6131 10.4929 13.5474 10.4194 13.4576C10.3841 13.4108 10.3373 13.3735 10.2835 13.3494C10.2296 13.3252 10.1704 13.3149 10.1115 13.3195" fill="#184884"/>
<path d="M12.4562 13.3333C12.368 13.3294 12.28 13.3443 12.1982 13.3769C12.1164 13.4095 12.0426 13.4591 11.9819 13.5223C11.9212 13.5855 11.8749 13.6609 11.8463 13.7433C11.8176 13.8257 11.8073 13.9132 11.8159 13.9999C11.8159 14.1676 11.8833 14.3284 12.0034 14.4469C12.1235 14.5655 12.2864 14.6321 12.4562 14.6321C12.626 14.6321 12.7889 14.5655 12.909 14.4469C13.0291 14.3284 13.0965 14.1676 13.0965 13.9999C13.107 13.9129 13.0979 13.8246 13.0699 13.7414C13.0419 13.6582 12.9958 13.5821 12.9347 13.5184C12.8736 13.4548 12.799 13.4052 12.7163 13.3733C12.6336 13.3413 12.5448 13.3276 12.4562 13.3333ZM12.4562 14.4317C12.3407 14.4317 12.1903 14.3868 12.1903 13.9999C12.1903 13.6131 12.3267 13.5682 12.4562 13.5682C12.5857 13.5682 12.7256 13.6165 12.7256 13.9999C12.7256 14.3834 12.5892 14.4317 12.4562 14.4317Z" fill="#184884"/>
<path d="M9.00245 13.3954H8.65254V13.4507C8.56966 13.4031 8.47549 13.3781 8.37962 13.3782C8.29497 13.3802 8.21164 13.3993 8.13484 13.4346C8.05805 13.4698 7.98943 13.5202 7.93328 13.5828C7.87712 13.6453 7.83465 13.7187 7.80849 13.7982C7.78234 13.8777 7.77308 13.9616 7.78128 14.0448C7.78128 14.4248 7.98072 14.6528 8.29214 14.6528C8.418 14.6432 8.53891 14.6003 8.64205 14.5284V14.6424L9.13891 14.594V14.3868H9.00245V13.3954ZM8.65254 14.3937C8.59544 14.397 8.53819 14.397 8.48109 14.3937C8.26065 14.3937 8.13118 14.259 8.13118 14.0034C8.13118 13.7478 8.27115 13.5854 8.50908 13.5854C8.55446 13.581 8.60016 13.581 8.64554 13.5854L8.65254 14.3937Z" fill="#184884"/>
<path d="M14.8002 12.7875H14.7827H14.7443L14.2719 12.8463V13.0017H14.4468V13.4058C14.2818 13.3468 14.1025 13.3384 13.9325 13.3817C13.8085 13.4291 13.7036 13.5151 13.6335 13.6267C13.5634 13.7382 13.532 13.8693 13.5441 14C13.5324 14.128 13.5633 14.2562 13.6321 14.3653C13.7009 14.4744 13.8039 14.5584 13.9255 14.6045C14.108 14.6375 14.2964 14.6134 14.4643 14.5354C14.4643 14.5595 14.4643 14.6355 14.4643 14.6355L14.9367 14.5734V14.4179H14.7827C14.7827 14.3868 14.7827 12.7806 14.7827 12.7806L14.8002 12.7875ZM14.4328 14.373C14.2719 14.4179 14.0829 14.449 13.9815 14.3108C13.9178 14.2174 13.8882 14.1053 13.8975 13.9931C13.8975 13.9758 13.8975 13.962 13.8975 13.9516C13.8921 13.8439 13.9298 13.7385 14.0025 13.658C14.0612 13.6068 14.135 13.5755 14.2131 13.5687C14.2911 13.5618 14.3694 13.5798 14.4363 13.62C14.4363 13.62 14.4363 14.3454 14.4363 14.373" fill="#184884"/>
<path d="M15.647 13.3333C15.5706 13.3322 15.4947 13.3451 15.4231 13.3713C15.2944 13.4187 15.1852 13.5066 15.1124 13.6216C15.0397 13.7365 15.0074 13.872 15.0207 14.0069C15.0106 14.1391 15.0449 14.271 15.1183 14.3821C15.1916 14.4932 15.3 14.5774 15.4266 14.6217C15.6852 14.6798 15.9564 14.6391 16.1859 14.5077L16.1229 14.3316L16.0039 14.3627C15.8395 14.4076 15.619 14.4974 15.4791 14.335C15.4174 14.2393 15.3869 14.1272 15.3916 14.0138L16.0914 14.0345H16.1929V14.0138C16.1961 13.9851 16.1961 13.9561 16.1929 13.9274C16.2009 13.8519 16.1924 13.7756 16.1681 13.7035C16.1437 13.6315 16.104 13.5654 16.0517 13.5098C15.9993 13.4541 15.9354 13.4102 15.8644 13.381C15.7934 13.3517 15.7169 13.3378 15.64 13.3402L15.647 13.3333ZM15.3986 13.8376C15.3986 13.8169 15.3986 13.5648 15.647 13.5648C15.8954 13.5648 15.878 13.8135 15.8884 13.8376H15.3986Z" fill="#184884"/>
<path d="M13.0367 9.28153C12.5093 9.62595 11.8879 9.80311 11.2557 9.7893C10.882 9.7839 10.513 9.70576 10.1699 9.55936C9.82681 9.41296 9.51636 9.20117 9.25633 8.93613C8.99629 8.67109 8.79179 8.358 8.65453 8.01481C8.51727 7.67161 8.44996 7.30506 8.45644 6.93614C8.51243 5.52683 9.98903 4.3075 11.1612 4.2695C11.2207 4.2695 11.2382 4.24878 11.1787 4.24878C9.17375 4.2695 7.52219 5.65463 7.44521 7.54408C7.41956 8.45103 7.75642 9.33153 8.383 9.99531C9.00957 10.6591 9.87555 11.0529 10.7938 11.0915C12.5433 11.1606 13.4706 10.1313 13.0367 9.28153Z" fill="#184884"/>
<path d="M13.9711 7.29193C12.9599 7.7168 13.0089 8.80832 13.1593 9.67532C13.1593 9.63387 13.1593 9.60278 13.1593 9.56133C13.2054 9.84796 13.1589 10.1416 13.0264 10.4007C12.7324 10.8912 12.2636 11.2608 11.3468 11.5026C13.6877 11.5993 16.3295 9.36444 13.9711 7.29193Z" fill="#184884"/>
<path d="M11.3432 4.2488C11.3047 4.2488 11.2907 4.2488 11.3432 4.2488C12.7953 4.40769 13.831 5.34033 11.7701 6.35586C12.3999 6.27687 13.0397 6.34916 13.6351 6.56656C14.6848 5.2367 12.9983 4.24535 11.3397 4.23499" fill="#184884"/>
<path d="M13.1593 9.58204C13.0334 8.51124 12.8094 7.04666 14.8004 6.93958C12.4175 5.81006 10.85 6.92231 9.67078 7.15029C10.7205 7.27809 12.9074 8.42143 13.1698 9.56822" fill="#184884"/>
<path fill-rule="evenodd" clip-rule="evenodd" d="M73.8054 5.42773C74.6834 6.57702 73.9348 8.39907 72.1264 9.4888C70.3181 10.5785 68.1564 10.54 67.2714 9.4012C66.334 8.18533 67.128 6.41935 68.9329 5.32962C70.451 4.4151 72.2314 4.30297 73.2877 4.97923C73.8451 4.60652 74.4647 4.33712 75.1171 4.18384C74.5563 4.44696 74.0366 4.79044 73.5745 5.20348C73.6585 5.27576 73.7358 5.35551 73.8054 5.44175" fill="#DC211B"/>
<path fill-rule="evenodd" clip-rule="evenodd" d="M68.3173 6.38429C68.3173 6.38429 71.1541 6.73468 71.0666 9.2435C71.0666 9.2435 71.9586 5.03878 75.1171 4.1698C75.1171 4.1698 72.4238 4.07169 71.0701 7.38291C71.0701 7.38291 70.493 6.19858 68.3173 6.38429Z" fill="white"/>
<path fill-rule="evenodd" clip-rule="evenodd" d="M69.1496 13.9809C69.1353 14.0635 69.1018 14.1415 69.0517 14.2086C69.0055 14.2759 68.9474 14.3341 68.8803 14.3803C68.8025 14.4262 68.719 14.4616 68.6319 14.4854C68.5175 14.5137 68.3999 14.5266 68.2821 14.524H67.5371L67.8869 12.772H68.5515C68.6527 12.7628 68.7546 12.7628 68.8558 12.772C68.9234 12.7802 68.9888 12.8017 69.0482 12.8351C69.1016 12.8649 69.1435 12.9118 69.1671 12.9682C69.1858 13.0323 69.1858 13.1004 69.1671 13.1645C69.1487 13.2494 69.1103 13.3286 69.0552 13.3957C68.9972 13.4648 68.9208 13.5159 68.8348 13.5429C68.931 13.5608 69.0191 13.6086 69.0867 13.6795C69.1154 13.7222 69.1343 13.7707 69.1422 13.8216C69.15 13.8725 69.1466 13.9245 69.1321 13.9739L69.1496 13.9809ZM68.6494 13.9739C68.6663 13.9323 68.6663 13.8858 68.6494 13.8442C68.6295 13.8104 68.5987 13.7844 68.562 13.7706C68.5229 13.7612 68.4831 13.7554 68.4431 13.7531H68.1597L68.0758 14.1946H68.3556C68.4058 14.1931 68.4553 14.1837 68.5025 14.1666C68.5433 14.15 68.5794 14.1235 68.6074 14.0895C68.6366 14.0574 68.655 14.017 68.6599 13.9739H68.6494ZM68.6844 13.2485C68.6878 13.2206 68.6878 13.1924 68.6844 13.1645C68.6722 13.1353 68.6498 13.1116 68.6214 13.0979C68.5882 13.0841 68.5525 13.0769 68.5165 13.0769H68.2996L68.2262 13.4272H68.45C68.4859 13.4338 68.5226 13.4338 68.5585 13.4272C68.5938 13.4146 68.6243 13.3914 68.6459 13.3607C68.6682 13.3266 68.6836 13.2885 68.6914 13.2485" fill="#DC211B"/>
<path fill-rule="evenodd" clip-rule="evenodd" d="M70.0626 14.3803L69.9646 14.4398C69.9327 14.4627 69.8988 14.4827 69.8632 14.4994L69.7338 14.5415C69.6827 14.5484 69.6309 14.5484 69.5799 14.5415C69.5259 14.5431 69.4721 14.5334 69.422 14.5129C69.372 14.4923 69.3269 14.4615 69.2896 14.4223C69.2569 14.3795 69.2346 14.3297 69.2243 14.2769C69.214 14.224 69.2159 14.1695 69.2301 14.1175C69.2422 14.0304 69.2772 13.9482 69.3315 13.8792C69.3912 13.8161 69.4641 13.7671 69.5449 13.7355C69.6399 13.6966 69.7401 13.6718 69.8422 13.662C69.958 13.6431 70.0748 13.6314 70.192 13.6269C70.192 13.5498 70.192 13.4973 70.1325 13.4693C70.054 13.4368 69.9689 13.4236 69.8842 13.4307C69.8216 13.4302 69.7592 13.4384 69.6988 13.4552C69.6267 13.4717 69.5565 13.4952 69.4889 13.5253H69.4505L69.5099 13.203C69.5554 13.203 69.6288 13.1819 69.7233 13.1574C69.8241 13.1435 69.9258 13.1365 70.0276 13.1364C70.2053 13.1255 70.3825 13.1657 70.5383 13.252C70.5845 13.2962 70.6177 13.3522 70.6343 13.414C70.651 13.4758 70.6504 13.5409 70.6327 13.6024L70.4578 14.5169H70.0136L70.0626 14.3803ZM70.0976 14.1665L70.1535 13.8897L69.9716 13.9107C69.9227 13.9149 69.8744 13.9255 69.8282 13.9423C69.791 13.9515 69.7571 13.9709 69.7303 13.9983C69.7008 14.0259 69.6821 14.0632 69.6778 14.1035C69.6693 14.1252 69.6678 14.149 69.6734 14.1716C69.6791 14.1942 69.6916 14.2145 69.7093 14.2296C69.7527 14.2548 69.8028 14.2658 69.8527 14.2611C69.8955 14.2607 69.938 14.2536 69.9786 14.2401C70.0228 14.2239 70.0633 14.1988 70.0976 14.1665Z" fill="#DC211B"/>
<path fill-rule="evenodd" clip-rule="evenodd" d="M72.067 14.524H71.6263L71.7557 13.8617C71.7557 13.8092 71.7732 13.7496 71.7837 13.6935C71.7879 13.6575 71.7879 13.621 71.7837 13.5849C71.7795 13.5696 71.772 13.5554 71.7617 13.5433C71.7515 13.5312 71.7387 13.5215 71.7242 13.5148C71.6899 13.5004 71.653 13.4932 71.6158 13.4938C71.5797 13.4907 71.5434 13.4907 71.5074 13.4938C71.46 13.5075 71.4151 13.5288 71.3744 13.5569L71.1926 14.51H70.7518L71.0107 13.168H71.4479L71.4199 13.3011C71.4955 13.2504 71.5751 13.2059 71.6578 13.168C71.7336 13.1384 71.8142 13.1229 71.8956 13.1224C71.9531 13.1172 72.0109 13.1263 72.064 13.1489C72.1171 13.1715 72.1638 13.207 72.1999 13.252C72.258 13.3668 72.2729 13.4986 72.2419 13.6235L72.067 14.524Z" fill="#DC211B"/>
<path fill-rule="evenodd" clip-rule="evenodd" d="M73.0254 14.5345C72.918 14.537 72.8108 14.524 72.7071 14.4959C72.6242 14.4714 72.5485 14.4269 72.4867 14.3663C72.4224 14.3065 72.3784 14.2281 72.3608 14.142C72.3397 14.0403 72.3397 13.9354 72.3608 13.8337C72.3819 13.717 72.4246 13.6053 72.4867 13.5043C72.5444 13.4186 72.618 13.3448 72.7036 13.2871C72.7869 13.2308 72.8792 13.1894 72.9764 13.1644C73.0756 13.1376 73.178 13.1246 73.2807 13.1259C73.3572 13.125 73.4336 13.1332 73.5081 13.1504C73.5847 13.1728 73.6595 13.2009 73.732 13.2345L73.662 13.5849H73.606L73.5501 13.5393C73.5271 13.5172 73.5012 13.4984 73.4731 13.4833C73.4417 13.4665 73.409 13.4525 73.3752 13.4412C73.3337 13.4322 73.2908 13.4322 73.2493 13.4412C73.1966 13.4391 73.1441 13.4476 73.0948 13.4663C73.0455 13.4849 73.0005 13.5134 72.9624 13.5499C72.8806 13.6324 72.8278 13.7394 72.812 13.8547C72.7955 13.9046 72.7903 13.9576 72.797 14.0098C72.8036 14.0619 72.8219 14.1119 72.8505 14.156C72.8803 14.1912 72.9181 14.2188 72.9607 14.2365C73.0033 14.2541 73.0494 14.2614 73.0954 14.2576C73.1475 14.2595 73.1995 14.2524 73.2493 14.2366L73.3647 14.1981C73.3929 14.1802 73.4198 14.1603 73.4451 14.1385C73.4673 14.125 73.4884 14.1098 73.5081 14.093H73.5641L73.4976 14.4434L73.4032 14.4749C73.3677 14.4887 73.3315 14.5004 73.2947 14.5099C73.2493 14.5099 73.2108 14.531 73.1688 14.5345C73.1211 14.5383 73.0731 14.5383 73.0254 14.5345Z" fill="#DC211B"/>
<path fill-rule="evenodd" clip-rule="evenodd" d="M75.1661 13.8337C75.1351 14.035 75.0319 14.2182 74.8758 14.3488C74.7123 14.4787 74.5072 14.5447 74.2987 14.5345C74.2065 14.5429 74.1135 14.5302 74.0269 14.4975C73.9402 14.4647 73.8621 14.4126 73.7985 14.3453C73.7453 14.2719 73.7092 14.1876 73.6929 14.0985C73.6765 14.0093 73.6804 13.9176 73.704 13.8302C73.7391 13.6274 73.8428 13.443 73.9979 13.3081C74.162 13.1796 74.367 13.1149 74.575 13.1259C74.6661 13.1176 74.7579 13.1297 74.8438 13.1612C74.9296 13.1927 75.0075 13.2428 75.0717 13.3081C75.1247 13.3835 75.1605 13.4697 75.1768 13.5604C75.1932 13.6512 75.1895 13.7445 75.1661 13.8337ZM74.7149 13.8337C74.7211 13.7672 74.7211 13.7004 74.7149 13.634C74.7132 13.5909 74.7012 13.5488 74.6799 13.5113C74.6742 13.4948 74.665 13.4796 74.6529 13.4669C74.6409 13.4542 74.6262 13.4443 74.61 13.4377C74.5731 13.43 74.535 13.43 74.4981 13.4377C74.4623 13.4306 74.4254 13.4306 74.3896 13.4377C74.3511 13.4497 74.317 13.4729 74.2917 13.5043C74.2548 13.5397 74.2262 13.5828 74.2077 13.6304C74.1762 13.6948 74.1539 13.7632 74.1413 13.8337C74.1335 13.8989 74.1335 13.9647 74.1413 14.0299C74.1447 14.0712 74.1553 14.1115 74.1728 14.149C74.1889 14.1799 74.2147 14.2045 74.2462 14.2191C74.3182 14.2473 74.3981 14.2473 74.4701 14.2191C74.509 14.2055 74.5447 14.184 74.575 14.156C74.6058 14.1179 74.6328 14.0768 74.6555 14.0334C74.6833 13.9695 74.7033 13.9024 74.7149 13.8337Z" fill="#DC211B"/>
<path fill-rule="evenodd" clip-rule="evenodd" d="M65.806 17.5023L66.7784 15.7293H67.2926L67.5829 17.4813H67.1072L67.0617 17.1309H66.4636L66.2747 17.4813L65.806 17.5023ZM67.0197 16.8015L66.9358 16.2058L66.6315 16.798L67.0197 16.8015Z" fill="#DC211B"/>
<path fill-rule="evenodd" clip-rule="evenodd" d="M69.3594 15.7363L68.3765 17.5023H67.8868L67.5825 15.7293H68.0687L68.2436 16.9312L68.8872 15.7363H69.3594Z" fill="#DC211B"/>
<path fill-rule="evenodd" clip-rule="evenodd" d="M71.4407 15.7363L70.4578 17.5023H69.9681L69.6638 15.7293H70.1465L70.3284 16.9312L70.965 15.7363H71.4407Z" fill="#DC211B"/>
<path fill-rule="evenodd" clip-rule="evenodd" d="M71.2485 17.5023L71.5003 16.1708H71.9376L71.6892 17.5023H71.2485ZM71.99 15.9781H71.5248L71.5878 15.6592H72.0495L71.99 15.9781Z" fill="#DC211B"/>
<path fill-rule="evenodd" clip-rule="evenodd" d="M71.9515 17.5023L72.3083 15.6557H72.7525L72.3922 17.5023H71.9515Z" fill="#DC211B"/>
<path fill-rule="evenodd" clip-rule="evenodd" d="M73.1198 17.5023H72.6756L73.0289 15.6557L73.4731 15.6592L73.1198 17.5023Z" fill="#DC211B"/>
<path fill-rule="evenodd" clip-rule="evenodd" d="M74.2006 17.3621C74.1705 17.3842 74.139 17.4041 74.1061 17.4217C74.0743 17.4486 74.0374 17.4688 73.9977 17.4813L73.8788 17.5268C73.823 17.533 73.7667 17.533 73.7109 17.5268C73.6584 17.5279 73.6064 17.5171 73.5586 17.4953C73.5109 17.4735 73.4687 17.4412 73.4351 17.4008C73.4015 17.3604 73.3774 17.313 73.3646 17.262C73.3518 17.2111 73.3506 17.1579 73.3611 17.1064C73.3719 17.0173 73.4084 16.9333 73.466 16.8646C73.5234 16.8021 73.5939 16.753 73.6724 16.7209C73.7709 16.6817 73.8746 16.657 73.9802 16.6473C74.0921 16.6473 74.2146 16.6228 74.33 16.6158C74.3398 16.5876 74.3396 16.5568 74.3294 16.5287C74.3192 16.5006 74.2997 16.4769 74.274 16.4616C74.195 16.4295 74.1109 16.4117 74.0257 16.4091C73.9631 16.4162 73.9011 16.4279 73.8403 16.4441C73.7655 16.4632 73.692 16.4866 73.6199 16.5142H73.5849L73.6479 16.1918C73.719 16.1729 73.7915 16.16 73.8648 16.1533C73.964 16.1343 74.0646 16.1238 74.1656 16.1218C74.343 16.1038 74.5212 16.1484 74.6693 16.2479C74.7202 16.2887 74.757 16.3444 74.7746 16.4073C74.7921 16.4702 74.7896 16.537 74.7672 16.5983L74.5958 17.5093H74.1551L74.2006 17.3621ZM74.2425 17.1519L74.2915 16.8751C74.231 16.8795 74.1702 16.8795 74.1096 16.8751L73.9697 16.9136C73.9318 16.921 73.8973 16.9407 73.8718 16.9697C73.8424 16.9945 73.8237 17.0296 73.8193 17.0678C73.8193 17.1344 73.8193 17.1764 73.8508 17.1975C73.894 17.2265 73.9458 17.2401 73.9977 17.236C74.041 17.234 74.0836 17.2245 74.1236 17.208C74.1658 17.1891 74.2056 17.1656 74.2425 17.1379" fill="#DC211B"/>
<path fill-rule="evenodd" clip-rule="evenodd" d="M75.3093 17.5233C75.2128 17.5242 75.1165 17.5136 75.0225 17.4918C74.949 17.475 74.8774 17.4503 74.8091 17.4182L74.8756 17.0678H74.9141C74.9304 17.0899 74.9506 17.1089 74.9735 17.1239L75.0715 17.1764C75.112 17.1964 75.1541 17.2128 75.1974 17.2255C75.252 17.2327 75.3072 17.2327 75.3618 17.2255C75.42 17.2285 75.4782 17.2201 75.5332 17.2009C75.5541 17.196 75.5731 17.185 75.588 17.1695C75.6029 17.154 75.613 17.1345 75.6172 17.1133C75.6227 17.1025 75.6256 17.0905 75.6256 17.0783C75.6256 17.0661 75.6227 17.0541 75.6172 17.0433C75.5781 17.0203 75.5356 17.0037 75.4912 16.9942L75.3723 16.9732L75.2464 16.9417C75.1598 16.9139 75.0824 16.863 75.0225 16.7945C74.98 16.7163 74.9687 16.6249 74.991 16.5387C75.0009 16.479 75.0249 16.4225 75.061 16.374C75.1043 16.3166 75.1591 16.2689 75.2219 16.2339C75.2908 16.1895 75.3664 16.1564 75.4458 16.1357C75.5403 16.1094 75.638 16.0964 75.7361 16.0972C75.8253 16.0989 75.9143 16.1082 76.0019 16.1252C76.0694 16.1435 76.135 16.1682 76.1978 16.1988L76.1278 16.5492H76.0929C76.0789 16.529 76.0595 16.5132 76.0369 16.5037L75.9494 16.4511C75.9138 16.4329 75.8763 16.4188 75.8375 16.4091C75.7922 16.4039 75.7464 16.4039 75.7011 16.4091C75.6419 16.406 75.583 16.4181 75.5297 16.4441C75.4772 16.4651 75.4597 16.4896 75.4528 16.5247C75.4458 16.5351 75.4421 16.5472 75.4421 16.5597C75.4421 16.5722 75.4458 16.5844 75.4528 16.5948C75.4909 16.6227 75.5354 16.6408 75.5822 16.6473C75.6245 16.6591 75.6678 16.6673 75.7116 16.6718L75.8375 16.7069C75.9203 16.7286 75.9931 16.7781 76.0439 16.847C76.0829 16.9188 76.0929 17.0029 76.0719 17.0818C76.0616 17.149 76.0352 17.2128 75.9949 17.2675C75.9497 17.3241 75.8953 17.3726 75.834 17.4112C75.7607 17.4511 75.6833 17.4828 75.6032 17.5058C75.5045 17.5282 75.4035 17.5388 75.3023 17.5373" fill="#DC211B"/>
<path fill-rule="evenodd" clip-rule="evenodd" d="M67.9149 8.19935C67.9639 7.84896 68.4151 7.72632 69.1111 7.77187C69.335 7.78171 69.5582 7.80511 69.7792 7.84195C69.5451 7.71315 69.2927 7.62099 69.0307 7.56864C68.1422 7.38293 67.3377 7.6212 67.2398 8.10475C67.1419 8.58829 67.7435 9.11388 68.6389 9.29959C69.4504 9.4888 70.2654 9.21199 70.3879 8.90364C70.157 9.14191 69.6218 9.16994 68.9328 9.02278C68.7334 8.97723 67.8379 8.72845 67.9184 8.19935" fill="white"/>
<path d="M55.8157 15.0427H55.7458C55.6303 15.038 55.516 15.0673 55.417 15.127C55.417 15.0884 55.3855 15.0638 55.319 15.0638H55.1371C55.0847 15.0638 55.0567 15.0849 55.0427 15.1445C54.9482 15.5868 54.8538 16.015 54.7664 16.4503V16.4748C54.7664 16.5345 54.8013 16.5626 54.8643 16.5626H55.0462C55.0717 16.5656 55.0973 16.5584 55.1175 16.5427C55.1378 16.5269 55.1511 16.5038 55.1546 16.4783C55.2106 16.2186 55.2631 15.9589 55.3155 15.7026C55.3325 15.6164 55.3811 15.5398 55.4517 15.4878C55.5223 15.4358 55.6097 15.4122 55.6968 15.4218H55.7702C55.7827 15.4233 55.7952 15.4223 55.8073 15.4188C55.8193 15.4153 55.8305 15.4095 55.8402 15.4017C55.85 15.3939 55.8581 15.3842 55.8641 15.3732C55.8701 15.3621 55.8739 15.3501 55.8752 15.3376C55.8752 15.2779 55.8997 15.2112 55.9137 15.148C55.9152 15.1387 55.9152 15.1293 55.9137 15.12C55.9137 15.0673 55.8822 15.0427 55.8192 15.0427" fill="#008F3B"/>
<path d="M54.8608 15.1375C54.8608 15.0954 54.8294 15.0673 54.7664 15.0673H54.588C54.539 15.0673 54.5076 15.0673 54.4971 15.1445C54.4961 15.1538 54.4961 15.1633 54.4971 15.1726C54.3853 15.0893 54.2478 15.0483 54.1088 15.0568C53.9884 15.057 53.8694 15.0817 53.7587 15.1294C53.6481 15.177 53.5483 15.2466 53.4652 15.3341C53.3747 15.4135 53.3018 15.511 53.2512 15.6205C53.2006 15.7299 53.1734 15.8487 53.1714 15.9694C53.1688 16.0515 53.1833 16.1333 53.214 16.2094C53.2447 16.2856 53.291 16.3544 53.3498 16.4116C53.4095 16.4696 53.4802 16.515 53.5577 16.5452C53.6352 16.5753 53.7179 16.5896 53.801 16.5871C53.9588 16.5898 54.1125 16.5363 54.2347 16.4362V16.4678C54.2347 16.524 54.2662 16.552 54.3327 16.552H54.4971C54.5224 16.5542 54.5475 16.5467 54.5676 16.5311C54.5877 16.5155 54.6012 16.4929 54.6055 16.4678C54.6929 16.029 54.7874 15.6008 54.8783 15.1691C54.877 15.1574 54.877 15.1456 54.8783 15.134L54.8608 15.1375ZM54.2347 16.0396C54.1899 16.088 54.1358 16.1269 54.0758 16.1541C54.0157 16.1812 53.9508 16.196 53.8849 16.1975C53.8087 16.2014 53.7338 16.1763 53.6751 16.1273C53.6441 16.0984 53.6198 16.0629 53.6041 16.0235C53.5884 15.984 53.5816 15.9416 53.5841 15.8992C53.5841 15.7805 53.6291 15.6663 53.71 15.5798C53.7545 15.5311 53.8086 15.4923 53.8688 15.4657C53.929 15.4392 53.9941 15.4254 54.0598 15.4253C54.1359 15.4225 54.2108 15.4447 54.2732 15.4885C54.3053 15.5169 54.3307 15.5521 54.3476 15.5916C54.3646 15.631 54.3726 15.6737 54.3711 15.7166C54.3705 15.8376 54.3228 15.9535 54.2382 16.0396" fill="#008F3B"/>
<path d="M53.294 14.5654C53.294 14.5198 53.259 14.4952 53.2031 14.4952H53.0037C52.9925 14.4931 52.981 14.4935 52.9699 14.4965C52.9589 14.4994 52.9487 14.5048 52.94 14.5122C52.9313 14.5196 52.9243 14.5288 52.9196 14.5392C52.9149 14.5496 52.9126 14.561 52.9128 14.5724C52.7798 15.2007 52.6434 15.8255 52.5105 16.4503V16.4784C52.5105 16.5345 52.542 16.5626 52.6049 16.5626H52.7868C52.8123 16.5656 52.8379 16.5584 52.8582 16.5427C52.8785 16.5269 52.8918 16.5038 52.8953 16.4784C53.0282 15.8489 53.1588 15.2264 53.287 14.611V14.5759" fill="#008F3B"/>
<path d="M52.6082 15.1446C52.6082 15.1024 52.5802 15.0779 52.5137 15.0779H52.3144C52.2654 15.0779 52.2339 15.0779 52.2269 15.1586C52.1674 15.4148 52.1115 15.6746 52.0555 15.9308C52.0425 16.0077 52.0044 16.0781 51.9471 16.1309C51.8811 16.1822 51.7997 16.2094 51.7162 16.2081C51.6614 16.2097 51.6078 16.1909 51.5658 16.1555C51.5422 16.1323 51.5238 16.1043 51.5118 16.0735C51.4997 16.0426 51.4943 16.0095 51.4959 15.9764C51.4922 15.9603 51.4922 15.9435 51.4959 15.9273L51.6533 15.1762C51.655 15.1657 51.655 15.155 51.6533 15.1446C51.6533 15.1024 51.6218 15.0779 51.5588 15.0779H51.3664C51.3105 15.0779 51.279 15.0779 51.2685 15.1586C51.2125 15.4137 51.1566 15.6734 51.1006 15.9378C51.0972 15.9857 51.0972 16.0338 51.1006 16.0817C51.0973 16.1613 51.1142 16.2404 51.1497 16.3116C51.1852 16.3828 51.2381 16.4438 51.3035 16.4889C51.4065 16.5586 51.5292 16.5931 51.6533 16.5872C51.7671 16.5931 51.8791 16.5569 51.9681 16.4854C51.9681 16.5381 52.0065 16.5626 52.0625 16.5626H52.2234C52.2489 16.5656 52.2745 16.5585 52.2948 16.5427C52.315 16.527 52.3284 16.5039 52.3318 16.4784C52.4193 16.0431 52.5137 15.6149 52.6047 15.1902C52.6047 15.1691 52.6047 15.1586 52.6047 15.1446" fill="#008F3B"/>
<path d="M50.3592 15.0568C50.2133 15.0542 50.0699 15.0945 49.9465 15.1727V15.1446C49.9465 15.0954 49.9115 15.0674 49.852 15.0674H49.6631C49.6142 15.0674 49.5792 15.0674 49.5687 15.1446C49.4393 15.7764 49.3099 16.4012 49.1769 17.04V17.0646C49.1769 17.1207 49.2049 17.1453 49.2609 17.1453H49.4428C49.4553 17.1473 49.468 17.1466 49.4803 17.1434C49.4925 17.1401 49.5039 17.1343 49.5138 17.1264C49.5236 17.1185 49.5318 17.1086 49.5376 17.0973C49.5435 17.0861 49.5469 17.0737 49.5477 17.0611C49.5932 16.854 49.6352 16.6469 49.6771 16.4433C49.7256 16.4928 49.7841 16.5312 49.8487 16.5561C49.9133 16.5809 49.9824 16.5915 50.0514 16.5872C50.1726 16.5849 50.2922 16.5587 50.4032 16.5099C50.5143 16.4611 50.6146 16.3907 50.6985 16.3029C50.7908 16.224 50.865 16.1261 50.9163 16.0159C50.9676 15.9057 50.9947 15.7857 50.9958 15.6641C50.997 15.5825 50.9811 15.5017 50.9492 15.4267C50.9172 15.3517 50.87 15.2843 50.8104 15.2288C50.751 15.1706 50.6803 15.1253 50.6027 15.0957C50.525 15.0661 50.4422 15.0529 50.3592 15.0568ZM50.4746 16.0502C50.4297 16.0984 50.3756 16.1373 50.3156 16.1644C50.2555 16.1915 50.1907 16.2064 50.1249 16.2081C50.0475 16.2125 49.9713 16.1874 49.9115 16.1379C49.8786 16.1101 49.8526 16.0751 49.8356 16.0355C49.8186 15.9959 49.8111 15.9528 49.8135 15.9098C49.8132 15.85 49.8251 15.7908 49.8486 15.7358C49.8721 15.6809 49.9066 15.6313 49.95 15.5904C49.9939 15.541 50.0479 15.5018 50.1082 15.4751C50.1685 15.4485 50.2338 15.4351 50.2998 15.4359C50.3746 15.4339 50.4482 15.456 50.5096 15.4991C50.5422 15.5286 50.5679 15.565 50.5849 15.6057C50.6018 15.6463 50.6096 15.6902 50.6076 15.7343C50.6061 15.8523 50.5598 15.9652 50.4781 16.0502" fill="#008F3B"/>
<path d="M49.1104 15.2253C48.9904 15.1124 48.8307 15.0519 48.6662 15.0568C48.5443 15.0552 48.4234 15.0786 48.3109 15.1257C48.1984 15.1728 48.0967 15.2425 48.0121 15.3306C47.9207 15.41 47.8472 15.508 47.7965 15.6182C47.7458 15.7283 47.7192 15.8481 47.7183 15.9694C47.7146 16.0517 47.7286 16.1338 47.7594 16.2101C47.7902 16.2864 47.837 16.3552 47.8967 16.4117C47.9562 16.47 48.0268 16.5156 48.1044 16.5458C48.182 16.5759 48.2648 16.59 48.3479 16.5872C48.4687 16.5856 48.588 16.5596 48.6986 16.5108C48.8092 16.4619 48.9088 16.3912 48.9915 16.3029C49.0838 16.2239 49.1581 16.1261 49.2093 16.0159C49.2606 15.9057 49.2878 15.7857 49.2888 15.664C49.2912 15.5825 49.2765 15.5013 49.2458 15.4258C49.2151 15.3502 49.169 15.2819 49.1104 15.2253ZM48.7607 16.0431C48.7179 16.0948 48.6645 16.1366 48.6041 16.1657C48.5437 16.1948 48.4778 16.2104 48.4109 16.2116C48.3352 16.2143 48.2614 16.1879 48.2045 16.1379C48.172 16.1098 48.1464 16.0746 48.1294 16.0351C48.1124 15.9956 48.1046 15.9527 48.1066 15.9097C48.1068 15.8509 48.1187 15.7927 48.1415 15.7384C48.1644 15.6842 48.1976 15.6351 48.2395 15.5938C48.2826 15.5433 48.3364 15.503 48.3968 15.4757C48.4573 15.4484 48.523 15.4348 48.5893 15.4359C48.6642 15.4338 48.7377 15.456 48.7991 15.4991C48.8305 15.5266 48.8555 15.5606 48.8724 15.5988C48.8893 15.637 48.8977 15.6784 48.8971 15.7202C48.8981 15.7803 48.8869 15.84 48.864 15.8955C48.8412 15.9511 48.8072 16.0013 48.7642 16.0431" fill="#008F3B"/>
<path d="M46.9769 15.0568C46.8299 15.0542 46.6853 15.0944 46.5607 15.1727C46.5617 15.1633 46.5617 15.1539 46.5607 15.1446C46.5607 15.0954 46.5257 15.0674 46.4627 15.0674H46.2773C46.2284 15.0674 46.1934 15.0674 46.1829 15.1446C46.0535 15.7764 45.9206 16.4012 45.7911 17.04C45.7911 17.1067 45.8156 17.1313 45.8751 17.1313H46.064C46.0764 17.1327 46.089 17.1317 46.101 17.1282C46.113 17.1248 46.1242 17.119 46.134 17.1111C46.1437 17.1033 46.1519 17.0936 46.1578 17.0826C46.1638 17.0716 46.1676 17.0595 46.1689 17.047C46.2074 16.8399 46.2494 16.6328 46.2913 16.4292C46.3395 16.4781 46.3975 16.5162 46.4614 16.541C46.5253 16.5658 46.5937 16.5767 46.6621 16.5732C46.7845 16.5716 46.9053 16.5457 47.0176 16.4969C47.1299 16.4481 47.2314 16.3774 47.3162 16.2888C47.4071 16.2088 47.4804 16.1107 47.5316 16.0007C47.5828 15.8908 47.6107 15.7713 47.6135 15.65C47.6138 15.5686 47.5976 15.488 47.5657 15.4132C47.5338 15.3383 47.487 15.2708 47.4281 15.2148C47.3686 15.1567 47.2978 15.1116 47.2202 15.082C47.1426 15.0524 47.0598 15.0391 46.9769 15.0428V15.0568ZM47.0923 16.0361C47.0475 16.0846 46.9934 16.1235 46.9334 16.1506C46.8733 16.1777 46.8084 16.1925 46.7426 16.1941C46.6674 16.1977 46.5936 16.1726 46.5362 16.1239C46.5035 16.0958 46.4774 16.0607 46.4599 16.0213C46.4423 15.9818 46.4337 15.9389 46.4347 15.8957C46.4372 15.7755 46.4861 15.661 46.5712 15.5763C46.6154 15.5274 46.6694 15.4883 46.7297 15.4617C46.7899 15.4351 46.8551 15.4215 46.9209 15.4219C46.998 15.4195 47.0739 15.4417 47.1378 15.485C47.1699 15.515 47.1952 15.5515 47.2121 15.592C47.229 15.6326 47.237 15.6763 47.2357 15.7202C47.2326 15.8386 47.1852 15.9514 47.1028 16.0361" fill="#008F3B"/>
<path d="M46.6268 13.537H46.7982C46.8115 13.539 46.825 13.5381 46.8378 13.5345C46.8507 13.5308 46.8627 13.5245 46.8729 13.5159C46.8832 13.5072 46.8915 13.4965 46.8973 13.4844C46.9031 13.4723 46.9063 13.4591 46.9067 13.4457V13.4211C47.013 13.5168 47.1522 13.5672 47.2949 13.5615C47.417 13.5605 47.5377 13.5351 47.65 13.4869C47.7623 13.4387 47.8639 13.3686 47.949 13.2807C48.0388 13.2002 48.111 13.1018 48.1609 12.9919C48.2109 12.8819 48.2376 12.7628 48.2393 12.6419C48.2416 12.5609 48.2269 12.4803 48.1962 12.4053C48.1655 12.3303 48.1194 12.2627 48.061 12.2067C48 12.1483 47.9282 12.1027 47.8495 12.0726C47.7708 12.0425 47.6869 12.0284 47.6027 12.0312C47.4553 12.0287 47.3104 12.0703 47.1865 12.1505L47.3264 11.603V11.5679C47.3264 11.5152 47.2984 11.4871 47.2355 11.4871H47.0361C46.9836 11.4871 46.9556 11.5082 46.9416 11.5679C46.8122 12.1997 46.6828 12.8209 46.5464 13.4457C46.5464 13.5124 46.5814 13.537 46.6408 13.537H46.6268ZM47.1935 12.5717C47.2381 12.5228 47.2921 12.4833 47.3522 12.4556C47.4122 12.4279 47.4772 12.4125 47.5433 12.4103C47.6213 12.4087 47.6977 12.4334 47.7601 12.4805C47.7934 12.5073 47.8199 12.5417 47.8375 12.5807C47.8551 12.6197 47.8634 12.6623 47.8616 12.7051C47.8617 12.7649 47.8497 12.824 47.8262 12.8789C47.8028 12.9339 47.7684 12.9834 47.7252 13.0245C47.6345 13.1227 47.5087 13.1808 47.3754 13.186C47.2974 13.1905 47.2207 13.164 47.162 13.1123C47.1278 13.0847 47.1007 13.0492 47.083 13.0089C47.0654 12.9686 47.0577 12.9246 47.0606 12.8806C47.06 12.8227 47.0715 12.7652 47.0944 12.712C47.1173 12.6588 47.151 12.611 47.1935 12.5717Z" fill="#008F3B"/>
<path d="M48.9844 13.5615C49.1402 13.5618 49.2916 13.5099 49.4147 13.4141C49.4147 13.4808 49.4531 13.5054 49.5161 13.5054H49.6805C49.6932 13.5073 49.7061 13.5067 49.7186 13.5035C49.731 13.5003 49.7426 13.4945 49.7528 13.4867C49.7629 13.4788 49.7714 13.4689 49.7776 13.4576C49.7838 13.4464 49.7877 13.4339 49.7889 13.4211L50.0618 12.1189C50.0626 12.1096 50.0626 12.1002 50.0618 12.0908C50.0618 12.0347 50.0338 12.0136 49.9673 12.0136H49.7749C49.726 12.0136 49.6945 12.0136 49.684 12.0908C49.6735 12.1681 49.684 12.1189 49.684 12.1259C49.5765 12.0362 49.4388 11.991 49.2992 11.9996C49.1788 11.9994 49.0596 12.0239 48.9489 12.0716C48.8383 12.1193 48.7385 12.1891 48.6556 12.2769C48.5651 12.357 48.4921 12.4552 48.4415 12.5652C48.3909 12.6752 48.3638 12.7945 48.3618 12.9157C48.3595 12.9972 48.3741 13.0784 48.4049 13.154C48.4356 13.2295 48.4817 13.2978 48.5402 13.3544C48.5994 13.4143 48.6705 13.4608 48.7488 13.4911C48.8272 13.5213 48.9111 13.5346 48.9949 13.5299L48.9844 13.5615ZM48.8795 12.5401C48.9236 12.4906 48.9775 12.4506 49.0377 12.4229C49.0978 12.3951 49.1631 12.38 49.2293 12.3787C49.3074 12.3771 49.3837 12.4018 49.4461 12.4489C49.4766 12.4776 49.5007 12.5125 49.517 12.5512C49.5332 12.5899 49.5413 12.6315 49.5406 12.6735C49.5409 12.7336 49.5286 12.7931 49.5045 12.8481C49.4804 12.9032 49.445 12.9525 49.4007 12.9929C49.3572 13.0433 49.3035 13.0838 49.2432 13.1117C49.1829 13.1395 49.1173 13.1541 49.0509 13.1544C48.9745 13.1553 48.9002 13.1292 48.841 13.0807C48.8087 13.0518 48.7834 13.016 48.767 12.9758C48.7507 12.9357 48.7437 12.8923 48.7466 12.849C48.7486 12.7325 48.7964 12.6215 48.8795 12.5401Z" fill="#008F3B"/>
<path d="M49.9465 13.4598C49.9465 13.5124 49.978 13.537 50.041 13.537H50.2194C50.2322 13.539 50.2454 13.5383 50.258 13.5352C50.2707 13.532 50.2825 13.5263 50.293 13.5185C50.3034 13.5106 50.3122 13.5008 50.3187 13.4895C50.3253 13.4782 50.3296 13.4657 50.3313 13.4527C50.3873 13.2035 50.4397 12.9473 50.4922 12.6981C50.5059 12.6124 50.5508 12.5349 50.6181 12.4805C50.6796 12.4342 50.7546 12.4095 50.8315 12.4103C50.8654 12.4079 50.8994 12.4133 50.9309 12.4261C50.9624 12.4388 50.9906 12.4586 51.0134 12.484C51.0516 12.5431 51.0666 12.6144 51.0554 12.684C50.9994 12.9297 50.9434 13.1825 50.891 13.4282C50.891 13.4949 50.9224 13.5194 50.9854 13.5194H51.1743C51.187 13.5214 51.1999 13.5208 51.2123 13.5175C51.2248 13.5143 51.2364 13.5086 51.2466 13.5007C51.2567 13.4928 51.2651 13.483 51.2714 13.4717C51.2776 13.4604 51.2814 13.448 51.2827 13.4352C51.3387 13.1754 51.3911 12.9122 51.4471 12.656C51.4581 12.6064 51.464 12.5558 51.4646 12.505C51.4678 12.427 51.4507 12.3494 51.4152 12.2799C51.3796 12.2104 51.3268 12.1513 51.2617 12.1084C51.1569 12.0431 51.0353 12.0101 50.9119 12.0136C50.8007 12.0082 50.6902 12.035 50.5936 12.0909C50.5936 12.0487 50.5622 12.0277 50.5027 12.0277H50.3208C50.2718 12.0277 50.2438 12.0277 50.2299 12.1049C50.1354 12.5401 50.0445 12.9754 49.95 13.4106" fill="#008F3B"/>
<path d="M52.1816 13.5615C52.2981 13.5616 52.4135 13.5383 52.521 13.4931C52.6285 13.4479 52.726 13.3817 52.8077 13.2983C52.8846 13.2211 52.9231 13.1684 52.9231 13.1333C52.9231 13.0982 52.9231 13.0807 52.8636 13.0631C52.8042 13.0456 52.7762 13.0175 52.7307 12.9964C52.6853 12.9754 52.6923 12.9754 52.6783 12.9754C52.6617 12.976 52.6456 12.9805 52.631 12.9884C52.6165 12.9963 52.6039 13.0075 52.5943 13.021C52.552 13.073 52.4986 13.1148 52.4381 13.1433C52.3775 13.1719 52.3114 13.1864 52.2445 13.186C52.1668 13.1887 52.0908 13.1624 52.0312 13.1123C51.9996 13.0828 51.9749 13.0468 51.9586 13.0068C51.9423 12.9668 51.9348 12.9238 51.9367 12.8806C51.9389 12.7648 51.9852 12.6543 52.0661 12.5717C52.1104 12.5223 52.1643 12.4825 52.2244 12.4548C52.2846 12.427 52.3497 12.4118 52.4159 12.4102C52.4618 12.4081 52.5077 12.4151 52.5509 12.4307C52.5941 12.4464 52.6338 12.4704 52.6678 12.5015C52.6773 12.5139 52.6895 12.5241 52.7034 12.5314C52.7173 12.5387 52.7326 12.5429 52.7482 12.5436C52.7706 12.5449 52.7927 12.5387 52.8112 12.5261L52.9686 12.4208C53.0071 12.3962 53.021 12.3787 53.021 12.34C53.021 12.3014 53.021 12.2909 52.9686 12.2453C52.9065 12.1752 52.8298 12.1197 52.744 12.0827C52.6582 12.0457 52.5653 12.0281 52.4719 12.0312C52.2275 12.0324 51.9935 12.1309 51.8213 12.3049C51.7314 12.3862 51.6592 12.4852 51.6093 12.5957C51.5593 12.7062 51.5327 12.8259 51.531 12.9473C51.5265 13.0294 51.5405 13.1115 51.572 13.1875C51.6035 13.2634 51.6516 13.3313 51.7129 13.386C51.7715 13.4456 51.842 13.492 51.9197 13.5222C51.9975 13.5525 52.0808 13.5659 52.1641 13.5615" fill="#008F3B"/>
<path d="M53.7732 13.5615C53.8938 13.561 54.0131 13.5358 54.1238 13.4876C54.2344 13.4393 54.3341 13.3689 54.4168 13.2807C54.508 13.2012 54.5814 13.1031 54.6321 12.993C54.6827 12.8828 54.7095 12.7632 54.7106 12.6419C54.7136 12.5602 54.6992 12.4789 54.6685 12.4032C54.6377 12.3276 54.5912 12.2594 54.5322 12.2031C54.4733 12.1461 54.4037 12.1015 54.3274 12.072C54.2511 12.0425 54.1697 12.0286 54.088 12.0311C53.8413 12.0317 53.6049 12.1301 53.4304 12.3049C53.3405 12.3861 53.2683 12.4851 53.2184 12.5956C53.1684 12.7062 53.1417 12.8259 53.14 12.9472C53.1373 13.0289 53.1517 13.1101 53.1825 13.1858C53.2132 13.2614 53.2596 13.3296 53.3184 13.386C53.3777 13.4456 53.4488 13.4921 53.5272 13.5223C53.6055 13.5525 53.6893 13.5659 53.7732 13.5615ZM53.6682 12.5717C53.7121 12.5218 53.7659 12.4816 53.8261 12.4538C53.8863 12.426 53.9517 12.4112 54.018 12.4102C54.0941 12.4074 54.1687 12.4323 54.2279 12.4804C54.2603 12.5078 54.286 12.5423 54.3029 12.5813C54.3199 12.6202 54.3277 12.6626 54.3258 12.705C54.3237 12.8253 54.2748 12.94 54.1894 13.0245C54.1457 13.0745 54.0919 13.1148 54.0317 13.1426C53.9714 13.1704 53.9059 13.1852 53.8396 13.1859C53.7641 13.1879 53.6905 13.1616 53.6332 13.1122C53.6017 13.0828 53.5769 13.0468 53.5606 13.0068C53.5443 12.9668 53.5369 12.9237 53.5388 12.8805C53.5397 12.7652 53.5848 12.6546 53.6647 12.5717" fill="#008F3B"/>
<path d="M50.2577 4.25993H53.8395C53.9169 4.25898 53.9935 4.2757 54.0635 4.30882C54.1335 4.34195 54.1951 4.39061 54.2436 4.45113C54.2921 4.51165 54.3263 4.58245 54.3436 4.65817C54.3608 4.73389 54.3607 4.81256 54.3432 4.88822C54.0307 6.37179 53.7182 7.85419 53.4057 9.33542C53.3795 9.45147 53.3146 9.55506 53.2217 9.62908C53.1289 9.70311 53.0136 9.74314 52.8951 9.74259H49.0754C49.086 9.70452 49.0941 9.66584 49.0999 9.62676C49.1559 9.37052 49.2118 9.11078 49.2643 8.85104C49.6104 9.12113 50.0361 9.26807 50.4745 9.26873C50.8335 9.26788 51.1885 9.19439 51.5185 9.05266C51.8484 8.91093 52.1465 8.70388 52.3949 8.44388C52.6011 8.24221 52.7789 8.01309 52.923 7.76293C52.9365 7.73948 52.9436 7.71288 52.9437 7.6858C52.9437 7.65872 52.9366 7.63212 52.9231 7.60865C52.9097 7.58518 52.8903 7.56568 52.8669 7.5521C52.8436 7.53852 52.8171 7.53134 52.7901 7.53127H52.1255C52.101 7.53099 52.0769 7.53658 52.055 7.54757C52.033 7.55855 52.0141 7.57463 51.9996 7.59445C51.9542 7.65895 51.9026 7.71889 51.8457 7.77346C51.7013 7.94017 51.5229 8.07377 51.3225 8.16522C51.1221 8.25666 50.9045 8.30381 50.6844 8.30348C50.4297 8.31067 50.181 8.22459 49.9848 8.06129C49.8571 7.94728 49.7608 7.80223 49.705 7.64008C49.6947 7.6083 49.6745 7.58065 49.6475 7.56109C49.6204 7.54154 49.5879 7.5311 49.5546 7.53127H48.7256C48.6907 7.53147 48.657 7.54384 48.6302 7.56625C48.6034 7.58866 48.5852 7.61972 48.5787 7.65412C48.4388 8.31401 48.3001 8.97155 48.1625 9.62676C48.1625 9.66888 48.1625 9.70749 48.1345 9.74259H47.9666C47.8899 9.74288 47.814 9.72581 47.7448 9.69266C47.6755 9.6595 47.6146 9.61111 47.5665 9.55108C47.5185 9.49105 47.4845 9.42092 47.4672 9.34591C47.4498 9.2709 47.4496 9.19293 47.4664 9.1178C47.7777 7.63306 48.089 6.15534 48.4038 4.6706C48.4291 4.55508 48.4927 4.45158 48.5842 4.37699C48.6757 4.3024 48.7896 4.26114 48.9075 4.25993H49.2958C49.2958 4.29854 49.2713 4.34417 49.2643 4.38278C49.1139 5.10935 48.96 5.82891 48.8061 6.55197C48.8015 6.57461 48.8019 6.59798 48.8072 6.62045C48.8126 6.64292 48.8228 6.66393 48.8372 6.682C48.8515 6.70007 48.8696 6.71477 48.8902 6.72505C48.9108 6.73534 48.9335 6.74096 48.9565 6.74151H49.6561C49.6853 6.74163 49.7138 6.73301 49.7381 6.71676C49.7624 6.7005 49.7813 6.67735 49.7925 6.65025C49.8682 6.4946 49.9686 6.35235 50.0898 6.22905C50.231 6.06396 50.4058 5.9312 50.6026 5.83976C50.7993 5.74833 51.0133 5.70034 51.2301 5.69904C51.4949 5.68829 51.7547 5.77435 51.9611 5.94123C52.057 6.02291 52.1355 6.12311 52.192 6.23587C52.2485 6.34864 52.2818 6.47166 52.2899 6.5976C52.2934 6.63642 52.311 6.67258 52.3394 6.69915C52.3678 6.72571 52.405 6.7408 52.4438 6.74151H53.1224C53.1627 6.73979 53.2008 6.72297 53.2293 6.69437C53.2578 6.66577 53.2746 6.62748 53.2763 6.58707V6.54846C53.2837 6.30811 53.2412 6.06884 53.1515 5.84587C53.0617 5.6229 52.9268 5.42109 52.7551 5.25326C52.5809 5.08578 52.3752 4.95482 52.15 4.86803C51.9248 4.78125 51.6846 4.74038 51.4435 4.74782C50.9493 4.75759 50.4679 4.90724 50.0548 5.17955C50.1108 4.92332 50.1702 4.66007 50.2262 4.39682C50.2262 4.35821 50.2437 4.31258 50.2542 4.27397" fill="#008F3B"/>
<path d="M30.7166 13.7129C30.7924 13.7129 30.9543 13.7475 31.0611 13.7613L31.099 13.5436C30.9784 13.5229 30.8234 13.4987 30.7201 13.4918C30.162 13.4676 30.0311 13.7026 30.0311 14.183C30.0311 14.6633 30.162 14.8742 30.7201 14.8742C30.8499 14.8683 30.979 14.851 31.1059 14.8223L31.0611 14.608C30.9477 14.6323 30.8325 14.6474 30.7166 14.653C30.4652 14.653 30.4169 14.5597 30.4169 14.1933C30.4169 13.827 30.4652 13.7026 30.7166 13.7129ZM27.1239 14.2763C27.129 14.1919 27.1084 14.1079 27.0647 14.0357C27.021 13.9634 26.9563 13.9063 26.8793 13.8719C26.9401 13.8273 26.988 13.7674 27.0183 13.6982C27.0485 13.629 27.06 13.553 27.0515 13.4779C27.0515 13.16 26.8104 12.9906 26.404 12.9906H25.6634V14.8292H26.4556C26.8276 14.8292 27.1239 14.6944 27.1239 14.2763ZM26.0319 13.2395H26.404C26.6175 13.2395 26.683 13.2879 26.683 13.471C26.683 13.6542 26.6175 13.7544 26.4384 13.7544H26.0319V13.2395ZM26.0319 14.0171H26.4384C26.5659 14.0171 26.7484 14.0171 26.7484 14.2694C26.7484 14.5216 26.6554 14.5666 26.4556 14.5666H26.0319V14.0171ZM27.7164 14.8396C27.9464 14.855 28.1775 14.8445 28.4053 14.8085V13.9341C28.4053 13.668 28.2365 13.4918 27.8679 13.4918C27.6903 13.4991 27.5139 13.5234 27.3409 13.5643L27.3788 13.7855C27.5397 13.75 27.7033 13.728 27.8679 13.7199C27.9885 13.7199 28.0367 13.7786 28.0367 13.9203V13.9687C28.0367 13.9687 27.8472 13.9687 27.6922 13.9687C27.3478 14.0067 27.2066 14.1657 27.2066 14.3938C27.2066 14.6219 27.4098 14.8119 27.7164 14.8465V14.8396ZM27.799 14.2071C27.8816 14.2022 27.9644 14.2022 28.047 14.2071V14.6391C27.956 14.6564 27.8625 14.6564 27.7715 14.6391C27.7469 14.6375 27.723 14.6308 27.7012 14.6194C27.6794 14.6081 27.6601 14.5924 27.6446 14.5733C27.6291 14.5541 27.6177 14.532 27.6111 14.5083C27.6044 14.4845 27.6028 14.4597 27.6061 14.4352C27.601 14.4071 27.6022 14.3782 27.6096 14.3505C27.617 14.3229 27.6304 14.2973 27.6488 14.2754C27.6673 14.2536 27.6903 14.2362 27.7163 14.2244C27.7423 14.2126 27.7705 14.2067 27.799 14.2071ZM32.4837 14.1519C32.4959 14.0617 32.487 13.9699 32.4577 13.8838C32.4285 13.7977 32.3798 13.7195 32.3153 13.6555C32.2509 13.5915 32.1725 13.5434 32.0863 13.515C32.0002 13.4866 31.9086 13.4786 31.8189 13.4918C31.3608 13.4918 31.13 13.6818 31.13 14.1484C31.13 14.615 31.285 14.8569 31.8189 14.8569C32.3528 14.8569 32.4837 14.608 32.4837 14.1519ZM31.5158 14.1519C31.5158 13.8063 31.5984 13.7164 31.8189 13.7164C32.0394 13.7164 32.1048 13.8166 32.1048 14.1553C32.1048 14.494 32.0635 14.6391 31.8189 14.6391C31.5743 14.6391 31.5089 14.5286 31.5089 14.1484L31.5158 14.1519ZM33.1175 14.1519C33.1175 14.608 33.245 14.8638 33.8719 14.8638C34.0331 14.862 34.194 14.8517 34.3541 14.8327V12.9906H33.9856V13.5159C33.9007 13.5098 33.8155 13.5098 33.7307 13.5159C33.2519 13.4918 33.1106 13.7406 33.1106 14.1449L33.1175 14.1519ZM33.9856 13.7406V14.6322C33.9283 14.6382 33.8706 14.6382 33.8133 14.6322C33.5378 14.6322 33.5033 14.4802 33.5033 14.1519C33.5033 13.8235 33.5481 13.744 33.7307 13.7164C33.8137 13.7064 33.8978 13.7122 33.9787 13.7337L33.9856 13.7406ZM35.1671 14.8638C35.3581 14.8623 35.5485 14.8415 35.7354 14.8016L35.6906 14.5804C35.5179 14.6143 35.3429 14.6351 35.1671 14.6426C34.9535 14.6426 34.9053 14.5355 34.8915 14.297H35.7836V14.1484C35.7956 14.0605 35.7868 13.9711 35.758 13.8873C35.7293 13.8034 35.6813 13.7276 35.618 13.6657C35.5547 13.6039 35.4778 13.5578 35.3935 13.5312C35.3092 13.5046 35.2198 13.4982 35.1326 13.5125C34.7399 13.5125 34.5057 13.6922 34.5057 14.2037C34.4988 14.5527 34.609 14.8569 35.1602 14.8569L35.1671 14.8638ZM35.1464 13.7199C35.329 13.7199 35.4013 13.7993 35.4082 14.0655H34.8949C34.8949 13.7993 34.9707 13.7129 35.1395 13.7129L35.1464 13.7199ZM29.2492 13.4987C29.0319 13.5021 28.8171 13.5454 28.6154 13.6265V14.8361H28.9805V13.751C29.0683 13.7279 29.1585 13.7151 29.2492 13.7129C29.4456 13.7129 29.5179 13.8132 29.5179 14.1449V14.8361H29.8899V14.1449C29.883 13.7199 29.728 13.4918 29.2423 13.4918L29.2492 13.4987ZM33.9132 9.09228L33.1726 8.33196L30.7235 10.7892L29.0184 9.06117L30.7235 7.33318L31.4503 8.10386L32.1909 7.36083L30.7235 5.88857L27.5338 9.08537L30.7235 12.2856L33.9132 9.09228ZM30.7269 5.65702L32.4493 7.38502L30.7269 9.09228L29.9932 8.33196L29.2527 9.07154L30.7201 10.5438L33.9063 7.35046L30.7201 4.15021L27.5303 7.35046L28.2709 8.0935L30.7269 5.65702ZM28.7773 17.2173C28.5258 17.2173 28.4776 17.1275 28.4776 16.7611C28.4776 16.3948 28.5258 16.2842 28.7773 16.2946C28.8496 16.2946 29.0115 16.3326 29.1218 16.3429L29.1528 16.1287C29.0288 16.1028 28.9034 16.0843 28.7773 16.0734C28.2193 16.0492 28.0884 16.2842 28.0884 16.7646C28.0884 17.245 28.2262 17.4558 28.7773 17.4558C28.9058 17.4524 29.0338 17.4373 29.1596 17.4109L29.1218 17.1931C29.0053 17.2082 28.8878 17.214 28.7704 17.2104L28.7773 17.2173ZM27.6371 17.2173C27.3926 17.2173 27.3374 17.1275 27.3374 16.7611C27.3374 16.3948 27.3926 16.2842 27.6371 16.2946C27.7164 16.2946 27.8748 16.3326 27.9816 16.3429L28.0195 16.1287C27.8944 16.1028 27.7679 16.0843 27.6406 16.0734C27.086 16.0492 26.9516 16.2842 26.9516 16.7646C26.9516 17.245 27.0894 17.4558 27.6406 17.4558C27.7703 17.4524 27.8994 17.4374 28.0264 17.4109L27.9816 17.1931C27.8652 17.209 27.7476 17.2148 27.6302 17.2104L27.6371 17.2173ZM25.9389 15.5481C25.3396 15.5481 25.0674 15.8004 25.0674 16.4535C25.0674 17.1067 25.2535 17.4316 25.9389 17.4316C26.6244 17.4316 26.7966 17.086 26.7966 16.457C26.7966 15.828 26.497 15.5481 25.9389 15.5481ZM25.9389 17.1689C25.5256 17.1689 25.4429 16.9961 25.4429 16.4535C25.4429 15.911 25.5772 15.8004 25.9389 15.8004C26.2317 15.8004 26.4177 15.9662 26.4177 16.457C26.4177 16.9477 26.3557 17.1689 25.9389 17.1689ZM29.325 17.4074H29.6936V16.0941H29.325V17.4074ZM29.325 15.8937H29.6936V15.6172H29.325V15.8937ZM30.7407 16.0838C30.6564 16.0708 30.5712 16.0639 30.4858 16.063C30.0174 16.063 29.8761 16.3188 29.8761 16.7231C29.8761 17.1275 30.0001 17.4143 30.6202 17.4143C30.7825 17.4111 30.9447 17.3996 31.1059 17.3797V15.5688H30.7614L30.7407 16.0838ZM30.7407 17.2H30.6339H30.5719C30.2964 17.2 30.2585 17.0376 30.2585 16.7162C30.2585 16.3948 30.2998 16.3015 30.4858 16.2773C30.5713 16.2673 30.6579 16.2744 30.7407 16.298V17.2ZM33.369 16.063C33.1522 16.0672 32.9382 16.1129 32.7386 16.1978V17.4039H33.1037V16.3291C33.1902 16.3048 33.2792 16.2909 33.369 16.2877C33.5688 16.2877 33.6411 16.3982 33.6411 16.7231V17.4143H34.0097V16.7231C34.02 16.298 33.8616 16.063 33.3793 16.063H33.369ZM34.764 17.1931C34.702 17.1931 34.6917 17.1275 34.6917 16.9754V16.3222H34.9811V16.0976H34.6917V15.7865H34.3162V16.0976H34.0889V16.3222H34.3162V16.9719C34.3162 17.2795 34.3714 17.4281 34.6951 17.4281C34.8109 17.43 34.9265 17.4184 35.0396 17.3936L34.9948 17.1758C34.9224 17.1912 34.8483 17.197 34.7744 17.1931H34.764ZM31.9153 16.0665C31.5192 16.0665 31.2884 16.2496 31.2884 16.7577C31.2884 17.1482 31.3986 17.4489 31.9498 17.4489C32.1399 17.4482 32.3294 17.4262 32.5147 17.3832L32.4837 17.1447C32.3122 17.1794 32.1383 17.2013 31.9636 17.2104C31.7466 17.2104 31.6949 17.0998 31.6845 16.8648H32.5767V16.7127C32.5802 16.2807 32.3528 16.0665 31.9257 16.0665H31.9153ZM31.688 16.6263C31.688 16.3637 31.7741 16.2807 31.9395 16.2807C32.1048 16.2807 32.1909 16.3602 32.2012 16.6263H31.688ZM36.3623 16.6989C36.3747 16.6111 36.3664 16.5217 36.3381 16.4377C36.3098 16.3537 36.2622 16.2776 36.1992 16.2154C36.1363 16.1532 36.0596 16.1067 35.9755 16.0797C35.8913 16.0526 35.802 16.0457 35.7148 16.0596C35.3221 16.0596 35.0844 16.2427 35.0844 16.7508C35.0844 17.1447 35.1981 17.442 35.7492 17.442C35.9394 17.4425 36.1291 17.4205 36.3141 17.3763L36.2728 17.1586C36.0998 17.1908 35.9249 17.2116 35.7492 17.2208C35.5356 17.2208 35.484 17.1102 35.4736 16.8752H36.3623V16.6989ZM35.4736 16.6298C35.4736 16.3637 35.5597 16.2842 35.7285 16.2842C35.8973 16.2842 35.98 16.3671 35.9903 16.6298H35.4736Z" fill="#1A7BBD"/>
<defs>
<clipPath id="clip0_2992_19189">
<rect width="50.8853" height="14.7993" fill="white" transform="translate(86.3421 3.07892)"/>
</clipPath>
</defs>
</svg>
