<svg width="38" height="22" viewBox="0 0 38 22" fill="none" xmlns="http://www.w3.org/2000/svg">
<g clip-path="url(#clip0_2992_19220)">
<path d="M37.7995 10.9885C37.7995 13.8764 36.6522 16.646 34.6102 18.688C32.5681 20.7301 29.7985 21.8773 26.9106 21.8773C24.0227 21.8773 21.2531 20.7301 19.211 18.688C17.1689 16.646 16.0217 13.8764 16.0217 10.9885C16.0217 8.10056 17.1689 5.33094 19.211 3.28888C21.2531 1.24682 24.0227 0.0996094 26.9106 0.0996094C29.7985 0.0996094 32.5681 1.24682 34.6102 3.28888C36.6522 5.33094 37.7995 8.10056 37.7995 10.9885Z" fill="#FFE701"/>
<path d="M36.6465 8.69592C36.3416 8.69592 36.095 8.94254 36.095 9.24743C36.095 9.55232 36.3416 9.80029 36.6465 9.80029C36.9514 9.80029 37.1993 9.55232 37.1993 9.24743C37.1993 8.94254 36.9514 8.69592 36.6465 8.69592ZM36.6492 8.80595C36.8929 8.80595 37.0907 9.00376 37.0907 9.24743C37.0907 9.4911 36.8929 9.68755 36.6492 9.68755C36.4055 9.68755 36.2091 9.4911 36.2091 9.24743C36.2091 9.00376 36.4055 8.80595 36.6492 8.80595Z" fill="black"/>
<path fill-rule="evenodd" clip-rule="evenodd" d="M19.8935 8.71493C19.8812 8.7151 19.8683 8.71658 19.8555 8.71764C19.8536 8.7176 19.8518 8.71767 19.85 8.71764C19.8446 8.71755 19.8392 8.71768 19.8337 8.71764C19.8052 8.71747 19.777 8.71767 19.7481 8.719C19.6578 8.72319 19.5733 8.73502 19.4955 8.75296C19.4936 8.75339 19.4919 8.75389 19.49 8.75431C19.2865 8.78878 19.1096 8.85141 18.9725 8.9309C18.8411 8.99162 18.7269 9.06237 18.6329 9.13874C18.6316 9.13978 18.6301 9.14041 18.6288 9.14145C18.2489 9.4214 17.9614 9.83628 17.8233 10.3232C17.8225 10.326 17.8214 10.3287 17.8206 10.3314C17.7505 10.562 17.7119 10.8096 17.7119 11.069C17.7119 11.7795 17.999 12.41 18.4427 12.8064C18.5023 12.8673 18.5727 12.9277 18.6533 12.9843C18.7501 13.0523 18.849 13.1054 18.9413 13.1433C18.9446 13.1446 18.9475 13.146 18.9508 13.1473C19.1783 13.2577 19.517 13.328 19.8948 13.328C19.9569 13.328 20.0174 13.3251 20.0769 13.3212C20.0773 13.3212 20.0778 13.3212 20.0782 13.3212C20.1332 13.3244 20.1931 13.3239 20.2548 13.3171C20.2739 13.3151 20.2922 13.3119 20.3105 13.309C21.1853 13.2529 21.8959 12.6065 22.0384 11.7699C22.0386 11.7695 22.0383 11.769 22.0384 11.7686C22.0428 11.7547 22.0465 11.7396 22.0506 11.7251H20.8661C20.7762 11.9967 20.5154 12.2059 20.1896 12.2617C20.1886 12.2618 20.1879 12.2628 20.1869 12.263C20.1835 12.2636 20.1795 12.2638 20.176 12.2644C20.1185 12.2758 20.0435 12.2834 19.9601 12.2834C19.8401 12.2834 19.7352 12.2694 19.6789 12.2481C19.4219 12.1794 19.2189 11.9832 19.1423 11.7346C19.141 11.7309 19.1395 11.7264 19.1382 11.7224C19.1353 11.7123 19.1326 11.7027 19.1301 11.6925C19.1257 11.6754 19.1216 11.657 19.1179 11.6368C19.1059 11.5724 19.0977 11.4932 19.0948 11.4059V11.4018V11.3991H19.1111H19.1491H19.1749H19.1953H22.1104C22.1165 11.3335 22.1199 11.2655 22.1199 11.1953C22.1199 11.1287 22.1159 11.0646 22.1104 11.0024C22.1102 11.0007 22.1106 10.9988 22.1104 10.997C22.1049 10.8458 22.0879 10.7081 22.0615 10.5949C22.0009 10.1703 21.8632 9.81034 21.6784 9.57885C21.6774 9.57758 21.6767 9.57602 21.6757 9.57478C21.3139 9.05771 20.7012 8.71763 20.0062 8.71763C19.9917 8.71763 19.9773 8.7185 19.9628 8.71899C19.9411 8.71581 19.9181 8.71453 19.8935 8.71491L19.8935 8.71493ZM19.9492 9.77991C20.0585 9.77991 20.1533 9.79475 20.2046 9.81658C20.4864 9.90109 20.6985 10.1725 20.7221 10.5012H19.9641H19.9587H19.0948C19.1232 10.1521 19.3911 9.86859 19.74 9.80164C19.7409 9.80147 19.7418 9.80049 19.7427 9.80028C19.7458 9.79967 19.7491 9.7995 19.7522 9.79893C19.8046 9.78726 19.8732 9.77991 19.9492 9.77991L19.9492 9.77991Z" fill="black"/>
<path d="M21.7341 8.81678L22.469 9.87089V9.86681L23.1713 10.9087L22.3277 12.1611V12.1625L22.0384 12.5917L21.6105 13.2275H23.1563L23.9741 12.0036L24.7701 13.1949L24.7837 13.2152H25.6001H25.8025H26.3526L25.6001 12.1299V12.1326L24.7538 10.8761L25.4697 9.86002V9.87088L25.7862 9.41039L26.195 8.81677H24.6383L23.9836 9.80568L23.3139 8.81677H21.7341V8.81678ZM23.2935 8.82357L23.227 8.87383L23.2256 8.87112L23.2935 8.82358L23.2935 8.82357Z" fill="black"/>
<path d="M26.449 8.81677L26.6976 13.2139H26.7098H26.7329H27.7707H27.9717H27.984L28.2325 8.81677H27.9717H27.7707H26.7329H26.7098H26.449Z" fill="black"/>
<path d="M28.1693 14.2591C28.1693 14.4794 28.0817 14.6907 27.9259 14.8465C27.7701 15.0023 27.5588 15.0899 27.3385 15.0899C27.1181 15.0899 26.9068 15.0023 26.751 14.8465C26.5952 14.6907 26.5077 14.4794 26.5077 14.2591C26.5077 14.0387 26.5952 13.8274 26.751 13.6716C26.9068 13.5158 27.1181 13.4283 27.3385 13.4283C27.5588 13.4283 27.7701 13.5158 27.9259 13.6716C28.0817 13.8274 28.1693 14.0387 28.1693 14.2591Z" fill="#EC1B23"/>
<path d="M29.1916 7.56299V8.81271H28.4921V9.79618H29.1916V11.8786V11.8827V12.2114V12.2182V12.2399V12.2413C29.1879 12.2699 29.1862 12.3049 29.1876 12.3432C29.1895 12.3989 29.1979 12.4464 29.2079 12.4736C29.2082 12.4743 29.2091 12.4743 29.2093 12.4749C29.2538 12.7623 29.4661 13.0056 29.7622 13.1392C29.7771 13.1459 29.7917 13.1534 29.807 13.1595C29.8196 13.1646 29.8322 13.1698 29.845 13.1745C29.8505 13.1764 29.8557 13.1781 29.8613 13.1799C29.9602 13.2142 30.0665 13.2366 30.1778 13.2451C30.1787 13.2453 30.1796 13.245 30.1805 13.2451C30.2939 13.2592 30.4201 13.2669 30.5527 13.2669C30.6544 13.2669 30.7512 13.263 30.8421 13.2546C30.9078 13.2548 30.9773 13.2521 31.0499 13.2465C31.1808 13.2364 31.2978 13.218 31.3909 13.1949V12.9354C31.3898 12.9346 31.3893 12.9335 31.3882 12.9327V12.6447V12.0796H31.342C31.3302 12.0871 31.3176 12.0928 31.3039 12.0973V12.1C31.1422 12.1538 30.9184 12.1621 30.6696 12.1122C30.6687 12.1121 30.6677 12.1124 30.6669 12.1122C30.6077 12.1122 30.5595 12.0624 30.5595 12.0008C30.5595 11.9917 30.5602 11.9835 30.5623 11.975V11.8827V11.505V9.79618H31.3936V8.81271H30.5623V7.56299H29.1916L29.1916 7.56299Z" fill="black"/>
<path d="M33.8306 8.68909C33.1933 8.68909 32.6217 8.9168 32.2304 9.27727C32.2144 9.29204 32.1983 9.30689 32.1829 9.3221C32.1425 9.36123 32.1033 9.40219 32.066 9.44707C32.0648 9.4485 32.0631 9.4497 32.062 9.45115C32.0568 9.45738 32.0521 9.46387 32.047 9.47016C32.0361 9.48374 32.025 9.49823 32.0144 9.51227C32.0111 9.51669 32.0082 9.52142 32.0049 9.52586C31.9918 9.54353 31.9795 9.56045 31.9669 9.57883C31.9623 9.5855 31.9578 9.59249 31.9533 9.59921C31.9371 9.62342 31.9211 9.64857 31.9057 9.67392C31.6888 10.0331 31.5566 10.5038 31.5566 11.0201C31.5566 11.5363 31.6889 12.0071 31.9057 12.3663C31.921 12.3915 31.9372 12.4169 31.9533 12.441C31.9701 12.4662 31.9872 12.4903 32.0049 12.5143C32.0214 12.5366 32.038 12.5584 32.0552 12.5795C32.0574 12.5823 32.0597 12.5849 32.062 12.5877C32.0634 12.5894 32.0646 12.5914 32.066 12.5931C32.1178 12.6554 32.1728 12.7132 32.2304 12.7643C32.2321 12.7658 32.2341 12.7668 32.2358 12.7683C32.6269 13.1258 33.1964 13.3511 33.8306 13.3511C34.4648 13.3511 35.0342 13.1258 35.4253 12.7683C35.427 12.7668 35.4291 12.7658 35.4308 12.7643C35.4884 12.7132 35.5434 12.6554 35.5951 12.5931C35.5966 12.5914 35.5978 12.5894 35.5992 12.5877C35.6 12.5867 35.6011 12.5859 35.6019 12.585C35.6034 12.5832 35.6045 12.5813 35.606 12.5795C35.6232 12.5584 35.6398 12.5366 35.6563 12.5143C35.674 12.4903 35.691 12.4662 35.7079 12.441C35.7239 12.4169 35.7402 12.3915 35.7554 12.3663C35.9723 12.0071 36.1045 11.5363 36.1045 11.0201C36.1045 10.5038 35.9724 10.0331 35.7554 9.67393C35.7401 9.64857 35.724 9.62342 35.7079 9.59922C35.6786 9.55528 35.6479 9.51172 35.6141 9.47017C35.6102 9.46525 35.6059 9.46008 35.6019 9.45523C35.5997 9.45251 35.5974 9.44977 35.5951 9.44708C35.5578 9.4022 35.5187 9.36124 35.4783 9.32211C35.4711 9.31495 35.464 9.30743 35.4566 9.30037C35.4482 9.29254 35.4393 9.28485 35.4308 9.27728C35.0395 8.91681 34.4679 8.6891 33.8306 8.6891L33.8306 8.68909ZM33.8251 9.77716C34.1092 9.77716 34.361 9.91548 34.522 10.129C34.5333 10.1426 34.5439 10.1579 34.5546 10.1738C34.57 10.1966 34.5855 10.22 34.5994 10.2472C34.6067 10.2609 34.6118 10.2751 34.6184 10.2893C34.622 10.2971 34.6259 10.3043 34.6293 10.3124C34.6393 10.3354 34.6484 10.359 34.6565 10.383C34.6637 10.4042 34.6712 10.4263 34.6769 10.4482C34.6772 10.4496 34.6779 10.4509 34.6782 10.4523C34.7254 10.6137 34.7529 10.8091 34.7529 11.0201C34.7529 11.2425 34.722 11.4475 34.6701 11.6137C34.6687 11.6186 34.6675 11.6238 34.666 11.6286C34.6648 11.6323 34.6631 11.6359 34.6619 11.6395C34.6542 11.6638 34.6458 11.6882 34.6361 11.7115C34.6353 11.7134 34.6341 11.7151 34.6334 11.7169C34.6319 11.7206 34.6309 11.7242 34.6293 11.7278C34.5951 11.8086 34.5554 11.8753 34.5111 11.9248C34.5089 11.9275 34.5066 11.9302 34.5043 11.9329C34.5013 11.9361 34.4979 11.9394 34.4948 11.9424C34.3333 12.1363 34.0937 12.2603 33.8251 12.2603C33.54 12.2603 33.2878 12.1206 33.1269 11.9058C33.1168 11.8932 33.1067 11.8794 33.097 11.865C33.0967 11.8645 33.096 11.8641 33.0957 11.8636C33.083 11.8446 33.0707 11.8246 33.059 11.8025C33.0573 11.7993 33.0553 11.7962 33.0536 11.793C33.0529 11.7916 33.0516 11.7903 33.0509 11.7889C33.0119 11.7157 32.9832 11.6363 32.9653 11.5526C32.9643 11.549 32.9635 11.5453 32.9626 11.5417C32.9231 11.3896 32.9001 11.2116 32.9001 11.0201C32.9001 10.8286 32.9231 10.6505 32.9626 10.4985C32.9628 10.4976 32.9624 10.4966 32.9626 10.4957C32.9848 10.385 33.0281 10.2819 33.0862 10.1901C33.0972 10.1728 33.1094 10.1564 33.1215 10.1398C33.2821 9.92049 33.5366 9.77716 33.8252 9.77716L33.8251 9.77716Z" fill="black"/>
<path d="M20.1448 7.56299L19.4438 8.45273H20.3146L21.4787 7.56299H20.1448Z" fill="black"/>
<path d="M36.5052 8.95074V8.9521H36.4224V9.53893H36.5555V9.28355H36.6316L36.7565 9.53893H36.9032L36.7755 9.27811C36.7854 9.27528 36.7953 9.27106 36.8054 9.26453C36.8285 9.24959 36.846 9.22699 36.857 9.2034C36.8572 9.2028 36.8581 9.20262 36.8584 9.20205C36.8768 9.17655 36.8852 9.1358 36.8801 9.09202C36.874 9.03948 36.8495 8.9976 36.819 8.98199C36.8135 8.97738 36.8077 8.97411 36.8014 8.97112C36.7995 8.96997 36.7978 8.96945 36.7959 8.96841C36.7938 8.96754 36.7913 8.96636 36.7891 8.9657C36.7736 8.95787 36.7585 8.95337 36.7457 8.95211C36.7456 8.95211 36.7457 8.95076 36.7457 8.95076H36.7416H36.5052L36.5052 8.95074ZM36.5555 9.073H36.7103C36.7107 9.07352 36.7113 9.07387 36.7117 9.07436C36.7294 9.07916 36.7429 9.10332 36.7429 9.13277C36.7429 9.16155 36.7302 9.18558 36.7131 9.19118H36.7008H36.5555V9.073V9.073Z" fill="black"/>
<path d="M10.4526 9.63049C9.99481 9.63049 9.58744 9.81752 9.32239 10.1086V9.74324H8.84424V14.6171H9.32239V12.9355C9.58768 13.2265 9.99494 13.4123 10.4526 13.4123C11.0099 13.4123 11.4928 13.1356 11.7349 12.7303C11.7358 12.7289 11.7381 12.7277 11.739 12.7263C11.7854 12.6558 11.8257 12.5759 11.8572 12.4899C11.8596 12.4834 11.8615 12.4762 11.8639 12.4695C11.8746 12.4386 11.8839 12.4069 11.8925 12.3744C11.9556 12.1576 11.9957 11.8695 11.9957 11.5513C11.9957 11.2765 11.9654 11.0241 11.9169 10.8204C11.9029 10.7378 11.8828 10.6593 11.8558 10.5854C11.8556 10.585 11.856 10.5845 11.8558 10.5841C11.8546 10.5799 11.853 10.576 11.8517 10.5719C11.6861 10.0298 11.1222 9.63049 10.4526 9.63049H10.4526ZM10.424 10.0611C10.9297 10.0611 11.353 10.3957 11.4646 10.8463C11.5327 11.0427 11.5746 11.2863 11.5746 11.5513C11.5746 11.8582 11.5193 12.1367 11.4306 12.3459C11.4186 12.3772 11.4035 12.4071 11.3885 12.4369C11.3851 12.4434 11.3825 12.451 11.379 12.4573C11.2023 12.7892 10.8405 13.017 10.424 13.017C10.13 13.017 9.86354 12.9031 9.67014 12.7195C9.66884 12.7184 9.66736 12.7178 9.66606 12.7168C9.59644 12.6591 9.53474 12.5765 9.47996 12.4777C9.47067 12.4609 9.46158 12.4439 9.45279 12.4261C9.44141 12.4038 9.42932 12.3797 9.41883 12.3554C9.41734 12.3519 9.41624 12.3481 9.41476 12.3446C9.40698 12.3261 9.40027 12.3071 9.39302 12.2875C9.38261 12.2594 9.37238 12.2304 9.36314 12.2006C9.35996 12.1902 9.35667 12.1799 9.35363 12.1693C9.34997 12.1567 9.3462 12.1441 9.34276 12.1313C9.33889 12.1166 9.33549 12.1015 9.33189 12.0865C9.32848 12.0724 9.32554 12.0587 9.32239 12.0444C9.28822 11.8893 9.26805 11.7186 9.26805 11.539C9.26805 11.0211 9.4262 10.5766 9.65248 10.3763C9.65705 10.3717 9.6614 10.3672 9.66606 10.3627C9.66782 10.3612 9.66973 10.36 9.67149 10.3586C9.8646 10.1751 10.13 10.0611 10.424 10.0611L10.424 10.0611Z" fill="#EC1B23"/>
<path d="M5.69288 9.74324V12.3799C5.69331 12.3797 5.69384 12.3801 5.69422 12.3799C5.6944 12.4837 5.71075 12.5964 5.74691 12.71C5.77883 12.8102 5.82296 12.8994 5.87388 12.9776C5.87406 12.9779 5.87362 12.9786 5.87388 12.9789C5.90116 13.0133 5.9319 13.0433 5.96439 13.0672C6.10733 13.2168 6.32086 13.3263 6.56821 13.3701C6.58266 13.3727 6.59676 13.3762 6.61144 13.3783C6.7191 13.3993 6.83788 13.4109 6.964 13.4109C7.02705 13.4109 7.08859 13.4083 7.14772 13.4027C7.15089 13.4027 7.154 13.4028 7.15717 13.4027C7.586 13.3993 7.95496 13.1347 8.12977 12.7534V13.4109H8.60527V9.74324H8.12977V11.8759C8.12163 12.0203 8.09352 12.1702 8.04602 12.3228C8.00588 12.4215 7.94935 12.5201 7.88392 12.5972C7.8579 12.6279 7.83269 12.6537 7.80827 12.6733C7.80726 12.6744 7.80524 12.6749 7.80422 12.676C7.66502 12.8281 7.48554 12.937 7.28415 12.983C7.27201 12.9862 7.25797 12.9884 7.24498 12.9911C7.24095 12.9919 7.23688 12.9932 7.23282 12.9939C7.17448 13.0051 7.10933 13.0115 7.03965 13.0115C7.00724 13.0115 6.97683 13.01 6.94645 13.0074V13.0088C6.59611 12.9959 6.30494 12.7721 6.2197 12.4709C6.2006 12.4277 6.18514 12.3795 6.17377 12.3282C6.17379 12.3246 6.17394 12.3211 6.17377 12.3174C6.17316 12.3062 6.1708 12.2951 6.16836 12.2848V9.74323H5.69287L5.69288 9.74324Z" fill="#EC1B23"/>
<path d="M5.52651 9.73779C4.97539 9.73779 4.50385 9.99479 4.31482 10.3573V9.81373H3.83667V13.4109H4.31482V11.2046C4.31728 11.1937 4.32081 11.1842 4.32297 11.1727C4.33071 11.1313 4.33354 11.0942 4.3352 11.0594C4.34593 11.0313 4.35391 11.0023 4.35965 10.9728C4.36088 10.9718 4.36246 10.9711 4.36372 10.9702C4.45292 10.5379 4.973 10.2017 5.6148 10.1748V9.74046C5.58561 9.73899 5.5562 9.7378 5.52651 9.7378L5.52651 9.73779Z" fill="#EC1B23"/>
<path d="M1.97218 9.65632C1.45125 9.65632 0.996257 9.93284 0.752342 10.3437C0.751342 10.3453 0.750621 10.3474 0.74963 10.3491C0.624521 10.5105 0.521746 10.7618 0.473876 11.0555C0.444106 11.2381 0.43933 11.4121 0.456218 11.5662C0.464877 11.9422 0.558131 12.2742 0.699369 12.4886C0.925826 12.9532 1.41057 13.2751 1.97218 13.2751C2.43741 13.2751 2.84982 13.0539 3.10644 12.7141V13.5658H3.10779C3.10637 13.5959 3.10586 13.6268 3.10644 13.6595C3.1067 13.6731 3.10722 13.6857 3.10779 13.6989C3.10771 13.6998 3.10788 13.7007 3.10779 13.7016C3.06982 14.0222 2.62372 14.2748 2.08085 14.2748C1.66401 14.2748 1.30635 14.1252 1.14492 13.9108C1.1412 13.9065 1.13765 13.9017 1.13405 13.8972C1.0678 13.8141 1.02413 13.6928 1.01995 13.5617H0.58662C0.596731 14.191 1.26176 14.6987 2.08085 14.6987C2.8982 14.6987 3.56357 14.1933 3.57644 13.5658C3.57647 13.5644 3.57642 13.563 3.57644 13.5617V9.8166H3.10644V10.216C2.84982 9.87616 2.43741 9.65631 1.97218 9.65631L1.97218 9.65632ZM2.03059 10.0557C2.48085 10.0557 2.86616 10.3183 3.03444 10.6941C3.03624 10.6976 3.03811 10.7015 3.03987 10.705C3.04165 10.7091 3.04358 10.7131 3.04531 10.7172C3.10599 10.8422 3.15069 11.0073 3.17164 11.1954C3.18872 11.3014 3.1988 11.4162 3.1988 11.5363C3.1988 11.7932 3.15523 12.0266 3.0847 12.1992C3.07734 12.2172 3.06955 12.2342 3.06161 12.2508C3.0356 12.3054 3.00737 12.3528 2.97603 12.3908C2.97568 12.3913 2.97499 12.3915 2.97467 12.3921C2.78391 12.7041 2.4322 12.9137 2.03059 12.9137C1.5928 12.9137 1.21532 12.6659 1.04032 12.3065C0.935066 12.141 0.863733 11.8442 0.863733 11.5051C0.863733 11.2395 0.908602 11.001 0.977838 10.83C1.10656 10.3835 1.52822 10.0557 2.03059 10.0557L2.03059 10.0557Z" fill="#EC1B23"/>
<path d="M13.9301 9.60333C13.0934 9.60333 12.4021 10.2286 12.296 11.0391C12.2651 11.1924 12.2484 11.3622 12.2484 11.5418C12.2484 11.8132 12.2879 12.0626 12.3544 12.2644C12.3617 12.2866 12.3695 12.3087 12.3775 12.3296C12.3788 12.3335 12.3788 12.338 12.3802 12.3418C12.3875 12.3607 12.3955 12.3798 12.4033 12.3975C12.6489 13.0018 13.24 13.4272 13.9301 13.4272C14.5618 13.4272 15.1087 13.0695 15.3849 12.5456C15.3853 12.5449 15.3859 12.5449 15.3863 12.5442C15.5278 12.327 15.6226 11.9591 15.6226 11.5418C15.6226 11.2913 15.5876 11.0583 15.5303 10.8653C15.5302 10.8648 15.5304 10.8644 15.5303 10.8639C15.3553 10.1398 14.7058 9.60334 13.9301 9.60334L13.9301 9.60333ZM13.9274 9.9864C14.4994 9.9864 14.9788 10.4194 15.1078 11.0038C15.1079 11.0043 15.1077 11.0048 15.1078 11.0052C15.1501 11.1609 15.1757 11.3491 15.1757 11.5513C15.1757 11.8881 15.1062 12.1841 15.0019 12.3595C15.0016 12.36 15.0008 12.3603 15.0005 12.3609C14.7968 12.7837 14.3933 13.0727 13.9274 13.0727C13.4185 13.0727 12.9824 12.729 12.8013 12.2413C12.7955 12.227 12.7904 12.2117 12.785 12.1965C12.784 12.1934 12.7833 12.1901 12.7823 12.187C12.7764 12.1701 12.7713 12.1519 12.766 12.134C12.717 11.9712 12.6872 11.7703 12.6872 11.5513C12.6872 11.4063 12.6997 11.2687 12.7225 11.1451C12.8007 10.4909 13.3103 9.98639 13.9274 9.98639L13.9274 9.9864Z" fill="#EC1B23"/>
</g>
<defs>
<clipPath id="clip0_2992_19220">
<rect width="37.4651" height="22" fill="white" transform="translate(0.402588)"/>
</clipPath>
</defs>
</svg>
