<svg width="56" height="56" viewBox="0 0 56 56" fill="none" xmlns="http://www.w3.org/2000/svg">
<path d="M41.125 51.0562C46.4407 51.0562 50.75 46.7469 50.75 41.4312C50.75 36.1154 46.4407 31.8062 41.125 31.8062C35.8093 31.8062 31.5 36.1154 31.5 41.4312C31.5 46.7469 35.8093 51.0562 41.125 51.0562Z" fill="#00F6B4"/>
<path d="M42.5127 38.4431L40.25 40.7059L39.7373 40.1931C39.0539 39.5097 37.9461 39.5097 37.2627 40.1931C36.5794 40.8765 36.5794 41.9842 37.2627 42.6676L39.0127 44.4176C39.3549 44.7597 39.802 44.9304 40.25 44.9304C40.698 44.9304 41.1451 44.7597 41.4873 44.4176L44.9873 40.9176C45.6706 40.2342 45.6706 39.1265 44.9873 38.4431C44.3039 37.7597 43.1961 37.7597 42.5127 38.4431ZM42 30.1V21.3054H43.75C44.716 21.3054 45.5 20.5214 45.5 19.5554C45.5 18.5894 44.716 17.8054 43.75 17.8054V16.0554C43.75 15.3256 43.2967 14.6729 42.6143 14.4165L28.6143 9.16649C28.2179 9.01774 27.7821 9.01774 27.3857 9.16649L13.3858 14.4165C12.7024 14.6729 12.25 15.3256 12.25 16.0554V17.8054C11.284 17.8054 10.5 18.5894 10.5 19.5554C10.5 20.5214 11.284 21.3054 12.25 21.3054H14V44.0554H12.25C11.284 44.0554 10.5 44.8394 10.5 45.8054C10.5 46.7714 11.284 47.5554 12.25 47.5554H31.5551C33.5799 50.7071 37.1087 52.8054 41.125 52.8054C47.397 52.8054 52.5 47.7024 52.5 41.4304C52.5 35.4541 47.8634 30.5497 42 30.1ZM21 44.0554H17.5V21.3054H21V44.0554ZM31.5 35.3964C30.3975 37.1481 29.75 39.2131 29.75 41.4304C29.75 42.3351 29.8672 43.211 30.0676 44.0554H24.5V21.3054H31.5V35.3964ZM15.75 17.8054V17.2681L28 12.6744L40.25 17.2681V17.8054H15.75ZM38.5 21.3054V30.373C37.2391 30.6722 36.0605 31.1789 35 31.8605V21.3054H38.5ZM41.125 49.3054C36.7824 49.3054 33.25 45.773 33.25 41.4304C33.25 37.0877 36.7824 33.5554 41.125 33.5554C45.4676 33.5554 49 37.0877 49 41.4304C49 45.773 45.4676 49.3054 41.125 49.3054Z" fill="#000927"/>
</svg>
