<svg width="56" height="56" viewBox="0 0 56 56" fill="none" xmlns="http://www.w3.org/2000/svg">
<path d="M25.2511 15.6258C21.8343 19.0426 21.8343 24.5831 25.2511 28L37.6254 40.3743C41.0423 43.7911 46.5828 43.7911 49.9996 40.3743C53.4165 36.9574 53.4165 31.4169 49.9996 28L37.6254 15.6258C34.2085 12.2089 28.668 12.2089 25.2511 15.6258Z" fill="#00F6B4"/>
<path d="M40.7369 22.2723L28.3635 9.89803C24.2703 5.80303 17.6072 5.80303 13.5139 9.89803C11.5303 11.8808 10.4383 14.5172 10.4383 17.3224C10.4383 17.6602 10.4558 17.9953 10.4873 18.3278C10.3254 18.4713 10.16 18.6087 10.0052 18.7635C5.91104 22.8577 5.91104 29.519 10.0052 33.6123L22.3794 45.9865C24.426 48.034 27.1149 49.0569 29.8038 49.0569C32.4927 49.0569 35.1815 48.034 37.2282 45.9865C39.5294 43.6853 40.5374 40.572 40.2513 37.5603C40.4149 37.4159 40.5812 37.2777 40.7369 37.121C44.831 33.0278 44.831 26.3664 40.7369 22.2723ZM34.7537 43.512C32.0245 46.2412 27.583 46.2412 24.8539 43.512L12.4797 31.1378C10.062 28.7202 9.79079 24.962 11.6554 22.2373C12.1402 23.1499 12.7623 23.9952 13.513 24.7468L25.8882 37.121C27.9348 39.1677 30.6237 40.1914 33.3125 40.1914C34.464 40.1914 35.612 39.9919 36.7128 39.6165C36.4975 41.0437 35.85 42.4165 34.7537 43.512ZM14.4222 19.8757C15.3715 19.425 16.3988 19.1914 17.4287 19.1914C19.2215 19.1914 21.0144 19.8739 22.3785 21.238L34.7537 33.6123C35.458 34.3167 35.9769 35.1365 36.3182 36.0107C33.7185 37.2453 30.5117 36.7955 28.3627 34.6465L15.9884 22.2723C15.2945 21.5784 14.7695 20.762 14.4222 19.8757ZM39.084 33.6508C38.6063 32.7469 37.9885 31.8982 37.229 31.1378L24.8539 18.7635C21.9305 15.8402 17.6982 15.015 14.0258 16.2689C14.2463 14.7998 14.9192 13.4427 15.9893 12.3725C17.3543 11.0075 19.1463 10.3259 20.9392 10.3259C22.732 10.3259 24.5249 11.0084 25.889 12.3725L38.2633 24.7468C40.6809 27.1653 40.9513 30.926 39.084 33.6508Z" fill="#000927"/>
</svg>
