<svg width="53" height="14" viewBox="0 0 53 14" fill="none" xmlns="http://www.w3.org/2000/svg">
<g clip-path="url(#clip0_2992_19240)">
<path d="M5.33241 7.87875C5.33241 9.54433 4.97189 9.81301 4.11006 9.81301C3.61855 9.79846 3.13053 9.72507 2.65648 9.59441L2.62417 9.58697C2.58341 9.57761 2.54703 9.55468 2.52103 9.52192C2.49503 9.48916 2.48095 9.44853 2.4811 9.4067V6.72134C2.48105 6.69174 2.48812 6.66256 2.50171 6.63627C2.51531 6.60997 2.53502 6.58733 2.5592 6.57026C3.17782 6.13648 3.67858 5.86752 4.26315 5.86752C4.95674 5.86752 5.33269 6.18799 5.33269 7.87846M4.83542 4.52155C4.01577 4.5407 3.22372 4.82143 2.57496 5.32272C2.54912 5.34402 2.51801 5.35792 2.48491 5.36296C2.45181 5.368 2.41797 5.36398 2.38697 5.35133C2.35662 5.33924 2.33008 5.31916 2.31023 5.29321C2.29038 5.26727 2.27795 5.23643 2.27422 5.20397L2.23758 4.91384C2.22999 4.85102 2.19958 4.7932 2.15208 4.75141C2.10458 4.70961 2.04336 4.68676 1.98009 4.68722H1.12798C1.05935 4.68737 0.993553 4.7147 0.945023 4.76323C0.896493 4.81176 0.86917 4.87754 0.869019 4.94617V13.2154C0.869472 13.2838 0.896936 13.3493 0.945442 13.3975C0.993947 13.4458 1.05957 13.4729 1.12798 13.4729H2.2233C2.29171 13.4729 2.35729 13.4458 2.4058 13.3975C2.4543 13.3493 2.4818 13.2838 2.48226 13.2154V11.7973C2.49027 11.5138 2.48854 11.2231 2.47681 10.9086C2.47539 10.8763 2.48258 10.8441 2.49766 10.8155C2.51274 10.7868 2.53516 10.7627 2.56263 10.7455C2.58935 10.7283 2.62017 10.7184 2.65194 10.717C2.6837 10.7155 2.7153 10.7225 2.74349 10.7372C3.31014 11.0187 3.93643 11.1591 4.56902 11.1464C6.29383 11.1464 6.99714 10.2022 6.99714 7.89134C6.99714 5.62402 6.29011 4.52183 4.83598 4.52183" fill="#000927"/>
<path d="M13.7074 4.6875H12.6121C12.5437 4.68757 12.4781 4.71468 12.4296 4.76292C12.3811 4.81116 12.3536 4.87661 12.3531 4.94502V9.00812C12.3531 9.04069 12.3446 9.0727 12.3282 9.10089C12.3119 9.12908 12.2884 9.15245 12.2601 9.16864C11.5814 9.55206 11.087 9.7741 10.5719 9.7741C10.4723 9.78632 10.3713 9.77838 10.2748 9.75076C10.1783 9.72313 10.0883 9.67638 10.0103 9.61329C9.86832 9.41694 9.80934 9.17263 9.84603 8.93315V4.94616C9.84557 4.87776 9.81811 4.8123 9.7696 4.76407C9.7211 4.71583 9.65548 4.68872 9.58707 4.68864H8.47917C8.41077 4.68872 8.34514 4.71583 8.29664 4.76407C8.24813 4.8123 8.22067 4.87776 8.22021 4.94616V9.39268C8.22021 10.5487 8.83142 11.1596 9.98682 11.1596C10.8296 11.1427 11.6459 10.8625 12.3214 10.3584C12.3474 10.3408 12.3775 10.3302 12.4088 10.3275C12.4401 10.3248 12.4715 10.3301 12.5002 10.343C12.5288 10.3559 12.5537 10.3758 12.5725 10.401C12.5913 10.4262 12.6033 10.4557 12.6075 10.4869L12.6461 10.7693C12.6548 10.8314 12.6856 10.8883 12.733 10.9294C12.7803 10.9705 12.8409 10.9931 12.9037 10.993H13.7091C13.7775 10.9929 13.8431 10.9658 13.8916 10.9176C13.9402 10.8694 13.9676 10.8039 13.9681 10.7355V4.94616C13.9676 4.87776 13.9402 4.8123 13.8916 4.76407C13.8431 4.71583 13.7775 4.68872 13.7091 4.68864" fill="#000927"/>
<path d="M19.6275 4.50922C18.8575 4.50922 18.0687 4.79993 17.2149 5.39795C17.1886 5.41626 17.158 5.42742 17.1261 5.43033C17.0942 5.43325 17.0621 5.42781 17.033 5.41456C17.0038 5.40131 16.9786 5.3807 16.9598 5.35476C16.9411 5.32882 16.9293 5.29844 16.9259 5.26661L16.8878 4.9181C16.8811 4.85457 16.8511 4.79578 16.8035 4.75316C16.7559 4.71054 16.6942 4.68713 16.6303 4.68748H15.7536C15.6851 4.68755 15.6196 4.71466 15.5711 4.7629C15.5225 4.81114 15.4951 4.87659 15.4946 4.945V10.7352C15.4948 10.8038 15.5221 10.8696 15.5706 10.9181C15.6192 10.9667 15.6849 10.994 15.7536 10.9941H16.8609C16.9295 10.9937 16.9951 10.9661 17.0433 10.9174C17.0916 10.8687 17.1186 10.8029 17.1184 10.7343L17.1067 6.75136C17.1066 6.71808 17.1155 6.68539 17.1324 6.65673C17.1493 6.62807 17.1736 6.60452 17.2028 6.58855C17.9468 6.18167 18.519 5.89353 19.1299 5.89353C19.6141 5.89353 19.7543 6.08495 19.7543 6.74707V10.7352C19.7544 10.8036 19.7815 10.8692 19.8297 10.9177C19.8779 10.9662 19.9434 10.9937 20.0118 10.9941H21.12C21.1886 10.994 21.2544 10.9667 21.3029 10.9181C21.3515 10.8696 21.3788 10.8038 21.3789 10.7352V6.27609C21.3789 5.13671 20.7557 4.50922 19.6249 4.50922" fill="#000927"/>
<path d="M26.5919 4.68748H25.2038C25.1548 4.68741 25.1079 4.66791 25.0732 4.63326C25.0386 4.59861 25.0191 4.55164 25.019 4.50264V3.15266C25.0185 3.08426 24.9911 3.0188 24.9426 2.97056C24.8941 2.92233 24.8284 2.89522 24.76 2.89514H23.6647C23.5964 2.89514 23.5309 2.92227 23.4826 2.97057C23.4343 3.01886 23.4072 3.08436 23.4072 3.15266V4.51466C23.4071 4.56183 23.3891 4.6072 23.3567 4.6415C23.3243 4.6758 23.2801 4.69644 23.233 4.69921L22.5319 4.73927C22.4661 4.74306 22.4042 4.77181 22.3589 4.81966C22.3135 4.86751 22.2881 4.93086 22.2878 4.99679V5.62085C22.2883 5.68926 22.3158 5.75471 22.3643 5.80295C22.4128 5.85119 22.4784 5.8783 22.5468 5.87837H23.2229C23.2718 5.87852 23.3186 5.89796 23.3533 5.93247C23.3879 5.96698 23.4075 6.01376 23.4078 6.06264L23.4195 9.27563C23.4195 10.4551 24.049 11.1315 25.1483 11.1315C25.6247 11.1235 26.0991 11.0687 26.5647 10.9678C26.6274 10.9528 26.6823 10.9149 26.7183 10.8614C26.7544 10.808 26.7691 10.7429 26.7596 10.6791L26.6497 9.91829C26.6405 9.85659 26.6094 9.80024 26.5621 9.75954C26.5149 9.71883 26.4545 9.69647 26.3921 9.69653H25.7323C25.1924 9.69653 25.0187 9.52915 25.0187 9.00981V6.0655C25.0188 6.0165 25.0383 5.96953 25.0729 5.93488C25.1076 5.90023 25.1546 5.88073 25.2036 5.88066H26.5916C26.6599 5.88066 26.7254 5.85353 26.7737 5.80523C26.822 5.75694 26.8491 5.69144 26.8491 5.62314V4.94758C26.8491 4.87928 26.822 4.81378 26.7737 4.76548C26.7254 4.71719 26.6599 4.69006 26.5916 4.69006" fill="#000927"/>
<path d="M39.0427 4.50922H38.9855C38.1464 4.55281 37.3422 4.85877 36.6864 5.38393C36.6608 5.40249 36.6308 5.41415 36.5993 5.41778C36.5679 5.42141 36.536 5.41688 36.5068 5.40464C36.4776 5.3924 36.452 5.37285 36.4326 5.34787C36.4131 5.3229 36.4004 5.29334 36.3957 5.26203L36.3413 4.90723C36.3322 4.84596 36.3014 4.79002 36.2544 4.74966C36.2074 4.7093 36.1475 4.68722 36.0855 4.68748H35.2895C35.2213 4.68785 35.156 4.71511 35.1078 4.76332C35.0596 4.81153 35.0324 4.87681 35.032 4.945V10.7352C35.0321 10.8036 35.0592 10.8692 35.1074 10.9177C35.1556 10.9662 35.2211 10.9937 35.2895 10.9941H36.3977C36.4661 10.9937 36.5316 10.9662 36.5798 10.9177C36.628 10.8692 36.6551 10.8036 36.6552 10.7352V6.69556C36.6557 6.65831 36.6673 6.62206 36.6886 6.59147C36.7099 6.56088 36.7398 6.53734 36.7745 6.52388C37.5233 6.23775 38.0982 6.03431 38.679 6.03431H38.9263C38.9899 6.0347 39.0514 6.01153 39.0989 5.96927C39.1465 5.927 39.1767 5.86863 39.1838 5.8054L39.2982 4.79907C39.3023 4.76282 39.2987 4.72613 39.2876 4.69138C39.2765 4.65663 39.2582 4.62461 39.2339 4.59742C39.2096 4.57022 39.1798 4.54846 39.1465 4.53356C39.1132 4.51866 39.0772 4.51095 39.0407 4.51093" fill="#000927"/>
<path d="M43.5651 7.37115H41.65C41.6246 7.37123 41.5995 7.366 41.5763 7.3558C41.553 7.34561 41.5321 7.33066 41.515 7.31192C41.4974 7.29313 41.484 7.27087 41.4756 7.24658C41.4671 7.22228 41.4639 7.19648 41.4661 7.17086C41.5465 6.11216 41.8666 5.80428 42.891 5.80428C43.7969 5.80428 44.0876 6.01774 44.0876 6.683C44.0876 7.00318 44.0281 7.36972 43.5651 7.36972M41.7107 8.52484H43.9975C45.1277 8.52484 45.7005 7.91337 45.7005 6.70703C45.7005 5.20684 44.7875 4.50781 42.8272 4.50781C41.7147 4.50781 40.9759 4.73872 40.5015 5.23459C40.0065 5.75221 39.7759 6.5757 39.7759 7.82639C39.7759 10.2145 40.6598 11.1455 42.9291 11.1455C43.7505 11.1583 44.5687 11.0391 45.3523 10.7924C45.406 10.7709 45.4508 10.7319 45.4796 10.6818C45.5084 10.6316 45.5195 10.5733 45.5111 10.516L45.4253 9.90515C45.4162 9.83858 45.3815 9.77819 45.3285 9.73686C45.2755 9.69554 45.2085 9.67656 45.1417 9.68397C44.4138 9.76323 43.6393 9.81244 43.1199 9.81244C42.178 9.81244 41.6996 9.65249 41.5284 8.74402C41.5236 8.71731 41.5246 8.68986 41.5316 8.66361C41.5385 8.63736 41.5511 8.61294 41.5684 8.59209C41.5858 8.57124 41.6076 8.55446 41.6321 8.54294C41.6567 8.53142 41.6836 8.52544 41.7107 8.52541" fill="#000927"/>
<path d="M51.0323 6.23601V9.03153C51.0322 9.0622 51.0246 9.09238 51.01 9.11935C50.9954 9.14632 50.9744 9.16924 50.9487 9.18605C50.3427 9.58663 50.0156 9.76203 49.4282 9.76203C48.6605 9.76203 48.2951 9.46674 48.2951 7.78943C48.2951 6.13644 48.6153 5.84229 49.5172 5.84229C49.951 5.85376 50.3819 5.91853 50.7999 6.03514L50.8889 6.05603C50.9296 6.06542 50.9659 6.08833 50.9919 6.12102C51.0179 6.15371 51.032 6.19425 51.032 6.23601M52.3988 2.01611H51.2906C51.2224 2.01649 51.1572 2.04374 51.109 2.09195C51.0607 2.14017 51.0335 2.20545 51.0331 2.27363V3.84536C51.0331 4.18586 51.0406 4.44625 51.0572 4.69289C51.0596 4.72526 51.0533 4.75768 51.0392 4.78688C51.025 4.81608 51.0034 4.841 50.9764 4.85914C50.95 4.87725 50.9192 4.88805 50.8873 4.89041C50.8553 4.89277 50.8233 4.88662 50.7945 4.87258C50.2511 4.62264 49.6585 4.49796 49.0605 4.50776C47.3357 4.50776 46.6321 5.46173 46.6321 7.80087C46.6321 10.0822 47.3391 11.1449 48.8568 11.1449C49.6368 11.1351 50.3915 10.867 51.0028 10.3824C51.028 10.3628 51.0579 10.3502 51.0895 10.3459C51.1211 10.3416 51.1532 10.3457 51.1828 10.3578C51.2127 10.3695 51.239 10.3889 51.2591 10.414C51.2792 10.4391 51.2924 10.469 51.2972 10.5008L51.3373 10.7704C51.3462 10.8321 51.3772 10.8885 51.4246 10.929C51.472 10.9696 51.5324 10.9916 51.5948 10.991H52.4025C52.4708 10.991 52.5364 10.9638 52.5846 10.9156C52.6329 10.8673 52.6601 10.8018 52.6601 10.7335V2.27478C52.6601 2.20648 52.6329 2.14098 52.5846 2.09268C52.5364 2.04439 52.4708 2.01726 52.4025 2.01726" fill="#000927"/>
<path d="M32.1575 2.01614C32.1575 2.31082 32.0701 2.59887 31.9064 2.84388C31.7427 3.0889 31.51 3.27986 31.2378 3.39263C30.9656 3.50539 30.666 3.5349 30.377 3.47741C30.088 3.41992 29.8225 3.27802 29.6141 3.06966C29.4057 2.86129 29.2638 2.59582 29.2064 2.30681C29.1489 2.01779 29.1784 1.71823 29.2912 1.44598C29.4039 1.17374 29.5949 0.94105 29.8399 0.777338C30.0849 0.613626 30.3729 0.526245 30.6676 0.526245C30.8633 0.526245 31.057 0.564783 31.2378 0.639657C31.4186 0.714531 31.5828 0.824276 31.7211 0.962626C31.8595 1.10098 31.9692 1.26522 32.0441 1.44598C32.119 1.62675 32.1575 1.82049 32.1575 2.01614Z" fill="#E3087E"/>
<path d="M30.6675 9.45046C30.3398 9.45034 30.0194 9.35303 29.7469 9.17084C29.4744 8.98864 29.2621 8.72973 29.1368 8.42686C29.0114 8.12398 28.9787 7.79075 29.0428 7.46929C29.1068 7.14783 29.2648 6.85258 29.4966 6.62089C29.7285 6.38919 30.0239 6.23145 30.3454 6.16762C30.6669 6.10378 31.0001 6.13672 31.3029 6.26226C31.6056 6.3878 31.8644 6.60031 32.0464 6.87291C32.2284 7.14551 32.3255 7.46596 32.3254 7.79374C32.3254 8.01143 32.2826 8.22699 32.1993 8.42811C32.116 8.62924 31.9939 8.81198 31.84 8.96591C31.6861 9.11983 31.5033 9.24193 31.3022 9.32522C31.1011 9.4085 30.8855 9.45135 30.6678 9.45131M30.6807 4.46887C28.4005 4.46887 27.553 5.37191 27.553 7.80004C27.553 10.2193 28.4005 11.1192 30.6807 11.1192C32.9412 11.1192 33.7833 10.2196 33.7833 7.80004C33.7833 5.37191 32.9423 4.46887 30.6807 4.46887Z" fill="#000927"/>
</g>
<defs>
<clipPath id="clip0_2992_19240">
<rect width="51.7902" height="12.9475" fill="white" transform="translate(0.867676 0.526245)"/>
</clipPath>
</defs>
</svg>
