<svg width="148" height="24" viewBox="0 0 148 24" fill="none" xmlns="http://www.w3.org/2000/svg">
<path d="M1.67917 9.82098V2.21623H2.84161L6.16597 7.7677H5.55759L8.82763 2.21623H9.99007L10.0009 9.82098H8.66468L8.65381 4.31297H8.93627L6.15511 8.95187H5.525L2.70038 4.31297H3.0263V9.82098H1.67917ZM15.4989 9.82098V8.64768L15.4229 8.39781V6.34453C15.4229 5.94618 15.3034 5.63837 15.0644 5.42109C14.8254 5.19657 14.4632 5.08431 13.978 5.08431C13.6521 5.08431 13.3298 5.13501 13.0111 5.23641C12.6997 5.3378 12.4353 5.47903 12.218 5.6601L11.6857 4.67148C11.9971 4.43247 12.3665 4.25503 12.7938 4.13915C13.2284 4.01602 13.6774 3.95446 14.1409 3.95446C14.9811 3.95446 15.6293 4.15725 16.0856 4.56284C16.5491 4.96119 16.7809 5.58043 16.7809 6.42057V9.82098H15.4989ZM13.6738 9.89703C13.2392 9.89703 12.859 9.82461 12.5331 9.67975C12.2072 9.52766 11.9537 9.32124 11.7726 9.06051C11.5988 8.79253 11.5119 8.49196 11.5119 8.1588C11.5119 7.83288 11.5879 7.53956 11.74 7.27882C11.8994 7.01809 12.1565 6.81168 12.5114 6.65958C12.8662 6.50749 13.337 6.43144 13.9237 6.43144H15.6076V7.33314H14.0214C13.5579 7.33314 13.2465 7.40919 13.0871 7.56129C12.9278 7.70614 12.8481 7.8872 12.8481 8.10448C12.8481 8.35073 12.9459 8.54628 13.1415 8.69114C13.337 8.83599 13.6086 8.90841 13.9563 8.90841C14.2894 8.90841 14.5864 8.83237 14.8471 8.68027C15.1151 8.52818 15.307 8.30365 15.4229 8.00671L15.651 8.8215C15.5207 9.16191 15.2853 9.42626 14.9449 9.61457C14.6117 9.80288 14.188 9.89703 13.6738 9.89703ZM13.3479 3.22658L14.8145 1.73822H16.4115L14.5212 3.22658H13.3479ZM20.3162 9.89703C19.831 9.89703 19.3638 9.83547 18.9148 9.71234C18.473 9.58198 18.1217 9.42626 17.861 9.2452L18.3825 8.21312C18.6432 8.3797 18.9546 8.51731 19.3168 8.62595C19.6789 8.73459 20.041 8.78891 20.4032 8.78891C20.8305 8.78891 21.1383 8.73097 21.3266 8.61509C21.5221 8.49921 21.6199 8.34349 21.6199 8.14794C21.6199 7.9886 21.5547 7.8691 21.4244 7.78943C21.294 7.70252 21.1238 7.63733 20.9138 7.59388C20.7037 7.55042 20.4683 7.51059 20.2076 7.47438C19.9541 7.43816 19.697 7.39108 19.4363 7.33314C19.1828 7.26796 18.951 7.17743 18.741 7.06155C18.5309 6.93842 18.3607 6.77546 18.2304 6.57267C18.1 6.36988 18.0348 6.1019 18.0348 5.76874C18.0348 5.39936 18.1398 5.08069 18.3499 4.81271C18.5599 4.53749 18.8532 4.32746 19.2298 4.1826C19.6137 4.03051 20.0664 3.95446 20.5878 3.95446C20.9789 3.95446 21.3737 3.99792 21.772 4.08483C22.1704 4.17174 22.4999 4.29486 22.7606 4.4542L22.2392 5.48628C21.9639 5.3197 21.6851 5.20743 21.4026 5.14949C21.1274 5.08431 20.8522 5.05172 20.577 5.05172C20.1641 5.05172 19.8563 5.11328 19.6535 5.23641C19.458 5.35953 19.3602 5.51525 19.3602 5.70355C19.3602 5.87738 19.4254 6.00774 19.5558 6.09466C19.6861 6.18157 19.8563 6.25037 20.0664 6.30107C20.2764 6.35177 20.5082 6.39522 20.7617 6.43144C21.0224 6.46041 21.2795 6.50749 21.533 6.57267C21.7865 6.63785 22.0183 6.72838 22.2283 6.84427C22.4456 6.95291 22.6194 7.10862 22.7498 7.31142C22.8801 7.51421 22.9453 7.77857 22.9453 8.10448C22.9453 8.46661 22.8367 8.78167 22.6194 9.04964C22.4094 9.31762 22.1088 9.52766 21.7177 9.67975C21.3266 9.82461 20.8594 9.89703 20.3162 9.89703ZM29.5725 9.89703C29.0148 9.89703 28.5114 9.77391 28.0624 9.52766C27.6206 9.27417 27.2729 8.92652 27.0195 8.48472C26.766 8.04292 26.6392 7.52145 26.6392 6.92031C26.6392 6.31918 26.766 5.79771 27.0195 5.35591C27.2729 4.91411 27.6206 4.57008 28.0624 4.32383C28.5114 4.07759 29.0148 3.95446 29.5725 3.95446C30.0577 3.95446 30.4923 4.0631 30.8761 4.28038C31.26 4.49042 31.5642 4.81271 31.7887 5.24727C32.0132 5.68183 32.1255 6.23951 32.1255 6.92031C32.1255 7.59388 32.0169 8.15156 31.7996 8.59336C31.5823 9.02792 31.2817 9.35383 30.8979 9.57111C30.514 9.78839 30.0722 9.89703 29.5725 9.89703ZM29.7354 8.73459C30.0614 8.73459 30.3511 8.66216 30.6046 8.51731C30.8653 8.37246 31.0717 8.16242 31.2238 7.8872C31.3831 7.61198 31.4628 7.28969 31.4628 6.92031C31.4628 6.5437 31.3831 6.2214 31.2238 5.95342C31.0717 5.67821 30.8653 5.46817 30.6046 5.32332C30.3511 5.17846 30.0614 5.10604 29.7354 5.10604C29.4095 5.10604 29.1162 5.17846 28.8555 5.32332C28.602 5.46817 28.3956 5.67821 28.2362 5.95342C28.0841 6.2214 28.0081 6.5437 28.0081 6.92031C28.0081 7.28969 28.0841 7.61198 28.2362 7.8872C28.3956 8.16242 28.602 8.37246 28.8555 8.51731C29.1162 8.66216 29.4095 8.73459 29.7354 8.73459ZM31.4954 9.82098V8.45213L31.5497 6.90945L31.4411 5.36677V1.75995H32.7882V9.82098H31.4954ZM37.3024 9.89703C36.6578 9.89703 36.0929 9.77029 35.6076 9.51679C35.1296 9.25606 34.7566 8.90117 34.4887 8.45213C34.2279 8.00309 34.0976 7.49248 34.0976 6.92031C34.0976 6.3409 34.2243 5.8303 34.4778 5.3885C34.7385 4.93946 35.0934 4.58819 35.5425 4.3347C35.9987 4.08121 36.5166 3.95446 37.096 3.95446C37.6609 3.95446 38.1643 4.07759 38.6061 4.32383C39.0479 4.57008 39.3955 4.91773 39.649 5.36677C39.9025 5.81581 40.0293 6.34453 40.0293 6.95291C40.0293 7.01085 40.0256 7.07603 40.0184 7.14846C40.0184 7.22088 40.0148 7.28969 40.0075 7.35487H35.1731V6.45317H39.2905L38.7582 6.73563C38.7654 6.40247 38.6966 6.10914 38.5518 5.85565C38.4069 5.60216 38.2077 5.40299 37.9543 5.25813C37.708 5.11328 37.4219 5.04085 37.096 5.04085C36.7628 5.04085 36.4695 5.11328 36.216 5.25813C35.9698 5.40299 35.7742 5.60578 35.6294 5.86651C35.4918 6.12 35.423 6.42057 35.423 6.76822V6.9855C35.423 7.33314 35.5026 7.64096 35.662 7.90893C35.8213 8.17691 36.0458 8.38332 36.3355 8.52818C36.6252 8.67303 36.9584 8.74545 37.335 8.74545C37.6609 8.74545 37.9543 8.69476 38.215 8.59336C38.4757 8.49196 38.7075 8.33263 38.9103 8.11535L39.6382 8.95187C39.3774 9.25606 39.0479 9.49144 38.6495 9.65802C38.2584 9.81736 37.8094 9.89703 37.3024 9.89703ZM43.8147 8.09362V7.11587L47.5627 2.21623H49.0728L45.3791 7.11587L44.6729 6.89859H50.7024V8.09362H43.8147ZM47.9864 9.82098V8.09362L48.0299 6.89859V5.36677H49.3553V9.82098H47.9864ZM53.5914 9.92962C53.0554 9.92962 52.5303 9.85358 52.0161 9.70148C51.5091 9.54214 51.0818 9.32486 50.7341 9.04964L51.3425 7.95239C51.6177 8.17691 51.9509 8.35797 52.342 8.49558C52.7331 8.63319 53.1423 8.702 53.5696 8.702C54.0766 8.702 54.4713 8.6006 54.7538 8.39781C55.0363 8.18777 55.1775 7.90531 55.1775 7.55042C55.1775 7.20278 55.0471 6.92756 54.7864 6.72476C54.5256 6.52197 54.1056 6.42057 53.5262 6.42057H52.8309V5.45368L55.0037 2.86807L55.1883 3.4004H51.1035V2.21623H56.2856V3.16139L54.1128 5.74701L53.3741 5.31245H53.7978C54.7321 5.31245 55.431 5.52249 55.8945 5.94256C56.3653 6.35539 56.6007 6.88772 56.6007 7.53956C56.6007 7.96687 56.492 8.3616 56.2747 8.72373C56.0575 9.08586 55.7243 9.37918 55.2753 9.60371C54.8335 9.82098 54.2722 9.92962 53.5914 9.92962ZM58.3718 9.89703C58.1256 9.89703 57.9155 9.81374 57.7417 9.64716C57.5679 9.47334 57.481 9.25606 57.481 8.99533C57.481 8.72011 57.5679 8.50283 57.7417 8.34349C57.9155 8.17691 58.1256 8.09362 58.3718 8.09362C58.6181 8.09362 58.8281 8.17691 59.0019 8.34349C59.1758 8.50283 59.2627 8.72011 59.2627 8.99533C59.2627 9.25606 59.1758 9.47334 59.0019 9.64716C58.8281 9.81374 58.6181 9.89703 58.3718 9.89703ZM63.2217 9.92962C62.6206 9.92962 62.0774 9.77753 61.5921 9.47334C61.1141 9.16915 60.7375 8.72735 60.4623 8.14794C60.1871 7.56129 60.0495 6.85151 60.0495 6.01861C60.0495 5.18571 60.1871 4.47955 60.4623 3.90014C60.7375 3.31349 61.1141 2.86807 61.5921 2.56388C62.0774 2.25969 62.6206 2.10759 63.2217 2.10759C63.8301 2.10759 64.3733 2.25969 64.8513 2.56388C65.3293 2.86807 65.7059 3.31349 65.9812 3.90014C66.2636 4.47955 66.4048 5.18571 66.4048 6.01861C66.4048 6.85151 66.2636 7.56129 65.9812 8.14794C65.7059 8.72735 65.3293 9.16915 64.8513 9.47334C64.3733 9.77753 63.8301 9.92962 63.2217 9.92962ZM63.2217 8.702C63.5766 8.702 63.8844 8.60784 64.1452 8.41954C64.4059 8.22399 64.6087 7.92704 64.7535 7.52869C64.9056 7.13035 64.9817 6.62699 64.9817 6.01861C64.9817 5.40299 64.9056 4.89962 64.7535 4.50852C64.6087 4.11018 64.4059 3.81685 64.1452 3.62854C63.8844 3.43299 63.5766 3.33522 63.2217 3.33522C62.8813 3.33522 62.5771 3.43299 62.3091 3.62854C62.0484 3.81685 61.842 4.11018 61.6899 4.50852C61.5451 4.89962 61.4726 5.40299 61.4726 6.01861C61.4726 6.62699 61.5451 7.13035 61.6899 7.52869C61.842 7.92704 62.0484 8.22399 62.3091 8.41954C62.5771 8.60784 62.8813 8.702 63.2217 8.702ZM70.5315 9.92962C69.9304 9.92962 69.3872 9.77753 68.9019 9.47334C68.4239 9.16915 68.0473 8.72735 67.7721 8.14794C67.4969 7.56129 67.3593 6.85151 67.3593 6.01861C67.3593 5.18571 67.4969 4.47955 67.7721 3.90014C68.0473 3.31349 68.4239 2.86807 68.9019 2.56388C69.3872 2.25969 69.9304 2.10759 70.5315 2.10759C71.1399 2.10759 71.6831 2.25969 72.1611 2.56388C72.6391 2.86807 73.0157 3.31349 73.291 3.90014C73.5734 4.47955 73.7147 5.18571 73.7147 6.01861C73.7147 6.85151 73.5734 7.56129 73.291 8.14794C73.0157 8.72735 72.6391 9.16915 72.1611 9.47334C71.6831 9.77753 71.1399 9.92962 70.5315 9.92962ZM70.5315 8.702C70.8864 8.702 71.1942 8.60784 71.455 8.41954C71.7157 8.22399 71.9185 7.92704 72.0633 7.52869C72.2154 7.13035 72.2915 6.62699 72.2915 6.01861C72.2915 5.40299 72.2154 4.89962 72.0633 4.50852C71.9185 4.11018 71.7157 3.81685 71.455 3.62854C71.1942 3.43299 70.8864 3.33522 70.5315 3.33522C70.1911 3.33522 69.8869 3.43299 69.619 3.62854C69.3582 3.81685 69.1518 4.11018 68.9997 4.50852C68.8549 4.89962 68.7824 5.40299 68.7824 6.01861C68.7824 6.62699 68.8549 7.13035 68.9997 7.52869C69.1518 7.92704 69.3582 8.22399 69.619 8.41954C69.8869 8.60784 70.1911 8.702 70.5315 8.702ZM77.8413 9.92962C77.2402 9.92962 76.697 9.77753 76.2118 9.47334C75.7337 9.16915 75.3571 8.72735 75.0819 8.14794C74.8067 7.56129 74.6691 6.85151 74.6691 6.01861C74.6691 5.18571 74.8067 4.47955 75.0819 3.90014C75.3571 3.31349 75.7337 2.86807 76.2118 2.56388C76.697 2.25969 77.2402 2.10759 77.8413 2.10759C78.4497 2.10759 78.9929 2.25969 79.4709 2.56388C79.9489 2.86807 80.3256 3.31349 80.6008 3.90014C80.8832 4.47955 81.0245 5.18571 81.0245 6.01861C81.0245 6.85151 80.8832 7.56129 80.6008 8.14794C80.3256 8.72735 79.9489 9.16915 79.4709 9.47334C78.9929 9.77753 78.4497 9.92962 77.8413 9.92962ZM77.8413 8.702C78.1962 8.702 78.504 8.60784 78.7648 8.41954C79.0255 8.22399 79.2283 7.92704 79.3732 7.52869C79.5253 7.13035 79.6013 6.62699 79.6013 6.01861C79.6013 5.40299 79.5253 4.89962 79.3732 4.50852C79.2283 4.11018 79.0255 3.81685 78.7648 3.62854C78.504 3.43299 78.1962 3.33522 77.8413 3.33522C77.5009 3.33522 77.1968 3.43299 76.9288 3.62854C76.668 3.81685 76.4616 4.11018 76.3095 4.50852C76.1647 4.89962 76.0923 5.40299 76.0923 6.01861C76.0923 6.62699 76.1647 7.13035 76.3095 7.52869C76.4616 7.92704 76.668 8.22399 76.9288 8.41954C77.1968 8.60784 77.5009 8.702 77.8413 8.702Z" fill="#4A546A"/>
<path d="M3.67134 21.2265C3.17703 21.2265 2.73342 21.1188 2.34051 20.9033C1.95394 20.6815 1.64975 20.3805 1.42794 20.0002C1.20613 19.6136 1.09523 19.1732 1.09523 18.6789C1.09523 18.1782 1.20613 17.7378 1.42794 17.3576C1.64975 16.9773 1.95394 16.6795 2.34051 16.464C2.73342 16.2485 3.17703 16.1408 3.67134 16.1408C4.09594 16.1408 4.47935 16.2232 4.82156 16.388C5.16377 16.5527 5.43311 16.7999 5.62956 17.1294L5.12575 17.4716C4.95464 17.2181 4.74234 17.0312 4.48885 16.9108C4.23536 16.7904 3.95969 16.7302 3.66184 16.7302C3.30695 16.7302 2.98691 16.8126 2.70174 16.9773C2.41656 17.1358 2.19158 17.3607 2.02681 17.6523C1.86204 17.9438 1.77966 18.286 1.77966 18.6789C1.77966 19.0718 1.86204 19.414 2.02681 19.7055C2.19158 19.9971 2.41656 20.2252 2.70174 20.39C2.98691 20.5484 3.30695 20.6276 3.66184 20.6276C3.95969 20.6276 4.23536 20.5674 4.48885 20.447C4.74234 20.3266 4.95464 20.1428 5.12575 19.8957L5.62956 20.2379C5.43311 20.5611 5.16377 20.8082 4.82156 20.9793C4.47935 21.1441 4.09594 21.2265 3.67134 21.2265ZM8.90614 21.2265C8.42451 21.2265 7.9904 21.1188 7.60383 20.9033C7.22359 20.6815 6.92257 20.3805 6.70077 20.0002C6.47896 19.6136 6.36806 19.1732 6.36806 18.6789C6.36806 18.1782 6.47896 17.7378 6.70077 17.3576C6.92257 16.9773 7.22359 16.6795 7.60383 16.464C7.98407 16.2485 8.41817 16.1408 8.90614 16.1408C9.40045 16.1408 9.83773 16.2485 10.218 16.464C10.6045 16.6795 10.9056 16.9773 11.121 17.3576C11.3428 17.7378 11.4537 18.1782 11.4537 18.6789C11.4537 19.1732 11.3428 19.6136 11.121 20.0002C10.9056 20.3805 10.6045 20.6815 10.218 20.9033C9.83139 21.1188 9.39411 21.2265 8.90614 21.2265ZM8.90614 20.6276C9.26737 20.6276 9.5874 20.5484 9.86624 20.39C10.1451 20.2252 10.3637 19.9971 10.5222 19.7055C10.6869 19.4077 10.7693 19.0655 10.7693 18.6789C10.7693 18.286 10.6869 17.9438 10.5222 17.6523C10.3637 17.3607 10.1451 17.1358 9.86624 16.9773C9.5874 16.8126 9.27054 16.7302 8.91565 16.7302C8.56076 16.7302 8.2439 16.8126 7.96506 16.9773C7.68621 17.1358 7.46441 17.3607 7.29964 17.6523C7.13487 17.9438 7.05249 18.286 7.05249 18.6789C7.05249 19.0655 7.13487 19.4077 7.29964 19.7055C7.46441 19.9971 7.68621 20.2252 7.96506 20.39C8.2439 20.5484 8.55759 20.6276 8.90614 20.6276ZM12.8317 21.179V16.1883H13.4781V17.5477L13.4115 17.31C13.5509 16.9298 13.7854 16.6415 14.115 16.445C14.4445 16.2422 14.8532 16.1408 15.3412 16.1408V16.7967C15.3159 16.7967 15.2905 16.7967 15.2652 16.7967C15.2398 16.7904 15.2145 16.7872 15.1891 16.7872C14.6631 16.7872 14.2512 16.9488 13.9534 17.272C13.6555 17.5889 13.5066 18.042 13.5066 18.6314V21.179H12.8317ZM16.5728 21.179V16.1883H17.2192V17.5477L17.1526 17.31C17.292 16.9298 17.5265 16.6415 17.8561 16.445C18.1856 16.2422 18.5944 16.1408 19.0823 16.1408V16.7967C19.057 16.7967 19.0316 16.7967 19.0063 16.7967C18.9809 16.7904 18.9556 16.7872 18.9302 16.7872C18.4042 16.7872 17.9923 16.9488 17.6945 17.272C17.3966 17.5889 17.2477 18.042 17.2477 18.6314V21.179H16.5728ZM22.3873 21.2265C21.8676 21.2265 21.4113 21.1188 21.0184 20.9033C20.6255 20.6815 20.3181 20.3805 20.0963 20.0002C19.8745 19.6136 19.7636 19.1732 19.7636 18.6789C19.7636 18.1846 19.8682 17.7473 20.0773 17.3671C20.2928 16.9868 20.5843 16.689 20.9519 16.4735C21.3258 16.2517 21.744 16.1408 22.2067 16.1408C22.6756 16.1408 23.0907 16.2485 23.4519 16.464C23.8195 16.6731 24.1078 16.971 24.317 17.3576C24.5261 17.7378 24.6307 18.1782 24.6307 18.6789C24.6307 18.7106 24.6275 18.7454 24.6212 18.7835C24.6212 18.8151 24.6212 18.85 24.6212 18.888H20.277V18.3842H24.2599L23.9938 18.5838C23.9938 18.2226 23.9146 17.9026 23.7561 17.6237C23.604 17.3386 23.3949 17.1168 23.1287 16.9583C22.8626 16.7999 22.5552 16.7207 22.2067 16.7207C21.8644 16.7207 21.5571 16.7999 21.2846 16.9583C21.0121 17.1168 20.7998 17.3386 20.6477 17.6237C20.4956 17.9089 20.4195 18.2353 20.4195 18.6028V18.7074C20.4195 19.0876 20.5019 19.4235 20.6667 19.715C20.8378 20.0002 21.0723 20.2252 21.3701 20.39C21.6743 20.5484 22.0197 20.6276 22.4063 20.6276C22.7105 20.6276 22.9925 20.5737 23.2523 20.466C23.5185 20.3583 23.7466 20.1935 23.9367 19.9717L24.317 20.409C24.0952 20.6751 23.8163 20.8779 23.4805 21.0174C23.1509 21.1568 22.7865 21.2265 22.3873 21.2265ZM27.3448 21.2265C26.9328 21.2265 26.5431 21.1694 26.1755 21.0554C25.808 20.935 25.5196 20.786 25.3105 20.6086L25.6147 20.0763C25.8175 20.2284 26.0773 20.3614 26.3942 20.4755C26.711 20.5832 27.0437 20.6371 27.3923 20.6371C27.8676 20.6371 28.2098 20.5642 28.4189 20.4185C28.6281 20.2664 28.7326 20.0668 28.7326 19.8196C28.7326 19.6358 28.6724 19.4932 28.552 19.3918C28.438 19.2841 28.2859 19.2049 28.0957 19.1542C27.9056 19.0972 27.6933 19.0496 27.4588 19.0116C27.2244 18.9736 26.9899 18.9292 26.7554 18.8785C26.5273 18.8278 26.3181 18.7549 26.128 18.6599C25.9379 18.5585 25.7826 18.4222 25.6622 18.2511C25.5481 18.08 25.4911 17.8519 25.4911 17.5667C25.4911 17.2942 25.5672 17.0502 25.7193 16.8347C25.8713 16.6193 26.0932 16.4513 26.3847 16.3309C26.6825 16.2042 27.0437 16.1408 27.4683 16.1408C27.7915 16.1408 28.1147 16.1852 28.438 16.2739C28.7612 16.3563 29.0273 16.4672 29.2365 16.6066L28.9418 17.1484C28.72 16.9963 28.4823 16.8886 28.2288 16.8252C27.9753 16.7555 27.7218 16.7207 27.4683 16.7207C27.0184 16.7207 26.6857 16.7999 26.4702 16.9583C26.2611 17.1104 26.1565 17.3069 26.1565 17.5477C26.1565 17.7378 26.2136 17.8867 26.3276 17.9945C26.448 18.1022 26.6033 18.1878 26.7934 18.2511C26.9899 18.3082 27.2022 18.3557 27.4303 18.3937C27.6648 18.4317 27.8961 18.4793 28.1243 18.5363C28.3587 18.587 28.571 18.6599 28.7612 18.7549C28.9576 18.8437 29.1129 18.9736 29.2269 19.1447C29.3474 19.3095 29.4076 19.5281 29.4076 19.8006C29.4076 20.0921 29.3252 20.3456 29.1604 20.5611C29.002 20.7702 28.7675 20.935 28.457 21.0554C28.1528 21.1694 27.782 21.2265 27.3448 21.2265ZM33.2221 21.2265C32.7912 21.2265 32.4014 21.1283 32.0529 20.9318C31.7043 20.729 31.4255 20.4407 31.2164 20.0668C31.0136 19.6865 30.9122 19.2239 30.9122 18.6789C30.9122 18.1339 31.0136 17.6744 31.2164 17.3005C31.4192 16.9203 31.6948 16.6319 32.0434 16.4355C32.3919 16.239 32.7848 16.1408 33.2221 16.1408C33.6974 16.1408 34.122 16.2485 34.4959 16.464C34.8761 16.6731 35.174 16.971 35.3895 17.3576C35.6049 17.7378 35.7127 18.1782 35.7127 18.6789C35.7127 19.1859 35.6049 19.6295 35.3895 20.0097C35.174 20.39 34.8761 20.6878 34.4959 20.9033C34.122 21.1188 33.6974 21.2265 33.2221 21.2265ZM30.646 23.0231V16.1883H31.2924V17.6903L31.2259 18.6884L31.3209 19.696V23.0231H30.646ZM33.1746 20.6276C33.5295 20.6276 33.8463 20.5484 34.1252 20.39C34.404 20.2252 34.6258 19.9971 34.7906 19.7055C34.9554 19.4077 35.0377 19.0655 35.0377 18.6789C35.0377 18.2923 34.9554 17.9533 34.7906 17.6618C34.6258 17.3702 34.404 17.1421 34.1252 16.9773C33.8463 16.8126 33.5295 16.7302 33.1746 16.7302C32.8197 16.7302 32.4997 16.8126 32.2145 16.9773C31.9356 17.1421 31.7138 17.3702 31.5491 17.6618C31.3906 17.9533 31.3114 18.2923 31.3114 18.6789C31.3114 19.0655 31.3906 19.4077 31.5491 19.7055C31.7138 19.9971 31.9356 20.2252 32.2145 20.39C32.4997 20.5484 32.8197 20.6276 33.1746 20.6276ZM39.1228 21.2265C38.6411 21.2265 38.207 21.1188 37.8205 20.9033C37.4402 20.6815 37.1392 20.3805 36.9174 20.0002C36.6956 19.6136 36.5847 19.1732 36.5847 18.6789C36.5847 18.1782 36.6956 17.7378 36.9174 17.3576C37.1392 16.9773 37.4402 16.6795 37.8205 16.464C38.2007 16.2485 38.6348 16.1408 39.1228 16.1408C39.6171 16.1408 40.0544 16.2485 40.4346 16.464C40.8212 16.6795 41.1222 16.9773 41.3377 17.3576C41.5595 17.7378 41.6704 18.1782 41.6704 18.6789C41.6704 19.1732 41.5595 19.6136 41.3377 20.0002C41.1222 20.3805 40.8212 20.6815 40.4346 20.9033C40.048 21.1188 39.6107 21.2265 39.1228 21.2265ZM39.1228 20.6276C39.484 20.6276 39.804 20.5484 40.0829 20.39C40.3617 20.2252 40.5804 19.9971 40.7388 19.7055C40.9036 19.4077 40.9859 19.0655 40.9859 18.6789C40.9859 18.286 40.9036 17.9438 40.7388 17.6523C40.5804 17.3607 40.3617 17.1358 40.0829 16.9773C39.804 16.8126 39.4872 16.7302 39.1323 16.7302C38.7774 16.7302 38.4605 16.8126 38.1817 16.9773C37.9028 17.1358 37.681 17.3607 37.5163 17.6523C37.3515 17.9438 37.2691 18.286 37.2691 18.6789C37.2691 19.0655 37.3515 19.4077 37.5163 19.7055C37.681 19.9971 37.9028 20.2252 38.1817 20.39C38.4605 20.5484 38.7742 20.6276 39.1228 20.6276ZM45.5959 16.1408C46.0015 16.1408 46.3563 16.22 46.6605 16.3785C46.9711 16.5306 47.2119 16.765 47.383 17.0819C47.5604 17.3988 47.6492 17.798 47.6492 18.2796V21.179H46.9742V18.3462C46.9742 17.8202 46.8412 17.4241 46.575 17.1579C46.3152 16.8854 45.9476 16.7492 45.4723 16.7492C45.1174 16.7492 44.8069 16.8221 44.5407 16.9678C44.2809 17.1072 44.0781 17.3132 43.9323 17.5857C43.7929 17.8519 43.7232 18.1751 43.7232 18.5553V21.179H43.0483V16.1883H43.6947V17.5572L43.5901 17.3005C43.7486 16.9393 44.002 16.6573 44.3506 16.4545C44.6991 16.2454 45.1142 16.1408 45.5959 16.1408ZM50.8126 21.2265C50.4006 21.2265 50.0109 21.1694 49.6433 21.0554C49.2758 20.935 48.9874 20.786 48.7783 20.6086L49.0825 20.0763C49.2853 20.2284 49.5451 20.3614 49.862 20.4755C50.1788 20.5832 50.5115 20.6371 50.8601 20.6371C51.3354 20.6371 51.6776 20.5642 51.8867 20.4185C52.0959 20.2664 52.2004 20.0668 52.2004 19.8196C52.2004 19.6358 52.1402 19.4932 52.0198 19.3918C51.9057 19.2841 51.7536 19.2049 51.5635 19.1542C51.3734 19.0972 51.1611 19.0496 50.9266 19.0116C50.6921 18.9736 50.4577 18.9292 50.2232 18.8785C49.995 18.8278 49.7859 18.7549 49.5958 18.6599C49.4057 18.5585 49.2504 18.4222 49.13 18.2511C49.0159 18.08 48.9589 17.8519 48.9589 17.5667C48.9589 17.2942 49.0349 17.0502 49.187 16.8347C49.3391 16.6193 49.5609 16.4513 49.8525 16.3309C50.1503 16.2042 50.5115 16.1408 50.9361 16.1408C51.2593 16.1408 51.5825 16.1852 51.9057 16.2739C52.2289 16.3563 52.4951 16.4672 52.7042 16.6066L52.4096 17.1484C52.1877 16.9963 51.9501 16.8886 51.6966 16.8252C51.4431 16.7555 51.1896 16.7207 50.9361 16.7207C50.4862 16.7207 50.1535 16.7999 49.938 16.9583C49.7289 17.1104 49.6243 17.3069 49.6243 17.5477C49.6243 17.7378 49.6813 17.8867 49.7954 17.9945C49.9158 18.1022 50.0711 18.1878 50.2612 18.2511C50.4577 18.3082 50.67 18.3557 50.8981 18.3937C51.1326 18.4317 51.3639 18.4793 51.592 18.5363C51.8265 18.587 52.0388 18.6599 52.2289 18.7549C52.4254 18.8437 52.5807 18.9736 52.6947 19.1447C52.8151 19.3095 52.8753 19.5281 52.8753 19.8006C52.8753 20.0921 52.793 20.3456 52.6282 20.5611C52.4698 20.7702 52.2353 20.935 51.9247 21.0554C51.6206 21.1694 51.2498 21.2265 50.8126 21.2265ZM57.2412 21.179V20.0763L57.2127 19.8957V18.0515C57.2127 17.6269 57.0923 17.3005 56.8515 17.0724C56.617 16.8442 56.2653 16.7302 55.7963 16.7302C55.4731 16.7302 55.1658 16.784 54.8743 16.8918C54.5827 16.9995 54.3356 17.1421 54.1328 17.3195L53.8286 16.8157C54.0821 16.6003 54.3863 16.4355 54.7412 16.3214C55.0961 16.201 55.47 16.1408 55.8629 16.1408C56.5093 16.1408 57.0068 16.3024 57.3553 16.6256C57.7102 16.9425 57.8876 17.4273 57.8876 18.08V21.179H57.2412ZM55.5207 21.2265C55.1468 21.2265 54.8204 21.1663 54.5416 21.0459C54.2691 20.9191 54.0599 20.748 53.9142 20.5326C53.7684 20.3107 53.6955 20.0573 53.6955 19.7721C53.6955 19.5122 53.7557 19.2778 53.8761 19.0686C54.0029 18.8532 54.2057 18.6821 54.4845 18.5553C54.7697 18.4222 55.1499 18.3557 55.6252 18.3557H57.3458V18.8595H55.6442C55.1626 18.8595 54.8267 18.9451 54.6366 19.1162C54.4528 19.2873 54.3609 19.4996 54.3609 19.7531C54.3609 20.0382 54.4718 20.2664 54.6936 20.4375C54.9155 20.6086 55.226 20.6942 55.6252 20.6942C56.0055 20.6942 56.3318 20.6086 56.6043 20.4375C56.8832 20.26 57.086 20.0066 57.2127 19.677L57.3648 20.1428C57.2381 20.4723 57.0163 20.7353 56.6994 20.9318C56.3889 21.1283 55.996 21.2265 55.5207 21.2265ZM59.7208 21.179V14.1255H60.3957V21.179H59.7208ZM64.3935 21.2265C63.8738 21.2265 63.4175 21.1188 63.0246 20.9033C62.6317 20.6815 62.3244 20.3805 62.1026 20.0002C61.8808 19.6136 61.7699 19.1732 61.7699 18.6789C61.7699 18.1846 61.8744 17.7473 62.0835 17.3671C62.299 16.9868 62.5905 16.689 62.9581 16.4735C63.332 16.2517 63.7503 16.1408 64.2129 16.1408C64.6818 16.1408 65.0969 16.2485 65.4582 16.464C65.8257 16.6731 66.1141 16.971 66.3232 17.3576C66.5323 17.7378 66.6369 18.1782 66.6369 18.6789C66.6369 18.7106 66.6337 18.7454 66.6274 18.7835C66.6274 18.8151 66.6274 18.85 66.6274 18.888H62.2832V18.3842H66.2662L66 18.5838C66 18.2226 65.9208 17.9026 65.7623 17.6237C65.6103 17.3386 65.4011 17.1168 65.135 16.9583C64.8688 16.7999 64.5614 16.7207 64.2129 16.7207C63.8707 16.7207 63.5633 16.7999 63.2908 16.9583C63.0183 17.1168 62.806 17.3386 62.6539 17.6237C62.5018 17.9089 62.4258 18.2353 62.4258 18.6028V18.7074C62.4258 19.0876 62.5081 19.4235 62.6729 19.715C62.844 20.0002 63.0785 20.2252 63.3764 20.39C63.6805 20.5484 64.0259 20.6276 64.4125 20.6276C64.7167 20.6276 64.9987 20.5737 65.2585 20.466C65.5247 20.3583 65.7528 20.1935 65.943 19.9717L66.3232 20.409C66.1014 20.6751 65.8226 20.8779 65.4867 21.0174C65.1571 21.1568 64.7927 21.2265 64.3935 21.2265ZM69.351 21.2265C68.9391 21.2265 68.5493 21.1694 68.1818 21.0554C67.8142 20.935 67.5258 20.786 67.3167 20.6086L67.6209 20.0763C67.8237 20.2284 68.0835 20.3614 68.4004 20.4755C68.7173 20.5832 69.05 20.6371 69.3985 20.6371C69.8738 20.6371 70.216 20.5642 70.4252 20.4185C70.6343 20.2664 70.7389 20.0668 70.7389 19.8196C70.7389 19.6358 70.6787 19.4932 70.5582 19.3918C70.4442 19.2841 70.2921 19.2049 70.102 19.1542C69.9118 19.0972 69.6995 19.0496 69.4651 19.0116C69.2306 18.9736 68.9961 18.9292 68.7616 18.8785C68.5335 18.8278 68.3243 18.7549 68.1342 18.6599C67.9441 18.5585 67.7888 18.4222 67.6684 18.2511C67.5544 18.08 67.4973 17.8519 67.4973 17.5667C67.4973 17.2942 67.5734 17.0502 67.7255 16.8347C67.8776 16.6193 68.0994 16.4513 68.3909 16.3309C68.6887 16.2042 69.05 16.1408 69.4746 16.1408C69.7978 16.1408 70.121 16.1852 70.4442 16.2739C70.7674 16.3563 71.0335 16.4672 71.2427 16.6066L70.948 17.1484C70.7262 16.9963 70.4885 16.8886 70.235 16.8252C69.9816 16.7555 69.7281 16.7207 69.4746 16.7207C69.0246 16.7207 68.6919 16.7999 68.4764 16.9583C68.2673 17.1104 68.1627 17.3069 68.1627 17.5477C68.1627 17.7378 68.2198 17.8867 68.3339 17.9945C68.4543 18.1022 68.6095 18.1878 68.7996 18.2511C68.9961 18.3082 69.2084 18.3557 69.4365 18.3937C69.671 18.4317 69.9023 18.4793 70.1305 18.5363C70.365 18.587 70.5773 18.6599 70.7674 18.7549C70.9638 18.8437 71.1191 18.9736 71.2332 19.1447C71.3536 19.3095 71.4138 19.5281 71.4138 19.8006C71.4138 20.0921 71.3314 20.3456 71.1666 20.5611C71.0082 20.7702 70.7737 20.935 70.4632 21.0554C70.159 21.1694 69.7883 21.2265 69.351 21.2265ZM77.7162 21.2265C77.2789 21.2265 76.886 21.1283 76.5375 20.9318C76.1889 20.729 75.9133 20.4375 75.7105 20.0573C75.5077 19.677 75.4063 19.2176 75.4063 18.6789C75.4063 18.1339 75.5077 17.6744 75.7105 17.3005C75.9196 16.9203 76.1984 16.6319 76.547 16.4355C76.8955 16.239 77.2853 16.1408 77.7162 16.1408C78.1915 16.1408 78.6161 16.2485 78.99 16.464C79.3703 16.6731 79.6681 16.9678 79.8836 17.3481C80.099 17.7283 80.2068 18.1719 80.2068 18.6789C80.2068 19.1795 80.099 19.6231 79.8836 20.0097C79.6681 20.39 79.3703 20.6878 78.99 20.9033C78.6161 21.1188 78.1915 21.2265 77.7162 21.2265ZM75.1401 21.179V14.1255H75.815V17.6618L75.72 18.6694L75.7865 19.677V21.179H75.1401ZM77.6687 20.6276C78.0236 20.6276 78.3404 20.5484 78.6193 20.39C78.8981 20.2252 79.1199 19.9971 79.2847 19.7055C79.4495 19.4077 79.5319 19.0655 79.5319 18.6789C79.5319 18.286 79.4495 17.9438 79.2847 17.6523C79.1199 17.3607 78.8981 17.1358 78.6193 16.9773C78.3404 16.8126 78.0236 16.7302 77.6687 16.7302C77.3138 16.7302 76.9938 16.8126 76.7086 16.9773C76.4297 17.1358 76.2079 17.3607 76.0432 17.6523C75.8847 17.9438 75.8055 18.286 75.8055 18.6789C75.8055 19.0655 75.8847 19.4077 76.0432 19.7055C76.2079 19.9971 76.4297 20.2252 76.7086 20.39C76.9938 20.5484 77.3138 20.6276 77.6687 20.6276ZM84.6822 21.179V20.0763L84.6537 19.8957V18.0515C84.6537 17.6269 84.5333 17.3005 84.2925 17.0724C84.058 16.8442 83.7063 16.7302 83.2373 16.7302C82.9141 16.7302 82.6067 16.784 82.3152 16.8918C82.0237 16.9995 81.7766 17.1421 81.5738 17.3195L81.2696 16.8157C81.5231 16.6003 81.8273 16.4355 82.1822 16.3214C82.537 16.201 82.9109 16.1408 83.3039 16.1408C83.9503 16.1408 84.4477 16.3024 84.7963 16.6256C85.1512 16.9425 85.3286 17.4273 85.3286 18.08V21.179H84.6822ZM82.9616 21.2265C82.5877 21.2265 82.2614 21.1663 81.9825 21.0459C81.71 20.9191 81.5009 20.748 81.3551 20.5326C81.2094 20.3107 81.1365 20.0573 81.1365 19.7721C81.1365 19.5122 81.1967 19.2778 81.3171 19.0686C81.4439 18.8532 81.6466 18.6821 81.9255 18.5553C82.2107 18.4222 82.5909 18.3557 83.0662 18.3557H84.7868V18.8595H83.0852C82.6036 18.8595 82.2677 18.9451 82.0776 19.1162C81.8938 19.2873 81.8019 19.4996 81.8019 19.7531C81.8019 20.0382 81.9128 20.2664 82.1346 20.4375C82.3564 20.6086 82.667 20.6942 83.0662 20.6942C83.4464 20.6942 83.7728 20.6086 84.0453 20.4375C84.3242 20.26 84.5269 20.0066 84.6537 19.677L84.8058 20.1428C84.679 20.4723 84.4572 20.7353 84.1404 20.9318C83.8298 21.1283 83.4369 21.2265 82.9616 21.2265ZM89.7094 16.1408C90.115 16.1408 90.4698 16.22 90.774 16.3785C91.0846 16.5306 91.3254 16.765 91.4965 17.0819C91.6739 17.3988 91.7627 17.798 91.7627 18.2796V21.179H91.0877V18.3462C91.0877 17.8202 90.9546 17.4241 90.6885 17.1579C90.4287 16.8854 90.0611 16.7492 89.5858 16.7492C89.2309 16.7492 88.9204 16.8221 88.6542 16.9678C88.3944 17.1072 88.1916 17.3132 88.0458 17.5857C87.9064 17.8519 87.8367 18.1751 87.8367 18.5553V21.179H87.1618V16.1883H87.8082V17.5572L87.7036 17.3005C87.862 16.9393 88.1155 16.6573 88.4641 16.4545C88.8126 16.2454 89.2277 16.1408 89.7094 16.1408ZM95.658 21.2265C95.1637 21.2265 94.7201 21.1188 94.3272 20.9033C93.9406 20.6815 93.6364 20.3805 93.4146 20.0002C93.1928 19.6136 93.0819 19.1732 93.0819 18.6789C93.0819 18.1782 93.1928 17.7378 93.4146 17.3576C93.6364 16.9773 93.9406 16.6795 94.3272 16.464C94.7201 16.2485 95.1637 16.1408 95.658 16.1408C96.0826 16.1408 96.466 16.2232 96.8082 16.388C97.1504 16.5527 97.4198 16.7999 97.6162 17.1294L97.1124 17.4716C96.9413 17.2181 96.729 17.0312 96.4755 16.9108C96.222 16.7904 95.9464 16.7302 95.6485 16.7302C95.2936 16.7302 94.9736 16.8126 94.6884 16.9773C94.4032 17.1358 94.1782 17.3607 94.0135 17.6523C93.8487 17.9438 93.7663 18.286 93.7663 18.6789C93.7663 19.0718 93.8487 19.414 94.0135 19.7055C94.1782 19.9971 94.4032 20.2252 94.6884 20.39C94.9736 20.5484 95.2936 20.6276 95.6485 20.6276C95.9464 20.6276 96.222 20.5674 96.4755 20.447C96.729 20.3266 96.9413 20.1428 97.1124 19.8957L97.6162 20.2379C97.4198 20.5611 97.1504 20.8082 96.8082 20.9793C96.466 21.1441 96.0826 21.2265 95.658 21.2265ZM102.07 21.179V20.0763L102.041 19.8957V18.0515C102.041 17.6269 101.921 17.3005 101.68 17.0724C101.445 16.8442 101.094 16.7302 100.625 16.7302C100.301 16.7302 99.9941 16.784 99.7026 16.8918C99.411 16.9995 99.1639 17.1421 98.9611 17.3195L98.6569 16.8157C98.9104 16.6003 99.2146 16.4355 99.5695 16.3214C99.9244 16.201 100.298 16.1408 100.691 16.1408C101.338 16.1408 101.835 16.3024 102.184 16.6256C102.539 16.9425 102.716 17.4273 102.716 18.08V21.179H102.07ZM100.349 21.2265C99.9751 21.2265 99.6487 21.1663 99.3699 21.0459C99.0974 20.9191 98.8882 20.748 98.7425 20.5326C98.5967 20.3107 98.5238 20.0573 98.5238 19.7721C98.5238 19.5122 98.584 19.2778 98.7044 19.0686C98.8312 18.8532 99.034 18.6821 99.3128 18.5553C99.598 18.4222 99.9782 18.3557 100.454 18.3557H102.174V18.8595H100.473C99.9909 18.8595 99.655 18.9451 99.4649 19.1162C99.2811 19.2873 99.1892 19.4996 99.1892 19.7531C99.1892 20.0382 99.3001 20.2664 99.5219 20.4375C99.7438 20.6086 100.054 20.6942 100.454 20.6942C100.834 20.6942 101.16 20.6086 101.433 20.4375C101.711 20.26 101.914 20.0066 102.041 19.677L102.193 20.1428C102.066 20.4723 101.845 20.7353 101.528 20.9318C101.217 21.1283 100.824 21.2265 100.349 21.2265ZM104.549 21.179V16.1883H105.196V17.5477L105.129 17.31C105.268 16.9298 105.503 16.6415 105.832 16.445C106.162 16.2422 106.571 16.1408 107.059 16.1408V16.7967C107.033 16.7967 107.008 16.7967 106.983 16.7967C106.957 16.7904 106.932 16.7872 106.907 16.7872C106.381 16.7872 105.969 16.9488 105.671 17.272C105.373 17.5889 105.224 18.042 105.224 18.6314V21.179H104.549ZM108.29 21.179V16.1883H108.965V21.179H108.29ZM108.632 15.0856C108.493 15.0856 108.376 15.0381 108.281 14.9431C108.186 14.848 108.138 14.7339 108.138 14.6008C108.138 14.4678 108.186 14.3569 108.281 14.2681C108.376 14.1731 108.493 14.1255 108.632 14.1255C108.772 14.1255 108.889 14.1699 108.984 14.2586C109.079 14.3474 109.127 14.4583 109.127 14.5913C109.127 14.7308 109.079 14.848 108.984 14.9431C108.895 15.0381 108.778 15.0856 108.632 15.0856ZM112.877 21.2265C112.396 21.2265 111.962 21.1188 111.575 20.9033C111.195 20.6815 110.894 20.3805 110.672 20.0002C110.45 19.6136 110.339 19.1732 110.339 18.6789C110.339 18.1782 110.45 17.7378 110.672 17.3576C110.894 16.9773 111.195 16.6795 111.575 16.464C111.955 16.2485 112.389 16.1408 112.877 16.1408C113.372 16.1408 113.809 16.2485 114.189 16.464C114.576 16.6795 114.877 16.9773 115.092 17.3576C115.314 17.7378 115.425 18.1782 115.425 18.6789C115.425 19.1732 115.314 19.6136 115.092 20.0002C114.877 20.3805 114.576 20.6815 114.189 20.9033C113.803 21.1188 113.365 21.2265 112.877 21.2265ZM112.877 20.6276C113.239 20.6276 113.559 20.5484 113.837 20.39C114.116 20.2252 114.335 19.9971 114.493 19.7055C114.658 19.4077 114.741 19.0655 114.741 18.6789C114.741 18.286 114.658 17.9438 114.493 17.6523C114.335 17.3607 114.116 17.1358 113.837 16.9773C113.559 16.8126 113.242 16.7302 112.887 16.7302C112.532 16.7302 112.215 16.8126 111.936 16.9773C111.657 17.1358 111.436 17.3607 111.271 17.6523C111.106 17.9438 111.024 18.286 111.024 18.6789C111.024 19.0655 111.106 19.4077 111.271 19.7055C111.436 19.9971 111.657 20.2252 111.936 20.39C112.215 20.5484 112.529 20.6276 112.877 20.6276ZM118.143 21.2265C117.731 21.2265 117.342 21.1694 116.974 21.0554C116.606 20.935 116.318 20.786 116.109 20.6086L116.413 20.0763C116.616 20.2284 116.876 20.3614 117.193 20.4755C117.509 20.5832 117.842 20.6371 118.191 20.6371C118.666 20.6371 119.008 20.5642 119.217 20.4185C119.426 20.2664 119.531 20.0668 119.531 19.8196C119.531 19.6358 119.471 19.4932 119.35 19.3918C119.236 19.2841 119.084 19.2049 118.894 19.1542C118.704 19.0972 118.492 19.0496 118.257 19.0116C118.023 18.9736 117.788 18.9292 117.554 18.8785C117.326 18.8278 117.117 18.7549 116.926 18.6599C116.736 18.5585 116.581 18.4222 116.461 18.2511C116.347 18.08 116.29 17.8519 116.29 17.5667C116.29 17.2942 116.366 17.0502 116.518 16.8347C116.67 16.6193 116.892 16.4513 117.183 16.3309C117.481 16.2042 117.842 16.1408 118.267 16.1408C118.59 16.1408 118.913 16.1852 119.236 16.2739C119.56 16.3563 119.826 16.4672 120.035 16.6066L119.74 17.1484C119.518 16.9963 119.281 16.8886 119.027 16.8252C118.774 16.7555 118.52 16.7207 118.267 16.7207C117.817 16.7207 117.484 16.7999 117.269 16.9583C117.06 17.1104 116.955 17.3069 116.955 17.5477C116.955 17.7378 117.012 17.8867 117.126 17.9945C117.246 18.1022 117.402 18.1878 117.592 18.2511C117.788 18.3082 118.001 18.3557 118.229 18.3937C118.463 18.4317 118.695 18.4793 118.923 18.5363C119.157 18.587 119.369 18.6599 119.56 18.7549C119.756 18.8437 119.911 18.9736 120.025 19.1447C120.146 19.3095 120.206 19.5281 120.206 19.8006C120.206 20.0921 120.124 20.3456 119.959 20.5611C119.8 20.7702 119.566 20.935 119.255 21.0554C118.951 21.1694 118.58 21.2265 118.143 21.2265Z" fill="#4A546A"/>
</svg>
