<svg width="32" height="32" viewBox="0 0 32 32" fill="none" xmlns="http://www.w3.org/2000/svg">
<path fill-rule="evenodd" clip-rule="evenodd" d="M29.4934 24.3419V26.5516V27.7775H28.9601V27.4799C28.791 27.7005 28.5347 27.839 28.1861 27.839C27.499 27.839 26.9603 27.3003 26.9603 26.5522C26.9603 25.804 27.4993 25.2654 28.1861 25.2654C28.5347 25.2654 28.791 25.4038 28.9601 25.6244V24.3419H29.4934ZM9.5043 25.3257V26.5515H9.5037V27.7774H8.97144V27.4798C8.80243 27.7003 8.54593 27.8389 8.19746 27.8389C7.51037 27.8389 6.97169 27.3002 6.97169 26.5521C6.97169 25.8039 7.51067 25.2652 8.19746 25.2652C8.54608 25.2652 8.80243 25.4036 8.97144 25.6243V25.3257H9.5043ZM7.52057 26.5515C7.52057 26.1208 7.80275 25.7669 8.26395 25.7669C8.70469 25.7669 9.0021 26.1056 9.0021 26.5515C9.0021 26.9975 8.70469 27.3361 8.26395 27.3361C7.80275 27.3361 7.52057 26.9823 7.52057 26.5515ZM30.5571 27.4956C30.5103 27.4496 30.4473 27.4239 30.3817 27.424L30.3824 27.4214C30.3488 27.4212 30.3155 27.4278 30.2845 27.4408C30.2548 27.4527 30.2278 27.4705 30.2052 27.4931C30.1826 27.5152 30.1647 27.5415 30.1523 27.5706C30.1266 27.6309 30.1266 27.6991 30.1523 27.7594C30.1645 27.7892 30.1821 27.8164 30.2045 27.8395C30.2274 27.8617 30.2543 27.8794 30.2837 27.8917C30.3147 27.9048 30.3481 27.9114 30.3817 27.9111C30.4149 27.9113 30.4478 27.9047 30.4784 27.8917C30.5076 27.8791 30.5342 27.8614 30.5571 27.8395C30.5794 27.8172 30.5973 27.7909 30.61 27.762C30.6357 27.7017 30.6357 27.6334 30.61 27.5731C30.5976 27.544 30.5797 27.5177 30.5571 27.4956ZM30.3816 27.8553C30.4068 27.8556 30.4318 27.8505 30.4549 27.8404C30.4772 27.8308 30.4975 27.8171 30.5147 27.7999C30.5319 27.7828 30.5456 27.7625 30.5551 27.7402C30.5747 27.6929 30.5747 27.6397 30.5551 27.5924C30.5455 27.5701 30.5317 27.5499 30.5147 27.5327C30.4975 27.5155 30.4772 27.5018 30.4549 27.4922C30.4317 27.4827 30.4068 27.4779 30.3816 27.4782C30.3561 27.4779 30.3307 27.4827 30.307 27.4922C30.2842 27.5016 30.2635 27.5154 30.2459 27.5327C30.1919 27.5881 30.1762 27.6703 30.2061 27.7417C30.2151 27.7641 30.2287 27.7844 30.2459 27.8014C30.2635 27.8187 30.2842 27.8325 30.307 27.8419C30.3306 27.852 30.356 27.857 30.3816 27.8568V27.8553ZM30.4634 27.5708C30.444 27.5568 30.4204 27.55 30.3965 27.5514L30.3973 27.5516H30.2928V27.7775H30.3408V27.693H30.3631L30.4318 27.7775H30.4892L30.4146 27.6924C30.4343 27.6909 30.4531 27.6831 30.468 27.6701C30.4807 27.6581 30.4876 27.6412 30.4868 27.6237C30.4879 27.6033 30.4792 27.5837 30.4634 27.5708ZM30.3402 27.6926V27.5941V27.5931H30.3974C30.4082 27.5924 30.4189 27.5968 30.4282 27.6057C30.4357 27.6139 30.4401 27.6278 30.4397 27.6424C30.4401 27.6572 30.4357 27.6714 30.4282 27.68C30.4188 27.6885 30.4082 27.6929 30.3974 27.6926H30.3402ZM27.5088 26.5515C27.5088 26.1208 27.791 25.7669 28.2524 25.7669C28.6935 25.7669 28.9905 26.1056 28.9905 26.5515C28.9905 26.9975 28.6935 27.3361 28.2524 27.3361C27.7912 27.3361 27.5088 26.9823 27.5088 26.5515ZM16.1179 25.7419C16.4612 25.7419 16.6816 25.9572 16.7379 26.3362H15.4665C15.5234 25.9824 15.7382 25.7419 16.1179 25.7419ZM14.908 26.5508C14.908 25.7866 15.4104 25.264 16.1286 25.264L16.1283 25.2639C16.8142 25.2639 17.2865 25.7867 17.2919 26.5507C17.2919 26.6211 17.2867 26.6869 17.2816 26.752L17.2813 26.7555H15.4618C15.5387 27.1967 15.8513 27.3557 16.1947 27.3557C16.4406 27.3557 16.7022 27.2636 16.9076 27.0994L17.1688 27.4943C16.8713 27.7456 16.5333 27.8377 16.1642 27.8377C15.4306 27.8377 14.908 27.33 14.908 26.5508ZM22.5617 26.5507C22.5617 26.12 22.8439 25.7661 23.3051 25.7661C23.7458 25.7661 24.0432 26.1048 24.0432 26.5507C24.0432 26.9967 23.7458 27.3353 23.3051 27.3353C22.8439 27.3353 22.5615 26.9815 22.5615 26.5507H22.5617ZM24.5453 25.3257V26.5506L24.5455 26.5515V27.7774H24.0128V27.4798C23.8432 27.7003 23.5874 27.8389 23.2388 27.8389C22.5517 27.8389 22.013 27.3002 22.013 26.5521C22.013 25.8039 22.552 25.2652 23.2388 25.2652C23.5874 25.2652 23.8432 25.4036 24.0128 25.6243V25.3257H24.5453ZM19.5526 26.5507C19.5526 27.2941 20.07 27.8375 20.8598 27.8375C21.2289 27.8375 21.4748 27.7554 21.7407 27.5453L21.4848 27.1146C21.2848 27.2584 21.0747 27.3353 20.8428 27.3353C20.4175 27.33 20.1047 27.0225 20.1047 26.5507C20.1047 26.0789 20.4175 25.7715 20.8428 25.7661C21.0741 25.7661 21.2842 25.843 21.4848 25.9868L21.7407 25.556C21.4744 25.346 21.2285 25.2639 20.8598 25.2639C20.07 25.2639 19.5526 25.8072 19.5526 26.5507ZM25.7759 25.6229C25.9143 25.4076 26.1145 25.2639 26.4219 25.2639L26.4216 25.2643C26.5296 25.2643 26.6834 25.2848 26.8013 25.3312L26.6371 25.8334C26.5312 25.7911 26.4179 25.7701 26.3039 25.7718C25.9555 25.7718 25.7813 25.9971 25.7813 26.4026V27.7762H25.2478V25.3258H25.7759V25.6229ZM12.1388 25.5206C11.8825 25.3516 11.5292 25.2642 11.1396 25.2642C10.5188 25.2642 10.1191 25.5618 10.1191 26.0487C10.1191 26.4482 10.4166 26.6947 10.9646 26.7716L11.2163 26.8074C11.5085 26.8485 11.6464 26.9254 11.6464 27.0638C11.6464 27.2532 11.4523 27.3613 11.0879 27.3613C10.7188 27.3613 10.4525 27.2434 10.2729 27.105L10.0225 27.5205C10.3147 27.7358 10.6837 27.8385 11.0834 27.8385C11.7911 27.8385 12.2012 27.5052 12.2012 27.0387C12.2012 26.6079 11.8785 26.3826 11.3452 26.3057L11.094 26.2693C10.8634 26.2395 10.6785 26.193 10.6785 26.0288C10.6785 25.8496 10.8528 25.7418 11.1451 25.7418C11.4579 25.7418 11.7607 25.8598 11.9091 25.9519L12.1397 25.5212L12.1388 25.5206ZM18.369 25.6237C18.5068 25.4084 18.707 25.2647 19.0144 25.2647L19.0141 25.2642C19.1221 25.2642 19.2758 25.2847 19.3938 25.3311L19.2295 25.8334C19.1236 25.791 19.0104 25.77 18.8963 25.7717C18.548 25.7717 18.3738 25.997 18.3738 26.4025V27.7761H17.8409V25.3257H18.369V25.6237ZM14.4673 25.3259H13.596V24.5825H13.0573V25.3259H12.5603V25.8129H13.0573V26.9307C13.0573 27.4992 13.278 27.8379 13.9083 27.8379C14.1396 27.8379 14.4059 27.7662 14.575 27.6484L14.421 27.1921C14.262 27.2842 14.0878 27.3307 13.9492 27.3307C13.6829 27.3307 13.596 27.1664 13.596 26.9205V25.8133H14.4673V25.3259ZM6.50056 26.2389V27.7767L5.96069 27.7755V26.4118C5.96069 25.9964 5.78705 25.7658 5.4232 25.7658C5.0695 25.7658 4.8236 25.9918 4.8236 26.4172V27.7758H4.28492V26.4121C4.28492 25.9967 4.10591 25.7661 3.75206 25.7661C3.38776 25.7661 3.15187 25.9921 3.15187 26.4175V27.7761H2.61438V25.3258H3.14769V25.6287C3.3479 25.3417 3.60366 25.2648 3.86538 25.2648C4.23983 25.2648 4.50619 25.4291 4.6752 25.7008C4.90109 25.357 5.22373 25.2596 5.53652 25.2648C6.13149 25.2701 6.50056 25.6598 6.50056 26.2389Z" fill="#231F20"/>
<path d="M20.038 21.1624H11.9628V6.65027H20.0381L20.038 21.1624Z" fill="#FF5F00"/>
<path d="M12.4748 13.9067C12.4748 10.9629 13.8531 8.34059 15.9995 6.65064C14.3748 5.36955 12.3653 4.67426 10.2963 4.67732C5.1996 4.67732 1.06812 8.8094 1.06812 13.9067C1.06812 19.004 5.1996 23.1361 10.2963 23.1361C12.3654 23.1392 14.3749 22.4439 15.9997 21.1628C13.8534 19.4731 12.4748 16.8507 12.4748 13.9067Z" fill="#EB001B"/>
<path d="M30.9322 13.9068C30.9322 19.0041 26.8007 23.1362 21.704 23.1362C19.6347 23.1392 17.625 22.4439 15.9999 21.1629C18.1469 19.4729 19.5253 16.8507 19.5253 13.9068C19.5253 10.9628 18.1469 8.34065 15.9999 6.6507C17.6249 5.36965 19.6346 4.67437 21.7039 4.67738C26.8006 4.67738 30.9321 8.80946 30.9321 13.9068" fill="#F79E1B"/>
</svg>
