<svg width="57" height="56" viewBox="0 0 57 56" fill="none" xmlns="http://www.w3.org/2000/svg">
<path d="M33.4002 47.6C41.5188 47.6 48.1002 41.6454 48.1002 34.3C48.1002 26.9546 41.5188 21 33.4002 21C25.2816 21 18.7002 26.9546 18.7002 34.3C18.7002 41.6454 25.2816 47.6 33.4002 47.6Z" fill="#00F6B4"/>
<path d="M39.5872 11.3022L44.0212 15.0191C44.3265 15.2751 44.6973 15.4 45.0661 15.4C45.5339 15.4 45.9981 15.1991 46.3211 14.8098C46.8987 14.1136 46.8055 13.0785 46.1128 12.4979L41.6788 8.78091C40.9864 8.20031 39.9565 8.29396 39.3789 8.99028C38.8013 9.68651 38.8945 10.7216 39.5872 11.3022Z" fill="#000927"/>
<path d="M11.2345 15.4C11.6033 15.4 11.9742 15.2751 12.2795 15.0191L16.7134 11.3022C17.406 10.7216 17.4993 9.68648 16.9217 8.99024C16.3442 8.29407 15.3144 8.20026 14.6218 8.78086L10.1878 12.4978C9.49518 13.0784 9.40185 14.1136 9.97943 14.8098C10.3025 15.1991 10.7668 15.4 11.2345 15.4Z" fill="#000927"/>
<path d="M42.3597 15.9515C39.0521 12.6845 34.7702 10.7303 30.1614 10.3507V8.64062C30.1614 7.73451 29.4178 7 28.5004 7C27.583 7 26.8394 7.73451 26.8394 8.64062V10.3507C22.2305 10.7303 17.9487 12.6844 14.6411 15.9514C10.9391 19.608 8.90039 24.4695 8.90039 29.6406C8.90039 34.8117 10.9391 39.6733 14.6411 43.3298C18.343 46.9863 23.265 49 28.5004 49C32.7156 49 36.7322 47.6982 40.1162 45.2353C40.8548 44.6978 41.0122 43.6708 40.4681 42.9413C39.9239 42.2117 38.884 42.0562 38.1455 42.5937C35.3366 44.6382 32.0013 45.7188 28.5004 45.7188C19.5247 45.7188 12.2224 38.5062 12.2224 29.6406C12.2224 20.7751 19.5247 13.5625 28.5004 13.5625C37.4761 13.5625 44.7784 20.7751 44.7784 29.6406C44.7784 32.3485 44.0845 35.025 42.7718 37.3808C42.3294 38.1746 42.6224 39.1722 43.426 39.6091C44.2295 40.0459 45.2397 39.7568 45.6821 38.9629C47.2642 36.1237 48.1004 32.9001 48.1004 29.6406C48.1004 24.4695 46.0617 19.608 42.3597 15.9515Z" fill="#000927"/>
<path d="M28.3423 18.0003C27.4415 18.0085 26.7047 18.7427 26.697 19.6404L26.6274 27.7865C26.4811 27.8716 26.3393 27.9687 26.2037 28.0786C24.7956 29.2189 24.561 31.2716 25.6809 32.6545C26.8007 34.0374 28.8574 34.2348 30.2655 33.0945C31.6737 31.9542 31.9082 29.9014 30.7884 28.5185C30.5319 28.2018 30.2258 27.948 29.8901 27.7575L29.9597 19.6106C29.9674 18.713 29.2432 17.9919 28.3423 18.0003Z" fill="#000927"/>
</svg>
