<svg width="25" height="24" viewBox="0 0 25 24" fill="none" xmlns="http://www.w3.org/2000/svg">
<g clip-path="url(#clip0_2992_19219)">
<path d="M12.4307 23.9025C18.9899 23.9025 24.3073 18.5736 24.3073 12C24.3073 5.4265 18.9899 0.0975952 12.4307 0.0975952C5.87141 0.0975952 0.554077 5.4265 0.554077 12C0.554077 18.5736 5.87141 23.9025 12.4307 23.9025Z" fill="url(#paint0_radial_2992_19219)"/>
<path d="M15.6339 9.0719H12.8223C12.8097 9.0719 12.7971 9.07011 12.7847 9.07266C12.3374 9.1699 11.4943 9.62822 11.4986 10.6292C11.4754 11.0143 11.6437 11.6274 12.4473 11.8829C12.4497 11.8829 14.4514 11.8829 14.4514 11.8829C14.5402 11.8829 15.0875 12.0084 15.0511 12.9651C15.0144 13.9297 14.1939 14.055 14.0758 14.1828H10.9704C10.8725 14.1828 10.7931 14.2764 10.7931 14.3745C10.7931 14.4726 10.8725 14.5661 10.9704 14.5661H14.0929C14.103 14.5661 14.1129 14.5194 14.1229 14.5176C14.5492 14.4445 15.3658 14.0062 15.4057 12.9579C15.4572 11.6021 14.4784 11.5165 14.4685 11.5158C14.4699 11.5154 12.4904 11.5101 12.4904 11.5101C11.8145 11.3861 11.851 10.667 11.853 10.6357C11.8533 10.6314 11.8534 10.6426 11.8534 10.6383C11.8462 9.73019 12.7072 9.45522 12.8433 9.45522H15.634C15.7319 9.45522 15.8114 9.36169 15.8114 9.26356C15.8112 9.16543 15.7318 9.0719 15.6339 9.0719Z" fill="white"/>
<path d="M19.9146 9.05184C19.8984 9.04724 19.8816 9.0719 19.8648 9.0719H17.764C16.8131 9.0719 16.3835 10.1755 16.3658 10.2236C16.3629 10.2314 16.3607 10.2257 16.3588 10.2339C16.337 10.3326 15.825 12.6535 15.8422 13.4198C15.8587 14.1407 16.5912 14.4027 16.9762 14.444C16.9826 14.4448 16.989 14.4385 16.9955 14.4385H19.916C20.0152 14.4385 20.0958 14.3462 20.0958 14.2468C20.0958 14.1474 20.0154 14.0552 19.916 14.0552H17.0065C16.915 14.0552 16.2145 13.9481 16.2019 13.3901C16.1951 13.0906 16.2802 12.5174 16.3827 11.9384L20.4472 11.908C20.5339 11.9073 20.6078 11.8464 20.6227 11.7606C20.6306 11.7159 20.8132 10.6742 20.8132 10.0495C20.8131 9.30624 19.9514 9.06257 19.9146 9.05184ZM20.2929 11.5525L16.4486 11.5847C16.5666 10.9569 16.6867 10.4424 16.707 10.35C16.748 10.2472 17.1007 9.45509 17.764 9.45509H19.8364C19.9485 9.45509 20.4537 9.65391 20.4537 10.0752C20.4537 10.5358 20.3433 11.2387 20.2929 11.5525Z" fill="white"/>
<path d="M10.9638 10.1508C11.0693 9.43184 10.1632 9.0719 9.99362 9.0719C9.99337 9.0719 9.99311 9.0719 9.99311 9.0719C9.26145 9.0719 8.15305 9.09707 8.03742 9.09311C8.02199 9.09145 8.00605 9.10167 7.98999 9.1041C7.53689 9.17642 6.92162 9.76123 6.72401 10.3022L6.72707 10.3059C6.70731 10.3662 6.68997 10.4593 6.66358 10.599C6.63158 10.7681 6.58683 11.0102 6.53342 11.2999C6.42683 11.8787 6.28621 12.6508 6.14597 13.4226C5.8655 14.9659 5.58706 16.5093 5.58706 16.5093C5.56985 16.6045 5.63295 16.6957 5.72793 16.713C5.73839 16.7149 5.74884 16.7159 5.75917 16.7159C5.84204 16.7159 5.91573 16.6566 5.9309 16.5718C6.0487 15.9194 6.24185 14.8509 6.43538 13.7857C6.89166 14.3626 7.45925 14.4232 7.48768 14.4258C7.49469 14.4266 7.5017 14.4271 7.50897 14.4265L9.30543 14.375C9.32086 14.3746 9.3359 14.3722 9.35056 14.3677C10.2028 14.1115 10.4591 13.2301 10.4697 13.1927C10.4713 13.1864 10.4729 13.1801 10.4739 13.1735L10.9615 10.1799C10.9628 10.1736 10.9629 10.1572 10.9638 10.1508ZM10.615 10.144L10.1309 13.1053C10.1057 13.1847 9.88309 13.8284 9.27177 14.0254L7.51241 14.0757C7.43133 14.0644 6.88236 13.9632 6.52666 13.2842C6.78572 11.8591 7.02361 10.5603 7.05434 10.4225C7.2174 9.98343 7.74483 9.51169 8.04073 9.46097C8.10779 9.46506 8.19946 9.46519 8.32631 9.46544C8.51155 9.4657 8.75901 9.46557 9.00621 9.46506C9.41584 9.46442 9.82521 9.46301 9.95334 9.4625C10.1609 9.46097 10.6655 9.81401 10.615 10.144Z" fill="white"/>
<path d="M2.8716 8.97016C3.14782 8.97016 3.37175 8.73075 3.37175 8.43543C3.37175 8.1401 3.14782 7.9007 2.8716 7.9007C2.59538 7.9007 2.37146 8.1401 2.37146 8.43543C2.37146 8.73075 2.59538 8.97016 2.8716 8.97016Z" fill="#FDB718"/>
<path d="M2.36667 6.74741C2.36667 6.51244 2.22401 6.31503 2.02691 6.24335C1.86041 6.54528 1.70653 6.85525 1.56616 7.17251C1.65005 7.24036 1.75332 7.28214 1.86653 7.28214C2.1428 7.28214 2.36667 7.0427 2.36667 6.74741Z" fill="#FDB718"/>
<path d="M1.35681 8.43545C1.35681 8.29043 1.30237 8.15921 1.21466 8.06287C1.1119 8.35726 1.02024 8.65676 0.94043 8.96111C1.17654 8.91831 1.35681 8.70007 1.35681 8.43545Z" fill="#FDB718"/>
<path d="M2.94131 15.4848C3.21753 15.4848 3.44145 15.2454 3.44145 14.9501C3.44145 14.6548 3.21753 14.4153 2.94131 14.4153C2.66508 14.4153 2.44116 14.6548 2.44116 14.9501C2.44116 15.2454 2.66508 15.4848 2.94131 15.4848Z" fill="#FDB718"/>
<path d="M1.17454 14.9501C1.17454 14.7271 1.01964 14.5445 0.818848 14.5141C0.875708 14.7782 0.940856 15.0392 1.01493 15.2966C1.11144 15.2156 1.17454 15.0912 1.17454 14.9501Z" fill="#FDB718"/>
<path d="M2.36426 16.6938C2.36426 16.3985 2.14039 16.1591 1.86412 16.1591C1.66689 16.1591 1.49809 16.2821 1.41663 16.4593C1.52015 16.7154 1.63208 16.9671 1.75256 17.214C1.78851 17.2228 1.82561 17.2284 1.86412 17.2284C2.14026 17.2285 2.36426 16.9891 2.36426 16.6938Z" fill="#FDB718"/>
<path d="M3.21326 13.2884H2.2103C2.14528 13.1606 1.95902 12.9407 1.73667 12.9407C1.4604 12.9407 1.23653 13.1916 1.23653 13.4869C1.23653 13.7822 1.4604 14.032 1.73667 14.032C1.95902 14.032 2.14528 13.9271 2.2103 13.6716H3.03134H3.31398H3.33795L4.38987 11.755H6.01218V11.4994H3.35274L2.25951 9.58282H2.18327H1.9019H0.794778C0.76877 9.70983 0.745312 9.83773 0.723256 9.96614H2.10053L2.99526 11.4994H0.561982C0.558539 11.5844 0.555735 11.6695 0.554077 11.755H4.08326L3.21326 13.2884Z" fill="#FDB718"/>
<path d="M7.31674 7.47461H7.85297C7.85297 7.47461 8.01016 7.52099 7.98237 7.70626L7.88063 8.41975H7.31662C7.31662 8.41975 7.06699 8.32711 7.19639 8.0584C7.19639 8.0584 7.31432 7.91479 7.41835 7.91479L7.93494 7.93216" stroke="white" stroke-width="0.729167" stroke-miterlimit="10"/>
<path d="M8.94403 7.47461H8.40768C8.40768 7.47461 8.22282 7.56724 8.17654 7.80823C8.17654 7.80823 8.05173 8.16037 8.19961 8.41975L8.26208 8.43367H8.76592" stroke="white" stroke-width="0.729167" stroke-miterlimit="10"/>
<path d="M9.25375 7.04132L9.17586 7.4746L9.00183 8.44286" stroke="white" stroke-width="0.729167" stroke-miterlimit="10"/>
<path d="M9.14355 7.65493C9.14355 7.65493 9.20768 7.52779 9.3186 7.47451C9.3186 7.47451 9.72312 7.43516 9.79477 7.53712C9.79477 7.53712 9.87573 7.57647 9.87101 7.69236L9.7462 8.41977" stroke="white" stroke-width="0.729167" stroke-miterlimit="10"/>
</g>
<defs>
<radialGradient id="paint0_radial_2992_19219" cx="0" cy="0" r="1" gradientUnits="userSpaceOnUse" gradientTransform="translate(12.6431 11.9574) scale(11.8764 11.9027)">
<stop offset="0.3155" stop-color="#2D5CA8"/>
<stop offset="0.5312" stop-color="#285496"/>
<stop offset="0.7289" stop-color="#1F4272"/>
<stop offset="1" stop-color="#0D2D4D"/>
</radialGradient>
<clipPath id="clip0_2992_19219">
<rect width="24" height="24" fill="white" transform="translate(0.402588)"/>
</clipPath>
</defs>
</svg>
