<svg width="57" height="56" viewBox="0 0 57 56" fill="none" xmlns="http://www.w3.org/2000/svg">
<path d="M18 42C25.732 42 32 35.732 32 28C32 20.268 25.732 14 18 14C10.268 14 4 20.268 4 28C4 35.732 10.268 42 18 42Z" fill="#00F6B4"/>
<path d="M46.497 26.621L49.0214 23.9523C49.6724 23.2645 49.6575 22.183 48.9873 21.5128L46.252 18.7775L47.6599 14.5539C47.8375 14.0201 47.7483 13.4339 47.4193 12.9771C47.0903 12.5204 46.5626 12.25 46 12.25H42.5V8.52338C42.5 5.75313 40.3195 3.5 37.6385 3.5H15.8615C13.1805 3.5 11 5.75313 11 8.52338V47.4766C11 50.2469 13.1805 52.5 15.8615 52.5H37.6394C40.3195 52.5 42.5 50.2469 42.5 47.4766V42H46C46.5626 42 47.0903 41.7296 47.4193 41.2729C47.7483 40.817 47.8384 40.2308 47.6599 39.6961L46.252 35.4725L48.9873 32.7373C49.5858 32.1388 49.6698 31.1981 49.1876 30.5025L46.497 26.621ZM14.5 8.52338C14.5 7.68338 15.1107 7 15.8615 7H37.6394C38.3892 7 39 7.68338 39 8.52338V12.25H14.5V8.52338ZM39 47.4766C39 48.3166 38.3892 49 37.6385 49H15.8615C15.1107 49 14.5 48.3166 14.5 47.4766V42H39V47.4766ZM42.5901 35.5539L43.5728 38.5H14.5V15.75H43.5728L42.5901 18.6961C42.381 19.3253 42.5437 20.0191 43.0127 20.4872L45.3096 22.7841L42.9786 25.2481C42.4099 25.8501 42.3407 26.7671 42.8124 27.4479L45.4802 31.2952L43.0136 33.7619C42.5438 34.2309 42.3801 34.9247 42.5901 35.5539ZM31.125 8.75H22.375C21.892 8.75 21.5 9.14113 21.5 9.625C21.5 10.1089 21.892 10.5 22.375 10.5H31.125C31.608 10.5 32 10.1089 32 9.625C32 9.14113 31.608 8.75 31.125 8.75ZM26.75 47.25C27.7169 47.25 28.5 46.4669 28.5 45.5C28.5 44.5331 27.7169 43.75 26.75 43.75C25.7831 43.75 25 44.5331 25 45.5C25 46.4669 25.7831 47.25 26.75 47.25ZM39 22.75H35.5C34.534 22.75 33.75 23.534 33.75 24.5C33.75 25.466 34.534 26.25 35.5 26.25H39C39.966 26.25 40.75 25.466 40.75 24.5C40.75 23.534 39.966 22.75 39 22.75ZM39 28H37.25C36.284 28 35.5 28.784 35.5 29.75C35.5 30.716 36.284 31.5 37.25 31.5H39C39.966 31.5 40.75 30.716 40.75 29.75C40.75 28.784 39.966 28 39 28ZM32 24.5C32 23.5331 31.2169 22.75 30.25 22.75C29.2831 22.75 28.5 23.5331 28.5 24.5C28.5 25.4669 29.2831 26.25 30.25 26.25C31.2169 26.25 32 25.4669 32 24.5ZM32 28C31.0331 28 30.25 28.7831 30.25 29.75C30.25 30.7169 31.0331 31.5 32 31.5C32.9669 31.5 33.75 30.7169 33.75 29.75C33.75 28.7831 32.9669 28 32 28ZM23.0645 25.375H22.3286C21.871 25.375 21.5 24.983 21.5 24.5C21.5 24.017 21.871 23.625 22.3277 23.625H23.5606C23.6858 23.625 23.8074 23.6539 23.9203 23.7125C24.7804 24.1483 25.8356 23.8061 26.2731 22.9451C26.7106 22.0841 26.3676 21.0306 25.5066 20.5923C24.9055 20.2869 24.2326 20.125 23.5606 20.125H23.25V19.25C23.25 18.7661 22.858 18.375 22.375 18.375C21.892 18.375 21.5 18.7661 21.5 19.25V20.2099C19.5085 20.6019 18 22.3746 18 24.5C18 26.9124 19.9416 28.875 22.3277 28.875H23.0636C23.5204 28.875 23.8914 29.267 23.8914 29.75C23.8914 30.233 23.5204 30.625 23.0636 30.625H21.8308C21.7056 30.625 21.5849 30.5961 21.4729 30.5384L20.5436 30.065C19.6826 29.6258 18.6291 29.9688 18.1899 30.8298C17.7506 31.6908 18.0936 32.7442 18.9546 33.1835L19.8847 33.6577C20.3861 33.9124 20.9391 34.0603 21.4991 34.1049V35C21.4991 35.4839 21.8911 35.875 22.3741 35.875C22.8571 35.875 23.2491 35.4839 23.2491 35V34.1058C25.5478 34.0051 27.3914 32.0976 27.3914 29.75C27.3923 27.3376 25.4506 25.375 23.0645 25.375Z" fill="#000927"/>
</svg>
