<svg width="30" height="10" viewBox="0 0 30 10" fill="none" xmlns="http://www.w3.org/2000/svg">
<path fill-rule="evenodd" clip-rule="evenodd" d="M21.4305 6.60467C21.4305 5.11367 20.2033 4.46554 19.2234 3.94807C18.5668 3.60133 18.0213 3.31325 18.0306 2.86956C18.0306 2.5293 18.3613 2.17358 19.0613 2.09625C19.8817 2.01521 20.7085 2.15954 21.4536 2.51384L21.8767 0.526417C21.1384 0.249867 20.3569 0.108439 19.569 0.108826C17.1767 0.108826 15.4921 1.39253 15.4767 3.20209C15.4767 4.55539 16.6767 5.31324 17.5998 5.76176C18.5229 6.21028 18.8613 6.53508 18.8536 6.9372C18.8536 7.56359 18.0844 7.84971 17.4075 7.85745C16.5399 7.87468 15.6823 7.66977 14.9152 7.26199L14.5152 9.38861C15.3734 9.72432 16.2867 9.89483 17.2075 9.89126C19.7536 9.89126 21.4229 8.62303 21.4305 6.66654V6.60467ZM14.8535 0.279079L12.8459 9.69806H10.4228L12.4305 0.279079H14.8535ZM25.0538 6.36583L26.3311 2.83086L27.1005 6.36583H25.0538ZM29.9998 9.69808H27.7614L27.4306 8.29838H24.3537L23.846 9.69808H21.3076L24.9383 0.975082C25.1109 0.551883 25.5218 0.276465 25.9768 0.279098H28.046L29.9998 9.69808ZM7.46149 9.69806L11.3922 0.279079H8.8461L6.32304 6.6976L5.29997 1.24572C5.21343 0.692603 4.74153 0.283629 4.18459 0.279079H0.0615381L0 0.557473C0.826955 0.723156 1.63044 0.990678 2.39229 1.35399C2.71148 1.5139 2.92856 1.82525 2.96921 2.18143L4.89997 9.69806H7.46149Z" fill="#10357E"/>
</svg>
