<svg width="56" height="56" viewBox="0 0 56 56" fill="none" xmlns="http://www.w3.org/2000/svg">
<path d="M17.5 35C25.232 35 31.5 28.732 31.5 21C31.5 13.268 25.232 7 17.5 7C9.76801 7 3.5 13.268 3.5 21C3.5 28.732 9.76801 35 17.5 35Z" fill="#00F6B4"/>
<path d="M49 31.5H47.25V28C47.25 25.8773 45.9813 24.0485 44.1639 23.2225L47.0085 18.3873C47.4959 17.5595 47.2246 16.4938 46.4012 15.9994L28.9012 5.49941C28.5014 5.25879 28.0201 5.18966 27.5695 5.30341C27.1162 5.41891 26.7295 5.71029 26.4932 6.11279L16.7055 22.75H10.5C7.60462 22.75 5.25 25.1047 5.25 28V45.5C5.25 48.3954 7.60462 50.75 10.5 50.75H42C44.8954 50.75 47.25 48.3954 47.25 45.5V42H49C49.966 42 50.75 41.216 50.75 40.25V33.25C50.75 32.284 49.966 31.5 49 31.5ZM28.6134 9.40891L43.1113 18.1082L40.3813 22.75H38.4711L38.6829 22.3904C39.1729 21.5583 38.8955 20.4864 38.0634 19.9964C37.7886 19.8337 37.625 19.5554 37.625 19.25C37.625 19.1013 37.6696 18.9508 37.7571 18.8038C38.2541 17.9752 37.9855 16.9007 37.1569 16.4037L32.893 13.8452C32.0661 13.349 30.9899 13.6159 30.4929 14.4445C30.2522 14.8444 29.7614 15.0107 29.3142 14.7473C28.9144 14.511 28.4366 14.441 27.986 14.5592C27.5354 14.6755 27.1513 14.966 26.915 15.3668L22.5724 22.75H20.7646L28.6134 9.40891ZM26.6332 22.75L29.2267 18.3427C30.3231 18.4765 31.4239 18.1834 32.2866 17.5622L34.1635 18.6883C34.1372 18.8747 34.125 19.0619 34.125 19.25C34.125 20.1793 34.4286 21.0735 34.9641 21.8103L34.4111 22.75H26.6332ZM43.75 45.5C43.75 46.4652 42.9651 47.25 42 47.25H10.5C9.53487 47.25 8.75 46.4652 8.75 45.5V28C8.75 27.0349 9.53487 26.25 10.5 26.25H42C42.9651 26.25 43.75 27.0349 43.75 28V31.5H38.5C35.6046 31.5 33.25 33.8547 33.25 36.75C33.25 39.6454 35.6046 42 38.5 42H43.75V45.5ZM47.25 38.5H38.5C37.5349 38.5 36.75 37.7152 36.75 36.75C36.75 35.7849 37.5349 35 38.5 35H47.25V38.5Z" fill="#000927"/>
</svg>
