<svg width="80" height="80" xmlns="http://www.w3.org/2000/svg">
    <defs>
        <filter color-interpolation-filters="auto" id="a">
            <feColorMatrix in="SourceGraphic" values="0 0 0 0 0.047059 0 0 0 0 0.105882 0 0 0 0 0.168627 0 0 0 1.000000 0"/>
        </filter>
    </defs>
    <g fill="none" fill-rule="evenodd">
        <circle fill="#FDC508" cx="40" cy="40" r="16"/>
        <path d="M69.333 37.333A2.668 2.668 0 0 0 66.667 40c0 14.704-11.963 26.667-26.667 26.667-14.704 0-26.667-11.963-26.667-26.667 0-14.704 11.963-26.667 26.667-26.667 7.159 0 13.879 2.798 18.924 7.878a2.666 2.666 0 1 0 3.784-3.757C56.655 11.356 48.589 8 40 8 22.355 8 8 22.355 8 40s14.355 32 32 32 32-14.355 32-32a2.668 2.668 0 0 0-2.667-2.667z" fill="#000" fill-rule="nonzero"/>
        <g filter="url(#a)">
            <g fill="#E2574C" fill-rule="nonzero">
                <path d="M40 27c-1.708 0-3 .898-3 2.349v13.304C37 44.105 38.292 45 40 45c1.666 0 3-.932 3-2.347V29.349C43 27.932 41.666 27 40 27zM40 48c-1.654 0-3 1.346-3 3.001A3.004 3.004 0 0 0 40 54c1.655 0 3-1.346 3-2.999A3.003 3.003 0 0 0 40 48z"/>
            </g>
        </g>
    </g>
</svg>
