<svg width="80" height="80" xmlns="http://www.w3.org/2000/svg">
    <g fill="none" fill-rule="evenodd">
        <circle fill="#E73642" cx="40" cy="40" r="16"/>
        <path d="M69.333 37.333A2.668 2.668 0 0 0 66.667 40c0 14.704-11.963 26.667-26.667 26.667-14.704 0-26.667-11.963-26.667-26.667 0-14.704 11.963-26.667 26.667-26.667 7.159 0 13.879 2.798 18.924 7.878a2.666 2.666 0 1 0 3.784-3.757C56.655 11.356 48.589 8 40 8 22.355 8 8 22.355 8 40s14.355 32 32 32 32-14.355 32-32a2.668 2.668 0 0 0-2.667-2.667z" fill="#000" fill-rule="nonzero"/>
        <path d="M49.441 30.559a1.907 1.907 0 0 0-2.697 0L40 37.303l-6.744-6.744a1.907 1.907 0 1 0-2.697 2.697L37.302 40l-6.74 6.742a1.908 1.908 0 0 0 2.697 2.697L40 42.698l6.743 6.743a1.907 1.907 0 1 0 2.698-2.697L42.698 40l6.743-6.744a1.908 1.908 0 0 0 0-2.697z" fill="#000" fill-rule="nonzero"/>
    </g>
</svg>
