<svg width="80" height="80" xmlns="http://www.w3.org/2000/svg">
    <g fill="none" fill-rule="evenodd">
        <path d="M0 0h80v80H0z"/>
        <circle fill="#2CBAD8" cx="40" cy="40" r="16"/>
        <g fill="#000" fill-rule="nonzero">
            <path d="M54.198 32.753c-1.067-1.004-2.802-1.004-3.87 0l-11.75 11.038-4.906-4.61c-1.068-1.003-2.803-1.003-3.87 0a2.463 2.463 0 0 0 0 3.637l6.842 6.429a2.816 2.816 0 0 0 1.935.753c.7 0 1.401-.25 1.935-.753l13.684-12.858a2.463 2.463 0 0 0 0-3.636z"/>
            <path d="M69.333 37.333A2.668 2.668 0 0 0 66.667 40c0 14.704-11.963 26.667-26.667 26.667-14.704 0-26.667-11.963-26.667-26.667 0-14.704 11.963-26.667 26.667-26.667 7.159 0 13.879 2.798 18.924 7.878a2.666 2.666 0 1 0 3.784-3.757C56.655 11.356 48.589 8 40 8 22.355 8 8 22.355 8 40s14.355 32 32 32 32-14.355 32-32a2.668 2.668 0 0 0-2.667-2.667z"/>
        </g>
    </g>
</svg>
