<svg width="44" height="33" viewBox="0 0 44 33" fill="none" xmlns="http://www.w3.org/2000/svg">
<path d="M39.9571 1.08105H3.77484C3.39472 1.10461 3.02308 1.20326 2.68155 1.37129C2.34003 1.53932 2.03543 1.77338 1.78549 2.05982C1.53554 2.34627 1.34523 2.67939 1.22563 3.03982C1.10603 3.40026 1.05954 3.7808 1.08884 4.15931V22.4499C1.06053 22.8278 1.10777 23.2076 1.22782 23.5672C1.34788 23.9268 1.53835 24.2591 1.78821 24.5448C2.03806 24.8304 2.34232 25.0638 2.68334 25.2314C3.02436 25.399 3.39537 25.4974 3.77484 25.521H12.6588L16.3575 30.8972C16.5245 31.168 16.76 31.3902 17.0405 31.5416C17.3209 31.6929 17.6364 31.768 17.9552 31.7592C18.2739 31.7505 18.5848 31.6584 18.8565 31.492C19.1282 31.3256 19.3512 31.0908 19.5031 30.8113L22.7924 25.521H39.9571C40.3359 25.4965 40.7061 25.3974 41.0463 25.2294C41.3865 25.0615 41.6899 24.8279 41.939 24.5424C42.1882 24.2568 42.378 23.9248 42.4976 23.5657C42.6172 23.2065 42.6642 22.8273 42.6359 22.4499V4.15215C42.6642 3.77478 42.6172 3.39555 42.4976 3.03639C42.378 2.67724 42.1882 2.34528 41.939 2.0597C41.6899 1.77412 41.3865 1.5406 41.0463 1.37262C40.7061 1.20464 40.3359 1.10554 39.9571 1.08105Z" fill="#FFCB2F"/>
<path d="M17.8943 32.83C17.4119 32.8238 16.9384 32.6998 16.5153 32.4689C16.0921 32.2381 15.7321 31.9073 15.4669 31.5056L12.0842 26.5947H3.76762C2.71838 26.5392 1.73379 26.0721 1.02874 25.2956C0.32369 24.519 -0.0445715 23.496 0.00432436 22.4498V4.15207C-0.0446165 3.10515 0.323434 2.08135 1.0283 1.30366C1.73317 0.525977 2.71775 0.0574046 3.76762 0H39.9498C40.4731 0.0229623 40.9867 0.148703 41.4612 0.369997C41.9356 0.59129 42.3615 0.90378 42.7145 1.28955C43.0675 1.67532 43.3406 2.12677 43.5181 2.618C43.6956 3.10922 43.7741 3.63055 43.749 4.15207V22.4427C43.798 23.4877 43.4307 24.5097 42.7272 25.286C42.0236 26.0624 41.0409 26.5302 39.9929 26.5876H23.4316L20.4511 31.3696C20.1945 31.7925 19.8362 32.1448 19.4086 32.3948C18.981 32.6448 18.4975 32.7846 18.0021 32.8014L17.8943 32.83ZM3.76762 2.15479C3.29032 2.21408 2.85509 2.45676 2.55461 2.83114C2.25413 3.20553 2.11214 3.68205 2.15888 4.15923V22.4498C2.11225 22.9262 2.25446 23.4019 2.55509 23.7751C2.85572 24.1484 3.29091 24.3896 3.76762 24.4471H12.6516C12.834 24.4395 13.0154 24.4781 13.1787 24.5595C13.342 24.6409 13.4819 24.7624 13.5852 24.9124L17.2839 30.2887C17.3566 30.4018 17.4549 30.4963 17.5709 30.5647C17.6869 30.6331 17.8173 30.6734 17.9518 30.6824C18.0909 30.6712 18.225 30.6253 18.3417 30.549C18.4584 30.4727 18.554 30.3684 18.6197 30.2457L21.9162 24.9554C22.0125 24.8005 22.1467 24.6726 22.3063 24.5836C22.4658 24.4947 22.6455 24.4477 22.8283 24.4471H39.9929C40.4683 24.3878 40.9017 24.1459 41.2009 23.7729C41.5 23.3998 41.6412 22.9251 41.5945 22.4498V4.15207C41.6413 3.67599 41.5003 3.20043 41.2013 2.82623C40.9024 2.45203 40.4689 2.20862 39.9929 2.14762L3.76762 2.15479Z" fill="#000927"/>
<path d="M14.8205 12.2847C15.1656 12.2847 15.4453 12.0058 15.4453 11.6619C15.4453 11.3179 15.1656 11.0391 14.8205 11.0391C14.4754 11.0391 14.1957 11.3179 14.1957 11.6619C14.1957 12.0058 14.4754 12.2847 14.8205 12.2847Z" fill="#000927"/>
<path d="M14.8133 13.3509C14.3638 13.3509 13.9327 13.1729 13.6148 12.8561C13.297 12.5393 13.1184 12.1095 13.1184 11.6615C13.1184 11.2127 13.2967 10.7823 13.6144 10.4643C13.9321 10.1463 14.3631 9.96674 14.8133 9.96484C15.2648 9.96484 15.6977 10.1436 16.0169 10.4618C16.3361 10.78 16.5154 11.2115 16.5154 11.6615C16.5135 12.1102 16.3334 12.5399 16.0144 12.8565C15.6954 13.1732 15.2635 13.3509 14.8133 13.3509ZM14.8133 11.2033C14.6927 11.2052 14.5776 11.2543 14.4929 11.34C14.4083 11.4257 14.3609 11.5412 14.3609 11.6615C14.3609 11.7811 14.4085 11.8958 14.4934 11.9804C14.5782 12.0649 14.6933 12.1125 14.8133 12.1125C14.934 12.1125 15.0498 12.0652 15.1358 11.9808C15.2218 11.8964 15.2711 11.7817 15.273 11.6615C15.273 11.54 15.2245 11.4234 15.1383 11.3375C15.0521 11.2516 14.9352 11.2033 14.8133 11.2033Z" fill="#000927"/>
<path d="M31.4106 12.2847C31.7557 12.2847 32.0354 12.0058 32.0354 11.6619C32.0354 11.3179 31.7557 11.0391 31.4106 11.0391C31.0655 11.0391 30.7858 11.3179 30.7858 11.6619C30.7858 12.0058 31.0655 12.2847 31.4106 12.2847Z" fill="#000927"/>
<path d="M31.4106 13.3509C30.9611 13.3509 30.53 13.1729 30.2121 12.8561C29.8943 12.5393 29.7157 12.1095 29.7157 11.6615C29.7157 11.2127 29.894 10.7823 30.2117 10.4643C30.5293 10.1463 30.9604 9.96674 31.4106 9.96484C31.862 9.96484 32.295 10.1436 32.6142 10.4618C32.9334 10.78 33.1127 11.2115 33.1127 11.6615C33.1108 12.1102 32.9307 12.5399 32.6117 12.8565C32.2927 13.1732 31.8608 13.3509 31.4106 13.3509ZM31.4106 11.2033C31.29 11.2052 31.1749 11.2543 31.0902 11.34C31.0056 11.4257 30.9581 11.5412 30.9582 11.6615C30.9582 11.7811 31.0058 11.8958 31.0907 11.9804C31.1755 12.0649 31.2906 12.1125 31.4106 12.1125C31.5313 12.1125 31.6471 12.0652 31.7331 11.9808C31.8191 11.8964 31.8684 11.7817 31.8703 11.6615C31.8703 11.54 31.8218 11.4234 31.7356 11.3375C31.6494 11.2516 31.5325 11.2033 31.4106 11.2033Z" fill="#000927"/>
<path d="M23.0868 18.2117C21.3846 18.185 19.7576 17.5086 18.5407 16.3218C18.44 16.2226 18.36 16.1044 18.3054 15.9742C18.2508 15.8439 18.2227 15.7042 18.2227 15.563C18.2227 15.4218 18.2508 15.282 18.3054 15.1518C18.36 15.0215 18.44 14.9034 18.5407 14.8042C18.6401 14.7048 18.7582 14.626 18.8882 14.5722C19.0182 14.5184 19.1576 14.4907 19.2984 14.4907C19.4392 14.4907 19.5786 14.5184 19.7086 14.5722C19.8386 14.626 19.9567 14.7048 20.0561 14.8042C20.3505 15.0905 22.9863 17.4887 26.1966 14.754C26.3044 14.662 26.4294 14.5922 26.5644 14.5485C26.6994 14.5048 26.8417 14.4881 26.9832 14.4994C27.1247 14.5107 27.2626 14.5498 27.3889 14.6144C27.5151 14.679 27.6274 14.7678 27.7191 14.8757C27.8112 14.9826 27.8812 15.1067 27.9249 15.2406C27.9686 15.3746 27.9853 15.5159 27.974 15.6564C27.9626 15.7968 27.9235 15.9336 27.8588 16.0589C27.7941 16.1842 27.7051 16.2954 27.597 16.3862C26.3678 17.5234 24.7634 18.1727 23.0868 18.2117Z" fill="#000927"/>
</svg>
