<svg width="56" height="56" viewBox="0 0 56 56" fill="none" xmlns="http://www.w3.org/2000/svg">
<path d="M56 0H0V56H56V0Z" fill="white"/>
<g clip-path="url(#clip0_912_3942)">
<path fill-rule="evenodd" clip-rule="evenodd" d="M36.7226 28.2567L29.6689 31.9384V37.9171C29.6689 41.8398 32.8489 45.0197 36.7716 45.0197C40.6943 45.0197 43.8742 41.8398 43.8742 37.9171V31.9384L36.7226 28.2567Z" fill="#00F6B4"/>
<path fill-rule="evenodd" clip-rule="evenodd" d="M30.0478 19.5891H19.5587C18.7692 19.5891 18.1284 18.9483 18.1284 18.1588C18.1284 17.3692 18.7692 16.7284 19.5587 16.7284H30.0478C30.8374 16.7284 31.4781 17.3692 31.4781 18.1588C31.4781 18.9483 30.8374 19.5891 30.0478 19.5891Z" fill="#000927"/>
<path fill-rule="evenodd" clip-rule="evenodd" d="M25.2801 27.2175H19.5587C18.7692 27.2175 18.1284 26.5767 18.1284 25.7871C18.1284 24.9976 18.7692 24.3568 19.5587 24.3568H25.2801C26.0696 24.3568 26.7104 24.9976 26.7104 25.7871C26.7104 26.5767 26.0696 27.2175 25.2801 27.2175Z" fill="#000927"/>
<path fill-rule="evenodd" clip-rule="evenodd" d="M25.2801 46.2885H15.7445C12.8515 46.2885 10.5 43.9352 10.5 41.044V14.3445C10.5 11.4534 12.8515 9.1 15.7445 9.1H38.6298C41.5229 9.1 43.8743 11.4534 43.8743 14.3445V21.9729C43.8743 22.7625 43.2335 23.4033 42.444 23.4033C41.6544 23.4033 41.0137 22.7625 41.0137 21.9729V14.3445C41.0137 13.0305 39.9438 11.9607 38.6298 11.9607H15.7445C14.4305 11.9607 13.3607 13.0305 13.3607 14.3445V41.044C13.3607 42.358 14.4305 43.4279 15.7445 43.4279H25.2801C26.0696 43.4279 26.7104 44.0686 26.7104 44.8582C26.7104 45.6477 26.0696 46.2885 25.2801 46.2885Z" fill="#000927"/>
<path fill-rule="evenodd" clip-rule="evenodd" d="M30.5247 32.4453V37.2302C30.5247 40.6477 33.3053 43.4283 36.7228 43.4283C40.1403 43.4283 42.9209 40.6477 42.9209 37.2302V32.4453L36.7228 29.2985L30.5247 32.4453ZM36.7228 46.2889C31.7281 46.2889 27.6641 42.2249 27.6641 37.2302V31.568C27.6641 31.0283 27.9654 30.5363 28.446 30.2921L36.0744 26.4188C36.4844 26.2129 36.9612 26.2129 37.3712 26.4188L44.9996 30.2921C45.4802 30.5363 45.7815 31.0283 45.7815 31.568V37.2302C45.7815 42.2249 41.7175 46.2889 36.7228 46.2889Z" fill="#000927"/>
</g>
<defs>
<clipPath id="clip0_912_3942">
<rect width="35.28" height="37.8" fill="white" transform="translate(10.5 9.1)"/>
</clipPath>
</defs>
</svg>
