<svg width="56" height="56" viewBox="0 0 56 56" fill="none" xmlns="http://www.w3.org/2000/svg">
<path d="M56 0H0V56H56V0Z" fill="white"/>
<g clip-path="url(#clip0_912_3918)">
<path fill-rule="evenodd" clip-rule="evenodd" d="M17.3859 44.1248C17.0804 44.1248 16.7709 44.0323 16.5055 43.8393C15.2452 42.9267 14.0994 41.8734 13.1004 40.7075C12.5616 40.0744 12.634 39.1216 13.2672 38.5808C13.8964 38.0421 14.8512 38.1145 15.3939 38.7457C16.2362 39.7326 17.205 40.6231 18.2704 41.395C18.9458 41.8835 19.0986 42.8262 18.6081 43.5016C18.3146 43.9077 17.8523 44.1248 17.3859 44.1248Z" fill="#000927"/>
<path fill-rule="evenodd" clip-rule="evenodd" d="M10.9566 23.4651C10.7898 23.4651 10.6189 23.437 10.4521 23.3787C9.66614 23.0993 9.25608 22.2369 9.53548 21.453C10.7516 18.0257 12.8803 15.0145 15.6885 12.7431C16.3398 12.2204 17.2865 12.3189 17.8092 12.9702C18.3338 13.6175 18.2333 14.5663 17.586 15.0889C15.2081 17.0086 13.407 19.5594 12.3778 22.46C12.1587 23.0792 11.5778 23.4651 10.9566 23.4651Z" fill="#000927"/>
<path fill-rule="evenodd" clip-rule="evenodd" d="M10.9568 35.5259C10.3357 35.5259 9.75473 35.1399 9.53562 34.5208C8.78183 32.3921 8.3999 30.193 8.3999 27.9879C8.3999 27.1537 9.07329 26.4803 9.9075 26.4803C10.7397 26.4803 11.4151 27.1537 11.4151 27.9879C11.4151 29.8493 11.7387 31.7086 12.3779 33.5137C12.6573 34.2997 12.2453 35.16 11.4593 35.4394C11.2945 35.4977 11.1236 35.5259 10.9568 35.5259Z" fill="#000927"/>
<path fill-rule="evenodd" clip-rule="evenodd" d="M40.7908 13.2392C39.7516 13.2392 38.9073 14.0854 38.9073 15.1267C38.9073 16.1639 39.7516 17.0102 40.7908 17.0102C41.8321 17.0102 42.6763 16.1639 42.6763 15.1247C42.6763 14.0854 41.8321 13.2392 40.7908 13.2392ZM40.7908 20.0253C38.0892 20.0253 35.8901 17.8263 35.8901 15.1247C35.8921 12.421 38.0912 10.224 40.7908 10.224C43.4944 10.224 45.6915 12.423 45.6915 15.1247C45.6915 17.8263 43.4944 20.0253 40.7908 20.0253Z" fill="#000927"/>
<path fill-rule="evenodd" clip-rule="evenodd" d="M38.1522 14.5254C37.8607 14.5254 37.5652 14.441 37.3059 14.2641C33.2073 11.4761 27.9448 10.672 23.1687 12.1213C22.3707 12.3646 21.5285 11.9143 21.2872 11.1183C21.046 10.3223 21.4963 9.48003 22.2923 9.2368C27.9287 7.52418 34.1541 8.47497 39.0025 11.7716C39.692 12.2399 39.8689 13.1767 39.4005 13.8661C39.111 14.2943 38.6346 14.5254 38.1522 14.5254Z" fill="#000927"/>
<path fill-rule="evenodd" clip-rule="evenodd" d="M27.998 47.586C26.0643 47.586 24.1446 47.3006 22.2913 46.7357C21.4973 46.4945 21.047 45.6523 21.2882 44.8562C21.5315 44.0582 22.3697 43.608 23.1717 43.8512C24.7376 44.3296 26.3638 44.5708 27.998 44.5708C37.1421 44.5708 44.5816 37.1313 44.5816 27.9873C44.5816 27.0566 44.4911 26.0998 44.3062 25.0585C44.1615 24.2384 44.7082 23.4564 45.5283 23.3097C46.3324 23.169 47.1304 23.7097 47.2751 24.5319C47.4902 25.748 47.5968 26.8777 47.5968 27.9873C47.5968 38.7937 38.8045 47.586 27.998 47.586Z" fill="#000927"/>
<path fill-rule="evenodd" clip-rule="evenodd" d="M23.4752 24.8838V30.5001C23.4752 31.9092 26.0099 33.5615 27.9979 34.4058C29.986 33.5615 32.5207 31.9092 32.5207 30.5001V24.8838L29.1196 23.6617C28.3959 23.4003 27.5939 23.4003 26.8703 23.6617L23.4752 24.8838ZM27.9979 37.5356C27.821 37.5356 27.6462 37.5054 27.4793 37.4431C26.7617 37.1798 20.46 34.7475 20.46 30.5001V23.8245C20.46 23.1893 20.858 22.6204 21.457 22.4053L25.8511 20.8234C27.2301 20.3269 28.7558 20.3269 30.1387 20.8234L34.5389 22.4053C35.1379 22.6204 35.5359 23.1873 35.5359 23.8245V30.5001C35.5359 34.7475 29.2342 37.1798 28.5165 37.4431C28.3497 37.5054 28.1748 37.5356 27.9979 37.5356Z" fill="#000927"/>
<path d="M40.95 17.5C42.3031 17.5 43.4 16.4031 43.4 15.05C43.4 13.6969 42.3031 12.6 40.95 12.6C39.5969 12.6 38.5 13.6969 38.5 15.05C38.5 16.4031 39.5969 17.5 40.95 17.5Z" fill="#FF3434"/>
</g>
<defs>
<clipPath id="clip0_912_3918">
<rect width="39.2" height="39.2" fill="white" transform="translate(8.3999 8.39999)"/>
</clipPath>
</defs>
</svg>
