<svg width="56" height="56" viewBox="0 0 56 56" fill="none" xmlns="http://www.w3.org/2000/svg">
<path d="M56 0H0V56H56V0Z" fill="white"/>
<g clip-path="url(#clip0_912_3946)">
<path d="M25.1997 35C30.9987 35 35.6997 30.299 35.6997 24.5C35.6997 18.701 30.9987 14 25.1997 14C19.4007 14 14.6997 18.701 14.6997 24.5C14.6997 30.299 19.4007 35 25.1997 35Z" fill="#FF3434"/>
<path fill-rule="evenodd" clip-rule="evenodd" d="M15.9513 41.6099C15.6875 41.6099 15.4255 41.5372 15.1941 41.3938C14.7734 41.1318 14.5172 40.671 14.5172 40.1757L14.5153 35.4735C10.6181 32.5593 8.3999 28.3007 8.3999 23.6788C8.3999 15.2535 15.9055 8.4 25.132 8.4C34.3586 8.4 41.8641 15.2535 41.8641 23.6788C41.8641 24.4705 41.2216 25.113 40.43 25.113C39.6383 25.113 38.9958 24.4705 38.9958 23.6788C38.9958 16.8349 32.7772 11.2684 25.132 11.2684C17.4869 11.2684 11.2683 16.8349 11.2683 23.6788C11.2683 27.5779 13.2685 31.1767 16.7564 33.5498C17.1503 33.8175 17.3836 34.2612 17.3836 34.7373V37.8715L21.3228 35.9325C21.6001 35.7948 21.9156 35.7527 22.2254 35.812C23.1873 35.9956 24.1663 36.0893 25.132 36.0893C25.9237 36.0893 26.5662 36.7318 26.5662 37.5234C26.5662 38.3151 25.9237 38.9576 25.132 38.9576C24.1453 38.9576 23.1509 38.8754 22.1661 38.7148L16.5843 41.4627C16.3854 41.5602 16.1674 41.6099 15.9513 41.6099Z" fill="#000927"/>
<path fill-rule="evenodd" clip-rule="evenodd" d="M39.4882 32.0248C39.0389 32.0248 38.5895 32.1013 38.1631 32.2543L34.7707 33.4762C34.4571 33.589 34.2468 33.8873 34.2468 34.22L34.2487 40.2264C34.2487 41.8671 36.7977 43.5958 39.1842 44.6647C39.385 44.7546 39.5953 44.7546 39.7961 44.6666C42.1826 43.5939 44.7316 41.8652 44.7316 40.2264V34.22C44.7316 33.8892 44.5213 33.589 44.2076 33.4762L40.8115 32.2543C40.3851 32.1013 39.9357 32.0248 39.4882 32.0248ZM39.4921 47.6C38.9853 47.6 38.4805 47.4929 38.0101 47.2807C35.5356 46.1716 31.3803 43.7774 31.3803 40.2264L31.3784 34.222C31.3784 32.6807 32.3537 31.2962 33.8012 30.7761L37.1916 29.5561C38.6698 29.0245 40.3009 29.0226 41.7829 29.5561L45.1791 30.778C46.6266 31.2981 47.6 32.6826 47.6 34.22V40.2264C47.6 43.7755 43.4466 46.1696 40.9721 47.2826C40.5017 47.4929 39.9969 47.6 39.4921 47.6Z" fill="#000927"/>
<path fill-rule="evenodd" clip-rule="evenodd" d="M25.4697 23.6214L24.4601 24.6388C24.8272 25.0059 25.4296 25.0078 25.7967 24.6445C26.1772 24.262 26.1772 23.6578 25.8082 23.2849C25.4296 22.912 24.8272 22.912 24.4543 23.2849C24.0833 23.6578 24.0833 24.262 24.4543 24.6349L25.4697 23.6214ZM25.1313 25.8722C24.6417 25.8722 24.156 25.6867 23.7812 25.3157C23.0335 24.5661 23.0335 23.3537 23.7755 22.608C24.5327 21.8679 25.7393 21.8679 26.4794 22.6041C26.4813 22.606 26.4832 22.606 26.4851 22.608C27.229 23.3537 27.229 24.5661 26.4851 25.3119C26.1122 25.6848 25.6227 25.8722 25.1313 25.8722Z" fill="#000927"/>
<path fill-rule="evenodd" clip-rule="evenodd" d="M31.2548 24.6382C31.6315 25.0092 32.2338 25.0053 32.601 24.6382C32.7807 24.4603 32.884 24.2137 32.884 23.9593C32.884 23.7069 32.7826 23.4622 32.6048 23.2843L32.2663 23.6209L32.6029 23.2824L32.601 23.2805C32.2529 22.9325 31.6104 22.9286 31.2509 23.2843C31.0769 23.4583 30.9737 23.7069 30.9737 23.9593C30.9737 24.2137 31.0769 24.4603 31.2548 24.6382ZM31.9298 25.8735C31.4173 25.8735 30.9373 25.6727 30.5759 25.3113C30.2164 24.9537 30.0156 24.4718 30.0156 23.9593C30.0156 23.4469 30.2164 22.965 30.5797 22.6036C31.3293 21.8597 32.5379 21.8635 33.2836 22.6093C33.6431 22.9688 33.842 23.4488 33.842 23.9593C33.842 24.4718 33.6412 24.9537 33.2779 25.3151C32.9203 25.6727 32.4403 25.8735 31.9298 25.8735Z" fill="#000927"/>
<path fill-rule="evenodd" clip-rule="evenodd" d="M18.6701 23.6214L17.6605 24.6388C18.0295 25.0059 18.6319 25.0097 19.0029 24.6388C19.3777 24.262 19.3777 23.6578 19.0086 23.2849C18.6376 22.9139 18.0334 22.912 17.6605 23.2811C17.2838 23.6578 17.2838 24.262 17.6547 24.6349L18.6701 23.6214ZM18.3279 25.8702C17.8364 25.8702 17.3488 25.6848 16.9759 25.3119C16.2339 24.5661 16.2339 23.3537 16.9759 22.608C17.7255 21.8679 18.9359 21.8641 19.6798 22.6041C19.6817 22.606 19.6836 22.606 19.6855 22.608C20.4294 23.3537 20.4294 24.5661 19.6855 25.3119C19.3088 25.6848 18.8174 25.8702 18.3279 25.8702Z" fill="#000927"/>
</g>
<defs>
<clipPath id="clip0_912_3946">
<rect width="39.2" height="39.2" fill="white" transform="translate(8.3999 8.4)"/>
</clipPath>
</defs>
</svg>
