<svg width="56" height="56" viewBox="0 0 56 56" fill="none" xmlns="http://www.w3.org/2000/svg">
<path d="M56 0H0V56H56V0Z" fill="white"/>
<g clip-path="url(#clip0_912_3642)">
<path d="M27.9998 35C34.1854 35 39.1998 29.9856 39.1998 23.8C39.1998 17.6144 34.1854 12.6 27.9998 12.6C21.8142 12.6 16.7998 17.6144 16.7998 23.8C16.7998 29.9856 21.8142 35 27.9998 35Z" fill="#00F6B4"/>
<path fill-rule="evenodd" clip-rule="evenodd" d="M15.076 11.3949C13.0577 11.3949 11.4153 13.0262 11.4153 15.0307V32.7147C11.4153 34.7213 13.0577 36.3525 15.076 36.3525H40.9198C42.9401 36.3525 44.5845 34.7213 44.5845 32.7147V15.0307C44.5845 13.0262 42.9401 11.3949 40.9198 11.3949H15.076ZM40.9198 39.3474H15.076C11.3952 39.3474 8.3999 36.3724 8.3999 32.7147V15.0307C8.3999 11.375 11.3952 8.40002 15.076 8.40002H40.9198C44.6026 8.40002 47.5999 11.375 47.5999 15.0307V32.7147C47.5999 36.3724 44.6026 39.3474 40.9198 39.3474Z" fill="#000927"/>
<path fill-rule="evenodd" clip-rule="evenodd" d="M30.9974 24.2176C30.1845 24.2176 29.5247 23.531 29.5247 22.6849V19.9303C29.5247 19.0536 28.8394 18.3425 28.0009 18.3425C27.1605 18.3425 26.4752 19.0536 26.4752 19.9303V22.6849C26.4752 23.531 25.8154 24.2176 25.0025 24.2176C24.1896 24.2176 23.5298 23.531 23.5298 22.6849V19.9303C23.5298 17.3636 25.5366 15.2772 28.0009 15.2772C30.4653 15.2772 32.4701 17.3636 32.4701 19.9303V22.6849C32.4701 23.531 31.8104 24.2176 30.9974 24.2176Z" fill="#000927"/>
<path fill-rule="evenodd" clip-rule="evenodd" d="M24.2451 24.4015C23.9718 24.4015 23.7499 24.6206 23.7499 24.8906V29.0463C23.7499 29.3163 23.9718 29.5354 24.2451 29.5354H31.0669C31.3402 29.5354 31.5621 29.3163 31.5621 29.0463V24.8906C31.5621 24.6206 31.3402 24.4015 31.0669 24.4015H24.2451ZM31.0669 32.4702H24.2451C22.3337 32.4702 20.7788 30.9343 20.7788 29.0463V24.8906C20.7788 23.0025 22.3337 21.4667 24.2451 21.4667H31.0669C32.9783 21.4667 34.5332 23.0025 34.5332 24.8906V29.0463C34.5332 30.9343 32.9783 32.4702 31.0669 32.4702Z" fill="#000927"/>
<path fill-rule="evenodd" clip-rule="evenodd" d="M32.9836 47.6001C32.2141 47.6001 31.5497 47.0438 31.4507 46.2855L30.4191 38.2821C30.3118 37.4598 30.9143 36.7094 31.7622 36.6074C32.6081 36.5093 33.3818 37.0876 33.4891 37.9099L34.5207 45.9134C34.628 46.7357 34.0255 47.486 33.1776 47.5881C33.1115 47.5961 33.0476 47.6001 32.9836 47.6001Z" fill="#000927"/>
<path fill-rule="evenodd" clip-rule="evenodd" d="M23.0162 47.6001C22.9523 47.6001 22.8883 47.5961 22.8223 47.5881C21.9743 47.486 21.3719 46.7358 21.4792 45.9135L22.5108 37.911C22.616 37.0887 23.3897 36.5045 24.2376 36.6086C25.0856 36.7106 25.688 37.4608 25.5807 38.2831L24.5492 46.2856C24.4522 47.0439 23.7858 47.6001 23.0162 47.6001Z" fill="#000927"/>
<path fill-rule="evenodd" clip-rule="evenodd" d="M35.7728 47.6H20.2273C19.3929 47.6 18.7158 46.9838 18.7158 46.2246C18.7158 45.4653 19.3929 44.8491 20.2273 44.8491H35.7728C36.6071 44.8491 37.2842 45.4653 37.2842 46.2246C37.2842 46.9838 36.6071 47.6 35.7728 47.6Z" fill="#000927"/>
</g>
<defs>
<clipPath id="clip0_912_3642">
<rect width="39.2" height="39.2" fill="white" transform="translate(8.3999 8.40002)"/>
</clipPath>
</defs>
</svg>
