<svg width="56" height="56" viewBox="0 0 56 56" fill="none" xmlns="http://www.w3.org/2000/svg">
<path d="M56 0H0V56H56V0Z" fill="white"/>
<g clip-path="url(#clip0_912_3938)">
<path d="M27.9999 40.6C34.9587 40.6 40.5999 34.9588 40.5999 28C40.5999 21.0412 34.9587 15.4 27.9999 15.4C21.0411 15.4 15.3999 21.0412 15.3999 28C15.3999 34.9588 21.0411 40.6 27.9999 40.6Z" fill="#00F6B4"/>
<path fill-rule="evenodd" clip-rule="evenodd" d="M44.9337 20.8562H39.118C38.2858 20.8562 37.6104 20.1807 37.6104 19.3485C37.6104 18.5162 38.2858 17.8408 39.118 17.8408H43.426V13.5328C43.426 12.7005 44.1015 12.0251 44.9337 12.0251C45.766 12.0251 46.4414 12.7005 46.4414 13.5328V19.3485C46.4414 20.1807 45.766 20.8562 44.9337 20.8562Z" fill="#000927"/>
<path fill-rule="evenodd" clip-rule="evenodd" d="M27.9999 47.6C17.1928 47.6 8.3999 38.8071 8.3999 28C8.3999 17.1929 17.1928 8.4 27.9999 8.4C35.1765 8.4 41.7742 12.318 45.2137 18.6262C45.6138 19.3579 45.3444 20.2726 44.6147 20.6726C43.8789 21.0727 42.9642 20.8013 42.5682 20.0695C39.6554 14.7323 34.0729 11.4154 27.9999 11.4154C18.8552 11.4154 11.4153 18.8553 11.4153 28C11.4153 37.1447 18.8552 44.5846 27.9999 44.5846C37.1446 44.5846 44.5845 37.1447 44.5845 28C44.5845 27.1678 45.26 26.4923 46.0922 26.4923C46.9245 26.4923 47.5999 27.1678 47.5999 28C47.5999 38.8071 38.807 47.6 27.9999 47.6Z" fill="#000927"/>
<path fill-rule="evenodd" clip-rule="evenodd" d="M27.9941 21.4659C27.2824 21.4659 26.605 21.693 26.03 22.1373C25.234 22.7544 24.7756 23.6832 24.7756 24.6883C24.7756 25.6211 25.1837 26.5076 25.8913 27.1207C26.6291 27.76 26.9286 28.7209 26.6713 29.6235L25.3687 34.1767C25.3385 34.2893 25.3767 34.3717 25.4169 34.422C25.4531 34.4722 25.5235 34.5325 25.638 34.5325H30.3601C30.4747 34.5325 30.5471 34.4722 30.5833 34.422C30.6235 34.3717 30.6617 34.2873 30.6295 34.1767L29.3289 29.6235C29.0695 28.7189 29.3691 27.76 30.1068 27.1227C31.0617 26.2945 31.4336 25.0502 31.1019 23.7897C30.8265 22.7424 29.938 21.8559 28.8886 21.5825C28.5871 21.5041 28.2876 21.4659 27.9941 21.4659ZM30.3601 37.5479H25.638C24.5967 37.5479 23.6358 37.0715 23.0106 36.2392C22.3794 35.405 22.1844 34.3536 22.4719 33.3505L23.666 29.1692C22.4498 27.9972 21.7603 26.383 21.7603 24.6883C21.7603 22.7424 22.6448 20.9432 24.1846 19.7511C25.7285 18.559 27.7146 18.163 29.6465 18.6656C31.7492 19.2124 33.466 20.9211 34.0188 23.0198C34.6118 25.2693 33.9665 27.5951 32.3342 29.1712L33.5283 33.3485C33.8158 34.3516 33.6188 35.405 32.9895 36.2372C32.3623 37.0715 31.4035 37.5479 30.3601 37.5479Z" fill="#000927"/>
</g>
<defs>
<clipPath id="clip0_912_3938">
<rect width="39.2" height="39.2" fill="white" transform="translate(8.3999 8.4)"/>
</clipPath>
</defs>
</svg>
