<svg width="56" height="56" viewBox="0 0 56 56" fill="none" xmlns="http://www.w3.org/2000/svg">
<path d="M56 0H0V56H56V0Z" fill="white"/>
<g clip-path="url(#clip0_912_3702)">
<path d="M40.9498 32.9H15.0498C12.1503 32.9 9.7998 35.2505 9.7998 38.15C9.7998 41.0495 12.1503 43.4 15.0498 43.4H40.9498C43.8493 43.4 46.1998 41.0495 46.1998 38.15C46.1998 35.2505 43.8493 32.9 40.9498 32.9Z" fill="#FFCB2F"/>
<path fill-rule="evenodd" clip-rule="evenodd" d="M16.1493 33.2893C13.3832 33.2893 11.135 35.5393 11.135 38.3036C11.135 41.0679 13.3832 43.3179 16.1493 43.3179H39.8534C42.6195 43.3179 44.8677 41.0679 44.8677 38.3036C44.8677 35.5393 42.6195 33.2893 39.8534 33.2893H16.1493ZM39.8534 46.053H16.1493C11.8753 46.053 8.3999 42.5776 8.3999 38.3036C8.3999 34.0296 11.8753 30.5542 16.1493 30.5542H39.8534C44.1274 30.5542 47.6028 34.0296 47.6028 38.3036C47.6028 42.5776 44.1274 46.053 39.8534 46.053Z" fill="#000927"/>
<path fill-rule="evenodd" clip-rule="evenodd" d="M38.9415 37.2668C38.3708 37.2668 37.904 37.7318 37.904 38.3025C37.904 38.576 38.0152 38.8441 38.2103 39.0373C38.4036 39.2306 38.6224 39.3364 38.9524 39.34C39.5122 39.34 39.9772 38.8751 39.9772 38.3043C39.9772 37.7318 39.5122 37.2668 38.9415 37.2668ZM38.9415 40.2298C37.8784 40.2298 37.0142 39.3656 37.0142 38.3043C37.0142 37.2413 37.8784 36.377 38.9415 36.377C39.4976 36.3825 39.9316 36.5703 40.2981 36.935C40.6646 37.2978 40.867 37.7847 40.867 38.3025C40.867 39.3656 40.0027 40.2298 38.9415 40.2298Z" fill="#000927"/>
<path fill-rule="evenodd" clip-rule="evenodd" d="M31.648 37.2668C31.0773 37.2668 30.6105 37.7318 30.6105 38.3025C30.6105 38.576 30.7217 38.844 30.9168 39.0373C31.1119 39.2306 31.4475 39.3363 31.659 39.34C32.2187 39.34 32.6837 38.875 32.6837 38.3043C32.6837 37.7318 32.2187 37.2668 31.648 37.2668ZM31.648 40.2298C30.585 40.2298 29.7207 39.3655 29.7207 38.3043C29.7207 37.2358 30.6196 36.3733 31.6626 36.377C32.1622 36.377 32.6418 36.5739 33.0046 36.9349C33.3711 37.2978 33.5735 37.7846 33.5735 38.3025C33.5735 39.3655 32.7092 40.2298 31.648 40.2298Z" fill="#000927"/>
<path fill-rule="evenodd" clip-rule="evenodd" d="M24.3546 37.2668C23.7838 37.2668 23.3171 37.7318 23.3171 38.3025C23.3171 38.576 23.4283 38.8441 23.6234 39.0373C23.8167 39.2306 23.9954 39.3364 24.3655 39.34C24.9253 39.34 25.3903 38.8751 25.3903 38.3043C25.3903 37.7318 24.9253 37.2668 24.3546 37.2668ZM24.3546 40.2298C23.2915 40.2298 22.4272 39.3656 22.4272 38.3043C22.4272 37.2413 23.2915 36.377 24.3546 36.377C24.8323 36.3825 25.3447 36.5703 25.7112 36.935C26.0777 37.2978 26.2801 37.7847 26.2801 38.3025C26.2801 39.3656 25.4158 40.2298 24.3546 40.2298Z" fill="#000927"/>
<path fill-rule="evenodd" clip-rule="evenodd" d="M17.0611 37.2668C16.4904 37.2668 16.0236 37.7318 16.0236 38.3025C16.0236 38.576 16.1348 38.844 16.3299 39.0373C16.525 39.2306 16.8186 39.3363 17.0721 39.34C17.6318 39.34 18.0968 38.875 18.0968 38.3043C18.0968 37.7318 17.6318 37.2668 17.0611 37.2668ZM17.0611 40.2298C15.9981 40.2298 15.1338 39.3655 15.1338 38.3043C15.132 37.2358 16.0181 36.3733 17.0757 36.377C17.5753 36.377 18.0549 36.5739 18.4177 36.9349C18.7842 37.2978 18.9866 37.7846 18.9866 38.3025C18.9866 39.3655 18.1223 40.2298 17.0611 40.2298Z" fill="#000927"/>
<path fill-rule="evenodd" clip-rule="evenodd" d="M40.765 23.3903C40.0101 23.3903 39.3975 22.7776 39.3975 22.0228V17.2746C39.3975 16.5198 40.0101 15.9071 40.765 15.9071C41.5199 15.9071 42.1325 16.5198 42.1325 17.2746V22.0228C42.1325 22.7776 41.5199 23.3903 40.765 23.3903Z" fill="#000927"/>
<path fill-rule="evenodd" clip-rule="evenodd" d="M33.4715 23.4502C32.7167 23.4502 32.104 22.8376 32.104 22.0827V17.3346C32.104 16.5797 32.7167 15.967 33.4715 15.967C34.2264 15.967 34.8391 16.5797 34.8391 17.3346V22.0827C34.8391 22.8376 34.2264 23.4502 33.4715 23.4502Z" fill="#000927"/>
<path fill-rule="evenodd" clip-rule="evenodd" d="M20.708 13.2342C19.6559 13.2342 18.6057 13.6335 17.8052 14.434C16.2061 16.0331 16.2061 18.6369 17.8052 20.2378C19.4043 21.8369 22.0099 21.8369 23.609 20.236C25.2082 18.6369 25.2082 16.0331 23.609 14.434C22.8086 13.6335 21.7583 13.2342 20.708 13.2342ZM20.7062 24.1709C18.9539 24.1709 17.2035 23.5035 15.8724 22.1706C13.2066 19.5048 13.2066 15.167 15.8724 12.4993C18.5382 9.83537 22.8724 9.83173 25.5418 12.4993C28.2076 15.167 28.2076 19.5048 25.5418 22.1706C24.2089 23.5035 22.4567 24.1709 20.7062 24.1709Z" fill="#000927"/>
<path fill-rule="evenodd" clip-rule="evenodd" d="M26.1781 18.7022C25.4251 18.7022 24.8142 18.0932 24.8106 17.3401C24.8069 16.5852 25.4178 15.9707 26.1727 15.9671L40.7598 15.9069H40.7652C41.5183 15.9069 42.1291 16.5159 42.1328 17.269C42.1364 18.0239 41.5256 18.6384 40.7707 18.642L26.1836 18.7022H26.1781Z" fill="#000927"/>
</g>
<defs>
<clipPath id="clip0_912_3702">
<rect width="39.2" height="35.7" fill="white" transform="translate(8.3999 10.5)"/>
</clipPath>
</defs>
</svg>
