<svg width="56" height="56" viewBox="0 0 56 56" fill="none" xmlns="http://www.w3.org/2000/svg">
<path d="M56 0H0V56H56V0Z" fill="white"/>
<g clip-path="url(#clip0_912_3910)">
<path d="M44.8 35.7H35V44.1H44.8V35.7Z" fill="#FF3434"/>
<path fill-rule="evenodd" clip-rule="evenodd" d="M43.148 37.3605C42.2926 37.3605 41.5984 36.71 41.5984 35.9085V33.4093C41.5984 32.4375 40.6541 31.5528 39.6169 31.5528C38.5239 31.5528 37.6334 32.3852 37.6334 33.4093V35.9085C37.6334 36.71 36.9392 37.3605 36.0838 37.3605C35.2284 37.3605 34.5342 36.71 34.5342 35.9085V33.4093C34.5342 30.7842 36.8152 28.649 39.6169 28.649C42.3711 28.649 44.6976 30.8288 44.6976 33.4093V35.9085C44.6976 36.71 44.0034 37.3605 43.148 37.3605Z" fill="#000927"/>
<path fill-rule="evenodd" clip-rule="evenodd" d="M35.9136 37.4265C35.6331 37.4265 35.4055 37.6482 35.4055 37.9214V41.8812C35.4055 42.1544 35.6331 42.3762 35.9136 42.3762H44.0444C44.3249 42.3762 44.5525 42.1544 44.5525 41.8812V37.9214C44.5525 37.6482 44.3249 37.4265 44.0444 37.4265H35.9136ZM44.0444 45.346H35.9136C33.9521 45.346 32.3564 43.7918 32.3564 41.8812V37.9214C32.3564 36.0108 33.9521 34.4566 35.9136 34.4566H44.0444C46.0059 34.4566 47.6016 36.0108 47.6016 37.9214V41.8812C47.6016 43.7918 46.0059 45.346 44.0444 45.346Z" fill="#000927"/>
<path fill-rule="evenodd" clip-rule="evenodd" d="M25.9904 40.9902H13.9284C10.8787 40.9902 8.3999 38.557 8.3999 35.5677V15.9225C8.3999 12.9332 10.8787 10.5 13.9284 10.5H42.0732C45.1229 10.5 47.6017 12.9332 47.6017 15.9225V23.7743C47.6017 24.5906 46.9262 25.2532 46.0939 25.2532C45.2616 25.2532 44.5861 24.5906 44.5861 23.7743V15.9225C44.5861 14.5639 43.4583 13.4577 42.0732 13.4577H13.9284C12.5432 13.4577 11.4154 14.5639 11.4154 15.9225V35.5677C11.4154 36.9263 12.5432 38.0325 13.9284 38.0325H25.9904C26.8227 38.0325 27.4982 38.6951 27.4982 39.5114C27.4982 40.3277 26.8227 40.9902 25.9904 40.9902Z" fill="#000927"/>
<path fill-rule="evenodd" clip-rule="evenodd" d="M28.0006 27.197C27.7299 27.197 27.4592 27.1273 27.2209 26.9899L17.121 21.1828C16.404 20.7705 16.1717 19.8781 16.5999 19.1909C17.0301 18.5038 17.9573 18.2792 18.6805 18.6935L28.0006 24.0515L37.3207 18.6935C38.0439 18.2792 38.971 18.5038 39.4013 19.1909C39.8295 19.8781 39.5972 20.7705 38.8801 21.1828L28.7803 26.9899C28.5419 27.1273 28.2713 27.197 28.0006 27.197Z" fill="#000927"/>
</g>
<defs>
<clipPath id="clip0_912_3910">
<rect width="39.2" height="35" fill="white" transform="translate(8.3999 10.5)"/>
</clipPath>
</defs>
</svg>
