<svg width="56" height="56" viewBox="0 0 56 56" fill="none" xmlns="http://www.w3.org/2000/svg">
<path d="M56 0H0V56H56V0Z" fill="white"/>
<g clip-path="url(#clip0_912_3852)">
<path d="M27.9998 32.2C34.1854 32.2 39.1998 27.1856 39.1998 21C39.1998 14.8144 34.1854 9.79999 27.9998 9.79999C21.8142 9.79999 16.7998 14.8144 16.7998 21C16.7998 27.1856 21.8142 32.2 27.9998 32.2Z" fill="#FF3434"/>
<path fill-rule="evenodd" clip-rule="evenodd" d="M15.9376 48.909C15.5517 48.909 15.1657 48.7623 14.8722 48.4668L8.84164 42.4362C8.25266 41.8492 8.25266 40.8924 8.84164 40.3054C9.43063 39.7164 10.3835 39.7164 10.9724 40.3054L17.003 46.336C17.592 46.923 17.592 47.8798 17.003 48.4668C16.7095 48.7623 16.3236 48.909 15.9376 48.909Z" fill="#000927"/>
<path fill-rule="evenodd" clip-rule="evenodd" d="M9.90705 48.909C9.52109 48.909 9.13513 48.7623 8.84164 48.4668C8.25266 47.8798 8.25266 46.923 8.84164 46.336L14.8722 40.3054C15.4612 39.7164 16.414 39.7164 17.003 40.3054C17.592 40.8924 17.592 41.8492 17.003 42.4362L10.9724 48.4668C10.679 48.7623 10.293 48.909 9.90705 48.909Z" fill="#000927"/>
<path fill-rule="evenodd" clip-rule="evenodd" d="M31.0143 48.909C30.6283 48.909 30.2424 48.7623 29.9489 48.4668L23.9183 42.4362C23.3293 41.8492 23.3293 40.8924 23.9183 40.3054C24.5073 39.7164 25.4601 39.7164 26.0491 40.3054L32.0797 46.336C32.6687 46.923 32.6687 47.8798 32.0797 48.4668C31.7862 48.7623 31.4002 48.909 31.0143 48.909Z" fill="#000927"/>
<path fill-rule="evenodd" clip-rule="evenodd" d="M24.9837 48.909C24.5977 48.909 24.2118 48.7623 23.9183 48.4668C23.3293 47.8798 23.3293 46.923 23.9183 46.336L29.9489 40.3054C30.5379 39.7164 31.4907 39.7164 32.0797 40.3054C32.6687 40.8924 32.6687 41.8492 32.0797 42.4362L26.0491 48.4668C25.7556 48.7623 25.3697 48.909 24.9837 48.909Z" fill="#000927"/>
<path fill-rule="evenodd" clip-rule="evenodd" d="M46.0905 48.909C45.7045 48.909 45.3185 48.7623 45.0251 48.4668L38.9945 42.4362C38.4055 41.8492 38.4055 40.8924 38.9945 40.3054C39.5835 39.7164 40.5363 39.7164 41.1253 40.3054L47.1559 46.336C47.7449 46.923 47.7449 47.8798 47.1559 48.4668C46.8624 48.7623 46.4764 48.909 46.0905 48.909Z" fill="#000927"/>
<path fill-rule="evenodd" clip-rule="evenodd" d="M40.0599 48.909C39.6739 48.909 39.288 48.7623 38.9945 48.4668C38.4055 47.8798 38.4055 46.923 38.9945 46.336L45.0251 40.3054C45.614 39.7164 46.5669 39.7164 47.1559 40.3054C47.7449 40.8924 47.7449 41.8492 47.1559 42.4362L41.1253 48.4668C40.8318 48.7623 40.4458 48.909 40.0599 48.909Z" fill="#000927"/>
<path fill-rule="evenodd" clip-rule="evenodd" d="M34.9282 32.6381C34.3131 32.6381 33.7361 32.2602 33.513 31.6491C32.9944 30.2379 30.9339 28.8067 27.999 28.8067C25.0621 28.8067 22.9997 30.2379 22.4831 31.6491C22.1936 32.4311 21.3312 32.8311 20.5472 32.5456C19.7653 32.2582 19.3652 31.3918 19.6507 30.6098C20.7101 27.7292 24.0651 25.7914 27.999 25.7914C31.933 25.7914 35.286 27.7292 36.3434 30.6098C36.6308 31.3918 36.2288 32.2582 35.4488 32.5456C35.2759 32.608 35.1011 32.6381 34.9282 32.6381Z" fill="#000927"/>
<path fill-rule="evenodd" clip-rule="evenodd" d="M27.999 10.7153C22.1795 10.7153 17.4455 15.4493 17.4455 21.2688C17.4455 27.0883 22.1795 31.8224 27.999 31.8224C33.8185 31.8224 38.5525 27.0883 38.5525 21.2688C38.5525 15.4493 33.8185 10.7153 27.999 10.7153ZM27.999 34.8376C20.517 34.8376 14.4302 28.7508 14.4302 21.2688C14.4302 13.7869 20.517 7.70001 27.999 7.70001C35.4809 7.70001 41.5678 13.7869 41.5678 21.2688C41.5678 28.7508 35.4809 34.8376 27.999 34.8376Z" fill="#000927"/>
<path fill-rule="evenodd" clip-rule="evenodd" d="M27.9987 16.2433C26.6137 16.2433 25.486 17.371 25.486 18.7561C25.486 20.1411 26.6137 21.2688 27.9987 21.2688C29.3838 21.2688 30.5115 20.1411 30.5115 18.7561C30.5115 17.371 29.3838 16.2433 27.9987 16.2433ZM27.9987 24.2841C24.9493 24.2841 22.4707 21.8035 22.4707 18.7561C22.4707 15.7086 24.9493 13.228 27.9987 13.228C31.0482 13.228 33.5268 15.7086 33.5268 18.7561C33.5268 21.8035 31.0482 24.2841 27.9987 24.2841Z" fill="#000927"/>
</g>
<defs>
<clipPath id="clip0_912_3852">
<rect width="39.2" height="41.3" fill="white" transform="translate(8.3999 7.70001)"/>
</clipPath>
</defs>
</svg>
