<svg width="56" height="56" viewBox="0 0 56 56" fill="none" xmlns="http://www.w3.org/2000/svg">
<path d="M56 0H0V56H56V0Z" fill="white"/>
<g clip-path="url(#clip0_912_3706)">
<path d="M27.9999 40.6C34.9587 40.6 40.5999 34.9588 40.5999 28C40.5999 21.0412 34.9587 15.4 27.9999 15.4C21.0411 15.4 15.3999 21.0412 15.3999 28C15.3999 34.9588 21.0411 40.6 27.9999 40.6Z" fill="#00F6B4"/>
<path fill-rule="evenodd" clip-rule="evenodd" d="M31.4181 27.866C30.4908 27.866 29.7382 27.1134 29.7382 26.1861V23.1667C29.7382 22.2058 28.9564 21.4263 28 21.4263C27.0391 21.4263 26.2573 22.2058 26.2573 23.1667V26.1861C26.2573 27.1134 25.5047 27.866 24.5774 27.866C23.6501 27.866 22.8975 27.1134 22.8975 26.1861V23.1667C22.8975 20.3534 25.1867 18.0664 28 18.0664C30.8111 18.0664 33.098 20.3534 33.098 23.1667V26.1861C33.098 27.1134 32.3454 27.866 31.4181 27.866Z" fill="#000927"/>
<path fill-rule="evenodd" clip-rule="evenodd" d="M24.0795 27.8683C23.7704 27.8683 23.5195 28.1192 23.5195 28.4283V33.1859C23.5195 33.495 23.7704 33.7458 24.0795 33.7458H31.9192C32.2283 33.7458 32.4792 33.495 32.4792 33.1859V28.4283C32.4792 28.1192 32.2283 27.8683 31.9192 27.8683H24.0795ZM31.9192 37.1057H24.0795C21.918 37.1057 20.1597 35.3474 20.1597 33.1859V28.4283C20.1597 26.2668 21.918 24.5084 24.0795 24.5084H31.9192C34.0807 24.5084 35.8391 26.2668 35.8391 28.4283V33.1859C35.8391 35.3474 34.0807 37.1057 31.9192 37.1057Z" fill="#000927"/>
<path fill-rule="evenodd" clip-rule="evenodd" d="M27.9991 9.66182C26.7762 9.66182 25.5554 9.89925 24.3951 10.3764L13.4979 14.8338C12.4429 15.2661 11.7598 16.283 11.7598 17.4254V26.4477C11.7598 35.5351 18.2914 43.9795 27.2913 46.5286C27.7438 46.6562 28.2433 46.6585 28.7047 46.5286C37.7069 43.9795 44.2385 35.5351 44.2385 26.4477V17.4254C44.2385 16.283 43.5554 15.2661 42.4981 14.8338L31.6032 10.3764C30.4429 9.89925 29.2199 9.66182 27.9991 9.66182ZM27.9991 49.987C27.4526 49.987 26.9061 49.9108 26.3752 49.7608C15.9596 46.813 8.3999 37.0067 8.3999 26.4477V17.4254C8.3999 14.9122 9.90288 12.6745 12.2257 11.7248L23.1206 7.26511C26.2632 5.9794 29.7261 5.97716 32.8777 7.26511L43.7704 11.7248C46.0954 12.6745 47.5984 14.9122 47.5984 17.4254V26.4477C47.5984 37.0067 40.0364 46.8108 29.6208 49.7608C29.09 49.9108 28.5434 49.987 27.9991 49.987Z" fill="#000927"/>
</g>
<defs>
<clipPath id="clip0_912_3706">
<rect width="39.2" height="44.1" fill="white" transform="translate(8.3999 6.29999)"/>
</clipPath>
</defs>
</svg>
