<svg width="56" height="56" viewBox="0 0 56 56" fill="none" xmlns="http://www.w3.org/2000/svg">
<path d="M56 0H0V56H56V0Z" fill="white"/>
<g clip-path="url(#clip0_912_3860)">
<path d="M40.5997 23.1H14.6997V45.5H40.5997V23.1Z" fill="#00F6B4"/>
<path fill-rule="evenodd" clip-rule="evenodd" d="M17.3951 23.51C16.0183 23.51 14.8973 24.6362 14.8973 26.0194V42.0794C14.8973 43.4626 16.0183 44.5888 17.3951 44.5888H37.3776C38.7544 44.5888 39.8754 43.4626 39.8754 42.0794V26.0194C39.8754 24.6362 38.7544 23.51 37.3776 23.51H17.3951ZM37.3776 47.6H17.3951C14.3637 47.6 11.8999 45.1228 11.8999 42.0794V26.0194C11.8999 22.976 14.3637 20.4988 17.3951 20.4988H37.3776C40.4089 20.4988 42.8727 22.976 42.8727 26.0194V42.0794C42.8727 45.1228 40.4089 47.6 37.3776 47.6Z" fill="#000927"/>
<path fill-rule="evenodd" clip-rule="evenodd" d="M27.3864 39.8568C26.585 39.8568 25.9346 39.1813 25.9346 38.3489V33.1376C25.9346 32.3052 26.585 31.6296 27.3864 31.6296C28.1878 31.6296 28.8383 32.3052 28.8383 33.1376V38.3489C28.8383 39.1813 28.1878 39.8568 27.3864 39.8568Z" fill="#000927"/>
<path fill-rule="evenodd" clip-rule="evenodd" d="M27.3861 31.6297C27.3861 31.6297 27.3861 31.6316 27.3881 31.6335L28.838 31.6297H27.3861ZM27.3861 34.5334C25.7852 34.5334 24.4824 33.2306 24.4824 31.6297C24.4824 30.0287 25.7852 28.726 27.3861 28.726C28.987 28.726 30.2898 30.0287 30.2898 31.6297C30.2898 33.2306 28.987 34.5334 27.3861 34.5334Z" fill="#000927"/>
<path fill-rule="evenodd" clip-rule="evenodd" d="M35.5754 23.4025C34.7529 23.4025 34.0854 22.7304 34.0854 21.9022V17.9016C34.0854 14.317 31.1887 11.4005 27.6284 11.4005C24.0682 11.4005 21.1715 14.317 21.1715 17.9016V21.9022C21.1715 22.7304 20.504 23.4025 19.6815 23.4025C18.859 23.4025 18.1914 22.7304 18.1914 21.9022V17.9016C18.1914 12.6627 22.4252 8.40002 27.6284 8.40002C32.8317 8.40002 37.0655 12.6627 37.0655 17.9016V21.9022C37.0655 22.7304 36.3979 23.4025 35.5754 23.4025Z" fill="#000927"/>
</g>
<defs>
<clipPath id="clip0_912_3860">
<rect width="31.5" height="39.2" fill="white" transform="translate(11.8999 8.40002)"/>
</clipPath>
</defs>
</svg>
