<svg width="56" height="56" viewBox="0 0 56 56" fill="none" xmlns="http://www.w3.org/2000/svg">
<path d="M56 0H0V56H56V0Z" fill="white"/>
<g clip-path="url(#clip0_912_3654)">
<path d="M42.6997 15.4H14.6997V25.2H42.6997V15.4Z" fill="#FFCB2F"/>
<path fill-rule="evenodd" clip-rule="evenodd" d="M19.5995 20.3001C19.5995 20.4849 19.5266 20.6641 19.3958 20.7947C19.2651 20.9254 19.0857 21.0001 18.9007 21.0001H18.8989C18.7139 21.0001 18.5364 20.9235 18.4038 20.7947C18.131 20.5222 18.131 20.0779 18.4 19.8091C18.5327 19.6766 18.7139 19.6001 18.8989 19.6001H18.9007C19.0857 19.6001 19.2651 19.6747 19.3958 19.8054C19.5266 19.9361 19.5995 20.1153 19.5995 20.3001ZM18.9007 18.2001C18.3384 18.2001 17.8115 18.4185 17.4136 18.8161C16.5952 19.6337 16.5952 20.9665 17.4136 21.7841C17.8115 22.1817 18.3384 22.4001 18.9007 22.4001H18.9045C19.4668 22.4001 19.9937 22.1798 20.3861 21.7841C21.2044 20.9665 21.2044 19.6337 20.3861 18.8161C19.99 18.4203 19.465 18.2001 18.9045 18.2001H18.9007Z" fill="#000927"/>
<path fill-rule="evenodd" clip-rule="evenodd" d="M28.4951 20.7958C28.2355 21.0573 27.7629 21.0554 27.5052 20.7958C27.3726 20.6651 27.2997 20.4839 27.2997 20.3009C27.2997 20.116 27.3726 19.9367 27.5052 19.806C27.6341 19.6752 27.8152 19.6005 28.0001 19.6005C28.185 19.6005 28.3662 19.6752 28.4951 19.806C28.7678 20.0786 28.7678 20.5231 28.4951 20.7958ZM26.5134 18.8143C25.6954 19.6342 25.6954 20.9676 26.5134 21.7856C26.9243 22.1965 27.4622 22.4001 27.9983 22.4001C28.5362 22.4001 29.0759 22.1965 29.485 21.7856C30.3049 20.9676 30.3049 19.6342 29.485 18.8143C28.665 17.9963 27.3352 17.9944 26.5134 18.8143Z" fill="#000927"/>
<path fill-rule="evenodd" clip-rule="evenodd" d="M36.6048 19.805C36.7337 19.6743 36.9149 19.5996 37.0998 19.5996C37.2847 19.5996 37.4658 19.6743 37.5947 19.805C37.7273 19.9357 37.8002 20.1168 37.8002 20.2997C37.8002 20.4846 37.7273 20.6638 37.5947 20.7945C37.3388 21.0558 36.8663 21.0577 36.6048 20.7945C36.3321 20.5219 36.3321 20.0776 36.6048 19.805ZM37.1016 22.4001C37.6377 22.4001 38.1756 22.1947 38.5865 21.7858C39.4045 20.9662 39.4045 19.6332 38.5865 18.8155C37.7628 17.994 36.433 17.9959 35.6149 18.8155C34.795 19.6332 34.795 20.9662 35.6149 21.7858C36.024 22.1947 36.5637 22.4001 37.1016 22.4001Z" fill="#000927"/>
<path fill-rule="evenodd" clip-rule="evenodd" d="M42.0717 8.40002H13.9281C10.8785 8.40002 8.3999 10.8788 8.3999 13.9239V25.9761C8.3999 29.0213 10.8785 31.5 13.9281 31.5H25.9896C26.8219 31.5 27.4973 30.8271 27.4973 29.9935C27.4973 29.1599 26.8219 28.487 25.9896 28.487H13.9281C12.543 28.487 11.4153 27.3601 11.4153 25.9761V13.9239C11.4153 12.5399 12.543 11.4131 13.9281 11.4131H42.0717C43.4568 11.4131 44.5845 12.5399 44.5845 13.9239V19.95C44.5845 20.7836 45.26 21.4565 46.0922 21.4565C46.9245 21.4565 47.5999 20.7836 47.5999 19.95V13.9239C47.5999 10.8788 45.1213 8.40002 42.0717 8.40002Z" fill="#000927"/>
<path fill-rule="evenodd" clip-rule="evenodd" d="M44.6351 44.1C44.6351 44.376 44.4137 44.6 44.141 44.6H34.2586C33.9859 44.6 33.7645 44.376 33.7645 44.1V37.496C33.7645 37.22 33.9859 36.996 34.2586 36.996H44.141C44.4137 36.996 44.6351 37.22 44.6351 37.496V44.1ZM39.0615 29.6C40.3837 29.6 41.4589 30.688 41.4589 32.026V33.996H36.664V32.026C36.664 30.688 37.7392 29.6 39.0615 29.6ZM44.4236 34.024V32.026C44.4236 29.034 42.0183 26.6 39.0615 26.6C36.1047 26.6 33.6993 29.034 33.6993 32.026V34.054C32.0588 34.326 30.7998 35.76 30.7998 37.496V44.1C30.7998 46.03 32.3513 47.6 34.2586 47.6H44.141C46.0483 47.6 47.5998 46.03 47.5998 44.1V37.496C47.5998 35.664 46.1965 34.172 44.4236 34.024Z" fill="#000927"/>
</g>
<defs>
<clipPath id="clip0_912_3654">
<rect width="39.2" height="39.2" fill="white" transform="translate(8.3999 8.40002)"/>
</clipPath>
</defs>
</svg>
