<svg width="56" height="56" viewBox="0 0 56 56" fill="none" xmlns="http://www.w3.org/2000/svg">
<path d="M56 0H0V56H56V0Z" fill="white"/>
<g clip-path="url(#clip0_912_3914)">
<path d="M28 42C35.732 42 42 35.732 42 28C42 20.268 35.732 14 28 14C20.268 14 14 20.268 14 28C14 35.732 20.268 42 28 42Z" fill="#FFCB2F"/>
<path fill-rule="evenodd" clip-rule="evenodd" d="M40.5401 42.4757C40.1541 42.4757 39.7682 42.3289 39.4747 42.0334L13.9364 16.4951C13.3474 15.9081 13.3474 14.9532 13.9364 14.3642C14.5254 13.7752 15.4782 13.7752 16.0673 14.3642L41.6056 39.9025C42.1946 40.4895 42.1946 41.4464 41.6056 42.0334C41.3121 42.3289 40.9261 42.4757 40.5401 42.4757Z" fill="#000927"/>
<path fill-rule="evenodd" clip-rule="evenodd" d="M27.7857 40.0605C27.4601 40.0605 27.1344 40.0163 26.8168 39.9259C21.5439 38.4342 17.7144 33.4649 17.7144 28.1076V22.9613C17.7144 21.4757 18.6049 20.149 19.9799 19.5861C20.7519 19.2685 21.6303 19.6383 21.948 20.4083C22.2636 21.1782 21.8937 22.0587 21.1238 22.3743C20.8886 22.4708 20.7297 22.708 20.7297 22.9613V28.1076C20.7297 32.1421 23.6366 35.8933 27.639 37.0251C27.7335 37.0512 27.838 37.0512 27.9285 37.0251C29.8623 36.4783 31.6233 35.2641 32.8938 33.6036C33.3984 32.9442 34.3432 32.8136 35.0066 33.3202C35.668 33.8267 35.7946 34.7736 35.288 35.4349C33.6255 37.61 31.3057 39.2042 28.7507 39.9259C28.4351 40.0163 28.1094 40.0605 27.7857 40.0605Z" fill="#000927"/>
<path fill-rule="evenodd" clip-rule="evenodd" d="M27.9999 11.4154C18.8552 11.4154 11.4153 18.8553 11.4153 28C11.4153 37.1446 18.8552 44.5846 27.9999 44.5846C37.1446 44.5846 44.5845 37.1446 44.5845 28C44.5845 18.8553 37.1446 11.4154 27.9999 11.4154ZM27.9999 47.6C17.1928 47.6 8.3999 38.8071 8.3999 28C8.3999 17.1929 17.1928 8.39999 27.9999 8.39999C38.807 8.39999 47.5999 17.1929 47.5999 28C47.5999 38.8071 38.807 47.6 27.9999 47.6Z" fill="#000927"/>
<path fill-rule="evenodd" clip-rule="evenodd" d="M36.347 29.618C35.5147 29.618 34.8393 28.9426 34.8393 28.1103V22.9621C34.8393 22.7068 34.6805 22.4716 34.4473 22.3751L29.2427 20.2462C28.3019 19.8623 27.2686 19.8643 26.3299 20.2462C25.5579 20.5598 24.6774 20.1919 24.3638 19.42C24.0502 18.6501 24.4181 17.7696 25.19 17.456C26.8626 16.7705 28.708 16.7705 30.3845 17.456L35.5891 19.5848C36.9661 20.1497 37.8547 21.4745 37.8547 22.9621V28.1103C37.8547 28.9426 37.1792 29.618 36.347 29.618Z" fill="#000927"/>
</g>
<defs>
<clipPath id="clip0_912_3914">
<rect width="39.2" height="39.2" fill="white" transform="translate(8.3999 8.39999)"/>
</clipPath>
</defs>
</svg>
