<svg width="56" height="56" viewBox="0 0 56 56" fill="none" xmlns="http://www.w3.org/2000/svg">
<path d="M56 0H0V56H56V0Z" fill="white"/>
<g clip-path="url(#clip0_912_3710)">
<path d="M42 21H14C12.067 21 10.5 22.567 10.5 24.5V40.6C10.5 42.533 12.067 44.1 14 44.1H42C43.933 44.1 45.5 42.533 45.5 40.6V24.5C45.5 22.567 43.933 21 42 21Z" fill="#00F6B4"/>
<path fill-rule="evenodd" clip-rule="evenodd" d="M42.5855 12.5489H42.5818L13.4086 12.6112C12.156 12.613 11.1349 13.6411 11.1349 14.9019V40.4884C11.1349 41.751 12.1578 42.7791 13.4141 42.7791H42.5873C43.8436 42.7791 44.8665 41.751 44.8665 40.4884V14.8396C44.8665 14.2275 44.6294 13.6521 44.1973 13.2178C43.7652 12.7871 43.1945 12.5489 42.5855 12.5489ZM42.5873 45.528H13.4141C10.6481 45.528 8.3999 43.2666 8.3999 40.4884V14.9019C8.3999 12.1292 10.6426 9.86779 13.4013 9.8623L42.5745 9.79999H42.5855C43.9238 9.79999 45.1819 10.3223 46.1282 11.2734C47.0782 12.2245 47.6015 13.4926 47.6015 14.8396V40.4884C47.6015 43.2666 45.3533 45.528 42.5873 45.528Z" fill="#000927"/>
<path fill-rule="evenodd" clip-rule="evenodd" d="M19.4196 35.6035H17.8606C17.8093 35.6035 17.7599 35.6017 17.7105 35.5961C16.5284 35.5499 15.5457 34.9743 14.9382 34.0379C14.521 33.3957 14.6985 32.5351 15.3335 32.115C15.9703 31.6931 16.8193 31.8763 17.2329 32.5166C17.3207 32.6517 17.5623 32.7998 17.8606 32.8294V32.8275H19.4196C19.7636 32.8275 20.0454 32.5444 20.0454 32.1946C20.0454 31.904 19.8496 31.6524 19.5715 31.582L16.9054 30.9047C15.4048 30.5253 14.3545 29.165 14.3545 27.5994C14.3545 25.7191 15.8678 24.1904 17.7251 24.1904H19.2842C20.5304 24.1904 21.5752 24.7752 22.2084 25.7543C22.6256 26.3946 22.4481 27.2551 21.8149 27.6753C21.1836 28.0972 20.3291 27.9158 19.9155 27.2774C19.8387 27.1608 19.6758 26.9664 19.4196 26.9664H17.7251C17.3811 26.9664 17.0993 27.2514 17.0993 27.5994C17.0993 27.8899 17.2951 28.1416 17.5714 28.2119L20.2394 28.8893C21.7417 29.2705 22.7903 30.6289 22.7903 32.1946C22.7903 34.0749 21.2788 35.6035 19.4196 35.6035Z" fill="#000927"/>
<path fill-rule="evenodd" clip-rule="evenodd" d="M29.3439 35.6035H27.7849C27.7336 35.6035 27.6842 35.6017 27.6348 35.5961C26.4527 35.5499 25.4701 34.9743 24.8625 34.0379C24.4453 33.3957 24.6228 32.5351 25.2578 32.115C25.8946 31.6931 26.7418 31.8763 27.1572 32.5166C27.2451 32.6517 27.4903 32.7998 27.7849 32.8294V32.8275H29.3439C29.688 32.8275 29.9698 32.5444 29.9698 32.1946C29.9698 31.904 29.774 31.6524 29.4958 31.582L26.8297 30.9047C25.3292 30.5253 24.2788 29.165 24.2788 27.5994C24.2788 25.7191 25.7921 24.1904 27.6495 24.1904H29.2085C30.4547 24.1904 31.4995 24.7752 32.1327 25.7543C32.5499 26.3946 32.3724 27.2551 31.7393 27.6753C31.1079 28.0972 30.2534 27.9158 29.8398 27.2774C29.763 27.1608 29.6001 26.9664 29.3439 26.9664H27.6495C27.3054 26.9664 27.0236 27.2514 27.0236 27.5994C27.0236 27.8899 27.2194 28.1416 27.4957 28.2119L30.1637 28.8893C31.6661 29.2705 32.7146 30.6289 32.7146 32.1946C32.7146 34.0749 31.2031 35.6035 29.3439 35.6035Z" fill="#000927"/>
<path fill-rule="evenodd" clip-rule="evenodd" d="M40.7474 35.6035H36.0953C35.3249 35.6035 34.6997 34.9817 34.6997 34.2155V25.5784C34.6997 24.8123 35.3249 24.1904 36.0953 24.1904C36.8657 24.1904 37.491 24.8123 37.491 25.5784V32.8275H40.7474C41.5178 32.8275 42.143 33.4494 42.143 34.2155C42.143 34.9817 41.5178 35.6035 40.7474 35.6035Z" fill="#000927"/>
<path fill-rule="evenodd" clip-rule="evenodd" d="M20.8056 18.2358C20.1667 18.2358 19.6146 17.8237 19.4056 17.2519C19.3879 17.2006 19.3721 17.1493 19.3603 17.0981C19.3327 16.9857 19.3169 16.8674 19.3169 16.7471C19.3169 16.4454 19.4096 16.1457 19.5851 15.8933C19.8611 15.497 20.3225 15.2584 20.8056 15.2584C21.6219 15.2584 22.2942 15.9308 22.2942 16.7471C22.2942 17.5634 21.6219 18.2358 20.8056 18.2358Z" fill="#000927"/>
<path fill-rule="evenodd" clip-rule="evenodd" d="M26.2641 18.2358C25.4478 18.2358 24.7754 17.5634 24.7754 16.7471C24.7754 15.9308 25.4478 15.2584 26.2641 15.2584C27.0804 15.2584 27.7527 15.9308 27.7527 16.7471C27.7527 17.5634 27.0804 18.2358 26.2641 18.2358Z" fill="#000927"/>
<path fill-rule="evenodd" clip-rule="evenodd" d="M15.3471 18.2358C14.5308 18.2358 13.8584 17.5634 13.8584 16.7471C13.8584 15.9308 14.5308 15.2584 15.3471 15.2584C16.1634 15.2584 16.8357 15.9308 16.8357 16.7471C16.8357 17.5634 16.1634 18.2358 15.3471 18.2358Z" fill="#000927"/>
</g>
<defs>
<clipPath id="clip0_912_3710">
<rect width="39.2" height="36.4" fill="white" transform="translate(8.3999 9.79999)"/>
</clipPath>
</defs>
</svg>
