<svg width="56" height="56" viewBox="0 0 56 56" fill="none" xmlns="http://www.w3.org/2000/svg">
<path d="M56 0H0V56H56V0Z" fill="white"/>
<g clip-path="url(#clip0_912_3663)">
<path d="M30.0998 9.80005H11.1998C8.49361 9.80005 6.2998 11.9939 6.2998 14.7V35C6.2998 37.7062 8.49361 39.9 11.1998 39.9H30.0998C32.806 39.9 34.9998 37.7062 34.9998 35V14.7C34.9998 11.9939 32.806 9.80005 30.0998 9.80005Z" fill="#FF3434"/>
<path fill-rule="evenodd" clip-rule="evenodd" d="M33.3338 32.3681C32.476 32.3681 31.7799 31.6656 31.7799 30.8001V28.101C31.7799 27.0515 30.833 26.0961 29.7928 26.0961C28.6968 26.0961 27.8037 26.9951 27.8037 28.101V30.8001C27.8037 31.6656 27.1076 32.3681 26.2498 32.3681C25.392 32.3681 24.6958 31.6656 24.6958 30.8001V28.101C24.6958 25.2661 26.9833 22.9601 29.7928 22.9601C32.5548 22.9601 34.8878 25.3142 34.8878 28.101V30.8001C34.8878 31.6656 34.1916 32.3681 33.3338 32.3681Z" fill="#000927"/>
<path fill-rule="evenodd" clip-rule="evenodd" d="M25.7817 32.2255C25.5275 32.2255 25.323 32.4331 25.323 32.6885V36.7516C25.323 37.0071 25.5275 37.2146 25.7817 37.2146H33.7978C34.052 37.2146 34.2605 37.0071 34.2605 36.7516V32.6885C34.2605 32.4331 34.052 32.2255 33.7978 32.2255H25.7817ZM33.7978 40.2081H25.7817C23.885 40.2081 22.3438 38.6574 22.3438 36.7516V32.6885C22.3438 30.7827 23.885 29.2321 25.7817 29.2321H33.7978C35.6945 29.2321 37.2397 30.7827 37.2397 32.6885V36.7516C37.2397 38.6574 35.6945 40.2081 33.7978 40.2081Z" fill="#000927"/>
<path fill-rule="evenodd" clip-rule="evenodd" d="M43.5421 14.3361H33.2898C32.4409 14.3361 31.752 13.6336 31.752 12.7681C31.752 11.9025 32.4409 11.2001 33.2898 11.2001H43.5421C44.391 11.2001 45.08 11.9025 45.08 12.7681C45.08 13.6336 44.391 14.3361 43.5421 14.3361Z" fill="#000927"/>
<mask id="mask0_912_3663" style="mask-type:alpha" maskUnits="userSpaceOnUse" x="9" y="11" width="40" height="36">
<path d="M9.7998 11.2001H48.9998V46.4801H9.7998V11.2001Z" fill="white"/>
</mask>
<g mask="url(#mask0_912_3663)">
<path fill-rule="evenodd" clip-rule="evenodd" d="M14.8798 14.2307C13.742 14.2307 12.8152 15.1621 12.8152 16.3076V41.3746C12.8152 42.5181 13.742 43.4495 14.8798 43.4495H43.9164C45.0582 43.4495 45.985 42.5181 45.985 41.3746V21.6192C45.985 20.4736 45.0582 19.5423 43.9164 19.5423H30.9681C29.5489 19.5423 28.1839 18.9402 27.227 17.8916L24.491 14.9014C24.101 14.4751 23.5461 14.2307 22.9692 14.2307H14.8798ZM43.9164 46.4801H14.8798C12.0775 46.4801 9.7998 44.1889 9.7998 41.3746V16.3076C9.7998 13.4912 12.0775 11.2001 14.8798 11.2001H22.9692C24.3864 11.2001 25.7494 11.8021 26.7103 12.8487L29.4463 15.8409C29.8363 16.2672 30.3912 16.5117 30.9681 16.5117H43.9164C46.7207 16.5117 49.0004 18.8028 49.0004 21.6192V41.3746C49.0004 44.1889 46.7207 46.4801 43.9164 46.4801Z" fill="#000927"/>
</g>
</g>
<defs>
<clipPath id="clip0_912_3663">
<rect width="42.7" height="37.1" fill="white" transform="translate(6.2998 9.80005)"/>
</clipPath>
</defs>
</svg>
