<svg width="56" height="56" viewBox="0 0 56 56" fill="none" xmlns="http://www.w3.org/2000/svg">
<path d="M56 0H0V56H56V0Z" fill="white"/>
<g clip-path="url(#clip0_912_3856)">
<path d="M26.8003 41.8C35.0846 41.8 41.8003 35.0843 41.8003 26.8C41.8003 18.5157 35.0846 11.8 26.8003 11.8C18.516 11.8 11.8003 18.5157 11.8003 26.8C11.8003 35.0843 18.516 41.8 26.8003 41.8Z" fill="#FFCB2F"/>
<path fill-rule="evenodd" clip-rule="evenodd" d="M27.1387 43.0769C18.3492 43.0769 11.2002 35.9279 11.2002 27.1385C11.2002 18.3491 18.3492 11.2 27.1387 11.2C35.9281 11.2 43.0771 18.3491 43.0771 27.1385C43.0771 27.8518 42.4982 28.4308 41.7848 28.4308C41.0715 28.4308 40.4925 27.8518 40.4925 27.1385C40.4925 19.7758 34.5014 13.7846 27.1387 13.7846C19.7759 13.7846 13.7848 19.7758 13.7848 27.1385C13.7848 34.5012 19.7759 40.4923 27.1387 40.4923C27.852 40.4923 28.431 41.0713 28.431 41.7846C28.431 42.498 27.852 43.0769 27.1387 43.0769Z" fill="#000927"/>
<path fill-rule="evenodd" clip-rule="evenodd" d="M40.9484 23.5493H13.3275C12.6141 23.5493 12.0352 22.9703 12.0352 22.257C12.0352 21.5436 12.6141 20.9647 13.3275 20.9647H40.9484C41.6617 20.9647 42.2407 21.5436 42.2407 22.257C42.2407 22.9703 41.6617 23.5493 40.9484 23.5493Z" fill="#000927"/>
<path fill-rule="evenodd" clip-rule="evenodd" d="M27.1387 33.3122H13.3265C12.6131 33.3122 12.0342 32.7333 12.0342 32.0199C12.0342 31.3066 12.6131 30.7276 13.3265 30.7276H27.1387C27.852 30.7276 28.431 31.3066 28.431 32.0199C28.431 32.7333 27.852 33.3122 27.1387 33.3122Z" fill="#000927"/>
<path fill-rule="evenodd" clip-rule="evenodd" d="M27.1389 43.0769C25.4606 43.0769 23.9322 42.1982 23.0483 40.7267C18.1048 32.4714 18.1065 21.8055 23.0483 13.552C23.9305 12.0805 25.4572 11.2 27.1372 11.2H27.1389C28.8172 11.2 30.3455 12.0788 31.2295 13.552C33.6556 17.603 34.9392 22.3018 34.9392 27.1385C34.9392 27.8518 34.3603 28.4308 33.6469 28.4308C32.9336 28.4308 32.3546 27.8518 32.3546 27.1385C32.3546 22.7687 31.1984 18.53 29.0119 14.8805C28.5949 14.1844 27.9108 13.7846 27.1389 13.7846H27.1372C26.3652 13.7846 25.6829 14.1844 25.2659 14.8805C20.8048 22.3276 20.8048 31.9493 25.2642 39.3982C25.6812 40.0926 26.3652 40.4923 27.1389 40.4923C27.8522 40.4923 28.4312 41.0713 28.4312 41.7846C28.4312 42.498 27.8522 43.0769 27.1389 43.0769Z" fill="#000927"/>
<path fill-rule="evenodd" clip-rule="evenodd" d="M41.3067 37.9077C40.5933 37.9077 40.0144 37.3288 40.0144 36.6154V34.415C40.0144 33.538 39.2149 32.7385 38.3378 32.7385C37.4125 32.7385 36.6613 33.4915 36.6613 34.415V36.6154C36.6613 37.3288 36.0823 37.9077 35.369 37.9077C34.6556 37.9077 34.0767 37.3288 34.0767 36.6154V34.415C34.0767 32.0648 35.9876 30.1539 38.3378 30.1539C40.6468 30.1539 42.599 32.1061 42.599 34.415V36.6154C42.599 37.3288 42.02 37.9077 41.3067 37.9077Z" fill="#000927"/>
<path fill-rule="evenodd" clip-rule="evenodd" d="M34.8471 37.9077C34.6351 37.9077 34.4611 38.08 34.4611 38.2936V41.8294C34.4611 42.0413 34.6351 42.2154 34.8471 42.2154H41.829C42.0426 42.2154 42.2149 42.0413 42.2149 41.8294V38.2936C42.2149 38.08 42.0426 37.9077 41.829 37.9077H34.8471ZM41.829 44.8H34.8471C33.2101 44.8 31.8765 43.468 31.8765 41.8294V38.2936C31.8765 36.655 33.2101 35.3231 34.8471 35.3231H41.829C43.4676 35.3231 44.7995 36.655 44.7995 38.2936V41.8294C44.7995 43.468 43.4676 44.8 41.829 44.8Z" fill="#000927"/>
</g>
<defs>
<clipPath id="clip0_912_3856">
<rect width="33.6" height="33.6" fill="white" transform="translate(11.2002 11.2)"/>
</clipPath>
</defs>
</svg>
