<svg width="32" height="32" viewBox="0 0 32 32" fill="none" xmlns="http://www.w3.org/2000/svg">
<g clip-path="url(#clip0_1865_19085)">
<path d="M10 18C14.4183 18 18 14.4183 18 10C18 5.58172 14.4183 2 10 2C5.58172 2 2 5.58172 2 10C2 14.4183 5.58172 18 10 18Z" fill="#FF3434"/>
<path d="M20.707 11.293C20.3165 10.9025 19.6835 10.9025 19.293 11.293L16 14.586L12.707 11.293C12.3165 10.9025 11.6835 10.9025 11.293 11.293C10.9025 11.6835 10.9025 12.3165 11.293 12.707L14.586 16L11.293 19.293C10.9025 19.6835 10.9025 20.3165 11.293 20.707C11.4885 20.9025 11.744 21 12 21C12.256 21 12.5115 20.9025 12.707 20.707L16 17.414L19.293 20.707C19.4885 20.9025 19.744 21 20 21C20.256 21 20.5115 20.9025 20.707 20.707C21.0975 20.3165 21.0975 19.6835 20.707 19.293L17.414 16L20.707 12.707C21.0975 12.3165 21.0975 11.6835 20.707 11.293ZM16 4C9.3835 4 4 9.3835 4 16C4 22.6165 9.3835 28 16 28C22.6165 28 28 22.6165 28 16C28 9.3835 22.6165 4 16 4ZM16 26C10.486 26 6 21.514 6 16C6 10.486 10.486 6 16 6C21.514 6 26 10.486 26 16C26 21.514 21.514 26 16 26Z" fill="#000927"/>
</g>
<defs>
<clipPath id="clip0_1865_19085">
<rect width="32" height="32" fill="white"/>
</clipPath>
</defs>
</svg>
