<svg width="28" height="28" viewBox="0 0 28 28" fill="none" xmlns="http://www.w3.org/2000/svg">
<path fill-rule="evenodd" clip-rule="evenodd" d="M0.666687 14C0.666687 6.63996 6.64002 0.666626 14 0.666626C21.36 0.666626 27.3334 6.63996 27.3334 14C27.3334 21.36 21.36 27.3333 14 27.3333C6.64002 27.3333 0.666687 21.36 0.666687 14ZM15.3334 19.3333V22H12.6667V19.3333H15.3334ZM14 24.6666C8.12002 24.6666 3.33335 19.88 3.33335 14C3.33335 8.11996 8.12002 3.33329 14 3.33329C19.88 3.33329 24.6667 8.11996 24.6667 14C24.6667 19.88 19.88 24.6666 14 24.6666ZM8.66669 11.3333C8.66669 8.38663 11.0534 5.99996 14 5.99996C16.9467 5.99996 19.3334 8.38663 19.3334 11.3333C19.3334 13.0438 18.28 13.9644 17.2544 14.8607C16.2814 15.711 15.3334 16.5395 15.3334 18H12.6667C12.6667 15.5716 13.9228 14.6087 15.0273 13.7622C15.8937 13.0981 16.6667 12.5056 16.6667 11.3333C16.6667 9.86663 15.4667 8.66663 14 8.66663C12.5334 8.66663 11.3334 9.86663 11.3334 11.3333H8.66669Z" fill="#4A546A"/>
</svg>
