<svg width="28" height="28" viewBox="0 0 28 28" fill="none" xmlns="http://www.w3.org/2000/svg">
<path d="M14 0.666626C6.64002 0.666626 0.666687 6.63996 0.666687 14C0.666687 21.36 6.64002 27.3333 14 27.3333C21.36 27.3333 27.3334 21.36 27.3334 14C27.3334 6.63996 21.36 0.666626 14 0.666626ZM14 24.6666C8.12002 24.6666 3.33335 19.88 3.33335 14C3.33335 8.11996 8.12002 3.33329 14 3.33329C19.88 3.33329 24.6667 8.11996 24.6667 14C24.6667 19.88 19.88 24.6666 14 24.6666ZM15.1867 12.8C12.8134 12.0133 11.6667 11.52 11.6667 10.2666C11.6667 8.90663 13.1467 8.41329 14.08 8.41329C15.8267 8.41329 16.4667 9.73329 16.6134 10.2L18.72 9.30663C18.52 8.71996 17.6267 6.75996 15.1734 6.33329V4.66663H12.84V6.34663C9.37335 7.09329 9.34669 10.1466 9.34669 10.2933C9.34669 13.32 12.3467 14.1733 13.8134 14.7066C15.92 15.4533 16.8534 16.1333 16.8534 17.4133C16.8534 18.92 15.4534 19.56 14.2134 19.56C11.7867 19.56 11.0934 17.0666 11.0134 16.7733L8.80002 17.6666C9.64002 20.5866 11.84 21.3733 12.8267 21.6133V23.3333H15.16V21.68C15.8534 21.56 19.1867 20.8933 19.1867 17.3866C19.2 15.5333 18.3867 13.9066 15.1867 12.8Z" fill="#4A546A"/>
</svg>
