<svg width="28" height="22" viewBox="0 0 28 22" fill="none" xmlns="http://www.w3.org/2000/svg">
<path d="M24.6667 0.333374H3.33335C1.85335 0.333374 0.68002 1.52004 0.68002 3.00004L0.666687 19C0.666687 20.48 1.85335 21.6667 3.33335 21.6667H24.6667C26.1467 21.6667 27.3334 20.48 27.3334 19V3.00004C27.3334 1.52004 26.1467 0.333374 24.6667 0.333374ZM23.3334 19H4.66669C3.93335 19 3.33335 18.4 3.33335 17.6667V11H24.6667V17.6667C24.6667 18.4 24.0667 19 23.3334 19ZM24.6667 5.66671H3.33335V4.33337C3.33335 3.60004 3.93335 3.00004 4.66669 3.00004H23.3334C24.0667 3.00004 24.6667 3.60004 24.6667 4.33337V5.66671Z" fill="#4A546A"/>
</svg>
