<svg width="32" height="32" viewBox="0 0 32 32" fill="none" xmlns="http://www.w3.org/2000/svg">
<path fill-rule="evenodd" clip-rule="evenodd" d="M11.855 14.7261H6.11312C4.53411 14.7261 3.24219 13.4342 3.24219 11.8552V6.11333C3.24219 4.53432 4.53411 3.2424 6.11312 3.2424H11.855C13.434 3.2424 14.7259 4.53432 14.7259 6.11333V11.8552C14.7259 13.4342 13.434 14.7261 11.855 14.7261ZM11.8548 6.11343H6.11298V11.8553H11.8548V6.11343Z" fill="#4A546A"/>
<path fill-rule="evenodd" clip-rule="evenodd" d="M11.855 29.0807H6.11312C4.53411 29.0807 3.24219 27.7888 3.24219 26.2098V20.4679C3.24219 18.8889 4.53411 17.597 6.11312 17.597H11.855C13.434 17.597 14.7259 18.8889 14.7259 20.4679V26.2098C14.7259 27.7888 13.434 29.0807 11.855 29.0807ZM11.8548 20.4681H6.11298V26.2099H11.8548V20.4681Z" fill="#4A546A"/>
<path fill-rule="evenodd" clip-rule="evenodd" d="M17.5977 11.8552V6.11333C17.5977 4.53432 18.8896 3.2424 20.4686 3.2424H26.2104C27.7895 3.2424 29.0814 4.53432 29.0814 6.11333V11.8552C29.0814 13.4342 27.7895 14.7261 26.2104 14.7261H20.4686C18.8896 14.7261 17.5977 13.4342 17.5977 11.8552ZM20.4684 11.8552H26.2102V6.11336H20.4684V11.8552Z" fill="#4A546A"/>
<path d="M29.0809 28.3631V26.9276C29.0809 26.5257 28.7651 26.2099 28.3632 26.2099H26.9277C26.5258 26.2099 26.21 26.5257 26.21 26.9276V28.3631C26.21 28.765 26.5258 29.0808 26.9277 29.0808H28.3632C28.7651 29.0808 29.0809 28.765 29.0809 28.3631Z" fill="#4A546A"/>
<path d="M17.5977 18.3147V19.7502C17.5977 20.1521 17.9135 20.4679 18.3154 20.4679H19.7509C20.1528 20.4679 20.4686 20.1521 20.4686 19.7502V18.3147C20.4686 17.9128 20.1528 17.597 19.7509 17.597H18.3154C17.9135 17.597 17.5977 17.9128 17.5977 18.3147Z" fill="#4A546A"/>
<path d="M22.621 20.468H21.1855C20.7836 20.468 20.4678 20.7838 20.4678 21.1857V22.6212C20.4678 23.0231 20.7836 23.3389 21.1855 23.3389H22.621C23.0229 23.3389 23.3387 23.0231 23.3387 22.6212V21.1857C23.3387 20.7838 23.0229 20.468 22.621 20.468Z" fill="#4A546A"/>
<path d="M17.5977 24.0568V25.4923C17.5977 25.8942 17.9135 26.21 18.3154 26.21H19.7509C20.1528 26.21 20.4686 25.8942 20.4686 25.4923V24.0568C20.4686 23.6549 20.1528 23.3391 19.7509 23.3391H18.3154C17.9135 23.3391 17.5977 23.6549 17.5977 24.0568Z" fill="#4A546A"/>
<path d="M21.1855 29.0808H22.621C23.0229 29.0808 23.3387 28.765 23.3387 28.3631V26.9276C23.3387 26.5257 23.0229 26.2099 22.621 26.2099H21.1855C20.7836 26.2099 20.4678 26.5257 20.4678 26.9276V28.3631C20.4678 28.765 20.7836 29.0808 21.1855 29.0808Z" fill="#4A546A"/>
<path d="M24.0566 26.21H25.4921C25.894 26.21 26.2098 25.8942 26.2098 25.4923V24.0568C26.2098 23.6549 25.894 23.3391 25.4921 23.3391H24.0566C23.6547 23.3391 23.3389 23.6549 23.3389 24.0568V25.4923C23.3389 25.8942 23.6547 26.21 24.0566 26.21Z" fill="#4A546A"/>
<path d="M25.4921 17.597H24.0566C23.6547 17.597 23.3389 17.9128 23.3389 18.3147V19.7502C23.3389 20.1521 23.6547 20.4679 24.0566 20.4679H25.4921C25.894 20.4679 26.2098 20.1521 26.2098 19.7502V18.3147C26.2098 17.9128 25.894 17.597 25.4921 17.597Z" fill="#4A546A"/>
<path d="M26.9277 23.3389H28.3632C28.7651 23.3389 29.0809 23.0231 29.0809 22.6212V21.1857C29.0809 20.7838 28.7651 20.468 28.3632 20.468H26.9277C26.5258 20.468 26.21 20.7838 26.21 21.1857V22.6212C26.21 23.0231 26.5258 23.3389 26.9277 23.3389Z" fill="#4A546A"/>
</svg>
