<svg width="32" height="32" viewBox="0 0 32 32" fill="none" xmlns="http://www.w3.org/2000/svg">
<circle cx="16" cy="16" r="14.75" fill="white" stroke="#000927" stroke-width="2.5"/>
<path d="M30.0802 8.95999C30.5695 11.2573 29.4402 11.5202 28.1602 10.2402C30.7202 20.4802 28.1602 21.1202 26.2402 24.9602C28.2882 23.9362 28.3736 25.3866 28.1602 26.24C35.8402 17.92 29.5306 6.37909 30.0802 8.95999Z" fill="white"/>
<path d="M29.4392 18.5599C29.0125 19.4132 28.1592 21.2479 28.1592 21.7599" stroke="white"/>
<path fill-rule="evenodd" clip-rule="evenodd" d="M13.1195 15.2535H9.49297C8.49567 15.2535 7.67969 14.4375 7.67969 13.4402V9.81362C7.67969 8.81631 8.49567 8.00034 9.49297 8.00034H13.1195C14.1169 8.00034 14.9328 8.81631 14.9328 9.81362V13.4402C14.9328 14.4375 14.1169 15.2535 13.1195 15.2535ZM13.1186 9.8137H9.49207V13.4403H13.1186V9.8137Z" fill="#000927"/>
<path fill-rule="evenodd" clip-rule="evenodd" d="M13.1195 24.3199H9.49297C8.49567 24.3199 7.67969 23.5039 7.67969 22.5066V18.88C7.67969 17.8827 8.49567 17.0667 9.49297 17.0667H13.1195C14.1169 17.0667 14.9328 17.8827 14.9328 18.88V22.5066C14.9328 23.5039 14.1169 24.3199 13.1195 24.3199ZM13.1186 18.8802H9.49207V22.5067H13.1186V18.8802Z" fill="#000927"/>
<path fill-rule="evenodd" clip-rule="evenodd" d="M16.7461 13.4402V9.81362C16.7461 8.81631 17.5621 8.00034 18.5594 8.00034H22.186C23.1833 8.00034 23.9992 8.81631 23.9992 9.81362V13.4402C23.9992 14.4375 23.1833 15.2535 22.186 15.2535H18.5594C17.5621 15.2535 16.7461 14.4375 16.7461 13.4402ZM18.5602 13.4403H22.1868V9.8137H18.5602V13.4403Z" fill="#000927"/>
<path d="M23.9998 23.8667V22.96C23.9998 22.7062 23.8003 22.5067 23.5465 22.5067H22.6398C22.386 22.5067 22.1865 22.7062 22.1865 22.96V23.8667C22.1865 24.1205 22.386 24.32 22.6398 24.32H23.5465C23.8003 24.32 23.9998 24.1205 23.9998 23.8667Z" fill="#000927"/>
<path d="M16.7461 17.52V18.4267C16.7461 18.6805 16.9456 18.88 17.1994 18.88H18.1061C18.3599 18.88 18.5594 18.6805 18.5594 18.4267V17.52C18.5594 17.2662 18.3599 17.0667 18.1061 17.0667H17.1994C16.9456 17.0667 16.7461 17.2662 16.7461 17.52Z" fill="#000927"/>
<path d="M19.9205 18.8801H19.0139C18.76 18.8801 18.5605 19.0796 18.5605 19.3334V20.2401C18.5605 20.4939 18.76 20.6934 19.0139 20.6934H19.9205C20.1744 20.6934 20.3738 20.4939 20.3738 20.2401V19.3334C20.3738 19.0796 20.1744 18.8801 19.9205 18.8801Z" fill="#000927"/>
<path d="M16.7461 21.1467V22.0533C16.7461 22.3072 16.9456 22.5066 17.1994 22.5066H18.1061C18.3599 22.5066 18.5594 22.3072 18.5594 22.0533V21.1467C18.5594 20.8928 18.3599 20.6933 18.1061 20.6933H17.1994C16.9456 20.6933 16.7461 20.8928 16.7461 21.1467Z" fill="#000927"/>
<path d="M19.0139 24.32H19.9205C20.1744 24.32 20.3738 24.1205 20.3738 23.8667V22.96C20.3738 22.7062 20.1744 22.5067 19.9205 22.5067H19.0139C18.76 22.5067 18.5605 22.7062 18.5605 22.96V23.8667C18.5605 24.1205 18.76 24.32 19.0139 24.32Z" fill="#000927"/>
<path d="M20.8254 22.5066H21.732C21.9859 22.5066 22.1854 22.3072 22.1854 22.0533V21.1467C22.1854 20.8928 21.9859 20.6933 21.732 20.6933H20.8254C20.5715 20.6933 20.3721 20.8928 20.3721 21.1467V22.0533C20.3721 22.3072 20.5715 22.5066 20.8254 22.5066Z" fill="#000927"/>
<path d="M21.732 17.0667H20.8254C20.5715 17.0667 20.3721 17.2662 20.3721 17.52V18.4267C20.3721 18.6805 20.5715 18.88 20.8254 18.88H21.732C21.9859 18.88 22.1854 18.6805 22.1854 18.4267V17.52C22.1854 17.2662 21.9859 17.0667 21.732 17.0667Z" fill="#000927"/>
<path d="M22.6398 20.6934H23.5465C23.8003 20.6934 23.9998 20.4939 23.9998 20.2401V19.3334C23.9998 19.0796 23.8003 18.8801 23.5465 18.8801H22.6398C22.386 18.8801 22.1865 19.0796 22.1865 19.3334V20.2401C22.1865 20.4939 22.386 20.6934 22.6398 20.6934Z" fill="#000927"/>
</svg>
