<svg width="744" height="56" viewBox="0 0 744 56" fill="none" xmlns="http://www.w3.org/2000/svg">
<rect width="744" height="56" fill="#000927"/>
<path d="M382.826 23.2438C382.826 28.703 379.067 33.1249 372.889 33.1249C366.711 33.1249 362.989 28.6936 362.989 23.2438C362.989 17.8239 366.779 13.3608 372.85 13.3608C378.921 13.3608 382.826 17.8127 382.826 23.2438ZM367.707 23.2438C367.707 26.1276 369.448 28.8189 372.889 28.8189C376.331 28.8189 378.071 26.1276 378.071 23.2438C378.071 20.3974 376.06 17.637 372.889 17.637C369.485 17.6202 367.707 20.3881 367.707 23.2438Z" fill="white"/>
<path d="M390.847 13.7363V23.6567C390.847 26.5404 392.431 28.7327 395.448 28.7327C398.348 28.7327 400.322 26.3031 400.322 23.4249V13.7363H405V32.7304H400.786L400.476 30.1587C398.504 32.0819 396.687 33.0032 394.018 33.0032C389.454 33.0032 386.123 29.5812 386.123 23.6997V13.7363H390.847Z" fill="white"/>
<path d="M359.766 22.7335C359.766 20.773 359.224 19.0424 357.563 17.0819C356.486 15.6951 354.353 14.3121 354.353 14.3121C353.037 13.4281 350.95 13.1216 349.441 13.1216C344.105 13.1216 339 16.3511 339 22.7335C339 28.6562 343.135 32.2651 349.441 32.2651C352.999 32.2651 354.856 33.7248 354.856 36.003C354.856 38.3485 351.994 39.4643 349.364 39.4643C346.387 39.425 343.603 37.9262 343.757 35.2723H339.077C338.889 40.6922 342.752 44.0002 349.364 44.0002C354.469 44.0002 359.766 41.3837 359.766 36.003C359.766 34.1584 359.11 31.312 355.048 29.8505C358.181 28.4245 359.766 26.1182 359.766 22.7335ZM349.441 27.9666C346.347 27.9666 343.718 26.0434 343.718 22.7335C343.718 19.1956 346.349 17.465 349.441 17.465C352.533 17.465 355.048 19.504 355.048 22.7335C355.048 26.0023 352.535 27.9628 349.441 27.9628V27.9666Z" fill="white"/>
<path d="M359.64 12H354.304V17.3059H359.64V12Z" fill="#00DDF4"/>
<path d="M688 0H660V28H688V0Z" fill="#000927"/>
<path d="M682 22L666 6H682V22Z" fill="#00F6B4"/>
<path d="M716 0H688V28H716V0Z" fill="#00DDF4"/>
<path d="M694 20V6H708L694 20Z" fill="#9D14F3"/>
<path d="M700 24V12H712L700 24Z" fill="#9D14F3"/>
<path d="M720.005 27.9361V28H733.014C733.014 28 733.014 27.9589 733.014 27.9361C733.014 25.0301 734.171 22.2432 736.232 20.1884C738.292 18.1336 741.086 16.9793 744 16.9793V4C740.848 3.9994 737.728 4.61797 734.816 5.82037C731.904 7.02277 729.258 8.78546 727.03 11.0078C724.801 13.2301 723.033 15.8685 721.827 18.7723C720.621 21.6761 720 24.7884 720 27.9315" fill="#00F6B4"/>
<path d="M683 42C683 43.9778 682.414 45.9112 681.315 47.5557C680.216 49.2002 678.654 50.4819 676.827 51.2388C675 51.9957 672.989 52.1937 671.049 51.8078C669.109 51.422 667.327 50.4696 665.929 49.0711C664.53 47.6725 663.578 45.8907 663.192 43.9509C662.806 42.0111 663.004 40.0004 663.761 38.1732C664.518 36.3459 665.8 34.7841 667.444 33.6853C669.089 32.5865 671.022 32 673 32C675.652 32 678.196 33.0536 680.071 34.9289C681.946 36.8043 683 39.3478 683 42Z" fill="#00DDF4"/>
<path d="M673.012 35.9998L667 41.9941L673.012 47.9885L679.025 41.9941L673.012 35.9998Z" fill="#000927"/>
<path d="M744 28H716V56H744V28Z" fill="#00DDF4"/>
<path d="M740 32H720V36H740V32Z" fill="#001C4F"/>
<path d="M740 40H720V44H740V40Z" fill="#001C4F"/>
<path d="M740 48H720V52H740V48Z" fill="#001C4F"/>
<path d="M702.031 32.0281L692 42.0288L702.031 52.0295L712.061 42.0288L702.031 32.0281Z" fill="#00F6B4"/>
</svg>
