<svg width="1440" height="72" viewBox="0 0 1440 72" fill="none" xmlns="http://www.w3.org/2000/svg">
<rect width="1440" height="72" fill="#000927"/>
<g clip-path="url(#clip0_393_9311)">
<path d="M1348.19 0H1302.29V45.9052H1348.19V0Z" fill="#000927"/>
<path d="M1338.35 36.0685L1312.12 9.83691H1338.35V36.0685Z" fill="#00F6B4"/>
<path d="M1394.09 0H1348.19V45.9052H1394.09V0Z" fill="#00DDF4"/>
<path d="M1358.03 32.7895V9.83691H1380.98L1358.03 32.7895Z" fill="#9D14F3"/>
<path d="M1367.86 39.3475V19.6738H1387.54L1367.86 39.3475Z" fill="#9D14F3"/>
<path d="M1400.66 45.8006V45.9054H1421.99C1421.99 45.9054 1421.99 45.8381 1421.99 45.8006C1421.99 41.0364 1423.89 36.4674 1427.26 33.0986C1430.64 29.7298 1435.22 27.8372 1440 27.8372V6.55811C1434.83 6.55712 1429.72 7.57124 1424.94 9.54255C1420.17 11.5139 1415.83 14.4037 1412.18 18.0471C1408.52 21.6905 1405.63 26.0161 1403.65 30.7768C1401.67 35.5375 1400.65 40.6401 1400.65 45.7931" fill="#00F6B4"/>
<path d="M1339.99 68.8576C1339.99 72.1002 1339.03 75.2699 1337.23 77.966C1335.43 80.6621 1332.87 82.7635 1329.87 84.0044C1326.88 85.2452 1323.58 85.5699 1320.4 84.9373C1317.22 84.3047 1314.3 82.7433 1312.01 80.4504C1309.71 78.1576 1308.15 75.2363 1307.52 72.0561C1306.89 68.8758 1307.21 65.5794 1308.45 62.5836C1309.69 59.5879 1311.79 57.0274 1314.49 55.2259C1317.19 53.4244 1320.36 52.4629 1323.6 52.4629C1327.95 52.4629 1332.12 54.1902 1335.19 57.2648C1338.27 60.3394 1339.99 64.5095 1339.99 68.8576Z" fill="#00DDF4"/>
<path d="M1323.62 59.021L1313.76 68.8486L1323.62 78.6762L1333.47 68.8486L1323.62 59.021Z" fill="#000927"/>
<path d="M1440 45.9053H1394.1V91.8105H1440V45.9053Z" fill="#00DDF4"/>
<path d="M1433.44 52.4629H1400.65V59.0208H1433.44V52.4629Z" fill="#001C4F"/>
<path d="M1433.44 65.5791H1400.65V72.137H1433.44V65.5791Z" fill="#001C4F"/>
<path d="M1371.19 52.5094L1354.75 68.9053L1371.19 85.3011L1387.64 68.9053L1371.19 52.5094Z" fill="#00F6B4"/>
</g>
<path d="M733.165 30.0544C733.165 36.8784 728.433 42.4057 720.657 42.4057C712.88 42.4057 708.195 36.8667 708.195 30.0544C708.195 23.2795 712.965 17.7007 720.607 17.7007C728.249 17.7007 733.165 23.2655 733.165 30.0544ZM714.134 30.0544C714.134 33.6591 716.325 37.0232 720.657 37.0232C724.989 37.0232 727.179 33.6591 727.179 30.0544C727.179 26.4964 724.648 23.0459 720.657 23.0459C716.372 23.0248 714.134 26.4847 714.134 30.0544Z" fill="white"/>
<path d="M743.261 18.1704V30.5708C743.261 34.1756 745.255 36.9159 749.052 36.9159C752.703 36.9159 755.187 33.8788 755.187 30.2811V18.1704H761.076V41.913H755.771L755.381 38.6984C752.899 41.1023 750.611 42.254 747.252 42.254C741.507 42.254 737.315 37.9765 737.315 30.6246V18.1704H743.261Z" fill="white"/>
<path d="M704.139 29.4168C704.139 26.9662 703.457 24.8029 701.366 22.3522C700.01 20.6188 697.325 18.89 697.325 18.89C695.669 17.785 693.043 17.4019 691.143 17.4019C684.426 17.4019 678 21.4388 678 29.4168C678 36.8201 683.205 41.3313 691.143 41.3313C695.621 41.3313 697.959 43.1559 697.959 46.0037C697.959 48.9356 694.356 50.3302 691.046 50.3302C687.298 50.2812 683.794 48.4076 683.988 45.0902H678.097C677.86 51.8651 682.722 56.0001 691.046 56.0001C697.472 56.0001 704.139 52.7295 704.139 46.0037C704.139 43.6979 703.313 40.1398 698.2 38.313C702.144 36.5305 704.139 33.6476 704.139 29.4168ZM691.143 35.9581C687.248 35.9581 683.938 33.5542 683.938 29.4168C683.938 24.9944 687.251 22.8311 691.143 22.8311C695.035 22.8311 698.2 25.3799 698.2 29.4168C698.2 33.5028 695.037 35.9534 691.143 35.9534V35.9581Z" fill="white"/>
<path d="M703.981 16H697.264V22.6324H703.981V16Z" fill="#00DDF4"/>
<defs>
<clipPath id="clip0_393_9311">
<rect width="138" height="72" fill="white" transform="translate(1302)"/>
</clipPath>
</defs>
</svg>
