<svg width="320" height="56" viewBox="0 0 320 56" fill="none" xmlns="http://www.w3.org/2000/svg">
<rect width="320" height="56" fill="#000927"/>
<path d="M170.826 23.2438C170.826 28.703 167.067 33.1249 160.889 33.1249C154.711 33.1249 150.989 28.6936 150.989 23.2438C150.989 17.8239 154.779 13.3608 160.85 13.3608C166.921 13.3608 170.826 17.8127 170.826 23.2438ZM155.707 23.2438C155.707 26.1276 157.448 28.8189 160.889 28.8189C164.331 28.8189 166.071 26.1276 166.071 23.2438C166.071 20.3974 164.06 17.637 160.889 17.637C157.485 17.6202 155.707 20.3881 155.707 23.2438Z" fill="white"/>
<path d="M178.847 13.7363V23.6567C178.847 26.5404 180.431 28.7327 183.448 28.7327C186.348 28.7327 188.322 26.3031 188.322 23.4249V13.7363H193V32.7304H188.786L188.476 30.1587C186.504 32.0819 184.687 33.0032 182.018 33.0032C177.454 33.0032 174.123 29.5812 174.123 23.6997V13.7363H178.847Z" fill="white"/>
<path d="M147.766 22.7335C147.766 20.773 147.224 19.0424 145.563 17.0819C144.486 15.6951 142.353 14.3121 142.353 14.3121C141.037 13.4281 138.95 13.1216 137.441 13.1216C132.105 13.1216 127 16.3511 127 22.7335C127 28.6562 131.135 32.2651 137.441 32.2651C140.999 32.2651 142.856 33.7248 142.856 36.003C142.856 38.3485 139.994 39.4643 137.364 39.4643C134.387 39.425 131.603 37.9262 131.757 35.2723H127.077C126.889 40.6922 130.752 44.0002 137.364 44.0002C142.469 44.0002 147.766 41.3837 147.766 36.003C147.766 34.1584 147.11 31.312 143.048 29.8505C146.181 28.4245 147.766 26.1182 147.766 22.7335ZM137.441 27.9666C134.347 27.9666 131.718 26.0434 131.718 22.7335C131.718 19.1956 134.349 17.465 137.441 17.465C140.533 17.465 143.048 19.504 143.048 22.7335C143.048 26.0023 140.535 27.9628 137.441 27.9628V27.9666Z" fill="white"/>
<path d="M147.64 12H142.304V17.3059H147.64V12Z" fill="#00DDF4"/>
<path d="M264 0H236V28H264V0Z" fill="#000927"/>
<path d="M258 22L242 6H258V22Z" fill="#00F6B4"/>
<path d="M292 0H264V28H292V0Z" fill="#00DDF4"/>
<path d="M270 20V6H284L270 20Z" fill="#9D14F3"/>
<path d="M276 24V12H288L276 24Z" fill="#9D14F3"/>
<path d="M320 0H292V28H320V0Z" fill="#001C4F"/>
<path d="M296.005 27.9361V28H309.014C309.014 28 309.014 27.9589 309.014 27.9361C309.014 25.0301 310.171 22.2432 312.232 20.1884C314.292 18.1336 317.086 16.9793 320 16.9793V4C316.848 3.9994 313.728 4.61797 310.816 5.82037C307.904 7.02277 305.258 8.78546 303.03 11.0078C300.801 13.2301 299.033 15.8685 297.827 18.7723C296.621 21.6761 296 24.7884 296 27.9315" fill="#00F6B4"/>
<path d="M264 28H236V56H264V28Z" fill="#000927"/>
<path d="M260 42C260 43.9778 259.414 45.9112 258.315 47.5557C257.216 49.2002 255.654 50.4819 253.827 51.2388C252 51.9957 249.989 52.1937 248.049 51.8078C246.109 51.422 244.327 50.4696 242.929 49.0711C241.53 47.6725 240.578 45.8907 240.192 43.9509C239.806 42.0111 240.004 40.0004 240.761 38.1732C241.518 36.3459 242.8 34.7841 244.444 33.6853C246.089 32.5865 248.022 32 250 32C252.652 32 255.196 33.0536 257.071 34.9289C258.946 36.8043 260 39.3478 260 42Z" fill="#00DDF4"/>
<path d="M250 36.0179L244 42L250 47.9821L256 42L250 36.0179Z" fill="#000927"/>
<path d="M320 28H292V56H320V28Z" fill="#00DDF4"/>
<path d="M316 32H296V36H316V32Z" fill="#001C4F"/>
<path d="M316 40H296V44H316V40Z" fill="#001C4F"/>
<path d="M316 48H296V52H316V48Z" fill="#001C4F"/>
<path d="M292 28H264V56H292V28Z" fill="#000927"/>
<path d="M277.999 32.0001L267.969 42.0005L277.998 52L288.029 41.9996L277.999 32.0001Z" fill="#00F6B4"/>
</svg>
