<svg width="171" height="186" viewBox="0 0 171 186" fill="none" xmlns="http://www.w3.org/2000/svg">
<path d="M85.5 171C132.72 171 171 132.72 171 85.5C171 38.2797 132.72 0 85.5 0C38.2797 0 0 38.2797 0 85.5C0 132.72 38.2797 171 85.5 171Z" fill="#F2F7FF"/>
<path d="M56.1898 40.23C56.0498 38.3345 55.1811 36.567 53.7659 35.2984C52.3507 34.0298 50.499 33.3587 48.5996 33.426C46.7002 33.4933 44.9008 34.2937 43.5789 35.6593C42.257 37.0248 41.5154 38.8494 41.5099 40.75C40.5099 44.5 48.8599 59.96 48.8599 59.96L64.4599 57.14L56.1898 40.23Z" fill="#F2F7FF"/>
<path d="M48.8601 60.92C48.6873 60.9172 48.5181 60.8697 48.3692 60.782C48.2202 60.6944 48.0966 60.5697 48.0102 60.42C46.6002 57.82 39.6602 44.72 40.5502 40.64C40.5865 38.5181 41.4331 36.4905 42.9165 34.9729C44.4 33.4554 46.4078 32.5629 48.5284 32.4785C50.6489 32.3941 52.7213 33.1242 54.3207 34.519C55.9201 35.9138 56.9254 37.8677 57.1302 39.98L65.3201 56.72C65.4235 56.9508 65.4356 57.2122 65.3539 57.4515C65.2723 57.6909 65.103 57.8904 64.8802 58.01C64.8 58.0456 64.7161 58.0724 64.6302 58.09L49.0302 60.91H48.8501L48.8601 60.92ZM48.8501 34.35C47.1579 34.3553 45.5367 35.0305 44.3411 36.228C43.1455 37.4255 42.4728 39.0478 42.4701 40.74C42.4799 40.823 42.4799 40.9069 42.4701 40.99C41.8101 43.36 46.2502 52.99 49.4102 58.87L63.0701 56.4L55.3501 40.64C55.2992 40.5262 55.2688 40.4043 55.2602 40.28C55.1441 38.6687 54.423 37.161 53.2415 36.0592C52.06 34.9575 50.5056 34.3434 48.8902 34.34" fill="#000927"/>
<path d="M51.6199 108.38L51.2599 69.0798H44.1299V86.8098L51.6199 108.38Z" fill="#F2F7FF"/>
<path d="M52.34 112.29L43.53 86.9199V68.4399H51.9399L52.34 112.29ZM44.8099 86.6999L50.99 104.47L50.67 69.7299H44.8099V86.6999Z" fill="#000927"/>
<path d="M124.93 124.68C124.528 124.101 124.342 123.399 124.406 122.696C124.47 121.994 124.78 121.337 125.28 120.84C127.59 118.6 130.7 113.54 127.92 103.76C126.453 98.8908 125.399 93.9064 124.77 88.86C124.521 86.4983 124.919 84.1134 125.92 81.96C130.6 72.01 130.11 70.14 130.11 70.14C130.086 69.3445 129.865 68.5675 129.467 67.8782C129.069 67.189 128.507 66.609 127.83 66.19C126.764 65.4546 125.526 65.0082 124.236 64.8943C122.946 64.7804 121.648 65.0028 120.47 65.54C116.04 67.54 112.95 72.48 112.95 72.48L78.1201 142.55L97.7301 175.86C97.7301 175.86 104.97 183.86 129.25 172.72C149.97 163.24 130.95 133.25 124.93 124.67" fill="#F2F7FF"/>
<path d="M107.26 179.61C99.96 179.61 97.2 176.73 97.01 176.52L96.9 176.36L77.03 142.61L77.26 142.14L112.13 71.9899C112.27 71.7699 115.43 66.7499 120.07 64.6799C121.403 64.0747 122.869 63.8248 124.327 63.9545C125.785 64.0842 127.185 64.589 128.39 65.4199C129.181 65.9251 129.838 66.6132 130.306 67.4261C130.774 68.239 131.04 69.1527 131.08 70.0899C131.16 70.8899 130.89 73.6599 126.79 82.3899C125.86 84.3832 125.49 86.5923 125.72 88.7799C126.352 93.7717 127.399 98.7021 128.85 103.52C131.79 113.9 128.3 119.27 125.95 121.52C125.612 121.853 125.403 122.295 125.361 122.768C125.319 123.24 125.446 123.713 125.72 124.1C130.89 131.48 142.53 150.03 138.98 163.1C137.7 167.81 134.56 171.34 129.65 173.59C119.57 178.21 112.33 179.59 107.27 179.59L107.26 179.61ZM98.49 175.26C99.19 175.89 106.74 181.96 128.85 171.84C133.22 169.84 136 166.73 137.12 162.6C138.56 157.29 137.39 150.28 133.63 141.77C130.988 135.97 127.811 130.429 124.14 125.22C123.6 124.458 123.35 123.528 123.437 122.598C123.523 121.668 123.939 120.8 124.61 120.15C126.61 118.15 129.61 113.43 127 104.01C125.518 99.0877 124.451 94.0501 123.81 88.9499C123.54 86.4131 123.969 83.8508 125.05 81.5399C128.98 73.1699 129.17 70.7199 129.17 70.3399L129.1 70.1799V70.1299C129.063 69.4922 128.874 68.8725 128.549 68.3227C128.224 67.7729 127.771 67.309 127.23 66.9699C126.299 66.3311 125.219 65.9439 124.094 65.8458C122.969 65.7476 121.838 65.942 120.81 66.4099C116.9 68.1599 114.02 72.5099 113.74 72.9399L79.16 142.5L98.49 175.26Z" fill="#000927"/>
<path d="M108.43 142.55H55.99C54.8098 142.55 53.6779 142.081 52.8434 141.247C52.0088 140.412 51.54 139.28 51.54 138.1V32.0999C51.54 30.9188 52.0085 29.7859 52.8428 28.9497C53.677 28.1136 54.8089 27.6425 55.99 27.6399H108.43C109.611 27.6399 110.744 28.1084 111.58 28.9427C112.416 29.7769 112.887 30.9088 112.89 32.0899V138.09C112.89 139.273 112.42 140.407 111.584 141.244C110.747 142.08 109.613 142.55 108.43 142.55Z" fill="#CFD8E6"/>
<path d="M108.44 143.51H55.9901C54.5553 143.51 53.1792 142.94 52.1647 141.925C51.1501 140.911 50.5801 139.535 50.5801 138.1V32.0999C50.5801 30.6642 51.1498 29.2871 52.1641 28.2709C53.1783 27.2548 54.5544 26.6826 55.9901 26.6799H108.44C109.151 26.6799 109.854 26.8199 110.51 27.0917C111.167 27.3636 111.763 27.7621 112.266 28.2645C112.768 28.7668 113.166 29.3632 113.438 30.0196C113.71 30.676 113.85 31.3795 113.85 32.0899V138.09C113.85 139.526 113.28 140.903 112.266 141.919C111.252 142.935 109.876 143.507 108.44 143.51ZM55.9901 28.6099C55.0661 28.6152 54.1814 28.9846 53.5281 29.6379C52.8747 30.2913 52.5054 31.1759 52.5001 32.0999V138.1C52.5027 139.026 52.871 139.913 53.5247 140.568C54.1783 141.224 55.0644 141.595 55.9901 141.6H108.44C109.366 141.595 110.252 141.224 110.906 140.568C111.559 139.913 111.928 139.026 111.93 138.1V32.0999C111.925 31.1759 111.555 30.2913 110.902 29.6379C110.249 28.9846 109.364 28.6152 108.44 28.6099H55.9901Z" fill="#000927"/>
<path d="M107.62 38.6699H56.9399V121.55H107.62V38.6699Z" fill="white"/>
<path d="M107.62 122.52H56.9401C56.6748 122.52 56.4206 122.415 56.233 122.227C56.0455 122.039 55.9401 121.785 55.9401 121.52L55.8901 38.6399C55.8901 38.3747 55.9954 38.1203 56.183 37.9328C56.3705 37.7452 56.6249 37.6399 56.8901 37.6399H107.62C107.885 37.6399 108.14 37.7452 108.327 37.9328C108.515 38.1203 108.62 38.3747 108.62 38.6399V121.52C108.62 121.785 108.515 122.039 108.327 122.227C108.14 122.415 107.885 122.52 107.62 122.52ZM57.9302 120.61H106.68V39.6099H57.9202L57.9302 120.61Z" fill="#000927"/>
<path d="M86.5 131.05C86.5 131.884 86.2526 132.7 85.7889 133.394C85.3252 134.088 84.666 134.629 83.8949 134.949C83.1238 135.268 82.2753 135.352 81.4567 135.189C80.6381 135.026 79.8862 134.624 79.2961 134.034C78.7059 133.444 78.304 132.692 78.1412 131.873C77.9783 131.055 78.0619 130.206 78.3813 129.435C78.7007 128.664 79.2416 128.005 79.9356 127.541C80.6296 127.077 81.4454 126.83 82.2801 126.83C82.8346 126.829 83.3839 126.937 83.8965 127.148C84.4091 127.36 84.8749 127.671 85.267 128.063C85.6591 128.455 85.9698 128.921 86.1814 129.433C86.393 129.946 86.5014 130.495 86.5 131.05Z" fill="white"/>
<path d="M82.2801 136.24C81.2532 136.242 80.2488 135.939 79.394 135.37C78.5392 134.801 77.8724 133.991 77.478 133.043C77.0837 132.095 76.9795 131.051 77.1786 130.043C77.3777 129.036 77.8712 128.11 78.5967 127.384C79.3221 126.657 80.2469 126.161 81.2539 125.96C82.2609 125.759 83.305 125.861 84.2539 126.254C85.2028 126.647 86.014 127.312 86.5847 128.165C87.1554 129.019 87.4601 130.023 87.4601 131.05C87.4601 132.425 86.9146 133.743 85.9435 134.716C84.9723 135.689 83.6549 136.237 82.2801 136.24ZM82.2801 127.8C81.635 127.798 81.0036 127.987 80.4662 128.344C79.9288 128.701 79.5094 129.21 79.2611 129.805C79.0128 130.401 78.9469 131.057 79.0715 131.69C79.1962 132.323 79.5059 132.905 79.9614 133.361C80.4169 133.818 80.9978 134.13 81.6305 134.256C82.2631 134.383 82.9191 134.319 83.5154 134.073C84.1116 133.826 84.6213 133.408 84.98 132.872C85.3386 132.336 85.5301 131.705 85.5301 131.06C85.5315 130.632 85.4484 130.209 85.2856 129.813C85.1229 129.418 84.8837 129.058 84.5818 128.755C84.2799 128.452 83.9211 128.212 83.5261 128.048C83.1312 127.884 82.7078 127.8 82.2801 127.8Z" fill="#000927"/>
<path d="M76.4301 33.3998C76.4321 33.5787 76.3807 33.754 76.2826 33.9036C76.1844 34.0531 76.044 34.17 75.8791 34.2393C75.7143 34.3087 75.5325 34.3274 75.357 34.293C75.1815 34.2585 75.0202 34.1726 74.8938 34.0462C74.7673 33.9197 74.6814 33.7584 74.6469 33.5829C74.6125 33.4074 74.6312 33.2256 74.7005 33.0608C74.7699 32.8959 74.8868 32.7554 75.0363 32.6573C75.1859 32.5592 75.3613 32.5078 75.5401 32.5098C75.7762 32.5098 76.0025 32.6036 76.1694 32.7705C76.3363 32.9374 76.4301 33.1638 76.4301 33.3998Z" fill="#000927"/>
<path d="M89.9 34.04H79.84C79.6702 34.04 79.5075 33.9726 79.3875 33.8526C79.2674 33.7325 79.2 33.5697 79.2 33.4C79.2 33.2303 79.2674 33.0675 79.3875 32.9475C79.5075 32.8274 79.6702 32.76 79.84 32.76H89.9C90.0698 32.76 90.2325 32.8274 90.3525 32.9475C90.4726 33.0675 90.54 33.2303 90.54 33.4C90.54 33.5697 90.4726 33.7325 90.3525 33.8526C90.2325 33.9726 90.0698 34.04 89.9 34.04Z" fill="#000927"/>
<path d="M46.5301 72.3C49.3258 72.52 52.1345 72.52 54.9302 72.3C56.54 72.3 58.0839 71.6605 59.2223 70.5221C60.3606 69.3838 61.0001 67.8398 61.0001 66.23C61.0001 64.6201 60.3606 63.0762 59.2223 61.9378C58.0839 60.7995 56.54 60.16 54.9302 60.16C51.2426 59.7187 47.5043 60.011 43.9302 61.02C43.9302 61.02 35.0301 64.74 44.2201 79.11" fill="#F2F7FF"/>
<path d="M44.26 80.0699C44.0996 80.0669 43.9423 80.0254 43.8013 79.9488C43.6603 79.8722 43.5398 79.7629 43.45 79.6299C39.67 73.7099 38.36 68.7599 39.56 64.9099C39.8628 63.8812 40.3744 62.926 41.0625 62.1036C41.7507 61.2812 42.6008 60.6094 43.56 60.1299H43.6601C47.334 59.0882 51.1775 58.7823 54.97 59.2299C56.8358 59.2299 58.6252 59.9711 59.9445 61.2904C61.2638 62.6097 62.005 64.3991 62.005 66.2649C62.005 68.1307 61.2638 69.9201 59.9445 71.2394C58.6252 72.5587 56.8358 73.2999 54.97 73.2999C52.1309 73.5199 49.2791 73.5199 46.44 73.2999C46.1872 73.2674 45.9564 73.1395 45.7947 72.9425C45.633 72.7455 45.5526 72.4942 45.57 72.2399C45.6048 71.989 45.7337 71.7606 45.9305 71.6009C46.1272 71.4413 46.3773 71.3623 46.63 71.3799C49.3697 71.5799 52.1203 71.5799 54.86 71.3799H54.94C56.2601 71.3425 57.5148 70.7964 58.4418 69.8557C59.3688 68.915 59.8964 67.6526 59.9145 66.332C59.9325 65.0115 59.4396 63.735 58.5387 62.7694C57.6378 61.8037 56.3986 61.2235 55.08 61.1499H54.7901C51.2732 60.7455 47.7114 61.0239 44.3001 61.9699C43.5967 62.3419 42.9761 62.8527 42.4759 63.4715C41.9757 64.0903 41.6063 64.8042 41.3901 65.5699C40.3901 68.7999 41.67 73.3199 45.07 78.6299C45.1985 78.8473 45.2401 79.1052 45.1863 79.3519C45.1325 79.5986 44.9874 79.8158 44.7801 79.9599C44.6254 80.0604 44.4444 80.1126 44.26 80.1099" fill="#000927"/>
<path d="M46.6199 86.7799C49.7022 87.9417 52.9661 88.5478 56.26 88.5699C57.7021 88.571 59.0976 88.0587 60.1964 87.1247C61.2952 86.1906 62.0255 84.8958 62.2565 83.4723C62.4876 82.0487 62.2042 80.5895 61.4572 79.3558C60.7102 78.1222 59.5485 77.1948 58.18 76.7399C57.9187 76.6533 57.6512 76.5864 57.38 76.5398C55.28 76.0498 49.5199 74.9799 45.4799 76.9999C45.4799 76.9999 36.4799 80.9999 41.5699 92.9999C46.6599 105 51.7199 108.4 51.7199 108.4" fill="#F2F7FF"/>
<path d="M51.6199 109.34C51.4283 109.339 51.2409 109.284 51.0799 109.18C50.8699 109.03 45.7299 105.44 40.5799 93.3598C36.2599 83.2098 41.5799 77.6398 44.9899 76.1098C49.2299 73.9898 55.16 75.0398 57.5 75.5898C57.7982 75.6465 58.0922 75.7233 58.38 75.8198C60.0213 76.2943 61.4324 77.3526 62.3475 78.7954C63.2625 80.2382 63.6184 81.9658 63.3479 83.6528C63.0773 85.3398 62.1991 86.8695 60.8789 87.9539C59.5586 89.0383 57.8874 89.6023 56.18 89.5398C52.7627 89.5182 49.3765 88.8884 46.18 87.6798C46.0053 87.5473 45.8789 87.3609 45.8205 87.1496C45.7621 86.9382 45.7747 86.7134 45.8565 86.5099C45.9384 86.3065 46.0849 86.1355 46.2734 86.0235C46.4619 85.9114 46.6821 85.8645 46.9 85.8898C49.867 87.0082 53.0092 87.5906 56.18 87.6098C57.4188 87.6473 58.6289 87.2333 59.5852 86.4449C60.5414 85.6565 61.1785 84.5474 61.3779 83.3242C61.5773 82.101 61.3253 80.8471 60.6689 79.7958C60.0125 78.7446 58.9964 77.9677 57.8099 77.6098C57.6007 77.5413 57.3869 77.4878 57.17 77.4498C55.45 77.0498 49.6899 75.9098 45.8699 77.8198C45.5099 77.9898 37.77 81.6698 42.41 92.5698C47.31 104.05 52.1799 107.52 52.2299 107.57C52.4317 107.722 52.5686 107.944 52.6131 108.193C52.6576 108.441 52.6065 108.697 52.4699 108.91C52.3788 109.035 52.2602 109.136 52.1231 109.208C51.9861 109.279 51.8344 109.317 51.68 109.32" fill="#000927"/>
<path d="M84 156.26C84 156.26 115.77 147.64 132.43 133.38L147.35 164.24C147.35 164.24 120.28 183.32 100.5 184.37L84 156.26Z" fill="#7FB1FC"/>
<path d="M100.5 185.33C100.333 185.326 100.169 185.28 100.024 185.196C99.8787 185.112 99.7572 184.993 99.6701 184.85L83.1701 156.75C83.0503 156.526 83.0197 156.266 83.0847 156.021C83.1496 155.776 83.3053 155.565 83.5201 155.43C83.5919 155.386 83.6693 155.353 83.7501 155.33C84.0701 155.24 115.5 146.6 131.75 132.65C131.949 132.493 132.199 132.416 132.452 132.437C132.704 132.457 132.939 132.573 133.11 132.76C133.162 132.82 133.206 132.887 133.24 132.96L148.17 163.82C148.262 164.028 148.281 164.261 148.223 164.481C148.165 164.701 148.033 164.895 147.85 165.03C146.74 165.81 120.33 184.29 100.5 185.33ZM85.5001 156.84L101.07 183.37C108.95 182.81 119.24 179.26 130.91 173.07C136.149 170.284 141.24 167.226 146.16 163.91L132.16 134.91C117.16 147.11 91.3901 155.13 85.5201 156.84" fill="#000927"/>
<path d="M10.5 132C16.299 132 21 127.299 21 121.5C21 115.701 16.299 111 10.5 111C4.70101 111 0 115.701 0 121.5C0 127.299 4.70101 132 10.5 132Z" fill="#FFCB2F"/>
<path d="M158.5 50C163.194 50 167 46.1944 167 41.5C167 36.8056 163.194 33 158.5 33C153.806 33 150 36.8056 150 41.5C150 46.1944 153.806 50 158.5 50Z" stroke="#7FB1FC" stroke-width="4"/>
<g clip-path="url(#clip0_1627_11260)">
<path d="M76.5 96.5C82.0228 96.5 86.5 92.0228 86.5 86.5C86.5 80.9772 82.0228 76.5 76.5 76.5C70.9772 76.5 66.5 80.9772 66.5 86.5C66.5 92.0228 70.9772 96.5 76.5 96.5Z" fill="#FF3434"/>
<path d="M85.25 65.3094V64C85.25 63.31 84.69 62.75 84 62.75C83.31 62.75 82.75 63.31 82.75 64V65.3094C75.7525 65.9431 70.25 71.8394 70.25 79C70.25 86.5819 76.4181 92.75 84 92.75C91.5819 92.75 97.75 86.5819 97.75 79C97.75 71.8394 92.2481 65.9431 85.25 65.3094ZM84 90.25C77.7969 90.25 72.75 85.2031 72.75 79C72.75 72.85 77.7125 67.8431 83.8431 67.7581C83.895 67.765 83.9462 67.7738 84 67.7738C84.0538 67.7738 84.105 67.7644 84.1569 67.7581C90.2875 67.8431 95.25 72.85 95.25 79C95.25 85.2025 90.2031 90.25 84 90.25ZM85.25 78.0969V71.5C85.25 70.81 84.69 70.25 84 70.25C83.31 70.25 82.75 70.81 82.75 71.5V78.0969C82.0056 78.53 81.5 79.3269 81.5 80.25C81.5 81.6306 82.6194 82.75 84 82.75C85.3806 82.75 86.5 81.6306 86.5 80.25C86.5 79.3269 85.9944 78.53 85.25 78.0969ZM71.1337 69.8837L74.8837 66.1337C75.3719 65.6456 75.3719 64.8544 74.8837 64.3663C74.3956 63.8781 73.6044 63.8781 73.1163 64.3663L69.3663 68.1163C68.8781 68.6044 68.8781 69.3956 69.3663 69.8837C69.6106 70.1275 69.9306 70.25 70.25 70.25C70.5694 70.25 70.89 70.1275 71.1337 69.8837ZM98.6338 68.1163L94.8838 64.3663C94.3956 63.8781 93.6044 63.8781 93.1162 64.3663C92.6281 64.8544 92.6281 65.6456 93.1162 66.1337L96.8662 69.8837C97.1106 70.1275 97.4306 70.25 97.75 70.25C98.0694 70.25 98.3894 70.1281 98.6338 69.8837C99.1225 69.395 99.1225 68.6044 98.6338 68.1163Z" fill="#000927"/>
</g>
<defs>
<clipPath id="clip0_1627_11260">
<rect width="40" height="40" fill="white" transform="translate(64 59)"/>
</clipPath>
</defs>
</svg>
