<svg width="48" height="48" viewBox="0 0 48 48" fill="none" xmlns="http://www.w3.org/2000/svg">
<path d="M6.51472 39.6853C11.201 44.3716 18.799 44.3716 23.4853 39.6853C28.1716 34.999 28.1716 27.401 23.4853 22.7147C18.799 18.0284 11.201 18.0284 6.51472 22.7147C1.82843 27.401 1.82843 34.999 6.51472 39.6853Z" fill="#FFCB2F"/>
<path d="M42.3855 29.5826L42.2673 29.5144C41.7074 29.1911 41.1061 29.0085 40.5017 28.9471C40.6817 27.2566 39.879 25.5375 38.3144 24.6341L38.1961 24.5658C37.6363 24.2426 37.035 24.06 36.4305 23.9985C36.6106 22.3081 35.8079 20.5889 34.2432 19.6855L34.125 19.6173C33.6905 19.3664 33.2309 19.2024 32.7639 19.1112L36.6028 12.4621C37.9007 10.2141 37.2312 7.47973 35.0793 6.23735L34.9611 6.1691C32.8449 4.94735 30.1293 5.67446 28.9072 7.79124L22.2727 19.2825L21.783 17.4548C21.1508 15.0936 18.7154 13.6884 16.3525 14.3221L16.2241 14.3571C15.0804 14.6624 14.1245 15.3957 13.5323 16.4213C12.9406 17.4462 12.7835 18.6407 13.0899 19.7841L13.9428 22.9673C14.5989 25.4159 14.7085 26.3841 13.4942 28.4873C10.8434 33.0787 13.2658 38.7529 19.3843 42.2854L24.5805 45.2854C34.9728 51.2854 40.9668 40.9035 43.2235 36.9947L44.0076 35.6365C45.2298 33.5197 44.5016 30.8044 42.3855 29.5826ZM40.6254 35.4947C37.1192 41.5677 32.9303 46.6421 26.0805 42.6873L20.8843 39.6873C16.2954 37.0379 14.3246 33.0491 16.0923 29.9873C17.8998 26.8566 17.5809 24.9534 16.8408 22.1913L15.9879 19.0081C15.8884 18.6389 15.9398 18.2529 16.1311 17.9216C16.3227 17.5897 16.6309 17.3529 17.0038 17.2529L17.1323 17.218C17.8952 17.0141 18.6817 17.4682 18.886 18.2305L20.2942 23.4879C20.4037 23.8967 20.673 24.2193 21.0161 24.4096C21.0232 24.4137 21.0292 24.4198 21.0364 24.4239C21.7534 24.8379 22.6714 24.592 23.0854 23.8749L31.5053 9.29124C31.9002 8.60729 32.7771 8.37231 33.4611 8.76718L33.5793 8.83543C34.2977 9.25018 34.4769 10.1443 34.0047 10.9621L28.0711 21.2394C27.6571 21.9565 27.9031 22.8744 28.6201 23.2884C29.3372 23.7024 30.2552 23.4565 30.6692 22.7394C31.0641 22.0555 31.941 21.8205 32.625 22.2153L32.7432 22.2836C33.4271 22.6785 33.6621 23.5555 33.2673 24.2394L32.4831 25.5975C32.4441 25.6651 32.416 25.7363 32.3889 25.8073C32.301 25.928 32.2188 26.0555 32.1423 26.188C31.7283 26.905 31.9742 27.823 32.6913 28.237C33.4084 28.651 34.3263 28.405 34.7403 27.688C35.1352 27.004 36.0122 26.769 36.6961 27.1639L36.8144 27.2322C37.4983 27.627 37.7333 28.504 37.3384 29.188L36.5543 30.5461C36.5153 30.6137 36.4871 30.6849 36.46 30.7558C36.3721 30.8766 36.2899 31.004 36.2134 31.1365C35.7994 31.8536 36.0454 32.7716 36.7624 33.1856C37.4795 33.5996 38.3975 33.3536 38.8115 32.6365C39.2064 31.9526 40.0833 31.7176 40.7673 32.1125L40.8855 32.1807C41.5694 32.5756 41.8044 33.4526 41.4096 34.1365L40.6254 35.4947ZM24.7427 9.00428C25.4598 9.41828 26.3778 9.17231 26.7918 8.45524L28.2918 5.85716C28.7058 5.1401 28.4598 4.22213 27.7427 3.80813C27.0257 3.39413 26.1077 3.6401 25.6937 4.35716L24.1937 6.95524C23.7797 7.67231 24.0257 8.59028 24.7427 9.00428ZM19.3852 7.0984C19.4918 7.49861 19.7513 7.81726 20.0838 8.00926C20.4164 8.20126 20.8221 8.26661 21.222 8.1589C22.0221 7.9445 22.4969 7.1222 22.2825 6.32205L21.208 2.31209C20.9943 1.51231 20.1707 1.03681 19.3712 1.25159C18.571 1.46599 18.0963 2.28828 18.3107 3.08843L19.3852 7.0984ZM18.6118 10.6235C19.0258 9.9064 18.7798 8.98843 18.0627 8.57443L15.4646 7.07443C14.7476 6.66043 13.8296 6.9064 13.4156 7.62347C13.0016 8.34053 13.2476 9.2585 13.9646 9.6725L16.5627 11.1725C17.2798 11.5865 18.1974 11.3412 18.6118 10.6235Z" fill="#000927"/>
</svg>
