<svg width="42" height="47" viewBox="0 0 42 47" fill="none" xmlns="http://www.w3.org/2000/svg">
<path d="M3.51472 38.6853C8.20101 43.3716 15.799 43.3716 20.4853 38.6853C25.1716 33.999 25.1716 26.401 20.4853 21.7147C15.799 17.0284 8.20101 17.0284 3.51472 21.7147C-1.17157 26.401 -1.17157 33.999 3.51472 38.6853Z" fill="#00F6B4"/>
<path d="M39.3855 28.5826L39.2673 28.5144C38.7074 28.1911 38.1061 28.0085 37.5017 27.9471C37.6817 26.2566 36.879 24.5375 35.3144 23.6341L35.1961 23.5658C34.6363 23.2426 34.035 23.06 33.4305 22.9985C33.6106 21.3081 32.8079 19.5889 31.2432 18.6855L31.125 18.6173C30.6905 18.3664 30.2309 18.2024 29.7639 18.1112L33.6028 11.4621C34.9007 9.21408 34.2312 6.47973 32.0793 5.23735L31.9611 5.1691C29.8449 3.94735 27.1293 4.67446 25.9072 6.79124L19.2727 18.2825L18.783 16.4548C18.1508 14.0936 15.7154 12.6884 13.3525 13.3221L13.2241 13.3571C12.0804 13.6624 11.1245 14.3957 10.5323 15.4213C9.94059 16.4462 9.78355 17.6407 10.0899 18.7841L10.9428 21.9673C11.5989 24.4159 11.7085 25.3841 10.4942 27.4873C7.84337 32.0787 10.2658 37.7529 16.3843 41.2854L21.5805 44.2854C31.9728 50.2854 37.9668 39.9035 40.2235 35.9947L41.0076 34.6365C42.2298 32.5197 41.5016 29.8044 39.3855 28.5826ZM37.6254 34.4947C34.1192 40.5677 29.9303 45.6421 23.0805 41.6873L17.8843 38.6873C13.2954 36.0379 11.3246 32.0491 13.0923 28.9873C14.8998 25.8566 14.5809 23.9534 13.8408 21.1913L12.9879 18.0081C12.8884 17.6389 12.9398 17.2529 13.1311 16.9216C13.3227 16.5897 13.6309 16.3529 14.0038 16.2529L14.1323 16.218C14.8952 16.0141 15.6817 16.4682 15.886 17.2305L17.2942 22.4879C17.4037 22.8967 17.673 23.2193 18.0161 23.4096C18.0232 23.4137 18.0292 23.4198 18.0364 23.4239C18.7534 23.8379 19.6714 23.592 20.0854 22.8749L28.5053 8.29124C28.9002 7.60729 29.7771 7.37231 30.4611 7.76718L30.5793 7.83543C31.2977 8.25018 31.4769 9.14432 31.0047 9.96206L25.0711 20.2394C24.6571 20.9565 24.9031 21.8744 25.6201 22.2884C26.3372 22.7024 27.2552 22.4565 27.6692 21.7394C28.0641 21.0555 28.941 20.8205 29.625 21.2153L29.7432 21.2836C30.4271 21.6785 30.6621 22.5555 30.2673 23.2394L29.4831 24.5975C29.4441 24.6651 29.416 24.7363 29.3889 24.8073C29.301 24.928 29.2188 25.0555 29.1423 25.188C28.7283 25.905 28.9742 26.823 29.6913 27.237C30.4084 27.651 31.3263 27.405 31.7403 26.688C32.1352 26.004 33.0122 25.769 33.6961 26.1639L33.8144 26.2322C34.4983 26.627 34.7333 27.504 34.3384 28.188L33.5543 29.5461C33.5153 29.6137 33.4871 29.6849 33.46 29.7558C33.3721 29.8766 33.2899 30.004 33.2134 30.1365C32.7994 30.8536 33.0454 31.7716 33.7624 32.1856C34.4795 32.5996 35.3975 32.3536 35.8115 31.6365C36.2064 30.9526 37.0833 30.7176 37.7673 31.1125L37.8855 31.1807C38.5694 31.5756 38.8044 32.4526 38.4096 33.1365L37.6254 34.4947ZM21.7427 8.00428C22.4598 8.41828 23.3778 8.17231 23.7918 7.45524L25.2918 4.85716C25.7058 4.1401 25.4598 3.22213 24.7427 2.80813C24.0257 2.39413 23.1077 2.6401 22.6937 3.35716L21.1937 5.95524C20.7797 6.67231 21.0257 7.59028 21.7427 8.00428ZM16.3852 6.0984C16.4918 6.49861 16.7513 6.81726 17.0838 7.00926C17.4164 7.20126 17.8221 7.26661 18.222 7.1589C19.0221 6.9445 19.4969 6.1222 19.2825 5.32205L18.208 1.31209C17.9943 0.512313 17.1707 0.0368129 16.3712 0.251587C15.571 0.465987 15.0963 1.28828 15.3107 2.08843L16.3852 6.0984ZM15.6118 9.62346C16.0258 8.9064 15.7798 7.98843 15.0627 7.57443L12.4646 6.07443C11.7476 5.66043 10.8296 5.9064 10.4156 6.62347C10.0016 7.34053 10.2476 8.2585 10.9646 8.6725L13.5627 10.1725C14.2798 10.5865 15.1974 10.3412 15.6118 9.62346Z" fill="#000927"/>
</svg>
