<svg width="48" height="48" viewBox="0 0 48 48" fill="none" xmlns="http://www.w3.org/2000/svg">
<g clip-path="url(#clip0_2933_16199)">
<path d="M24 43.5C30.6274 43.5 36 38.1274 36 31.5C36 24.8726 30.6274 19.5 24 19.5C17.3726 19.5 12 24.8726 12 31.5C12 38.1274 17.3726 43.5 24 43.5Z" fill="#00F6B4"/>
<path d="M34.5 24H13.5C9.3645 24 6 27.3645 6 31.5C6 35.6355 9.3645 39 13.5 39H34.5C38.6355 39 42 35.6355 42 31.5C42 27.3645 38.6355 24 34.5 24ZM34.5 36H13.5C11.0182 36 9 33.9818 9 31.5C9 29.0182 11.0182 27 13.5 27H34.5C36.9818 27 39 29.0182 39 31.5C39 33.9818 36.9818 36 34.5 36ZM16.5 21C19.2968 21 21.6458 19.074 22.3073 16.4805C22.371 16.4888 22.434 16.5 22.5 16.5H28.5V20.25C28.5 21.078 29.172 21.75 30 21.75C30.828 21.75 31.5 21.078 31.5 20.25V16.5H33V19.5C33 20.328 33.672 21 34.5 21C35.328 21 36 20.328 36 19.5V15C36 14.172 35.328 13.5 34.5 13.5H22.5C22.434 13.5 22.371 13.5112 22.3073 13.5195C21.6458 10.926 19.2968 9 16.5 9C13.1918 9 10.5 11.6918 10.5 15C10.5 18.3082 13.1918 21 16.5 21ZM16.5 12C18.1545 12 19.5 13.3455 19.5 15C19.5 16.6545 18.1545 18 16.5 18C14.8455 18 13.5 16.6545 13.5 15C13.5 13.3455 14.8455 12 16.5 12ZM15 30C14.1713 30 13.5 30.6712 13.5 31.5C13.5 32.3288 14.1713 33 15 33C15.8287 33 16.5 32.3288 16.5 31.5C16.5 30.6712 15.8287 30 15 30ZM21 30C20.1713 30 19.5 30.6712 19.5 31.5C19.5 32.3288 20.1713 33 21 33C21.8287 33 22.5 32.3288 22.5 31.5C22.5 30.6712 21.8287 30 21 30ZM27 30C26.1712 30 25.5 30.6712 25.5 31.5C25.5 32.3288 26.1712 33 27 33C27.8288 33 28.5 32.3288 28.5 31.5C28.5 30.6712 27.8288 30 27 30ZM33 30C32.1712 30 31.5 30.6712 31.5 31.5C31.5 32.3288 32.1712 33 33 33C33.8288 33 34.5 32.3288 34.5 31.5C34.5 30.6712 33.8288 30 33 30Z" fill="#000927"/>
</g>
<defs>
<clipPath id="clip0_2933_16199">
<rect width="48" height="48" fill="white"/>
</clipPath>
</defs>
</svg>
