<svg width="48" height="48" viewBox="0 0 48 48" fill="none" xmlns="http://www.w3.org/2000/svg">
<g clip-path="url(#clip0_2933_16236)">
<path d="M21.6436 13.3935C18.7148 16.3222 18.7148 21.0712 21.6436 24L32.2501 34.6065C35.1788 37.5352 39.9278 37.5352 42.8566 34.6065C45.7853 31.6777 45.7853 26.9287 42.8566 24L32.2501 13.3935C29.3213 10.4647 24.5723 10.4647 21.6436 13.3935Z" fill="#00F6B4"/>
<path d="M34.917 19.0905L24.3113 8.484C20.8028 4.974 15.0915 4.974 11.583 8.484C9.88279 10.1835 8.94679 12.4433 8.94679 14.8478C8.94679 15.1373 8.96179 15.4245 8.98879 15.7095C8.85004 15.8325 8.70829 15.9502 8.57554 16.083C5.06629 19.5922 5.06629 25.302 8.57554 28.8105L19.182 39.417C20.9363 41.172 23.241 42.0487 25.5458 42.0487C27.8505 42.0487 30.1553 41.172 31.9095 39.417C33.882 37.4445 34.746 34.776 34.5008 32.1945C34.641 32.0707 34.7835 31.9522 34.917 31.818C38.4263 28.3095 38.4263 22.5997 34.917 19.0905ZM29.7885 37.296C27.4493 39.6352 23.6423 39.6352 21.303 37.296L10.6965 26.6895C8.62429 24.6172 8.39179 21.396 9.99004 19.0605C10.4055 19.8427 10.9388 20.5672 11.5823 21.2115L22.1895 31.818C23.9438 33.5722 26.2485 34.4497 28.5533 34.4497C29.5403 34.4497 30.5243 34.2787 31.4678 33.957C31.2833 35.1802 30.7283 36.357 29.7885 37.296ZM12.3615 17.0363C13.1753 16.65 14.0558 16.4497 14.9385 16.4497C16.4753 16.4497 18.012 17.0347 19.1813 18.204L29.7885 28.8105C30.3923 29.4142 30.837 30.117 31.1295 30.8662C28.9013 31.9245 26.1525 31.539 24.3105 29.697L13.704 19.0905C13.1093 18.4957 12.6593 17.796 12.3615 17.0363ZM33.5003 28.8435C33.0908 28.0687 32.5613 27.3412 31.9103 26.6895L21.303 16.083C18.7973 13.5773 15.1695 12.87 12.0218 13.9448C12.2108 12.6855 12.7875 11.5223 13.7048 10.605C14.8748 9.435 16.4108 8.85075 17.9475 8.85075C19.4843 8.85075 21.021 9.43575 22.1903 10.605L32.7968 21.2115C34.869 23.2845 35.1008 26.508 33.5003 28.8435Z" fill="#000927"/>
</g>
<defs>
<clipPath id="clip0_2933_16236">
<rect width="48" height="48" fill="white"/>
</clipPath>
</defs>
</svg>
