<?xml version="1.0" encoding="UTF-8"?>
<svg width="205px" height="186px" viewBox="0 0 205 186" version="1.1" xmlns="http://www.w3.org/2000/svg" xmlns:xlink="http://www.w3.org/1999/xlink">
    <title>404 Page Not Found _Outline</title>
    <g id="Mobile" stroke="none" stroke-width="1" fill="none" fill-rule="evenodd">
        <g id="OTP-datos-errados/mobile" transform="translate(-58.000000, -213.000000)" fill-rule="nonzero">
            <g id="404-Page-Not-Found-_Outline" transform="translate(58.000000, 213.000000)">
                <rect id="Rectangle" fill="#FFFFFF" x="25" y="1" width="156" height="184" rx="5.6231"></rect>
                <path d="M173.37332,186 L31.6266799,186 C26.8683091,185.985551 23.0144852,182.141294 23,177.394737 L23,8.59210526 C23.0145174,3.84769344 26.8704436,0.00722131001 31.6266799,0 L173.37332,0 C178.129556,0.00722131001 181.985483,3.84769344 182,8.59210526 L182,177.394737 C181.985515,182.141294 178.131691,185.985551 173.37332,186 Z M31.6266799,2.63157895 C28.3244387,2.63157895 25.6454021,5.29807022 25.6381284,8.59210526 L25.6381284,177.394737 C25.6453828,180.690909 28.3223038,183.361185 31.6266799,183.368421 L173.37332,183.368421 C176.677696,183.361185 179.354617,180.690909 179.361872,177.394737 L179.361872,8.59210526 C179.354598,5.29807022 176.675561,2.63157895 173.37332,2.63157895 L31.6266799,2.63157895 Z" id="Shape" fill="#0C1B2B"></path>
                <path d="M32.2907036,1 L173.709296,1 C177.735841,1 181,4.26146283 181,8.28468113 L181,21 L25,21 L25,8.28468113 C25,4.26146283 28.2641592,1 32.2907036,1 Z" id="Path" fill="#2CBAD8"></path>
                <path d="M180.680936,22 L24.3190642,22 C23.5905652,22 23,21.4276737 23,20.7216734 L23,8.3474724 C23.0145174,3.73814261 26.8704436,0.00701570618 31.6266799,0 L173.37332,0 C178.129556,0.00701570618 181.985483,3.73814261 182,8.3474724 L182,20.7216734 C182,21.0607067 181.861028,21.3858541 181.613655,21.6255868 C181.366283,21.8653196 181.030773,22 180.680936,22 Z M25.6381284,19.4433469 L179.361872,19.4433469 L179.361872,8.3474724 C179.354598,5.14722452 176.675561,2.55665311 173.37332,2.55665311 L31.6266799,2.55665311 C28.3244387,2.55665311 25.6454021,5.14722452 25.6381284,8.3474724 L25.6381284,19.4433469 Z" id="Shape" fill="#0C1B2B"></path>
                <circle id="Oval" fill="#0C1B2B" cx="38" cy="11" r="3"></circle>
                <circle id="Oval" fill="#0C1B2B" cx="48" cy="11" r="3"></circle>
                <circle id="Oval" fill="#0C1B2B" cx="56" cy="11" r="3"></circle>
                <polygon id="Path" fill="#2CBAD8" points="204 163 94 163 94 67.2368903 109.899004 48 204 48"></polygon>
                <path d="M203.752929,164 L94.3127076,164 C93.5877206,164 93,163.41367 93,162.690396 L93,67.4429161 C93,67.1369244 93.1062251,66.8403832 93.3019247,66.6047697 L109.054385,47.4714591 C109.304267,47.1721621 109.674728,47 110.065168,47 L203.687294,47 C204.412281,47 205,47.5863313 205,48.3096055 L205,162.690396 C205,163.388852 204.452164,163.965078 203.752929,164 L203.752929,164 Z M95.6254126,161.380793 L202.440224,161.380793 L202.440224,49.6192092 L110.747775,49.6192092 L95.6254126,67.9536616 L95.6254126,161.380793 Z" id="Shape" fill="#0C1B2B"></path>
                <path d="M116.293767,99 C115.771209,99.003005 115.298751,98.6908399 115.098365,98.210146 C114.89798,97.7294521 115.0095,97.1757837 115.380531,96.8092684 L131.80592,80.3725394 C132.307605,79.8758202 133.117845,79.8758202 133.61953,80.3725394 C133.863033,80.6130904 134,80.9405385 134,81.2821324 C134,81.6237262 133.863033,81.9511744 133.61953,82.1917253 L117.207003,98.6284543 C116.964264,98.8682621 116.635656,99.001947 116.293767,99 L116.293767,99 Z" id="Path" fill="#0C1B2B"></path>
                <path d="M132.724708,99 C132.380725,98.9985792 132.051625,98.8602183 131.810837,98.6157887 L115.374024,82.1843507 C115.049829,81.859489 114.924443,81.3872134 115.045098,80.9454253 C115.165753,80.5036373 115.514118,80.1594551 115.958969,80.0425287 C116.40382,79.9256024 116.877571,80.0536958 117.201767,80.3785574 L133.625708,96.8099954 C134.124764,97.3095181 134.124764,98.116266 133.625708,98.6157887 C133.388063,98.8570917 133.064217,98.9951883 132.724708,99 Z" id="Path" fill="#0C1B2B"></path>
                <path d="M168.274428,99 C167.935149,98.9951665 167.611523,98.8570699 167.374038,98.6157672 C166.875321,98.1162451 166.875321,97.3094982 167.374038,96.8099761 L183.799724,80.378557 C184.1237,80.0536957 184.597131,79.9256024 185.04168,80.0425287 C185.48623,80.1594549 185.83436,80.5036367 185.954933,80.9454243 C186.075506,81.3872118 185.950205,81.8594869 185.626229,82.1843482 L169.200544,98.6157672 C168.956797,98.8633734 168.62264,99.0020031 168.274428,99 Z" id="Path" fill="#0C1B2B"></path>
                <path d="M184.719095,99 C184.375351,98.9985797 184.04648,98.8602674 183.805859,98.6159235 L167.38047,82.190251 C167.136967,81.9498619 167,81.622634 167,81.2812699 C167,80.9399059 167.136967,80.612678 167.38047,80.3722888 C167.882155,79.8759037 168.692395,79.8759037 169.19408,80.3722888 L185.619469,96.7979613 C185.9905,97.16423 186.10202,97.717526 185.901635,98.1978965 C185.701249,98.6782671 185.228791,98.9902222 184.706233,98.9871974 L184.719095,99 Z" id="Path" fill="#0C1B2B"></path>
                <path d="M142,117 L157,117 L157,130.401404 C157,134.597993 153.645094,138 149.506608,138 L149.506608,138 C145.368122,138 142.013216,134.597993 142.013216,130.401404 L142.013216,117 L142,117 Z" id="Path" fill="#E73642"></path>
                <path d="M149.993258,139 C145.029498,138.992832 141.007425,135.109988 141,130.318053 L141,117.301641 C141,116.582765 141.603661,116 142.348315,116 L157.651685,116 C158.396339,116 159,116.582765 159,117.301641 L159,130.318053 C158.992561,135.115065 154.962284,139 149.993258,139 L149.993258,139 Z M143.696629,118.551217 L143.696629,130.265988 C143.696629,133.623141 146.515726,136.344652 149.993258,136.344652 C153.470791,136.344652 156.289888,133.623141 156.289888,130.265988 L156.289888,118.551217 L143.696629,118.551217 Z" id="Shape" fill="#0C1B2B"></path>
                <path d="M149,128 C148.447715,128 148,127.409107 148,126.680203 L148,116.319797 C148,115.590893 148.447715,115 149,115 C149.552285,115 150,115.590893 150,116.319797 L150,126.680203 C150,127.030235 149.894643,127.36593 149.707107,127.61344 C149.51957,127.86095 149.265216,128 149,128 Z" id="Path" fill="#0C1B2B"></path>
                <path d="M184.68713,119 L116.31287,119 C115.587792,119 115,118.552285 115,118 C115,117.447715 115.587792,117 116.31287,117 L184.68713,117 C185.412208,117 186,117.447715 186,118 C186,118.552285 185.412208,119 184.68713,119 Z" id="Path" fill="#0C1B2B"></path>
                <path d="M102.674722,36 L37.3252777,36 C36.593347,36 36,35.5522847 36,35 C36,34.4477153 36.593347,34 37.3252777,34 L102.674722,34 C103.406653,34 104,34.4477153 104,35 C104,35.5522847 103.406653,36 102.674722,36 Z" id="Path" fill="#DFEAEF"></path>
                <polygon id="Path" fill="#FFFFFF" points="94 68 109.827386 68 110 49"></polygon>
                <path d="M109.611638,69 L94.2883218,69 C93.7862376,69.0012678 93.3293793,68.701288 93.1185048,68.2318693 C92.9102498,67.7674046 92.9803128,67.2209041 93.2984767,66.8280665 L108.724634,47.4794259 C109.070673,47.0492052 109.641575,46.8889961 110.151603,47.0789834 C110.661631,47.2689707 111.001055,47.7682792 111,48.3270049 L110.832876,67.688889 C110.826919,68.3900813 110.291448,68.9649537 109.611638,69 Z M97.0136096,66.3513033 L108.33898,66.3513033 L108.467532,52.0484067 L97.0136096,66.3513033 Z" id="Shape" fill="#0C1B2B"></path>
                <path d="M129.666667,36 L116.333333,36 C115.596954,36 115,35.5522847 115,35 C115,34.4477153 115.596954,34 116.333333,34 L129.666667,34 C130.403046,34 131,34.4477153 131,35 C131,35.5522847 130.403046,36 129.666667,36 Z" id="Path" fill="#DFEAEF"></path>
                <path d="M77.6875,52 L38.3125,52 C37.5876263,52 37,51.5522847 37,51 C37,50.4477153 37.5876263,50 38.3125,50 L77.6875,50 C78.4123737,50 79,50.4477153 79,51 C79,51.5522847 78.4123737,52 77.6875,52 Z" id="Path" fill="#DFEAEF"></path>
                <path d="M77.7075929,109 L64.2924071,109 C63.5786304,109 63,108.552285 63,108 C63,107.447715 63.5786304,107 64.2924071,107 L77.7075929,107 C78.4213696,107 79,107.447715 79,108 C79,108.552285 78.4213696,109 77.7075929,109 L77.7075929,109 Z" id="Path" fill="#DFEAEF"></path>
                <path d="M78.630137,123 L69.369863,123 C68.6133086,123 68,122.552285 68,122 C68,121.447715 68.6133086,121 69.369863,121 L78.630137,121 C79.3866914,121 80,121.447715 80,122 C80,122.552285 79.3866914,123 78.630137,123 Z" id="Path" fill="#DFEAEF"></path>
                <rect id="Rectangle" fill="#FDC508" x="1" y="100" width="79" height="27" rx="2.4563"></rect>
                <path d="M76.5405666,128 L4.40727624,128 C1.97784663,127.964147 0.0209940589,125.966418 0,123.500662 L0,102.539038 C0,100.037356 1.99444861,98.0072935 4.45943335,98 L76.5405666,98 C79.0055514,98.0072935 81,100.037356 81,102.539038 L81,123.500662 C80.9785832,125.986836 78.9903644,127.992846 76.5405666,128 L76.5405666,128 Z M4.40727624,100.60697 C3.38257257,100.614242 2.55569865,101.459358 2.55569865,102.499338 L2.55569865,123.500662 C2.55569865,124.540642 3.38257257,125.385758 4.40727624,125.39303 L76.5405666,125.39303 C77.5652703,125.385758 78.3921442,124.540642 78.3921442,123.500662 L78.3921442,102.539038 C78.3921442,101.499058 77.5652703,100.653942 76.5405666,100.64667 L4.40727624,100.60697 Z" id="Shape" fill="#0C1B2B"></path>
                <path d="M11.0013289,113.447262 C10.9971636,112.544267 11.1758141,111.648971 11.5275063,110.810355 C11.8574095,110.040189 12.3526207,109.344126 12.9814177,108.766753 C13.6160546,108.185925 14.3704862,107.736956 15.1969018,107.448299 C17.013513,106.850567 18.9882346,106.850567 20.8048458,107.448299 C21.6312615,107.736956 22.3856931,108.185925 23.0203299,108.766753 C23.649127,109.344126 24.1443382,110.040189 24.4742413,110.810355 C25.1752529,112.541334 25.1752529,114.458666 24.4742413,116.189645 C24.1515195,116.963449 23.6553394,117.660875 23.0203299,118.233247 C22.3856931,118.814075 21.6312615,119.263044 20.8048458,119.551701 C18.9882346,120.149433 17.013513,120.149433 15.1969018,119.551701 C14.3704862,119.263044 13.6160546,118.814075 12.9814177,118.233247 C12.3464083,117.660875 11.8502282,116.963449 11.5275063,116.189645 C11.161537,115.318148 10.9826247,114.385675 11.0013289,113.447262 Z M13.9645388,113.447262 C13.9570753,113.99158 14.055669,114.532498 14.2553211,115.04259 C14.421085,115.534538 14.700206,115.984998 15.0722808,116.361044 C15.4288325,116.72238 15.8634604,117.005772 16.3461842,117.191669 C17.4084625,117.595914 18.5932851,117.595914 19.6555635,117.191669 C20.1382872,117.005772 20.5729151,116.72238 20.9294668,116.361044 C21.3015417,115.984998 21.5806627,115.534538 21.7464266,115.04259 C22.1343912,114.015643 22.1343912,112.892065 21.7464266,111.865118 C21.5749847,111.375615 21.296549,110.92626 20.9294668,110.546665 C20.5729151,110.185328 20.1382872,109.901937 19.6555635,109.716039 C18.5897185,109.329846 17.4120292,109.329846 16.3461842,109.716039 C15.8634604,109.901937 15.4288325,110.185328 15.0722808,110.546665 C14.7051987,110.92626 14.426763,111.375615 14.2553211,111.865118 C14.057956,112.371223 13.9594091,112.907415 13.9645388,113.447262 L13.9645388,113.447262 Z" id="Shape" fill="#0C1B2B"></path>
                <path d="M26.0012463,113.44717 C25.9973399,112.542601 26.1648868,111.645744 26.4947204,110.805666 C26.8041191,110.034158 27.2685516,109.336881 27.8582672,108.758501 C28.4534596,108.176661 29.1610012,107.72691 29.9360529,107.43775 C31.6199889,106.854083 33.4465809,106.854083 35.130517,107.43775 C35.9055686,107.72691 36.6131102,108.176661 37.2083026,108.758501 C37.7746427,109.343085 38.2166772,110.039918 38.5069187,110.805666 C39.1643604,112.539662 39.1643604,114.460338 38.5069187,116.194334 C38.2232785,116.963477 37.780405,117.661632 37.2083026,118.241499 C36.6131102,118.823339 35.9055686,119.27309 35.130517,119.56225 C33.4465809,120.145917 31.6199889,120.145917 29.9360529,119.56225 C29.1610012,119.27309 28.4534596,118.823339 27.8582672,118.241499 C27.2627253,117.668128 26.7973841,116.969487 26.4947204,116.194334 C26.1514971,115.321317 25.9837046,114.387219 26.0012463,113.44717 L26.0012463,113.44717 Z M28.7802846,113.44717 C28.7732849,113.992437 28.8657508,114.534298 29.052994,115.04528 C29.2084552,115.538085 29.470228,115.98933 29.8191774,116.366031 C30.1535684,116.727998 30.561183,117.011883 31.0139042,117.198105 C31.5033358,117.40524 32.0291834,117.508606 32.5592572,117.501878 C33.0934061,117.507121 33.6232082,117.403844 34.1175965,117.198105 C34.5703176,117.011883 34.9779322,116.727998 35.3123232,116.366031 C35.6612726,115.98933 35.9230455,115.538085 36.0785067,115.04528 C36.4248104,114.013505 36.4248104,112.894042 36.0785067,111.862268 C35.9177204,111.371911 35.6565902,110.921774 35.3123232,110.541516 C34.9779322,110.179549 34.5703176,109.895664 34.1175965,109.709443 C33.6222986,109.508221 33.0925284,109.409441 32.5592572,109.418877 C32.0300806,109.407962 31.5042666,109.506829 31.0139042,109.709443 C30.561183,109.895664 30.1535684,110.179549 29.8191774,110.541516 C29.4749104,110.921774 29.2137803,111.371911 29.052994,111.862268 C28.85014,112.365854 28.7400911,112.903092 28.7283399,113.44717 L28.7802846,113.44717 Z" id="Shape" fill="#0C1B2B"></path>
                <path d="M43,107.000386 L47.9417625,107.000386 C48.5995924,106.994548 49.2562856,107.054986 49.9014269,107.180743 C50.4744084,107.287168 51.0199241,107.504125 51.5060796,107.818931 C51.9724286,108.120809 52.3494773,108.53702 52.5995156,109.025939 C52.8856496,109.62427 53.0219414,110.280534 52.9971287,110.940504 C53.0160786,111.59718 52.8901572,112.25015 52.6279165,112.855068 C52.395615,113.34617 52.038798,113.771182 51.5912824,114.089823 C51.1183477,114.403266 50.5879801,114.624662 50.0292311,114.741885 C49.3843,114.869038 48.7274571,114.929491 48.0695667,114.922242 L45.9394966,114.922242 L45.9394966,120 L43,120 L43,107.000386 Z M45.9394966,112.549848 L47.8849606,112.549848 C48.1430035,112.551159 48.4003313,112.523225 48.6517858,112.466606 C48.881956,112.42587 49.1030397,112.346046 49.3050073,112.230754 C49.5020975,112.111847 49.663709,111.944386 49.7736227,111.745176 C49.9089751,111.513458 49.9730705,111.248526 49.9582288,110.982125 C49.9696057,110.699682 49.8846966,110.421538 49.7168208,110.191326 C49.5625964,109.986828 49.3572413,109.824414 49.1204012,109.719622 C48.8606328,109.603167 48.5817612,109.532705 48.2967741,109.511517 L47.4447461,109.511517 L45.9394966,109.511517 L45.9394966,112.549848 Z" id="Shape" fill="#0C1B2B"></path>
                <path d="M61.3882164,110.30287 C61.1792305,110.013678 60.8998851,109.798062 60.5837743,109.681952 C60.2764312,109.556943 59.9525896,109.489971 59.6255419,109.483787 C59.4384813,109.480283 59.2517442,109.502468 59.0695305,109.549842 C58.8841411,109.592312 58.7049638,109.663456 58.5371791,109.761218 C58.3799134,109.860701 58.2429299,109.995678 58.1349581,110.157549 C58.0296561,110.333071 57.9759049,110.540853 57.9811677,110.752045 C57.9622843,111.09295 58.1062776,111.41958 58.3597286,111.610761 C58.64841,111.834925 58.9681464,112.004529 59.3061311,112.11278 C59.684692,112.258101 60.0869131,112.403422 60.4891341,112.535533 C60.9032443,112.68043 61.3003876,112.880007 61.6721371,113.130028 C62.0509822,113.39253 62.3739643,113.744198 62.6185396,114.160488 C62.8902439,114.68511 63.0216175,115.285703 62.9971006,115.891131 C63.0103304,116.511771 62.8928168,117.127202 62.6540297,117.68783 C62.4386837,118.203327 62.1186915,118.655665 61.7194573,119.008932 C61.313673,119.355517 60.8517111,119.611218 60.3590038,119.76196 C59.1636109,120.11573 57.9019664,120.074426 56.7271844,119.643061 C56.0874615,119.376469 55.5006885,118.972535 55,118.454069 L56.7390145,116.313884 C56.9890587,116.683203 57.3132138,116.981849 57.6854169,117.185811 C58.0544999,117.384432 58.4587199,117.488255 58.8684199,117.489665 C59.071599,117.489394 59.2740637,117.462794 59.4717515,117.410399 C59.6625451,117.361142 59.8458737,117.281031 60.0159329,117.1726 C60.1711203,117.074993 60.304569,116.939514 60.4063239,116.77627 C60.5066822,116.60311 60.5600884,116.401249 60.5601143,116.194985 C60.5709733,115.845537 60.4244109,115.513235 60.1697233,115.309847 C59.876938,115.072454 59.5539374,114.885421 59.2114908,114.754984 L57.9575076,114.305809 C57.5190853,114.160491 57.098028,113.956438 56.7035244,113.698102 C56.3216292,113.440935 55.9946061,113.093771 55.7452919,112.680854 C55.4663026,112.183383 55.3300911,111.602591 55.3549009,111.016265 C55.3432188,110.411259 55.4651065,109.812347 55.7098018,109.272411 C55.9384895,108.78121 56.2616843,108.352614 56.6562043,108.017364 C57.0584431,107.669243 57.5160323,107.409257 58.0048277,107.251125 C58.5193371,107.081008 59.053475,106.996431 59.5900518,107 C60.203576,107 60.8136589,107.102456 61.4000464,107.303969 C61.9855364,107.504599 62.5259689,107.84239 62.9852705,108.294795 L61.3882164,110.30287 Z" id="Path" fill="#0C1B2B"></path>
                <path d="M69,118.333653 C69.0028778,118.106537 69.0446147,117.882146 69.1229494,117.672638 C69.2727035,117.267278 69.5602137,116.945248 69.9221206,116.777514 C70.1056395,116.694225 70.3019754,116.652114 70.4999829,116.653573 C70.7019805,116.652081 70.9023457,116.69416 71.0901401,116.777514 C71.2700615,116.859074 71.4332261,116.980911 71.5696428,117.135563 C71.7037454,117.29198 71.811982,117.473828 71.8893113,117.672638 C71.9637297,117.88298 72.0012981,118.107402 71.9999658,118.333653 C72.0012682,118.555434 71.9636719,118.775344 71.8893113,118.980897 C71.811982,119.179707 71.7037454,119.361555 71.5696428,119.517972 C71.4332261,119.672624 71.2700615,119.794461 71.0901401,119.876021 C70.9023457,119.959375 70.7019805,120.001454 70.4999829,119.999962 C70.3019754,120.00142 70.1056395,119.95931 69.9221206,119.876021 C69.5602137,119.708287 69.2727035,119.386257 69.1229494,118.980897 C69.0446794,118.776192 69.0029122,118.556316 69,118.333653 L69,118.333653 Z M71.7171821,115.579424 L69.2581938,115.579424 L69.2581938,107 L71.7171821,107 L71.7171821,115.579424 Z" id="Shape" fill="#0C1B2B"></path>
                <path d="M163.727466,36 L142.272534,36 C141.569733,36 141,35.5522847 141,35 C141,34.4477153 141.569733,34 142.272534,34 L163.727466,34 C164.430267,34 165,34.4477153 165,35 C165,35.5522847 164.430267,36 163.727466,36 Z" id="Path" fill="#DFEAEF"></path>
            </g>
        </g>
    </g>
</svg>