<?xml version="1.0" encoding="UTF-8"?>
<svg width="322px" height="171px" viewBox="0 0 322 171" version="1.1" xmlns="http://www.w3.org/2000/svg" xmlns:xlink="http://www.w3.org/1999/xlink">
    <title>Group 9</title>
    <defs>
        <linearGradient x1="50%" y1="0%" x2="50%" y2="100%" id="linearGradient-1">
            <stop stop-color="#0C1B2B" stop-opacity="0" offset="0%"></stop>
            <stop stop-color="#0C1B2B" stop-opacity="0.513139205" offset="100%"></stop>
        </linearGradient>
    </defs>
    <g id="Mobile" stroke="none" stroke-width="1" fill="none" fill-rule="evenodd">
        <g id="Group-9" transform="translate(0.000000, 0.500000)">
            <g id="Pattern-Copy" transform="translate(161.000000, 85.000000) rotate(-270.000000) translate(-161.000000, -85.000000) translate(76.000000, -75.500000)">
                <g id="Group" transform="translate(0.000000, 0.000000)">
                    <polygon id="Fill-213" fill="#E73743" points="52.2836096 239.496094 132.117864 239.496094 132.117864 160.813477 52.2836096 160.813477"></polygon>
                    <polygon id="Fill-214" fill="#0C1C2B" points="60.7366483 231.032227 122.725599 231.032227 122.725599 168.963867 60.7366483 168.963867"></polygon>
                    <polygon id="Fill-215" fill="#D7D9DC" points="82.3388582 321 170 321 170 239.496094 82.3388582 239.496094"></polygon>
                    <polygon id="Fill-216" fill="#0C1C2B" points="93.6095764 321 170 321 170 249.84082 93.6095764 249.84082"></polygon>
                    <g id="Group-225" transform="translate(61.675875, 170.217773)">
                        <path d="M71.3069598,150.782227 C90.367768,150.782227 105.819521,135.281861 105.819521,116.161085 C105.819521,97.04031 90.367768,81.5394981 71.3069598,81.5394981 C52.2461515,81.5394981 36.7943984,97.04031 36.7943984,116.161085 C36.7943984,135.281861 52.2461515,150.782227 71.3069598,150.782227 M71.3069598,95.6808166 C82.5823111,95.6808166 91.7229977,104.850261 91.7229977,116.161085 C91.7229977,127.47191 82.5823111,136.641354 71.3069598,136.641354 C60.0316084,136.641354 50.8909218,127.47191 50.8909218,116.161085 C50.8909218,104.850261 60.0316084,95.6808166 71.3069598,95.6808166" id="Fill-217" fill="#E73743"></path>
                        <path d="M62.5566575,116.160952 C62.5566575,111.313519 66.4738406,107.383566 71.3065151,107.383566 C76.138745,107.383566 80.0559281,111.313519 80.0559281,116.160952 C80.0559281,121.008384 76.138745,124.938337 71.3065151,124.938337 C66.4738406,124.938337 62.5566575,121.008384 62.5566575,116.160952" id="Fill-219" fill="#FDC608"></path>
                        <path d="M29.6229743,59.4318961 C45.9831049,59.4318961 59.2459487,46.1277722 59.2459487,29.715725 C59.2459487,13.3041239 45.9831049,2.21950317e-14 29.6229743,2.21950317e-14 C13.2628437,2.21950317e-14 0,13.3041239 0,29.715725 C0,46.1277722 13.2628437,59.4318961 29.6229743,59.4318961 M29.6229743,12.1373146 C39.300773,12.1373146 47.1462549,20.0074791 47.1462549,29.715725 C47.1462549,39.424417 39.300773,47.2945815 29.6229743,47.2945815 C19.9451757,47.2945815 12.0996938,39.424417 12.0996938,29.715725 C12.0996938,20.0074791 19.9451757,12.1373146 29.6229743,12.1373146" id="Fill-221" fill="#FDC608"></path>
                        <path d="M22.1131875,29.715725 C22.1131875,25.5551756 25.4754734,22.1818657 29.623419,22.1818657 C33.7709199,22.1818657 37.1332058,25.5551756 37.1332058,29.715725 C37.1332058,33.8762744 33.7709199,37.2495844 29.623419,37.2495844 C25.4754734,37.2495844 22.1131875,33.8762744 22.1131875,29.715725" id="Fill-223" fill="#2CBAD8"></path>
                    </g>
                    <polygon id="Fill-226" fill="#0C1C2B" points="41.0128913 321 82.3388582 321 82.3388582 280.875 41.0128913 280.875"></polygon>
                    <polygon id="Fill-227" fill="#FDC608" points="41.0128913 280.875 41.0128913 321 82.3388582 280.875"></polygon>
                    <polygon id="Fill-228" fill="#0C1C2B" points="41.0128913 280.875 82.3388582 280.875 82.3388582 239.496094 41.0128913 239.496094"></polygon>
                    <polygon id="Fill-229" fill="#FDC608" points="41.0128913 239.496094 82.3388582 239.496094 41.0128913 280.875"></polygon>
                    <polygon id="Fill-230" fill="#0C1C2B" points="0 321 41.0128913 321 41.0128913 280.875 0 280.875"></polygon>
                    <polygon id="Fill-231" fill="#2CBAD8" points="0 280.875 0 321 0.930981091 321 41.0128913 280.875"></polygon>
                    <polygon id="Fill-232" fill="#0C1C2B" points="0 280.875 41.0128913 280.875 41.0128913 239.496094 0 239.496094"></polygon>
                    <polygon id="Fill-233" fill="#2CBAD8" points="0 239.496094 41.0128913 239.496094 0 280.561523"></polygon>
                    <polygon id="Fill-234" fill="#0C1C2B" points="131.178637 200.311523 170 200.311523 170 160.813477 131.178637 160.813477"></polygon>
                    <polygon id="Fill-235" fill="#2CBAD8" points="131.178637 199.998047 170 199.998047 170 161.126953"></polygon>
                    <polygon id="Fill-236" fill="#0C1C2B" points="131.178637 239.496094 170 239.496094 170 199.998047 131.178637 199.998047"></polygon>
                    <polygon id="Fill-237" fill="#2CBAD8" points="131.178637 239.496094 170 239.496094 170 200.625"></polygon>
                    <polygon id="Fill-238" fill="#A2A7AE" points="51.9705341 78.6826172 130.552486 78.6826172 130.552486 0 51.9705341 0"></polygon>
                    <polygon id="Fill-239" fill="#0C1C2B" points="60.4235727 70.21875 122.099448 70.21875 122.099448 8.46386719 60.4235727 8.46386719"></polygon>
                    <polygon id="Fill-240" fill="#D7D9DC" points="82.3388582 161.126953 170 161.126953 170 78.6826172 82.3388582 78.6826172"></polygon>
                    <polygon id="Fill-241" fill="#0C1C2B" points="93.6095764 161.126953 170 161.126953 170 88.7138672 93.6095764 88.7138672"></polygon>
                    <g id="Group-250" transform="translate(61.675875, 9.404297)">
                        <path d="M71.5758617,150.46875 C90.6610664,150.46875 106.132597,134.98029 106.132597,115.874201 C106.132597,96.7681123 90.6610664,81.2792065 71.5758617,81.2792065 C52.490657,81.2792065 37.0191267,96.7681123 37.0191267,115.874201 C37.0191267,134.98029 52.490657,150.46875 71.5758617,150.46875 M71.5758617,95.4096631 C82.8656446,95.4096631 92.0180307,104.572064 92.0180307,115.874201 C92.0180307,127.176338 82.8656446,136.338739 71.5758617,136.338739 C60.2860787,136.338739 51.1336926,127.176338 51.1336926,115.874201 C51.1336926,104.572064 60.2860787,95.4096631 71.5758617,95.4096631" id="Fill-242" fill="#2CBAD8"></path>
                        <path d="M62.8143597,115.874201 C62.8143597,111.030492 66.7365565,107.103557 71.5754165,107.103557 C76.4138313,107.103557 80.3360281,111.030492 80.3360281,115.874201 C80.3360281,120.71791 76.4138313,124.644845 71.5754165,124.644845 C66.7365565,124.644845 62.8143597,120.71791 62.8143597,115.874201" id="Fill-244" fill="#E73743"></path>
                        <path d="M29.5758568,59.2168863 C45.9101813,59.2168863 59.1517135,45.9608645 59.1517135,29.608666 C59.1517135,13.2560218 45.9101813,4.35113138e-14 29.5758568,4.35113138e-14 C13.2415322,4.35113138e-14 0,13.2560218 0,29.608666 C0,45.9608645 13.2415322,59.2168863 29.5758568,59.2168863 M29.5758568,12.0936742 C39.23844,12.0936742 47.0717036,19.9355094 47.0717036,29.608666 C47.0717036,39.2818226 39.23844,47.1232121 29.5758568,47.1232121 C19.9132735,47.1232121 12.0800099,39.2818226 12.0800099,29.608666 C12.0800099,19.9355094 19.9132735,12.0936742 29.5758568,12.0936742" id="Fill-246" fill="#E73743"></path>
                        <path d="M22.0787179,29.608666 C22.0787179,25.4629001 25.435958,22.1024319 29.5767472,22.1024319 C33.7179815,22.1024319 37.0747764,25.4629001 37.0747764,29.608666 C37.0747764,33.7544319 33.7179815,37.1149 29.5767472,37.1149 C25.435958,37.1149 22.0787179,33.7544319 22.0787179,29.608666" id="Fill-248" fill="#FDC608"></path>
                    </g>
                    <polygon id="Fill-251" fill="#0C1C2B" points="41.0128913 160.813477 82.3388582 160.813477 82.3388582 119.748047 41.0128913 119.748047"></polygon>
                    <polygon id="Fill-252" fill="#E73743" points="41.0128913 119.748047 82.3388582 119.748047 41.0128913 160.813477"></polygon>
                    <polygon id="Fill-253" fill="#0C1C2B" points="41.0128913 119.748047 82.3388582 119.748047 82.3388582 78.6826172 41.0128913 78.6826172"></polygon>
                    <polygon id="Fill-254" fill="#E73743" points="41.0128913 78.6826172 82.3388582 78.6826172 41.0128913 119.748047"></polygon>
                    <polygon id="Fill-255" fill="#0C1C2B" points="0 160.813477 41.0128913 160.813477 41.0128913 119.748047 0 119.748047"></polygon>
                    <polygon id="Fill-256" fill="#2CBAD8" points="0 119.748047 41.0128913 119.748047 0 160.813477"></polygon>
                    <polygon id="Fill-257" fill="#0C1C2B" points="0 119.748047 41.0128913 119.748047 41.0128913 78.6826172 0 78.6826172"></polygon>
                    <polygon id="Fill-258" fill="#2CBAD8" points="0 78.6826172 41.0128913 78.6826172 0 119.748047"></polygon>
                    <polygon id="Fill-259" fill="#0C1C2B" points="130.552486 39.1845703 169.686924 39.1845703 169.686924 0 130.552486 0"></polygon>
                    <polygon id="Fill-260" fill="#FFBF2E" points="169.686924 0 130.552486 39.1845703 169.686924 39.1845703"></polygon>
                    <polygon id="Fill-261" fill="#0C1C2B" points="130.552486 78.6826172 169.686924 78.6826172 169.686924 39.4980469 130.552486 39.4980469"></polygon>
                    <polygon id="Fill-262" fill="#FFBF2E" points="130.552486 78.6826172 169.686924 78.6826172 169.686924 39.4980469"></polygon>
                    <polygon id="Fill-263" fill="#0C1C2B" points="0 239.496094 52.2836096 239.496094 52.2836096 160.813477 0 160.813477"></polygon>
                    <g id="Group-284" transform="translate(7.826888, 165.829102)">
                        <path d="M25.139228,61.3738465 C25.139228,58.3358946 27.5946957,55.8726542 30.6240535,55.8726542 C33.6529671,55.8726542 36.1084349,58.3358946 36.1084349,61.3738465 C36.1084349,64.4117985 33.6529671,66.8750389 30.6240535,66.8750389 C27.5946957,66.8750389 25.139228,64.4117985 25.139228,61.3738465" id="Fill-264" fill="#FFFFFF"></path>
                        <path d="M0.208323873,61.3738465 C0.208323873,58.3358946 2.66379161,55.8726542 5.69314942,55.8726542 C8.72206305,55.8726542 11.1775308,58.3358946 11.1775308,61.3738465 C11.1775308,64.4117985 8.72206305,66.8750389 5.69314942,66.8750389 C2.66379161,66.8750389 0.208323873,64.4117985 0.208323873,61.3738465" id="Fill-266" fill="#FFFFFF"></path>
                        <path d="M12.6735538,47.457808 C12.6735538,44.419856 15.1290216,41.9566156 18.1583794,41.9566156 C21.187293,41.9566156 23.6427607,44.419856 23.6427607,47.457808 C23.6427607,50.4957599 21.187293,52.9590003 18.1583794,52.9590003 C15.1290216,52.9590003 12.6735538,50.4957599 12.6735538,47.457808" id="Fill-268" fill="#FFFFFF"></path>
                        <path d="M25.139228,33.5422149 C25.139228,30.504263 27.5946957,28.0410226 30.6240535,28.0410226 C33.6529671,28.0410226 36.1084349,30.504263 36.1084349,33.5422149 C36.1084349,36.5801669 33.6529671,39.0434073 30.6240535,39.0434073 C27.5946957,39.0434073 25.139228,36.5801669 25.139228,33.5422149" id="Fill-270" fill="#FFFFFF"></path>
                        <path d="M0.208323873,33.5422149 C0.208323873,30.504263 2.66379161,28.0410226 5.69314942,28.0410226 C8.72206305,28.0410226 11.1775308,30.504263 11.1775308,33.5422149 C11.1775308,36.5801669 8.72206305,39.0434073 5.69314942,39.0434073 C2.66379161,39.0434073 0.208323873,36.5801669 0.208323873,33.5422149" id="Fill-272" fill="#FFFFFF"></path>
                        <path d="M12.6735538,19.6261764 C12.6735538,16.5882245 15.1290216,14.1249841 18.1583794,14.1249841 C21.187293,14.1249841 23.6427607,16.5882245 23.6427607,19.6261764 C23.6427607,22.6641283 21.187293,25.1273687 18.1583794,25.1273687 C15.1290216,25.1273687 12.6735538,22.6641283 12.6735538,19.6261764" id="Fill-274" fill="#FFFFFF"></path>
                        <path d="M12.610035,61.5391318 C12.610035,58.4766766 15.0939308,55.9942792 18.1583794,55.9942792 C21.222828,55.9942792 23.7067237,58.4766766 23.7067237,61.5391318 C23.7067237,64.6015869 21.222828,67.0839844 18.1583794,67.0839844 C15.0939308,67.0839844 12.610035,64.6015869 12.610035,61.5391318 Z M25.2200701,47.5130516 C25.2200701,44.4505964 27.7039658,41.968199 30.7684144,41.968199 C33.832863,41.968199 36.3167587,44.4505964 36.3167587,47.5130516 C36.3167587,50.5750612 33.832863,53.0574587 30.7684144,53.0574587 C27.7039658,53.0574587 25.2200701,50.5750612 25.2200701,47.5130516 Z M0,47.5130516 C0,44.4505964 2.48389573,41.968199 5.54834434,41.968199 C8.61279296,41.968199 11.0966887,44.4505964 11.0966887,47.5130516 C11.0966887,50.5750612 8.61279296,53.0574587 5.54834434,53.0574587 C2.48389573,53.0574587 0,50.5750612 0,47.5130516 Z M12.610035,33.4865258 C12.610035,30.4245162 15.0939308,27.9421188 18.1583794,27.9421188 C21.222828,27.9421188 23.7067237,30.4245162 23.7067237,33.4865258 C23.7067237,36.548981 21.222828,39.0313784 18.1583794,39.0313784 C15.0939308,39.0313784 12.610035,36.548981 12.610035,33.4865258 Z M25.2200701,19.4604456 C25.2200701,16.398436 27.7039658,13.915593 30.7684144,13.915593 C33.832863,13.915593 36.3167587,16.398436 36.3167587,19.4604456 C36.3167587,22.5229008 33.832863,25.0052982 30.7684144,25.0052982 C27.7039658,25.0052982 25.2200701,22.5229008 25.2200701,19.4604456 Z M0,19.4604456 C0,16.398436 2.48389573,13.915593 5.54834434,13.915593 C8.61279296,13.915593 11.0966887,16.398436 11.0966887,19.4604456 C11.0966887,22.5229008 8.61279296,25.0052982 5.54834434,25.0052982 C2.48389573,25.0052982 0,22.5229008 0,19.4604456 Z" id="Stroke-276" stroke="#FFFFFF" stroke-width="0.701"></path>
                        <path d="M25.139228,5.71013785 C25.139228,2.67218591 27.5946957,0.208945514 30.6240535,0.208945514 C33.6529671,0.208945514 36.1084349,2.67218591 36.1084349,5.71013785 C36.1084349,8.7480898 33.6529671,11.2113302 30.6240535,11.2113302 C27.5946957,11.2113302 25.139228,8.7480898 25.139228,5.71013785" id="Fill-278" fill="#FFFFFF"></path>
                        <path d="M12.46523,5.71013785 C12.46523,2.55635258 15.013977,2.97971046e-14 18.1583794,2.97971046e-14 C21.3027817,2.97971046e-14 23.8515288,2.55635258 23.8515288,5.71013785 C23.8515288,8.86392313 21.3027817,11.4202757 18.1583794,11.4202757 C15.013977,11.4202757 12.46523,8.86392313 12.46523,5.71013785 Z" id="Stroke-280" stroke="#FFFFFF" stroke-width="0.701"></path>
                        <path d="M0.208323873,5.71013785 C0.208323873,2.67218591 2.66379161,0.208945514 5.69314942,0.208945514 C8.72206305,0.208945514 11.1775308,2.67218591 11.1775308,5.71013785 C11.1775308,8.7480898 8.72206305,11.2113302 5.69314942,11.2113302 C2.66379161,11.2113302 0.208323873,8.7480898 0.208323873,5.71013785" id="Fill-282" fill="#FFFFFF"></path>
                    </g>
                    <polygon id="Fill-285" fill="#0C1C2B" points="0 78.6826172 51.9705341 78.6826172 51.9705341 0 0 0"></polygon>
                    <g id="Group-306" transform="translate(7.826888, 4.702148)">
                        <path d="M25.1388764,61.3732452 C25.1388764,58.3351427 27.5945896,55.8724925 30.6235845,55.8724925 C33.6525795,55.8724925 36.1078472,58.3351427 36.1078472,61.3732452 C36.1078472,64.4113477 33.6525795,66.8739979 30.6235845,66.8739979 C27.5945896,66.8739979 25.1388764,64.4113477 25.1388764,61.3732452" id="Fill-286" fill="#FFFFFF"></path>
                        <path d="M0.209357005,61.3732452 C0.209357005,58.3351427 2.66462469,55.8724925 5.69361965,55.8724925 C8.72261462,55.8724925 11.1783277,58.3351427 11.1783277,61.3732452 C11.1783277,64.4113477 8.72261462,66.8739979 5.69361965,66.8739979 C2.66462469,66.8739979 0.209357005,64.4113477 0.209357005,61.3732452" id="Fill-288" fill="#FFFFFF"></path>
                        <path d="M12.6741167,47.4578421 C12.6741167,44.4197396 15.1298298,41.9570894 18.1588248,41.9570894 C21.1878198,41.9570894 23.6430875,44.4197396 23.6430875,47.4578421 C23.6430875,50.4959446 21.1878198,52.9590415 18.1588248,52.9590415 C15.1298298,52.9590415 12.6741167,50.4959446 12.6741167,47.4578421" id="Fill-290" fill="#FFFFFF"></path>
                        <path d="M25.1388764,33.5419922 C25.1388764,30.5038897 27.5945896,28.0407927 30.6235845,28.0407927 C33.6525795,28.0407927 36.1078472,30.5038897 36.1078472,33.5419922 C36.1078472,36.5800947 33.6525795,39.0427449 30.6235845,39.0427449 C27.5945896,39.0427449 25.1388764,36.5800947 25.1388764,33.5419922" id="Fill-292" fill="#FFFFFF"></path>
                        <path d="M0.209357005,33.5419922 C0.209357005,30.5038897 2.66462469,28.0407927 5.69361965,28.0407927 C8.72261462,28.0407927 11.1783277,30.5038897 11.1783277,33.5419922 C11.1783277,36.5800947 8.72261462,39.0427449 5.69361965,39.0427449 C2.66462469,39.0427449 0.209357005,36.5800947 0.209357005,33.5419922" id="Fill-294" fill="#FFFFFF"></path>
                        <path d="M12.6741167,19.6265891 C12.6741167,16.5884866 15.1298298,14.1253896 18.1588248,14.1253896 C21.1878198,14.1253896 23.6430875,16.5884866 23.6430875,19.6265891 C23.6430875,22.6646916 21.1878198,25.1277885 18.1588248,25.1277885 C15.1298298,25.1277885 12.6741167,22.6646916 12.6741167,19.6265891" id="Fill-296" fill="#FFFFFF"></path>
                        <path d="M12.6099733,61.5394473 C12.6099733,58.4772186 15.0941946,55.9949102 18.1583794,55.9949102 C21.2225641,55.9949102 23.7067854,58.4772186 23.7067854,61.5394473 C23.7067854,64.6016759 21.2225641,67.0839844 18.1583794,67.0839844 C15.0941946,67.0839844 12.6099733,64.6016759 12.6099733,61.5394473 Z M25.2199466,47.5132428 C25.2199466,44.4510141 27.7041679,41.9687057 30.7683527,41.9687057 C33.8325374,41.9687057 36.3167587,44.4510141 36.3167587,47.5132428 C36.3167587,50.5754714 33.8325374,53.0577799 30.7683527,53.0577799 C27.7041679,53.0577799 25.2199466,50.5754714 25.2199466,47.5132428 Z M0,47.5132428 C0,44.4510141 2.48422131,41.9687057 5.54840607,41.9687057 C8.61259083,41.9687057 11.0968121,44.4510141 11.0968121,47.5132428 C11.0968121,50.5754714 8.61259083,53.0577799 5.54840607,53.0577799 C2.48422131,53.0577799 0,50.5754714 0,47.5132428 Z M12.6099733,33.4870383 C12.6099733,30.4248096 15.0941946,27.9420544 18.1583794,27.9420544 C21.2225641,27.9420544 23.7067854,30.4248096 23.7067854,33.4870383 C23.7067854,36.5492669 21.2225641,39.0315754 18.1583794,39.0315754 C15.0941946,39.0315754 12.6099733,36.5492669 12.6099733,33.4870383 Z M25.2199466,19.4608338 C25.2199466,16.3986051 27.7041679,13.9158499 30.7683527,13.9158499 C33.8325374,13.9158499 36.3167587,16.3986051 36.3167587,19.4608338 C36.3167587,22.5230624 33.8325374,25.0053709 30.7683527,25.0053709 C27.7041679,25.0053709 25.2199466,22.5230624 25.2199466,19.4608338 Z M0,19.4608338 C0,16.3986051 2.48422131,13.9158499 5.54840607,13.9158499 C8.61259083,13.9158499 11.0968121,16.3986051 11.0968121,19.4608338 C11.0968121,22.5230624 8.61259083,25.0053709 5.54840607,25.0053709 C2.48422131,25.0053709 0,22.5230624 0,19.4608338 Z" id="Stroke-298" stroke="#FFFFFF" stroke-width="0.701"></path>
                        <path d="M25.1388764,5.71073918 C25.1388764,2.67263666 27.5945896,0.209986498 30.6235845,0.209986498 C33.6525795,0.209986498 36.1078472,2.67263666 36.1078472,5.71073918 C36.1078472,8.74884171 33.6525795,11.2119386 30.6235845,11.2119386 C27.5945896,11.2119386 25.1388764,8.74884171 25.1388764,5.71073918" id="Fill-300" fill="#FFFFFF"></path>
                        <path d="M12.4652052,5.71073918 C12.4652052,2.5569207 15.0144608,2.97971091e-14 18.1588248,2.97971091e-14 C21.3031889,2.97971091e-14 23.8524445,2.5569207 23.8524445,5.71073918 C23.8524445,8.86455767 21.3031889,11.4214784 18.1588248,11.4214784 C15.0144608,11.4214784 12.4652052,8.86455767 12.4652052,5.71073918 Z" id="Stroke-302" stroke="#FFFFFF" stroke-width="0.701"></path>
                        <path d="M0.209357005,5.71073918 C0.209357005,2.67263666 2.66462469,0.209986498 5.69361965,0.209986498 C8.72261462,0.209986498 11.1783277,2.67263666 11.1783277,5.71073918 C11.1783277,8.74884171 8.72261462,11.2119386 5.69361965,11.2119386 C2.66462469,11.2119386 0.209357005,8.74884171 0.209357005,5.71073918" id="Fill-304" fill="#FFFFFF"></path>
                    </g>
                </g>
            </g>
            <rect id="Rectangle-Copy" fill="url(#linearGradient-1)" x="0" y="0.5" width="321" height="170"></rect>
        </g>
    </g>
</svg>