<?xml version="1.0" encoding="UTF-8"?>
<svg width="543px" height="1024px" viewBox="0 0 543 1024" version="1.1" xmlns="http://www.w3.org/2000/svg" xmlns:xlink="http://www.w3.org/1999/xlink">
    <title>Pattern</title>
    <g id="Desktop" stroke="none" stroke-width="1" fill="none" fill-rule="evenodd">
        <g id="Group">
            <polygon id="Fill-213" fill="#E73743" points="167 764 422 764 422 513 167 513"></polygon>
            <polygon id="Fill-214" fill="#0C1C2B" points="194 737 392 737 392 539 194 539"></polygon>
            <polygon id="Fill-215" fill="#D7D9DC" points="263 1024 543 1024 543 764 263 764"></polygon>
            <polygon id="Fill-216" fill="#0C1C2B" points="299 1024 543 1024 543 797 299 797"></polygon>
            <g id="Group-225" transform="translate(197.000000, 543.000000)">
                <path d="M227.762819,481 C288.645282,481 338,431.55335 338,370.557481 C338,309.561612 288.645282,260.113539 227.762819,260.113539 C166.880355,260.113539 117.525637,309.561612 117.525637,370.557481 C117.525637,431.55335 166.880355,481 227.762819,481 M227.762819,305.224786 C263.777617,305.224786 292.974046,334.475598 292.974046,370.557481 C292.974046,406.639364 263.777617,435.890176 227.762819,435.890176 C191.74802,435.890176 162.551591,406.639364 162.551591,370.557481 C162.551591,334.475598 191.74802,305.224786 227.762819,305.224786" id="Fill-217" fill="#E73743"></path>
                <path d="M199.813324,370.557054 C199.813324,355.093593 212.325267,342.556921 227.761398,342.556921 C243.196109,342.556921 255.708053,355.093593 255.708053,370.557054 C255.708053,386.020515 243.196109,398.557187 227.761398,398.557187 C212.325267,398.557187 199.813324,386.020515 199.813324,370.557054" id="Fill-219" fill="#FDC608"></path>
                <path d="M94.6192651,189.5896 C146.875447,189.5896 189.23853,147.14903 189.23853,94.7940885 C189.23853,42.4405697 146.875447,0 94.6192651,0 C42.3630833,0 0,42.4405697 0,94.7940885 C0,147.14903 42.3630833,189.5896 94.6192651,189.5896 M94.6192651,38.7184116 C125.531293,38.7184116 150.590685,63.8244815 150.590685,94.7940885 C150.590685,125.765118 125.531293,150.871188 94.6192651,150.871188 C63.7072375,150.871188 38.6478455,125.765118 38.6478455,94.7940885 C38.6478455,63.8244815 63.7072375,38.7184116 94.6192651,38.7184116" id="Fill-221" fill="#FDC608"></path>
                <path d="M70.6321225,94.7940885 C70.6321225,81.5218063 81.3716591,70.7608425 94.6206853,70.7608425 C107.868291,70.7608425 118.607828,81.5218063 118.607828,94.7940885 C118.607828,108.066371 107.868291,118.827335 94.6206853,118.827335 C81.3716591,118.827335 70.6321225,108.066371 70.6321225,94.7940885" id="Fill-223" fill="#2CBAD8"></path>
            </g>
            <polygon id="Fill-226" fill="#0C1C2B" points="131 1024 263 1024 263 896 131 896"></polygon>
            <polygon id="Fill-227" fill="#FDC608" points="131 896 131 1024 263 896"></polygon>
            <polygon id="Fill-228" fill="#0C1C2B" points="131 896 263 896 263 764 131 764"></polygon>
            <polygon id="Fill-229" fill="#FDC608" points="131 764 263 764 131 896"></polygon>
            <polygon id="Fill-230" fill="#0C1C2B" points="0 1024 131 1024 131 896 0 896"></polygon>
            <polygon id="Fill-231" fill="#2CBAD8" points="0 896 0 1024 2.97366313 1024 131 896"></polygon>
            <polygon id="Fill-232" fill="#0C1C2B" points="0 896 131 896 131 764 0 764"></polygon>
            <polygon id="Fill-233" fill="#2CBAD8" points="0 764 131 764 0 895"></polygon>
            <polygon id="Fill-234" fill="#0C1C2B" points="419 639 543 639 543 513 419 513"></polygon>
            <polygon id="Fill-235" fill="#2CBAD8" points="419 638 543 638 543 514"></polygon>
            <polygon id="Fill-236" fill="#0C1C2B" points="419 764 543 764 543 638 419 638"></polygon>
            <polygon id="Fill-237" fill="#2CBAD8" points="419 764 543 764 543 640"></polygon>
            <polygon id="Fill-238" fill="#A2A7AE" points="166 251 417 251 417 0 166 0"></polygon>
            <polygon id="Fill-239" fill="#0C1C2B" points="193 224 390 224 390 27 193 27"></polygon>
            <polygon id="Fill-240" fill="#D7D9DC" points="263 514 543 514 543 251 263 251"></polygon>
            <polygon id="Fill-241" fill="#0C1C2B" points="299 514 543 514 543 283 299 283"></polygon>
            <g id="Group-250" transform="translate(197.000000, 30.000000)">
                <path d="M228.621723,480 C289.582112,480 339,430.59133 339,369.642311 C339,308.693293 289.582112,259.283201 228.621723,259.283201 C167.661334,259.283201 118.243446,308.693293 118.243446,369.642311 C118.243446,430.59133 167.661334,480 228.621723,480 M228.621723,304.359798 C264.682618,304.359798 293.916416,333.588143 293.916416,369.642311 C293.916416,405.69648 264.682618,434.924825 228.621723,434.924825 C192.560828,434.924825 163.32703,405.69648 163.32703,369.642311 C163.32703,333.588143 192.560828,304.359798 228.621723,304.359798" id="Fill-242" fill="#2CBAD8"></path>
                <path d="M200.636455,369.642311 C200.636455,354.190728 213.164413,341.663685 228.620301,341.663685 C244.074767,341.663685 256.602725,354.190728 256.602725,369.642311 C256.602725,385.093895 244.074767,397.620938 228.620301,397.620938 C213.164413,397.620938 200.636455,385.093895 200.636455,369.642311" id="Fill-244" fill="#E73743"></path>
                <path d="M94.468766,188.903712 C146.64252,188.903712 188.937532,146.616589 188.937532,94.4525669 C188.937532,42.2871225 146.64252,0 94.468766,0 C42.2950116,0 0,42.2871225 0,94.4525669 C0,146.616589 42.2950116,188.903712 94.468766,188.903712 M94.468766,38.5791974 C125.332194,38.5791974 150.352559,63.5948959 150.352559,94.4525669 C150.352559,125.310238 125.332194,150.324515 94.468766,150.324515 C63.6053382,150.324515 38.5849728,125.310238 38.5849728,94.4525669 C38.5849728,63.5948959 63.6053382,38.5791974 94.468766,38.5791974" id="Fill-246" fill="#E73743"></path>
                <path d="M70.5220224,94.4525669 C70.5220224,81.2274445 81.2454424,70.5074464 94.47161,70.5074464 C107.6992,70.5074464 118.421198,81.2274445 118.421198,94.4525669 C118.421198,107.677689 107.6992,118.397687 94.47161,118.397687 C81.2454424,118.397687 70.5220224,107.677689 70.5220224,94.4525669" id="Fill-248" fill="#FDC608"></path>
            </g>
            <polygon id="Fill-251" fill="#0C1C2B" points="131 513 263 513 263 382 131 382"></polygon>
            <polygon id="Fill-252" fill="#E73743" points="131 382 263 382 131 513"></polygon>
            <polygon id="Fill-253" fill="#0C1C2B" points="131 382 263 382 263 251 131 251"></polygon>
            <polygon id="Fill-254" fill="#E73743" points="131 251 263 251 131 382"></polygon>
            <polygon id="Fill-255" fill="#0C1C2B" points="0 513 131 513 131 382 0 382"></polygon>
            <polygon id="Fill-256" fill="#2CBAD8" points="0 382 131 382 0 513"></polygon>
            <polygon id="Fill-257" fill="#0C1C2B" points="0 382 131 382 131 251 0 251"></polygon>
            <polygon id="Fill-258" fill="#2CBAD8" points="0 251 131 251 0 382"></polygon>
            <polygon id="Fill-259" fill="#0C1C2B" points="417 125 542 125 542 0 417 0"></polygon>
            <polygon id="Fill-260" fill="#FFBF2E" points="542 0 417 125 542 125"></polygon>
            <polygon id="Fill-261" fill="#0C1C2B" points="417 251 542 251 542 126 417 126"></polygon>
            <polygon id="Fill-262" fill="#FFBF2E" points="417 251 542 251 542 126"></polygon>
            <polygon id="Fill-263" fill="#0C1C2B" points="0 764 167 764 167 513 0 513"></polygon>
            <g id="Group-284" transform="translate(25.000000, 529.000000)">
                <path d="M80.2976517,195.784482 C80.2976517,186.093321 88.1407045,178.235507 97.8168297,178.235507 C107.491536,178.235507 115.334589,186.093321 115.334589,195.784482 C115.334589,205.475644 107.491536,213.333457 97.8168297,213.333457 C88.1407045,213.333457 80.2976517,205.475644 80.2976517,195.784482" id="Fill-264" fill="#FFFFFF"></path>
                <path d="M0.665410959,195.784482 C0.665410959,186.093321 8.5084638,178.235507 18.184589,178.235507 C27.8592955,178.235507 35.7023483,186.093321 35.7023483,195.784482 C35.7023483,205.475644 27.8592955,213.333457 18.184589,213.333457 C8.5084638,213.333457 0.665410959,205.475644 0.665410959,195.784482" id="Fill-266" fill="#FFFFFF"></path>
                <path d="M40.4808219,151.391886 C40.4808219,141.700725 48.3238748,133.842911 58,133.842911 C67.6747065,133.842911 75.5177593,141.700725 75.5177593,151.391886 C75.5177593,161.083047 67.6747065,168.940861 58,168.940861 C48.3238748,168.940861 40.4808219,161.083047 40.4808219,151.391886" id="Fill-268" fill="#FFFFFF"></path>
                <path d="M80.2976517,107.000711 C80.2976517,97.3095493 88.1407045,89.4517357 97.8168297,89.4517357 C107.491536,89.4517357 115.334589,97.3095493 115.334589,107.000711 C115.334589,116.691872 107.491536,124.549686 97.8168297,124.549686 C88.1407045,124.549686 80.2976517,116.691872 80.2976517,107.000711" id="Fill-270" fill="#FFFFFF"></path>
                <path d="M0.665410959,107.000711 C0.665410959,97.3095493 8.5084638,89.4517357 18.184589,89.4517357 C27.8592955,89.4517357 35.7023483,97.3095493 35.7023483,107.000711 C35.7023483,116.691872 27.8592955,124.549686 18.184589,124.549686 C8.5084638,124.549686 0.665410959,116.691872 0.665410959,107.000711" id="Fill-272" fill="#FFFFFF"></path>
                <path d="M40.4808219,62.6081141 C40.4808219,52.9169528 48.3238748,45.0591392 58,45.0591392 C67.6747065,45.0591392 75.5177593,52.9169528 75.5177593,62.6081141 C75.5177593,72.2992755 67.6747065,80.1570891 58,80.1570891 C48.3238748,80.1570891 40.4808219,72.2992755 40.4808219,62.6081141" id="Fill-274" fill="#FFFFFF"></path>
                <path d="M40.2779354,196.311747 C40.2779354,186.54242 48.2117906,178.623495 58,178.623495 C67.7882094,178.623495 75.7220646,186.54242 75.7220646,196.311747 C75.7220646,206.081075 67.7882094,214 58,214 C48.2117906,214 40.2779354,206.081075 40.2779354,196.311747 Z M80.5558708,151.568115 C80.5558708,141.798787 88.489726,133.879862 98.2779354,133.879862 C108.066145,133.879862 116,141.798787 116,151.568115 C116,161.336021 108.066145,169.254946 98.2779354,169.254946 C88.489726,169.254946 80.5558708,161.336021 80.5558708,151.568115 Z M0,151.568115 C0,141.798787 7.93385519,133.879862 17.7220646,133.879862 C27.510274,133.879862 35.4441292,141.798787 35.4441292,151.568115 C35.4441292,161.336021 27.510274,169.254946 17.7220646,169.254946 C7.93385519,169.254946 0,161.336021 0,151.568115 Z M40.2779354,106.823061 C40.2779354,97.0551545 48.2117906,89.1362293 58,89.1362293 C67.7882094,89.1362293 75.7220646,97.0551545 75.7220646,106.823061 C75.7220646,116.592388 67.7882094,124.511313 58,124.511313 C48.2117906,124.511313 40.2779354,116.592388 40.2779354,106.823061 Z M80.5558708,62.0794278 C80.5558708,52.3115217 88.489726,44.3911753 98.2779354,44.3911753 C108.066145,44.3911753 116,52.3115217 116,62.0794278 C116,71.8487551 108.066145,79.7676803 98.2779354,79.7676803 C88.489726,79.7676803 80.5558708,71.8487551 80.5558708,62.0794278 Z M0,62.0794278 C0,52.3115217 7.93385519,44.3911753 17.7220646,44.3911753 C27.510274,44.3911753 35.4441292,52.3115217 35.4441292,62.0794278 C35.4441292,71.8487551 27.510274,79.7676803 17.7220646,79.7676803 C7.93385519,79.7676803 0,71.8487551 0,62.0794278 Z" id="Stroke-276" stroke="#FFFFFF" stroke-width="0.701"></path>
                <path d="M80.2976517,18.2155176 C80.2976517,8.52435631 88.1407045,0.666542699 97.8168297,0.666542699 C107.491536,0.666542699 115.334589,8.52435631 115.334589,18.2155176 C115.334589,27.906679 107.491536,35.7644926 97.8168297,35.7644926 C88.1407045,35.7644926 80.2976517,27.906679 80.2976517,18.2155176" id="Fill-278" fill="#FFFFFF"></path>
                <path d="M39.815411,18.2155176 C39.815411,8.15484437 47.956409,0 58,0 C68.043591,0 76.184589,8.15484437 76.184589,18.2155176 C76.184589,28.2761909 68.043591,36.4310353 58,36.4310353 C47.956409,36.4310353 39.815411,28.2761909 39.815411,18.2155176 Z" id="Stroke-280" stroke="#FFFFFF" stroke-width="0.701"></path>
                <path d="M0.665410959,18.2155176 C0.665410959,8.52435631 8.5084638,0.666542699 18.184589,0.666542699 C27.8592955,0.666542699 35.7023483,8.52435631 35.7023483,18.2155176 C35.7023483,27.906679 27.8592955,35.7644926 18.184589,35.7644926 C8.5084638,35.7644926 0.665410959,27.906679 0.665410959,18.2155176" id="Fill-282" fill="#FFFFFF"></path>
            </g>
            <polygon id="Fill-285" fill="#0C1C2B" points="0 251 166 251 166 0 0 0"></polygon>
            <g id="Group-306" transform="translate(25.000000, 15.000000)">
                <path d="M80.2965289,195.782564 C80.2965289,186.090922 88.1403655,178.234992 97.8153318,178.234992 C107.490298,178.234992 115.332712,186.090922 115.332712,195.782564 C115.332712,205.474206 107.490298,213.330137 97.8153318,213.330137 C88.1403655,213.330137 80.2965289,205.474206 80.2965289,195.782564" id="Fill-286" fill="#FFFFFF"></path>
                <path d="M0.668710904,195.782564 C0.668710904,186.090922 8.51112474,178.234992 18.186091,178.234992 C27.8610573,178.234992 35.7048939,186.090922 35.7048939,195.782564 C35.7048939,205.474206 27.8610573,213.330137 18.186091,213.330137 C8.51112474,213.330137 0.668710904,205.474206 0.668710904,195.782564" id="Fill-288" fill="#FFFFFF"></path>
                <path d="M40.4826199,151.391995 C40.4826199,141.700353 48.3264565,133.844422 58.0014228,133.844422 C67.6763891,133.844422 75.5188029,141.700353 75.5188029,151.391995 C75.5188029,161.083636 67.6763891,168.940992 58.0014228,168.940992 C48.3264565,168.940992 40.4826199,161.083636 40.4826199,151.391995" id="Fill-290" fill="#FFFFFF"></path>
                <path d="M80.2965289,107 C80.2965289,97.3083583 88.1403655,89.4510023 97.8153318,89.4510023 C107.490298,89.4510023 115.332712,97.3083583 115.332712,107 C115.332712,116.691642 107.490298,124.547572 97.8153318,124.547572 C88.1403655,124.547572 80.2965289,116.691642 80.2965289,107" id="Fill-292" fill="#FFFFFF"></path>
                <path d="M0.668710904,107 C0.668710904,97.3083583 8.51112474,89.4510023 18.186091,89.4510023 C27.8610573,89.4510023 35.7048939,97.3083583 35.7048939,107 C35.7048939,116.691642 27.8610573,124.547572 18.186091,124.547572 C8.51112474,124.547572 0.668710904,116.691642 0.668710904,107" id="Fill-294" fill="#FFFFFF"></path>
                <path d="M40.4826199,62.6094306 C40.4826199,52.9177889 48.3264565,45.0604329 58.0014228,45.0604329 C67.6763891,45.0604329 75.5188029,52.9177889 75.5188029,62.6094306 C75.5188029,72.3010723 67.6763891,80.1584282 58.0014228,80.1584282 C48.3264565,80.1584282 40.4826199,72.3010723 40.4826199,62.6094306" id="Fill-296" fill="#FFFFFF"></path>
                <path d="M40.2777383,196.312754 C40.2777383,186.544149 48.2126334,178.625508 58,178.625508 C67.7873666,178.625508 75.7222617,186.544149 75.7222617,196.312754 C75.7222617,206.081359 67.7873666,214 58,214 C48.2126334,214 40.2777383,206.081359 40.2777383,196.312754 Z M80.5554765,151.568725 C80.5554765,141.80012 88.4903716,133.881479 98.2777383,133.881479 C108.065105,133.881479 116,141.80012 116,151.568725 C116,161.337329 108.065105,169.255971 98.2777383,169.255971 C88.4903716,169.255971 80.5554765,161.337329 80.5554765,151.568725 Z M0,151.568725 C0,141.80012 7.93489513,133.881479 17.7222617,133.881479 C27.5096284,133.881479 35.4445235,141.80012 35.4445235,151.568725 C35.4445235,161.337329 27.5096284,169.255971 17.7222617,169.255971 C7.93489513,169.255971 0,161.337329 0,151.568725 Z M40.2777383,106.824695 C40.2777383,97.0560906 48.2126334,89.136024 58,89.136024 C67.7873666,89.136024 75.7222617,97.0560906 75.7222617,106.824695 C75.7222617,116.5933 67.7873666,124.511941 58,124.511941 C48.2126334,124.511941 40.2777383,116.5933 40.2777383,106.824695 Z M80.5554765,62.080666 C80.5554765,52.3120613 88.4903716,44.3919947 98.2777383,44.3919947 C108.065105,44.3919947 116,52.3120613 116,62.080666 C116,71.8492707 108.065105,79.7679121 98.2777383,79.7679121 C88.4903716,79.7679121 80.5554765,71.8492707 80.5554765,62.080666 Z M0,62.080666 C0,52.3120613 7.93489513,44.3919947 17.7222617,44.3919947 C27.5096284,44.3919947 35.4445235,52.3120613 35.4445235,62.080666 C35.4445235,71.8492707 27.5096284,79.7679121 17.7222617,79.7679121 C7.93489513,79.7679121 0,71.8492707 0,62.080666 Z" id="Stroke-298" stroke="#FFFFFF" stroke-width="0.701"></path>
                <path d="M80.2965289,18.2174359 C80.2965289,8.52579421 88.1403655,0.66986347 97.8153318,0.66986347 C107.490298,0.66986347 115.332712,8.52579421 115.332712,18.2174359 C115.332712,27.9090776 107.490298,35.7664336 97.8153318,35.7664336 C88.1403655,35.7664336 80.2965289,27.9090776 80.2965289,18.2174359" id="Fill-300" fill="#FFFFFF"></path>
                <path d="M39.8153318,18.2174359 C39.8153318,8.15665668 47.9579541,0 58.0014228,0 C68.0448915,0 76.1875138,8.15665668 76.1875138,18.2174359 C76.1875138,28.2782151 68.0448915,36.4348718 58.0014228,36.4348718 C47.9579541,36.4348718 39.8153318,28.2782151 39.8153318,18.2174359 Z" id="Stroke-302" stroke="#FFFFFF" stroke-width="0.701"></path>
                <path d="M0.668710904,18.2174359 C0.668710904,8.52579421 8.51112474,0.66986347 18.186091,0.66986347 C27.8610573,0.66986347 35.7048939,8.52579421 35.7048939,18.2174359 C35.7048939,27.9090776 27.8610573,35.7664336 18.186091,35.7664336 C8.51112474,35.7664336 0.668710904,27.9090776 0.668710904,18.2174359" id="Fill-304" fill="#FFFFFF"></path>
            </g>
        </g>
    </g>
</svg>