<?xml version="1.0" encoding="UTF-8"?>
<svg width="80px" height="80px" viewBox="0 0 80 80" version="1.1" xmlns="http://www.w3.org/2000/svg" xmlns:xlink="http://www.w3.org/1999/xlink">
    <title>Icon/done</title>
    <g id="Icon/done" stroke="none" stroke-width="1" fill="none" fill-rule="evenodd">
        <polygon id="Rectangle" points="0 0 80 0 80 80 41.1415764 80 0 80"></polygon>
        <circle id="Oval" fill="#2CBAD8" cx="40" cy="40" r="16"></circle>
        <g id="confirmation" transform="translate(8.000000, 8.000000)" fill="#000000" fill-rule="nonzero">
            <path d="M46.1984263,24.7531206 C45.1310298,23.7489598 43.3958262,23.7489598 42.3284297,24.7531206 L30.5788573,35.7911748 L25.6715703,31.1818068 C24.6041738,30.177646 22.8689702,30.177646 21.8015737,31.1818068 C20.7328088,32.1859676 20.7328088,33.813711 21.8015737,34.8178717 L28.643859,41.246558 C29.1775573,41.7492812 29.8782073,42 30.5788573,42 C31.2795074,42 31.9801574,41.7492812 32.5138556,41.246558 L46.1984263,28.3891855 C47.2671912,27.3850247 47.2671912,25.7572814 46.1984263,24.7531206 Z" id="Path"></path>
            <path d="M61.3333333,29.3333333 C59.8613333,29.3333333 58.6666667,30.528 58.6666667,32 C58.6666667,46.704 46.704,58.6666667 32,58.6666667 C17.296,58.6666667 5.33333333,46.704 5.33333333,32 C5.33333333,17.296 17.296,5.33333333 32,5.33333333 C39.1586667,5.33333333 45.8786667,8.13066667 50.924,13.2106667 C51.96,14.2573333 53.6493333,14.2626667 54.6946667,13.224 C55.74,12.1866667 55.7453333,10.4986667 54.708,9.45333333 C48.6546667,3.35733333 40.5893333,0 32,0 C14.3546667,0 0,14.3546667 0,32 C0,49.6453333 14.3546667,64 32,64 C49.6453333,64 64,49.6453333 64,32 C64,30.528 62.8053333,29.3333333 61.3333333,29.3333333 Z" id="Path"></path>
        </g>
    </g>
</svg>