<?xml version="1.0" encoding="UTF-8"?>
<svg width="80px" height="80px" viewBox="0 0 80 80" version="1.1" xmlns="http://www.w3.org/2000/svg" xmlns:xlink="http://www.w3.org/1999/xlink">
    <title>Icon/email</title>
    <defs>
        <filter color-interpolation-filters="auto" id="filter-1">
            <feColorMatrix in="SourceGraphic" type="matrix" values="0 0 0 0 0.047059 0 0 0 0 0.105882 0 0 0 0 0.168627 0 0 0 1.000000 0"></feColorMatrix>
        </filter>
    </defs>
    <g id="Icon/email" stroke="none" stroke-width="1" fill="none" fill-rule="evenodd">
        <polygon id="Rectangle" points="0 0 80 0 80 80 41.1415764 80 0 80"></polygon>
        <rect id="Rectangle" fill="#2CBAD8" x="19" y="7" width="43" height="48" rx="4"></rect>
        <g filter="url(#filter-1)" id="vote">
            <g transform="translate(6.000000, 6.000000)">
                <path d="M67.3193359,28.0312441 L57.7138047,19.6292535 L57.7138047,12.2612091 C57.7138047,11.1609895 56.8218359,10.2690201 55.7216172,10.2690201 L47.0129687,10.2690201 L35.8362656,0.492684812 C35.0946406,-0.156104727 33.9899063,-0.165135983 33.2375234,0.471567609 L21.8742188,10.09052 C21.8082109,10.1464341 21.7483125,10.206731 21.6914688,10.2688873 L12.27825,10.2688873 C11.1780312,10.2688873 10.2860625,11.1608567 10.2860625,12.2610763 L10.2860625,19.8997928 L0.70496875,28.0101269 C0.257921875,28.3887756 0,28.944862 0,29.5306983 L0,66.007811 C0,67.1080306 0.89196875,68 1.9921875,68 L66.0078125,68 C67.1080312,68 68,67.1080306 68,66.007811 L68,29.5308311 C68,28.956151 67.7519063,28.4096272 67.3193359,28.0312441 Z M64.015625,61.8740189 L47.5843281,48.7862671 L64.015625,34.0028969 L64.015625,61.8740189 Z M3.984375,33.8504281 L21.3728516,48.6922358 L3.984375,61.9784096 L3.984375,33.8504281 Z M34.639625,43.5695211 L60.3090937,64.0156221 L7.88082813,64.0156221 L34.639625,43.5695211 Z M63.0059844,29.5518155 L57.7139375,34.3131471 L57.7139375,24.9228981 L63.0059844,29.5518155 Z M34.5033594,4.62023472 L40.9612344,10.2688873 L27.8303281,10.2688873 L34.5033594,4.62023472 Z M53.7295625,14.253398 L53.7295625,37.8329466 C53.7295625,37.853931 53.7320859,37.8741185 53.73275,37.8949701 L44.4247187,46.2696012 L35.9063906,39.4847369 C35.1919922,38.9156349 34.1816875,38.9054083 33.4557344,39.4600337 L24.6113516,46.2179371 L14.2705703,37.3917432 L14.2705703,14.253398 L53.7295625,14.253398 Z M10.2860625,33.9906782 L5.068125,29.5370733 L10.2860625,25.1201248 L10.2860625,33.9906782 Z" id="Shape" fill="#000000" fill-rule="nonzero"></path>
                <path d="M31.1989915,33.4114168 C32.0070088,34.1961944 33.3157596,34.1961944 34.1236389,33.4114168 L44.3926065,23.4380165 C45.2015898,22.6524336 45.2025556,21.3776229 44.3949522,20.590832 C43.5873488,19.8039069 42.2768043,19.8029673 41.4679591,20.5885503 L32.6613152,29.1416466 L28.5320927,25.1314558 C27.7232475,24.3457386 26.412703,24.3468124 25.6050996,25.1337375 C24.7973582,25.9205284 24.798462,27.1953391 25.6074452,27.980922 L31.1989915,33.4114168 Z" id="Path" fill="#000000" fill-rule="nonzero"></path>
            </g>
        </g>
    </g>
</svg>