<?xml version="1.0" encoding="UTF-8"?>
<svg width="80px" height="80px" viewBox="0 0 80 80" version="1.1" xmlns="http://www.w3.org/2000/svg" xmlns:xlink="http://www.w3.org/1999/xlink">
    <title>Icon/phone</title>
    <defs>
        <filter color-interpolation-filters="auto" id="filter-1">
            <feColorMatrix in="SourceGraphic" type="matrix" values="0 0 0 0 0.047059 0 0 0 0 0.105882 0 0 0 0 0.168627 0 0 0 1.000000 0"></feColorMatrix>
        </filter>
    </defs>
    <g id="Icon/phone" stroke="none" stroke-width="1" fill="none" fill-rule="evenodd">
        <polygon id="Rectangle" points="0 0 80 0 80 80 41.1415764 80 0 80"></polygon>
        <g id="Group" transform="translate(17.000000, 6.000000)">
            <ellipse id="Oval" fill="#2CBAD8" transform="translate(29.500000, 44.000000) rotate(54.000000) translate(-29.500000, -44.000000) " cx="29.5" cy="44" rx="17.5" ry="16"></ellipse>
            <g filter="url(#filter-1)" id="smartphone-(1)">
                <g>
                    <path d="M36.3409274,0 L6.65907257,0 C2.98742862,0 0,2.92758022 0,6.52612788 L0,61.4738721 C0,65.072287 2.9872931,68 6.65907257,68 L36.3409274,68 C40.0125714,68 43,65.0725526 43,61.4738721 L43,6.52612788 C43,2.92758022 40.0125714,0 36.3409274,0 Z M4.49057738,13.035707 L38.5094226,13.035707 L38.5094226,51.035707 L4.49057738,51.035707 L4.49057738,13.035707 Z M36.2581018,63 L7.74176796,63 C5.67845764,63 4,61.5756345 4,59.8250338 L4,55 L40,55 L40,59.8250338 L40,59.8250338 C40,61.5756345 38.3214122,63 36.2581018,63 Z M40.2356291,8.39838203 L2.7643709,8.39838203 L2.7643709,6.52612788 C2.7643709,4.42158511 4.51156605,2.7092369 6.65907257,2.7092369 L36.3409274,2.7092369 C38.4885695,2.7092369 40.2356291,4.42158511 40.2356291,6.52612788 L40.2356291,8.39838203 Z" id="Shape" fill="#000000" fill-rule="nonzero"></path>
                    <path d="M21.9964279,3.5 L20.0035721,3.5 C19.0812479,3.5 18.3333333,4.395578 18.3333333,5.5 C18.3333333,6.604422 19.0812479,7.5 20.0035721,7.5 L21.9964279,7.5 C22.9187521,7.5 23.6666667,6.604422 23.6666667,5.5 C23.6666667,4.3957741 22.9189159,3.5 21.9964279,3.5 Z" id="Path" fill="#000000" fill-rule="nonzero"></path>
                    <path d="M21,56 C19.3458314,56 18,57.3458314 18,59 C18,60.6541686 19.3458314,62 21,62 C22.6541686,62 24,60.6541686 24,59 C24,57.3458314 22.6541686,56 21,56 Z M21,60 C20.4485238,60 20,59.5514762 20,59 C20,58.4485238 20.4485238,58 21,58 C21.5514762,58 22,58.4485238 22,59 C22,59.5514762 21.5514762,60 21,60 Z" id="Shape" fill="#000000" fill-rule="nonzero"></path>
                    <path d="M8.84615385,22.3846154 C7.82668738,22.3846154 7,23.1243663 7,24.0366231 L7,45.3479923 C7,46.2602491 7.82668738,47 8.84615385,47 C9.86562031,47 10.6923077,46.2602491 10.6923077,45.3479923 L10.6923077,24.0366231 C10.6923077,23.1243663 9.86562031,22.3846154 8.84615385,22.3846154 Z" id="Path" fill="#000000" fill-rule="nonzero"></path>
                    <path d="M8.84615385,15 C7.82668738,15 7,15.615205 7,16.3738725 L7,17.3184352 C7,18.0771027 7.82668738,18.6923077 8.84615385,18.6923077 C9.86562031,18.6923077 10.6923077,18.0771027 10.6923077,17.3184352 L10.6923077,16.3738725 C10.6923077,15.6153397 9.86562031,15 8.84615385,15 Z" id="Path" fill="#000000" fill-rule="nonzero"></path>
                </g>
            </g>
        </g>
    </g>
</svg>