<?xml version="1.0" encoding="UTF-8"?>
<svg width="80px" height="80px" viewBox="0 0 80 80" version="1.1" xmlns="http://www.w3.org/2000/svg" xmlns:xlink="http://www.w3.org/1999/xlink">
    <title>Icon/safe</title>
    <defs>
        <filter color-interpolation-filters="auto" id="filter-1">
            <feColorMatrix in="SourceGraphic" type="matrix" values="0 0 0 0 0.047059 0 0 0 0 0.105882 0 0 0 0 0.168627 0 0 0 1.000000 0"></feColorMatrix>
        </filter>
    </defs>
    <g id="Icon/safe" stroke="none" stroke-width="1" fill="none" fill-rule="evenodd">
        <rect id="Rectangle" x="0" y="0" width="80" height="80"></rect>
        <g id="Group-2" transform="translate(8.000000, 6.000000)">
            <rect id="Rectangle" fill="#FDC508" x="10" y="28" width="54" height="38" rx="9"></rect>
            <g filter="url(#filter-1)" id="password">
                <g>
                    <circle id="Oval" fill="#000000" fill-rule="nonzero" cx="44.5" cy="45.5" r="2.5"></circle>
                    <path d="M56.3660714,48.078125 C57.8207902,48.078125 59,46.8889219 59,45.421875 L59,35.59375 C59,29.735125 54.2736786,24.96875 48.4642857,24.96875 L45.2986987,24.96875 L45.2986987,15.6009531 C45.2986987,6.99855469 38.2092165,0 29.4951272,0 C20.7810379,0 13.6915558,6.99855469 13.6915558,15.6009531 L13.6915558,24.96875 L10.5357143,24.96875 C4.72632143,24.96875 0,29.735125 0,35.59375 L0,57.375 C0,63.233625 4.72632143,68 10.5357143,68 L48.4642857,68 C54.2736786,68 59,63.233625 59,57.375 C59,55.9079531 57.8207902,54.71875 56.3660714,54.71875 C54.9113527,54.71875 53.7321429,55.9079531 53.7321429,57.375 C53.7321429,60.3043125 51.3689821,62.6875 48.4642857,62.6875 L10.5357143,62.6875 C7.63101786,62.6875 5.26785714,60.3043125 5.26785714,57.375 L5.26785714,35.59375 C5.26785714,32.6644375 7.63101786,30.28125 10.5357143,30.28125 L48.4642857,30.28125 C51.3689821,30.28125 53.7321429,32.6644375 53.7321429,35.59375 L53.7321429,45.421875 C53.7321429,46.8889219 54.9113527,48.078125 56.3660714,48.078125 Z M40.0308415,24.96875 L18.9594129,24.96875 L18.9594129,15.6009531 C18.9594129,9.92786719 23.6857344,5.3125 29.4951272,5.3125 C35.3045201,5.3125 40.0308415,9.92786719 40.0308415,15.6009531 L40.0308415,24.96875 Z" id="Shape" fill="#000000" fill-rule="nonzero"></path>
                    <circle id="Oval" fill="#000000" fill-rule="nonzero" cx="25.5" cy="45.5" r="2.5"></circle>
                    <circle id="Oval" fill="#000000" fill-rule="nonzero" cx="15.5" cy="45.5" r="2.5"></circle>
                    <circle id="Oval" fill="#000000" fill-rule="nonzero" cx="35.5" cy="45.5" r="2.5"></circle>
                </g>
            </g>
        </g>
    </g>
</svg>