<?xml version="1.0" encoding="UTF-8"?>
<svg width="80px" height="80px" viewBox="0 0 80 80" version="1.1" xmlns="http://www.w3.org/2000/svg" xmlns:xlink="http://www.w3.org/1999/xlink">
    <title>Icon/timeout</title>
    <defs>
        <filter color-interpolation-filters="auto" id="filter-1">
            <feColorMatrix in="SourceGraphic" type="matrix" values="0 0 0 0 0.047059 0 0 0 0 0.105882 0 0 0 0 0.168627 0 0 0 1.000000 0"></feColorMatrix>
        </filter>
    </defs>
    <g id="Icon/timeout" stroke="none" stroke-width="1" fill="none" fill-rule="evenodd">
        <polygon id="Rectangle" points="0 0 80 0 80 80 41.1415764 80 0 80"></polygon>
        <ellipse id="Oval" fill="#E73642" cx="47" cy="49" rx="21" ry="19"></ellipse>
        <g filter="url(#filter-1)" id="stopwatch">
            <g transform="translate(12.000000, 10.000000)">
                <path d="M43.8389064,6.14600101 L50.1731368,11.4558482 C50.6092523,11.8215473 51.1390294,12 51.6658905,12 C52.3341188,12 52.9973316,11.7129749 53.4587579,11.1568637 C54.2838664,10.162242 54.150664,8.68349993 53.1610936,7.85408179 L46.8268632,2.54411732 C45.8376427,1.71469918 44.3664673,1.84848008 43.5412421,2.84321905 C42.7161336,3.83784078 42.849336,5.31646562 43.8389064,6.14600101 Z" id="Path" fill="#000000" fill-rule="nonzero"></path>
                <path d="M3.33420426,12 C3.86095236,12 4.39084975,11.8215438 4.82696825,11.4558377 L11.1611258,6.14600487 C12.1505864,5.31657066 12.2839064,3.83779993 11.4587922,2.84315894 C10.6337945,1.8486352 9.16260901,1.7146172 8.17314839,2.54405141 L1.83887417,7.85400149 C0.849413557,8.68343569 0.716093566,10.1622064 1.54120784,11.1568474 C2.00275395,11.7129693 2.66597133,12 3.33420426,12 Z" id="Path" fill="#000000" fill-rule="nonzero"></path>
                <path d="M47.7989661,12.7878516 C43.0738475,8.12074219 36.9569153,5.32898437 30.3728814,4.78675781 L30.3728814,2.34375 C30.3728814,1.04929688 29.3105424,0 28,0 C26.6894576,0 25.6271186,1.04929688 25.6271186,2.34375 L25.6271186,4.78675781 C19.0430847,5.32898438 12.9261525,8.120625 8.2010339,12.7877344 C2.91247458,18.0113672 0,24.9564844 0,32.34375 C0,39.7310156 2.91247458,46.6761328 8.2010339,51.8996484 C13.4894746,57.1232812 20.5209153,60 28,60 C34.021661,60 39.7597627,58.1403516 44.5940339,54.6217969 C45.6491356,53.8539844 45.8740847,52.3867969 45.0967288,51.3446484 C44.3192542,50.3023828 42.8337119,50.0803125 41.7787288,50.848125 C37.7659492,53.7687891 33.001322,55.3125 28,55.3125 C15.1775424,55.3125 4.74576271,45.0087891 4.74576271,32.34375 C4.74576271,19.6787109 15.1775424,9.375 28,9.375 C40.8224576,9.375 51.2542373,19.6787109 51.2542373,32.34375 C51.2542373,36.2121094 50.2630847,40.0357031 48.387678,43.4010938 C47.7557797,44.5351172 48.1742373,45.9603516 49.3223559,46.5844922 C50.4701186,47.2083984 51.9133051,46.7954297 52.545322,45.6612891 C54.8053729,41.6053125 56,37.0001953 56,32.34375 C56,24.9564844 53.0875254,18.0113672 47.7989661,12.7878516 Z" id="Path" fill="#000000" fill-rule="nonzero"></path>
                <path d="M35.1292669,18.5132851 C34.1218479,17.7126118 32.6438149,17.8653241 31.8281623,18.8550149 L24.4273175,27.8362258 C24.1883723,27.7992291 23.9436765,27.7796359 23.6944037,27.7796359 C21.1059095,27.7796359 19,29.8477635 19,32.3898179 C19,34.9318723 21.1059095,37 23.6944037,37 C26.2828979,37 28.3888074,34.9318723 28.3888074,32.3898179 C28.3888074,31.8075519 28.2771979,31.2506419 28.0756907,30.7372982 L35.4772396,21.7551652 C36.2927749,20.7654743 36.1370381,19.3139585 35.1292669,18.5132851 Z" id="Path" fill="#000000" fill-rule="nonzero" transform="translate(27.500000, 27.500000) rotate(-39.000000) translate(-27.500000, -27.500000) "></path>
            </g>
        </g>
    </g>
</svg>