<svg width="48" height="48" viewBox="0 0 48 48" fill="none" xmlns="http://www.w3.org/2000/svg">
<path d="M6.51472 39.6853C11.201 44.3716 18.799 44.3716 23.4853 39.6853C28.1716 34.999 28.1716 27.401 23.4853 22.7147C18.799 18.0284 11.201 18.0284 6.51472 22.7147C1.82843 27.401 1.82843 34.999 6.51472 39.6853Z" fill="#00F6B4"/>
<path d="M42.3853 29.5826L42.267 29.5144C41.7072 29.1911 41.1059 29.0086 40.5014 28.9471C40.6815 27.2566 39.8788 25.5375 38.3141 24.6341L38.1959 24.5658C37.636 24.2426 37.0348 24.06 36.4303 23.9985C36.6103 22.3081 35.8076 20.5889 34.243 19.6855L34.1247 19.6173C33.6902 19.3664 33.2306 19.2024 32.7637 19.1112L36.6026 12.4621C37.9004 10.2141 37.2309 7.47974 35.0791 6.23737L34.9608 6.16912C32.8447 4.94737 30.1291 5.67447 28.907 7.79125L22.2725 19.2825L21.7827 17.4548C21.1506 15.0937 18.7152 13.6884 16.3523 14.3221L16.2238 14.3571C15.0802 14.6624 14.1242 15.3957 13.5321 16.4213C12.9403 17.4462 12.7833 18.6407 13.0897 19.7841L13.9426 22.9673C14.5987 25.4159 14.7083 26.3841 13.494 28.4873C10.8431 33.0787 13.2656 38.7529 19.3841 42.2854L24.5802 45.2854C34.9725 51.2854 40.9665 40.9035 43.2233 36.9947L44.0074 35.6365C45.2295 33.5197 44.5014 30.8044 42.3853 29.5826ZM40.6252 35.4947C37.1189 41.5677 32.93 46.6421 26.0802 42.6873L20.8841 39.6873C16.2952 37.0379 14.3243 33.0491 16.0921 29.9873C17.8996 26.8566 17.5807 24.9534 16.8406 22.1913L15.9877 19.0081C15.8882 18.6389 15.9396 18.2529 16.1308 17.9217C16.3224 17.5898 16.6307 17.3529 17.0036 17.253L17.132 17.218C17.8949 17.0141 18.6815 17.4683 18.8857 18.2305L20.2939 23.4879C20.4035 23.8967 20.6727 24.2193 21.0158 24.4096C21.023 24.4137 21.029 24.4198 21.0361 24.4239C21.7532 24.8379 22.6712 24.592 23.0852 23.8749L31.505 9.29125C31.8999 8.60731 32.7769 8.37232 33.4608 8.7672L33.5791 8.83545C34.2974 9.2502 34.4766 10.1443 34.0045 10.9621L28.0709 21.2394C27.6569 21.9565 27.9028 22.8745 28.6199 23.2885C29.337 23.7025 30.2549 23.4565 30.6689 22.7394C31.0638 22.0555 31.9408 21.8205 32.6247 22.2154L32.743 22.2836C33.4269 22.6785 33.6619 23.5555 33.267 24.2394L32.4829 25.5976C32.4439 25.6651 32.4158 25.7363 32.3886 25.8073C32.3008 25.928 32.2185 26.0555 32.142 26.188C31.728 26.905 31.974 27.823 32.691 28.237C33.4081 28.651 34.3261 28.405 34.7401 27.688C35.135 27.004 36.0119 26.769 36.6959 27.1639L36.8141 27.2322C37.4981 27.627 37.733 28.504 37.3382 29.188L36.554 30.5461C36.515 30.6137 36.4869 30.6849 36.4598 30.7558C36.3719 30.8766 36.2897 31.004 36.2132 31.1365C35.7992 31.8536 36.0451 32.7716 36.7622 33.1856C37.4793 33.5996 38.3972 33.3536 38.8112 32.6365C39.2061 31.9526 40.0831 31.7176 40.767 32.1125L40.8853 32.1807C41.5692 32.5756 41.8042 33.4526 41.4093 34.1365L40.6252 35.4947ZM24.7425 9.00429C25.4596 9.41829 26.3775 9.17233 26.7915 8.45526L28.2915 5.85718C28.7055 5.14011 28.4596 4.22214 27.7425 3.80814C27.0254 3.39414 26.1075 3.64011 25.6935 4.35718L24.1935 6.95526C23.7795 7.67233 24.0254 8.59029 24.7425 9.00429ZM19.3849 7.09841C19.4916 7.49862 19.751 7.81728 20.0836 8.00928C20.4161 8.20128 20.8218 8.26662 21.2218 8.15891C22.0219 7.94451 22.4967 7.12222 22.2823 6.32207L21.2078 2.3121C20.994 1.51233 20.1704 1.03683 19.3709 1.2516C18.5708 1.466 18.096 2.28829 18.3104 3.08844L19.3849 7.09841ZM18.6115 10.6235C19.0255 9.90641 18.7795 8.98844 18.0625 8.57444L15.4644 7.07444C14.7473 6.66044 13.8294 6.90641 13.4154 7.62348C13.0014 8.34055 13.2473 9.25852 13.9644 9.67252L16.5625 11.1725C17.2795 11.5865 18.1971 11.3412 18.6115 10.6235Z" fill="#000927"/>
</svg>
