<svg width="48" height="48" viewBox="0 0 48 48" fill="none" xmlns="http://www.w3.org/2000/svg">
<g clip-path="url(#clip0_2933_17379)">
<path d="M15 45C21.6274 45 27 39.6274 27 33C27 26.3726 21.6274 21 15 21C8.37258 21 3 26.3726 3 33C3 39.6274 8.37258 45 15 45Z" fill="#00F6B4"/>
<path d="M40.1828 16.1265L40.266 16.0433C40.2713 16.038 40.2743 16.032 40.2795 16.0267C42.5573 13.7317 42.5527 10.0125 40.2645 7.7235C39.1538 6.612 37.6763 6 36.105 6C34.533 6 33.0562 6.61125 31.9447 7.7235C31.9447 7.7235 31.9447 7.7235 31.9447 7.72425C31.9447 7.725 31.9447 7.72425 31.944 7.72425L31.8585 7.80975C29.4825 6.65175 26.8162 6 24 6C14.0745 6 6 14.0753 6 24C6 33.9247 14.0753 42 24 42C33.9247 42 42 33.9247 42 24C42 21.1777 41.3452 18.5063 40.1828 16.1265ZM33.4928 12.3975L20.6947 25.1963C20.109 25.782 20.109 26.7315 20.6947 27.3172C20.988 27.6105 21.3713 27.7567 21.7552 27.7567C22.1392 27.7567 22.5225 27.6105 22.8158 27.3172L35.613 14.52C35.9048 14.877 36.1823 15.2452 36.441 15.6285L22.0897 30H18.0112V25.9215L32.3602 11.553C32.7517 11.817 33.129 12.099 33.4928 12.3975ZM38.1435 9.8445C39.111 10.812 39.2407 12.2985 38.5433 13.4115C38.064 12.7552 37.5405 12.1328 36.9788 11.5478C36.9165 11.4443 36.846 11.3445 36.756 11.2552C36.6667 11.166 36.5677 11.0955 36.465 11.0333C35.8732 10.4648 35.2447 9.93525 34.5802 9.45075C35.6835 8.78325 37.209 8.91 38.1435 9.8445ZM24 39C15.729 39 9 32.271 9 24C9 15.729 15.729 9 24 9C25.974 9 27.855 9.393 29.583 10.089L15.45 24.2407C15.1688 24.522 15.0112 24.903 15.0112 25.3005V31.5C15.0112 32.328 15.6832 33 16.5112 33H22.7115C23.1097 33 23.4915 32.8417 23.7728 32.5597L37.9065 18.4058C38.6055 20.1368 39 22.0222 39 24C39 32.2717 32.271 39 24 39Z" fill="#000927"/>
</g>
<defs>
<clipPath id="clip0_2933_17379">
<rect width="48" height="48" fill="white"/>
</clipPath>
</defs>
</svg>
