<svg width="48" height="48" viewBox="0 0 48 48" fill="none" xmlns="http://www.w3.org/2000/svg">
<g clip-path="url(#clip0_2933_17376)">
<path d="M24 27C30.6274 27 36 21.6274 36 15C36 8.37258 30.6274 3 24 3C17.3726 3 12 8.37258 12 15C12 21.6274 17.3726 27 24 27Z" fill="#00F6B4"/>
<path d="M25.0605 13.9395C25.0388 13.9178 25.0125 13.902 24.99 13.8818C24.9637 13.8585 24.9368 13.8367 24.909 13.8157C24.807 13.7377 24.6997 13.6695 24.585 13.6207C24.5812 13.6192 24.5782 13.6163 24.5745 13.614C24.5737 13.6133 24.5723 13.614 24.5715 13.6132C24.4485 13.5622 24.3195 13.5345 24.189 13.518C24.1567 13.5143 24.1252 13.5105 24.093 13.509C23.9655 13.5007 23.8372 13.5037 23.7113 13.5285C23.7038 13.53 23.697 13.533 23.6895 13.5345C23.571 13.5592 23.4563 13.6035 23.3453 13.6575C23.3153 13.6717 23.2867 13.6867 23.2582 13.7032C23.145 13.7677 23.0363 13.8428 22.9395 13.9395L18.4395 18.4395C17.8538 19.0253 17.8538 19.9747 18.4395 20.5605C19.0253 21.1462 19.9747 21.1462 20.5605 20.5605L22.5 18.6217V33C22.5 33.828 23.172 34.5 24 34.5C24.828 34.5 25.5 33.828 25.5 33V18.621L27.4395 20.5605C27.7327 20.8537 28.116 21 28.5 21C28.884 21 29.2673 20.8537 29.5605 20.5605C30.1463 19.9747 30.1463 19.0253 29.5605 18.4395L25.0605 13.9395ZM24 6C14.0753 6 6 14.0745 6 24C6 33.9255 14.0753 42 24 42C33.9247 42 42 33.9255 42 24C42 14.0745 33.9247 6 24 6ZM24 39C15.729 39 9 32.271 9 24C9 15.729 15.729 9 24 9C32.271 9 39 15.729 39 24C39 32.271 32.271 39 24 39Z" fill="#000927"/>
</g>
<defs>
<clipPath id="clip0_2933_17376">
<rect width="48" height="48" fill="white"/>
</clipPath>
</defs>
</svg>
