<svg width="320" height="64" xmlns="http://www.w3.org/2000/svg" xmlns:xlink="http://www.w3.org/1999/xlink">
    <defs>
        <path id="a" d="M0 0h320v64H0z"/>
    </defs>
    <g fill="none" fill-rule="evenodd">
        <mask id="b" fill="#fff">
            <use xlink:href="#a"/>
        </mask>
        <g mask="url(#b)">
            <path d="M-50.5 6c0 31.756 25.967 57.5 58 57.5 32.032 0 58-25.744 58-57.5s-25.968-57.5-58-57.5c-32.033 0-58 25.744-58 57.5m92.31 0c0 18.785-15.362 34.014-34.31 34.014-18.949 0-34.31-15.229-34.31-34.014 0-18.785 15.361-34.014 34.31-34.014 18.948 0 34.31 15.229 34.31 34.014" fill="#E73743"/>
            <path d="M7-9c8.284 0 15 6.715 15 15S15.284 21 7 21C-1.284 21-8 14.285-8 6S-1.284-9 7-9" fill="#FDC608"/>
            <path fill="#2CBAD8" d="M286.724 31.207V-7.386h-38.75zM326.099 38.207V-.386h-38.75z"/>
        </g>
    </g>
</svg>
