<svg width="32" height="32" viewBox="0 0 32 32" xmlns="http://www.w3.org/2000/svg">
    <defs>
        <filter color-interpolation-filters="auto" id="a">
            <feColorMatrix in="SourceGraphic" values="0 0 0 0 1.000000 0 0 0 0 1.000000 0 0 0 0 1.000000 0 0 0 1.000000 0"/>
        </filter>
    </defs>
    <g fill="none" fill-rule="evenodd">
        <rect fill="#FDC508" width="32" height="32" rx="8"/>
        <g filter="url(#a)">
            <path d="M5 6h21v21H5z"/>
            <path d="M8.465 15.957c.245-1.286 1.453-2.17 2.765-2.17h2.564a.837.837 0 0 0 .831-.83.837.837 0 0 0-.831-.832h-2.477c-2.283 0-4.322 1.671-4.54 3.946a4.37 4.37 0 0 0 4.348 4.804h2.669a.837.837 0 0 0 .831-.831.837.837 0 0 0-.831-.832h-2.669a2.72 2.72 0 0 1-2.66-3.255zm4.41 1.418h5.25A.878.878 0 0 0 19 16.5a.878.878 0 0 0-.875-.875h-5.25A.878.878 0 0 0 12 16.5c0 .481.394.875.875.875zm6.807-5.25h-2.476a.837.837 0 0 0-.831.831c0 .455.376.832.831.832h2.564c1.313 0 2.52.883 2.765 2.17a2.72 2.72 0 0 1-2.66 3.254h-2.669a.837.837 0 0 0-.831.832c0 .455.376.831.831.831h2.669a4.382 4.382 0 0 0 4.358-4.804c-.22-2.275-2.267-3.946-4.55-3.946z" fill="#000" fill-rule="nonzero"/>
        </g>
    </g>
</svg>
