<?xml version="1.0" encoding="UTF-8"?>
<!DOCTYPE svg PUBLIC "-//W3C//DTD SVG 1.1//EN" "http://www.w3.org/Graphics/SVG/1.1/DTD/svg11.dtd">
<!-- Creator: CorelDRAW 2021 (64-Bit Versión de evaluación) -->
<svg xmlns="http://www.w3.org/2000/svg" xml:space="preserve" width="68.7051mm" height="22.5762mm" version="1.1" style="shape-rendering:geometricPrecision; text-rendering:geometricPrecision; image-rendering:optimizeQuality; fill-rule:evenodd; clip-rule:evenodd"
viewBox="0 0 11885.48 3905.52"
 xmlns:xlink="http://www.w3.org/1999/xlink"
 xmlns:xodm="http://www.corel.com/coreldraw/odm/2003">
 <defs>
  <style type="text/css">
   <![CDATA[
    .fil0 {fill:#0C1B2B}
    .fil1 {fill:#2CBAD8}
    .fil3 {fill:#E73642}
    .fil4 {fill:#FDC508}
    .fil2 {fill:#FDFDFD}
   ]]>
  </style>
 </defs>
 <g id="Capa_x0020_1">
  <metadata id="CorelCorpID_0Corel-Layer"/>
  <path class="fil0" d="M5280.46 3589.65l12.07 235.43 794.87 3.04c59.42,-213.99 25.59,-2367.65 14.24,-2743.75l-813.39 1.42 -4.74 234.77c-199.22,-129.69 -276.68,-260.86 -636.47,-301.94 -808.4,-92.33 -1469.43,551.4 -1476.04,1423.68 -6.59,870.6 643.1,1530.83 1451.46,1451.75 376.1,-36.8 453.73,-168.44 658.01,-304.4z"/>
  <path class="fil0" d="M10376.09 3322.31l-639.83 -358.25c-231.72,139.9 -308.48,242.85 -691.09,193.11 -218.9,-28.44 -476.32,-178.44 -476.99,-372.52l1928.06 -1.18c280.13,-1960.89 -2092.61,-2355.43 -2709.59,-915.51 -143.79,335.55 -148.98,797.19 -16.54,1138.6 507.89,1309.19 2384.46,965.78 2605.98,315.75z"/>
  <path class="fil0" d="M2110.37 1320.78c-193.11,-122.77 -265.44,-243.73 -592.74,-294.21 -281.08,-43.33 -548.3,7.96 -764.77,115.94 -1110.44,553.91 -965.77,2420.86 257.74,2725.45 236.24,58.82 611.2,59.49 788.35,-78.07 -105.96,-325.75 -135.06,-278.86 -82.92,-698.32 -1057.56,159.19 -998.08,-793.55 -754.63,-1081.01 159.48,-188.29 481.54,-308.53 796.72,-162.2 264.16,122.63 373.58,388.02 339.95,777.81 148.34,-35.46 221.1,-92.97 413.8,-90.34 200.64,2.73 254.44,60.89 416.91,100.84l0.07 -2634.49 -817.65 0.35 -0.83 1318.26z"/>
  <polygon class="fil0" points="6586.82,3812.81 6706.2,3823.97 7291.06,3822.05 7387.76,3815.98 7390.63,7.4 7291.14,0 6706.34,1.25 6586.61,6.33 "/>
  <polygon class="fil1" points="10928.69,2489.62 11028.13,2496.06 11638.33,2494.99 11728.27,2488.57 11731.92,8.86 10928.4,1.14 "/>
  <path class="fil2" d="M4499.07 1802.17c-818,172.35 -615.75,1487.5 289.68,1308.07 784.09,-155.36 610.54,-1497.72 -289.68,-1308.07z"/>
  <path class="fil3" d="M2390.92 2794.75c-726.09,173.74 -437.48,1231.05 255.01,1049.32 675.71,-177.33 426.22,-1212.33 -255.01,-1049.32z"/>
  <path class="fil4" d="M11236.9 2793.69c-717.11,163.34 -451.48,1236.12 255.34,1050.08 658.15,-173.25 433.61,-1207 -255.34,-1050.08z"/>
  <path class="fil2" d="M8545.34 2170.19l1150.06 -0.02c-95.2,-586.46 -1075.76,-575.08 -1150.06,0.02z"/>
 </g>
</svg>
