<?xml version="1.0" encoding="UTF-8"?>
<!DOCTYPE svg PUBLIC "-//W3C//DTD SVG 1.1//EN" "http://www.w3.org/Graphics/SVG/1.1/DTD/svg11.dtd">
<!-- Creator: CorelDRAW 2021 (64-Bit Versión de evaluación) -->
<svg xmlns="http://www.w3.org/2000/svg" xml:space="preserve" width="8.4666mm" height="8.4667mm" version="1.1" style="shape-rendering:geometricPrecision; text-rendering:geometricPrecision; image-rendering:optimizeQuality; fill-rule:evenodd; clip-rule:evenodd"
viewBox="0 0 1442.61 1442.63"
 xmlns:xlink="http://www.w3.org/1999/xlink"
 xmlns:xodm="http://www.corel.com/coreldraw/odm/2003">
 <defs>
  <style type="text/css">
   <![CDATA[
    .fil0 {fill:#E73642}
    .fil1 {fill:#FEFEFE;fill-rule:nonzero}
   ]]>
  </style>
 </defs>
 <g id="Capa_x0020_1">
  <metadata id="CorelCorpID_0Corel-Layer"/>
  <path class="fil0" d="M360.64 0l721.32 0c199.15,0 360.64,161.51 360.64,360.66l0 721.31c0,199.13 -161.49,360.64 -360.64,360.64l-721.32 0.02c-199.12,-0.02 -360.63,-161.53 -360.63,-360.66l-0.02 -721.31c0.02,-199.15 161.53,-360.66 360.68,-360.66z"/>
  <path class="fil1" d="M1036.88 405.75l-631.15 0c-43.77,0 -78.48,35.12 -78.48,78.89l-0.41 473.36c0,43.77 35.12,78.89 78.89,78.89l631.15 0.02c43.77,0 78.89,-35.12 78.89,-78.89l0 -473.36c0,-43.77 -35.12,-78.89 -78.89,-78.89l0 -0.02zm-39.44 552.26l-552.26 0c-21.71,-0.07 -39.34,-17.7 -39.41,-39.44l-0.03 -197.24 631.15 0 0 197.24c-0.07,21.74 -17.7,39.38 -39.44,39.44zm39.44 -394.47l-631.15 0 0 -39.44c0,-21.69 17.75,-39.44 39.44,-39.44l552.26 0c21.69,0 39.44,17.75 39.44,39.44l0 39.44z"/>
 </g>
</svg>
