<svg width="32" height="32" viewBox="0 0 32 32" xmlns="http://www.w3.org/2000/svg">
    <defs>
        <filter color-interpolation-filters="auto" id="a">
            <feColorMatrix in="SourceGraphic" values="0 0 0 0 1.000000 0 0 0 0 1.000000 0 0 0 0 1.000000 0 0 0 1.000000 0"/>
        </filter>
        <filter color-interpolation-filters="auto" id="b">
            <feColorMatrix in="SourceGraphic" values="0 0 0 0 0.172549 0 0 0 0 0.729412 0 0 0 0 0.847059 0 0 0 1.000000 0"/>
        </filter>
    </defs>
    <g fill="none" fill-rule="evenodd">
        <rect fill="#2CBAD8" width="32" height="32" rx="8"/>
        <g filter="url(#a)">
            <g transform="translate(5 6)" filter="url(#b)">
                <path d="M0 0h21v21H0z"/>
                <path d="M0 0h21v21H0z"/>
                <g fill="#000" fill-rule="nonzero">
                    <path d="M4.375 9.625h3.5c.963 0 1.75-.787 1.75-1.75v-3.5c0-.962-.787-1.75-1.75-1.75h-3.5c-.962 0-1.75.788-1.75 1.75v3.5c0 .963.788 1.75 1.75 1.75zm0-5.25h3.5v3.5h-3.5v-3.5zM4.375 18.375h3.5c.963 0 1.75-.788 1.75-1.75v-3.5c0-.963-.787-1.75-1.75-1.75h-3.5c-.962 0-1.75.787-1.75 1.75v3.5c0 .962.788 1.75 1.75 1.75zm0-5.25h3.5v3.5h-3.5v-3.5zM11.375 4.375v3.5c0 .963.787 1.75 1.75 1.75h3.5c.962 0 1.75-.787 1.75-1.75v-3.5c0-.962-.788-1.75-1.75-1.75h-3.5c-.963 0-1.75.788-1.75 1.75zm5.25 3.5h-3.5v-3.5h3.5v3.5zM18.375 17.938v-.875a.433.433 0 0 0-.438-.438h-.875a.433.433 0 0 0-.437.438v.875c0 .244.193.437.438.437h.875a.433.433 0 0 0 .437-.438zM11.375 11.813v.874c0 .245.193.438.438.438h.874a.433.433 0 0 0 .438-.438v-.874a.433.433 0 0 0-.438-.438h-.874a.433.433 0 0 0-.438.438zM14.438 13.125h-.876a.433.433 0 0 0-.437.438v.874c0 .245.193.438.438.438h.874a.433.433 0 0 0 .438-.438v-.874a.433.433 0 0 0-.438-.438zM11.375 15.313v.874c0 .245.193.438.438.438h.874a.433.433 0 0 0 .438-.438v-.875a.433.433 0 0 0-.438-.437h-.874a.433.433 0 0 0-.438.438zM13.563 18.375h.874a.433.433 0 0 0 .438-.438v-.875a.433.433 0 0 0-.438-.437h-.874a.433.433 0 0 0-.438.438v.875c0 .244.193.437.438.437zM15.313 16.625h.874a.433.433 0 0 0 .438-.438v-.875a.433.433 0 0 0-.438-.437h-.875a.433.433 0 0 0-.437.438v.874c0 .245.193.438.438.438zM16.188 11.375h-.875a.433.433 0 0 0-.438.438v.874c0 .245.193.438.438.438h.874a.433.433 0 0 0 .438-.438v-.874a.433.433 0 0 0-.438-.438zM17.063 14.875h.875a.433.433 0 0 0 .437-.438v-.874a.433.433 0 0 0-.438-.438h-.875a.433.433 0 0 0-.437.438v.874c0 .245.193.438.438.438z"/>
                </g>
            </g>
        </g>
    </g>
</svg>
