<svg width="421" height="40" viewBox="0 0 421 40" fill="none" xmlns="http://www.w3.org/2000/svg">
<path d="M186.398 0.203125H186.981V39.2839H186.398V0.203125Z" fill="#B0AFB1"/>
<path d="M304.178 0.203125H304.761V39.2839H304.178V0.203125Z" fill="#B0AFB1"/>
<path d="M14.878 29.948C15.0298 29.8922 15.1591 29.789 15.2461 29.6539C15.3331 29.5189 15.3731 29.3595 15.3599 29.2C15.3731 29.0361 15.3327 28.8724 15.2447 28.7329C15.1568 28.5933 15.0258 28.4854 14.8711 28.4248C14.5364 28.3155 14.1819 28.2784 13.8315 28.316H12.5234V28.6832C12.5234 28.6832 12.847 28.724 12.9365 28.7444V31.7909H13.9761C14.3037 31.8202 14.6337 31.7737 14.9399 31.6549C15.1047 31.5804 15.2443 31.4606 15.3419 31.3099C15.4396 31.1591 15.4913 30.9838 15.4907 30.8048C15.5097 30.6132 15.4582 30.4211 15.3457 30.2638C15.2332 30.1065 15.0672 29.9944 14.878 29.948V29.948ZM13.6732 28.7648H13.8728C14.0844 28.7324 14.3009 28.7733 14.4855 28.8804C14.5325 28.9224 14.5697 28.9739 14.5946 29.0314C14.6196 29.0889 14.6317 29.1511 14.6301 29.2136C14.6301 29.574 14.52 29.7032 14.1069 29.7508H13.8109L13.6732 29.982V28.7648ZM14.52 31.2128C14.3075 31.3194 14.0688 31.3642 13.8315 31.342H13.6938V30.1996H13.9485C14.1563 30.1708 14.368 30.2064 14.5544 30.3016C14.6167 30.357 14.6656 30.4255 14.6978 30.5019C14.7299 30.5784 14.7445 30.6609 14.7403 30.7436C14.7429 30.8304 14.7265 30.9167 14.692 30.9966C14.6575 31.0764 14.6059 31.1479 14.5406 31.206" fill="#000927"/>
<path d="M22.5752 29.2398C22.3107 29.2262 22.0481 29.2914 21.8216 29.427C21.595 29.5625 21.4149 29.7622 21.3046 30C21.1943 30.2379 21.1589 30.503 21.203 30.761C21.2471 31.019 21.3686 31.2579 21.5518 31.4469C21.7351 31.6358 21.9715 31.766 22.2306 31.8206C22.4896 31.8752 22.7593 31.8516 23.0047 31.753C23.25 31.6544 23.4597 31.4853 23.6065 31.2675C23.7534 31.0498 23.8306 30.7935 23.8282 30.5319C23.8491 30.3619 23.8316 30.1895 23.7768 30.0271C23.722 29.8647 23.6315 29.7163 23.5116 29.5927C23.3917 29.4691 23.2455 29.3733 23.0836 29.3123C22.9216 29.2512 22.748 29.2265 22.5752 29.2398V29.2398ZM22.5752 31.3887C22.348 31.3887 22.0451 31.3071 22.0451 30.5387C22.0451 29.7703 22.3274 29.6955 22.5821 29.6955C22.8368 29.6955 23.1053 29.7839 23.1053 30.5319C23.1053 31.2799 22.8368 31.3887 22.5752 31.3887" fill="#000927"/>
<path d="M25.501 31.3208L25.0122 31.382C24.909 31.382 24.8814 31.382 24.8539 31.3276C24.8458 31.2507 24.8458 31.1733 24.8539 31.0964V29.7364H25.5423V29.3079H24.8539V28.6279H24.7506L24.1448 28.6687V31.042C24.1181 31.2383 24.1673 31.4374 24.2825 31.5996C24.3461 31.6711 24.4263 31.7263 24.5162 31.7607C24.6061 31.795 24.703 31.8074 24.7988 31.7968C25.0588 31.7854 25.3149 31.7302 25.5561 31.6336L25.625 31.5996L25.501 31.3208Z" fill="#000927"/>
<path d="M17.0876 29.2401C16.8243 29.2334 16.5649 29.3045 16.3427 29.4444C16.1205 29.5843 15.9458 29.7866 15.8408 30.0253C15.7359 30.264 15.7056 30.5282 15.7537 30.7841C15.8019 31.0399 15.9264 31.2757 16.1112 31.4612C16.296 31.6467 16.5327 31.7733 16.7909 31.825C17.0492 31.8766 17.3171 31.8509 17.5604 31.751C17.8037 31.6512 18.0113 31.4818 18.1564 31.2646C18.3016 31.0475 18.3777 30.7924 18.3751 30.5322C18.3912 30.3626 18.3701 30.1916 18.3131 30.0308C18.2562 29.8701 18.1648 29.7234 18.0452 29.6007C17.9256 29.478 17.7806 29.3823 17.6201 29.3201C17.4596 29.2579 17.2873 29.2306 17.1152 29.2401H17.0876ZM17.1152 31.389C16.888 31.389 16.592 31.3074 16.592 30.539C16.592 29.7706 16.8605 29.6958 17.1221 29.6958C17.3837 29.6958 17.6453 29.7842 17.6453 30.5322C17.6453 31.2802 17.3837 31.389 17.1152 31.389" fill="#000927"/>
<path d="M20.3239 29.4436C20.1572 29.3535 19.9701 29.3067 19.78 29.3076C19.6117 29.3107 19.4459 29.348 19.2928 29.4171C19.1397 29.4863 19.0027 29.5859 18.8903 29.7097C18.7779 29.8334 18.6926 29.9788 18.6395 30.1366C18.5865 30.2944 18.567 30.4613 18.5821 30.6269C18.5821 31.3681 18.9746 31.8237 19.6148 31.8237C19.8539 31.8053 20.0873 31.743 20.3033 31.6401V31.8373C20.3033 32.2657 20.138 32.3949 19.6148 32.3949C19.3301 32.3897 19.0466 32.3579 18.768 32.2997V32.7077C19.0902 32.788 19.4203 32.8336 19.7525 32.8437C20.0349 32.8555 20.3161 32.7995 20.5718 32.6805C20.7228 32.6048 20.8455 32.4836 20.9223 32.3345C20.999 32.1854 21.0257 32.016 20.9986 31.8509V29.3348H20.3102L20.3239 29.4436ZM20.3239 31.2865C20.2157 31.3126 20.1048 31.3263 19.9935 31.3273C19.5735 31.3273 19.3463 31.0553 19.3463 30.5589C19.3463 30.0624 19.5942 29.736 20.0348 29.736C20.1242 29.73 20.2139 29.73 20.3033 29.736L20.3239 31.2865Z" fill="#000927"/>
<path d="M28.0965 29.3484H27.408V29.4436C27.2503 29.3492 27.0692 29.2997 26.8848 29.3008C26.7182 29.3055 26.5544 29.3442 26.4036 29.4143C26.2528 29.4844 26.1182 29.5845 26.0084 29.7084C25.8985 29.8322 25.8157 29.977 25.7652 30.1339C25.7146 30.2908 25.6973 30.4563 25.7144 30.62C25.7144 31.3544 26.0931 31.8237 26.7127 31.8237C26.9603 31.8 27.1975 31.7133 27.4011 31.5721V31.7965L28.3856 31.7081V31.2864H28.1034L28.0965 29.3484ZM27.408 31.3068C27.3004 31.3165 27.1921 31.3165 27.0844 31.3068C26.6507 31.3068 26.396 31.028 26.396 30.5248C26.396 30.0216 26.6576 29.6952 27.0844 29.6952C27.1714 29.6865 27.2591 29.6865 27.3461 29.6952L27.408 31.3068Z" fill="#000927"/>
<path d="M27.78 28.7228L27.6147 28.1924L27.5321 28.2264L26.4443 28.6684L26.5338 28.9812L27.78 28.7228Z" fill="#000927"/>
<path d="M21.4318 26.3567C21.2198 26.4223 20.9998 26.4589 20.7778 26.4655C20.2683 26.4655 20.165 26.0303 20.165 25.6631C20.165 25.1191 20.3716 24.8131 20.7846 24.8131C20.8989 24.8119 21.0127 24.8279 21.122 24.8607L21.48 25.0171V24.5343H21.4318C21.1789 24.4261 20.9084 24.3639 20.6332 24.3506C20.4594 24.3489 20.2873 24.3843 20.1286 24.4544C19.97 24.5246 19.8286 24.6278 19.7141 24.757C19.5997 24.8862 19.5149 25.0383 19.4655 25.2029C19.4162 25.3676 19.4035 25.5408 19.4284 25.7107C19.4091 25.8703 19.4239 26.0322 19.472 26.1859C19.52 26.3395 19.6001 26.4815 19.7072 26.6026C19.8143 26.7238 19.9459 26.8214 20.0935 26.8891C20.2412 26.9569 20.4016 26.9932 20.5643 26.9959C20.9084 26.9754 21.244 26.8827 21.5488 26.7239H21.6108L21.5075 26.3703L21.4318 26.3567Z" fill="#000927"/>
<path d="M12.9366 25.0508C13.0892 24.9968 13.219 24.8937 13.3052 24.758C13.3913 24.6223 13.4288 24.462 13.4116 24.3028C13.4211 24.1386 13.3784 23.9757 13.2895 23.8367C13.2006 23.6977 13.07 23.5896 12.9159 23.5275C12.5799 23.4249 12.2263 23.3902 11.8763 23.4255H10.582V23.7927L10.9882 23.8539V26.9004H12.0278C12.3509 26.9294 12.6764 26.8828 12.9779 26.7644C13.1505 26.6939 13.2978 26.5739 13.4009 26.42C13.5039 26.2661 13.558 26.0853 13.5562 25.9008C13.5727 25.7123 13.5218 25.524 13.4124 25.3688C13.303 25.2135 13.1419 25.101 12.9572 25.0508H12.9366ZM11.7318 23.8675H11.9314C12.1378 23.8358 12.3489 23.8742 12.5304 23.9764C12.5809 24.0202 12.6208 24.0748 12.647 24.1361C12.6732 24.1973 12.6851 24.2636 12.6818 24.33C12.6818 24.6768 12.5648 24.8128 12.1586 24.8468L11.8557 24.8876L11.7318 25.1188V23.8675ZM12.5648 26.3224C12.3508 26.4239 12.1123 26.464 11.8763 26.438H11.7593V25.3024H12.0071C12.2187 25.2738 12.4339 25.3144 12.6199 25.418C12.6789 25.4723 12.725 25.5389 12.7548 25.613C12.7846 25.6871 12.7973 25.7668 12.792 25.8464C12.7972 25.9345 12.7819 26.0225 12.7473 26.1039C12.7127 26.1852 12.6597 26.2576 12.5923 26.3156" fill="#000927"/>
<path d="M18.3754 24.3369C18.0961 24.3581 17.8232 24.4295 17.5699 24.5477C17.5699 24.4933 17.5699 24.3573 17.5699 24.3573L16.5234 24.4797V24.8469H16.8952V26.8869H17.5837C17.5837 26.8869 17.5837 25.0781 17.5837 24.9761C17.7584 24.914 17.9419 24.8796 18.1275 24.8741C18.2038 24.8723 18.2794 24.8886 18.3479 24.9217C18.4103 25.0311 18.4345 25.1578 18.4167 25.2821V26.8869H19.1052V25.2617C19.1052 24.8877 19.1052 24.7585 18.9606 24.5817C18.8911 24.4895 18.7991 24.4161 18.6931 24.3686C18.5872 24.321 18.4708 24.3007 18.3547 24.3097" fill="#000927"/>
<path d="M22.9678 24.3365C22.7943 24.3288 22.6212 24.3581 22.4602 24.4223C22.2992 24.4865 22.154 24.5841 22.0346 24.7086C21.9151 24.8331 21.8241 24.9814 21.7677 25.1437C21.7114 25.3059 21.691 25.4782 21.7079 25.6489C21.7079 25.9789 21.8407 26.2955 22.0769 26.5288C22.3132 26.7622 22.6337 26.8933 22.9678 26.8933C23.302 26.8933 23.6224 26.7622 23.8587 26.5288C24.095 26.2955 24.2277 25.9789 24.2277 25.6489C24.2483 25.4775 24.2304 25.3037 24.1754 25.1399C24.1203 24.9761 24.0295 24.8262 23.9092 24.701C23.789 24.5757 23.6423 24.4781 23.4796 24.4151C23.3169 24.3521 23.1422 24.3253 22.9678 24.3365ZM22.9678 26.4989C22.7406 26.4989 22.4446 26.4105 22.4446 25.6489C22.4446 24.8873 22.7131 24.7989 22.9678 24.7989C23.2225 24.7989 23.4979 24.8941 23.4979 25.6489C23.4979 26.4037 23.2294 26.4989 22.9678 26.4989" fill="#000927"/>
<path d="M16.1721 24.4598H15.4836V24.5686C15.3206 24.4749 15.1353 24.4257 14.9466 24.4258C14.7801 24.4297 14.6161 24.4675 14.465 24.5368C14.3139 24.6061 14.1789 24.7054 14.0684 24.8286C13.958 24.9518 13.8744 25.0961 13.8229 25.2526C13.7715 25.4091 13.7532 25.5744 13.7694 25.7382C13.7694 26.4862 14.1618 26.935 14.7745 26.935C15.0222 26.9163 15.26 26.8317 15.463 26.6902V26.9146L16.4406 26.8194V26.4114H16.1721V24.4598ZM15.4836 26.425C15.3713 26.4315 15.2586 26.4315 15.1463 26.425C14.7126 26.425 14.4578 26.1598 14.4578 25.6566C14.4578 25.1534 14.7332 24.8338 15.2014 24.8338C15.2907 24.8252 15.3806 24.8252 15.4699 24.8338L15.4836 26.425Z" fill="#000927"/>
<path d="M27.58 23.2626H27.5456H27.4699L26.5405 23.3782V23.6842H26.8847V24.4799C26.5599 24.3636 26.2072 24.347 25.8727 24.4323C25.6288 24.5257 25.4223 24.695 25.2844 24.9146C25.1465 25.1342 25.0848 25.3921 25.1085 25.6495C25.0854 25.9015 25.1463 26.154 25.2817 26.3688C25.4171 26.5835 25.6198 26.7488 25.8589 26.8395C26.218 26.9046 26.5887 26.8571 26.9191 26.7035C26.9191 26.7511 26.9191 26.9007 26.9191 26.9007L27.8485 26.7783V26.4723H27.5456C27.5456 26.4111 27.5456 23.249 27.5456 23.249L27.58 23.2626ZM26.8572 26.3839C26.5405 26.4723 26.1687 26.5335 25.969 26.2615C25.8438 26.0774 25.7856 25.8569 25.8038 25.6359C25.8038 25.6019 25.8038 25.5747 25.8038 25.5543C25.7933 25.3423 25.8674 25.1347 26.0103 24.9763C26.126 24.8755 26.2712 24.8139 26.4248 24.8004C26.5783 24.787 26.7323 24.8224 26.864 24.9015C26.864 24.9015 26.864 26.3295 26.864 26.3839" fill="#000927"/>
<path d="M29.2459 24.3371C29.0956 24.3348 28.9462 24.3601 28.8053 24.4119C28.5521 24.505 28.3373 24.6783 28.1941 24.9045C28.0509 25.1308 27.9874 25.3975 28.0136 25.6631C27.9938 25.9234 28.0613 26.183 28.2056 26.4017C28.3499 26.6204 28.5631 26.7862 28.8122 26.8735C29.321 26.9878 29.8547 26.9076 30.3061 26.6491V26.6491L30.1822 26.3023L29.9481 26.3635C29.6245 26.4519 29.1908 26.6287 28.9154 26.3091C28.7941 26.1206 28.734 25.8999 28.7433 25.6767L30.1202 25.7175H30.3199V25.6767C30.3262 25.6202 30.3262 25.5632 30.3199 25.5067C30.3357 25.358 30.3191 25.2077 30.2712 25.0658C30.2232 24.924 30.1451 24.794 30.0421 24.6844C29.939 24.5749 29.8134 24.4885 29.6737 24.4309C29.534 24.3733 29.3834 24.346 29.2321 24.3507L29.2459 24.3371ZM28.7571 25.3299C28.7571 25.2891 28.7571 24.7927 29.2459 24.7927C29.7347 24.7927 29.7003 25.2823 29.7209 25.3299H28.7571Z" fill="#000927"/>
<path d="M24.1097 16.361C23.072 17.039 21.8494 17.3878 20.6055 17.3606C19.8702 17.35 19.1442 17.1961 18.4691 16.9079C17.7941 16.6197 17.1833 16.2028 16.6716 15.681C16.16 15.1592 15.7576 14.5428 15.4876 13.8672C15.2175 13.1916 15.085 12.4699 15.0978 11.7437C15.208 8.96918 18.1133 6.56873 20.4196 6.49393C20.5366 6.49393 20.5711 6.45312 20.454 6.45312C16.5091 6.49393 13.2596 9.22079 13.1082 12.9405C13.0577 14.726 13.7205 16.4594 14.9533 17.7662C16.1861 19.0729 17.89 19.8481 19.6967 19.9242C23.139 20.0603 24.9634 18.0338 24.1097 16.361" fill="#000927"/>
<path d="M25.9486 12.4434C23.959 13.2798 24.0553 15.4286 24.3514 17.1355C24.3514 17.0539 24.3514 16.9927 24.3514 16.9111C24.442 17.4753 24.3505 18.0535 24.0898 18.5635C23.5115 19.5291 22.5889 20.2567 20.7852 20.7328C25.391 20.9232 30.5888 16.5235 25.9486 12.4434Z" fill="#000927"/>
<path d="M20.7775 6.45298C20.7017 6.45298 20.6742 6.45298 20.7775 6.45298C23.6346 6.76579 25.6724 8.60183 21.6174 10.6011C22.8565 10.4456 24.1154 10.5879 25.2869 11.0159C27.3523 8.39783 24.0339 6.44618 20.7706 6.42578" fill="#000927"/>
<path d="M24.3513 16.9515C24.1034 14.8435 23.6628 11.9602 27.5801 11.7494C22.8917 9.52577 19.8074 11.7154 17.4873 12.1642C19.5527 12.4158 23.8556 14.6667 24.3719 16.9243" fill="#000927"/>
<path fill-rule="evenodd" clip-rule="evenodd" d="M146.781 9.1539C148.509 11.4165 147.036 15.0035 143.478 17.1488C139.92 19.2941 135.666 19.2182 133.925 16.9763C132.081 14.5827 133.643 11.1061 137.194 8.96075C140.181 7.16035 143.684 6.93961 145.763 8.27094C146.859 7.53721 148.078 7.00684 149.362 6.70508C148.259 7.22309 147.236 7.89929 146.327 8.71242C146.492 8.85471 146.644 9.01171 146.781 9.18149" fill="#000927"/>
<path fill-rule="evenodd" clip-rule="evenodd" d="M135.982 11.037C135.982 11.037 141.564 11.7268 141.392 16.6658C141.392 16.6658 143.147 8.38809 149.361 6.67736C149.361 6.67736 144.062 6.48421 141.399 13.0029C141.399 13.0029 140.263 10.6714 135.982 11.037Z" fill="white"/>
<path fill-rule="evenodd" clip-rule="evenodd" d="M137.62 25.9921C137.592 26.1547 137.526 26.3083 137.427 26.4405C137.336 26.5729 137.222 26.6875 137.09 26.7785C136.937 26.8689 136.773 26.9385 136.601 26.9855C136.376 27.041 136.145 27.0666 135.913 27.0613H134.447L135.135 23.6123H136.443C136.642 23.5941 136.843 23.5941 137.042 23.6123C137.175 23.6285 137.304 23.6707 137.42 23.7365C137.525 23.7951 137.608 23.8874 137.654 23.9986C137.691 24.1247 137.691 24.2587 137.654 24.3849C137.618 24.552 137.543 24.7081 137.434 24.8401C137.32 24.9762 137.17 25.0767 137.001 25.1299V25.1299C137.19 25.1651 137.363 25.2592 137.496 25.3989C137.553 25.483 137.59 25.5785 137.605 25.6786C137.621 25.7788 137.614 25.8811 137.586 25.9783L137.62 25.9921ZM136.636 25.9783C136.669 25.8965 136.669 25.8049 136.636 25.7231C136.597 25.6565 136.536 25.6054 136.464 25.5782C136.387 25.5598 136.309 25.5482 136.23 25.5438H135.672L135.507 26.4129H136.058C136.156 26.41 136.254 26.3914 136.347 26.3577C136.427 26.3251 136.498 26.2729 136.553 26.206C136.611 26.1428 136.647 26.0632 136.656 25.9783H136.636ZM136.705 24.5504C136.711 24.4954 136.711 24.4399 136.705 24.3849C136.681 24.3275 136.637 24.2809 136.581 24.2538C136.515 24.2267 136.445 24.2126 136.374 24.2124H135.948L135.803 24.9022H136.244C136.314 24.915 136.386 24.915 136.457 24.9022C136.526 24.8774 136.586 24.8316 136.629 24.7712C136.673 24.7041 136.703 24.6291 136.718 24.5504" fill="#000927"/>
<path fill-rule="evenodd" clip-rule="evenodd" d="M139.416 26.7784L139.223 26.8957C139.161 26.9408 139.094 26.98 139.024 27.0129L138.769 27.0957C138.669 27.1094 138.567 27.1094 138.466 27.0957C138.36 27.099 138.254 27.0799 138.156 27.0395C138.057 26.999 137.969 26.9383 137.895 26.8612C137.831 26.7769 137.787 26.6789 137.767 26.5748C137.746 26.4707 137.75 26.3634 137.778 26.261C137.802 26.0897 137.871 25.9278 137.978 25.792C138.095 25.6678 138.238 25.5712 138.398 25.5092C138.584 25.4325 138.782 25.3836 138.983 25.3643C139.21 25.3271 139.44 25.3041 139.671 25.2953V25.2953C139.671 25.1436 139.671 25.0401 139.554 24.9849C139.399 24.9211 139.232 24.8951 139.065 24.909C138.942 24.908 138.819 24.9242 138.7 24.9573C138.559 24.9897 138.42 25.0359 138.287 25.0953H138.212L138.329 24.4606C138.418 24.4606 138.563 24.4193 138.749 24.371C138.947 24.3437 139.147 24.3299 139.347 24.3296C139.697 24.3083 140.046 24.3872 140.352 24.5572C140.443 24.6442 140.508 24.7545 140.541 24.8761C140.574 24.9977 140.573 25.126 140.538 25.247L140.194 27.0474H139.32L139.416 26.7784ZM139.485 26.3576L139.595 25.8127L139.237 25.8541C139.141 25.8622 139.046 25.8831 138.955 25.9161C138.882 25.9343 138.815 25.9725 138.762 26.0265C138.704 26.0808 138.668 26.1543 138.659 26.2335C138.642 26.2762 138.639 26.323 138.65 26.3675C138.662 26.412 138.686 26.452 138.721 26.4818C138.806 26.5314 138.905 26.553 139.003 26.5439C139.087 26.543 139.171 26.5291 139.251 26.5025C139.338 26.4705 139.417 26.4212 139.485 26.3576Z" fill="#000927"/>
<path fill-rule="evenodd" clip-rule="evenodd" d="M143.36 27.0609H142.493L142.748 25.7571C142.748 25.6537 142.782 25.5364 142.803 25.426C142.811 25.355 142.811 25.2832 142.803 25.2122C142.794 25.182 142.78 25.154 142.759 25.1302C142.739 25.1063 142.714 25.0872 142.686 25.0742C142.618 25.0458 142.546 25.0317 142.472 25.0328C142.401 25.0267 142.33 25.0267 142.259 25.0328C142.166 25.0598 142.077 25.1018 141.997 25.157L141.64 27.0333H140.772L141.282 24.3913H142.142L142.087 24.6534C142.236 24.5536 142.392 24.466 142.555 24.3913C142.704 24.3331 142.863 24.3027 143.023 24.3016C143.136 24.2914 143.25 24.3093 143.354 24.3539C143.459 24.3984 143.551 24.4681 143.622 24.5569C143.736 24.7828 143.765 25.0423 143.704 25.2881L143.36 27.0609Z" fill="#000927"/>
<path fill-rule="evenodd" clip-rule="evenodd" d="M145.246 27.0818C145.035 27.0867 144.824 27.0612 144.62 27.0059C144.457 26.9577 144.308 26.87 144.186 26.7507C144.06 26.6331 143.973 26.4787 143.938 26.3092C143.897 26.109 143.897 25.9024 143.938 25.7022C143.98 25.4724 144.064 25.2525 144.186 25.0538C144.3 24.885 144.444 24.7397 144.613 24.6261C144.777 24.5154 144.958 24.4338 145.15 24.3846C145.345 24.3318 145.546 24.3063 145.748 24.3088C145.899 24.307 146.049 24.3232 146.196 24.357C146.346 24.4012 146.494 24.4565 146.636 24.5226L146.499 25.2124H146.388L146.278 25.1227C146.233 25.0792 146.182 25.0421 146.127 25.0124C146.065 24.9794 146.001 24.9517 145.934 24.9296C145.853 24.9119 145.768 24.9119 145.686 24.9296C145.583 24.9254 145.48 24.9421 145.383 24.9789C145.286 25.0156 145.197 25.0716 145.122 25.1434C144.961 25.306 144.857 25.5166 144.826 25.7436C144.794 25.8418 144.783 25.9461 144.797 26.0488C144.81 26.1515 144.846 26.2499 144.902 26.3368C144.961 26.4061 145.035 26.4603 145.119 26.4951C145.202 26.5299 145.293 26.5442 145.384 26.5368C145.486 26.5406 145.589 26.5266 145.686 26.4955L145.914 26.4196C145.969 26.3843 146.022 26.3451 146.072 26.3023C146.115 26.2757 146.157 26.2458 146.196 26.2126H146.306L146.175 26.9024L145.989 26.9645C145.92 26.9916 145.848 27.0147 145.776 27.0335C145.686 27.0335 145.611 27.0749 145.528 27.0818C145.434 27.0894 145.34 27.0894 145.246 27.0818" fill="#000927"/>
<path fill-rule="evenodd" clip-rule="evenodd" d="M149.458 25.7021C149.397 26.0985 149.194 26.459 148.887 26.7161C148.565 26.972 148.162 27.102 147.752 27.0817C147.57 27.0983 147.387 27.0734 147.217 27.0089C147.046 26.9443 146.893 26.8419 146.767 26.7092C146.663 26.5649 146.592 26.3989 146.56 26.2234C146.527 26.0479 146.535 25.8674 146.582 25.6952C146.651 25.2961 146.855 24.9331 147.16 24.6674C147.483 24.4145 147.886 24.2871 148.295 24.3087C148.474 24.2924 148.655 24.3161 148.824 24.3782C148.993 24.4402 149.146 24.539 149.273 24.6674C149.377 24.8159 149.447 24.9855 149.479 25.1642C149.512 25.3429 149.504 25.5265 149.458 25.7021V25.7021ZM148.571 25.7021C148.583 25.5713 148.583 25.4397 148.571 25.3089C148.567 25.2241 148.544 25.1413 148.502 25.0675C148.49 25.0349 148.472 25.0051 148.449 24.9801C148.425 24.9551 148.396 24.9355 148.364 24.9226C148.291 24.9074 148.216 24.9074 148.144 24.9226C148.073 24.9087 148.001 24.9087 147.931 24.9226C147.855 24.9461 147.788 24.9918 147.738 25.0537C147.665 25.1234 147.609 25.2082 147.573 25.302C147.511 25.4286 147.467 25.5633 147.442 25.7021C147.427 25.8304 147.427 25.9601 147.442 26.0884C147.449 26.1696 147.47 26.249 147.504 26.3229C147.535 26.3836 147.586 26.4322 147.648 26.4609C147.79 26.5163 147.947 26.5163 148.089 26.4609C148.165 26.4341 148.236 26.3919 148.295 26.3367C148.356 26.2617 148.409 26.1808 148.454 26.0953C148.508 25.9695 148.548 25.8374 148.571 25.7021" fill="#000927"/>
<path fill-rule="evenodd" clip-rule="evenodd" d="M131.041 32.924L132.954 29.4336H133.966L134.537 32.8826H133.601L133.512 32.1928H132.335L131.963 32.8826L131.041 32.924ZM133.429 31.5444L133.264 30.3717L132.665 31.5375L133.429 31.5444Z" fill="#000927"/>
<path fill-rule="evenodd" clip-rule="evenodd" d="M138.033 29.4474L136.099 32.924H135.136L134.537 29.4336H135.494L135.838 31.7996L137.104 29.4474H138.033Z" fill="#000927"/>
<path fill-rule="evenodd" clip-rule="evenodd" d="M142.128 29.4474L140.194 32.924H139.231L138.632 29.4336H139.582L139.939 31.7996L141.192 29.4474H142.128Z" fill="#000927"/>
<path fill-rule="evenodd" clip-rule="evenodd" d="M141.75 32.9243L142.246 30.303H143.106L142.617 32.9243H141.75ZM143.209 29.9236H142.294L142.418 29.2959H143.326L143.209 29.9236Z" fill="#000927"/>
<path fill-rule="evenodd" clip-rule="evenodd" d="M143.133 32.9244L143.835 29.2891H144.709L144 32.9244H143.133Z" fill="#000927"/>
<path fill-rule="evenodd" clip-rule="evenodd" d="M145.432 32.9244H144.558L145.253 29.2891L146.127 29.296L145.432 32.9244Z" fill="#000927"/>
<path fill-rule="evenodd" clip-rule="evenodd" d="M147.558 32.6488C147.499 32.6922 147.437 32.7314 147.372 32.7661C147.31 32.8189 147.237 32.8588 147.159 32.8833L146.925 32.973C146.815 32.9852 146.705 32.9852 146.595 32.973C146.492 32.9751 146.389 32.9539 146.295 32.911C146.201 32.868 146.118 32.8044 146.052 32.725C145.986 32.6455 145.939 32.5521 145.913 32.4517C145.888 32.3514 145.886 32.2466 145.907 32.1452C145.928 31.9699 146 31.8045 146.113 31.6693C146.226 31.5463 146.365 31.4497 146.519 31.3865C146.713 31.3093 146.917 31.2605 147.125 31.2416C147.345 31.2416 147.586 31.1933 147.813 31.1795C147.832 31.124 147.832 31.0634 147.812 31.0081C147.792 30.9528 147.753 30.9061 147.703 30.876C147.547 30.8127 147.382 30.7776 147.214 30.7725C147.091 30.7865 146.969 30.8095 146.849 30.8415C146.702 30.879 146.558 30.9251 146.416 30.9795H146.347L146.471 30.3448C146.611 30.3076 146.753 30.2823 146.898 30.269C147.093 30.2316 147.291 30.2108 147.489 30.2069C147.839 30.1715 148.189 30.2593 148.48 30.4552C148.581 30.5355 148.653 30.6453 148.688 30.769C148.722 30.8928 148.717 31.0243 148.673 31.145L148.336 32.9385H147.469L147.558 32.6488ZM147.641 32.2349L147.737 31.69C147.618 31.6987 147.498 31.6987 147.379 31.69L147.104 31.7658C147.029 31.7803 146.962 31.8191 146.911 31.8762C146.854 31.925 146.817 31.9941 146.808 32.0694C146.808 32.2004 146.808 32.2832 146.87 32.3246C146.955 32.3818 147.057 32.4086 147.159 32.4005C147.244 32.3966 147.328 32.3779 147.407 32.3453C147.49 32.3082 147.568 32.262 147.641 32.2073" fill="#000927"/>
<path fill-rule="evenodd" clip-rule="evenodd" d="M149.74 32.9658C149.55 32.9675 149.361 32.9467 149.176 32.9037C149.031 32.8707 148.89 32.8221 148.756 32.7589L148.887 32.069H148.962C148.994 32.1125 149.034 32.1499 149.079 32.1794L149.272 32.2829C149.352 32.3222 149.435 32.3545 149.52 32.3795C149.627 32.3938 149.736 32.3938 149.843 32.3795C149.958 32.3853 150.072 32.3689 150.18 32.3312C150.222 32.3214 150.259 32.2999 150.288 32.2693C150.318 32.2387 150.338 32.2003 150.346 32.1587C150.357 32.1374 150.362 32.1137 150.362 32.0897C150.362 32.0658 150.357 32.0421 150.346 32.0208C150.269 31.9755 150.185 31.9429 150.098 31.9242L149.864 31.8828L149.616 31.8207C149.446 31.7661 149.293 31.6659 149.176 31.531C149.092 31.3771 149.07 31.1971 149.114 31.0274C149.133 30.9099 149.18 30.7987 149.251 30.7032C149.337 30.5902 149.444 30.4963 149.568 30.4273C149.704 30.3399 149.852 30.2747 150.008 30.2342C150.194 30.1822 150.387 30.1567 150.58 30.1583C150.755 30.1615 150.93 30.18 151.103 30.2135C151.235 30.2495 151.364 30.298 151.488 30.3583L151.35 31.0481H151.282C151.254 31.0084 151.216 30.9773 151.172 30.9585L150.999 30.855C150.929 30.8192 150.856 30.7914 150.779 30.7722C150.69 30.762 150.6 30.762 150.511 30.7722C150.394 30.7662 150.278 30.7899 150.174 30.8412C150.07 30.8826 150.036 30.9309 150.022 30.9998C150.009 31.0203 150.001 31.0443 150.001 31.0688C150.001 31.0934 150.009 31.1174 150.022 31.1378C150.097 31.1928 150.185 31.2283 150.277 31.2413C150.36 31.2645 150.445 31.2807 150.531 31.2896L150.779 31.3585C150.942 31.4013 151.085 31.4987 151.185 31.6345C151.262 31.7758 151.282 31.9412 151.24 32.0966C151.22 32.229 151.168 32.3544 151.089 32.4622C151 32.5736 150.893 32.6692 150.772 32.7451C150.628 32.8236 150.476 32.8861 150.318 32.9313C150.124 32.9754 149.925 32.9962 149.726 32.9934" fill="#000927"/>
<path fill-rule="evenodd" clip-rule="evenodd" d="M135.191 14.6099C135.287 13.9201 136.175 13.6786 137.544 13.7683C137.985 13.7877 138.424 13.8337 138.859 13.9063C138.398 13.6527 137.901 13.4713 137.386 13.3682C135.638 13.0026 134.055 13.4717 133.862 14.4236C133.67 15.3756 134.853 16.4103 136.615 16.7759C138.212 17.1484 139.815 16.6034 140.056 15.9964C139.602 16.4655 138.549 16.5207 137.193 16.2309C136.801 16.1413 135.039 15.6515 135.197 14.6099" fill="white"/>
<path d="M110.343 28.083H110.205C109.978 28.0736 109.753 28.1313 109.558 28.2489C109.558 28.1728 109.496 28.1245 109.366 28.1245H109.008C108.905 28.1245 108.85 28.1659 108.822 28.2834C108.636 29.1541 108.45 29.9971 108.278 30.854V30.9023C108.278 31.0198 108.347 31.0751 108.471 31.0751H108.829C108.879 31.081 108.929 31.0669 108.969 31.0359C109.009 31.0049 109.035 30.9594 109.042 30.9092C109.152 30.3979 109.256 29.8866 109.359 29.3821C109.392 29.2124 109.488 29.0615 109.627 28.9591C109.766 28.8568 109.938 28.8104 110.109 28.8293H110.254C110.278 28.8322 110.303 28.8302 110.326 28.8234C110.35 28.8166 110.372 28.8051 110.391 28.7897C110.41 28.7743 110.426 28.7552 110.438 28.7335C110.45 28.7118 110.457 28.688 110.46 28.6635C110.46 28.546 110.508 28.4147 110.536 28.2903C110.539 28.272 110.539 28.2533 110.536 28.235C110.536 28.1314 110.474 28.083 110.35 28.083" fill="#000927"/>
<path d="M108.464 28.2685C108.464 28.1856 108.402 28.1303 108.279 28.1303H107.928C107.831 28.1303 107.769 28.1303 107.749 28.2823C107.747 28.3007 107.747 28.3192 107.749 28.3376C107.529 28.1736 107.258 28.0929 106.985 28.1096C106.748 28.1101 106.514 28.1587 106.296 28.2525C106.078 28.3463 105.882 28.4834 105.718 28.6555C105.54 28.8118 105.397 29.0039 105.297 29.2193C105.198 29.4348 105.144 29.6687 105.14 29.9062C105.135 30.0679 105.164 30.2288 105.224 30.3788C105.285 30.5287 105.376 30.6643 105.491 30.7769C105.609 30.891 105.748 30.9804 105.9 31.0398C106.053 31.0991 106.216 31.1272 106.379 31.1224C106.69 31.1276 106.992 31.0224 107.232 30.8252V30.8874C107.232 30.998 107.294 31.0533 107.425 31.0533H107.749C107.798 31.0575 107.848 31.0427 107.887 31.012C107.927 30.9813 107.954 30.9369 107.962 30.8874C108.134 30.0237 108.32 29.1806 108.499 28.3307C108.496 28.3077 108.496 28.2846 108.499 28.2616L108.464 28.2685ZM107.232 30.0444C107.144 30.1398 107.038 30.2164 106.92 30.2698C106.801 30.3232 106.674 30.3523 106.544 30.3554C106.394 30.3629 106.247 30.3136 106.131 30.2172C106.07 30.1602 106.023 30.0904 105.992 30.0127C105.961 29.9351 105.947 29.8515 105.952 29.768C105.952 29.5344 106.041 29.3096 106.2 29.1392C106.288 29.0435 106.394 28.9671 106.512 28.9147C106.631 28.8624 106.759 28.8353 106.888 28.8351C107.038 28.8296 107.185 28.8733 107.308 28.9595C107.371 29.0155 107.421 29.0848 107.455 29.1624C107.488 29.2401 107.504 29.3242 107.501 29.4087C107.5 29.6467 107.406 29.8749 107.239 30.0444" fill="#000927"/>
<path d="M105.381 27.1427C105.381 27.0529 105.313 27.0045 105.203 27.0045H104.81C104.788 27.0004 104.765 27.0013 104.744 27.007C104.722 27.0128 104.702 27.0234 104.685 27.0379C104.668 27.0525 104.654 27.0707 104.645 27.0912C104.636 27.1117 104.631 27.134 104.631 27.1565C104.37 28.3934 104.101 29.6234 103.84 30.8534V30.9087C103.84 31.0193 103.902 31.0745 104.026 31.0745H104.384C104.434 31.0804 104.484 31.0664 104.524 31.0354C104.564 31.0044 104.59 30.9589 104.597 30.9087C104.858 29.6695 105.115 28.4441 105.368 27.2325V27.1634" fill="#000927"/>
<path d="M104.032 28.2827C104.032 28.1997 103.977 28.1514 103.846 28.1514H103.454C103.357 28.1514 103.295 28.1514 103.282 28.3103C103.165 28.8147 103.055 29.3261 102.944 29.8305C102.919 29.982 102.844 30.1206 102.731 30.2244C102.601 30.3254 102.441 30.379 102.277 30.3764C102.169 30.3795 102.064 30.3426 101.981 30.2728C101.935 30.2271 101.898 30.1721 101.875 30.1113C101.851 30.0506 101.84 29.9855 101.843 29.9203C101.836 29.8885 101.836 29.8555 101.843 29.8236L102.153 28.3448C102.156 28.3243 102.156 28.3032 102.153 28.2827C102.153 28.1997 102.091 28.1514 101.967 28.1514H101.589C101.479 28.1514 101.417 28.1514 101.396 28.3103C101.286 28.8124 101.176 29.3238 101.066 29.8443C101.059 29.9387 101.059 30.0333 101.066 30.1277C101.059 30.2843 101.092 30.44 101.162 30.5802C101.232 30.7203 101.336 30.8405 101.465 30.9292C101.667 31.0664 101.909 31.1343 102.153 31.1227C102.377 31.1343 102.597 31.063 102.772 30.9223C102.772 31.026 102.848 31.0743 102.958 31.0743H103.275C103.325 31.0802 103.375 31.0662 103.415 31.0352C103.455 31.0042 103.481 30.9587 103.488 30.9085C103.66 30.0516 103.846 29.2086 104.025 28.3725C104.025 28.331 104.025 28.3103 104.025 28.2827" fill="#000927"/>
<path d="M99.6074 28.1107C99.3204 28.1056 99.0381 28.1849 98.7953 28.3387V28.2835C98.7953 28.1867 98.7265 28.1314 98.6095 28.1314H98.2379C98.1415 28.1314 98.0727 28.1314 98.0521 28.2835C97.7974 29.5273 97.5428 30.7573 97.2812 32.0149V32.0633C97.2812 32.1738 97.3363 32.2222 97.4464 32.2222H97.8043C97.8289 32.2261 97.854 32.2248 97.878 32.2184C97.9021 32.212 97.9246 32.2006 97.944 32.185C97.9634 32.1694 97.9794 32.1499 97.9909 32.1278C98.0024 32.1056 98.0092 32.0813 98.0108 32.0564C98.1002 31.6487 98.1828 31.241 98.2654 30.8402C98.3608 30.9376 98.4759 31.0133 98.6029 31.0622C98.73 31.1111 98.866 31.132 99.0018 31.1235C99.2403 31.119 99.4755 31.0673 99.6941 30.9712C99.9126 30.8752 100.11 30.7367 100.275 30.5638C100.457 30.4084 100.603 30.2158 100.704 29.9988C100.805 29.7818 100.858 29.5456 100.86 29.3062C100.862 29.1457 100.831 28.9865 100.768 28.8389C100.705 28.6913 100.612 28.5586 100.495 28.4493C100.378 28.3347 100.239 28.2455 100.086 28.1873C99.9337 28.129 99.7706 28.103 99.6074 28.1107V28.1107ZM99.8346 30.0663C99.7461 30.1613 99.6397 30.2378 99.5215 30.2911C99.4034 30.3445 99.2758 30.3738 99.1463 30.3772C98.9941 30.3859 98.8441 30.3365 98.7265 30.239C98.6618 30.1844 98.6107 30.1153 98.5773 30.0373C98.5438 29.9593 98.5289 29.8746 98.5338 29.7899C98.5331 29.6722 98.5566 29.5556 98.6028 29.4474C98.649 29.3392 98.7169 29.2417 98.8022 29.161C98.8887 29.064 98.9948 28.9866 99.1135 28.9342C99.2322 28.8817 99.3608 28.8554 99.4904 28.857C99.6378 28.853 99.7825 28.8966 99.9034 28.9814C99.9676 29.0395 100.018 29.1111 100.051 29.1912C100.085 29.2712 100.1 29.3577 100.096 29.4444C100.093 29.6767 100.002 29.8991 99.8414 30.0663" fill="#000927"/>
<path d="M97.1504 28.4416C96.9142 28.2195 96.6 28.1002 96.2764 28.1099C96.0366 28.1067 95.7987 28.1529 95.5773 28.2456C95.356 28.3383 95.1559 28.4755 94.9894 28.6489C94.8095 28.8052 94.6649 28.9982 94.5652 29.2151C94.4655 29.432 94.413 29.6677 94.4113 29.9066C94.404 30.0685 94.4315 30.2301 94.4921 30.3804C94.5527 30.5306 94.6449 30.666 94.7623 30.7772C94.8794 30.892 95.0184 30.9819 95.171 31.0412C95.3236 31.1006 95.4866 31.1283 95.6501 31.1227C95.8878 31.1197 96.1225 31.0685 96.3401 30.9724C96.5576 30.8762 96.7537 30.737 96.9164 30.563C97.098 30.4077 97.2441 30.215 97.345 29.998C97.446 29.781 97.4993 29.5448 97.5014 29.3054C97.506 29.1448 97.4772 28.985 97.4167 28.8363C97.3563 28.6876 97.2656 28.5531 97.1504 28.4416V28.4416ZM96.4622 30.0517C96.378 30.1534 96.273 30.2357 96.1542 30.293C96.0354 30.3502 95.9057 30.381 95.774 30.3833C95.6252 30.3886 95.48 30.3367 95.3679 30.2382C95.3041 30.1829 95.2535 30.1137 95.2202 30.0359C95.1868 29.9581 95.1714 29.8737 95.1752 29.7891C95.1758 29.6732 95.1992 29.5586 95.2441 29.4519C95.289 29.3451 95.3544 29.2484 95.4368 29.1672C95.5217 29.0678 95.6274 28.9884 95.7463 28.9346C95.8653 28.8809 95.9946 28.8541 96.125 28.8562C96.2724 28.8522 96.4171 28.8958 96.5379 28.9806C96.5996 29.0348 96.6488 29.1018 96.6821 29.1769C96.7153 29.2521 96.7319 29.3337 96.7306 29.4159C96.7327 29.5342 96.7106 29.6517 96.6656 29.7611C96.6206 29.8704 96.5537 29.9693 96.4691 30.0517" fill="#000927"/>
<path d="M92.9522 28.1099C92.663 28.1047 92.3785 28.1839 92.1332 28.3379C92.1352 28.3196 92.1352 28.301 92.1332 28.2826C92.1332 28.1859 92.0644 28.1306 91.9405 28.1306H91.5758C91.4794 28.1306 91.4106 28.1306 91.3899 28.2826C91.1353 29.5265 90.8738 30.7565 90.6191 32.0141C90.6191 32.1454 90.6673 32.1938 90.7843 32.1938H91.156C91.1804 32.1966 91.2051 32.1946 91.2288 32.1878C91.2524 32.181 91.2745 32.1696 91.2937 32.1541C91.3129 32.1387 91.3289 32.1196 91.3407 32.098C91.3525 32.0763 91.3599 32.0525 91.3624 32.0279C91.4381 31.6202 91.5207 31.2125 91.6033 30.8117C91.6982 30.9079 91.8122 30.9829 91.9379 31.0317C92.0636 31.0805 92.1982 31.1021 92.3328 31.0951C92.5736 31.092 92.8113 31.041 93.0323 30.9449C93.2532 30.8488 93.4529 30.7096 93.6198 30.5353C93.7986 30.3777 93.9429 30.1846 94.0436 29.9681C94.1443 29.7516 94.1992 29.5165 94.2048 29.2777C94.2054 29.1174 94.1734 28.9588 94.1106 28.8114C94.0479 28.6641 93.9558 28.5311 93.84 28.4209C93.7229 28.3066 93.5837 28.2176 93.431 28.1594C93.2783 28.1012 93.1154 28.0749 92.9522 28.0823V28.1099ZM93.1793 30.0378C93.0911 30.1332 92.9848 30.2098 92.8666 30.2632C92.7484 30.3166 92.6207 30.3457 92.4911 30.3488C92.3432 30.356 92.1981 30.3066 92.0851 30.2106C92.0207 30.1552 91.9694 30.0862 91.9349 30.0086C91.9004 29.9309 91.8835 29.8465 91.8855 29.7614C91.8903 29.5248 91.9865 29.2993 92.1539 29.1326C92.2409 29.0362 92.3471 28.9593 92.4657 28.9069C92.5843 28.8546 92.7125 28.8278 92.8421 28.8285C92.9938 28.824 93.1431 28.8675 93.2688 28.9529C93.3319 29.0119 93.3817 29.0837 93.4149 29.1635C93.4482 29.2434 93.464 29.3294 93.4615 29.4159C93.4554 29.6489 93.362 29.8709 93.2 30.0378" fill="#000927"/>
<path d="M92.2638 25.1175H92.601C92.627 25.1215 92.6536 25.1198 92.6789 25.1126C92.7043 25.1054 92.7278 25.093 92.748 25.076C92.7682 25.059 92.7845 25.0379 92.7959 25.0141C92.8074 24.9903 92.8137 24.9643 92.8143 24.9379V24.8895C93.0235 25.0778 93.2975 25.177 93.5783 25.1659C93.8185 25.1638 94.056 25.1138 94.2769 25.0189C94.4978 24.924 94.6978 24.7861 94.8652 24.6131C95.0419 24.4545 95.1838 24.2609 95.2822 24.0444C95.3805 23.8279 95.433 23.5933 95.4365 23.3555C95.4409 23.1959 95.412 23.0372 95.3516 22.8896C95.2911 22.742 95.2004 22.6088 95.0855 22.4986C94.9656 22.3837 94.8242 22.294 94.6694 22.2346C94.5146 22.1753 94.3495 22.1476 94.1839 22.1531C93.8938 22.1483 93.6087 22.2301 93.3649 22.388L93.6402 21.3101V21.241C93.6402 21.1373 93.5851 21.082 93.4613 21.082H93.069C92.9657 21.082 92.9107 21.1235 92.8832 21.241C92.6285 22.4848 92.3739 23.7079 92.1055 24.9379C92.1055 25.0692 92.1743 25.1175 92.2913 25.1175H92.2638ZM93.3787 23.2173C93.4666 23.1209 93.5727 23.0432 93.6909 22.9886C93.809 22.9341 93.9369 22.9037 94.0669 22.8994C94.2205 22.8963 94.3707 22.945 94.4936 23.0376C94.559 23.0905 94.6111 23.1581 94.6458 23.2349C94.6805 23.3117 94.6967 23.3956 94.6932 23.4798C94.6935 23.5975 94.6698 23.7139 94.6236 23.8221C94.5775 23.9302 94.5098 24.0277 94.4248 24.1087C94.2463 24.3019 93.9988 24.4162 93.7366 24.4265C93.5831 24.4354 93.4322 24.3833 93.3167 24.2814C93.2494 24.2271 93.1961 24.1573 93.1613 24.0779C93.1266 23.9985 93.1114 23.9119 93.1172 23.8253C93.1159 23.7112 93.1386 23.5982 93.1837 23.4934C93.2287 23.3887 93.2951 23.2946 93.3787 23.2173" fill="#000927"/>
<path d="M96.9023 25.1669C97.2088 25.1675 97.5067 25.0653 97.7488 24.8766V24.8766C97.7488 25.0079 97.8245 25.0563 97.9484 25.0563H98.2718C98.2968 25.0602 98.3223 25.0589 98.3467 25.0526C98.3712 25.0463 98.3941 25.035 98.414 25.0195C98.434 25.0039 98.4506 24.9845 98.4628 24.9623C98.4751 24.9401 98.4827 24.9157 98.4852 24.8905L99.022 22.3268C99.0236 22.3084 99.0236 22.2899 99.022 22.2715C99.022 22.161 98.9669 22.1195 98.8362 22.1195H98.4576C98.3613 22.1195 98.2994 22.1195 98.2787 22.2715C98.2581 22.4236 98.2787 22.3268 98.2787 22.3406C98.0671 22.1639 97.7964 22.075 97.5217 22.0919C97.2847 22.0916 97.0502 22.1398 96.8324 22.2337C96.6147 22.3275 96.4183 22.4651 96.2553 22.6378C96.0771 22.7955 95.9336 22.9888 95.8341 23.2053C95.7346 23.4219 95.6811 23.6569 95.6772 23.8954C95.6726 24.056 95.7015 24.2158 95.7619 24.3645C95.8224 24.5132 95.9131 24.6477 96.0282 24.7592C96.1446 24.8769 96.2845 24.9686 96.4387 25.0281C96.5929 25.0877 96.7579 25.1138 96.9229 25.1047L96.9023 25.1669ZM96.6958 23.156C96.7827 23.0585 96.8886 22.9799 97.007 22.9252C97.1254 22.8705 97.2537 22.8409 97.384 22.8382C97.5376 22.8351 97.6878 22.8838 97.8107 22.9764C97.8706 23.0331 97.9181 23.1017 97.9501 23.1778C97.9821 23.254 97.9979 23.336 97.9965 23.4186C97.9972 23.537 97.973 23.6541 97.9256 23.7625C97.8781 23.8708 97.8085 23.9679 97.7213 24.0474C97.6358 24.1467 97.5301 24.2264 97.4114 24.2812C97.2927 24.336 97.1637 24.3647 97.033 24.3653C96.8827 24.3671 96.7365 24.3158 96.6201 24.2202C96.5565 24.1634 96.5067 24.0928 96.4745 24.0138C96.4423 23.9347 96.4285 23.8493 96.4343 23.7641C96.4383 23.5347 96.5322 23.3162 96.6958 23.156" fill="#000927"/>
<path d="M98.7949 24.9655C98.7949 25.0692 98.8569 25.1175 98.9807 25.1175H99.3317C99.3571 25.1214 99.3829 25.1202 99.4078 25.1139C99.4327 25.1077 99.456 25.0965 99.4766 25.0811C99.4971 25.0656 99.5143 25.0462 99.5272 25.024C99.5402 25.0018 99.5486 24.9772 99.552 24.9517C99.6621 24.4611 99.7653 23.9566 99.8685 23.466C99.8956 23.2974 99.9838 23.1447 100.116 23.0376C100.237 22.9464 100.385 22.8979 100.536 22.8994C100.603 22.8947 100.67 22.9053 100.732 22.9305C100.794 22.9556 100.849 22.9946 100.894 23.0445C100.969 23.161 100.999 23.3013 100.977 23.4384C100.866 23.9221 100.756 24.4196 100.653 24.9033C100.653 25.0346 100.715 25.083 100.839 25.083H101.211C101.236 25.0869 101.261 25.0856 101.285 25.0793C101.31 25.0729 101.333 25.0616 101.353 25.0461C101.373 25.0306 101.389 25.0112 101.402 24.989C101.414 24.9668 101.421 24.9424 101.424 24.9171C101.534 24.4058 101.637 23.8875 101.747 23.3831C101.769 23.2855 101.781 23.1859 101.782 23.086C101.788 22.9323 101.755 22.7796 101.685 22.6428C101.615 22.506 101.511 22.3896 101.383 22.3051C101.176 22.1766 100.937 22.1117 100.694 22.1185C100.475 22.1078 100.258 22.1606 100.068 22.2706C100.068 22.1876 100.006 22.1462 99.8892 22.1462H99.5313C99.435 22.1462 99.3799 22.1462 99.3524 22.2982C99.1666 23.1551 98.9876 24.0119 98.8018 24.8688" fill="#000927"/>
<path d="M103.193 25.1658C103.422 25.1659 103.649 25.12 103.861 25.0311C104.072 24.9421 104.264 24.8117 104.425 24.6476C104.576 24.4955 104.652 24.3919 104.652 24.3228C104.652 24.2537 104.652 24.2191 104.535 24.1846C104.418 24.15 104.363 24.0948 104.273 24.0533C104.184 24.0118 104.198 24.0118 104.17 24.0118C104.138 24.0132 104.106 24.0219 104.077 24.0375C104.049 24.0531 104.024 24.075 104.005 24.1017C103.922 24.204 103.817 24.2862 103.698 24.3424C103.578 24.3987 103.448 24.4274 103.317 24.4264C103.164 24.4318 103.014 24.3801 102.897 24.2813C102.835 24.2234 102.786 24.1525 102.754 24.0738C102.722 23.9951 102.707 23.9103 102.711 23.8253C102.715 23.5973 102.807 23.3797 102.966 23.2172C103.053 23.1199 103.159 23.0416 103.277 22.9869C103.395 22.9323 103.524 22.9025 103.654 22.8993C103.744 22.8951 103.834 22.9088 103.919 22.9396C104.005 22.9705 104.083 23.0178 104.149 23.079C104.168 23.1034 104.192 23.1235 104.22 23.1379C104.247 23.1522 104.277 23.1604 104.308 23.1619C104.352 23.1644 104.395 23.1523 104.432 23.1273L104.741 22.92C104.817 22.8717 104.845 22.8371 104.845 22.7611C104.845 22.6851 104.845 22.6644 104.741 22.5745C104.619 22.4366 104.468 22.3273 104.299 22.2545C104.131 22.1816 103.948 22.147 103.764 22.153C103.283 22.1555 102.823 22.3493 102.484 22.692C102.307 22.8519 102.165 23.0468 102.067 23.2644C101.969 23.482 101.916 23.7176 101.913 23.9566C101.904 24.1183 101.932 24.2799 101.993 24.4294C102.055 24.579 102.15 24.7126 102.271 24.8203C102.386 24.9375 102.525 25.0289 102.678 25.0885C102.831 25.148 102.995 25.1744 103.158 25.1658" fill="#000927"/>
<path d="M106.324 25.1667C106.562 25.1657 106.797 25.1162 107.014 25.0212C107.232 24.9261 107.428 24.7876 107.591 24.6139C107.77 24.4573 107.915 24.2643 108.014 24.0474C108.114 23.8306 108.167 23.595 108.169 23.3563C108.175 23.1955 108.147 23.0354 108.086 22.8864C108.026 22.7375 107.934 22.6032 107.818 22.4925C107.702 22.3803 107.565 22.2925 107.415 22.2344C107.265 22.1762 107.105 22.1489 106.944 22.1539C106.459 22.155 105.993 22.3488 105.65 22.6929C105.473 22.8528 105.331 23.0477 105.233 23.2653C105.135 23.4829 105.082 23.7185 105.079 23.9574C105.073 24.1181 105.102 24.2782 105.162 24.427C105.223 24.5759 105.314 24.7102 105.43 24.8212C105.546 24.9386 105.686 25.03 105.84 25.0896C105.995 25.1491 106.16 25.1754 106.324 25.1667ZM106.118 23.2181C106.204 23.1199 106.31 23.0408 106.429 22.9861C106.547 22.9314 106.676 22.9021 106.806 22.9002C106.956 22.8946 107.103 22.9437 107.219 23.0384C107.283 23.0923 107.333 23.1603 107.367 23.237C107.4 23.3137 107.416 23.397 107.412 23.4806C107.408 23.7174 107.311 23.9432 107.143 24.1095C107.057 24.208 106.952 24.2873 106.833 24.342C106.714 24.3968 106.586 24.4259 106.455 24.4273C106.307 24.4312 106.162 24.3795 106.049 24.2822C105.987 24.2242 105.938 24.1534 105.906 24.0747C105.874 23.9959 105.86 23.9111 105.863 23.8262C105.865 23.599 105.954 23.3813 106.111 23.2181" fill="#000927"/>
<path d="M99.4071 6.85457H106.454C106.607 6.8527 106.757 6.88562 106.895 6.95083C107.033 7.01604 107.154 7.11184 107.25 7.23099C107.345 7.35013 107.412 7.48951 107.446 7.63858C107.48 7.78765 107.48 7.94252 107.446 8.09147C106.831 11.0121 106.216 13.9305 105.601 16.8466C105.549 17.075 105.422 17.2789 105.239 17.4247C105.056 17.5704 104.83 17.6492 104.596 17.6481H97.0809C97.1016 17.5732 97.1177 17.497 97.1291 17.4201C97.2392 16.9157 97.3493 16.4043 97.4525 15.893C98.1335 16.4247 98.9711 16.7139 99.8338 16.7153C100.54 16.7136 101.239 16.5689 101.888 16.2899C102.537 16.0109 103.123 15.6032 103.612 15.0914C104.018 14.6944 104.368 14.2433 104.651 13.7508C104.678 13.7047 104.692 13.6523 104.692 13.599C104.692 13.5457 104.678 13.4933 104.652 13.4471C104.625 13.4009 104.587 13.3625 104.541 13.3358C104.495 13.309 104.443 13.2949 104.39 13.2948H103.082C103.034 13.2942 102.986 13.3052 102.943 13.3269C102.9 13.3485 102.863 13.3801 102.834 13.4192C102.745 13.5461 102.644 13.6641 102.532 13.7716C102.247 14.0998 101.896 14.3628 101.502 14.5428C101.108 14.7228 100.68 14.8157 100.247 14.815C99.7454 14.8292 99.2562 14.6597 98.8703 14.3382C98.619 14.1138 98.4294 13.8282 98.3197 13.509C98.2993 13.4464 98.2596 13.392 98.2065 13.3535C98.1533 13.315 98.0893 13.2944 98.0237 13.2948H96.3927C96.324 13.2952 96.2577 13.3195 96.2049 13.3636C96.1522 13.4078 96.1164 13.4689 96.1036 13.5366C95.8283 14.8357 95.5553 16.1302 95.2846 17.4201C95.2846 17.503 95.2846 17.579 95.2296 17.6481H94.8992C94.7482 17.6487 94.5991 17.6151 94.4628 17.5498C94.3265 17.4846 94.2067 17.3893 94.1121 17.2711C94.0175 17.1529 93.9507 17.0149 93.9166 16.8672C93.8825 16.7195 93.882 16.566 93.9151 16.4181C94.5276 13.4952 95.1401 10.586 95.7595 7.66305C95.8093 7.43562 95.9344 7.23186 96.1144 7.08503C96.2944 6.93819 96.5186 6.85695 96.7505 6.85457H97.5145C97.5145 6.93058 97.4663 7.02041 97.4525 7.09642C97.1566 8.52681 96.8538 9.94338 96.5509 11.3669C96.5419 11.4114 96.5426 11.4574 96.5532 11.5017C96.5638 11.5459 96.5839 11.5873 96.6121 11.6228C96.6403 11.6584 96.676 11.6874 96.7165 11.7076C96.7571 11.7278 96.8016 11.7389 96.8469 11.74H98.2233C98.2808 11.7402 98.337 11.7233 98.3848 11.6913C98.4326 11.6593 98.4698 11.6137 98.4917 11.5603C98.6407 11.2539 98.8382 10.9739 99.0767 10.7311C99.3545 10.4061 99.6986 10.1448 100.086 9.96475C100.473 9.78474 100.894 9.69026 101.32 9.6877C101.841 9.66656 102.353 9.83597 102.759 10.1645C102.947 10.3253 103.102 10.5226 103.213 10.7446C103.324 10.9666 103.39 11.2087 103.406 11.4567C103.412 11.5331 103.447 11.6043 103.503 11.6566C103.559 11.7089 103.632 11.7386 103.708 11.74H105.044C105.123 11.7366 105.198 11.7035 105.254 11.6472C105.31 11.5909 105.343 11.5155 105.346 11.436V11.3599C105.361 10.8868 105.277 10.4157 105.101 9.97677C104.924 9.53781 104.659 9.14051 104.321 8.81012C103.978 8.4804 103.573 8.22258 103.13 8.05173C102.687 7.88088 102.215 7.80043 101.74 7.81507C100.768 7.8343 99.8207 8.12892 99.0079 8.66501C99.118 8.16057 99.235 7.64232 99.3451 7.12406C99.3451 7.04805 99.3795 6.95822 99.4002 6.88221" fill="#000927"/>
<path d="M59.9373 25.0847C60.0864 25.0847 60.405 25.1527 60.6151 25.1799L60.6896 24.7513C60.4524 24.7105 60.1474 24.6628 59.9441 24.6492C58.8462 24.6016 58.5886 25.0643 58.5886 26.01C58.5886 26.9557 58.8462 27.3707 59.9441 27.3707C60.1996 27.3593 60.4537 27.3251 60.7032 27.2687L60.6151 26.8468C60.3919 26.8947 60.1653 26.9243 59.9373 26.9353C59.4426 26.9353 59.3477 26.7516 59.3477 26.0304C59.3477 25.3092 59.4426 25.0643 59.9373 25.0847ZM52.8684 26.1937C52.8786 26.0276 52.8379 25.8623 52.7519 25.72C52.6659 25.5778 52.5387 25.4653 52.3872 25.3976C52.5068 25.3098 52.6011 25.1918 52.6606 25.0556C52.7201 24.9194 52.7427 24.7698 52.7261 24.622C52.7261 23.9961 52.2517 23.6627 51.4519 23.6627H49.9948V27.2823H51.5536C52.2856 27.2823 52.8684 27.0169 52.8684 26.1937ZM50.72 24.1526H51.4519C51.8721 24.1526 52.0009 24.2478 52.0009 24.6084C52.0009 24.969 51.8721 25.1663 51.5197 25.1663H50.72V24.1526ZM50.72 25.6834H51.5197C51.7705 25.6834 52.1297 25.6834 52.1297 26.1801C52.1297 26.6767 51.9467 26.7652 51.5536 26.7652H50.72V25.6834ZM54.0342 27.3027C54.4868 27.3329 54.9415 27.3124 55.3896 27.2414V25.5201C55.3896 24.9962 55.0575 24.6492 54.3324 24.6492C53.983 24.6638 53.6358 24.7116 53.2954 24.7921L53.37 25.2275C53.6866 25.1576 54.0085 25.1144 54.3324 25.0983C54.5696 25.0983 54.6645 25.2139 54.6645 25.4929V25.5881C54.6645 25.5881 54.2917 25.5881 53.9867 25.5881C53.309 25.663 53.0311 25.976 53.0311 26.425C53.0311 26.874 53.431 27.2482 54.0342 27.3163V27.3027ZM54.1968 26.0576C54.3593 26.0478 54.5223 26.0478 54.6848 26.0576V26.9081C54.5056 26.9421 54.3217 26.9421 54.1426 26.9081C54.0943 26.9048 54.0473 26.8916 54.0044 26.8693C53.9614 26.8469 53.9235 26.816 53.893 26.7783C53.8625 26.7407 53.84 26.6971 53.827 26.6504C53.814 26.6037 53.8106 26.5547 53.8173 26.5066C53.8072 26.4512 53.8096 26.3943 53.8241 26.3399C53.8386 26.2855 53.865 26.235 53.9013 26.1921C53.9376 26.1491 53.9829 26.1148 54.034 26.0915C54.0851 26.0683 54.1407 26.0567 54.1968 26.0576V26.0576ZM63.4142 25.9487C63.4381 25.7712 63.4206 25.5906 63.3631 25.421C63.3056 25.2515 63.2097 25.0976 63.0829 24.9716C62.956 24.8456 62.8018 24.7509 62.6323 24.695C62.4628 24.639 62.2827 24.6234 62.1061 24.6492C61.2047 24.6492 60.7506 25.0234 60.7506 25.9419C60.7506 26.8604 61.0556 27.3367 62.1061 27.3367C63.1566 27.3367 63.4142 26.8468 63.4142 25.9487ZM61.5097 25.9487C61.5097 25.2684 61.6724 25.0915 62.1061 25.0915C62.5399 25.0915 62.6687 25.2888 62.6687 25.9555C62.6687 26.6223 62.5873 26.9081 62.1061 26.9081C61.6249 26.9081 61.4962 26.6903 61.4962 25.9419L61.5097 25.9487ZM64.6612 25.9487C64.6612 26.8468 64.912 27.3503 66.1455 27.3503C66.4627 27.3469 66.7794 27.3264 67.0944 27.2891V23.6627H66.3692V24.6969C66.2022 24.6848 66.0346 24.6848 65.8676 24.6969C64.9256 24.6492 64.6477 25.1391 64.6477 25.9351L64.6612 25.9487ZM66.3692 25.1391V26.8945C66.2565 26.9061 66.143 26.9061 66.0303 26.8945C65.4881 26.8945 65.4203 26.5951 65.4203 25.9487C65.4203 25.3024 65.5084 25.1459 65.8676 25.0915C66.031 25.0717 66.1966 25.0833 66.3556 25.1255L66.3692 25.1391ZM68.6938 27.3503C69.0698 27.3474 69.4444 27.3064 69.8121 27.2278L69.724 26.7924C69.3842 26.8592 69.0398 26.9002 68.6938 26.9149C68.2736 26.9149 68.1788 26.7039 68.1516 26.2345H69.907V25.9419C69.9305 25.769 69.9132 25.5929 69.8566 25.4279C69.8 25.2628 69.7056 25.1134 69.581 24.9917C69.4565 24.8699 69.3052 24.7792 69.1393 24.7268C68.9734 24.6744 68.7977 24.6618 68.6261 24.6901C67.8534 24.6901 67.3926 25.0438 67.3926 26.0508C67.379 26.738 67.5959 27.3367 68.6803 27.3367L68.6938 27.3503ZM68.6532 25.0983C69.0124 25.0983 69.1547 25.2548 69.1683 25.7786H68.1584C68.1584 25.2548 68.3075 25.0847 68.6396 25.0847L68.6532 25.0983ZM57.0501 24.6628C56.6226 24.6695 56.1999 24.7548 55.8031 24.9146V27.2959H56.5215V25.1595C56.6942 25.1141 56.8716 25.089 57.0501 25.0847C57.4364 25.0847 57.5788 25.282 57.5788 25.9351V27.2959H58.3107V25.9351C58.2972 25.0983 57.9922 24.6492 57.0366 24.6492L57.0501 24.6628ZM66.2268 15.9881L64.7697 14.4913L59.9509 19.3287L56.596 15.9269L59.9509 12.525L61.3809 14.0422L62.8381 12.5794L59.9509 9.68106L53.6749 15.9745L59.9509 22.2747L66.2268 15.9881ZM59.9577 9.22521L63.3464 12.6271L59.9577 15.9881L58.5141 14.4913L57.0569 15.9473L59.9441 18.8457L66.2133 12.559L59.9441 6.25879L53.6682 12.559L55.1253 14.0218L59.9577 9.22521ZM56.1216 31.9836C55.6269 31.9836 55.532 31.8067 55.532 31.0855C55.532 30.3643 55.6269 30.1466 56.1216 30.167C56.2639 30.167 56.5825 30.2419 56.7994 30.2623L56.8604 29.8405C56.6165 29.7895 56.3698 29.7531 56.1216 29.7316C55.0237 29.684 54.7661 30.1466 54.7661 31.0923C54.7661 32.0381 55.0372 32.4531 56.1216 32.4531C56.3745 32.4464 56.6263 32.4168 56.8739 32.3646L56.7994 31.936C56.5702 31.9657 56.339 31.9771 56.1081 31.97L56.1216 31.9836ZM53.8783 31.9836C53.3971 31.9836 53.2886 31.8067 53.2886 31.0855C53.2886 30.3643 53.3971 30.1466 53.8783 30.167C54.0341 30.167 54.3459 30.2419 54.556 30.2623L54.6306 29.8405C54.3844 29.7895 54.1355 29.7531 53.885 29.7316C52.7939 29.684 52.5295 30.1466 52.5295 31.0923C52.5295 32.0381 52.8006 32.4531 53.885 32.4531C54.1402 32.4464 54.3942 32.4168 54.6441 32.3646L54.556 31.936C54.327 31.9673 54.0957 31.9787 53.8647 31.97L53.8783 31.9836ZM50.537 28.6974C49.3577 28.6974 48.8223 29.1941 48.8223 30.48C48.8223 31.7659 49.1882 32.4055 50.537 32.4055C51.8857 32.4055 52.2246 31.7251 52.2246 30.4868C52.2246 29.2485 51.6349 28.6974 50.537 28.6974ZM50.537 31.8884C49.7237 31.8884 49.561 31.5482 49.561 30.48C49.561 29.4118 49.8253 29.1941 50.537 29.1941C51.1131 29.1941 51.479 29.5207 51.479 30.4868C51.479 31.4529 51.357 31.8884 50.537 31.8884ZM57.1992 32.3578H57.9244V29.7724H57.1992V32.3578ZM57.1992 29.3778H57.9244V28.8335H57.1992V29.3778ZM59.9848 29.752C59.8188 29.7266 59.6512 29.713 59.4832 29.7112C58.5615 29.7112 58.2836 30.2147 58.2836 31.0107C58.2836 31.8067 58.5276 32.3714 59.7476 32.3714C60.0671 32.3651 60.386 32.3424 60.7032 32.3034V28.7383H60.0254L59.9848 29.752ZM59.9848 31.9496H59.7747H59.6527C59.1105 31.9496 59.0359 31.6298 59.0359 30.9971C59.0359 30.3643 59.1173 30.1806 59.4832 30.133C59.6515 30.1134 59.8219 30.1273 59.9848 30.1738V31.9496ZM65.156 29.7112C64.7295 29.7193 64.3085 29.8094 63.9157 29.9765V32.351H64.6341V30.2351C64.8042 30.1871 64.9794 30.1597 65.156 30.1534C65.5491 30.1534 65.6914 30.3711 65.6914 31.0107V32.3714H66.4166V31.0107C66.4369 30.1738 66.1252 29.7112 65.1763 29.7112H65.156ZM67.9009 31.936C67.7789 31.936 67.7586 31.8067 67.7586 31.5074V30.2215H68.3279V29.7792H67.7586V29.1669H67.0198V29.7792H66.5725V30.2215H67.0198V31.5006C67.0198 32.1061 67.1282 32.3987 67.7653 32.3987C67.9931 32.4024 68.2205 32.3796 68.4431 32.3306L68.355 31.902C68.2125 31.9321 68.0667 31.9436 67.9212 31.936H67.9009ZM62.2959 29.718C61.5165 29.718 61.0624 30.0786 61.0624 31.0787C61.0624 31.8476 61.2793 32.4395 62.3637 32.4395C62.7378 32.4383 63.1107 32.3949 63.4752 32.3102L63.4142 31.8408C63.0767 31.9089 62.7346 31.9521 62.3908 31.97C61.9638 31.97 61.8621 31.7523 61.8418 31.2897H63.5972V30.9903C63.604 30.1398 63.1566 29.718 62.3162 29.718H62.2959ZM61.8486 30.8202C61.8486 30.3031 62.018 30.1398 62.3433 30.1398C62.6687 30.1398 62.8381 30.2963 62.8584 30.8202H61.8486ZM71.0456 30.9631C71.07 30.7903 71.0537 30.6141 70.998 30.4488C70.9422 30.2835 70.8486 30.1336 70.7247 30.0112C70.6008 29.8888 70.45 29.7972 70.2845 29.7439C70.1189 29.6907 69.9432 29.6771 69.7715 29.7044C68.9988 29.7044 68.5312 30.065 68.5312 31.0651C68.5312 31.8408 68.7548 32.4259 69.8392 32.4259C70.2135 32.4269 70.5866 32.3836 70.9507 32.2966L70.8694 31.868C70.5291 31.9314 70.1849 31.9723 69.8392 31.9904C69.419 31.9904 69.3174 31.7727 69.297 31.3101H71.0456V30.9631ZM69.297 30.827C69.297 30.3031 69.4665 30.1466 69.7986 30.1466C70.1307 30.1466 70.2933 30.3099 70.3137 30.827H69.297Z" fill="#000927"/>
<g clip-path="url(#clip0_4206_27450)">
<path fill-rule="evenodd" clip-rule="evenodd" d="M332.718 16.9177C333.8 15.8634 335.551 15.8634 336.635 16.9177L342.319 22.455C342.541 22.5979 342.754 22.7577 342.958 22.9343L348.826 28.5758L344.868 32.381L335.241 23.1221C337.155 21.2798 340.109 21.0532 342.285 22.4335C340.111 20.5115 336.75 20.5738 334.655 22.6203L324.659 32.381L320.751 28.5689L332.718 16.9177ZM384.337 16.9177C385.421 15.8634 387.172 15.8634 388.256 16.9177L394.107 22.6203C391.944 20.5095 388.439 20.5095 386.273 22.6203L376.28 32.381L372.372 28.5689L384.337 16.9177ZM385.957 23.1231C388.075 21.081 391.471 21.0233 393.673 22.9353L399.541 28.5762L395.584 32.381L385.957 23.1231ZM402.258 21.545C402.256 24.5454 404.755 26.9769 407.839 26.9726L419.465 26.9619L419.459 32.381L405.051 32.3723C403.511 32.3723 402.259 31.1571 402.258 29.6558V21.545ZM370.278 16.127L374.183 19.9392L362.217 31.591C361.135 32.6443 359.382 32.6443 358.3 31.591L352.448 25.8881C354.612 27.9979 358.119 27.9979 360.281 25.8881L370.278 16.127ZM350.97 16.127L360.599 25.3865C358.481 27.4268 355.083 27.4845 352.882 25.5722L347.014 19.9324L350.97 16.127ZM407.692 16.127L407.681 26.06C404.773 26.061 402.402 23.8508 402.258 21.0695L402.261 16.1301L407.692 16.127ZM359.829 7.09701C360.53 7.09701 361.141 7.35148 361.644 7.8793C362.156 8.39157 362.41 9.05497 362.41 9.86726C362.41 10.6818 362.156 11.3429 361.644 11.8697C361.141 12.3842 360.53 12.6397 359.829 12.6397C358.937 12.6397 358.256 12.3175 357.775 11.6663V14.321H356.976V7.2248H357.775V8.07043C358.256 7.41815 358.937 7.09701 359.829 7.09701ZM337.101 5.29102C338.667 5.29102 339.936 6.04758 340.443 7.30528L339.694 7.56394C339.194 6.57674 338.254 6.05728 337.101 6.05728C336.308 6.05728 335.632 6.33964 335.091 6.89036C334.553 7.43892 334.277 8.10495 334.277 8.90247C334.277 9.70214 334.553 10.3779 335.102 10.9286C335.662 11.4782 336.34 11.7477 337.142 11.7477C337.885 11.7477 338.497 11.5203 338.994 11.0633C339.491 10.6063 339.787 10.0244 339.874 9.30769H336.742V8.55975H340.666C340.675 8.65351 340.675 8.76991 340.675 8.91432C340.675 9.94139 340.335 10.7917 339.672 11.4879C339.006 12.1734 338.158 12.515 337.124 12.515C336.084 12.515 335.211 12.1647 334.5 11.4685C333.792 10.7712 333.43 9.91122 333.43 8.90247C333.43 7.8948 333.78 7.03585 334.489 6.33964C335.197 5.64451 336.074 5.29102 337.101 5.29102ZM346.602 7.09701C346.77 7.09701 346.907 7.10831 347.014 7.14107L346.945 7.93637C346.873 7.92394 346.756 7.92394 346.602 7.92394C345.122 7.92394 344.293 8.93614 344.293 10.4499V12.515H343.392V7.15237H344.293V8.46845C344.831 7.55454 345.602 7.09701 346.602 7.09701ZM349.58 7.09701V10.1112C349.58 11.0981 350.122 11.7531 350.917 11.7531C351.948 11.7531 352.596 10.9801 352.596 9.63892V7.09701H353.354V12.3758H352.596V11.5169C352.182 12.1831 351.576 12.515 350.771 12.515C350.191 12.515 349.719 12.3134 349.354 11.8923C349.003 11.4735 348.826 10.9388 348.826 10.2627V7.09701H349.58ZM367.848 7.09701C368.607 7.09701 369.251 7.34987 369.772 7.86431C370.301 8.36895 370.561 9.00873 370.561 9.79565C370.561 10.5848 370.301 11.2343 369.772 11.7488C369.251 12.261 368.607 12.515 367.848 12.515C367.08 12.515 366.436 12.261 365.907 11.7488C365.387 11.2343 365.127 10.5848 365.127 9.79565C365.127 9.00873 365.387 8.36895 365.907 7.86431C366.436 7.34987 367.08 7.09701 367.848 7.09701ZM359.702 7.81485C359.191 7.81485 358.737 8.00598 358.348 8.39157C357.963 8.76494 357.775 9.25943 357.775 9.86726C357.775 10.4684 357.963 10.9607 358.348 11.3429C358.737 11.7196 359.191 11.913 359.702 11.913C360.247 11.913 360.711 11.7308 361.077 11.3574C361.444 10.9818 361.634 10.4784 361.634 9.86726C361.634 9.25943 361.444 8.75605 361.077 8.38046C360.711 8.00598 360.247 7.81485 359.702 7.81485ZM367.848 7.8011C367.307 7.8011 366.852 7.98857 366.467 8.36895C366.086 8.73843 365.898 9.21799 365.898 9.79565C365.898 10.3842 366.086 10.8681 366.467 11.2442C366.852 11.6224 367.307 11.812 367.848 11.812C368.378 11.812 368.835 11.6224 369.21 11.2442C369.595 10.8681 369.782 10.3842 369.782 9.79565C369.782 9.21799 369.595 8.73843 369.21 8.36895C368.835 7.98857 368.378 7.8011 367.848 7.8011Z" fill="#000927"/>
</g>
<path fill-rule="evenodd" clip-rule="evenodd" d="M248.126 14.7311V30.8087H243.319V29.3054C242.283 30.5164 240.709 31.2681 238.554 31.2681C234.369 31.2681 230.93 27.5514 230.93 22.7908C230.93 17.9884 234.369 14.3135 238.554 14.3135C240.709 14.3135 242.242 15.0652 243.319 16.2762V14.7728H248.126V14.7311ZM243.36 22.749C243.36 20.3269 241.744 18.8236 239.548 18.8236C237.352 18.8236 235.736 20.3269 235.736 22.749C235.736 25.1711 237.352 26.6745 239.548 26.6745C241.744 26.6745 243.36 25.1711 243.36 22.749Z" fill="#000927"/>
<path d="M223.719 28.0114C223.719 26.2157 225.169 24.7959 226.909 24.7959C228.691 24.7959 230.1 26.2575 230.1 28.0114C230.1 29.8071 228.65 31.227 226.909 31.227C225.128 31.2687 223.719 29.8071 223.719 28.0114Z" fill="#E8415B"/>
<path d="M275.593 28.0114C275.593 26.2157 277.043 24.7959 278.783 24.7959C280.524 24.7959 281.974 26.2575 281.974 28.0114C281.974 29.8071 280.524 31.227 278.783 31.227C277.043 31.227 275.593 29.8071 275.593 28.0114Z" fill="#F5BD41"/>
<path fill-rule="evenodd" clip-rule="evenodd" d="M250.856 8.3418H255.663V30.8087H250.856V8.3418Z" fill="#000927"/>
<path d="M276.342 8.3418H281.148V23.0831H276.342V8.3418Z" fill="#5FD0D6"/>
<path fill-rule="evenodd" clip-rule="evenodd" d="M266.273 26.9258C267.599 26.9258 268.718 26.4246 269.339 25.7147L273.151 27.928C271.577 30.0995 269.215 31.2271 266.19 31.2271C260.721 31.2271 257.364 27.5104 257.364 22.7498C257.364 17.9473 260.803 14.2725 265.859 14.2725C270.499 14.2725 273.98 17.9056 273.98 22.7498C273.98 23.4179 273.897 24.0861 273.773 24.6707H262.461C263.041 26.3829 264.533 26.9258 266.273 26.9258ZM269.215 21.0794C268.718 19.2002 267.267 18.532 265.817 18.532C263.994 18.532 262.792 19.4507 262.337 21.0794H269.215Z" fill="#000927"/>
<path fill-rule="evenodd" clip-rule="evenodd" d="M222.145 28.0108C222.145 27.4262 222.228 26.8833 222.435 26.3822C221.938 26.591 221.4 26.6745 220.819 26.6745C218.623 26.6745 217.007 25.1711 217.007 22.749C217.007 20.3269 218.623 18.8236 220.819 18.8236C223.016 18.8236 224.631 20.3269 224.631 22.749C224.631 23.1666 224.59 23.5425 224.507 23.8766C225.212 23.459 226.04 23.2084 226.91 23.2084C227.822 23.2084 228.692 23.459 229.438 23.9183V8.3418H224.631V16.2345C223.596 15.0234 222.021 14.2717 219.866 14.2717C215.681 14.2717 212.242 17.9884 212.242 22.749C212.242 27.5514 215.681 31.2263 219.866 31.2263C221.027 31.2263 222.062 31.0175 222.891 30.5999C222.435 29.89 222.145 28.9713 222.145 28.0108Z" fill="#000927"/>
<defs>
<clipPath id="clip0_4206_27450">
<rect width="100.525" height="28.8959" fill="white" transform="translate(319.846 5.29102)"/>
</clipPath>
</defs>
</svg>
