<?xml version="1.0" encoding="UTF-8"?>
<svg width="124px" height="40px" viewBox="0 0 124 40" version="1.1" xmlns="http://www.w3.org/2000/svg" xmlns:xlink="http://www.w3.org/1999/xlink">
    <title>Logo/color Copy</title>
    <g id="Desktop" stroke="none" stroke-width="1" fill="none" fill-rule="evenodd">
        <g id="Home-empty-desktop" transform="translate(-69.000000, -47.000000)" fill-rule="nonzero">
            <g id="Logo/color-Copy" transform="translate(69.671053, 47.000000)">
                <path d="M63.1578947,11.2534015 L63.1578947,39.2009026 L54.698857,39.2009026 L54.698857,36.5875755 C52.8750446,38.6933364 50.1043424,40 46.3121187,40 C38.946902,40 32.8947368,33.5386938 32.8947368,25.2631579 C32.8947368,16.9144488 38.946902,10.5263158 46.3121187,10.5263158 C50.1043424,10.5263158 52.8027451,11.8341408 54.698857,13.9387403 L54.698857,11.3254132 L63.1578947,11.3254132 L63.1578947,11.25224 L63.1578947,11.2534015 Z M54.7711565,25.1911462 C54.7711565,20.9807858 51.9281548,18.3674587 48.0624655,18.3674587 C44.1979424,18.3674587 41.3537746,20.9807858 41.3537746,25.1911462 C41.3537746,29.4015066 44.1979424,32.0148337 48.0624655,32.0148337 C51.9281548,32.0148337 54.7711565,29.4015066 54.7711565,25.1911462 Z" id="Shape" fill="#FFFFFF"></path>
                <path d="M20.2631579,34.4183323 C20.32593,31.3789346 22.8405774,28.9473684 25.9210524,28.9473684 C29.0015274,28.9473684 31.5161748,31.3789346 31.5789474,34.4183323 C31.580122,37.534252 29.0079245,39.9984609 25.9222275,39.9984609 C22.7613269,40.0715174 20.2631579,37.534252 20.2631579,34.4171727 L20.2631579,34.4183323 Z" id="Path" fill="#E8415B"></path>
                <path d="M111.315789,34.3426931 C111.315789,31.1825017 113.88772,28.6842105 116.973097,28.6842105 C120.059648,28.6842105 122.631579,31.2565687 122.631579,34.3426931 C122.631579,37.5017088 120.059648,40 116.973097,40 C113.88772,40 111.315789,37.5017088 111.315789,34.3415174 L111.315789,34.3426931 Z" id="Path" fill="#FFC700"></path>
                <polygon id="Path" fill="#FFFFFF" points="67.8947368 0 76.3157895 0 76.3157895 39.2105263 67.8947368 39.2105263"></polygon>
                <polygon id="Path" fill="#2FCCF2" points="112.894737 0 121.315789 0 121.315789 25.7894737 112.894737 25.7894737"></polygon>
                <path d="M95.1176385,32.4823358 C97.4504683,32.4823358 99.4217096,31.6064234 100.51464,30.3649635 L107.226192,34.2341606 C104.453624,38.029781 100.296521,40 94.9718366,40 C85.3430813,40 79.4351897,33.5030657 79.4351897,25.1818978 C79.4351897,16.7883212 85.4888832,10.3649635 94.3886291,10.3649635 C102.557033,10.3649635 108.684211,16.7159124 108.684211,25.1830657 C108.684211,26.3509489 108.538409,27.5188321 108.320289,28.5407299 L88.4060869,28.5407299 C89.4278664,31.5328467 92.0534664,32.4823358 95.1176385,32.4823358 L95.1176385,32.4823358 Z M100.296521,22.2633577 C99.4217096,18.9781022 96.8672609,17.810219 94.315145,17.810219 C91.1051711,17.810219 88.9904608,19.4160584 88.1879673,22.2633577 L100.295354,22.2633577 L100.296521,22.2633577 Z M17.4332376,34.380146 C17.4332376,33.3582482 17.5790394,32.4087591 17.9441273,31.5328467 C17.0693161,31.8983942 16.1198544,32.0443796 15.0992413,32.0443796 C11.2337422,32.0443796 8.38885619,29.4166423 8.38885619,25.1830657 C8.38885619,20.9494891 11.2337422,18.3217518 15.0992413,18.3217518 C18.9647404,18.3217518 21.8096264,20.9494891 21.8096264,25.1830657 C21.8096264,25.9129927 21.7373087,26.5693431 21.5915068,27.1532847 C22.8728892,26.3942399 24.3332654,25.9910928 25.8220938,25.9854015 C27.4270807,25.9854015 28.9585835,26.4233577 30.2708003,27.2268613 L30.2708003,0 L21.8096264,0 L21.8096264,13.7962044 C19.9865199,11.6788321 17.2139516,10.3649635 13.4219366,10.3649635 C6.05485991,10.3649635 0,16.8618978 0,25.1830657 C0,33.5766423 6.0536935,40 13.4219366,40 C15.4631628,40 17.2874357,39.6344526 18.7466208,38.9045255 C17.8889456,37.5517235 17.4334149,35.9824984 17.4332376,34.380146 Z" id="Shape" fill="#FFFFFF"></path>
            </g>
        </g>
    </g>
</svg>