<?xml version="1.0" encoding="UTF-8"?>
<svg width="117px" height="116px" viewBox="0 0 117 116" version="1.1" xmlns="http://www.w3.org/2000/svg" xmlns:xlink="http://www.w3.org/1999/xlink">
    <title>Group 5</title>
    <g id="Mobile" stroke="none" stroke-width="1" fill="none" fill-rule="evenodd">
        <g id="OTP-verificar-teléfono/mobile" transform="translate(51.000000, 52.000000)">
            <g id="Group-5" transform="translate(-50.500000, -51.500000)">
                <path d="M58,115.5 C89.7564512,115.5 115.5,89.5327615 115.5,57.5003736 C115.5,25.4679857 89.7564512,-0.5 58,-0.5 C26.2435488,-0.5 0.5,25.4679857 0.5,57.5003736 C0.5,89.5327615 26.2435488,115.5 58,115.5 M58,23.1904724 C76.7854125,23.1904724 92.0143453,38.5517318 92.0143453,57.5003736 C92.0143453,76.4490154 76.7854125,91.8102749 58,91.8102749 C39.2145875,91.8102749 23.9856547,76.4490154 23.9856547,57.5003736 C23.9856547,38.5517318 39.2145875,23.1904724 58,23.1904724" id="Fill-217-Copy" fill="#E73743" transform="translate(58.000000, 57.500000) rotate(-270.000000) translate(-58.000000, -57.500000) "></path>
                <path d="M42.5,57.5 C42.5,49.2160425 49.2154509,42.5 57.5003811,42.5 C65.7845491,42.5 72.5,49.2160425 72.5,57.5 C72.5,65.7839575 65.7845491,72.5 57.5003811,72.5 C49.2154509,72.5 42.5,65.7839575 42.5,57.5" id="Fill-219-Copy" fill="#FDC608" transform="translate(57.500000, 57.500000) rotate(-270.000000) translate(-57.500000, -57.500000) "></path>
            </g>
        </g>
    </g>
</svg>