<svg width="32" height="32" viewBox="0 0 32 32" fill="none" xmlns="http://www.w3.org/2000/svg">
<path d="M4.34315 26.4567C7.46734 29.5809 12.5327 29.5809 15.6569 26.4567C18.781 23.3325 18.781 18.2671 15.6569 15.143C12.5327 12.0188 7.46734 12.0188 4.34315 15.143C1.21895 18.2671 1.21895 23.3325 4.34315 26.4567Z" fill="#00F6B4"/>
<path d="M28.2568 19.7216L28.178 19.6761C27.8048 19.4606 27.4039 19.3388 27.0009 19.2978C27.121 18.1709 26.5859 17.0248 25.5427 16.4225L25.4639 16.377C25.0907 16.1615 24.6898 16.0398 24.2868 15.9988C24.4069 14.8719 23.8718 13.7257 22.8286 13.1235L22.7498 13.078C22.4601 12.9107 22.1538 12.8014 21.8425 12.7406L24.4017 8.30785C25.267 6.80919 24.8206 4.98629 23.386 4.15804L23.3072 4.11254C21.8965 3.29804 20.0861 3.78278 19.2713 5.19397L14.8483 12.8548L14.5218 11.6363C14.1004 10.0622 12.4768 9.12542 10.9015 9.54788L10.8159 9.57119C10.0535 9.77475 9.41615 10.2636 9.0214 10.9473C8.6269 11.6306 8.5222 12.427 8.72644 13.1892L9.29506 15.3113C9.73246 16.9437 9.8055 17.5892 8.996 18.9913C7.22875 22.0523 8.84372 25.8351 12.9227 28.1901L16.3868 30.1901C23.315 34.1901 27.311 27.2688 28.8155 24.6629L29.3383 23.7575C30.153 22.3463 29.6676 20.5361 28.2568 19.7216ZM27.0835 23.6629C24.746 27.7116 21.9534 31.0945 17.3868 28.458L13.9227 26.458C10.8635 24.6918 9.54955 22.0325 10.7281 19.9913C11.9331 17.9042 11.7205 16.6354 11.2271 14.794L10.6584 12.6719C10.5921 12.4258 10.6264 12.1684 10.7539 11.9476C10.8816 11.7263 11.0871 11.5684 11.3357 11.5018L11.4214 11.4785C11.93 11.3425 12.4543 11.6453 12.5905 12.1535L13.5293 15.6584C13.6023 15.931 13.7818 16.146 14.0105 16.2729C14.0153 16.2756 14.0193 16.2797 14.0241 16.2824C14.5021 16.5584 15.1141 16.3944 15.3901 15.9164L21.0034 6.19397C21.2666 5.738 21.8513 5.58134 22.3072 5.84459L22.386 5.89009C22.8649 6.16659 22.9844 6.76268 22.6697 7.30785L18.7139 14.1594C18.4379 14.6375 18.6019 15.2494 19.0799 15.5254C19.558 15.8014 20.17 15.6375 20.446 15.1594C20.7092 14.7034 21.2939 14.5468 21.7498 14.81L21.8286 14.8555C22.2846 15.1188 22.4413 15.7034 22.178 16.1594L21.6553 17.0648C21.6293 17.1099 21.6105 17.1574 21.5924 17.2047C21.5338 17.2851 21.479 17.3701 21.428 17.4584C21.152 17.9365 21.316 18.5485 21.794 18.8245C22.2721 19.1005 22.8841 18.9365 23.1601 18.4584C23.4233 18.0025 24.008 17.8458 24.4639 18.1091L24.5427 18.1546C24.9987 18.4178 25.1554 19.0025 24.8921 19.4584L24.3694 20.3639C24.3434 20.4089 24.3246 20.4564 24.3065 20.5037C24.2479 20.5842 24.1931 20.6691 24.1421 20.7575C23.8661 21.2355 24.0301 21.8475 24.5081 22.1235C24.9862 22.3995 25.5982 22.2355 25.8742 21.7575C26.1374 21.3015 26.7221 21.1449 27.178 21.4081L27.2568 21.4536C27.7128 21.7169 27.8695 22.3015 27.6062 22.7575L27.0835 23.6629ZM16.495 6.00266C16.973 6.27866 17.585 6.11468 17.861 5.63663L18.861 3.90458C19.137 3.42654 18.973 2.81456 18.495 2.53856C18.017 2.26256 17.405 2.42654 17.129 2.90458L16.129 4.63663C15.853 5.11468 16.017 5.72666 16.495 6.00266ZM12.9233 4.73207C12.9944 4.99888 13.1674 5.21132 13.3891 5.33932C13.6108 5.46732 13.8812 5.51088 14.1478 5.43907C14.6813 5.29614 14.9978 4.74794 14.8548 4.21451L14.1385 1.5412C13.996 1.00802 13.447 0.691015 12.914 0.834198C12.3805 0.977131 12.064 1.52533 12.207 2.05876L12.9233 4.73207ZM12.4077 7.08212C12.6837 6.60407 12.5197 5.99209 12.0416 5.71609L10.3096 4.71609C9.83155 4.44009 9.21957 4.60407 8.94357 5.08212C8.66757 5.56016 8.83155 6.17214 9.3096 6.44814L11.0416 7.44814C11.5197 7.72414 12.1314 7.5606 12.4077 7.08212Z" fill="#000927"/>
</svg>
