<?xml version="1.0" encoding="UTF-8"?>
<svg width="184px" height="54px" viewBox="0 0 184 54" version="1.1" xmlns="http://www.w3.org/2000/svg" xmlns:xlink="http://www.w3.org/1999/xlink">
    <title>fogafin-logo</title>
    <defs>
        <polygon id="path-1" points="0 54 184 54 184 0 0 0"></polygon>
    </defs>
    <g id="Desktop" stroke="none" stroke-width="1" fill="none" fill-rule="evenodd">
        <g id="Verificar-celular" transform="translate(-1080.000000, -955.000000)">
            <g id="Footer" transform="translate(0.000000, 926.000000)">
                <g id="fogafin-logo" transform="translate(1080.000000, 29.000000)">
                    <path d="M92.4762381,14.7444861 C92.5431498,14.766958 92.6226074,14.766958 92.7121017,14.766958 C93.4564937,14.766958 93.7935611,14.2401165 93.7935611,13.5334998 C93.7935611,12.8726592 93.5234054,12.3566375 92.8358882,12.3566375 C92.713719,12.3551416 92.5921586,12.3739895 92.4762381,12.4124012 L92.4762381,14.7444861 L92.4762381,14.7444861 Z M91,11.3137744 C91.5082114,11.2141121 92.0251714,11.1653185 92.5431498,11.1681232 C93.4213651,11.1681232 94.1097186,11.2913025 94.6048648,11.7507283 C95.055682,12.1435705 95.2589261,12.7711194 95.2589261,13.4103204 C95.2589261,14.2284644 95.0105166,14.8002497 94.6157379,15.2263837 C94.1431745,15.7191011 93.3770361,15.9446525 92.7689766,15.9446525 L92.4762381,15.9446525 L92.4762381,18.7578027 L91,18.7578027 L91,11.3137744 L91,11.3137744 Z M95.8895684,14.9242613 C95.8895684,14.374948 95.8661493,13.7806908 95.844403,13.2763213 L97.1282702,13.2763213 L97.2068914,14.0719933 L97.2403472,14.0719933 C97.4879203,13.4893883 97.9278643,13.1864336 98.3335162,13.1864336 C98.4798854,13.1864336 98.5593429,13.1864336 98.6488373,13.2089055 L98.6488373,14.6654182 C98.5593429,14.6437786 98.4573027,14.6437786 98.3335162,14.6437786 C98.018195,14.6437786 97.60167,14.8560133 97.4327181,15.4277986 C97.3992623,15.5518102 97.3758433,15.741573 97.3758433,15.9771119 L97.3758433,18.7569705 L95.8895684,18.7569705 L95.8895684,14.9242613 Z M100.327483,15.9995839 C100.327483,16.9409072 100.473852,17.7257595 101.002454,17.7257595 C101.476691,17.7257595 101.599641,16.806908 101.599641,15.9995839 C101.599641,15.2488556 101.476691,14.2958801 100.980708,14.2958801 C100.43956,14.2958801 100.327483,15.2488556 100.327483,15.9995839 M103.075043,15.9995839 C103.075043,18.2867249 101.803721,18.8476904 100.968999,18.8476904 C99.6516755,18.8476904 98.8621181,17.8156471 98.8621181,16.0337079 C98.8621181,14.0603412 99.8992486,13.1864336 100.991581,13.1864336 C102.287994,13.1864336 103.075043,14.2734082 103.075043,15.9995839 M106.320257,15.3828548 C106.320257,15.2829796 106.320257,15.1706201 106.308548,15.0582605 C106.253346,14.7220141 106.071848,14.4190595 105.779109,14.4190595 C105.260544,14.4190595 105.069846,15.1706201 105.069846,16.0561798 C105.069846,17.0982106 105.351711,17.6475239 105.768236,17.6475239 C105.948898,17.6475239 106.162178,17.5468165 106.275092,17.1656263 C106.310324,17.0571542 106.325623,16.9432519 106.320257,16.8293799 L106.320257,15.3828548 L106.320257,15.3828548 Z M107.796495,11 L107.796495,17.1323346 C107.796495,17.6583437 107.818242,18.2526009 107.841661,18.7578027 L106.56783,18.7578027 L106.489209,18.1402414 L106.466626,18.1402414 C106.263382,18.5222638 105.824275,18.8476904 105.317419,18.8476904 C104.146465,18.8476904 103.604481,17.5576363 103.604481,16.0220558 C103.604481,14.1161049 104.438367,13.1864336 105.374294,13.1864336 C105.858567,13.1864336 106.162178,13.4211402 106.297675,13.735747 L106.320257,13.735747 L106.320257,11 L107.796495,11 Z M112.752139,17.0873908 C112.752139,17.6699958 112.774722,18.2417811 112.797304,18.7578027 L111.52431,18.7578027 L111.446526,18.1743654 L111.423106,18.1743654 C111.163824,18.5447357 110.713843,18.8468581 110.150949,18.8468581 C109.102945,18.8468581 108.674711,18.0728256 108.674711,16.593841 L108.674711,13.275489 L110.160986,13.275489 L110.160986,16.4365377 C110.160986,17.1539742 110.297318,17.6133999 110.713843,17.6133999 C110.96058,17.6133999 111.118658,17.4236371 111.186407,17.2446941 C111.243281,17.1323346 111.276737,16.9642114 111.276737,16.7736163 L111.276737,13.275489 L112.752139,13.275489 L112.752139,17.0873908 L112.752139,17.0873908 Z M116.751782,18.6679151 C116.605413,18.7344985 116.233217,18.8252185 115.816692,18.8252185 C114.419912,18.8252185 113.507404,17.8605909 113.507404,16.0669996 C113.507404,14.3741157 114.510242,13.1972534 116.031646,13.1972534 C116.380423,13.1972534 116.694908,13.275489 116.842113,13.3429047 L116.650579,14.4981273 C116.474327,14.4310889 116.287245,14.3966767 116.098558,14.3965876 C115.389294,14.3965876 114.971933,15.0690803 114.971933,16.0220558 C114.971933,17.019975 115.389294,17.625052 116.075975,17.625052 C116.290092,17.625052 116.470754,17.5917603 116.627996,17.5135248 L116.751782,18.6679151 L116.751782,18.6679151 Z M119.17482,11.8414482 L119.17482,13.275489 L120.25628,13.275489 L120.25628,14.3183521 L119.17482,14.3183521 L119.17482,16.8177278 C119.17482,17.4569288 119.444976,17.6142322 119.737715,17.6142322 C119.884084,17.6142322 119.996997,17.6034124 120.120784,17.5809405 L120.131657,18.7236787 C119.837092,18.7962109 119.534254,18.8300675 119.230859,18.8243862 C118.801788,18.8243862 118.430428,18.7236787 118.171982,18.47732 C117.867534,18.1860175 117.698582,17.7715356 117.698582,16.9076155 L117.698582,14.3191844 L117.045357,14.3191844 L117.045357,13.275489 L117.697746,13.275489 L117.697746,12.3008739 L119.17482,11.8406159 L119.17482,11.8414482 Z M122.035293,15.9995839 C122.035293,16.9409072 122.181662,17.7257595 122.710264,17.7257595 C123.184501,17.7257595 123.307451,16.806908 123.307451,15.9995839 C123.307451,15.2488556 123.184501,14.2958801 122.688518,14.2958801 C122.14737,14.2958801 122.035293,15.2488556 122.035293,15.9995839 M124.782853,15.9995839 C124.782853,18.2867249 123.511531,18.8476904 122.677645,18.8476904 C121.359486,18.8476904 120.569928,17.8156471 120.569928,16.0337079 C120.569928,14.0603412 121.607059,13.1864336 122.699391,13.1864336 C123.995804,13.1864336 124.782853,14.2734082 124.782853,15.9995839 M128.647836,16.7511444 C128.647836,16.9417395 128.670419,17.1090304 128.727294,17.2222222 C128.839371,17.5584686 129.030906,17.6466916 129.199021,17.6466916 C129.717586,17.6466916 129.898248,16.8851436 129.898248,16.0220558 C129.898248,14.980025 129.649838,14.4190595 129.210731,14.4190595 C128.98574,14.4190595 128.771623,14.6321265 128.715584,14.8901373 C128.658709,15.0016646 128.648673,15.1481481 128.648673,15.281315 L128.648673,16.7511444 L128.647836,16.7511444 Z M127.171598,15.0133167 C127.171598,14.3524761 127.149016,13.7915106 127.126433,13.275489 L128.411136,13.275489 L128.489758,13.9038702 L128.51234,13.9038702 C128.738167,13.454432 129.154692,13.1864336 129.661548,13.1864336 C130.878503,13.1864336 131.373649,14.4981273 131.373649,16.011236 C131.373649,17.9612984 130.507144,18.8476904 129.582927,18.8476904 C129.132109,18.8476904 128.828498,18.5672077 128.670419,18.3091968 L128.647836,18.3091968 L128.647836,20.9101124 L127.171598,20.9101124 L127.171598,15.0124844 L127.171598,15.0133167 Z M132.094622,14.9242613 C132.094622,14.374948 132.07204,13.7806908 132.050293,13.2763213 L133.334161,13.2763213 L133.412782,14.0719933 L133.446238,14.0719933 C133.693811,13.4893883 134.133755,13.1864336 134.539407,13.1864336 C134.685776,13.1864336 134.765233,13.1864336 134.854728,13.2089055 L134.854728,14.6654182 C134.764397,14.6437786 134.663193,14.6437786 134.539407,14.6437786 C134.224085,14.6437786 133.80756,14.8560133 133.638609,15.4277986 C133.604316,15.5518102 133.581734,15.741573 133.581734,15.9771119 L133.581734,18.7569705 L132.094622,18.7569705 L132.094622,14.9242613 L132.094622,14.9242613 Z M136.533374,15.9995839 C136.533374,16.9409072 136.679743,17.7257595 137.209181,17.7257595 C137.682581,17.7257595 137.806368,16.806908 137.806368,15.9995839 C137.806368,15.2488556 137.682581,14.2958801 137.187435,14.2958801 C136.646287,14.2958801 136.533374,15.2488556 136.533374,15.9995839 M139.281769,15.9995839 C139.281769,18.2867249 138.009612,18.8476904 137.175725,18.8476904 C135.857566,18.8476904 135.068009,17.8156471 135.068009,16.0337079 C135.068009,14.0603412 136.105139,13.1864336 137.198308,13.1864336 C138.493885,13.1864336 139.281769,14.2734082 139.281769,15.9995839 M141.737427,11.8414482 L141.737427,13.275489 L142.819722,13.275489 L142.819722,14.3183521 L141.738263,14.3183521 L141.738263,16.8177278 C141.738263,17.4569288 142.008419,17.6142322 142.301157,17.6142322 C142.447526,17.6142322 142.56044,17.6034124 142.684226,17.5809405 L142.6951,18.7236787 C142.400535,18.7962109 142.097697,18.8300675 141.794302,18.8243862 C141.366067,18.8243862 140.993871,18.7236787 140.735425,18.47732 C140.431813,18.1860175 140.262025,17.7715356 140.262025,16.9076155 L140.262025,14.3191844 L139.6088,14.3191844 L139.6088,13.275489 L140.262025,13.275489 L140.262025,12.3008739 L141.738263,11.8406159 L141.737427,11.8414482 Z M145.87173,15.5068664 C145.87173,14.8002497 145.691068,14.2509363 145.252797,14.2509363 C144.767688,14.2509363 144.575317,14.9583854 144.56528,15.5068664 L145.87173,15.5068664 Z M144.55357,16.5389097 C144.576153,17.3895131 145.072136,17.7041199 145.724524,17.7041199 C146.081389,17.7016456 146.435428,17.6409136 146.772528,17.5243446 L146.975772,18.5780275 C146.591866,18.7236787 146.018099,18.8243862 145.454368,18.8243862 C143.956384,18.8243862 143.133371,17.838119 143.133371,16.1235955 C143.133371,14.284228 144.09188,13.1864336 145.341455,13.1864336 C146.524955,13.1864336 147.212472,14.1161049 147.212472,15.775697 C147.212472,16.1685393 147.200762,16.380774 147.167307,16.5380774 L144.55357,16.5380774 L144.55357,16.5389097 Z M150.478597,15.2704952 C150.478597,15.1256762 150.456014,14.9791927 150.422558,14.8676654 C150.355646,14.6321265 150.197568,14.4190595 149.949158,14.4190595 C149.41972,14.4190595 149.205602,15.1373283 149.205602,16.0337079 C149.205602,17.054099 149.498341,17.5684561 149.915702,17.5684561 C150.107237,17.5684561 150.297935,17.4685809 150.411685,17.1772784 C150.456014,17.054099 150.478597,16.8859759 150.478597,16.7394923 L150.478597,15.2713275 L150.478597,15.2704952 Z M151.943125,18.1410737 C151.943125,19.3179359 151.729008,19.968789 151.278191,20.3940907 C150.873375,20.7752809 150.297935,21 149.487468,21 C148.980612,21 148.507212,20.9101124 148.11327,20.7419892 L148.383426,19.6092385 C148.664455,19.7324178 149.014068,19.8447774 149.442302,19.8447774 C150.185858,19.8447774 150.478597,19.3512276 150.478597,18.511444 L150.478597,18.1743654 L150.456014,18.1743654 C150.265316,18.5222638 149.88141,18.7236787 149.464885,18.7236787 C148.225347,18.7236787 147.741074,17.3786933 147.741074,16.0669996 C147.741074,14.2401165 148.57496,13.1864336 149.599545,13.1864336 C150.039489,13.1864336 150.399975,13.4111527 150.614093,13.8256346 L150.636675,13.8256346 L150.715296,13.2763213 L152,13.2763213 C151.977417,13.7690387 151.943125,14.3524761 151.943125,15.0133167 L151.943125,18.1410737 L151.943125,18.1410737 Z" id="Shape" fill="#090E35" fill-rule="nonzero"></path>
                    <g id="Clipped">
                        <mask id="mask-2" fill="white">
                            <use xlink:href="#path-1"></use>
                        </mask>
                        <g id="c"></g>
                        <path d="M153.383613,19.2099792 L154.854513,19.2099792 L154.854513,13.7322245 L153.383613,13.7322245 L153.383613,19.2099792 Z M154.854513,12.2769231 C154.866181,12.7467775 154.529499,13.0719335 154.080312,13.0719335 C153.676127,13.0719335 153.339445,12.7467775 153.350279,12.2769231 C153.339445,11.7837838 153.698628,11.4810811 154.102813,11.4810811 C154.529499,11.4810811 154.854513,11.7837838 154.854513,12.2769231 L154.854513,12.2769231 Z M158.290502,15.8378378 C158.290502,15.7380457 158.290502,15.6257796 158.278002,15.5135135 C158.222999,15.1775468 158.042158,14.8748441 157.750478,14.8748441 C157.233788,14.8748441 157.043779,15.6257796 157.043779,16.5106029 C157.043779,17.5517672 157.324625,18.1006237 157.739644,18.1006237 C157.919652,18.1006237 158.132162,18 158.244667,17.6191268 C158.279771,17.5107449 158.295016,17.3969373 158.289669,17.2831601 L158.289669,15.8378378 L158.290502,15.8378378 Z M159.760569,11.4586279 L159.760569,17.5858628 C159.760569,18.1114345 159.782237,18.7051975 159.805571,19.2099792 L158.536347,19.2099792 L158.45801,18.5929314 L158.435509,18.5929314 C158.233,18.9746362 157.79548,19.2997921 157.290457,19.2997921 C156.123737,19.2997921 155.584546,18.0108108 155.584546,16.4765073 C155.584546,14.5721414 156.414584,13.6432432 157.347126,13.6432432 C157.829648,13.6432432 158.132162,13.8777547 158.267168,14.1920998 L158.289669,14.1920998 L158.289669,11.4586279 L159.760569,11.4586279 L159.760569,11.4586279 Z M161.949001,16.4540541 C161.949001,17.3945946 162.094841,18.1787942 162.622365,18.1787942 C163.094053,18.1787942 163.217392,17.2607069 163.217392,16.4540541 C163.217392,15.7039501 163.094053,14.7517672 162.600697,14.7517672 C162.060673,14.7517672 161.949001,15.7039501 161.949001,16.4540541 M164.687459,16.4540541 C164.687459,18.7392931 163.419901,19.2997921 162.58903,19.2997921 C161.275637,19.2997921 160.488935,18.2686071 160.488935,16.4881497 C160.488935,14.5164241 161.522315,13.6432432 162.610698,13.6432432 C163.902423,13.6432432 164.687459,14.7293139 164.687459,16.4540541 M168.537633,17.2049896 C168.537633,17.3954262 168.559301,17.562578 168.61597,17.6756757 C168.728475,18.0116424 168.918484,18.0997921 169.086825,18.0997921 C169.603515,18.0997921 169.783523,17.3388773 169.783523,16.4765073 C169.783523,15.435343 169.536012,14.8748441 169.098492,14.8748441 C168.873482,14.8748441 168.660139,15.0877339 168.604303,15.3455301 C168.548467,15.4569647 168.537633,15.6033264 168.537633,15.7363825 L168.537633,17.2049896 L168.537633,17.2049896 Z M167.0659,15.4677755 C167.0659,14.8074844 167.043399,14.2469854 167.020898,13.7313929 L168.300956,13.7313929 L168.379293,14.3592516 L168.401794,14.3592516 C168.62597,13.9101871 169.040989,13.6424116 169.546012,13.6424116 C170.7594,13.6424116 171.252756,14.9530146 171.252756,16.4648649 C171.252756,18.4133056 170.38855,19.2989605 169.468509,19.2989605 C169.018488,19.2989605 168.715974,19.018711 168.558467,18.7609148 L168.5368,18.7609148 L168.5368,21.3596674 L167.0659,21.3596674 L167.0659,15.4677755 L167.0659,15.4677755 Z M173.25118,16.4540541 C173.25118,17.3945946 173.39702,18.1787942 173.924544,18.1787942 C174.396232,18.1787942 174.519571,17.2607069 174.519571,16.4540541 C174.519571,15.7039501 174.396232,14.7517672 173.902876,14.7517672 C173.363685,14.7517672 173.25118,15.7039501 173.25118,16.4540541 M175.989637,16.4540541 C175.989637,18.7392931 174.722913,19.2997921 173.891209,19.2997921 C172.578649,19.2997921 171.791947,18.2686071 171.791947,16.4881497 C171.791947,14.5164241 172.825327,13.6432432 173.91371,13.6432432 C175.204602,13.6432432 175.989637,14.7293139 175.989637,16.4540541 M176.697169,15.3796258 C176.697169,14.8307692 176.674668,14.2370062 176.653001,13.7330561 L177.932225,13.7330561 L178.010562,14.5280665 L178.043897,14.5280665 C178.290575,13.9459459 178.728928,13.6432432 179.133113,13.6432432 C179.278953,13.6432432 179.358123,13.6432432 179.447294,13.6656965 L179.447294,15.1209979 C179.35729,15.0993763 179.256452,15.0993763 179.133113,15.0993763 C178.818932,15.0993763 178.403913,15.3114345 178.235572,15.8827443 C178.202237,16.0066528 178.178903,16.1962578 178.178903,16.4316008 L178.178903,19.2091476 L176.697169,19.2091476 L176.697169,15.3796258 L176.697169,15.3796258 Z M95.6193306,27.752183 C95.6193306,27.0469854 95.4393224,26.4981289 95.002636,26.4981289 C94.5192808,26.4981289 94.3276054,27.204158 94.317605,27.752183 L95.6193306,27.752183 Z M94.3059378,28.783368 C94.3284388,29.633264 94.8226278,29.9476091 95.4726573,29.9476091 C95.8284524,29.9453454 96.1814741,29.8849479 96.5177046,29.768815 L96.7193804,30.82079 C96.3368631,30.9663202 95.7651705,31.0677755 95.2034784,31.0677755 C93.7109108,31.0677755 92.8908737,30.0814969 92.8908737,28.3683992 C92.8908737,26.5305613 93.8459169,25.4345114 95.0909733,25.4345114 C96.2701934,25.4345114 96.9552244,26.3634096 96.9552244,28.02079 C96.9552244,28.4133056 96.9435572,28.6261954 96.9102224,28.783368 L94.3059378,28.783368 L94.3059378,28.783368 Z M97.6727569,31.0004158 L99.1436569,31.0004158 L99.1436569,23.249896 L97.6727569,23.249896 L97.6727569,31.0004158 Z M101.724607,29.4993763 C102.027954,29.6673597 102.544644,29.7904366 102.97133,29.7904366 C103.667195,29.7904366 104.003877,29.4328482 104.003877,28.9397089 C104.003877,28.3908524 103.667195,28.1222453 103.027166,27.7072765 C101.993786,27.0802495 101.602102,26.2852391 101.602102,25.6016632 C101.602102,24.3925156 102.410471,23.3837838 103.99221,23.3837838 C104.486399,23.3837838 104.958087,23.5185031 105.182264,23.6532225 L104.94642,24.9180873 C104.655557,24.7430171 104.320989,24.6536427 103.981376,24.6602911 C103.352181,24.6602911 103.049667,25.0419958 103.049667,25.4444906 C103.049667,25.8935551 103.273844,26.1280665 104.093881,26.6212058 C105.09226,27.2257796 105.462276,27.987526 105.462276,28.783368 C105.462276,30.160499 104.441397,31.0677755 102.959663,31.0677755 C102.353802,31.0677755 101.759609,30.9106029 101.512097,30.7650728 L101.724607,29.4993763 L101.724607,29.4993763 Z M108.70659,27.752183 C108.70659,27.0469854 108.526582,26.4981289 108.089895,26.4981289 C107.60654,26.4981289 107.414865,27.204158 107.404864,27.752183 L108.70659,27.752183 Z M107.393197,28.783368 C107.415698,29.633264 107.909887,29.9476091 108.559917,29.9476091 C108.915445,29.9454045 109.268202,29.8850041 109.604131,29.768815 L109.80664,30.82079 C109.424956,30.9663202 108.85243,31.0677755 108.291571,31.0677755 C106.79817,31.0677755 105.978966,30.0814969 105.978966,28.3683992 C105.978966,26.5305613 106.933176,25.4345114 108.179066,25.4345114 C109.357453,25.4345114 110.042484,26.3634096 110.042484,28.02079 C110.042484,28.4133056 110.03165,28.6261954 109.997482,28.783368 L107.393197,28.783368 L107.393197,28.783368 Z M113.296798,27.5168399 C113.296798,27.3713098 113.27513,27.2257796 113.240962,27.1143451 C113.174292,26.8781705 113.016785,26.6652807 112.769274,26.6652807 C112.24175,26.6652807 112.028407,27.3829522 112.028407,28.2785863 C112.028407,29.2981289 112.320087,29.8128898 112.735939,29.8128898 C112.926781,29.8128898 113.117623,29.7122661 113.230128,29.4212058 C113.27513,29.2981289 113.296798,29.1301455 113.296798,28.9846154 L113.296798,27.5168399 L113.296798,27.5168399 Z M114.756864,30.3841996 C114.756864,31.5600832 114.542688,32.210395 114.093501,32.6361746 C113.690149,33.0170478 113.117623,33.2407484 112.310087,33.2407484 C111.80423,33.2407484 111.332542,33.1509356 110.940024,32.9829522 L111.209203,31.8519751 C111.490049,31.975052 111.838398,32.0873181 112.264251,32.0873181 C113.005951,32.0873181 113.297631,31.5941788 113.297631,30.754262 L113.297631,30.4174636 L113.27513,30.4174636 C113.083455,30.7650728 112.701771,30.9663202 112.287585,30.9663202 C111.05253,30.9663202 110.569174,29.6232848 110.569174,28.3118503 C110.569174,26.4864865 111.400045,25.4345114 112.421758,25.4345114 C112.859278,25.4345114 113.218461,25.6582121 113.431804,26.0723493 L113.454305,26.0723493 L113.532642,25.5234927 L114.8127,25.5234927 C114.790199,26.0158004 114.756864,26.5987526 114.756864,27.2598753 L114.756864,30.3841996 L114.756864,30.3841996 Z M119.683754,29.3313929 C119.683754,29.9135135 119.706255,30.4848233 119.728756,31.0004158 L118.459532,31.0004158 L118.382028,30.4182952 L118.358694,30.4182952 C118.101182,30.787526 117.652828,31.0902287 117.09197,31.0902287 C116.046922,31.0902287 115.62107,30.3168399 115.62107,28.8382536 L115.62107,25.5234927 L117.10197,25.5234927 L117.10197,28.6819127 C117.10197,29.3987526 117.236976,29.8577963 117.651995,29.8577963 C117.898673,29.8577963 118.05618,29.6665281 118.123683,29.4885655 C118.180352,29.3762994 118.212854,29.208316 118.212854,29.0178794 L118.212854,25.5234927 L119.683754,25.5234927 L119.683754,29.3313929 L119.683754,29.3313929 Z M120.615463,27.1700624 C120.615463,26.6212058 120.592962,26.0274428 120.571294,25.5234927 L121.850519,25.5234927 L121.928855,26.3185031 L121.96219,26.3185031 C122.208868,25.7363825 122.647221,25.4345114 123.051406,25.4345114 C123.197246,25.4345114 123.276417,25.4345114 123.365587,25.4561331 L123.365587,26.9114345 C123.275583,26.8898129 123.174745,26.8898129 123.051406,26.8898129 C122.737225,26.8898129 122.322207,27.1027027 122.153866,27.6740125 C122.119697,27.7970894 122.097196,27.987526 122.097196,28.222869 L122.097196,31.0004158 L120.615463,31.0004158 L120.615463,27.1700624 L120.615463,27.1700624 Z M125.03733,28.2453222 C125.03733,29.1850312 125.18317,29.9700624 125.710693,29.9700624 C126.183215,29.9700624 126.30572,29.0519751 126.30572,28.2453222 C126.30572,27.4943867 126.183215,26.5422037 125.689026,26.5422037 C125.149835,26.5422037 125.03733,27.4943867 125.03733,28.2453222 M127.775787,28.2453222 C127.775787,30.5297297 126.509063,31.0902287 125.677359,31.0902287 C124.364799,31.0902287 123.578097,30.0590437 123.578097,28.2794179 C123.578097,26.3068607 124.611477,25.4336798 125.69986,25.4336798 C126.991585,25.4336798 127.775787,26.5205821 127.775787,28.2444906 M132.681009,27.629106 C132.681009,27.5284823 132.681009,27.4162162 132.670175,27.3047817 C132.614339,26.9679834 132.434331,26.6661123 132.142651,26.6661123 C131.625961,26.6661123 131.435953,27.4162162 131.435953,28.3010395 C131.435953,29.3422037 131.715965,29.8918919 132.131818,29.8918919 C132.310992,29.8918919 132.523502,29.7904366 132.63684,29.4095634 C132.670175,29.3313929 132.681842,29.208316 132.681842,29.0735967 L132.681842,27.629106 L132.681009,27.629106 Z M134.152742,23.249896 L134.152742,29.3762994 C134.152742,29.9027027 134.17441,30.4964657 134.197744,31.0004158 L132.92852,31.0004158 L132.850183,30.3841996 L132.827682,30.3841996 C132.625173,30.7650728 132.187653,31.0902287 131.682631,31.0902287 C130.515911,31.0902287 129.975887,29.8012474 129.975887,28.2677755 C129.975887,26.3634096 130.806758,25.4336798 131.7393,25.4336798 C132.221822,25.4336798 132.524335,25.6690229 132.659341,25.9825364 L132.681842,25.9825364 L132.681842,23.249896 L134.152742,23.249896 L134.152742,23.249896 Z M137.608732,27.752183 C137.608732,27.0469854 137.429557,26.4981289 136.992038,26.4981289 C136.508682,26.4981289 136.31784,27.204158 136.30784,27.752183 L137.608732,27.752183 Z M136.296173,28.783368 C136.31784,29.633264 136.812863,29.9476091 137.462892,29.9476091 C137.818421,29.9454045 138.171178,29.8850041 138.507106,29.768815 L138.709615,30.82079 C138.327098,30.9663202 137.754572,31.0677755 137.193713,31.0677755 C135.701146,31.0677755 134.881109,30.0814969 134.881109,28.3683992 C134.881109,26.5305613 135.835319,25.4345114 137.081208,25.4345114 C138.260428,25.4345114 138.944626,26.3634096 138.944626,28.02079 C138.944626,28.4133056 138.933792,28.6261954 138.899624,28.783368 L136.296173,28.783368 L136.296173,28.783368 Z M142.94064,29.835343 C143.00731,29.8577963 143.120649,29.8577963 143.198985,29.8577963 C143.905684,29.8577963 144.524045,29.1642412 144.524045,27.0802495 C144.524045,25.5343035 144.119861,24.593763 143.23232,24.593763 C143.131482,24.593763 143.030645,24.593763 142.94064,24.627027 L142.94064,29.835343 L142.94064,29.835343 Z M141.46974,23.5634096 C141.840591,23.4727651 142.379782,23.4178794 142.963141,23.4178794 C143.917351,23.4178794 144.579881,23.64158 145.062403,24.0898129 C145.713266,24.6719335 146.049948,25.6690229 146.049948,27.1359667 C146.049948,28.6594595 145.656597,29.7463617 144.9949,30.3293139 C144.489877,30.82079 143.737343,31.0569647 142.683129,31.0569647 C142.222275,31.0569647 141.76142,31.0120582 141.46974,30.9779626 L141.46974,23.5634096 L141.46974,23.5634096 Z M149.270927,27.752183 C149.270927,27.0469854 149.091752,26.4981289 148.654233,26.4981289 C148.170877,26.4981289 147.980035,27.204158 147.969202,27.752183 L149.270927,27.752183 Z M147.957534,28.783368 C147.980035,29.633264 148.474224,29.9476091 149.125087,29.9476091 C149.480602,29.9452547 149.833335,29.8848585 150.169301,29.768815 L150.370977,30.82079 C149.989293,30.9663202 149.416767,31.0677755 148.855908,31.0677755 C147.362507,31.0677755 146.543304,30.0814969 146.543304,28.3683992 C146.543304,26.5305613 147.497513,25.4345114 148.743403,25.4345114 C149.92179,25.4345114 150.606821,26.3634096 150.606821,28.02079 C150.606821,28.4133056 150.595987,28.6261954 150.561819,28.783368 L147.957534,28.783368 L147.957534,28.783368 Z M152.78442,28.9954262 C152.78442,29.1858628 152.806921,29.3538462 152.862756,29.4661123 C152.975262,29.802079 153.166104,29.8910603 153.333611,29.8910603 C153.850301,29.8910603 154.030309,29.1301455 154.030309,28.2669439 C154.030309,27.2257796 153.782798,26.6661123 153.345278,26.6661123 C153.120268,26.6661123 152.907759,26.8781705 152.851089,27.1359667 C152.795253,27.2482328 152.78442,27.393763 152.78442,27.5276507 L152.78442,28.9954262 Z M151.31352,27.2598753 C151.31352,26.5987526 151.291019,26.0390852 151.268518,25.5234927 L152.548576,25.5234927 L152.626912,26.1505198 L152.649413,26.1505198 C152.87359,25.7022869 153.288609,25.4336798 153.794465,25.4336798 C155.00702,25.4336798 155.500376,26.7442827 155.500376,28.2561331 C155.500376,30.2054054 154.63617,31.0902287 153.716128,31.0902287 C153.266108,31.0902287 152.964428,30.8099792 152.806921,30.5530146 L152.78442,30.5530146 L152.78442,33.1509356 L151.31352,33.1509356 L151.31352,27.2598753 Z M159.720567,23.2831601 L158.587182,24.8507277 L157.667141,24.8507277 L158.442176,23.2831601 L159.720567,23.2831601 L159.720567,23.2831601 Z M157.497966,28.2444906 C157.497966,29.1858628 157.643806,29.9700624 158.172164,29.9700624 C158.643018,29.9700624 158.766357,29.0519751 158.766357,28.2444906 C158.766357,27.4943867 158.643018,26.5430353 158.149663,26.5430353 C157.610471,26.5430353 157.497966,27.4943867 157.497966,28.2444906 L157.497966,28.2444906 Z M160.237257,28.2444906 C160.237257,30.5297297 158.968866,31.0902287 158.137995,31.0902287 C156.825436,31.0902287 156.038734,30.0598753 156.038734,28.2785863 C156.038734,26.3076923 157.072114,25.4345114 158.160496,25.4345114 C159.451388,25.4345114 160.237257,26.5205821 160.237257,28.2453222 L160.237257,28.2444906 Z M160.910621,29.6790021 C161.123964,29.8120582 161.528149,29.9700624 161.898166,29.9700624 C162.27985,29.9700624 162.493193,29.802079 162.493193,29.4769231 C162.493193,29.1975052 162.335685,29.0178794 161.853997,28.7384615 C160.955623,28.2336798 160.74228,27.6623701 160.74228,27.15842 C160.74228,26.172973 161.448979,25.4336798 162.549862,25.4336798 C163.009883,25.4336798 163.369066,25.5459459 163.660746,25.6798337 L163.4024,26.7559252 C163.172377,26.6149077 162.908931,26.5374194 162.639033,26.5313929 C162.269016,26.5313929 162.089008,26.7559252 162.089008,27.0012474 C162.089008,27.2482328 162.212347,27.3829522 162.729037,27.6848233 C163.537407,28.1446985 163.83992,28.7160083 163.83992,29.3430353 C163.83992,30.4632017 163.03155,31.0677755 161.898166,31.0677755 C161.438145,31.0677755 160.898954,30.9446985 160.641442,30.754262 L160.910621,29.6790021 L160.910621,29.6790021 Z M164.479116,31.0004158 L165.950016,31.0004158 L165.950016,25.5234927 L164.479116,25.5234927 L164.479116,31.0004158 Z M165.950016,24.0673597 C165.96085,24.5372141 165.625001,24.8623701 165.174981,24.8623701 C164.771629,24.8623701 164.434947,24.5380457 164.445781,24.0673597 C164.434947,23.5742204 164.79413,23.2715177 165.197482,23.2715177 C165.624168,23.2715177 165.950016,23.5742204 165.950016,24.0673597 L165.950016,24.0673597 Z M168.599303,24.0898129 L168.599303,25.5234927 L169.676851,25.5234927 L169.676851,26.5654886 L168.599303,26.5654886 L168.599303,29.0627859 C168.599303,29.7014553 168.869315,29.8577963 169.160995,29.8577963 C169.306835,29.8577963 169.418506,29.8469854 169.541845,29.8245322 L169.553512,30.9663202 C169.25978,31.0391442 168.957752,31.0732529 168.655138,31.0677755 C168.228452,31.0677755 167.857602,30.9663202 167.600091,30.7201663 C167.297577,30.429106 167.128403,30.0149688 167.128403,29.1525988 L167.128403,26.5654886 L166.478373,26.5654886 L166.478373,25.5234927 L167.128403,25.5234927 L167.128403,24.5488565 L168.599303,24.0898129 Z M171.449432,28.2453222 C171.449432,29.1850312 171.596105,29.9700624 172.123629,29.9700624 C172.595317,29.9700624 172.718656,29.0519751 172.718656,28.2453222 C172.718656,27.4943867 172.595317,26.5422037 172.101128,26.5422037 C171.561937,26.5422037 171.450265,27.4943867 171.450265,28.2453222 M174.188722,28.2453222 C174.188722,30.5297297 172.921165,31.0902287 172.090294,31.0902287 C170.776901,31.0902287 169.990199,30.0590437 169.990199,28.2794179 C169.990199,26.3068607 171.023579,25.4336798 172.111962,25.4336798 C173.403687,25.4336798 174.188722,26.5205821 174.188722,28.2444906 M174.86292,29.6790021 C175.075429,29.8120582 175.479614,29.9700624 175.849631,29.9700624 C176.232148,29.9700624 176.445491,29.802079 176.445491,29.4769231 C176.445491,29.1975052 176.287151,29.0178794 175.805462,28.7384615 C174.907088,28.2336798 174.693745,27.6623701 174.693745,27.15842 C174.693745,26.172973 175.401277,25.4336798 176.501327,25.4336798 C176.961348,25.4336798 177.320531,25.5459459 177.612211,25.6798337 L177.353866,26.7559252 C177.124085,26.6150488 176.860945,26.537566 176.591331,26.5313929 C176.220481,26.5313929 176.041306,26.7559252 176.041306,27.0012474 C176.041306,27.2482328 176.163812,27.3829522 176.680502,27.6848233 C177.488872,28.1446985 177.791385,28.7160083 177.791385,29.3430353 C177.791385,30.4632017 176.983016,31.0677755 175.849631,31.0677755 C175.38961,31.0677755 174.851252,30.9446985 174.592907,30.754262 L174.86292,29.6790021 L174.86292,29.6790021 Z M106.189809,41.0170478 L106.403986,42.7467775 C106.461488,43.1817048 106.510657,43.583368 106.543159,43.9609148 L106.56816,43.9609148 C106.634829,43.583368 106.715666,43.1401247 106.789836,42.7634096 L107.143186,41.0170478 L107.973223,41.0170478 L108.317406,42.7218295 C108.400743,43.1733888 108.474079,43.566736 108.523248,43.9609148 L108.548249,43.9609148 C108.573251,43.583368 108.622419,43.1642412 108.687422,42.7301455 L108.9341,41.0170478 L109.994148,41.0170478 L108.959101,45.0253638 L108.047393,45.0253638 L107.743213,43.6241164 C107.652181,43.2128698 107.583467,42.7970185 107.53737,42.3783784 L107.520703,42.3783784 C107.471534,42.8365904 107.38153,43.2548857 107.291526,43.6316008 L106.94651,45.0261954 L106.026469,45.0261954 L105.039757,41.0170478 L106.189809,41.0170478 L106.189809,41.0170478 Z M111.474215,41.0170478 L111.687558,42.7467775 C111.745894,43.1817048 111.795063,43.583368 111.826731,43.9609148 L111.851732,43.9609148 C111.918402,43.583368 111.999239,43.1401247 112.073409,42.7634096 L112.427592,41.0170478 L113.257629,41.0170478 L113.601812,42.7218295 C113.685149,43.1733888 113.757652,43.566736 113.807654,43.9609148 L113.832655,43.9609148 C113.857657,43.583368 113.905992,43.1642412 113.970995,42.7301455 L114.218506,41.0170478 L115.277721,41.0170478 L114.242674,45.0253638 L113.331799,45.0253638 L113.026786,43.6241164 C112.936034,43.2128544 112.867598,42.7970032 112.821776,42.3783784 L112.805109,42.3783784 C112.755107,42.8365904 112.665103,43.2548857 112.575099,43.6316008 L112.230083,45.0261954 L111.310041,45.0261954 L110.32333,41.0170478 L111.473382,41.0170478 L111.474215,41.0170478 Z M116.756955,41.0170478 L116.971131,42.7467775 C117.028634,43.1817048 117.077802,43.583368 117.110304,43.9609148 L117.135305,43.9609148 C117.201975,43.583368 117.282812,43.1401247 117.356982,42.7634096 L117.710331,41.0170478 L118.540369,41.0170478 L118.884551,42.7218295 C118.967888,43.1733888 119.041225,43.566736 119.090394,43.9609148 L119.115395,43.9609148 C119.140396,43.583368 119.189565,43.1642412 119.254568,42.7301455 L119.501246,41.0170478 L120.561294,41.0170478 L119.526247,45.0253638 L118.614539,45.0253638 L118.310358,43.6241164 C118.219326,43.2128698 118.150612,42.7970185 118.104516,42.3783784 L118.087848,42.3783784 C118.038679,42.8365904 117.948675,43.2548857 117.858671,43.6316008 L117.513656,45.0261954 L116.593614,45.0261954 L115.606902,41.0170478 L116.756955,41.0170478 Z M121.301327,45.0910603 C120.972979,45.0910603 120.684632,44.812474 120.684632,44.3783784 C120.684632,43.9683992 120.989646,43.6648649 121.317994,43.6648649 C121.66301,43.6648649 121.943023,43.9359667 121.943023,44.3783784 C121.943023,44.812474 121.688011,45.0910603 121.309661,45.0910603 L121.301327,45.0910603 Z M122.772227,45.0261954 L122.772227,41.7796258 L122.230536,41.7796258 L122.230536,41.0170478 L122.772227,41.0170478 L122.772227,40.8523909 C122.772227,40.4024948 122.863064,39.9841996 123.183079,39.6557173 C123.421423,39.410395 123.766439,39.2873181 124.145623,39.2873181 C124.423968,39.2873181 124.637311,39.3288981 124.793985,39.377131 L124.670646,40.2128898 C124.564944,40.1773791 124.453788,40.1607694 124.342298,40.1638254 C123.980615,40.1638254 123.848942,40.4765073 123.848942,40.8282744 L123.848942,41.0170478 L124.547307,41.0170478 L124.547307,41.7796258 L123.848942,41.7796258 L123.848942,45.0261954 L122.77306,45.0261954 L122.772227,45.0261954 Z M125.797364,43.0087318 C125.797364,43.6989605 125.904036,44.2719335 126.289053,44.2719335 C126.634902,44.2719335 126.724906,43.6 126.724906,43.0087318 C126.724906,42.4598753 126.634902,41.7629938 126.273219,41.7629938 C125.879034,41.7629938 125.796531,42.4598753 125.796531,43.0087318 M127.801621,43.0087318 C127.801621,44.6810811 126.873246,45.0910603 126.264885,45.0910603 C125.304008,45.0910603 124.728149,44.3376299 124.728149,43.0336798 C124.728149,41.5900208 125.48485,40.9513514 126.281553,40.9513514 C127.225762,40.9513514 127.801621,41.7463617 127.801621,43.0087318 M130.266733,42.4765073 C130.266733,42.3692308 130.250066,42.2636175 130.225065,42.181289 C130.175896,42.0091476 130.060057,41.8536383 129.880049,41.8536383 C129.494198,41.8536383 129.338358,42.3775468 129.338358,43.0336798 C129.338358,43.7796258 129.550867,44.156341 129.855048,44.156341 C129.995054,44.156341 130.134227,44.0831601 130.216731,43.8702703 C130.250066,43.7796258 130.266733,43.6565489 130.266733,43.550104 L130.266733,42.4765073 L130.266733,42.4765073 Z M131.334281,44.5746362 C131.334281,45.4361746 131.178441,45.9118503 130.850093,46.2237006 C130.554246,46.5014553 130.134227,46.6652807 129.543367,46.6652807 C129.17335,46.6652807 128.828335,46.6004158 128.540822,46.4773389 L128.738331,45.6490644 C128.94334,45.7388773 129.198351,45.8212058 129.510032,45.8212058 C130.052557,45.8212058 130.266733,45.4602911 130.266733,44.845738 L130.266733,44.5995842 L130.250066,44.5995842 C130.110059,44.8540541 129.83088,45.0012474 129.5267,45.0012474 C128.623325,45.0012474 128.269143,44.0174636 128.269143,43.0586279 C128.269143,41.7222453 128.877504,40.9513514 129.625037,40.9513514 C129.945885,40.9513514 130.208397,41.1151767 130.365071,41.418711 L130.381738,41.418711 L130.439241,41.0170478 L131.375117,41.0170478 C131.358449,41.377131 131.334281,41.8037422 131.334281,42.2877339 L131.334281,44.5746362 L131.334281,44.5746362 Z M133.73439,43.0752599 C133.372707,43.0835759 132.879351,43.1975052 132.879351,43.7555094 C132.879351,44.156341 133.101861,44.3043659 133.265202,44.3043659 C133.473621,44.3012458 133.654794,44.1608214 133.709389,43.9600832 C133.726056,43.9027027 133.73439,43.8378378 133.73439,43.7713098 L133.73439,43.0752599 L133.73439,43.0752599 Z M134.786104,44.1072765 C134.786104,44.4274428 134.802772,44.7559252 134.851941,45.0261954 L133.881897,45.0261954 L133.824394,44.6328482 L133.807727,44.6328482 C133.58605,44.9438669 133.274369,45.0910603 132.920187,45.0910603 C132.311826,45.0910603 131.860972,44.5837838 131.860972,43.8702703 C131.860972,42.82079 132.789347,42.3858628 133.701055,42.3783784 L133.701055,42.2869023 C133.701055,41.9758836 133.512713,41.7463617 133.134363,41.7463617 C132.814348,41.7463617 132.551003,41.8278586 132.312659,41.9758836 L132.115984,41.2548857 C132.336827,41.1234927 132.806015,40.9513514 133.364373,40.9513514 C134.588595,40.9513514 134.786104,41.8037422 134.786104,42.6153846 L134.786104,44.1072765 L134.786104,44.1072765 Z M135.739481,45.0261954 L135.739481,41.7796258 L135.196956,41.7796258 L135.196956,41.0170478 L135.738648,41.0170478 L135.738648,40.8523909 C135.738648,40.4024948 135.830318,39.9841996 136.150333,39.6557173 C136.387844,39.410395 136.733693,39.2873181 137.112043,39.2873181 C137.390389,39.2873181 137.603732,39.3288981 137.760406,39.377131 L137.6379,40.2128898 C137.531934,40.1772821 137.420487,40.160671 137.308719,40.1638254 C136.947036,40.1638254 136.815363,40.4765073 136.815363,40.8282744 L136.815363,41.0170478 L137.513728,41.0170478 L137.513728,41.7796258 L136.815363,41.7796258 L136.815363,45.0261954 L135.739481,45.0261954 L135.739481,45.0261954 Z M137.900412,45.0261954 L138.977128,45.0261954 L138.977128,41.0178794 L137.900412,41.0178794 L137.900412,45.0261954 Z M138.976294,39.9509356 C138.984628,40.2952183 138.73795,40.5330561 138.409602,40.5330561 C138.113755,40.5330561 137.867911,40.2952183 137.876244,39.9509356 C137.867911,39.5900208 138.130423,39.368815 138.426269,39.368815 C138.73795,39.368815 138.976294,39.5900208 138.976294,39.9509356 Z M139.732162,42.2220374 C139.732162,41.7796258 139.707161,41.393763 139.698827,41.0170478 L140.628036,41.0170478 L140.678038,41.4760915 L140.693872,41.4760915 C140.908048,41.1567568 141.252231,40.9505198 141.671416,40.9505198 C142.435618,40.9505198 142.739798,41.5575884 142.739798,42.4523909 L142.739798,45.0253638 L141.663916,45.0253638 L141.663916,42.5172557 C141.663916,42.181289 141.580579,41.8528067 141.268898,41.8528067 C141.088057,41.8528067 140.939716,41.9758836 140.86638,42.2137214 C140.833045,42.2968815 140.808877,42.4274428 140.808877,42.5829522 L140.808877,45.0253638 L139.732162,45.0253638 L139.732162,42.222869 L139.732162,42.2220374 Z M144.128194,45.0910603 C143.799846,45.0910603 143.5115,44.812474 143.5115,44.3783784 C143.5115,43.9683992 143.816513,43.6648649 144.144862,43.6648649 C144.489877,43.6648649 144.76989,43.9359667 144.76989,44.3783784 C144.76989,44.812474 144.514878,45.0910603 144.136528,45.0910603 L144.128194,45.0910603 Z M147.267503,42.4765073 C147.267503,42.3692308 147.250836,42.2636175 147.226668,42.181289 C147.176666,42.0091476 147.06166,41.8536383 146.881652,41.8536383 C146.494968,41.8536383 146.339128,42.3775468 146.339128,43.0336798 C146.339128,43.7796258 146.552471,44.156341 146.856651,44.156341 C146.995824,44.156341 147.13583,44.0831601 147.217501,43.8702703 C147.250836,43.7796258 147.267503,43.6565489 147.267503,43.550104 L147.267503,42.4765073 L147.267503,42.4765073 Z M148.335885,44.5746362 C148.335885,45.4361746 148.179211,45.9118503 147.850863,46.2237006 C147.555016,46.5014553 147.13583,46.6652807 146.54497,46.6652807 C146.174954,46.6652807 145.829105,46.6004158 145.541592,46.4773389 L145.739101,45.6490644 C145.94411,45.7388773 146.199121,45.8212058 146.511635,45.8212058 C147.053327,45.8212058 147.267503,45.4602911 147.267503,44.845738 L147.267503,44.5995842 L147.250836,44.5995842 C147.110829,44.8540541 146.83165,45.0012474 146.52747,45.0012474 C145.624095,45.0012474 145.270746,44.0174636 145.270746,43.0586279 C145.270746,41.7222453 145.879107,40.9513514 146.626641,40.9513514 C146.946655,40.9513514 147.21,41.1151767 147.365841,41.418711 L147.382508,41.418711 L147.440844,41.0170478 L148.37672,41.0170478 C148.360053,41.377131 148.335051,41.8037422 148.335051,42.2877339 L148.335051,44.5746362 L148.335885,44.5746362 Z M150.011794,43.0087318 C150.011794,43.6989605 150.119299,44.2719335 150.504316,44.2719335 C150.850165,44.2719335 150.940169,43.6 150.940169,43.0087318 C150.940169,42.4598753 150.850165,41.7629938 150.488482,41.7629938 C150.094298,41.7629938 150.011794,42.4598753 150.011794,43.0087318 M152.016885,43.0087318 C152.016885,44.6810811 151.087676,45.0910603 150.480149,45.0910603 C149.518438,45.0910603 148.943412,44.3376299 148.943412,43.0336798 C148.943412,41.5900208 149.69928,40.9513514 150.496816,40.9513514 C151.441025,40.9513514 152.016885,41.7463617 152.016885,43.0087318 M153.356946,41.0170478 L153.660293,42.804158 C153.717795,43.1642412 153.775298,43.5168399 153.831967,43.9268191 L153.848634,43.9268191 C153.898637,43.5168399 153.947806,43.1817048 154.005308,42.804158 L154.316989,41.0170478 L155.37787,41.0170478 L154.301155,45.0253638 L153.306943,45.0253638 L152.214394,41.0170478 L153.356112,41.0170478 L153.356946,41.0170478 Z M156.092903,45.0910603 C155.764555,45.0910603 155.476208,44.812474 155.476208,44.3783784 C155.476208,43.9683992 155.781222,43.6648649 156.10957,43.6648649 C156.453752,43.6648649 156.734598,43.9359667 156.734598,44.3783784 C156.734598,44.812474 156.479587,45.0910603 156.101236,45.0910603 L156.092903,45.0910603 Z M159.601395,44.960499 C159.49389,45.0095634 159.223045,45.0752599 158.918864,45.0752599 C157.900485,45.0752599 157.234621,44.3700624 157.234621,43.0586279 C157.234621,41.8195426 157.966321,40.9596674 159.076371,40.9596674 C159.329716,40.9596674 159.559726,41.0178794 159.666398,41.0661123 L159.527225,41.9110187 C159.398795,41.861621 159.262346,41.8362498 159.124707,41.8361746 C158.607183,41.8361746 158.303003,42.3284823 158.303003,43.0253638 C158.303003,43.7555094 158.607183,44.197921 159.108039,44.197921 C159.26388,44.197921 159.395552,44.172973 159.510558,44.1155925 L159.601395,44.960499 L159.601395,44.960499 Z M160.95729,43.0087318 C160.95729,43.6989605 161.064795,44.2719335 161.449812,44.2719335 C161.795661,44.2719335 161.885665,43.6 161.885665,43.0087318 C161.885665,42.4598753 161.795661,41.7629938 161.433978,41.7629938 C161.03896,41.7629938 160.95729,42.4598753 160.95729,43.0087318 M162.962381,43.0087318 C162.962381,44.6810811 162.033172,45.0910603 161.425644,45.0910603 C160.463934,45.0910603 159.888908,44.3376299 159.888908,43.0336798 C159.888908,41.5900208 160.644776,40.9513514 161.441478,40.9513514 C162.386521,40.9513514 162.962381,41.7463617 162.962381,43.0087318 M83.9154672,49.9326403 L85.9847276,49.9326403 L85.9847276,4.06486486 L83.9154672,4.06486486 L83.9154672,49.9326403 Z M8.98540695,16.750104 C8.98402864,17.8264118 8.10975123,18.69846 7.03115177,18.6993763 C6.51322524,18.6993763 6.01653594,18.4939542 5.65046292,18.1283469 C5.28438989,17.7627395 5.07895442,17.2669301 5.079396,16.750104 C5.07895398,16.2334306 5.28444255,15.7377918 5.65056364,15.3724485 C6.01668474,15.0071051 6.51337855,14.802053 7.03115177,14.8024941 C8.10929154,14.8029518 8.98356878,15.6742558 8.98540695,16.750104 M13.7939581,16.750104 C13.7939581,17.8260082 12.9203971,18.6984583 11.842203,18.6993763 C10.7638182,18.6993763 9.88961457,17.8270297 9.88961457,16.7509356 C9.88961457,15.6748414 10.7638182,14.8024948 11.842203,14.8024948 C12.919937,14.8029537 13.7934982,15.6746593 13.7939581,16.750104 M18.6058427,16.750104 C18.6058427,17.8266573 17.7312659,18.6993763 16.6524209,18.6993763 C15.5962439,18.6685807 14.756053,17.8053188 14.756053,16.7509356 C14.756053,15.6965523 15.5962439,14.8332904 16.6524209,14.8024946 C17.1702795,14.8022742 17.6670159,15.0073442 18.0333535,15.3725918 C18.3996912,15.7378394 18.6056217,16.2333453 18.6058427,16.750104 M8.98540858,21.4652807 C8.98451375,22.1619857 8.61120947,22.8052922 8.00611421,23.1528728 C7.40101895,23.5004535 6.65606107,23.4995025 6.05185902,23.150378 C5.44765696,22.8012536 5.07600338,22.1569961 5.07689499,21.4602911 C5.0782774,20.3832784 5.95434658,19.5113041 7.03365189,19.5126803 C8.1129572,19.5140598 8.98678769,20.388268 8.98540858,21.4652807 M13.7939581,21.4652807 C13.7631104,22.518305 12.8987531,23.3559813 11.8430364,23.3559813 C10.7873196,23.3559813 9.92296237,22.518305 9.89211468,21.4652807 C9.89211468,20.769764 10.2639582,20.1270801 10.8675755,19.7793218 C11.4711928,19.4315635 12.21488,19.4315635 12.8184972,19.7793218 C13.4221145,20.1270801 13.7939581,20.769764 13.7939581,21.4652807 M16.6524209,19.822869 C15.7452261,19.8233291 15.0100011,20.5572419 15.0098484,21.4625096 C15.0096957,22.3677774 15.7446731,23.1019371 16.6518677,23.1027025 C17.5590622,23.1034667 18.2952818,22.3705474 18.296662,21.4652807 C18.2962034,20.5590405 17.5605892,19.8242448 16.6524209,19.822869 M16.6524209,23.7197505 C15.4032803,23.7197505 14.3906518,22.709273 14.3906518,21.4627859 C14.3906518,20.2162987 15.4032803,19.2058212 16.6524209,19.2058212 C17.9017755,19.2071969 18.9141048,20.2177478 18.9150233,21.4644491 C18.9131848,22.710231 17.9008559,23.7192932 16.6524209,23.7197505 M8.98540713,26.1779626 C8.98540713,27.2542863 8.11101676,28.1268191 7.03240183,28.1268191 C5.9537869,28.1268191 5.0793903,27.2542863 5.0793903,26.1779626 C5.07806835,25.6605605 5.28311252,25.1638957 5.64928167,24.7975683 C6.01545083,24.4312409 6.51264664,24.2253638 7.03115177,24.2253638 C8.11105214,24.226282 8.98586746,25.1003558 8.98540713,26.1779626 M11.842203,24.5322245 C10.937162,24.5322245 10.200462,25.2706861 10.200462,26.177131 C10.2287144,27.0620535 10.9557802,27.7648288 11.8430364,27.7648288 C12.7302925,27.7648288 13.4573584,27.0620535 13.4856108,26.177131 C13.4856108,25.2706861 12.7489107,24.5330561 11.842203,24.5330561 M11.842203,28.4316008 C10.5926022,28.4316008 9.57960053,27.420751 9.57960053,26.1738046 C9.57960053,24.9268581 10.5926022,23.9160083 11.842203,23.9160083 C13.0918038,23.9160083 14.1048055,24.9268581 14.1048055,26.1738046 C14.1048055,27.420751 13.0918038,28.4316008 11.842203,28.4316008 M16.6524209,24.5322245 C15.7473799,24.5322245 15.0115132,25.2706861 15.0115132,26.177131 C15.0397656,27.0620535 15.7668314,27.7648288 16.6540876,27.7648288 C17.5413438,27.7648288 18.2684096,27.0620535 18.296662,26.177131 C18.296662,25.2706861 17.559962,24.5330561 16.6524209,24.5330561 M16.6524209,28.4316008 C15.4056925,28.4302259 14.3953631,27.4220427 14.3939838,26.1779626 C14.3926017,24.9313937 15.4032018,23.9192192 16.6524209,23.9160083 C17.9026954,23.9183017 18.9150233,24.9303417 18.9150233,26.1779626 C18.912725,27.4232849 17.9003962,28.4316008 16.6524209,28.4316008 M22.4960188,14.9821206 L30.4080438,14.9821206 L30.4080438,17.3837838 L25.4203179,17.3837838 L25.4203179,20.3417879 L30.0771955,20.3417879 L30.0771955,22.7226611 L25.4203179,22.7226611 L25.4203179,27.9284823 L22.4960188,27.9284823 L22.4960188,14.9821206 Z M33.5456859,23.2241164 C33.5456859,24.837422 34.2182164,26.0474012 35.4724399,26.0474012 C36.6283256,26.0474012 37.3375243,24.9139293 37.3375243,23.204158 C37.3375243,21.8195426 36.7966665,20.4 35.4724399,20.4 C34.0865438,20.4 33.5456859,21.8419958 33.5456859,23.2232848 M40.3643281,23.1268191 C40.3643281,26.5654886 37.9158839,28.1413721 35.3932696,28.1413721 C32.6381448,28.1413721 30.5238824,26.3367983 30.5238824,23.3014553 C30.5238824,20.2469854 32.5231396,18.3068607 35.5666108,18.3068607 C38.4375742,18.3068607 40.3643281,20.2844075 40.3643281,23.1268191 M47.4454821,22.35842 C47.4454821,22.185447 47.4288147,21.9933472 47.3879795,21.8195426 C47.17797,21.0528067 46.6212781,20.5355509 45.807908,20.5355509 C44.7328593,20.5355509 43.8886544,21.4960499 43.8886544,23.2049896 C43.8886544,24.6079002 44.5778523,25.6997921 45.7912405,25.6997921 C46.560442,25.6997921 47.1563024,25.2024948 47.3521446,24.5297297 C47.4296481,24.3002079 47.4454821,23.9908524 47.4454821,23.7413721 L47.4454821,22.35842 Z M50.3756148,26.5663202 C50.3756148,28.370894 50.0072648,29.8528067 48.9313828,30.7933472 C47.9121699,31.6765073 46.5054396,31.9467775 45.1187101,31.9467775 C43.8686535,31.9467775 42.578595,31.6956341 41.73189,31.233264 L42.3060827,29.0045738 C42.9061099,29.352183 43.9269894,29.7172557 45.0412066,29.7172557 C46.4254359,29.7172557 47.4846506,28.985447 47.4846506,27.2390852 L47.4846506,26.643659 L47.4454821,26.643659 C46.8887903,27.4120582 45.9812492,27.8519751 44.9062005,27.8519751 C42.578595,27.8519751 40.9218533,25.9700624 40.9218533,23.2814969 C40.9218533,20.2461538 42.8677748,18.3259875 45.1953802,18.3259875 C46.486272,18.3259875 47.2938086,18.8814969 47.7738303,19.6706861 L47.8129988,19.6706861 L47.9121699,18.5380457 L50.4514516,18.5380457 C50.4131165,19.1509356 50.3764482,19.9384615 50.3764482,21.3413721 L50.3764482,26.5663202 L50.3756148,26.5663202 Z M56.7684044,23.4927235 C55.2266679,23.4927235 54.0349472,23.8586279 54.0349472,24.9721414 C54.0349472,25.7222453 54.5349699,26.0856549 55.1883328,26.0856549 C55.9008651,26.0856549 56.5175597,25.6066528 56.7084016,25.0087318 C56.7467367,24.8557173 56.7684044,24.6844075 56.7684044,24.5114345 L56.7684044,23.4927235 Z M59.5951991,25.6632017 C59.5951991,26.5446985 59.6368676,27.4120582 59.7518728,27.9293139 L57.11342,27.9293139 L56.9392454,26.9904366 L56.8809095,26.9904366 C56.266715,27.7397089 55.3058381,28.1413721 54.184954,28.1413721 C52.2823679,28.1413721 51.1456497,26.7592516 51.1456497,25.2590437 C51.1456497,22.8182952 53.3407491,21.6690229 56.6717333,21.6690229 L56.6717333,21.5525988 C56.6717333,21.0328482 56.4008877,20.3226611 54.9549889,20.3226611 C53.9916119,20.3226611 52.9715657,20.6503119 52.359038,21.0328482 L51.8198469,19.1509356 C52.4748766,18.787526 53.7632683,18.3068607 55.4750125,18.3068607 C58.6168214,18.3068607 59.5951991,20.1496881 59.5951991,22.37921 L59.5951991,25.6640333 L59.5951991,25.6632017 Z M61.2927759,27.9293139 L61.2927759,20.6885655 L60.0410526,20.6885655 L60.0410526,18.5372141 L61.2927759,18.5372141 L61.2927759,18.1713098 C61.2927759,17.0378378 61.6377916,15.789605 62.4678292,15.0212058 C63.2203632,14.3301455 64.2212419,14.0798337 65.0846143,14.0798337 C65.7188097,14.0798337 66.2204991,14.1754678 66.6263508,14.2711019 L66.5096789,16.5214137 C66.2042165,16.4287417 65.8863915,16.3830339 65.5671362,16.3858628 C64.6045926,16.3858628 64.1995743,17.1367983 64.1995743,18.0573805 L64.1995743,18.5372141 L66.0863264,18.5372141 L66.0863264,20.6885655 L64.2212419,20.6885655 L64.2212419,27.9293139 L61.2927759,27.9293139 L61.2927759,27.9293139 Z M71.5365732,14.4449064 L69.1881335,17.3654886 L67.1830427,17.3654886 L68.8406178,14.4449064 L71.5365732,14.4449064 Z M66.954699,27.9293139 L69.8781648,27.9293139 L69.8781648,18.5380457 L66.954699,18.5380457 L66.954699,27.9293139 Z M71.0357172,21.5351351 C71.0357172,20.362578 70.9965488,19.381289 70.9573803,18.5380457 L73.4999955,18.5380457 L73.6350016,19.8444906 L73.6933376,19.8444906 C74.0791884,19.229106 75.0200643,18.3259875 76.5984691,18.3259875 C78.5218896,18.3259875 79.9652883,19.6108108 79.9652883,22.37921 L79.9652883,27.9284823 L77.0409892,27.9284823 L77.0409892,22.7226611 C77.0409892,21.5143451 76.6209702,20.6885655 75.5600888,20.6885655 C74.7517188,20.6885655 74.269197,21.2449064 74.0575207,21.7821206 C73.9825173,21.975052 73.9641832,22.243659 73.9641832,22.5139293 L73.9641832,27.9284823 L71.0357172,27.9284823 L71.0357172,21.5351351 L71.0357172,21.5351351 Z M5.0768966,38.2835759 L5.28607274,37.6158004 C5.38607727,37.6964657 5.53525069,37.7638254 5.73359301,37.8178794 C5.92860184,37.8744283 6.1169437,37.9035343 6.30028534,37.9035343 C6.57946465,37.9035343 6.7969745,37.835343 6.96614883,37.7014553 C7.13236938,37.566528 7.22503747,37.3612418 7.21616015,37.1476091 C7.21942213,36.9566213 7.15173936,36.7711853 7.02615155,36.627027 C6.89864577,36.4748441 6.68613615,36.2927235 6.37695548,36.0740125 C6.07694189,35.8553015 5.85609856,35.649896 5.71609221,35.4602911 C5.57858599,35.2698545 5.50858282,35.0336798 5.50858282,34.750104 C5.50858282,34.2927235 5.65525613,33.9343035 5.94360252,33.6731809 C6.23444902,33.4128898 6.60613252,33.2848233 7.06948684,33.2848233 C7.59034377,33.2848233 7.9378595,33.3297297 8.10620046,33.4220374 L7.91119163,34.0931393 C7.81196337,34.0239359 7.70100387,33.9732227 7.5836768,33.9434511 C7.4463343,33.8990561 7.30301972,33.8757819 7.15865755,33.8744283 C6.86197744,33.8744283 6.62530006,33.9409563 6.45445899,34.0740125 C6.28528466,34.2087318 6.19611395,34.4008316 6.19611395,34.6553015 C6.19611395,34.7600832 6.22778206,34.8632017 6.27945106,34.9629938 C6.3361203,35.0602911 6.40862358,35.1492723 6.50196114,35.229106 C6.5894651,35.3081081 6.78530731,35.4577963 7.07198696,35.6715177 C7.36116672,35.8877339 7.57284297,36.1056133 7.70868246,36.3284823 C7.84118846,36.5488565 7.91119163,36.808316 7.91119163,37.1043659 C7.91119163,37.5634096 7.75451787,37.9168399 7.44867068,38.1629938 C7.1369899,38.4074844 6.72863807,38.5313929 6.22528194,38.5313929 C6.04444042,38.5313929 5.8402645,38.5047817 5.6127542,38.4532225 C5.42841364,38.4165598 5.24870198,38.359665 5.0768966,38.2835759 M9.21125051,36.2128898 C9.38792518,36.2935551 9.58960098,36.3309771 9.83044522,36.3309771 C10.1912949,36.3309771 10.487975,36.2752599 10.7163187,36.1588358 C10.9454957,36.0399168 11.0563341,35.8719335 11.0563341,35.6474012 C11.0563341,35.3638254 10.8638254,35.2232848 10.4704742,35.2232848 C9.87044703,35.2232848 9.44709452,35.550104 9.21125051,36.2128898 M9.09541193,36.6927235 C9.0762444,36.8033264 9.0645772,36.9089397 9.0645772,37.0120582 C9.0645772,37.3155925 9.14874768,37.5509356 9.32208886,37.7155925 C9.49126319,37.8785863 9.7329408,37.9609148 10.038788,37.9609148 C10.3113003,37.9609148 10.5838127,37.8594595 10.8638254,37.6598753 L10.7963223,38.3326403 C10.4246388,38.4507277 10.0987907,38.5139293 9.81461117,38.5139293 C8.85456769,38.5139293 8.37621269,37.9775468 8.37621269,36.9064449 C8.37621269,36.2777547 8.57955523,35.7463617 8.98207346,35.3122661 C9.38209158,34.8823285 9.89211468,34.6652807 10.4988088,34.6652807 C10.8688256,34.6652807 11.1605055,34.7451143 11.3821822,34.9022869 C11.6038589,35.0586279 11.709697,35.2831601 11.709697,35.5733888 C11.709697,35.9767152 11.541356,36.2952183 11.1963404,36.5297297 C10.8554916,36.762578 10.4371394,36.8798337 9.93961683,36.8798337 C9.6062684,36.8798337 9.32208886,36.816632 9.09541193,36.6927235 M13.6831197,35.195842 C13.4181077,35.195842 13.1914308,35.3014553 13.0105892,35.5051975 C12.8302429,35.7053408 12.7325738,35.9662289 12.7372435,36.235343 C12.7372435,36.7376299 12.9280855,36.9912682 13.3122696,36.9912682 C13.5672811,36.9912682 13.7989583,36.8632017 13.9989673,36.610395 C14.1973097,36.3575884 14.2981476,36.0914761 14.2981476,35.8070686 C14.3054839,35.6420793 14.2453252,35.4811965 14.1314733,35.3613306 C14.0103979,35.2482585 13.8487896,35.1886084 13.6831197,35.195842 M11.6105258,39.4844075 L11.9205399,38.997921 C12.3488926,39.2116424 12.6964084,39.3172557 12.9714208,39.3172557 C13.2781014,39.3172557 13.5364464,39.2607069 13.7389556,39.1476091 C13.9389646,39.0345114 14.0448028,38.8756757 14.0448028,38.6735967 C14.0477505,38.5782747 14.0091426,38.4863586 13.9389646,38.4216216 C13.8739617,38.3550936 13.7531229,38.3101871 13.593949,38.2835759 L12.9805879,38.177131 C12.7355768,38.1172557 12.6097378,37.9900208 12.6097378,37.8004158 C12.6097378,37.6474012 12.80558,37.4968815 13.2039313,37.3405405 L13.0872594,37.3446985 C12.814747,37.3446985 12.5739028,37.2432432 12.3705603,37.0419958 C12.1712833,36.8516535 12.0604601,36.5870865 12.0647131,36.3118503 C12.0647131,35.8261954 12.2213868,35.4303534 12.5330676,35.1251559 C12.8455818,34.8199584 13.2439331,34.6652807 13.7314552,34.6652807 C14.0814711,34.6652807 14.3564835,34.7492723 14.5539925,34.9147609 L14.8698401,34.5621622 L15.2340233,34.9372141 L14.8906744,35.2939709 C14.9573441,35.3879418 14.9873454,35.5376299 14.9873454,35.7397089 C14.9873454,36.1388773 14.8906744,36.4781705 14.6889986,36.762578 C14.4946589,37.0408479 14.216443,37.2500134 13.894796,37.3596674 C13.5739481,37.4744283 13.4122741,37.5800416 13.4122741,37.6790021 C13.4122741,37.7613306 13.4564428,37.8004158 13.5406133,37.8004158 C13.5764482,37.8004158 13.6247837,37.7954262 13.6881199,37.7837838 C13.7481227,37.7754678 13.7989583,37.7713098 13.8322931,37.7713098 C14.4098193,37.7713098 14.698999,38.0307692 14.698999,38.5505198 C14.698999,38.960499 14.5156574,39.2856549 14.1514743,39.5326403 C13.7864577,39.7779626 13.3547715,39.8985447 12.8539155,39.8985447 C12.3447258,39.8985447 11.9322071,39.7613306 11.6105258,39.4844075 M16.5415825,34.7359667 L16.1073962,37.1018711 C16.0890123,37.1936259 16.0792473,37.2868922 16.0782282,37.3804574 C16.0782282,37.768815 16.2782372,37.9609148 16.684089,37.9609148 C16.9316002,37.9609148 17.1674442,37.8694387 17.3949545,37.6814969 C17.6224648,37.4985447 17.7591376,37.2765073 17.8049731,37.022869 L18.2299923,34.7359667 L18.9275239,34.7359667 L18.2466597,38.4440748 L17.5516282,38.4440748 L17.6482993,37.9218295 C17.3874541,38.3168399 16.9399339,38.5139293 16.302405,38.5139293 C16.0107251,38.5139293 15.7865483,38.4282744 15.6248743,38.2569647 C15.4607002,38.0848233 15.3840301,37.8453222 15.3840301,37.5301455 C15.3840301,37.418711 15.3923638,37.2981289 15.4148648,37.170894 L15.8473844,34.7351351 L16.5415825,34.7351351 L16.5415825,34.7359667 Z M21.7218171,35.3879418 C21.5839171,35.2777846 21.411742,35.21924 21.2351284,35.2224532 C21.0042846,35.2224532 20.7784411,35.3280665 20.5667648,35.5442827 C20.3550885,35.760499 20.2200824,36.0182952 20.1642466,36.3193347 L19.7892296,38.4440748 L19.1300331,38.4440748 L19.7850627,34.7351351 L20.445926,34.7351351 L20.342588,35.3280665 C20.6559355,34.8873181 21.0542869,34.6652807 21.5293084,34.6652807 C21.6109788,34.6652807 21.7368178,34.6819127 21.910159,34.7151767 L21.7218171,35.3879418 L21.7218171,35.3879418 Z M23.1527152,33.2823285 C23.274007,33.279956 23.3909371,33.3274708 23.4760632,33.4137214 C23.567734,33.5027027 23.6110693,33.6133056 23.6110693,33.7413721 C23.6133407,33.8635331 23.5644036,33.9810943 23.4760632,34.0656965 C23.3907764,34.151901 23.2741046,34.1999109 23.1527152,34.1987526 C23.0299036,34.1996608 22.9117725,34.1517907 22.824367,34.0656965 C22.7367009,33.9806357 22.687891,33.8633799 22.6893609,33.7413721 C22.6870442,33.618351 22.7352286,33.4997324 22.8227324,33.4130426 C22.9102363,33.3263528 23.0294522,33.2791285 23.1527152,33.2823285 L23.1527152,33.2823285 Z M22.0860003,38.4440748 L22.6443589,35.2898129 L22.1535033,35.2898129 L22.2768422,34.7476091 L23.4102269,34.7476091 L22.7543639,38.4440748 L22.0860003,38.4440748 L22.0860003,38.4440748 Z M26.6553739,35.7638254 C26.6595407,35.7438669 26.6278726,35.6790021 26.5637031,35.5733888 C26.5034998,35.4718451 26.420836,35.3853747 26.3220255,35.3205821 C26.2356962,35.2603913 26.1331548,35.2276362 26.0278455,35.2266112 C25.6178269,35.2266112 25.2778115,35.3929314 25.0052992,35.7247401 C24.7402872,36.0573805 24.6019476,36.4806653 24.6019476,36.9970894 C24.6019476,37.649896 24.8719598,37.9775468 25.4103175,37.9775468 C25.656162,37.9775468 25.8803388,37.8577963 26.0928484,37.6191268 C26.3003578,37.3804574 26.4403641,37.0727651 26.5020336,36.6927235 L26.6553739,35.7638254 L26.6553739,35.7638254 Z M26.1970198,38.4440748 L26.2778568,38.0182952 C26.0086779,38.3459459 25.6394945,38.5122661 25.1736401,38.5122661 C24.773622,38.5122661 24.4594411,38.3858628 24.2335975,38.1413721 C24.0060872,37.8952183 23.8902487,37.5617464 23.8902487,37.1392931 C23.8902487,36.4158004 24.0860909,35.8253638 24.4744418,35.3638254 C24.8372379,34.9148092 25.3883063,34.6592142 25.966176,34.6719335 C26.3161919,34.6719335 26.5895376,34.8199584 26.7745459,35.1110187 L27.1245618,33.216632 L27.7545903,33.216632 L26.8495493,38.4440748 L26.1961864,38.4440748 L26.1970198,38.4440748 Z M30.3113728,35.3530146 C30.2505367,35.2532225 30.0388605,35.2049896 29.6821776,35.2049896 C29.3154944,35.2049896 28.9938131,35.3962578 28.7146338,35.7846154 C28.4371212,36.1721414 28.299615,36.6577963 28.299615,37.2382536 C28.299615,37.7305613 28.519625,37.9775468 28.9579782,37.9775468 C29.1846551,37.9775468 29.3996648,37.8577963 29.6046741,37.6232848 C29.8030164,37.3846154 29.9446895,37.0827443 30.0213597,36.7135135 L30.3113728,35.3530146 Z M31.037239,34.968815 L30.5838851,37.1268191 C30.564696,37.2321567 30.5557651,37.3390998 30.5572173,37.4461538 C30.5572173,37.8037422 30.6130531,38.1380457 30.7263916,38.4440748 L30.0530278,38.4440748 C30.0026776,38.3238303 29.9638905,38.1990841 29.9371892,38.0715177 C29.8288509,38.2037422 29.667177,38.3101871 29.4530006,38.3925156 C29.2363241,38.4731809 29.0088138,38.5139293 28.7654695,38.5139293 C28.402953,38.5139293 28.1137733,38.4058212 27.9112641,38.1920998 C27.7087549,37.9758836 27.6045835,37.6656965 27.6045835,37.2607069 C27.6045835,36.5804574 27.8079261,35.97921 28.2079442,35.4561331 C28.6062956,34.9280665 29.1246524,34.6652807 29.7588478,34.6652807 C30.3547081,34.6652807 30.7813941,34.766736 31.037239,34.968815 L31.037239,34.968815 Z M33.9898727,35.7638254 C33.9990398,35.7438669 33.9648716,35.6790021 33.8998687,35.5733888 C33.8406419,35.4721881 33.7591415,35.3857424 33.6615245,35.3205821 C33.5738922,35.2604988 33.4703286,35.2277878 33.3640111,35.2266112 C32.9556592,35.2266112 32.6173106,35.3929314 32.3472983,35.7247401 C32.0772861,36.0573805 31.9389465,36.4806653 31.9389465,36.9970894 C31.9389465,37.649896 32.2122922,37.9775468 32.7523167,37.9775468 C32.9939943,37.9775468 33.2181711,37.8577963 33.4298474,37.6191268 C33.642357,37.3804574 33.7798632,37.0727651 33.8398659,36.6927235 L33.9898727,35.7638254 L33.9898727,35.7638254 Z M33.5365189,38.4440748 L33.6156891,38.0182952 C33.348177,38.3459459 32.9764935,38.5122661 32.5139726,38.5122661 C32.1131211,38.5122661 31.7972734,38.3858628 31.5722632,38.1413721 C31.3439196,37.8952183 31.2322478,37.5617464 31.2322478,37.1392931 C31.2322478,36.4158004 31.4255899,35.8253638 31.8147742,35.3638254 C32.1769494,34.9154093 32.7269828,34.6598661 33.3040083,34.6719335 C33.6598578,34.6719335 33.9290366,34.8199584 34.1148784,35.1110187 L34.4640609,33.216632 L35.0924227,33.216632 L34.1898818,38.4440748 L33.5365189,38.4440748 L33.5365189,38.4440748 Z M37.5083654,37.7155925 C37.5517007,37.7862786 37.6367046,37.8486486 37.7642103,37.9027027 C37.889216,37.9509356 38.0100548,37.9775468 38.1208932,37.9775468 C38.6059151,37.9775468 38.9775986,37.8128898 39.2409439,37.4852391 C39.5009557,37.1600832 39.6334617,36.7135135 39.6334617,36.1480249 C39.6334617,35.8453222 39.5584583,35.6158004 39.4017845,35.4661123 C39.2451107,35.3122661 39.0159337,35.2382536 38.7100865,35.2382536 C38.5767471,35.2382536 38.4200734,35.2831601 38.2442321,35.3779626 C38.0683908,35.4719335 37.9425517,35.5692308 37.8633815,35.6715177 L37.5083654,37.7155925 L37.5083654,37.7155925 Z M37.4141945,38.2569647 L37.1225146,39.9151767 L36.4599846,39.9151767 L37.1900177,35.8453222 C37.2233525,35.6665281 37.2408533,35.4918919 37.2408533,35.3239085 C37.2408533,35.1467775 37.2241859,34.972973 37.1858508,34.8099792 L37.8508809,34.6852391 C37.8608814,34.7135135 37.8800489,34.8731809 37.9108836,35.1592516 C38.0200553,35.0245322 38.1742289,34.9106029 38.3817383,34.8224532 C38.5842475,34.7276507 38.7750895,34.6860707 38.9509307,34.6860707 C39.4142851,34.6860707 39.7593007,34.7975052 39.9876444,35.027027 C40.2168214,35.2557173 40.3334934,35.6 40.3334934,36.0590437 C40.3334934,36.7600832 40.1401513,37.3488565 39.7518004,37.8203742 C39.3601159,38.2960499 38.8467594,38.5305613 38.212564,38.5305613 C38.0526372,38.5267982 37.8940753,38.5001939 37.7417093,38.4515593 C37.5667014,38.3991684 37.4583632,38.3343035 37.4141945,38.2569647 L37.4141945,38.2569647 Z M43.218624,35.3530146 C43.1527877,35.2532225 42.9452783,35.2049896 42.5835953,35.2049896 C42.2219122,35.2049896 41.900231,35.3962578 41.621885,35.7846154 C41.3435391,36.1721414 41.2060329,36.6577963 41.2060329,37.2382536 C41.2060329,37.7305613 41.4210426,37.9775468 41.8618959,37.9775468 C42.091073,37.9775468 42.3060827,37.8577963 42.511092,37.6232848 C42.7086009,37.3846154 42.8511074,37.0827443 42.9277775,36.7135135 L43.2177907,35.3530146 L43.218624,35.3530146 Z M43.9436569,34.968815 L43.490303,37.1268191 C43.4736356,37.2141372 43.4636351,37.3205821 43.4636351,37.4461538 C43.4636351,37.8037422 43.5219711,38.1380457 43.6319761,38.4440748 L42.9594456,38.4440748 C42.9095656,38.3234326 42.8699789,38.1988046 42.8411069,38.0715177 C42.7352688,38.2037422 42.5719281,38.3101871 42.3544182,38.3925156 C42.1419086,38.4731809 41.9127316,38.5139293 41.6710539,38.5139293 C41.3102043,38.5139293 41.0201911,38.4058212 40.8185153,38.1920998 C40.6151728,37.9758836 40.5110014,37.6656965 40.5110014,37.2607069 C40.5110014,36.5804574 40.7093437,35.97921 41.1126953,35.4561331 C41.5152136,34.9280665 42.0310702,34.6652807 42.6602654,34.6652807 C43.2561257,34.6652807 43.6886453,34.766736 43.9436569,34.968815 L43.9436569,34.968815 Z M46.7504507,35.3879418 C46.6116467,35.277669 46.4386526,35.2191465 46.2612618,35.2224532 C46.0312514,35.2224532 45.8029077,35.3280665 45.594565,35.5442827 C45.381222,35.760499 45.2462159,36.0182952 45.19038,36.3193347 L44.8170298,38.4440748 L44.1561665,38.4440748 L44.8120295,34.7351351 L45.4728928,34.7351351 L45.3695548,35.3280665 C45.6879025,34.8873181 46.0862539,34.6652807 46.5579419,34.6652807 C46.6379456,34.6652807 46.7662847,34.6819127 46.9371258,34.7151767 L46.7504507,35.3879418 Z M49.5564111,35.3530146 C49.4914081,35.2532225 49.2830654,35.2049896 48.9238824,35.2049896 C48.5605326,35.2049896 48.2371847,35.3962578 47.9596721,35.7846154 C47.6821595,36.1721414 47.5446533,36.6577963 47.5446533,37.2382536 C47.5446533,37.7305613 47.7646633,37.9775468 48.2030164,37.9775468 C48.4296934,37.9775468 48.6447031,37.8577963 48.8497124,37.6232848 C49.0480547,37.3846154 49.1897278,37.0827443 49.2663979,36.7135135 L49.5564111,35.3530146 L49.5564111,35.3530146 Z M50.2872775,34.968815 L49.8289234,37.1268191 C49.812256,37.2141372 49.8022555,37.3205821 49.8022555,37.4461538 C49.8022555,37.8037422 49.8580914,38.1380457 49.9714299,38.4440748 L49.2988994,38.4440748 C49.2482028,38.323882 49.2091345,38.199129 49.1822275,38.0715177 C49.0499725,38.2168912 48.8835919,38.327195 48.6980389,38.3925156 C48.4813624,38.4731809 48.2538521,38.5139293 48.0105077,38.5139293 C47.6438244,38.5139293 47.3588115,38.4058212 47.1563024,38.1920998 C46.9537932,37.9758836 46.8496218,37.6656965 46.8496218,37.2607069 C46.8496218,36.5804574 47.0471308,35.97921 47.4529825,35.4561331 C47.8505005,34.9280665 48.3696907,34.6652807 48.9997192,34.6652807 C49.5947461,34.6652807 50.0264324,34.766736 50.2872775,34.968815 Z M53.0899044,35.2565489 L52.6632184,35.2565489 L52.7690566,34.7351351 L53.2007428,34.7351351 L53.3524163,33.9609148 L54.1074505,33.6756757 L53.8616061,34.7351351 L54.8816522,34.7351351 L54.7683138,35.2565489 L53.749101,35.2565489 L53.3624168,37.0993763 C53.3307487,37.2407484 53.3174147,37.3513514 53.3174147,37.4295218 C53.3174147,37.7821206 53.4907559,37.9609148 53.8441053,37.9609148 C54.0166131,37.9609148 54.1991213,37.9168399 54.3924634,37.8328482 L54.3707958,38.4108108 C54.1824539,38.4798337 53.8732732,38.5139293 53.4515875,38.5139293 C53.1890756,38.5139293 52.9807328,38.4324324 52.8365596,38.2719335 C52.6865528,38.1064449 52.6157163,37.8835759 52.6157163,37.5991684 C52.6157163,37.5343035 52.6273835,37.4561331 52.6432175,37.3613306 L53.0899044,35.2557173 L53.0899044,35.2565489 Z M56.2767154,34.7359667 L55.8441958,37.1018711 C55.8275284,37.2016632 55.8183613,37.2964657 55.8183613,37.3804574 C55.8183613,37.768815 56.0158703,37.9609148 56.4183885,37.9609148 C56.6683998,37.9609148 56.9059106,37.8694387 57.1350876,37.6814969 C57.3642647,37.4985447 57.4967707,37.2765073 57.5451062,37.022869 L57.966792,34.7359667 L58.6634902,34.7359667 L57.9817927,38.4440748 L57.2884279,38.4440748 L57.385099,37.9218295 C57.1250872,38.3168399 56.6767335,38.5139293 56.0375379,38.5139293 C55.7483582,38.5139293 55.5241813,38.4282744 55.3650075,38.2569647 C55.2008334,38.0848233 55.119163,37.8453222 55.119163,37.5301455 C55.119163,37.418711 55.1333303,37.2981289 55.1524978,37.170894 L55.5841841,34.7351351 L56.2758821,34.7351351 L56.2767154,34.7359667 Z M63.3970379,35.7638254 C63.3970379,35.7438669 63.3695367,35.6790021 63.3053671,35.5733888 C63.245,35.4719691 63.1623682,35.3855322 63.0636895,35.3205821 C62.9763819,35.2604731 62.8730745,35.2277513 62.7670094,35.2266112 C62.3569908,35.2266112 62.0144753,35.3929314 61.7469632,35.7247401 C61.4786177,36.0573805 61.3436116,36.4806653 61.3436116,36.9970894 C61.3436116,37.649896 61.6136238,37.9775468 62.1519815,37.9775468 C62.3936591,37.9775468 62.6220028,37.8577963 62.8295122,37.6191268 C63.0420218,37.3804574 63.1795281,37.0727651 63.2420309,36.6927235 L63.3970379,35.7638254 L63.3970379,35.7638254 Z M62.9386838,38.4440748 L63.015354,38.0182952 C62.7478418,38.3459459 62.3819919,38.5122661 61.9153041,38.5122661 C61.5127859,38.5122661 61.198605,38.3858628 60.9719281,38.1413721 C60.7452511,37.8952183 60.632746,37.5617464 60.632746,37.1392931 C60.632746,36.4158004 60.8277549,35.8253638 61.2111056,35.3638254 C61.6044567,34.9039501 62.1011459,34.6719335 62.7061733,34.6719335 C63.0586893,34.6719335 63.3262014,34.8199584 63.5170433,35.1110187 L63.8670592,33.216632 L64.4920875,33.216632 L63.5895466,38.4440748 L62.9378504,38.4440748 L62.9386838,38.4440748 Z M65.6704742,33.2823285 C65.8013135,33.2823285 65.9096517,33.3255717 65.9988224,33.4137214 C66.0904932,33.5027027 66.1338285,33.6133056 66.1338285,33.7413721 C66.1365115,33.8636107 66.0875084,33.9813306 65.9988224,34.0656965 C65.912162,34.1529131 65.793536,34.2009838 65.6704742,34.1987526 C65.5490292,34.2001994 65.4322487,34.1521448 65.3471262,34.0656965 C65.2589204,33.9810675 65.2102606,33.8634463 65.2129535,33.7413721 C65.2098351,33.6182454 65.2584885,33.4994336 65.3471262,33.4137214 C65.4321399,33.3273033 65.5491457,33.2797578 65.6704742,33.2823285 L65.6704742,33.2823285 Z M64.6095928,38.4440748 L65.1721183,35.2898129 L64.6770959,35.2898129 L64.8004348,34.7476091 L65.9338195,34.7476091 L65.2771231,38.4440748 L64.6095928,38.4440748 Z M68.654776,38.4440748 L69.0447937,36.2893971 C69.081462,36.0956341 69.0956293,35.9359667 69.0956293,35.8095634 C69.0956293,35.4162162 68.8931202,35.2224532 68.483935,35.2224532 C68.3264278,35.2224532 68.1572535,35.2665281 67.976412,35.3588358 C67.8150948,35.4410791 67.6708732,35.5531073 67.5513927,35.6889813 L67.0697042,38.4440748 L66.4013406,38.4440748 L66.9013633,35.633264 C66.9113637,35.5692308 66.9196975,35.4918919 66.9196975,35.4045738 C66.9196975,35.1692308 66.8938629,34.9638254 66.8455274,34.791684 L67.484723,34.6652807 C67.5455591,35.0029106 67.5763939,35.1883576 67.5763939,35.216632 C67.8580733,34.8507277 68.2605915,34.6652807 68.7964491,34.6652807 C69.4673128,34.6652807 69.802328,35.0070686 69.802328,35.6914761 C69.802328,35.8286902 69.7856606,35.97921 69.757326,36.1480249 L69.3589746,38.4440748 L68.654776,38.4440748 Z M71.0298836,36.2128898 C71.2065583,36.2935551 71.4132343,36.3309771 71.6524118,36.3309771 C72.009928,36.3309771 72.3082748,36.2752599 72.5374519,36.1588358 C72.7624621,36.0399168 72.8774673,35.8719335 72.8774673,35.6474012 C72.8774673,35.3638254 72.6849586,35.2232848 72.2866072,35.2232848 C71.6915802,35.2232848 71.2715612,35.550104 71.0298836,36.2128898 M70.9173785,36.6927235 C70.8957443,36.7978273 70.8843021,36.9047657 70.8832103,37.0120582 C70.8832103,37.3155925 70.9698809,37.5509356 71.1415553,37.7155925 C71.3098963,37.8785863 71.5515739,37.9609148 71.8599212,37.9609148 C72.1324335,37.9609148 72.407446,37.8594595 72.6849586,37.6598753 L72.6149554,38.3326403 C72.2432719,38.4507277 71.9207573,38.5139293 71.6315775,38.5139293 C70.6757009,38.5139293 70.1956792,37.9775468 70.1956792,36.9064449 C70.1956792,36.2777547 70.3956882,35.7463617 70.8007066,35.3122661 C71.2040582,34.8823285 71.7074143,34.6652807 72.3207754,34.6652807 C72.6874587,34.6652807 72.9816387,34.7451143 73.2016486,34.9022869 C73.4233253,35.0586279 73.5291635,35.2831601 73.5291635,35.5733888 C73.5291635,35.9767152 73.357489,36.2952183 73.0191404,36.5297297 C72.6749581,36.762578 72.2557725,36.8798337 71.7590833,36.8798337 C71.4232347,36.8798337 71.1457222,36.816632 70.9173785,36.6927235 M76.3701255,35.3879418 C76.2343213,35.2775028 76.0635896,35.2188463 75.888437,35.2224532 C75.6534263,35.2224532 75.4300829,35.3280665 75.2175733,35.5442827 C75.0075637,35.760499 74.8725576,36.0182952 74.8175551,36.3193347 L74.4408714,38.4440748 L73.7800082,38.4440748 L74.4358712,34.7351351 L75.0967345,34.7351351 L74.9933964,35.3280665 C75.3100774,34.8873181 75.7092622,34.6652807 76.182617,34.6652807 C76.263454,34.6652807 76.3917931,34.6819127 76.5609674,34.7151767 L76.3701255,35.3879418 L76.3701255,35.3879418 Z M77.2051633,37.039501 C77.2051633,37.6648649 77.4676752,37.9775468 77.9951991,37.9775468 C78.3843834,37.9775468 78.6952308,37.7862786 78.9252412,37.4095634 C79.156085,37.0320166 79.2719235,36.593763 79.2719235,36.0981289 C79.2719235,35.5010395 79.0044114,35.2049896 78.4835545,35.2049896 C78.215209,35.2049896 77.9818651,35.2997921 77.7785226,35.4877339 C77.5717278,35.6873259 77.4206431,35.9372614 77.3401694,36.2128898 C77.2565879,36.4804713 77.2111407,36.7584544 77.2051633,37.0386694 M76.5126319,37.0802495 C76.5126319,36.4174636 76.7034739,35.8494802 77.0959917,35.3754678 C77.4843426,34.9039501 77.9768649,34.6652807 78.5777254,34.6652807 C79.0285792,34.6652807 79.369428,34.7891892 79.6094388,35.0336798 C79.8511164,35.2765073 79.9694551,35.6216216 79.9694551,36.0690229 C79.9694551,36.424948 79.8944517,36.7941788 79.7569455,37.1783784 C79.6178325,37.5557663 79.3756275,37.8867584 79.0577472,38.1338877 C78.7343992,38.3858628 78.347715,38.5139293 77.8951945,38.5139293 C77.4460075,38.5139293 77.1059921,38.3883576 76.8668146,38.1388773 C76.6309706,37.8885655 76.5126319,37.5351351 76.5126319,37.0794179" id="Shape" fill="#090E35" fill-rule="nonzero" mask="url(#mask-2)"></path>
                    </g>
                </g>
            </g>
        </g>
    </g>
</svg>