<svg width="114" height="19" viewBox="0 0 114 19" fill="none" xmlns="http://www.w3.org/2000/svg">
<path d="M25.1401 6.81304C25.1401 9.94746 22.9939 12.4863 19.4668 12.4863C15.9396 12.4863 13.8149 9.94209 13.8149 6.81304C13.8149 3.70115 15.9782 1.13867 19.4442 1.13867C22.9102 1.13867 25.1401 3.69471 25.1401 6.81304ZM16.5083 6.81304C16.5083 8.46878 17.502 10.014 19.4668 10.014C21.4316 10.014 22.4252 8.46878 22.4252 6.81304C22.4252 5.17876 21.277 3.59384 19.4668 3.59384C17.5235 3.58419 16.5083 5.1734 16.5083 6.81304V6.81304Z" fill="#000927"/>
<path d="M29.7186 1.35449V7.05032C29.7186 8.70606 30.6232 9.96476 32.3454 9.96476C34.0012 9.96476 35.1279 8.56978 35.1279 6.91726V1.35449H37.7988V12.26H35.393L35.2159 10.7835C34.0902 11.8877 33.0526 12.4167 31.5288 12.4167C28.9234 12.4167 27.022 10.4519 27.022 7.075V1.35449H29.7186Z" fill="#000927"/>
<path d="M11.9744 6.52024C11.9744 5.39459 11.6653 4.40093 10.7167 3.27529C10.1019 2.47908 8.88393 1.68501 8.88393 1.68501C8.13279 1.17745 6.94168 1.00146 6.08001 1.00146C3.03358 1.00146 0.119141 2.85572 0.119141 6.52024C0.119141 9.92078 2.47988 11.9929 6.08001 11.9929C8.11132 11.9929 9.17151 12.8309 9.17151 14.139C9.17151 15.4857 7.53723 16.1263 6.03602 16.1263C4.33628 16.1038 2.74708 15.2432 2.83507 13.7194H0.163133C0.0558269 16.8313 2.26098 18.7306 6.03602 18.7306C8.95046 18.7306 11.9744 17.2283 11.9744 14.139C11.9744 13.0799 11.5999 11.4456 9.28096 10.6065C11.0698 9.78771 11.9744 8.46356 11.9744 6.52024ZM6.08001 9.52482C4.31375 9.52482 2.81253 8.42063 2.81253 6.52024C2.81253 4.48892 4.31482 3.49527 6.08001 3.49527C7.8452 3.49527 9.28096 4.66598 9.28096 6.52024C9.28096 8.39703 7.84628 9.52267 6.08001 9.52267V9.52482Z" fill="#000927"/>
<path d="M11.9029 0.357422H8.85645V3.40385H11.9029V0.357422Z" fill="#00DDF4"/>
<line x1="47.916" y1="2.68502" x2="47.916" y2="16.4029" stroke="#CFD8E6" stroke-width="0.464767" stroke-linecap="round"/>
<g clip-path="url(#clip0_2397_3158)">
<path d="M67.0338 3.45562H69.185C69.185 3.50886 69.185 3.56211 69.185 3.64198C69.185 4.20106 68.9944 4.68026 68.6404 5.05298C68.2864 5.4257 67.7962 5.61206 67.2244 5.61206C66.6526 5.61206 66.1624 5.4257 65.7812 5.02636C65.4 4.65364 65.1821 4.17443 65.1821 3.61536C65.1821 3.05628 65.3727 2.57707 65.754 2.20435C66.1352 1.83163 66.6253 1.61865 67.1972 1.61865C68.0685 1.61865 68.7493 2.04462 69.0488 2.73681L68.6404 2.86992C68.3681 2.33747 67.8507 2.04462 67.2244 2.04462C66.7887 2.04462 66.4075 2.20435 66.108 2.4972C65.8084 2.79005 65.6723 3.16277 65.6723 3.61536C65.6723 4.06794 65.8357 4.41404 66.1352 4.73351C66.4347 5.02636 66.8159 5.1861 67.2516 5.1861C67.6601 5.1861 67.9868 5.05298 68.2591 4.81338C68.5314 4.57377 68.6948 4.2543 68.7493 3.85496H67.0338V3.45562Z" fill="#005CB9"/>
<path d="M72.643 2.71045L72.6158 3.13641C72.5885 3.13641 72.5341 3.13641 72.4524 3.13641C71.7172 3.13641 71.3087 3.66887 71.3087 4.46755V5.55908H70.873V2.73707H71.2815V3.42926C71.5538 2.95005 71.935 2.71045 72.4252 2.71045C72.5341 2.71045 72.5885 2.71045 72.643 2.71045Z" fill="#005CB9"/>
<path d="M76.646 2.73682V5.55882H76.2103V5.10624C75.9652 5.45233 75.6112 5.63869 75.1211 5.63869C74.7671 5.63869 74.4948 5.5322 74.277 5.31922C74.0591 5.10624 73.9502 4.81339 73.9502 4.44067V2.73682H74.3859V4.33418C74.3859 4.86663 74.7126 5.21273 75.1756 5.21273C75.7746 5.21273 76.1831 4.81339 76.1831 4.09457V2.73682H76.646Z" fill="#005CB9"/>
<path d="M81.0844 3.08319C81.3567 3.34942 81.5201 3.72214 81.5201 4.1481C81.5201 4.57406 81.384 4.94678 81.0844 5.21301C80.8121 5.47923 80.4581 5.63897 80.0769 5.63897C79.5868 5.63897 79.2055 5.47923 78.9332 5.10652V6.51752H78.4976V2.73709H78.9332V3.18968C79.2055 2.84359 79.5868 2.65723 80.0769 2.65723C80.4581 2.65723 80.7849 2.79034 81.0844 3.08319ZM80.7577 4.94678C80.9755 4.7338 81.0572 4.46757 81.0572 4.1481C81.0572 3.82863 80.9483 3.5624 80.7577 3.34942C80.5671 3.13644 80.2947 3.05657 79.9952 3.05657C79.7229 3.05657 79.4506 3.16306 79.2328 3.37604C79.0149 3.58902 78.906 3.82863 78.906 4.17472C78.906 4.49419 79.0149 4.76042 79.2328 4.9734C79.4506 5.18638 79.6957 5.26625 79.9952 5.26625C80.2947 5.23963 80.5398 5.13314 80.7577 4.94678Z" fill="#005CB9"/>
<path d="M85.4139 3.08319C85.7134 3.34942 85.8496 3.69551 85.8496 4.1481C85.8496 4.57406 85.7134 4.92016 85.4139 5.21301C85.1144 5.50586 84.7604 5.63897 84.3247 5.63897C83.889 5.63897 83.535 5.50586 83.2355 5.21301C82.936 4.92016 82.7998 4.57406 82.7998 4.1481C82.7998 3.72214 82.936 3.37604 83.2355 3.08319C83.535 2.79034 83.889 2.65723 84.3247 2.65723C84.7604 2.65723 85.1144 2.79034 85.4139 3.08319ZM85.0871 4.92016C85.305 4.70718 85.4139 4.44095 85.4139 4.12148C85.4139 3.802 85.305 3.53578 85.0871 3.34942C84.8693 3.13644 84.6242 3.02994 84.3247 3.02994C84.0252 3.02994 83.7529 3.13644 83.5622 3.34942C83.3444 3.5624 83.2355 3.802 83.2355 4.12148C83.2355 4.44095 83.3444 4.70718 83.5622 4.92016C83.7801 5.13314 84.0252 5.23963 84.3247 5.23963C84.6242 5.23963 84.8693 5.13314 85.0871 4.92016Z" fill="#005CB9"/>
<path d="M65.166 10.5918L71.1502 16.5248L73.2894 14.3964L67.3052 8.46338L65.166 10.5918Z" fill="#003764"/>
<path d="M66.7633 7.93069C66.1676 7.34537 65.2199 7.34537 64.6242 7.93069L58.0713 14.3958L60.2104 16.5242L65.6802 11.0967C66.8716 9.9261 68.7942 9.9261 69.9585 11.0967L66.7633 7.93069Z" fill="#005CB9"/>
<path d="M93.6245 10.5918L99.6087 16.5248L101.748 14.3964L95.7637 8.46338L93.6245 10.5918Z" fill="#003764"/>
<path d="M95.2225 7.93069C94.6268 7.34537 93.6791 7.34537 93.0834 7.93069L86.5034 14.3958L88.6426 16.5242L94.1123 11.0967C95.3038 9.9261 97.2263 9.9261 98.3907 11.0967L95.2225 7.93069Z" fill="#0060A4"/>
<path d="M80.5733 13.4384L74.562 7.50537L72.4229 9.6072L78.4342 15.5402L80.5733 13.4384Z" fill="#A32035"/>
<path d="M78.9757 16.0721C79.5714 16.6574 80.5191 16.6574 81.1149 16.0721L87.6677 9.60695L85.5286 7.47852L80.0588 12.906C78.8674 14.0767 76.9448 14.0767 75.7534 12.906L78.9757 16.0721Z" fill="#E1251B"/>
<path d="M103.346 7.47852H106.189V14.3959H103.346V7.47852Z" fill="#003764"/>
<path d="M103.346 15.0879C103.346 15.8595 103.996 16.498 104.781 16.498H112.661V13.7045H106.189C104.618 13.7045 103.346 12.454 103.346 10.8843V15.0879Z" fill="#0060A4"/>
</g>
<defs>
<clipPath id="clip0_2397_3158">
<rect width="55.7957" height="16.1167" fill="white" transform="translate(57.5688 1.48584)"/>
</clipPath>
</defs>
</svg>
