<svg width="131" height="110" viewBox="0 0 131 110" fill="none" xmlns="http://www.w3.org/2000/svg">
<rect width="131" height="110" rx="12" fill="white"/>
<path d="M33.3652 89L30.8532 85.4C32.3092 84.776 33.1572 83.544 33.1572 81.864C33.1572 79.352 31.2852 77.8 28.2932 77.8H23.4452V89H26.0372V85.88H28.2932H28.4212L30.5812 89H33.3652ZM30.5332 81.864C30.5332 83.08 29.7332 83.816 28.1492 83.816H26.0372V79.912H28.1492C29.7332 79.912 30.5332 80.632 30.5332 81.864ZM43.4668 84.728C43.4668 81.96 41.5148 80.264 38.9868 80.264C36.3628 80.264 34.3948 82.12 34.3948 84.696C34.3948 87.256 36.3308 89.128 39.3068 89.128C40.8588 89.128 42.0588 88.648 42.8588 87.736L41.5308 86.296C40.9388 86.856 40.2828 87.128 39.3708 87.128C38.0588 87.128 37.1468 86.472 36.9068 85.4H43.4188C43.4348 85.192 43.4668 84.92 43.4668 84.728ZM39.0028 82.152C40.1228 82.152 40.9388 82.856 41.1148 83.944H36.8748C37.0508 82.84 37.8668 82.152 39.0028 82.152ZM51.6406 80.392V81.496C50.9846 80.664 49.9926 80.264 48.7926 80.264C46.4086 80.264 44.4886 81.912 44.4886 84.424C44.4886 86.936 46.4086 88.584 48.7926 88.584C49.9126 88.584 50.8566 88.232 51.5126 87.512V87.88C51.5126 89.432 50.7446 90.232 48.9846 90.232C47.8806 90.232 46.6806 89.848 45.9446 89.256L44.9526 91.048C45.9606 91.832 47.5446 92.232 49.1766 92.232C52.2806 92.232 54.0086 90.76 54.0086 87.56V80.392H51.6406ZM49.2886 86.536C47.9766 86.536 47.0166 85.688 47.0166 84.424C47.0166 83.16 47.9766 82.312 49.2886 82.312C50.6006 82.312 51.5446 83.16 51.5446 84.424C51.5446 85.688 50.6006 86.536 49.2886 86.536ZM56.1237 79.288H58.0757L60.9717 76.984H58.2837L56.1237 79.288ZM56.3317 89H58.8277V80.392H56.3317V89ZM64.0402 89.128C66.6162 89.128 68.1042 87.992 68.1042 86.392C68.1042 83 62.9042 84.424 62.9042 82.952C62.9042 82.504 63.3842 82.152 64.5042 82.152C65.2882 82.152 66.1362 82.312 66.9842 82.792L67.8162 81.016C67.0002 80.536 65.6882 80.264 64.5042 80.264C61.9922 80.264 60.5202 81.416 60.5202 83.048C60.5202 86.488 65.7202 85.048 65.7202 86.456C65.7202 86.936 65.2882 87.24 64.1362 87.24C63.0802 87.24 61.9122 86.904 61.1442 86.408L60.3122 88.2C61.1122 88.728 62.5842 89.128 64.0402 89.128ZM74.5242 86.824C74.2522 87.032 73.8842 87.144 73.5162 87.144C72.8442 87.144 72.4442 86.744 72.4442 86.008V82.504H74.5882V80.584H72.4442V78.488H69.9482V80.584H68.6202V82.504H69.9482V86.04C69.9482 88.088 71.1322 89.128 73.1642 89.128C73.9322 89.128 74.6842 88.952 75.1962 88.584L74.5242 86.824ZM78.9813 81.528V80.392H76.5973V89H79.0933V84.936C79.0933 83.288 80.0053 82.536 81.3813 82.536C81.5733 82.536 81.7333 82.552 81.9413 82.568V80.264C80.6133 80.264 79.5893 80.696 78.9813 81.528ZM86.8506 80.264C85.4746 80.264 84.0826 80.632 83.1386 81.304L84.0346 83.048C84.6586 82.552 85.6026 82.248 86.5146 82.248C87.8586 82.248 88.4986 82.872 88.4986 83.944H86.5146C83.8906 83.944 82.8186 85 82.8186 86.52C82.8186 88.008 84.0186 89.128 86.0346 89.128C87.2986 89.128 88.1946 88.712 88.6586 87.928V89H90.9946V84.088C90.9946 81.48 89.4746 80.264 86.8506 80.264ZM86.6586 87.448C85.7786 87.448 85.2506 87.032 85.2506 86.408C85.2506 85.832 85.6186 85.4 86.7866 85.4H88.4986V86.28C88.2106 87.064 87.4906 87.448 86.6586 87.448ZM98.1336 86.824C97.8616 87.032 97.4936 87.144 97.1256 87.144C96.4536 87.144 96.0536 86.744 96.0536 86.008V82.504H98.1976V80.584H96.0536V78.488H93.5576V80.584H92.2296V82.504H93.5576V86.04C93.5576 88.088 94.7416 89.128 96.7736 89.128C97.5416 89.128 98.2936 88.952 98.8056 88.584L98.1336 86.824ZM108.373 84.728C108.373 81.96 106.421 80.264 103.893 80.264C101.269 80.264 99.3011 82.12 99.3011 84.696C99.3011 87.256 101.237 89.128 104.213 89.128C105.765 89.128 106.965 88.648 107.765 87.736L106.437 86.296C105.845 86.856 105.189 87.128 104.277 87.128C102.965 87.128 102.053 86.472 101.813 85.4H108.325C108.341 85.192 108.373 84.92 108.373 84.728ZM103.909 82.152C105.029 82.152 105.845 82.856 106.021 83.944H101.781C101.957 82.84 102.773 82.152 103.909 82.152Z" fill="#000927"/>
<g clip-path="url(#clip0_4464_29809)">
<path d="M65 60C71.6274 60 77 54.6274 77 48C77 41.3726 71.6274 36 65 36C58.3726 36 53 41.3726 53 48C53 54.6274 58.3726 60 65 60Z" fill="#00F6B4"/>
<path d="M64.9996 45C70.7896 45 75.4996 40.29 75.4996 34.5C75.4996 28.71 70.7896 24 64.9996 24C59.2096 24 54.4996 28.71 54.4996 34.5C54.4996 40.29 59.2103 45 64.9996 45ZM64.9996 27C69.1351 27 72.4996 30.3645 72.4996 34.5C72.4996 38.6355 69.1351 42 64.9996 42C60.8641 42 57.4996 38.6355 57.4996 34.5C57.4996 30.3645 60.8648 27 64.9996 27ZM82.7176 57.8745C79.5451 50.9648 72.5896 46.5 64.9996 46.5C57.4088 46.5 50.4533 50.9648 47.2808 57.8745C46.9351 58.6268 47.2651 59.5178 48.0173 59.8635C48.7711 60.21 49.6606 59.8793 50.0063 59.1263C52.6928 53.2785 58.5781 49.5 64.9996 49.5C71.4211 49.5 77.3056 53.2785 79.9913 59.1255C80.2441 59.676 80.7878 60 81.3556 60C81.5648 60 81.7778 59.9558 81.9811 59.8628C82.7341 59.517 83.0633 58.6268 82.7176 57.8745Z" fill="#000927"/>
</g>
<defs>
<clipPath id="clip0_4464_29809">
<rect width="48" height="48" fill="white" transform="translate(41 18)"/>
</clipPath>
</defs>
</svg>
