<svg width="131" height="110" viewBox="0 0 131 110" fill="none" xmlns="http://www.w3.org/2000/svg">
<rect width="131" height="110" rx="12" fill="white"/>
<path d="M23.4682 80.16C22.5935 80.16 21.7562 80.0373 20.9562 79.792C20.1562 79.536 19.5215 79.2107 19.0522 78.816L19.7722 77.2C20.2202 77.552 20.7749 77.8453 21.4362 78.08C22.0975 78.3147 22.7749 78.432 23.4682 78.432C24.0549 78.432 24.5295 78.368 24.8922 78.24C25.2549 78.112 25.5215 77.9413 25.6922 77.728C25.8629 77.504 25.9482 77.2533 25.9482 76.976C25.9482 76.6347 25.8255 76.3627 25.5802 76.16C25.3349 75.9467 25.0149 75.7813 24.6202 75.664C24.2362 75.536 23.8042 75.4187 23.3242 75.312C22.8549 75.2053 22.3802 75.0827 21.9002 74.944C21.4309 74.7947 20.9989 74.608 20.6042 74.384C20.2202 74.1493 19.9055 73.84 19.6602 73.456C19.4149 73.072 19.2922 72.5813 19.2922 71.984C19.2922 71.376 19.4522 70.8213 19.7722 70.32C20.1029 69.808 20.5989 69.4027 21.2602 69.104C21.9322 68.7947 22.7802 68.64 23.8042 68.64C24.4762 68.64 25.1429 68.7253 25.8042 68.896C26.4655 69.0667 27.0415 69.312 27.5322 69.632L26.8762 71.248C26.3749 70.9493 25.8575 70.7307 25.3242 70.592C24.7909 70.4427 24.2789 70.368 23.7882 70.368C23.2122 70.368 22.7429 70.4373 22.3802 70.576C22.0282 70.7147 21.7669 70.896 21.5962 71.12C21.4362 71.344 21.3562 71.6 21.3562 71.888C21.3562 72.2293 21.4735 72.5067 21.7082 72.72C21.9535 72.9227 22.2682 73.0827 22.6522 73.2C23.0469 73.3173 23.4842 73.4347 23.9642 73.552C24.4442 73.6587 24.9189 73.7813 25.3882 73.92C25.8682 74.0587 26.3002 74.24 26.6842 74.464C27.0789 74.688 27.3935 74.992 27.6282 75.376C27.8735 75.76 27.9962 76.2453 27.9962 76.832C27.9962 77.4293 27.8309 77.984 27.5002 78.496C27.1802 78.9973 26.6842 79.4027 26.0122 79.712C25.3402 80.0107 24.4922 80.16 23.4682 80.16ZM33.8827 80.112C32.9334 80.112 32.1014 79.9253 31.3867 79.552C30.6827 79.168 30.1334 78.6453 29.7387 77.984C29.3547 77.3227 29.1627 76.5707 29.1627 75.728C29.1627 74.8747 29.3494 74.1227 29.7227 73.472C30.1067 72.8107 30.6294 72.2933 31.2907 71.92C31.9627 71.5467 32.7254 71.36 33.5787 71.36C34.4107 71.36 35.152 71.5413 35.8027 71.904C36.4534 72.2667 36.9654 72.7787 37.3387 73.44C37.712 74.1013 37.8987 74.88 37.8987 75.776C37.8987 75.8613 37.8934 75.9573 37.8827 76.064C37.8827 76.1707 37.8774 76.272 37.8667 76.368H30.7467V75.04H36.8107L36.0267 75.456C36.0374 74.9653 35.936 74.5333 35.7227 74.16C35.5094 73.7867 35.216 73.4933 34.8427 73.28C34.48 73.0667 34.0587 72.96 33.5787 72.96C33.088 72.96 32.656 73.0667 32.2827 73.28C31.92 73.4933 31.632 73.792 31.4187 74.176C31.216 74.5493 31.1147 74.992 31.1147 75.504V75.824C31.1147 76.336 31.232 76.7893 31.4667 77.184C31.7014 77.5787 32.032 77.8827 32.4587 78.096C32.8854 78.3093 33.376 78.416 33.9307 78.416C34.4107 78.416 34.8427 78.3413 35.2267 78.192C35.6107 78.0427 35.952 77.808 36.2507 77.488L37.3227 78.72C36.9387 79.168 36.4534 79.5147 35.8667 79.76C35.2907 79.9947 34.6294 80.112 33.8827 80.112ZM39.8198 80V68.128H41.8198V80H39.8198ZM48.4608 80.112C47.5115 80.112 46.6795 79.9253 45.9648 79.552C45.2608 79.168 44.7115 78.6453 44.3168 77.984C43.9328 77.3227 43.7408 76.5707 43.7408 75.728C43.7408 74.8747 43.9275 74.1227 44.3008 73.472C44.6848 72.8107 45.2075 72.2933 45.8688 71.92C46.5408 71.5467 47.3035 71.36 48.1568 71.36C48.9888 71.36 49.7301 71.5413 50.3808 71.904C51.0315 72.2667 51.5435 72.7787 51.9168 73.44C52.2901 74.1013 52.4768 74.88 52.4768 75.776C52.4768 75.8613 52.4715 75.9573 52.4608 76.064C52.4608 76.1707 52.4555 76.272 52.4448 76.368H45.3248V75.04H51.3888L50.6048 75.456C50.6155 74.9653 50.5141 74.5333 50.3008 74.16C50.0875 73.7867 49.7941 73.4933 49.4208 73.28C49.0581 73.0667 48.6368 72.96 48.1568 72.96C47.6661 72.96 47.2341 73.0667 46.8608 73.28C46.4981 73.4933 46.2101 73.792 45.9968 74.176C45.7941 74.5493 45.6928 74.992 45.6928 75.504V75.824C45.6928 76.336 45.8101 76.7893 46.0448 77.184C46.2795 77.5787 46.6101 77.8827 47.0368 78.096C47.4635 78.3093 47.9541 78.416 48.5088 78.416C48.9888 78.416 49.4208 78.3413 49.8048 78.192C50.1888 78.0427 50.5301 77.808 50.8288 77.488L51.9008 78.72C51.5168 79.168 51.0315 79.5147 50.4448 79.76C49.8688 79.9947 49.2075 80.112 48.4608 80.112ZM58.3179 80.112C57.4219 80.112 56.6219 79.9253 55.9179 79.552C55.2246 79.168 54.6806 78.6453 54.2859 77.984C53.8913 77.3227 53.6939 76.5707 53.6939 75.728C53.6939 74.8747 53.8913 74.1227 54.2859 73.472C54.6806 72.8107 55.2246 72.2933 55.9179 71.92C56.6219 71.5467 57.4219 71.36 58.3179 71.36C59.1499 71.36 59.8806 71.5307 60.5099 71.872C61.1499 72.2027 61.6353 72.6933 61.9659 73.344L60.4299 74.24C60.1739 73.8347 59.8593 73.536 59.4859 73.344C59.1233 73.152 58.7286 73.056 58.3019 73.056C57.8113 73.056 57.3686 73.1627 56.9739 73.376C56.5793 73.5893 56.2699 73.8987 56.0459 74.304C55.8219 74.6987 55.7099 75.1733 55.7099 75.728C55.7099 76.2827 55.8219 76.7627 56.0459 77.168C56.2699 77.5627 56.5793 77.8667 56.9739 78.08C57.3686 78.2933 57.8113 78.4 58.3019 78.4C58.7286 78.4 59.1233 78.304 59.4859 78.112C59.8593 77.92 60.1739 77.6213 60.4299 77.216L61.9659 78.112C61.6353 78.752 61.1499 79.248 60.5099 79.6C59.8806 79.9413 59.1499 80.112 58.3179 80.112ZM67.4898 80.112C66.5938 80.112 65.7938 79.9253 65.0898 79.552C64.3965 79.168 63.8525 78.6453 63.4578 77.984C63.0631 77.3227 62.8658 76.5707 62.8658 75.728C62.8658 74.8747 63.0631 74.1227 63.4578 73.472C63.8525 72.8107 64.3965 72.2933 65.0898 71.92C65.7938 71.5467 66.5938 71.36 67.4898 71.36C68.3218 71.36 69.0525 71.5307 69.6818 71.872C70.3218 72.2027 70.8071 72.6933 71.1378 73.344L69.6018 74.24C69.3458 73.8347 69.0311 73.536 68.6578 73.344C68.2951 73.152 67.9005 73.056 67.4738 73.056C66.9831 73.056 66.5405 73.1627 66.1458 73.376C65.7511 73.5893 65.4418 73.8987 65.2178 74.304C64.9938 74.6987 64.8818 75.1733 64.8818 75.728C64.8818 76.2827 64.9938 76.7627 65.2178 77.168C65.4418 77.5627 65.7511 77.8667 66.1458 78.08C66.5405 78.2933 66.9831 78.4 67.4738 78.4C67.9005 78.4 68.2951 78.304 68.6578 78.112C69.0311 77.92 69.3458 77.6213 69.6018 77.216L71.1378 78.112C70.8071 78.752 70.3218 79.248 69.6818 79.6C69.0525 79.9413 68.3218 80.112 67.4898 80.112ZM72.7886 80V71.456H74.7886V80H72.7886ZM73.7966 70.048C73.4232 70.048 73.1139 69.9307 72.8686 69.696C72.6339 69.4613 72.5166 69.1787 72.5166 68.848C72.5166 68.5067 72.6339 68.224 72.8686 68C73.1139 67.7653 73.4232 67.648 73.7966 67.648C74.1699 67.648 74.4739 67.76 74.7086 67.984C74.9539 68.1973 75.0766 68.4693 75.0766 68.8C75.0766 69.152 74.9592 69.4507 74.7246 69.696C74.4899 69.9307 74.1806 70.048 73.7966 70.048ZM81.2536 80.112C80.3789 80.112 79.6002 79.9253 78.9176 79.552C78.2349 79.168 77.6962 78.6453 77.3016 77.984C76.9069 77.3227 76.7096 76.5707 76.7096 75.728C76.7096 74.8747 76.9069 74.1227 77.3016 73.472C77.6962 72.8107 78.2349 72.2933 78.9176 71.92C79.6002 71.5467 80.3789 71.36 81.2536 71.36C82.1389 71.36 82.9229 71.5467 83.6056 71.92C84.2989 72.2933 84.8376 72.8053 85.2216 73.456C85.6162 74.1067 85.8136 74.864 85.8136 75.728C85.8136 76.5707 85.6162 77.3227 85.2216 77.984C84.8376 78.6453 84.2989 79.168 83.6056 79.552C82.9229 79.9253 82.1389 80.112 81.2536 80.112ZM81.2536 78.4C81.7442 78.4 82.1816 78.2933 82.5656 78.08C82.9496 77.8667 83.2482 77.5573 83.4616 77.152C83.6856 76.7467 83.7976 76.272 83.7976 75.728C83.7976 75.1733 83.6856 74.6987 83.4616 74.304C83.2482 73.8987 82.9496 73.5893 82.5656 73.376C82.1816 73.1627 81.7496 73.056 81.2696 73.056C80.7789 73.056 80.3416 73.1627 79.9576 73.376C79.5842 73.5893 79.2856 73.8987 79.0616 74.304C78.8376 74.6987 78.7256 75.1733 78.7256 75.728C78.7256 76.272 78.8376 76.7467 79.0616 77.152C79.2856 77.5573 79.5842 77.8667 79.9576 78.08C80.3416 78.2933 80.7736 78.4 81.2536 78.4ZM92.5741 71.36C93.2567 71.36 93.8647 71.4933 94.3981 71.76C94.9421 72.0267 95.3687 72.4373 95.6781 72.992C95.9874 73.536 96.1421 74.24 96.1421 75.104V80H94.1421V75.36C94.1421 74.6027 93.9607 74.0373 93.5981 73.664C93.2461 73.2907 92.7501 73.104 92.1101 73.104C91.6407 73.104 91.2247 73.2 90.8621 73.392C90.4994 73.584 90.2167 73.872 90.0141 74.256C89.8221 74.6293 89.7261 75.104 89.7261 75.68V80H87.7261V71.456H89.6301V73.76L89.2941 73.056C89.5927 72.512 90.0247 72.096 90.5901 71.808C91.1661 71.5093 91.8274 71.36 92.5741 71.36ZM103.943 80V78.272L103.831 77.904V74.88C103.831 74.2933 103.655 73.84 103.303 73.52C102.951 73.1893 102.418 73.024 101.703 73.024C101.223 73.024 100.749 73.0987 100.279 73.248C99.8205 73.3973 99.4312 73.6053 99.1112 73.872L98.3272 72.416C98.7859 72.064 99.3299 71.8027 99.9592 71.632C100.599 71.4507 101.261 71.36 101.943 71.36C103.181 71.36 104.135 71.6587 104.807 72.256C105.49 72.8427 105.831 73.7547 105.831 74.992V80H103.943ZM101.255 80.112C100.615 80.112 100.055 80.0053 99.5752 79.792C99.0952 79.568 98.7219 79.264 98.4552 78.88C98.1992 78.4853 98.0712 78.0427 98.0712 77.552C98.0712 77.072 98.1832 76.64 98.4072 76.256C98.6419 75.872 99.0205 75.568 99.5432 75.344C100.066 75.12 100.759 75.008 101.623 75.008H104.103V76.336H101.767C101.085 76.336 100.626 76.448 100.391 76.672C100.157 76.8853 100.039 77.152 100.039 77.472C100.039 77.8347 100.183 78.1227 100.471 78.336C100.759 78.5493 101.159 78.656 101.671 78.656C102.162 78.656 102.599 78.544 102.983 78.32C103.378 78.096 103.661 77.7653 103.831 77.328L104.167 78.528C103.975 79.0293 103.629 79.4187 103.127 79.696C102.637 79.9733 102.013 80.112 101.255 80.112ZM10.4292 98V86.128H12.4292V98H10.4292ZM18.8942 98.112C18.0195 98.112 17.2409 97.9253 16.5582 97.552C15.8755 97.168 15.3369 96.6453 14.9422 95.984C14.5475 95.3227 14.3502 94.5707 14.3502 93.728C14.3502 92.8747 14.5475 92.1227 14.9422 91.472C15.3369 90.8107 15.8755 90.2933 16.5582 89.92C17.2409 89.5467 18.0195 89.36 18.8942 89.36C19.7795 89.36 20.5635 89.5467 21.2462 89.92C21.9395 90.2933 22.4782 90.8053 22.8622 91.456C23.2569 92.1067 23.4542 92.864 23.4542 93.728C23.4542 94.5707 23.2569 95.3227 22.8622 95.984C22.4782 96.6453 21.9395 97.168 21.2462 97.552C20.5635 97.9253 19.7795 98.112 18.8942 98.112ZM18.8942 96.4C19.3849 96.4 19.8222 96.2933 20.2062 96.08C20.5902 95.8667 20.8889 95.5573 21.1022 95.152C21.3262 94.7467 21.4382 94.272 21.4382 93.728C21.4382 93.1733 21.3262 92.6987 21.1022 92.304C20.8889 91.8987 20.5902 91.5893 20.2062 91.376C19.8222 91.1627 19.3902 91.056 18.9102 91.056C18.4195 91.056 17.9822 91.1627 17.5982 91.376C17.2249 91.5893 16.9262 91.8987 16.7022 92.304C16.4782 92.6987 16.3662 93.1733 16.3662 93.728C16.3662 94.272 16.4782 94.7467 16.7022 95.152C16.9262 95.5573 17.2249 95.8667 17.5982 96.08C17.9822 96.2933 18.4142 96.4 18.8942 96.4ZM28.0067 98.112C27.292 98.112 26.604 98.0213 25.9427 97.84C25.292 97.648 24.7747 97.4187 24.3907 97.152L25.1587 95.632C25.5427 95.8773 26.0014 96.08 26.5347 96.24C27.068 96.4 27.6014 96.48 28.1347 96.48C28.764 96.48 29.2174 96.3947 29.4947 96.224C29.7827 96.0533 29.9267 95.824 29.9267 95.536C29.9267 95.3013 29.8307 95.1253 29.6387 95.008C29.4467 94.88 29.196 94.784 28.8867 94.72C28.5774 94.656 28.2307 94.5973 27.8467 94.544C27.4734 94.4907 27.0947 94.4213 26.7107 94.336C26.3374 94.24 25.996 94.1067 25.6867 93.936C25.3774 93.7547 25.1267 93.5147 24.9347 93.216C24.7427 92.9173 24.6467 92.5227 24.6467 92.032C24.6467 91.488 24.8014 91.0187 25.1107 90.624C25.42 90.2187 25.852 89.9093 26.4067 89.696C26.972 89.472 27.6387 89.36 28.4067 89.36C28.9827 89.36 29.564 89.424 30.1507 89.552C30.7374 89.68 31.2227 89.8613 31.6067 90.096L30.8387 91.616C30.4334 91.3707 30.0227 91.2053 29.6067 91.12C29.2014 91.024 28.796 90.976 28.3907 90.976C27.7827 90.976 27.3294 91.0667 27.0307 91.248C26.7427 91.4293 26.5987 91.6587 26.5987 91.936C26.5987 92.192 26.6947 92.384 26.8867 92.512C27.0787 92.64 27.3294 92.7413 27.6387 92.816C27.948 92.8907 28.2894 92.9547 28.6627 93.008C29.0467 93.0507 29.4254 93.12 29.7987 93.216C30.172 93.312 30.5134 93.4453 30.8227 93.616C31.1427 93.776 31.3987 94.0053 31.5907 94.304C31.7827 94.6027 31.8787 94.992 31.8787 95.472C31.8787 96.0053 31.7187 96.4693 31.3987 96.864C31.0894 97.2587 30.6467 97.568 30.0707 97.792C29.4947 98.0053 28.8067 98.112 28.0067 98.112ZM42.7589 98.112C42.0656 98.112 41.4309 97.952 40.8549 97.632C40.2896 97.312 39.8363 96.832 39.4949 96.192C39.1643 95.5413 38.9989 94.72 38.9989 93.728C38.9989 92.7253 39.1589 91.904 39.4789 91.264C39.8096 90.624 40.2576 90.1493 40.8229 89.84C41.3883 89.52 42.0336 89.36 42.7589 89.36C43.6016 89.36 44.3429 89.5413 44.9829 89.904C45.6336 90.2667 46.1456 90.7733 46.5189 91.424C46.9029 92.0747 47.0949 92.8427 47.0949 93.728C47.0949 94.6133 46.9029 95.3867 46.5189 96.048C46.1456 96.6987 45.6336 97.2053 44.9829 97.568C44.3429 97.9307 43.6016 98.112 42.7589 98.112ZM38.0229 101.104V89.456H39.9269V91.472L39.8629 93.744L40.0229 96.016V101.104H38.0229ZM42.5349 96.4C43.0149 96.4 43.4416 96.2933 43.8149 96.08C44.1989 95.8667 44.5029 95.5573 44.7269 95.152C44.9509 94.7467 45.0629 94.272 45.0629 93.728C45.0629 93.1733 44.9509 92.6987 44.7269 92.304C44.5029 91.8987 44.1989 91.5893 43.8149 91.376C43.4416 91.1627 43.0149 91.056 42.5349 91.056C42.0549 91.056 41.6229 91.1627 41.2389 91.376C40.8549 91.5893 40.5509 91.8987 40.3269 92.304C40.1029 92.6987 39.9909 93.1733 39.9909 93.728C39.9909 94.272 40.1029 94.7467 40.3269 95.152C40.5509 95.5573 40.8549 95.8667 41.2389 96.08C41.6229 96.2933 42.0549 96.4 42.5349 96.4ZM48.9917 98V89.456H50.8957V91.808L50.6717 91.12C50.9277 90.544 51.3277 90.1067 51.8717 89.808C52.4264 89.5093 53.1144 89.36 53.9357 89.36V91.264C53.8504 91.2427 53.7704 91.232 53.6957 91.232C53.621 91.2213 53.5464 91.216 53.4717 91.216C52.7144 91.216 52.1117 91.44 51.6637 91.888C51.2157 92.3253 50.9917 92.9813 50.9917 93.856V98H48.9917ZM59.3942 98.112C58.5195 98.112 57.7409 97.9253 57.0582 97.552C56.3755 97.168 55.8369 96.6453 55.4422 95.984C55.0475 95.3227 54.8502 94.5707 54.8502 93.728C54.8502 92.8747 55.0475 92.1227 55.4422 91.472C55.8369 90.8107 56.3755 90.2933 57.0582 89.92C57.7409 89.5467 58.5195 89.36 59.3942 89.36C60.2795 89.36 61.0635 89.5467 61.7462 89.92C62.4395 90.2933 62.9782 90.8053 63.3622 91.456C63.7569 92.1067 63.9542 92.864 63.9542 93.728C63.9542 94.5707 63.7569 95.3227 63.3622 95.984C62.9782 96.6453 62.4395 97.168 61.7462 97.552C61.0635 97.9253 60.2795 98.112 59.3942 98.112ZM59.3942 96.4C59.8849 96.4 60.3222 96.2933 60.7062 96.08C61.0902 95.8667 61.3889 95.5573 61.6022 95.152C61.8262 94.7467 61.9382 94.272 61.9382 93.728C61.9382 93.1733 61.8262 92.6987 61.6022 92.304C61.3889 91.8987 61.0902 91.5893 60.7062 91.376C60.3222 91.1627 59.8902 91.056 59.4102 91.056C58.9195 91.056 58.4822 91.1627 58.0982 91.376C57.7249 91.5893 57.4262 91.8987 57.2022 92.304C56.9782 92.6987 56.8662 93.1733 56.8662 93.728C56.8662 94.272 56.9782 94.7467 57.2022 95.152C57.4262 95.5573 57.7249 95.8667 58.0982 96.08C58.4822 96.2933 58.9142 96.4 59.3942 96.4ZM69.4827 98.112C68.6614 98.112 67.92 97.9307 67.2587 97.568C66.608 97.1947 66.096 96.6827 65.7227 96.032C65.3494 95.3813 65.1627 94.6133 65.1627 93.728C65.1627 92.8427 65.3494 92.0747 65.7227 91.424C66.096 90.7733 66.608 90.2667 67.2587 89.904C67.92 89.5413 68.6614 89.36 69.4827 89.36C70.1974 89.36 70.8374 89.52 71.4027 89.84C71.968 90.1493 72.416 90.624 72.7467 91.264C73.0774 91.904 73.2427 92.7253 73.2427 93.728C73.2427 94.72 73.0827 95.5413 72.7627 96.192C72.4427 96.832 72 97.312 71.4347 97.632C70.8694 97.952 70.2187 98.112 69.4827 98.112ZM69.7227 96.4C70.2027 96.4 70.6294 96.2933 71.0027 96.08C71.3867 95.8667 71.6907 95.5573 71.9147 95.152C72.1494 94.7467 72.2667 94.272 72.2667 93.728C72.2667 93.1733 72.1494 92.6987 71.9147 92.304C71.6907 91.8987 71.3867 91.5893 71.0027 91.376C70.6294 91.1627 70.2027 91.056 69.7227 91.056C69.2427 91.056 68.8107 91.1627 68.4267 91.376C68.0534 91.5893 67.7494 91.8987 67.5147 92.304C67.2907 92.6987 67.1787 93.1733 67.1787 93.728C67.1787 94.272 67.2907 94.7467 67.5147 95.152C67.7494 95.5573 68.0534 95.8667 68.4267 96.08C68.8107 96.2933 69.2427 96.4 69.7227 96.4ZM72.3147 98V95.984L72.3947 93.712L72.2347 91.44V86.128H74.2187V98H72.3147ZM80.4671 98.112C79.7417 98.112 79.1017 97.9787 78.5471 97.712C77.9924 97.4347 77.5604 97.0187 77.2511 96.464C76.9417 95.8987 76.7871 95.1893 76.7871 94.336V89.456H78.7871V94.064C78.7871 94.832 78.9577 95.408 79.2991 95.792C79.6511 96.1653 80.1471 96.352 80.7871 96.352C81.2564 96.352 81.6617 96.256 82.0031 96.064C82.3551 95.872 82.6271 95.584 82.8191 95.2C83.0217 94.816 83.1231 94.3413 83.1231 93.776V89.456H85.1231V98H83.2191V95.696L83.5551 96.4C83.2671 96.9547 82.8457 97.3813 82.2911 97.68C81.7364 97.968 81.1284 98.112 80.4671 98.112ZM91.6617 98.112C90.7657 98.112 89.9657 97.9253 89.2617 97.552C88.5684 97.168 88.0244 96.6453 87.6297 95.984C87.235 95.3227 87.0377 94.5707 87.0377 93.728C87.0377 92.8747 87.235 92.1227 87.6297 91.472C88.0244 90.8107 88.5684 90.2933 89.2617 89.92C89.9657 89.5467 90.7657 89.36 91.6617 89.36C92.4937 89.36 93.2244 89.5307 93.8537 89.872C94.4937 90.2027 94.979 90.6933 95.3097 91.344L93.7737 92.24C93.5177 91.8347 93.203 91.536 92.8297 91.344C92.467 91.152 92.0724 91.056 91.6457 91.056C91.155 91.056 90.7124 91.1627 90.3177 91.376C89.923 91.5893 89.6137 91.8987 89.3897 92.304C89.1657 92.6987 89.0537 93.1733 89.0537 93.728C89.0537 94.2827 89.1657 94.7627 89.3897 95.168C89.6137 95.5627 89.923 95.8667 90.3177 96.08C90.7124 96.2933 91.155 96.4 91.6457 96.4C92.0724 96.4 92.467 96.304 92.8297 96.112C93.203 95.92 93.5177 95.6213 93.7737 95.216L95.3097 96.112C94.979 96.752 94.4937 97.248 93.8537 97.6C93.2244 97.9413 92.4937 98.112 91.6617 98.112ZM100.364 98.112C99.4253 98.112 98.6999 97.872 98.1879 97.392C97.6759 96.9013 97.4199 96.1813 97.4199 95.232V87.568H99.4199V95.184C99.4199 95.5893 99.5213 95.904 99.7239 96.128C99.9373 96.352 100.231 96.464 100.604 96.464C101.052 96.464 101.425 96.3467 101.724 96.112L102.284 97.536C102.049 97.728 101.761 97.872 101.42 97.968C101.079 98.064 100.727 98.112 100.364 98.112ZM96.0119 91.12V89.52H101.708V91.12H96.0119ZM107.488 98.112C106.613 98.112 105.835 97.9253 105.152 97.552C104.469 97.168 103.931 96.6453 103.536 95.984C103.141 95.3227 102.944 94.5707 102.944 93.728C102.944 92.8747 103.141 92.1227 103.536 91.472C103.931 90.8107 104.469 90.2933 105.152 89.92C105.835 89.5467 106.613 89.36 107.488 89.36C108.373 89.36 109.157 89.5467 109.84 89.92C110.533 90.2933 111.072 90.8053 111.456 91.456C111.851 92.1067 112.048 92.864 112.048 93.728C112.048 94.5707 111.851 95.3227 111.456 95.984C111.072 96.6453 110.533 97.168 109.84 97.552C109.157 97.9253 108.373 98.112 107.488 98.112ZM107.488 96.4C107.979 96.4 108.416 96.2933 108.8 96.08C109.184 95.8667 109.483 95.5573 109.696 95.152C109.92 94.7467 110.032 94.272 110.032 93.728C110.032 93.1733 109.92 92.6987 109.696 92.304C109.483 91.8987 109.184 91.5893 108.8 91.376C108.416 91.1627 107.984 91.056 107.504 91.056C107.013 91.056 106.576 91.1627 106.192 91.376C105.819 91.5893 105.52 91.8987 105.296 92.304C105.072 92.6987 104.96 93.1733 104.96 93.728C104.96 94.272 105.072 94.7467 105.296 95.152C105.52 95.5573 105.819 95.8667 106.192 96.08C106.576 96.2933 107.008 96.4 107.488 96.4ZM116.6 98.112C115.886 98.112 115.198 98.0213 114.536 97.84C113.886 97.648 113.368 97.4187 112.984 97.152L113.752 95.632C114.136 95.8773 114.595 96.08 115.128 96.24C115.662 96.4 116.195 96.48 116.728 96.48C117.358 96.48 117.811 96.3947 118.088 96.224C118.376 96.0533 118.52 95.824 118.52 95.536C118.52 95.3013 118.424 95.1253 118.232 95.008C118.04 94.88 117.79 94.784 117.48 94.72C117.171 94.656 116.824 94.5973 116.44 94.544C116.067 94.4907 115.688 94.4213 115.304 94.336C114.931 94.24 114.59 94.1067 114.28 93.936C113.971 93.7547 113.72 93.5147 113.528 93.216C113.336 92.9173 113.24 92.5227 113.24 92.032C113.24 91.488 113.395 91.0187 113.704 90.624C114.014 90.2187 114.446 89.9093 115 89.696C115.566 89.472 116.232 89.36 117 89.36C117.576 89.36 118.158 89.424 118.744 89.552C119.331 89.68 119.816 89.8613 120.2 90.096L119.432 91.616C119.027 91.3707 118.616 91.2053 118.2 91.12C117.795 91.024 117.39 90.976 116.984 90.976C116.376 90.976 115.923 91.0667 115.624 91.248C115.336 91.4293 115.192 91.6587 115.192 91.936C115.192 92.192 115.288 92.384 115.48 92.512C115.672 92.64 115.923 92.7413 116.232 92.816C116.542 92.8907 116.883 92.9547 117.256 93.008C117.64 93.0507 118.019 93.12 118.392 93.216C118.766 93.312 119.107 93.4453 119.416 93.616C119.736 93.776 119.992 94.0053 120.184 94.304C120.376 94.6027 120.472 94.992 120.472 95.472C120.472 96.0053 120.312 96.4693 119.992 96.864C119.683 97.2587 119.24 97.568 118.664 97.792C118.088 98.0053 117.4 98.112 116.6 98.112Z" fill="#000927"/>
<g clip-path="url(#clip0_4464_29810)">
<path d="M76.25 52.5C80.8063 52.5 84.5 48.8063 84.5 44.25C84.5 39.6937 80.8063 36 76.25 36C71.6937 36 68 39.6937 68 44.25C68 48.8063 71.6937 52.5 76.25 52.5Z" fill="#00F6B4"/>
<path d="M65 21H57.5C56.672 21 56 21.672 56 22.5C56 23.328 56.672 24 57.5 24H65C65.828 24 66.5 23.328 66.5 22.5C66.5 21.672 65.8287 21 65 21ZM63.5 27H57.5C56.672 27 56 27.672 56 28.5C56 29.328 56.672 30 57.5 30H63.5C64.328 30 65 29.328 65 28.5C65 27.672 64.3287 27 63.5 27ZM85.2185 37.683L80 34.8368V18C80 15.5182 77.9818 13.5 75.5 13.5H54.5C52.0182 13.5 50 15.5182 50 18V48C50 50.4818 52.0182 52.5 54.5 52.5H71C71.0233 52.5 71.0443 52.494 71.0667 52.4933C72.5705 53.442 74.3442 54 76.25 54C81.626 54 86 49.626 86 44.25V39C86 38.4517 85.7007 37.9462 85.2185 37.683ZM54.5 49.5C53.6727 49.5 53 48.8273 53 48V18C53 17.1727 53.6727 16.5 54.5 16.5H75.5C76.3272 16.5 77 17.1727 77 18V33.2002L76.9685 33.183C76.52 32.9385 75.98 32.9385 75.5315 33.183L67.2815 37.683C66.7992 37.9462 66.5 38.4517 66.5 39V44.25C66.5 46.1835 67.073 47.9827 68.0472 49.5H54.5ZM83 44.25C83 47.9722 79.9722 51 76.25 51C72.5278 51 69.5 47.9722 69.5 44.25V39.891L76.25 36.2092L83 39.891V44.25ZM75.0605 43.1895C74.4748 42.6037 73.5252 42.6037 72.9395 43.1895C72.3537 43.7752 72.3537 44.7248 72.9395 45.3105L74.4395 46.8105C74.7327 47.1038 75.116 47.25 75.5 47.25C75.884 47.25 76.2673 47.1038 76.5605 46.8105L79.5605 43.8105C80.1463 43.2248 80.1463 42.2752 79.5605 41.6895C78.9748 41.1037 78.0252 41.1037 77.4395 41.6895L75.5 43.629L75.0605 43.1895Z" fill="#000927"/>
</g>
<defs>
<clipPath id="clip0_4464_29810">
<rect width="48" height="48" fill="white" transform="translate(41 9)"/>
</clipPath>
</defs>
</svg>
