<svg width="131" height="110" viewBox="0 0 131 110" fill="none" xmlns="http://www.w3.org/2000/svg">
<rect width="131" height="110" rx="12" fill="white"/>
<path d="M35.7012 80L40.7413 68.8H42.7893L47.8453 80H45.6693L41.3333 69.904H42.1653L37.8453 80H35.7012ZM38.0213 77.408L38.5813 75.776H44.6293L45.1892 77.408H38.0213ZM51.6395 80.112C50.9248 80.112 50.2368 80.0213 49.5755 79.84C48.9248 79.648 48.4075 79.4187 48.0235 79.152L48.7915 77.632C49.1755 77.8773 49.6342 78.08 50.1675 78.24C50.7008 78.4 51.2342 78.48 51.7675 78.48C52.3968 78.48 52.8502 78.3947 53.1275 78.224C53.4155 78.0533 53.5595 77.824 53.5595 77.536C53.5595 77.3013 53.4635 77.1253 53.2715 77.008C53.0795 76.88 52.8288 76.784 52.5195 76.72C52.2102 76.656 51.8635 76.5973 51.4795 76.544C51.1062 76.4907 50.7275 76.4213 50.3435 76.336C49.9702 76.24 49.6288 76.1067 49.3195 75.936C49.0102 75.7547 48.7595 75.5147 48.5675 75.216C48.3755 74.9173 48.2795 74.5227 48.2795 74.032C48.2795 73.488 48.4342 73.0187 48.7435 72.624C49.0528 72.2187 49.4848 71.9093 50.0395 71.696C50.6048 71.472 51.2715 71.36 52.0395 71.36C52.6155 71.36 53.1968 71.424 53.7835 71.552C54.3702 71.68 54.8555 71.8613 55.2395 72.096L54.4715 73.616C54.0662 73.3707 53.6555 73.2053 53.2395 73.12C52.8342 73.024 52.4288 72.976 52.0235 72.976C51.4155 72.976 50.9622 73.0667 50.6635 73.248C50.3755 73.4293 50.2315 73.6587 50.2315 73.936C50.2315 74.192 50.3275 74.384 50.5195 74.512C50.7115 74.64 50.9622 74.7413 51.2715 74.816C51.5808 74.8907 51.9222 74.9547 52.2955 75.008C52.6795 75.0507 53.0582 75.12 53.4315 75.216C53.8048 75.312 54.1462 75.4453 54.4555 75.616C54.7755 75.776 55.0315 76.0053 55.2235 76.304C55.4155 76.6027 55.5115 76.992 55.5115 77.472C55.5115 78.0053 55.3515 78.4693 55.0315 78.864C54.7222 79.2587 54.2795 79.568 53.7035 79.792C53.1275 80.0053 52.4395 80.112 51.6395 80.112ZM61.0739 80.112C60.1992 80.112 59.4205 79.9253 58.7379 79.552C58.0552 79.168 57.5165 78.6453 57.1219 77.984C56.7272 77.3227 56.5299 76.5707 56.5299 75.728C56.5299 74.8747 56.7272 74.1227 57.1219 73.472C57.5165 72.8107 58.0552 72.2933 58.7379 71.92C59.4205 71.5467 60.1992 71.36 61.0739 71.36C61.9592 71.36 62.7432 71.5467 63.4259 71.92C64.1192 72.2933 64.6579 72.8053 65.0419 73.456C65.4365 74.1067 65.6339 74.864 65.6339 75.728C65.6339 76.5707 65.4365 77.3227 65.0419 77.984C64.6579 78.6453 64.1192 79.168 63.4259 79.552C62.7432 79.9253 61.9592 80.112 61.0739 80.112ZM61.0739 78.4C61.5645 78.4 62.0019 78.2933 62.3859 78.08C62.7699 77.8667 63.0685 77.5573 63.2819 77.152C63.5059 76.7467 63.6179 76.272 63.6179 75.728C63.6179 75.1733 63.5059 74.6987 63.2819 74.304C63.0685 73.8987 62.7699 73.5893 62.3859 73.376C62.0019 73.1627 61.5699 73.056 61.0899 73.056C60.5992 73.056 60.1619 73.1627 59.7779 73.376C59.4045 73.5893 59.1059 73.8987 58.8819 74.304C58.6579 74.6987 58.5459 75.1733 58.5459 75.728C58.5459 76.272 58.6579 76.7467 58.8819 77.152C59.1059 77.5573 59.4045 77.8667 59.7779 78.08C60.1619 78.2933 60.5939 78.4 61.0739 78.4ZM71.4664 80.112C70.5704 80.112 69.7704 79.9253 69.0664 79.552C68.373 79.168 67.829 78.6453 67.4344 77.984C67.0397 77.3227 66.8424 76.5707 66.8424 75.728C66.8424 74.8747 67.0397 74.1227 67.4344 73.472C67.829 72.8107 68.373 72.2933 69.0664 71.92C69.7704 71.5467 70.5704 71.36 71.4664 71.36C72.2984 71.36 73.029 71.5307 73.6584 71.872C74.2984 72.2027 74.7837 72.6933 75.1144 73.344L73.5784 74.24C73.3224 73.8347 73.0077 73.536 72.6344 73.344C72.2717 73.152 71.877 73.056 71.4504 73.056C70.9597 73.056 70.517 73.1627 70.1224 73.376C69.7277 73.5893 69.4184 73.8987 69.1944 74.304C68.9704 74.6987 68.8584 75.1733 68.8584 75.728C68.8584 76.2827 68.9704 76.7627 69.1944 77.168C69.4184 77.5627 69.7277 77.8667 70.1224 78.08C70.517 78.2933 70.9597 78.4 71.4504 78.4C71.877 78.4 72.2717 78.304 72.6344 78.112C73.0077 77.92 73.3224 77.6213 73.5784 77.216L75.1144 78.112C74.7837 78.752 74.2984 79.248 73.6584 79.6C73.029 79.9413 72.2984 80.112 71.4664 80.112ZM76.7651 80V71.456H78.7651V80H76.7651ZM77.7731 70.048C77.3998 70.048 77.0905 69.9307 76.8451 69.696C76.6105 69.4613 76.4931 69.1787 76.4931 68.848C76.4931 68.5067 76.6105 68.224 76.8451 68C77.0905 67.7653 77.3998 67.648 77.7731 67.648C78.1465 67.648 78.4505 67.76 78.6851 67.984C78.9305 68.1973 79.0531 68.4693 79.0531 68.8C79.0531 69.152 78.9358 69.4507 78.7011 69.696C78.4665 69.9307 78.1571 70.048 77.7731 70.048ZM86.6541 80V78.272L86.5421 77.904V74.88C86.5421 74.2933 86.3661 73.84 86.0141 73.52C85.6621 73.1893 85.1288 73.024 84.4141 73.024C83.9341 73.024 83.4595 73.0987 82.9901 73.248C82.5315 73.3973 82.1421 73.6053 81.8221 73.872L81.0381 72.416C81.4968 72.064 82.0408 71.8027 82.6701 71.632C83.3101 71.4507 83.9715 71.36 84.6541 71.36C85.8915 71.36 86.8461 71.6587 87.5181 72.256C88.2008 72.8427 88.5421 73.7547 88.5421 74.992V80H86.6541ZM83.9661 80.112C83.3261 80.112 82.7661 80.0053 82.2861 79.792C81.8061 79.568 81.4328 79.264 81.1661 78.88C80.9101 78.4853 80.7821 78.0427 80.7821 77.552C80.7821 77.072 80.8941 76.64 81.1181 76.256C81.3528 75.872 81.7315 75.568 82.2541 75.344C82.7768 75.12 83.4701 75.008 84.3341 75.008H86.8141V76.336H84.4781C83.7955 76.336 83.3368 76.448 83.1021 76.672C82.8675 76.8853 82.7501 77.152 82.7501 77.472C82.7501 77.8347 82.8941 78.1227 83.1821 78.336C83.4701 78.5493 83.8701 78.656 84.3821 78.656C84.8728 78.656 85.3101 78.544 85.6941 78.32C86.0888 78.096 86.3715 77.7653 86.5421 77.328L86.8781 78.528C86.6861 79.0293 86.3395 79.4187 85.8381 79.696C85.3475 79.9733 84.7235 80.112 83.9661 80.112ZM23.1389 98.112C22.4136 98.112 21.7736 97.9787 21.2189 97.712C20.6643 97.4347 20.2323 97.0187 19.9229 96.464C19.6136 95.8987 19.4589 95.1893 19.4589 94.336V89.456H21.4589V94.064C21.4589 94.832 21.6296 95.408 21.9709 95.792C22.3229 96.1653 22.8189 96.352 23.4589 96.352C23.9283 96.352 24.3336 96.256 24.6749 96.064C25.0269 95.872 25.2989 95.584 25.4909 95.2C25.6936 94.816 25.7949 94.3413 25.7949 93.776V89.456H27.7949V98H25.8909V95.696L26.2269 96.4C25.9389 96.9547 25.5176 97.3813 24.9629 97.68C24.4083 97.968 23.8003 98.112 23.1389 98.112ZM35.2616 89.36C35.9442 89.36 36.5522 89.4933 37.0856 89.76C37.6296 90.0267 38.0562 90.4373 38.3656 90.992C38.6749 91.536 38.8296 92.24 38.8296 93.104V98H36.8296V93.36C36.8296 92.6027 36.6482 92.0373 36.2856 91.664C35.9336 91.2907 35.4376 91.104 34.7976 91.104C34.3282 91.104 33.9122 91.2 33.5496 91.392C33.1869 91.584 32.9042 91.872 32.7016 92.256C32.5096 92.6293 32.4136 93.104 32.4136 93.68V98H30.4136V89.456H32.3176V91.76L31.9816 91.056C32.2802 90.512 32.7122 90.096 33.2776 89.808C33.8536 89.5093 34.5149 89.36 35.2616 89.36ZM46.6307 98V96.272L46.5187 95.904V92.88C46.5187 92.2933 46.3427 91.84 45.9907 91.52C45.6387 91.1893 45.1054 91.024 44.3907 91.024C43.9107 91.024 43.436 91.0987 42.9667 91.248C42.508 91.3973 42.1187 91.6053 41.7987 91.872L41.0147 90.416C41.4734 90.064 42.0174 89.8027 42.6467 89.632C43.2867 89.4507 43.948 89.36 44.6307 89.36C45.868 89.36 46.8227 89.6587 47.4947 90.256C48.1774 90.8427 48.5187 91.7547 48.5187 92.992V98H46.6307ZM43.9427 98.112C43.3027 98.112 42.7427 98.0053 42.2627 97.792C41.7827 97.568 41.4094 97.264 41.1427 96.88C40.8867 96.4853 40.7587 96.0427 40.7587 95.552C40.7587 95.072 40.8707 94.64 41.0947 94.256C41.3294 93.872 41.708 93.568 42.2307 93.344C42.7534 93.12 43.4467 93.008 44.3107 93.008H46.7907V94.336H44.4547C43.772 94.336 43.3134 94.448 43.0787 94.672C42.844 94.8853 42.7267 95.152 42.7267 95.472C42.7267 95.8347 42.8707 96.1227 43.1587 96.336C43.4467 96.5493 43.8467 96.656 44.3587 96.656C44.8494 96.656 45.2867 96.544 45.6707 96.32C46.0654 96.096 46.348 95.7653 46.5187 95.328L46.8547 96.528C46.6627 97.0293 46.316 97.4187 45.8147 97.696C45.324 97.9733 44.7 98.112 43.9427 98.112ZM59.4273 98.112C58.5313 98.112 57.7313 97.9253 57.0273 97.552C56.334 97.168 55.79 96.6453 55.3953 95.984C55.0006 95.3227 54.8033 94.5707 54.8033 93.728C54.8033 92.8747 55.0006 92.1227 55.3953 91.472C55.79 90.8107 56.334 90.2933 57.0273 89.92C57.7313 89.5467 58.5313 89.36 59.4273 89.36C60.2593 89.36 60.99 89.5307 61.6193 89.872C62.2593 90.2027 62.7446 90.6933 63.0753 91.344L61.5393 92.24C61.2833 91.8347 60.9686 91.536 60.5953 91.344C60.2326 91.152 59.838 91.056 59.4113 91.056C58.9206 91.056 58.478 91.1627 58.0833 91.376C57.6886 91.5893 57.3793 91.8987 57.1553 92.304C56.9313 92.6987 56.8193 93.1733 56.8193 93.728C56.8193 94.2827 56.9313 94.7627 57.1553 95.168C57.3793 95.5627 57.6886 95.8667 58.0833 96.08C58.478 96.2933 58.9206 96.4 59.4113 96.4C59.838 96.4 60.2326 96.304 60.5953 96.112C60.9686 95.92 61.2833 95.6213 61.5393 95.216L63.0753 96.112C62.7446 96.752 62.2593 97.248 61.6193 97.6C60.99 97.9413 60.2593 98.112 59.4273 98.112ZM68.4202 98.112C67.6949 98.112 67.0549 97.9787 66.5002 97.712C65.9455 97.4347 65.5135 97.0187 65.2042 96.464C64.8949 95.8987 64.7402 95.1893 64.7402 94.336V89.456H66.7402V94.064C66.7402 94.832 66.9109 95.408 67.2522 95.792C67.6042 96.1653 68.1002 96.352 68.7402 96.352C69.2095 96.352 69.6149 96.256 69.9562 96.064C70.3082 95.872 70.5802 95.584 70.7722 95.2C70.9749 94.816 71.0762 94.3413 71.0762 93.776V89.456H73.0762V98H71.1722V95.696L71.5082 96.4C71.2202 96.9547 70.7989 97.3813 70.2442 97.68C69.6895 97.968 69.0815 98.112 68.4202 98.112ZM79.7108 98.112C78.7615 98.112 77.9295 97.9253 77.2148 97.552C76.5108 97.168 75.9615 96.6453 75.5668 95.984C75.1828 95.3227 74.9908 94.5707 74.9908 93.728C74.9908 92.8747 75.1775 92.1227 75.5508 91.472C75.9348 90.8107 76.4575 90.2933 77.1188 89.92C77.7908 89.5467 78.5535 89.36 79.4068 89.36C80.2388 89.36 80.9801 89.5413 81.6308 89.904C82.2815 90.2667 82.7935 90.7787 83.1668 91.44C83.5401 92.1013 83.7268 92.88 83.7268 93.776C83.7268 93.8613 83.7215 93.9573 83.7108 94.064C83.7108 94.1707 83.7055 94.272 83.6948 94.368H76.5748V93.04H82.6388L81.8548 93.456C81.8655 92.9653 81.7641 92.5333 81.5508 92.16C81.3375 91.7867 81.0441 91.4933 80.6708 91.28C80.3081 91.0667 79.8868 90.96 79.4068 90.96C78.9161 90.96 78.4841 91.0667 78.1108 91.28C77.7481 91.4933 77.4601 91.792 77.2468 92.176C77.0441 92.5493 76.9428 92.992 76.9428 93.504V93.824C76.9428 94.336 77.0601 94.7893 77.2948 95.184C77.5295 95.5787 77.8601 95.8827 78.2868 96.096C78.7135 96.3093 79.2041 96.416 79.7588 96.416C80.2388 96.416 80.6708 96.3413 81.0548 96.192C81.4388 96.0427 81.7801 95.808 82.0788 95.488L83.1508 96.72C82.7668 97.168 82.2815 97.5147 81.6948 97.76C81.1188 97.9947 80.4575 98.112 79.7108 98.112ZM90.4959 89.36C91.1786 89.36 91.7866 89.4933 92.3199 89.76C92.8639 90.0267 93.2906 90.4373 93.5999 90.992C93.9093 91.536 94.0639 92.24 94.0639 93.104V98H92.0639V93.36C92.0639 92.6027 91.8826 92.0373 91.5199 91.664C91.1679 91.2907 90.6719 91.104 90.0319 91.104C89.5626 91.104 89.1466 91.2 88.7839 91.392C88.4213 91.584 88.1386 91.872 87.9359 92.256C87.7439 92.6293 87.6479 93.104 87.6479 93.68V98H85.6479V89.456H87.5519V91.76L87.2159 91.056C87.5146 90.512 87.9466 90.096 88.5119 89.808C89.0879 89.5093 89.7493 89.36 90.4959 89.36ZM99.8171 98.112C98.8784 98.112 98.1531 97.872 97.6411 97.392C97.1291 96.9013 96.8731 96.1813 96.8731 95.232V87.568H98.8731V95.184C98.8731 95.5893 98.9744 95.904 99.1771 96.128C99.3904 96.352 99.6837 96.464 100.057 96.464C100.505 96.464 100.878 96.3467 101.177 96.112L101.737 97.536C101.502 97.728 101.214 97.872 100.873 97.968C100.532 98.064 100.18 98.112 99.8171 98.112ZM95.4651 91.12V89.52H101.161V91.12H95.4651ZM108.646 98V96.272L108.534 95.904V92.88C108.534 92.2933 108.358 91.84 108.006 91.52C107.654 91.1893 107.121 91.024 106.406 91.024C105.926 91.024 105.452 91.0987 104.982 91.248C104.524 91.3973 104.134 91.6053 103.814 91.872L103.03 90.416C103.489 90.064 104.033 89.8027 104.662 89.632C105.302 89.4507 105.964 89.36 106.646 89.36C107.884 89.36 108.838 89.6587 109.51 90.256C110.193 90.8427 110.534 91.7547 110.534 92.992V98H108.646ZM105.958 98.112C105.318 98.112 104.758 98.0053 104.278 97.792C103.798 97.568 103.425 97.264 103.158 96.88C102.902 96.4853 102.774 96.0427 102.774 95.552C102.774 95.072 102.886 94.64 103.11 94.256C103.345 93.872 103.724 93.568 104.246 93.344C104.769 93.12 105.462 93.008 106.326 93.008H108.806V94.336H106.47C105.788 94.336 105.329 94.448 105.094 94.672C104.86 94.8853 104.742 95.152 104.742 95.472C104.742 95.8347 104.886 96.1227 105.174 96.336C105.462 96.5493 105.862 96.656 106.374 96.656C106.865 96.656 107.302 96.544 107.686 96.32C108.081 96.096 108.364 95.7653 108.534 95.328L108.87 96.528C108.678 97.0293 108.332 97.4187 107.83 97.696C107.34 97.9733 106.716 98.112 105.958 98.112Z" fill="#000927"/>
<g clip-path="url(#clip0_4464_29811)">
<path d="M56 45C62.6274 45 68 39.6274 68 33C68 26.3726 62.6274 21 56 21C49.3726 21 44 26.3726 44 33C44 39.6274 49.3726 45 56 45Z" fill="#00F6B4"/>
<path d="M80.426 31.818L82.5897 29.5305C83.1477 28.941 83.135 28.014 82.5605 27.4395L80.216 25.095L81.4227 21.4747C81.575 21.0172 81.4985 20.5148 81.2165 20.1233C80.9345 19.7318 80.4822 19.5 80 19.5H77V16.3057C77 13.9313 75.131 12 72.833 12H54.167C51.869 12 50 13.9313 50 16.3057V49.6942C50 52.0687 51.869 54 54.167 54H72.8337C75.131 54 77 52.0687 77 49.6942V45H80C80.4822 45 80.9345 44.7682 81.2165 44.3767C81.4985 43.986 81.5757 43.4835 81.4227 43.0252L80.216 39.405L82.5605 37.0605C83.0735 36.5475 83.1455 35.7413 82.7323 35.145L80.426 31.818ZM53 16.3057C53 15.5858 53.5235 15 54.167 15H72.8337C73.4765 15 74 15.5858 74 16.3057V19.5H53V16.3057ZM74 49.6942C74 50.4142 73.4765 51 72.833 51H54.167C53.5235 51 53 50.4142 53 49.6942V45H74V49.6942ZM77.0772 39.4748L77.9195 42H53V22.5H77.9195L77.0772 25.0253C76.898 25.5645 77.0375 26.1592 77.4395 26.5605L79.4082 28.5292L77.4102 30.6413C76.9227 31.1572 76.8635 31.9432 77.2677 32.5267L79.5545 35.8245L77.4402 37.9387C77.0375 38.3407 76.8972 38.9355 77.0772 39.4748ZM67.25 16.5H59.75C59.336 16.5 59 16.8352 59 17.25C59 17.6648 59.336 18 59.75 18H67.25C67.664 18 68 17.6648 68 17.25C68 16.8352 67.664 16.5 67.25 16.5ZM63.5 49.5C64.3287 49.5 65 48.8288 65 48C65 47.1712 64.3287 46.5 63.5 46.5C62.6712 46.5 62 47.1712 62 48C62 48.8288 62.6712 49.5 63.5 49.5ZM74 28.5H71C70.172 28.5 69.5 29.172 69.5 30C69.5 30.828 70.172 31.5 71 31.5H74C74.828 31.5 75.5 30.828 75.5 30C75.5 29.172 74.828 28.5 74 28.5ZM74 33H72.5C71.672 33 71 33.672 71 34.5C71 35.328 71.672 36 72.5 36H74C74.828 36 75.5 35.328 75.5 34.5C75.5 33.672 74.828 33 74 33ZM68 30C68 29.1712 67.3287 28.5 66.5 28.5C65.6712 28.5 65 29.1712 65 30C65 30.8288 65.6712 31.5 66.5 31.5C67.3287 31.5 68 30.8288 68 30ZM68 33C67.1712 33 66.5 33.6712 66.5 34.5C66.5 35.3288 67.1712 36 68 36C68.8287 36 69.5 35.3288 69.5 34.5C69.5 33.6712 68.8287 33 68 33ZM60.341 30.75H59.7102C59.318 30.75 59 30.414 59 30C59 29.586 59.318 29.25 59.7095 29.25H60.7662C60.8735 29.25 60.9777 29.2747 61.0745 29.325C61.8117 29.6985 62.7162 29.4053 63.0912 28.6672C63.4662 27.9292 63.1722 27.0262 62.4342 26.6505C61.919 26.3888 61.3422 26.25 60.7662 26.25H60.5V25.5C60.5 25.0852 60.164 24.75 59.75 24.75C59.336 24.75 59 25.0852 59 25.5V26.3228C57.293 26.6588 56 28.1782 56 30C56 32.0677 57.6642 33.75 59.7095 33.75H60.3403C60.7317 33.75 61.0497 34.086 61.0497 34.5C61.0497 34.914 60.7317 35.25 60.3403 35.25H59.2835C59.1762 35.25 59.0727 35.2253 58.9767 35.1758L58.1802 34.77C57.4422 34.3935 56.5392 34.6875 56.1627 35.4255C55.7862 36.1635 56.0802 37.0665 56.8182 37.443L57.6155 37.8495C58.0452 38.0677 58.5192 38.1945 58.9992 38.2327V39C58.9992 39.4147 59.3352 39.75 59.7492 39.75C60.1632 39.75 60.4992 39.4147 60.4992 39V38.2335C62.4695 38.1473 64.0497 36.5123 64.0497 34.5C64.0505 32.4323 62.3862 30.75 60.341 30.75Z" fill="#000927"/>
</g>
<defs>
<clipPath id="clip0_4464_29811">
<rect width="48" height="48" fill="white" transform="translate(41 9)"/>
</clipPath>
</defs>
</svg>
