<svg width="131" height="110" viewBox="0 0 131 110" fill="none" xmlns="http://www.w3.org/2000/svg">
<rect width="131" height="110" rx="12" fill="white"/>
<path d="M47.5147 48.316C52.201 52.8407 59.799 52.8407 64.4853 48.316C69.1716 43.7913 69.1716 36.4553 64.4853 31.9306C59.799 27.4059 52.201 27.4059 47.5147 31.9306C42.8284 36.4553 42.8284 43.7913 47.5147 48.316Z" fill="#00F6B4"/>
<path d="M83.3857 38.5621L83.2675 38.4962C82.7076 38.1841 82.1064 38.0078 81.5019 37.9485C81.682 36.3163 80.8793 34.6564 79.3146 33.7842L79.1964 33.7183C78.6365 33.4062 78.0352 33.2299 77.4307 33.1706C77.6108 31.5384 76.8081 29.8785 75.2434 29.0063L75.1252 28.9404C74.6907 28.6982 74.2311 28.5398 73.7642 28.4518L77.603 22.0319C78.9009 19.8615 78.2314 17.2214 76.0795 16.0219L75.9613 15.956C73.8452 14.7763 71.1296 15.4784 69.9074 17.5222L63.2729 28.6172L62.7832 26.8525C62.1511 24.5728 59.7157 23.216 57.3527 23.8278L57.2243 23.8616C56.0807 24.1564 55.1247 24.8644 54.5326 25.8546C53.9408 26.8442 53.7838 27.9975 54.0902 29.1015L54.9431 32.1749C55.5992 34.539 55.7087 35.4739 54.4945 37.5045C51.8436 41.9376 54.2661 47.4162 60.3845 50.8268L65.5807 53.7234C75.973 59.5165 81.967 49.4926 84.2238 45.7186L85.0079 44.4073C86.23 42.3635 85.5019 39.7417 83.3857 38.5621ZM81.6257 44.2703C78.1194 50.1339 73.9305 55.0333 67.0807 51.2149L61.8845 48.3184C57.2957 45.7603 55.3248 41.909 57.0926 38.9528C58.9001 35.9301 58.5812 34.0925 57.8411 31.4257L56.9881 28.3523C56.8887 27.9958 56.9401 27.6231 57.1313 27.3032C57.3229 26.9828 57.6312 26.7541 58.0041 26.6576L58.1325 26.6238C58.8954 26.427 59.682 26.8655 59.8862 27.6014L61.2944 32.6776C61.4039 33.0723 61.6732 33.3838 62.0163 33.5675C62.0234 33.5715 62.0295 33.5773 62.0366 33.5813C62.7537 33.981 63.6716 33.7435 64.0856 33.0512L72.5055 18.9704C72.9004 18.3101 73.7774 18.0832 74.4613 18.4644L74.5795 18.5303C75.2979 18.9308 75.4771 19.7941 75.005 20.5836L69.0713 30.5066C68.6573 31.1989 68.9033 32.0853 69.6204 32.485C70.3375 32.8847 71.2554 32.6472 71.6694 31.9549C72.0643 31.2945 72.9413 31.0676 73.6252 31.4489L73.7434 31.5148C74.4274 31.896 74.6624 32.7428 74.2675 33.4031L73.4834 34.7145C73.4444 34.7797 73.4162 34.8484 73.3891 34.917C73.3012 35.0335 73.219 35.1566 73.1425 35.2845C72.7285 35.9769 72.9745 36.8632 73.6915 37.2629C74.4086 37.6626 75.3266 37.4251 75.7406 36.7328C76.1355 36.0724 77.0124 35.8455 77.6964 36.2268L77.8146 36.2927C78.4985 36.674 78.7335 37.5207 78.3387 38.1811L77.5545 39.4924C77.5155 39.5576 77.4874 39.6264 77.4603 39.6949C77.3724 39.8114 77.2901 39.9345 77.2136 40.0624C76.7996 40.7548 77.0456 41.6411 77.7627 42.0408C78.4798 42.4405 79.3977 42.203 79.8117 41.5107C80.2066 40.8503 81.0836 40.6235 81.7675 41.0047L81.8857 41.0706C82.5697 41.4519 82.8047 42.2986 82.4098 42.959L81.6257 44.2703ZM65.743 18.6934C66.4601 19.0931 67.378 18.8556 67.792 18.1633L69.292 15.6548C69.706 14.9624 69.4601 14.0761 68.743 13.6764C68.0259 13.2767 67.108 13.5142 66.694 14.2065L65.194 16.715C64.78 17.4073 65.0259 18.2936 65.743 18.6934ZM60.3854 16.8532C60.4921 17.2396 60.7515 17.5473 61.0841 17.7327C61.4166 17.918 61.8223 17.9811 62.2222 17.8771C63.0224 17.6701 63.4971 16.8762 63.2827 16.1036L62.2083 12.2319C61.9945 11.4597 61.1709 11.0006 60.3714 11.208C59.5713 11.415 59.0965 12.209 59.3109 12.9815L60.3854 16.8532ZM59.612 20.2567C60.026 19.5644 59.78 18.6781 59.063 18.2783L56.4649 16.8301C55.7478 16.4303 54.8298 16.6678 54.4158 17.3602C54.0018 18.0525 54.2478 18.9388 54.9649 19.3386L57.563 20.7868C58.28 21.1866 59.1976 20.9497 59.612 20.2567Z" fill="#000927"/>
<path d="M24.4351 81.9687C23.6457 81.9687 22.9577 81.8514 22.3711 81.6167C21.7844 81.3927 21.3257 81.0674 20.9951 80.6407C20.6751 80.2141 20.5151 79.7074 20.5151 79.1207C20.5151 78.6941 20.5791 78.3261 20.7071 78.0167C20.8457 77.7074 21.0164 77.4354 21.2191 77.2007C21.4324 76.9661 21.6511 76.7474 21.8751 76.5447C22.1097 76.3421 22.3284 76.1447 22.5311 75.9527C22.7444 75.7607 22.9151 75.5527 23.0431 75.3287C23.1817 75.0941 23.2511 74.8221 23.2511 74.5127H25.2831C25.2831 74.8967 25.2191 75.2381 25.0911 75.5367C24.9631 75.8247 24.7977 76.0861 24.5951 76.3207C24.3924 76.5447 24.1737 76.7581 23.9391 76.9607C23.7151 77.1527 23.5017 77.3447 23.2991 77.5367C23.0964 77.7287 22.9311 77.9314 22.8031 78.1447C22.6751 78.3581 22.6111 78.5927 22.6111 78.8487C22.6111 79.2434 22.7871 79.5741 23.1391 79.8407C23.5017 80.1074 23.9924 80.2407 24.6111 80.2407C25.1977 80.2407 25.7097 80.1287 26.1471 79.9047C26.5844 79.6914 26.9417 79.3927 27.2191 79.0087L28.7551 80.0167C28.3177 80.6247 27.7364 81.0994 27.0111 81.4407C26.2857 81.7927 25.4271 81.9687 24.4351 81.9687ZM24.2591 73.1687C23.8964 73.1687 23.5924 73.0514 23.3471 72.8167C23.1017 72.5714 22.9791 72.2834 22.9791 71.9527C22.9791 71.6007 23.1017 71.3074 23.3471 71.0727C23.5924 70.8274 23.8964 70.7047 24.2591 70.7047C24.6431 70.7047 24.9524 70.8274 25.1871 71.0727C25.4217 71.3074 25.5391 71.6007 25.5391 71.9527C25.5391 72.2834 25.4217 72.5714 25.1871 72.8167C24.9524 73.0514 24.6431 73.1687 24.2591 73.1687ZM30.3399 79.3447V68.1447H32.0519L39.0759 76.7687H38.2279V68.1447H40.2919V79.3447H38.5799L31.5559 70.7207H32.4039V79.3447H30.3399ZM46.9411 79.4567C46.0664 79.4567 45.2877 79.2701 44.6051 78.8967C43.9224 78.5127 43.3837 77.9901 42.9891 77.3287C42.5944 76.6674 42.3971 75.9154 42.3971 75.0727C42.3971 74.2194 42.5944 73.4674 42.9891 72.8167C43.3837 72.1554 43.9224 71.6381 44.6051 71.2647C45.2877 70.8914 46.0664 70.7047 46.9411 70.7047C47.8264 70.7047 48.6104 70.8914 49.2931 71.2647C49.9864 71.6381 50.5251 72.1501 50.9091 72.8007C51.3037 73.4514 51.5011 74.2087 51.5011 75.0727C51.5011 75.9154 51.3037 76.6674 50.9091 77.3287C50.5251 77.9901 49.9864 78.5127 49.2931 78.8967C48.6104 79.2701 47.8264 79.4567 46.9411 79.4567ZM46.9411 77.7447C47.4317 77.7447 47.8691 77.6381 48.2531 77.4247C48.6371 77.2114 48.9357 76.9021 49.1491 76.4967C49.3731 76.0914 49.4851 75.6167 49.4851 75.0727C49.4851 74.5181 49.3731 74.0434 49.1491 73.6487C48.9357 73.2434 48.6371 72.9341 48.2531 72.7207C47.8691 72.5074 47.4371 72.4007 46.9571 72.4007C46.4664 72.4007 46.0291 72.5074 45.6451 72.7207C45.2717 72.9341 44.9731 73.2434 44.7491 73.6487C44.5251 74.0434 44.4131 74.5181 44.4131 75.0727C44.4131 75.6167 44.5251 76.0914 44.7491 76.4967C44.9731 76.9021 45.2717 77.2114 45.6451 77.4247C46.0291 77.6381 46.4611 77.7447 46.9411 77.7447ZM61.0514 79.4567C60.1128 79.4567 59.3874 79.2167 58.8754 78.7367C58.3634 78.2461 58.1074 77.5261 58.1074 76.5767V68.9127H60.1074V76.5287C60.1074 76.9341 60.2088 77.2487 60.4114 77.4727C60.6248 77.6967 60.9181 77.8087 61.2914 77.8087C61.7394 77.8087 62.1128 77.6914 62.4114 77.4567L62.9714 78.8807C62.7368 79.0727 62.4488 79.2167 62.1074 79.3127C61.7661 79.4087 61.4141 79.4567 61.0514 79.4567ZM56.6994 72.4647V70.8647H62.3954V72.4647H56.6994ZM64.6167 79.3447V70.8007H66.6167V79.3447H64.6167ZM65.6247 69.3927C65.2514 69.3927 64.942 69.2754 64.6967 69.0407C64.462 68.8061 64.3447 68.5234 64.3447 68.1927C64.3447 67.8514 64.462 67.5687 64.6967 67.3447C64.942 67.1101 65.2514 66.9927 65.6247 66.9927C65.998 66.9927 66.302 67.1047 66.5367 67.3287C66.782 67.5421 66.9047 67.8141 66.9047 68.1447C66.9047 68.4967 66.7874 68.7954 66.5527 69.0407C66.318 69.2754 66.0087 69.3927 65.6247 69.3927ZM73.2577 79.4567C72.3084 79.4567 71.4764 79.2701 70.7617 78.8967C70.0577 78.5127 69.5084 77.9901 69.1137 77.3287C68.7297 76.6674 68.5377 75.9154 68.5377 75.0727C68.5377 74.2194 68.7244 73.4674 69.0977 72.8167C69.4817 72.1554 70.0044 71.6381 70.6657 71.2647C71.3377 70.8914 72.1004 70.7047 72.9537 70.7047C73.7857 70.7047 74.527 70.8861 75.1777 71.2487C75.8284 71.6114 76.3404 72.1234 76.7137 72.7847C77.087 73.4461 77.2737 74.2247 77.2737 75.1207C77.2737 75.2061 77.2684 75.3021 77.2577 75.4087C77.2577 75.5154 77.2524 75.6167 77.2417 75.7127H70.1217V74.3847H76.1857L75.4017 74.8007C75.4124 74.3101 75.311 73.8781 75.0977 73.5047C74.8844 73.1314 74.591 72.8381 74.2177 72.6247C73.855 72.4114 73.4337 72.3047 72.9537 72.3047C72.463 72.3047 72.031 72.4114 71.6577 72.6247C71.295 72.8381 71.007 73.1367 70.7937 73.5207C70.591 73.8941 70.4897 74.3367 70.4897 74.8487V75.1687C70.4897 75.6807 70.607 76.1341 70.8417 76.5287C71.0764 76.9234 71.407 77.2274 71.8337 77.4407C72.2604 77.6541 72.751 77.7607 73.3057 77.7607C73.7857 77.7607 74.2177 77.6861 74.6017 77.5367C74.9857 77.3874 75.327 77.1527 75.6257 76.8327L76.6977 78.0647C76.3137 78.5127 75.8284 78.8594 75.2417 79.1047C74.6657 79.3394 74.0044 79.4567 73.2577 79.4567ZM84.0428 70.7047C84.7255 70.7047 85.3335 70.8381 85.8668 71.1047C86.4108 71.3714 86.8375 71.7821 87.1468 72.3367C87.4561 72.8807 87.6108 73.5847 87.6108 74.4487V79.3447H85.6108V74.7047C85.6108 73.9474 85.4295 73.3821 85.0668 73.0087C84.7148 72.6354 84.2188 72.4487 83.5788 72.4487C83.1095 72.4487 82.6935 72.5447 82.3308 72.7367C81.9681 72.9287 81.6855 73.2167 81.4828 73.6007C81.2908 73.9741 81.1948 74.4487 81.1948 75.0247V79.3447H79.1948V70.8007H81.0988V73.1047L80.7628 72.4007C81.0615 71.8567 81.4935 71.4407 82.0588 71.1527C82.6348 70.8541 83.2961 70.7047 84.0428 70.7047ZM94.1796 79.4567C93.2302 79.4567 92.3982 79.2701 91.6836 78.8967C90.9796 78.5127 90.4302 77.9901 90.0356 77.3287C89.6516 76.6674 89.4596 75.9154 89.4596 75.0727C89.4596 74.2194 89.6462 73.4674 90.0196 72.8167C90.4036 72.1554 90.9262 71.6381 91.5876 71.2647C92.2596 70.8914 93.0222 70.7047 93.8756 70.7047C94.7076 70.7047 95.4489 70.8861 96.0996 71.2487C96.7502 71.6114 97.2622 72.1234 97.6356 72.7847C98.0089 73.4461 98.1956 74.2247 98.1956 75.1207C98.1956 75.2061 98.1902 75.3021 98.1796 75.4087C98.1796 75.5154 98.1742 75.6167 98.1636 75.7127H91.0436V74.3847H97.1076L96.3236 74.8007C96.3342 74.3101 96.2329 73.8781 96.0196 73.5047C95.8062 73.1314 95.5129 72.8381 95.1396 72.6247C94.7769 72.4114 94.3556 72.3047 93.8756 72.3047C93.3849 72.3047 92.9529 72.4114 92.5796 72.6247C92.2169 72.8381 91.9289 73.1367 91.7156 73.5207C91.5129 73.8941 91.4116 74.3367 91.4116 74.8487V75.1687C91.4116 75.6807 91.5289 76.1341 91.7636 76.5287C91.9982 76.9234 92.3289 77.2274 92.7556 77.4407C93.1822 77.6541 93.6729 77.7607 94.2276 77.7607C94.7076 77.7607 95.1396 77.6861 95.5236 77.5367C95.9076 77.3874 96.2489 77.1527 96.5476 76.8327L97.6196 78.0647C97.2356 78.5127 96.7502 78.8594 96.1636 79.1047C95.5876 79.3394 94.9262 79.4567 94.1796 79.4567ZM102.757 79.4567C102.042 79.4567 101.354 79.3661 100.693 79.1847C100.042 78.9927 99.5247 78.7634 99.1407 78.4967L99.9087 76.9767C100.293 77.2221 100.751 77.4247 101.285 77.5847C101.818 77.7447 102.351 77.8247 102.885 77.8247C103.514 77.8247 103.967 77.7394 104.245 77.5687C104.533 77.3981 104.677 77.1687 104.677 76.8807C104.677 76.6461 104.581 76.4701 104.389 76.3527C104.197 76.2247 103.946 76.1287 103.637 76.0647C103.327 76.0007 102.981 75.9421 102.597 75.8887C102.223 75.8354 101.845 75.7661 101.461 75.6807C101.087 75.5847 100.746 75.4514 100.437 75.2807C100.127 75.0994 99.8767 74.8594 99.6847 74.5607C99.4927 74.2621 99.3967 73.8674 99.3967 73.3767C99.3967 72.8327 99.5514 72.3634 99.8607 71.9687C100.17 71.5634 100.602 71.2541 101.157 71.0407C101.722 70.8167 102.389 70.7047 103.157 70.7047C103.733 70.7047 104.314 70.7687 104.901 70.8967C105.487 71.0247 105.973 71.2061 106.357 71.4407L105.589 72.9607C105.183 72.7154 104.773 72.5501 104.357 72.4647C103.951 72.3687 103.546 72.3207 103.141 72.3207C102.533 72.3207 102.079 72.4114 101.781 72.5927C101.493 72.7741 101.349 73.0034 101.349 73.2807C101.349 73.5367 101.445 73.7287 101.637 73.8567C101.829 73.9847 102.079 74.0861 102.389 74.1607C102.698 74.2354 103.039 74.2994 103.413 74.3527C103.797 74.3954 104.175 74.4647 104.549 74.5607C104.922 74.6567 105.263 74.7901 105.573 74.9607C105.893 75.1207 106.149 75.3501 106.341 75.6487C106.533 75.9474 106.629 76.3367 106.629 76.8167C106.629 77.3501 106.469 77.8141 106.149 78.2087C105.839 78.6034 105.397 78.9127 104.821 79.1367C104.245 79.3501 103.557 79.4567 102.757 79.4567ZM19.3499 97.4567C18.6245 97.4567 17.9845 97.3234 17.4299 97.0567C16.8752 96.7794 16.4432 96.3634 16.1339 95.8087C15.8245 95.2434 15.6699 94.5341 15.6699 93.6807V88.8007H17.6699V93.4087C17.6699 94.1767 17.8405 94.7527 18.1819 95.1367C18.5339 95.5101 19.0299 95.6967 19.6699 95.6967C20.1392 95.6967 20.5445 95.6007 20.8859 95.4087C21.2379 95.2167 21.5099 94.9287 21.7019 94.5447C21.9045 94.1607 22.0059 93.6861 22.0059 93.1207V88.8007H24.0059V97.3447H22.1019V95.0407L22.4379 95.7447C22.1499 96.2994 21.7285 96.7261 21.1739 97.0247C20.6192 97.3127 20.0112 97.4567 19.3499 97.4567ZM31.4725 88.7047C32.1552 88.7047 32.7632 88.8381 33.2965 89.1047C33.8405 89.3714 34.2672 89.7821 34.5765 90.3367C34.8858 90.8807 35.0405 91.5847 35.0405 92.4487V97.3447H33.0405V92.7047C33.0405 91.9474 32.8592 91.3821 32.4965 91.0087C32.1445 90.6354 31.6485 90.4487 31.0085 90.4487C30.5392 90.4487 30.1232 90.5447 29.7605 90.7367C29.3978 90.9287 29.1152 91.2167 28.9125 91.6007C28.7205 91.9741 28.6245 92.4487 28.6245 93.0247V97.3447H26.6245V88.8007H28.5285V91.1047L28.1925 90.4007C28.4912 89.8567 28.9232 89.4407 29.4885 89.1527C30.0645 88.8541 30.7258 88.7047 31.4725 88.7047ZM42.8416 97.3447V95.6167L42.7296 95.2487V92.2247C42.7296 91.6381 42.5536 91.1847 42.2016 90.8647C41.8496 90.5341 41.3163 90.3687 40.6016 90.3687C40.1216 90.3687 39.647 90.4434 39.1776 90.5927C38.719 90.7421 38.3296 90.9501 38.0096 91.2167L37.2256 89.7607C37.6843 89.4087 38.2283 89.1474 38.8576 88.9767C39.4976 88.7954 40.159 88.7047 40.8416 88.7047C42.079 88.7047 43.0336 89.0034 43.7056 89.6007C44.3883 90.1874 44.7296 91.0994 44.7296 92.3367V97.3447H42.8416ZM40.1536 97.4567C39.5136 97.4567 38.9536 97.3501 38.4736 97.1367C37.9936 96.9127 37.6203 96.6087 37.3536 96.2247C37.0976 95.8301 36.9696 95.3874 36.9696 94.8967C36.9696 94.4167 37.0816 93.9847 37.3056 93.6007C37.5403 93.2167 37.919 92.9127 38.4416 92.6887C38.9643 92.4647 39.6576 92.3527 40.5216 92.3527H43.0016V93.6807H40.6656C39.983 93.6807 39.5243 93.7927 39.2896 94.0167C39.055 94.2301 38.9376 94.4967 38.9376 94.8167C38.9376 95.1794 39.0816 95.4674 39.3696 95.6807C39.6576 95.8941 40.0576 96.0007 40.5696 96.0007C41.0603 96.0007 41.4976 95.8887 41.8816 95.6647C42.2763 95.4407 42.559 95.1101 42.7296 94.6727L43.0656 95.8727C42.8736 96.3741 42.527 96.7634 42.0256 97.0407C41.535 97.3181 40.911 97.4567 40.1536 97.4567ZM55.6383 97.4567C54.7423 97.4567 53.9423 97.2701 53.2383 96.8967C52.5449 96.5127 52.0009 95.9901 51.6063 95.3287C51.2116 94.6674 51.0143 93.9154 51.0143 93.0727C51.0143 92.2194 51.2116 91.4674 51.6063 90.8167C52.0009 90.1554 52.5449 89.6381 53.2383 89.2647C53.9423 88.8914 54.7423 88.7047 55.6383 88.7047C56.4703 88.7047 57.2009 88.8754 57.8303 89.2167C58.4703 89.5474 58.9556 90.0381 59.2863 90.6887L57.7503 91.5847C57.4943 91.1794 57.1796 90.8807 56.8063 90.6887C56.4436 90.4967 56.0489 90.4007 55.6223 90.4007C55.1316 90.4007 54.6889 90.5074 54.2943 90.7207C53.8996 90.9341 53.5903 91.2434 53.3663 91.6487C53.1423 92.0434 53.0303 92.5181 53.0303 93.0727C53.0303 93.6274 53.1423 94.1074 53.3663 94.5127C53.5903 94.9074 53.8996 95.2114 54.2943 95.4247C54.6889 95.6381 55.1316 95.7447 55.6223 95.7447C56.0489 95.7447 56.4436 95.6487 56.8063 95.4567C57.1796 95.2647 57.4943 94.9661 57.7503 94.5607L59.2863 95.4567C58.9556 96.0967 58.4703 96.5927 57.8303 96.9447C57.2009 97.2861 56.4703 97.4567 55.6383 97.4567ZM64.6311 97.4567C63.9058 97.4567 63.2658 97.3234 62.7111 97.0567C62.1565 96.7794 61.7245 96.3634 61.4151 95.8087C61.1058 95.2434 60.9511 94.5341 60.9511 93.6807V88.8007H62.9511V93.4087C62.9511 94.1767 63.1218 94.7527 63.4631 95.1367C63.8151 95.5101 64.3111 95.6967 64.9511 95.6967C65.4205 95.6967 65.8258 95.6007 66.1671 95.4087C66.5191 95.2167 66.7911 94.9287 66.9831 94.5447C67.1858 94.1607 67.2871 93.6861 67.2871 93.1207V88.8007H69.2871V97.3447H67.3831V95.0407L67.7191 95.7447C67.4311 96.2994 67.0098 96.7261 66.4551 97.0247C65.9005 97.3127 65.2925 97.4567 64.6311 97.4567ZM75.9218 97.4567C74.9724 97.4567 74.1404 97.2701 73.4258 96.8967C72.7218 96.5127 72.1724 95.9901 71.7778 95.3287C71.3938 94.6674 71.2018 93.9154 71.2018 93.0727C71.2018 92.2194 71.3884 91.4674 71.7618 90.8167C72.1458 90.1554 72.6684 89.6381 73.3298 89.2647C74.0018 88.8914 74.7644 88.7047 75.6178 88.7047C76.4498 88.7047 77.1911 88.8861 77.8418 89.2487C78.4924 89.6114 79.0044 90.1234 79.3778 90.7847C79.7511 91.4461 79.9378 92.2247 79.9378 93.1207C79.9378 93.2061 79.9324 93.3021 79.9218 93.4087C79.9218 93.5154 79.9164 93.6167 79.9058 93.7127H72.7858V92.3847H78.8498L78.0658 92.8007C78.0764 92.3101 77.9751 91.8781 77.7618 91.5047C77.5484 91.1314 77.2551 90.8381 76.8818 90.6247C76.5191 90.4114 76.0978 90.3047 75.6178 90.3047C75.1271 90.3047 74.6951 90.4114 74.3218 90.6247C73.9591 90.8381 73.6711 91.1367 73.4578 91.5207C73.2551 91.8941 73.1538 92.3367 73.1538 92.8487V93.1687C73.1538 93.6807 73.2711 94.1341 73.5058 94.5287C73.7404 94.9234 74.0711 95.2274 74.4978 95.4407C74.9244 95.6541 75.4151 95.7607 75.9698 95.7607C76.4498 95.7607 76.8818 95.6861 77.2658 95.5367C77.6498 95.3874 77.9911 95.1527 78.2898 94.8327L79.3618 96.0647C78.9778 96.5127 78.4924 96.8594 77.9058 97.1047C77.3298 97.3394 76.6684 97.4567 75.9218 97.4567ZM86.7069 88.7047C87.3895 88.7047 87.9975 88.8381 88.5309 89.1047C89.0749 89.3714 89.5015 89.7821 89.8109 90.3367C90.1202 90.8807 90.2749 91.5847 90.2749 92.4487V97.3447H88.2749V92.7047C88.2749 91.9474 88.0935 91.3821 87.7309 91.0087C87.3789 90.6354 86.8829 90.4487 86.2429 90.4487C85.7735 90.4487 85.3575 90.5447 84.9949 90.7367C84.6322 90.9287 84.3495 91.2167 84.1469 91.6007C83.9549 91.9741 83.8589 92.4487 83.8589 93.0247V97.3447H81.8589V88.8007H83.7629V91.1047L83.4269 90.4007C83.7255 89.8567 84.1575 89.4407 84.7229 89.1527C85.2989 88.8541 85.9602 88.7047 86.7069 88.7047ZM96.028 97.4567C95.0893 97.4567 94.364 97.2167 93.852 96.7367C93.34 96.2461 93.084 95.5261 93.084 94.5767V86.9127H95.084V94.5287C95.084 94.9341 95.1853 95.2487 95.388 95.4727C95.6013 95.6967 95.8947 95.8087 96.268 95.8087C96.716 95.8087 97.0893 95.6914 97.388 95.4567L97.948 96.8807C97.7133 97.0727 97.4253 97.2167 97.084 97.3127C96.7427 97.4087 96.3907 97.4567 96.028 97.4567ZM91.676 90.4647V88.8647H97.372V90.4647H91.676ZM104.857 97.3447V95.6167L104.745 95.2487V92.2247C104.745 91.6381 104.569 91.1847 104.217 90.8647C103.865 90.5341 103.332 90.3687 102.617 90.3687C102.137 90.3687 101.663 90.4434 101.193 90.5927C100.735 90.7421 100.345 90.9501 100.025 91.2167L99.2413 89.7607C99.6999 89.4087 100.244 89.1474 100.873 88.9767C101.513 88.7954 102.175 88.7047 102.857 88.7047C104.095 88.7047 105.049 89.0034 105.721 89.6007C106.404 90.1874 106.745 91.0994 106.745 92.3367V97.3447H104.857ZM102.169 97.4567C101.529 97.4567 100.969 97.3501 100.489 97.1367C100.009 96.9127 99.6359 96.6087 99.3693 96.2247C99.1133 95.8301 98.9853 95.3874 98.9853 94.8967C98.9853 94.4167 99.0973 93.9847 99.3213 93.6007C99.5559 93.2167 99.9346 92.9127 100.457 92.6887C100.98 92.4647 101.673 92.3527 102.537 92.3527H105.017V93.6807H102.681C101.999 93.6807 101.54 93.7927 101.305 94.0167C101.071 94.2301 100.953 94.4967 100.953 94.8167C100.953 95.1794 101.097 95.4674 101.385 95.6807C101.673 95.8941 102.073 96.0007 102.585 96.0007C103.076 96.0007 103.513 95.8887 103.897 95.6647C104.292 95.4407 104.575 95.1101 104.745 94.6727L105.081 95.8727C104.889 96.3741 104.543 96.7634 104.041 97.0407C103.551 97.3181 102.927 97.4567 102.169 97.4567ZM110.833 93.6327C110.833 93.2381 110.897 92.8914 111.025 92.5927C111.153 92.2941 111.319 92.0274 111.521 91.7927C111.724 91.5581 111.937 91.3394 112.161 91.1367C112.396 90.9341 112.615 90.7367 112.817 90.5447C113.02 90.3527 113.185 90.1501 113.313 89.9367C113.441 89.7234 113.505 89.4834 113.505 89.2167C113.505 88.7687 113.324 88.4061 112.961 88.1287C112.599 87.8514 112.113 87.7127 111.505 87.7127C110.919 87.7127 110.407 87.8194 109.969 88.0327C109.543 88.2461 109.185 88.5501 108.897 88.9447L107.345 87.9367C107.793 87.3287 108.38 86.8541 109.105 86.5127C109.831 86.1607 110.689 85.9847 111.681 85.9847C112.46 85.9847 113.143 86.1021 113.729 86.3367C114.316 86.5607 114.775 86.8914 115.105 87.3287C115.436 87.7554 115.601 88.2781 115.601 88.8967C115.601 89.3234 115.532 89.6967 115.393 90.0167C115.265 90.3367 115.095 90.6194 114.881 90.8647C114.679 91.0994 114.46 91.3234 114.225 91.5367C113.991 91.7394 113.767 91.9421 113.553 92.1447C113.351 92.3474 113.185 92.5661 113.057 92.8007C112.929 93.0354 112.865 93.3127 112.865 93.6327H110.833ZM111.857 97.4567C111.484 97.4567 111.175 97.3341 110.929 97.0887C110.695 96.8434 110.577 96.5501 110.577 96.2087C110.577 95.8674 110.695 95.5794 110.929 95.3447C111.175 95.0994 111.484 94.9767 111.857 94.9767C112.231 94.9767 112.535 95.0994 112.769 95.3447C113.004 95.5794 113.121 95.8674 113.121 96.2087C113.121 96.5501 113.004 96.8434 112.769 97.0887C112.535 97.3341 112.231 97.4567 111.857 97.4567Z" fill="#000927"/>
</svg>
