<?xml version="1.0" encoding="UTF-8"?>
<svg width="40px" height="40px" viewBox="0 0 40 40" version="1.1" xmlns="http://www.w3.org/2000/svg" xmlns:xlink="http://www.w3.org/1999/xlink">
    <title>BE0304C1-184A-4BF5-BE11-54C1E9ABACF4</title>
    <g id="Landing-page" stroke="none" stroke-width="1" fill="none" fill-rule="evenodd">
        <g id="Home-politica-de-cookies-desktop-Copy" transform="translate(-160.000000, -412.000000)">
            <g id="Group-3" transform="translate(152.000000, 404.000000)">
                <g id="Icon/cash" transform="translate(8.000000, 8.000000)">
                    <circle id="Oval" fill="#2CBAD8" cx="20" cy="20" r="9"></circle>
                    <path d="M19.7048473,13.25 C20.0946954,13.25 20.4150716,13.547444 20.451414,13.92777 L20.4548473,14 L20.4548473,15.3548387 C20.4548473,15.7690523 20.1190609,16.1048387 19.7048473,16.1048387 C19.3149993,16.1048387 18.994623,15.8073947 18.9582806,15.4270687 L18.9548473,15.3548387 L18.9548473,14 C18.9548473,13.5857864 19.2906337,13.25 19.7048473,13.25 Z" id="Stroke-1" fill="#0C1B2B" fill-rule="nonzero"></path>
                    <path d="M19.7048473,23.3951613 C20.0946954,23.3951613 20.4150716,23.6926053 20.451414,24.0729313 L20.4548473,24.1451613 L20.4548473,25.5 C20.4548473,25.9142136 20.1190609,26.25 19.7048473,26.25 C19.3149993,26.25 18.994623,25.952556 18.9582806,25.57223 L18.9548473,25.5 L18.9548473,24.1451613 C18.9548473,23.7309477 19.2906337,23.3951613 19.7048473,23.3951613 Z" id="Stroke-2" fill="#0C1B2B" fill-rule="nonzero"></path>
                    <path d="M20.2715238,14.9622835 C21.8429574,14.9622835 23.1358185,16.1821516 23.2400324,17.7422665 C23.2768423,18.2933232 22.859963,18.7698832 22.3089063,18.8066932 C21.7828976,18.8418299 21.3247671,18.4635845 21.2521906,17.9498495 L21.2444796,17.8755671 C21.2119017,17.3878652 20.8277547,17.0025584 20.3480272,16.965247 L20.2715238,16.9622835 L18.8215221,16.9622835 C18.34755,16.9622835 17.9640382,17.3446443 17.9640382,17.8141929 C17.9640382,18.1802967 18.1983562,18.5028281 18.542134,18.6204016 L18.612312,18.6411357 L21.0921324,19.2616045 C22.3633503,19.5796723 23.2560151,20.7200111 23.2560151,22.0287377 C23.2560151,23.5678106 22.0343452,24.8211273 20.5070712,24.8785888 L20.3974728,24.8806471 L18.9485295,24.8806471 C17.3733716,24.8806471 16.0798345,23.6576983 15.9788197,22.0942695 C15.9432102,21.543134 16.3611267,21.0674832 16.9122623,21.0318737 C17.4383462,20.9978828 17.8956517,21.3771253 17.967109,21.8910172 L17.9746581,21.9653163 C18.0062558,22.4543602 18.3901954,22.8403067 18.8717247,22.8776788 L18.9485295,22.8806471 L20.3974728,22.8806471 C20.8724274,22.8806471 21.2560151,22.498361 21.2560151,22.0287377 C21.2560151,21.6630984 21.021189,21.3402661 20.676952,21.2225542 L20.6066829,21.2017949 L18.1268625,20.5813261 C16.8557122,20.2632752 15.9640382,19.1229871 15.9640382,17.8141929 C15.9640382,16.2753657 17.1854682,15.0218146 18.7119791,14.9643422 L18.8215221,14.9622835 L20.2715238,14.9622835 Z" id="Stroke-3" fill="#0C1B2B" fill-rule="nonzero"></path>
                    <path d="M20.0029685,5.25 C28.1747654,5.25 34.8020423,11.8542302 34.8020423,20.0021808 C34.8020423,21.1036953 34.6705697,22.2015272 34.4172714,23.3052778 C34.2628565,23.9781428 33.5922135,24.3984297 32.9193485,24.2440147 C32.2464835,24.0895998 31.8261966,23.4189569 31.9806116,22.7460918 C32.1929459,21.8208421 32.3020423,20.9098578 32.3020423,20.0021808 C32.3020423,13.2368954 26.7959993,7.75 20.0029685,7.75 C16.693818,7.75 13.5965004,9.05552651 11.3049276,11.340222 C10.8160392,11.8276432 10.0245839,11.8264538 9.53716269,11.3375654 C9.04974148,10.8486769 9.05093088,10.0572216 9.5398193,9.56980041 C12.2956623,6.82222796 16.0257201,5.25 20.0029685,5.25 Z" id="Stroke-5" fill="#0C1B2B" fill-rule="nonzero"></path>
                    <path d="M5.58272861,16.6947222 C5.73714355,16.0218572 6.40778646,15.6015703 7.08065149,15.7559853 C7.75351652,15.9104002 8.17380337,16.5810431 8.01938843,17.2539082 C7.80705406,18.1791579 7.69795766,19.0901422 7.69795766,19.9978192 C7.69795766,26.7631046 13.2040007,32.25 19.9970315,32.25 C23.306182,32.25 26.4034996,30.9444735 28.6950724,28.659778 C29.1839608,28.1723568 29.9754161,28.1735462 30.4628373,28.6624346 C30.9502585,29.1513231 30.9490691,29.9427784 30.4601807,30.4301996 C27.7043377,33.177772 23.9742799,34.75 19.9970315,34.75 C11.8252346,34.75 5.19795766,28.1457698 5.19795766,19.9978192 C5.19795766,18.8963047 5.3294303,17.7984728 5.58272861,16.6947222 Z" id="Stroke-9" fill="#0C1B2B" fill-rule="nonzero"></path>
                    <path d="M30.2182489,20.055028 C30.6844779,19.5873956 31.428878,19.5659756 31.9205798,19.9915656 L31.9860139,20.0523714 L33.5515,21.613 L35.1174458,20.0523714 C35.5850782,19.5861424 36.3295393,19.5669598 36.8199598,19.9940258 L36.8852108,20.055028 C37.3514398,20.5226604 37.3706224,21.2671215 36.9435564,21.757542 L36.8825542,21.822793 L34.434284,24.2637156 C33.9676452,24.728954 33.2250996,24.7491818 32.7344689,24.3243989 L32.6691757,24.2637156 L30.2209056,21.822793 C29.7320171,21.3353718 29.7308277,20.5439165 30.2182489,20.055028 Z" id="Stroke-7" fill="#0C1B2B" fill-rule="nonzero"></path>
                    <path d="M5.56571596,15.7362844 C6.03235482,15.271046 6.7749004,15.2508182 7.26553114,15.6756011 L7.33082431,15.7362844 L9.77909445,18.177207 C10.2679829,18.6646282 10.2691723,19.4560835 9.78175106,19.944972 C9.31552207,20.4126044 8.57112199,20.4340244 8.07942018,20.0084344 L8.0139861,19.9476286 L6.448,18.3865 L4.88255417,19.9476286 C4.41492178,20.4138576 3.67046067,20.4330402 3.18004024,20.0059742 L3.11478922,19.944972 C2.64856023,19.4773396 2.62937763,18.7328785 3.05644363,18.242458 L3.11744583,18.177207 L5.56571596,15.7362844 Z" id="Stroke-11" fill="#0C1B2B" fill-rule="nonzero"></path>
                </g>
            </g>
        </g>
    </g>
</svg>