<?xml version="1.0" encoding="UTF-8"?>
<svg width="40px" height="40px" viewBox="0 0 40 40" version="1.1" xmlns="http://www.w3.org/2000/svg" xmlns:xlink="http://www.w3.org/1999/xlink">
    <title>E3F80081-646D-43B8-A98D-5383B4F28D21</title>
    <g id="Landing-page" stroke="none" stroke-width="1" fill="none" fill-rule="evenodd">
        <g id="Home-politica-de-cookies-desktop-Copy" transform="translate(-160.000000, -508.000000)">
            <g id="Group-3-Copy" transform="translate(152.000000, 500.000000)">
                <g id="Icon/add" transform="translate(8.000000, 8.000000)">
                    <circle id="Oval-Copy" fill="#FDC508" cx="28" cy="26.5" r="8.5"></circle>
                    <path d="M27.8319526,35.7485041 C22.8012874,35.6588795 18.75,31.5531998 18.75,26.501601 C18.75,21.4829508 22.9901413,17.246292 28.0089067,17.2499979 C33.1135079,17.2537031 37.25,21.3941993 37.25,26.5 C37.25,31.5523332 33.1995522,35.6588606 28.168075,35.7485038 L28,35.7499979 L27.8319526,35.7485041 Z M28.0070764,19.7499979 C24.3696807,19.747312 21.25,22.8644305 21.25,26.501601 C21.25,30.1767001 24.1890016,33.1659323 27.8450966,33.2482576 L28,33.2499979 L28.1549288,33.2482573 C31.760105,33.1670746 34.6670859,30.2597046 34.7482575,26.6549119 L34.75,26.5 C34.75,22.7740676 31.7315556,19.7527013 28.0070764,19.7499979 Z" id="Stroke-1" fill="#0C1B2B" fill-rule="nonzero"></path>
                    <path d="M34.5,10.5 C35.1903559,10.5 35.75,11.0596441 35.75,11.75 C35.75,12.4127417 35.234232,12.9550193 34.5821878,12.9973412 L34.5,13 L4,13 C3.30964406,13 2.75,12.4403559 2.75,11.75 C2.75,11.0872583 3.26576797,10.5449807 3.91781216,10.5026588 L4,10.5 L34.5,10.5 Z" id="Stroke-3" fill="#0C1B2B" fill-rule="nonzero"></path>
                    <path d="M31.2894737,4.25 C33.7113757,4.25 35.6786144,6.18612149 35.7481006,8.59870975 L35.75,8.73076923 L35.75,21.6538462 C35.75,22.3442021 35.1903559,22.9038462 34.5,22.9038462 C33.8372583,22.9038462 33.2949807,22.3880782 33.2526588,21.736034 L33.25,21.6538462 L33.25,8.73076923 C33.25,7.66863492 32.4252374,6.80548034 31.3902676,6.75257042 L31.2894737,6.75 L7.21052632,6.75 C6.16263431,6.75 5.30512507,7.57996288 5.25255407,8.62862372 L5.25,8.73076923 L5.25,23.2692308 C5.25,24.3313651 6.07476261,25.1945197 7.10973237,25.2474296 L7.21052632,25.25 L20.0526316,25.25 C20.7429875,25.25 21.3026316,25.8096441 21.3026316,26.5 C21.3026316,27.1627417 20.7868636,27.7050193 20.1348194,27.7473412 L20.0526316,27.75 L7.21052632,27.75 C4.7886243,27.75 2.82138565,25.8138785 2.75189942,23.4012902 L2.75,23.2692308 L2.75,8.73076923 C2.75,6.30133743 4.6739904,4.32183323 7.07888215,4.25191135 L7.21052632,4.25 L31.2894737,4.25 Z" id="Stroke-5" fill="#0C1B2B" fill-rule="nonzero"></path>
                    <path d="M26.5785573,22.6553442 C27.0247656,22.1685715 27.7676126,22.1159533 28.2767293,22.520549 L28.3446558,22.5785573 L31.3446558,25.3285573 C31.8625956,25.8033355 31.8841764,26.6056374 31.4093983,27.1077093 L31.3446558,27.1714427 L28.3446558,29.9214427 C27.835757,30.3879332 27.0450478,30.3535545 26.5785573,29.8446558 C26.132349,29.3578831 26.1444029,28.6132724 26.5916593,28.1411928 L26.6553442,28.0785573 L28.65,26.2495 L26.6553442,24.4214427 C26.1685715,23.9752344 26.1159533,23.2323874 26.520549,22.7232707 L26.5785573,22.6553442 Z" id="Stroke-7" fill="#0C1B2B" fill-rule="nonzero"></path>
                </g>
            </g>
        </g>
    </g>
</svg>