<?xml version="1.0" encoding="UTF-8"?>
<svg width="35px" height="34px" viewBox="0 0 35 34" version="1.1" xmlns="http://www.w3.org/2000/svg" xmlns:xlink="http://www.w3.org/1999/xlink">
    <title>Instagram</title>
    <g id="Desktop" stroke="none" stroke-width="1" fill="none" fill-rule="evenodd">
        <g id="Verificar-celular" transform="translate(-233.000000, -961.000000)" fill-rule="nonzero">
            <g id="Footer" transform="translate(0.000000, 926.000000)">
                <g id="Group-11" transform="translate(176.000000, 35.000000)">
                    <g id="Instagram" transform="translate(57.600000, 0.000000)">
                        <circle id="Oval" fill="#0C1B2B" cx="16.8" cy="16.79993" r="16.7999"></circle>
                        <path d="M22.05,16.80003 C22.05,18.19243 21.4968,19.52773 20.5123,20.51233 C19.5277,21.49683 18.1923,22.05003 16.8,22.05003 C15.4076,22.05003 14.0722,21.49683 13.0876,20.51233 C12.1031,19.52773 11.55,18.19243 11.55,16.80003 C11.55,16.50073 11.5815,16.20853 11.6357,15.92503 L9.8,15.92503 L9.8,22.91973 C9.8,23.40623 10.1937,23.80003 10.6802,23.80003 L22.9215,23.80003 C23.1546,23.79953 23.3781,23.70663 23.5428,23.54153 C23.7075,23.37653 23.8,23.15293 23.8,22.91973 L23.8,15.92503 L21.9642,15.92503 C22.0185,16.20853 22.05,16.50073 22.05,16.80003 Z M16.8,20.3000301 C17.2597,20.29993 17.7149,20.20923 18.1396,20.03313 C18.5643,19.85713 18.9502,19.59913 19.2752,19.27403 C19.6002,18.94883 19.858,18.56283 20.0338,18.13803 C20.2096,17.71323 20.3001,17.25803 20.3000001,16.7982299 C20.2998,16.33853 20.2092,15.88333 20.0331,15.45863 C19.8571,15.03393 19.5991,14.64803 19.274,14.32303 C18.9488,13.99803 18.5628,13.74023 18.138,13.56443 C17.7132,13.38853 17.2579,13.29813 16.7981999,13.2982299 C15.8697,13.29853 14.9793,13.66753 14.323,14.32423 C13.6666,14.98093 13.298,15.87153 13.2981999,16.80003 C13.2984,17.72853 13.6675,18.61883 14.3242,19.27523 C14.9809,19.93163 15.8715,20.30023 16.8,20.3000301 Z M21,13.12503 L23.0982,13.12503 C23.2376,13.12503 23.3713,13.06973 23.4701,12.97133 C23.5688,12.87293 23.6245,12.73943 23.625,12.60003 L23.625,10.50173 C23.625,10.36203 23.5695,10.22803 23.4707,10.12923 C23.3719,10.03053 23.2379,9.97503 23.0982,9.97503 L21,9.97503 C20.8603,9.97503 20.7263,10.03053 20.6275,10.12923 C20.5287,10.22803 20.4732,10.36203 20.4732,10.50173 L20.4732,12.60003 C20.475,12.88873 20.7112,13.12503 21,13.12503 Z M16.8,0 C12.3443,0 8.0712,1.76999 4.9206,4.92063 C1.7699,8.07123 0,12.34433 0,16.80003 C0,21.25563 1.7699,25.52883 4.9206,28.67943 C8.0712,31.83003 12.3443,33.60003 16.8,33.60003 C19.0062,33.60003 21.1908,33.16543 23.229,32.32113 C25.2673,31.47693 27.1193,30.23943 28.6794,28.67943 C30.2394,27.11933 31.4769,25.26733 32.3211,23.22913 C33.1654,21.19083 33.6,19.00623 33.6,16.80003 C33.6,14.59383 33.1654,12.40923 32.3211,10.37093 C31.4769,8.33263 30.2394,6.48063 28.6794,4.92063 C27.1193,3.36058 25.2673,2.1231 23.229,1.27882 C21.1908,0.43454 19.0062,0 16.8,0 Z M25.55,23.60573 C25.55,24.67503 24.675,25.55003 23.6057,25.55003 L9.9942,25.55003 C8.925,25.55003 8.05,24.67503 8.05,23.60573 L8.05,9.99423 C8.05,8.92503 8.925,8.05003 9.9942,8.05003 L23.6057,8.05003 C24.675,8.05003 25.55,8.92503 25.55,9.99423 L25.55,23.60573 Z" id="Shape" fill="#FFFFFF"></path>
                    </g>
                </g>
            </g>
        </g>
    </g>
</svg>