<svg width="126" height="40" viewBox="0 0 126 40" fill="none" xmlns="http://www.w3.org/2000/svg">
<g clip-path="url(#clip0_2424_5051)">
<path d="M54.4825 14.0445C54.4825 20.8717 49.8193 26.4005 42.1266 26.4005C34.4338 26.4005 29.8193 20.8717 29.8193 14.0445C29.8193 7.21728 34.5313 1.68848 42.0778 1.68848C49.6243 1.68848 54.4825 7.26604 54.4825 14.0445ZM35.6895 14.0445C35.6895 17.6531 37.8535 21.0179 42.1327 21.0179C46.4118 21.0179 48.5758 17.6531 48.5758 14.0445C48.5758 10.4358 46.0766 7.02831 42.1327 7.02831C37.9022 7.02831 35.6895 10.4907 35.6895 14.0445Z" fill="white"/>
<path d="M64.4493 2.16992V14.5747C64.4493 18.1772 66.4182 20.9203 70.167 20.9203C73.9159 20.9203 76.2262 17.8907 76.2262 14.2882V2.16992H82.0415V25.9188H76.7992L76.4151 22.7002C73.9647 25.102 71.7032 26.2601 68.3871 26.2601C62.712 26.2601 58.5791 21.981 58.5791 14.6295V2.16992H64.4432H64.4493Z" fill="white"/>
<path d="M25.8153 13.417C25.8153 10.9665 25.1448 8.80253 23.0783 6.35205C21.7373 4.62087 19.0856 2.88969 19.0856 2.88969C17.452 1.78637 14.8552 1.40234 12.9838 1.40234C6.34562 1.40234 0 5.4377 0 13.417C0 20.8233 5.14477 25.3402 12.9777 25.3402C17.3971 25.3402 19.7074 27.1689 19.7074 30.0034C19.7074 32.8379 16.1475 34.3313 12.8802 34.3313C9.18013 34.2826 5.71777 32.4112 5.91283 29.089H0.0975312C-0.140201 35.8674 4.66321 40.0003 12.8863 40.0003C19.2319 40.0003 25.8153 36.733 25.8153 30.0034C25.8153 27.6931 24.9985 24.1393 19.9512 22.3106C23.8464 20.5307 25.8153 17.6474 25.8153 13.417ZM12.9777 19.9516C9.13136 19.9516 5.86407 17.5499 5.86407 13.417C5.86407 8.99149 9.13136 6.83361 12.9777 6.83361C16.8241 6.83361 19.9451 9.38162 19.9451 13.417C19.9451 17.4523 16.818 19.9516 12.9777 19.9516Z" fill="white"/>
<path d="M25.6565 0H19.0244V6.63212H25.6565V0Z" fill="#00DDF4"/>
<path d="M92.8676 11.1186H91.9045L88.2471 2.49316H89.1919L92.386 10.1677L95.5314 2.49316H96.4885L92.8676 11.1186Z" fill="white"/>
<path d="M97.3598 8.40006C97.4695 9.66797 98.4509 10.4116 99.6578 10.4116C100.395 10.4116 101.279 10.1191 101.712 9.57653L102.267 10.0703C101.663 10.8201 100.621 11.198 99.6639 11.198C97.8596 11.198 96.5186 9.98495 96.5186 8.04042C96.5186 6.2239 97.823 4.90723 99.6274 4.90723C101.432 4.90723 102.882 5.99836 102.651 8.40006H97.3659H97.3598ZM101.871 7.69906C101.846 6.37019 100.853 5.64481 99.6335 5.64481C98.4143 5.64481 97.5183 6.38239 97.3598 7.69906H101.871Z" fill="white"/>
<path d="M108.9 11.0946V7.69323C108.9 6.38875 108.138 5.69994 106.919 5.69994C105.742 5.71213 104.931 6.62039 104.931 7.79076V11.0946H104.108V5.02331H104.895L104.919 6.04129C105.425 5.26714 106.211 4.92578 107.034 4.92578C108.607 4.92578 109.735 5.85842 109.735 7.68104V11.0946H108.9Z" fill="white"/>
<path d="M117.458 2.49316V11.0942H116.659L116.635 9.87506C116.141 10.7467 115.208 11.2039 114.251 11.2039C112.532 11.2039 111.191 10.0762 111.191 8.05854C111.191 6.04086 112.532 4.91316 114.251 4.91316C115.196 4.91316 116.178 5.32767 116.635 6.22983V2.49316H117.458ZM112.014 8.05854C112.014 9.58247 113.032 10.4176 114.3 10.4176C115.568 10.4176 116.598 9.46055 116.598 8.04635C116.598 6.63215 115.592 5.6995 114.3 5.6995C113.008 5.6995 112.014 6.51023 112.014 8.05854Z" fill="white"/>
<path d="M119.829 8.40006C119.938 9.66797 120.92 10.4116 122.127 10.4116C122.864 10.4116 123.748 10.1191 124.181 9.57653L124.736 10.0703C124.132 10.8201 123.09 11.198 122.133 11.198C120.328 11.198 118.987 9.98495 118.987 8.04042C118.987 6.2239 120.292 4.90723 122.096 4.90723C123.9 4.90723 125.351 5.99836 125.12 8.40006H119.835H119.829ZM124.339 7.69906C124.315 6.37019 123.321 5.64481 122.102 5.64481C120.883 5.64481 119.987 6.38239 119.829 7.69906H124.339Z" fill="white"/>
<path d="M89.5585 25.8331V20.536H88.3516V19.8228H89.5585V19.3168C89.5585 18.0002 90.1986 17.165 91.4969 17.165C91.9785 17.165 92.4174 17.3235 92.8014 17.5978L92.4479 18.2135C92.1126 18.0184 91.8688 17.9087 91.5152 17.9087C90.8142 17.9087 90.3875 18.3415 90.3875 19.3229V19.8289H92.326V20.5421H90.3875V25.8392H89.5646L89.5585 25.8331Z" fill="white"/>
<path d="M98.3789 20.969V19.7682H99.1531V25.8395H98.3911V24.6386C97.8608 25.5347 96.8916 25.9675 95.9833 25.9675C94.2643 25.9675 92.8867 24.7362 92.8867 22.8099C92.8867 20.8837 94.2765 19.6889 95.9955 19.6889C96.9282 19.6889 97.9279 20.1156 98.3789 20.9812M96.0199 20.4387C94.7398 20.4387 93.7096 21.3835 93.7096 22.8099C93.7096 24.2363 94.7398 25.1933 96.0199 25.1933C99.1531 25.1933 99.1531 20.4387 96.0199 20.4387ZM97.5438 17.1836H96.5624L95.642 18.7075V18.7563H96.3917L97.5499 17.208V17.1836H97.5438Z" fill="white"/>
<path d="M106.071 25.0105C105.431 25.6384 104.645 25.9309 103.822 25.9309C102.103 25.9309 100.677 24.7728 100.677 22.7978C100.677 20.8228 102.067 19.6768 103.822 19.6768C104.633 19.6768 105.346 19.9572 105.974 20.5728L105.431 21.1032C104.974 20.6582 104.426 20.4509 103.834 20.4509C102.542 20.4509 101.5 21.3104 101.5 22.7978C101.5 24.2851 102.554 25.1446 103.822 25.1446C104.438 25.1446 105.053 24.913 105.505 24.4558L106.071 25.0105Z" fill="white"/>
<path d="M108.418 17.8609C108.418 18.635 107.254 18.635 107.254 17.8609C107.254 17.0867 108.418 17.0867 108.418 17.8609ZM107.412 25.8341H108.235V19.7384H107.412V25.8341Z" fill="white"/>
<path d="M111.057 17.2324H110.234V25.8335H111.057V17.2324Z" fill="white"/>
</g>
<defs>
<clipPath id="clip0_2424_5051">
<rect width="125.139" height="40" fill="white"/>
</clipPath>
</defs>
</svg>
