<svg width="196" height="48" viewBox="0 0 196 48" fill="none" xmlns="http://www.w3.org/2000/svg">
<g clip-path="url(#clip0_3946_23016)">
<path d="M65.3816 16.8523C65.3816 25.0424 59.7839 31.6759 50.5571 31.6759C41.3303 31.6759 35.7891 25.0424 35.7891 16.8523C35.7891 8.6623 41.4387 2.02441 50.4964 2.02441C59.5541 2.02441 65.3816 8.71866 65.3816 16.848M42.8262 16.848C42.8262 21.175 45.4234 25.2115 50.5571 25.2115C55.6908 25.2115 58.288 21.175 58.288 16.848C58.288 12.521 55.2876 8.42817 50.5571 8.42817C45.4798 8.42817 42.8262 12.5817 42.8262 16.848Z" fill="white"/>
<path d="M77.3442 2.60547V17.4854C77.3442 21.8124 79.7073 25.0988 84.208 25.0988C88.7086 25.0988 91.4749 21.4656 91.4749 17.1386V2.60547H98.4557V31.0994H92.1687L91.7047 27.2363C88.765 30.1195 86.0507 31.5069 82.0704 31.5069C75.263 31.5069 70.3027 26.3735 70.3027 17.5461V2.60547H77.3399H77.3442Z" fill="white"/>
<path d="M30.98 16.102C30.98 13.1581 30.1735 10.5654 27.6934 7.62148C26.0848 5.54037 22.9066 3.46793 22.9066 3.46793C20.9467 2.14122 17.8292 1.68164 15.5789 1.68164C7.61384 1.68164 0 6.52456 0 16.102C0 24.9858 6.17432 30.4097 15.5745 30.4097C20.8817 30.4097 23.6523 32.6035 23.6523 36.007C23.6523 39.4105 19.3815 41.1968 15.4618 41.1968C11.0175 41.1404 6.86806 38.8902 7.09787 34.9101H0.117069C-0.173436 43.0438 5.59765 48.0037 15.4618 48.0037C23.0757 48.0037 30.98 44.08 30.98 36.007C30.98 33.2365 30.0001 28.9702 23.9428 26.7764C28.6169 24.6433 30.98 21.1791 30.98 16.1064M15.5789 23.9496C10.9655 23.9496 7.0415 21.0663 7.0415 16.1064C7.0415 10.7995 10.9655 8.20246 15.5789 8.20246C20.1923 8.20246 23.9428 11.2591 23.9428 16.1064C23.9428 20.9536 20.1923 23.9496 15.5789 23.9496Z" fill="white"/>
<path d="M111.442 13.3365H110.293L105.896 2.9873H107.032L110.865 12.2049L114.642 2.9873H115.791L111.442 13.3365Z" fill="white"/>
<path d="M116.835 10.0804C116.97 11.5979 118.149 12.4997 119.593 12.4997C120.478 12.4997 121.54 12.1442 122.056 11.4981L122.719 12.0878C121.995 12.9853 120.742 13.4449 119.593 13.4449C117.425 13.4449 115.816 11.9837 115.816 9.65549C115.816 7.47466 117.377 5.89648 119.545 5.89648C121.713 5.89648 123.452 7.21019 123.174 10.0847H116.835V10.0804ZM122.247 9.23927C122.216 7.64809 121.024 6.77662 119.563 6.77662C118.101 6.77662 117.026 7.66109 116.835 9.23927H122.247Z" fill="white"/>
<path d="M130.679 13.3106V9.22638C130.679 7.66121 129.764 6.83744 128.307 6.83744C126.894 6.85478 125.918 7.94303 125.918 9.34344V13.3106H124.93V6.02667H125.875L125.905 7.24933C126.508 6.3215 127.453 5.90527 128.442 5.90527C130.328 5.90527 131.685 7.02387 131.685 9.20904V13.3062H130.683L130.679 13.3106Z" fill="white"/>
<path d="M140.952 2.9873V13.3105H139.994L139.964 11.8494C139.374 12.8986 138.251 13.4406 137.102 13.4406C135.038 13.4406 133.43 12.0835 133.43 9.66421C133.43 7.24492 135.038 5.89219 137.102 5.89219C138.238 5.89219 139.418 6.39513 139.964 7.47037V2.9873H140.952ZM134.423 9.66421C134.423 11.4939 135.645 12.4954 137.163 12.4954C138.68 12.4954 139.921 11.3464 139.921 9.6512C139.921 7.95596 138.711 6.83736 137.163 6.83736C135.615 6.83736 134.423 7.80855 134.423 9.66854" fill="white"/>
<path d="M143.796 10.0804C143.931 11.5979 145.11 12.4997 146.554 12.4997C147.438 12.4997 148.501 12.1442 149.017 11.4981L149.68 12.0878C148.956 12.9853 147.703 13.4449 146.554 13.4449C144.386 13.4449 142.777 11.9837 142.777 9.65549C142.777 7.47466 144.338 5.89648 146.506 5.89648C148.674 5.89648 150.413 7.21019 150.135 10.0847H143.796V10.0804ZM149.207 9.23927C149.177 7.64809 147.985 6.77662 146.524 6.77662C145.062 6.77662 143.987 7.66109 143.796 9.23927H149.207Z" fill="white"/>
<path d="M152.523 14.6501H151.786L152.198 13.3667C151.947 13.293 151.756 13.1023 151.756 12.7771C151.756 11.923 153.156 11.8623 153.156 12.7901C153.156 13.1586 152.831 13.7483 152.523 14.6457" fill="white"/>
<path d="M112.677 30.0117C111.909 30.7618 110.964 31.1173 109.98 31.1173C107.916 31.1173 106.203 29.7299 106.203 27.3583C106.203 24.9867 107.868 23.6123 109.98 23.6123C110.951 23.6123 111.809 23.9505 112.56 24.6875L111.909 25.3206C111.363 24.7916 110.699 24.5401 109.993 24.5401C108.445 24.5401 107.192 25.572 107.192 27.3583C107.192 29.1446 108.458 30.1721 109.98 30.1721C110.717 30.1721 111.454 29.8903 112 29.3484L112.677 30.0117Z" fill="white"/>
<path d="M121.127 27.3714C121.127 29.6259 119.536 31.1174 117.381 31.1174C115.226 31.1174 113.635 29.6303 113.635 27.3714C113.635 25.1125 115.196 23.582 117.381 23.582C119.566 23.582 121.127 25.1169 121.127 27.3714ZM114.623 27.3714C114.623 29.0666 115.772 30.1896 117.381 30.1896C118.99 30.1896 120.139 29.071 120.139 27.3714C120.139 25.6718 119.003 24.4838 117.381 24.4838C115.759 24.4838 114.623 25.6935 114.623 27.3714Z" fill="white"/>
<path d="M128.217 30.9999V26.7813C128.217 25.498 127.363 24.5094 126.079 24.5094C124.796 24.5094 123.942 25.498 123.942 26.7813V30.9999H122.953V23.716H123.881L123.924 24.8519C124.397 23.9371 125.295 23.5859 126.179 23.5859C127.224 23.5859 128.317 24.0412 128.746 25.2682C129.232 24.1192 130.294 23.5859 131.369 23.5859C133.225 23.5859 134.435 24.8389 134.435 26.7553V30.9999H133.446V26.7553C133.446 25.4589 132.635 24.5138 131.352 24.5138C130.068 24.5138 129.197 25.5023 129.197 26.7856V31.0042H128.208L128.217 30.9999Z" fill="white"/>
<path d="M136.646 34.4778V23.7167H137.605L137.635 25.2645C138.194 24.2326 139.317 23.5996 140.583 23.5996C142.634 23.6603 144.165 25.0737 144.165 27.3586C144.165 29.6435 142.6 31.148 140.479 31.148C139.361 31.148 138.207 30.632 137.618 29.5264V34.4821H136.646V34.4778ZM143.176 27.3543C143.176 25.542 141.997 24.5535 140.432 24.5535C138.866 24.5535 137.704 25.7501 137.704 27.3716C137.704 28.9932 138.871 30.1855 140.432 30.1855C141.993 30.1855 143.176 29.1839 143.176 27.3543Z" fill="white"/>
<path d="M146.939 23.7161L147 24.9084C147.472 23.9372 148.444 23.5947 149.315 23.5947C149.979 23.5947 150.438 23.7421 150.967 24.1107L150.512 24.9344C150.143 24.683 149.731 24.5486 149.259 24.5486C148.006 24.5616 147.004 25.5198 147.004 26.8465V30.9914H146.016V23.7075H146.944L146.939 23.7161Z" fill="white"/>
<path d="M158.027 23.7164H158.954V31.0003H158.04V29.5565C157.407 30.6317 156.24 31.1477 155.148 31.1477C153.084 31.1477 151.432 29.6735 151.432 27.3583C151.432 25.0431 153.097 23.6123 155.161 23.6123C156.279 23.6123 157.476 24.1282 158.022 25.1601V23.7164H158.027ZM152.425 27.3583C152.425 29.0839 153.665 30.2198 155.195 30.2198C158.954 30.2198 158.954 24.5141 155.195 24.5141C153.66 24.5141 152.425 25.6501 152.425 27.3583Z" fill="white"/>
<path d="M165.897 31V24.6439H164.453V23.7898H165.897V23.1871C165.897 21.609 166.664 20.6074 168.225 20.6074C168.802 20.6074 169.331 20.7982 169.786 21.1234L169.357 21.8604C168.958 21.6263 168.663 21.4919 168.238 21.4919C167.397 21.4919 166.881 22.0078 166.881 23.1871V23.7898H169.21V24.6439H166.881V31H165.893H165.897Z" fill="white"/>
<path d="M176.48 25.1593V23.7155H177.408V30.9994H176.493V29.5557C175.86 30.6309 174.693 31.1468 173.601 31.1468C171.537 31.1468 169.885 29.6727 169.885 27.3575C169.885 25.0422 171.55 23.6115 173.614 23.6115C174.732 23.6115 175.929 24.1274 176.475 25.1593M173.644 24.509C172.109 24.509 170.873 25.6449 170.873 27.3531C170.873 29.0614 172.113 30.2147 173.644 30.2147C177.403 30.2147 177.403 24.509 173.644 24.509ZM175.474 20.6025H174.294L173.189 22.4322V22.4929H174.091L175.478 20.6329V20.6025H175.474Z" fill="white"/>
<path d="M185.712 30.0117C184.944 30.7618 183.999 31.1173 183.015 31.1173C180.951 31.1173 179.238 29.7299 179.238 27.3583C179.238 24.9867 180.903 23.6123 183.015 23.6123C183.986 23.6123 184.845 23.9505 185.595 24.6875L184.944 25.3206C184.398 24.7916 183.735 24.5401 183.028 24.5401C181.48 24.5401 180.227 25.572 180.227 27.3583C180.227 29.1446 181.493 30.1721 183.015 30.1721C183.752 30.1721 184.489 29.8903 185.035 29.3484L185.712 30.0117Z" fill="white"/>
<path d="M188.525 21.4312C188.525 22.3591 187.125 22.3591 187.125 21.4312C187.125 20.5034 188.525 20.5034 188.525 21.4312ZM187.316 31H188.304V23.6858H187.316V31Z" fill="white"/>
<path d="M191.694 20.6768H190.705V30.9956H191.694V20.6768Z" fill="white"/>
<path d="M196 30.5582C196 31.486 194.6 31.486 194.6 30.5582C194.6 29.6303 196 29.6303 196 30.5582Z" fill="white"/>
<path d="M30.7888 0H22.8281V7.96026H30.7888V0Z" fill="#00DDF4"/>
</g>
<defs>
<clipPath id="clip0_3946_23016">
<rect width="196" height="48" fill="white"/>
</clipPath>
</defs>
</svg>
