<svg width="65" height="32" viewBox="0 0 65 32" fill="none" xmlns="http://www.w3.org/2000/svg">
<path d="M43.1617 11.2433C43.1617 16.7025 39.4594 21.1244 33.3748 21.1244C27.2902 21.1244 23.625 16.6931 23.625 11.2433C23.625 5.82338 27.3568 1.36035 33.3359 1.36035C39.315 1.36035 43.1617 5.81217 43.1617 11.2433ZM28.2713 11.2433C28.2713 14.1271 29.9854 16.8184 33.3748 16.8184C36.7642 16.8184 38.4783 14.1271 38.4783 11.2433C38.4783 8.39692 36.4976 5.63649 33.3748 5.63649C30.0224 5.61967 28.2713 8.38757 28.2713 11.2433Z" fill="white"/>
<path d="M51.061 1.73633V11.6567C51.061 14.5404 52.6215 16.7327 55.5926 16.7327C58.4488 16.7327 60.3925 14.3031 60.3925 11.4249V1.73633H64.9999V20.7304H60.8497L60.5443 18.1587C58.6025 20.0819 56.8124 21.0032 54.1839 21.0032C49.6894 21.0032 46.4092 17.5812 46.4092 11.6997V1.73633H51.061Z" fill="white"/>
<path d="M20.4511 10.7331C20.4511 8.77254 19.918 7.0419 18.2816 5.08138C17.2209 3.69463 15.1199 2.31161 15.1199 2.31161C13.8241 1.4276 11.7694 1.12109 10.2829 1.12109C5.02762 1.12109 0 4.35062 0 10.7331C0 16.6557 4.07245 20.2647 10.2829 20.2647C13.7871 20.2647 15.616 21.7243 15.616 24.0025C15.616 26.3481 12.7967 27.4638 10.207 27.4638C7.27487 27.4246 4.53338 25.9257 4.68517 23.2718H0.0758907C-0.109221 28.6917 3.69482 31.9997 10.207 31.9997C15.2347 31.9997 20.4511 29.3832 20.4511 24.0025C20.4511 22.1579 19.8051 19.3115 15.8048 17.85C18.8906 16.424 20.4511 14.1177 20.4511 10.7331ZM10.2829 15.9661C7.236 15.9661 4.64629 14.043 4.64629 10.7331C4.64629 7.19515 7.23785 5.46451 10.2829 5.46451C13.328 5.46451 15.8048 7.50353 15.8048 10.7331C15.8048 14.0018 13.3299 15.9623 10.2829 15.9623V15.9661Z" fill="white"/>
<path d="M20.3276 0H15.0723V5.30593H20.3276V0Z" fill="#00DDF4"/>
</svg>
