<svg width="72" height="35" viewBox="0 0 72 35" fill="none" xmlns="http://www.w3.org/2000/svg">
<path d="M47.8105 12.2977C47.8105 18.2687 43.7096 23.1052 36.9697 23.1052C30.2298 23.1052 26.1699 18.2585 26.1699 12.2977C26.1699 6.36966 30.3037 1.48822 36.9267 1.48822C43.5497 1.48822 47.8105 6.3574 47.8105 12.2977ZM31.3166 12.2977C31.3166 15.4518 33.2153 18.3954 36.9697 18.3954C40.7241 18.3954 42.6228 15.4518 42.6228 12.2977C42.6228 9.18446 40.4288 6.16525 36.9697 6.16525C33.2563 6.14685 31.3166 9.17424 31.3166 12.2977Z" fill="#0C1B2B"/>
<path d="M56.56 1.89905V12.7494C56.56 15.9036 58.2886 18.3013 61.5796 18.3013C64.7434 18.3013 66.8964 15.6439 66.8964 12.4959V1.89905H72V22.6738H67.4029L67.0646 19.861C64.9136 21.9645 62.9308 22.9722 60.0192 22.9722C55.0406 22.9722 51.4072 19.2294 51.4072 12.7964V1.89905H56.56Z" fill="#0C1B2B"/>
<path d="M22.6535 11.7396C22.6535 9.59527 22.063 7.70238 20.2504 5.55806C19.0755 4.0413 16.7482 2.52863 16.7482 2.52863C15.3129 1.56174 13.0369 1.2265 11.3903 1.2265C5.56906 1.2265 0 4.7588 0 11.7396C0 18.2175 4.51102 22.1648 11.3903 22.1648C15.2719 22.1648 17.2977 23.7613 17.2977 26.2531C17.2977 28.8185 14.1749 30.0388 11.3063 30.0388C8.05832 29.9959 5.02159 28.3565 5.18973 25.4538H0.0840635C-0.120983 31.3819 4.09272 35 11.3063 35C16.8753 35 22.6535 32.1382 22.6535 26.2531C22.6535 24.2355 21.9379 21.1222 17.5069 19.5237C20.925 17.964 22.6535 15.4415 22.6535 11.7396ZM11.3903 17.4632C8.01526 17.4632 5.14666 15.3598 5.14666 11.7396C5.14666 7.87 8.01731 5.97711 11.3903 5.97711C14.7633 5.97711 17.5069 8.20729 17.5069 11.7396C17.5069 15.3148 14.7654 17.4591 11.3903 17.4591V17.4632Z" fill="#0C1B2B"/>
<path d="M22.5166 0H16.6953V5.80336H22.5166V0Z" fill="#00DDF4"/>
</svg>
