<svg width="66" height="32" viewBox="0 0 66 32" fill="none" xmlns="http://www.w3.org/2000/svg">
<path d="M43.8265 11.2436C43.8265 16.7027 40.0673 21.1246 33.8891 21.1246C27.7108 21.1246 23.9893 16.6934 23.9893 11.2436C23.9893 5.82363 27.7785 1.3606 33.8496 1.3606C39.9207 1.3606 43.8265 5.81241 43.8265 11.2436ZM28.707 11.2436C28.707 14.1273 30.4475 16.8186 33.8891 16.8186C37.3306 16.8186 39.0711 14.1273 39.0711 11.2436C39.0711 8.39716 37.0599 5.63673 33.8891 5.63673C30.4851 5.61991 28.707 8.38781 28.707 11.2436Z" fill="white"/>
<path d="M51.8465 1.73621V11.6565C51.8465 14.5403 53.431 16.7326 56.4477 16.7326C59.3479 16.7326 61.3215 14.303 61.3215 11.4248V1.73621H65.9998V20.7303H61.7857L61.4756 18.1586C59.5039 20.0817 57.6864 21.0031 55.0173 21.0031C50.4537 21.0031 47.123 17.5811 47.123 11.6995V1.73621H51.8465Z" fill="white"/>
<path d="M20.7657 10.7333C20.7657 8.77278 20.2244 7.04214 18.5629 5.08162C17.4858 3.69487 15.3525 2.31185 15.3525 2.31185C14.0368 1.42784 11.9504 1.12134 10.4411 1.12134C5.10497 1.12134 0 4.35087 0 10.7333C0 16.656 4.1351 20.2649 10.4411 20.2649C13.9992 20.2649 15.8562 21.7245 15.8562 24.0028C15.8562 26.3483 12.9936 27.4641 10.3641 27.4641C7.3868 27.4248 4.60312 25.9259 4.75725 23.272H0.0770582C-0.110901 28.6919 3.75166 32 10.3641 32C15.469 32 20.7657 29.3835 20.7657 24.0028C20.7657 22.1581 20.1098 19.3117 16.048 17.8502C19.1812 16.4242 20.7657 14.118 20.7657 10.7333ZM10.4411 15.9663C7.34732 15.9663 4.71777 14.0432 4.71777 10.7333C4.71777 7.19539 7.3492 5.46475 10.4411 5.46475C13.5331 5.46475 16.048 7.50377 16.048 10.7333C16.048 14.0021 13.5349 15.9626 10.4411 15.9626V15.9663Z" fill="white"/>
<path d="M20.6399 0H15.3037V5.30593H20.6399V0Z" fill="#00DDF4"/>
</svg>
