<svg width="88" height="43" viewBox="0 0 88 43" fill="none" xmlns="http://www.w3.org/2000/svg">
<path d="M58.435 15.1086C58.435 22.4444 53.4227 28.3863 45.1851 28.3863C36.9475 28.3863 31.9854 22.4318 31.9854 15.1086C31.9854 7.82557 37.0377 1.82837 45.1325 1.82837C53.2273 1.82837 58.435 7.8105 58.435 15.1086ZM38.2757 15.1086C38.2757 18.9837 40.5964 22.6001 45.1851 22.6001C49.7738 22.6001 52.0945 18.9837 52.0945 15.1086C52.0945 11.2838 49.4129 7.57443 45.1851 7.57443C40.6465 7.55183 38.2757 11.2712 38.2757 15.1086Z" fill="#000927"/>
<path d="M69.1289 2.33313V15.6636C69.1289 19.5387 71.2416 22.4845 75.2639 22.4845C79.1309 22.4845 81.7623 19.2197 81.7623 15.3522V2.33313H88V27.8564H82.3813L81.9678 24.4007C79.3389 26.9849 76.9155 28.223 73.3568 28.223C67.2719 28.223 62.8311 23.6247 62.8311 15.7213V2.33313H69.1289Z" fill="#000927"/>
<path d="M27.6876 14.4229C27.6876 11.7885 26.9659 9.46292 24.7505 6.82847C23.3145 4.96502 20.47 3.10659 20.47 3.10659C18.7157 1.9187 15.9339 1.50684 13.9215 1.50684C6.80663 1.50684 0 5.84651 0 14.4229C0 22.3815 5.51347 27.231 13.9215 27.231C18.6656 27.231 21.1417 29.1924 21.1417 32.2538C21.1417 35.4056 17.3248 36.9049 13.8188 36.9049C9.84906 36.8521 6.1375 34.838 6.343 31.2718H0.102744C-0.147868 38.5548 5.00222 43 13.8188 43C20.6254 43 27.6876 39.4841 27.6876 32.2538C27.6876 29.775 26.813 25.9502 21.3973 23.9863C25.575 22.0701 27.6876 18.971 27.6876 14.4229ZM13.9215 21.4548C9.79643 21.4548 6.29036 18.8706 6.29036 14.4229C6.29036 9.66885 9.79894 7.3433 13.9215 7.3433C18.0441 7.3433 21.3973 10.0832 21.3973 14.4229C21.3973 18.8153 18.0466 21.4498 13.9215 21.4498V21.4548Z" fill="#000927"/>
<path d="M27.5202 0H20.4053V7.12984H27.5202V0Z" fill="#00DDF4"/>
</svg>
