<svg width="78" height="51" viewBox="0 0 78 51" fill="none" xmlns="http://www.w3.org/2000/svg">
<path d="M23.3519 0H0V23.2823H23.3519V0Z" fill="#000927"/>
<path d="M18.5306 18.5141L4.90234 4.92651H18.5306V18.5141Z" fill="#00F6B4"/>
<path d="M50.7953 0.340576H27.4434V23.6228H50.7953V0.340576Z" fill="#00DDF4"/>
<path d="M32.9199 18.5615V5.25903H45.861L32.9199 18.5615Z" fill="#9D14F3"/>
<path d="M38.1797 20.229V10.5581H47.5896L38.1797 20.229Z" fill="#9D14F3"/>
<path d="M77.8851 0.340576H54.5332V23.6228H77.8851V0.340576Z" fill="#001C4F"/>
<path d="M57.0587 23.5674V23.6228H68.3473C68.3473 23.6228 68.3473 23.5872 68.3473 23.5674C68.3473 21.0466 69.3517 18.6291 71.1395 16.8466C72.9273 15.0642 75.3521 14.0628 77.8804 14.0628V2.80383C75.1457 2.80331 72.4377 3.33989 69.911 4.38293C67.3844 5.42596 65.0885 6.95502 63.1546 8.88278C61.2207 10.8105 59.6867 13.0992 58.64 15.6182C57.5934 18.1371 57.0547 20.8369 57.0547 23.5634" fill="#000927"/>
<path d="M23.3519 27.7137H0V50.996H23.3519V27.7137Z" fill="#000927"/>
<path d="M21.2262 39.3807C21.2262 41.2605 20.6671 43.0981 19.6196 44.6611C18.5721 46.2242 17.0832 47.4424 15.3413 48.1618C13.5994 48.8811 11.6826 49.0694 9.83339 48.7026C7.98416 48.3359 6.28553 47.4307 4.95231 46.1014C3.6191 44.7722 2.71117 43.0786 2.34334 41.2349C1.9755 39.3912 2.16428 37.4802 2.88581 35.7434C3.60735 34.0067 4.82923 32.5223 6.39693 31.4779C7.96462 30.4335 9.80773 29.8761 11.6932 29.8761C14.2215 29.8761 16.6463 30.8775 18.434 32.6599C20.2218 34.4424 21.2262 36.8599 21.2262 39.3807Z" fill="#00DDF4"/>
<path d="M11.6885 32.9854L5.27344 39.3813L11.6885 45.7773L18.1036 39.3813L11.6885 32.9854Z" fill="#000927"/>
<path d="M77.8851 27.3892H54.5332V50.6714H77.8851V27.3892Z" fill="#00DDF4"/>
<path d="M75.0812 30.4543H57.3379V34.5136H75.0812V30.4543Z" fill="#001C4F"/>
<path d="M75.0812 36.9768H57.3379V41.0361H75.0812V36.9768Z" fill="#001C4F"/>
<path d="M75.0812 43.4954H57.3379V47.5546H75.0812V43.4954Z" fill="#001C4F"/>
<path d="M50.3812 27.3652H27.0293V50.6475H50.3812V27.3652Z" fill="white"/>
<path d="M38.7426 32.9353L32.6309 39.0288L38.7426 45.1223L44.8543 39.0288L38.7426 32.9353Z" fill="#00F6B4"/>
</svg>
