<?xml version="1.0" encoding="UTF-8"?>
<svg width="32px" height="32px" viewBox="0 0 32 32" version="1.1" xmlns="http://www.w3.org/2000/svg" xmlns:xlink="http://www.w3.org/1999/xlink">
    <title>insert_link_black_24dp copy 2</title>
    <defs>
        <filter color-interpolation-filters="auto" id="filter-1">
            <feColorMatrix in="SourceGraphic" type="matrix" values="0 0 0 0 1.000000 0 0 0 0 1.000000 0 0 0 0 1.000000 0 0 0 1.000000 0"></feColorMatrix>
        </filter>
    </defs>
    <g id="Desktop" stroke="none" stroke-width="1" fill="none" fill-rule="evenodd">
        <g filter="url(#filter-1)" id="insert_link_black_24dp-copy-2">
            <g>
                <polygon id="Path" points="0 0 32 0 32 32 0 32"></polygon>
                <path d="M5.28,15.1733333 C5.65333333,13.2133333 7.49333333,11.8666667 9.49333333,11.8666667 L13.4,11.8666667 C14.0933333,11.8666667 14.6666667,11.2933333 14.6666667,10.6 C14.6666667,9.90666667 14.0933333,9.33333333 13.4,9.33333333 L9.62666667,9.33333333 C6.14666667,9.33333333 3.04,11.88 2.70666667,15.3466667 C2.32,19.32 5.44,22.6666667 9.33333333,22.6666667 L13.4,22.6666667 C14.0933333,22.6666667 14.6666667,22.0933333 14.6666667,21.4 C14.6666667,20.7066667 14.0933333,20.1333333 13.4,20.1333333 L9.33333333,20.1333333 C6.78666667,20.1333333 4.77333333,17.8133333 5.28,15.1733333 Z M12,17.3333333 L20,17.3333333 C20.7333333,17.3333333 21.3333333,16.7333333 21.3333333,16 C21.3333333,15.2666667 20.7333333,14.6666667 20,14.6666667 L12,14.6666667 C11.2666667,14.6666667 10.6666667,15.2666667 10.6666667,16 C10.6666667,16.7333333 11.2666667,17.3333333 12,17.3333333 Z M22.3733333,9.33333333 L18.6,9.33333333 C17.9066667,9.33333333 17.3333333,9.90666667 17.3333333,10.6 C17.3333333,11.2933333 17.9066667,11.8666667 18.6,11.8666667 L22.5066667,11.8666667 C24.5066667,11.8666667 26.3466667,13.2133333 26.72,15.1733333 C27.2266667,17.8133333 25.2133333,20.1333333 22.6666667,20.1333333 L18.6,20.1333333 C17.9066667,20.1333333 17.3333333,20.7066667 17.3333333,21.4 C17.3333333,22.0933333 17.9066667,22.6666667 18.6,22.6666667 L22.6666667,22.6666667 C26.56,22.6666667 29.68,19.32 29.3066667,15.3466667 C28.9733333,11.88 25.8533333,9.33333333 22.3733333,9.33333333 Z" id="Shape" fill="#000000" fill-rule="nonzero"></path>
            </g>
        </g>
    </g>
</svg>