<?xml version="1.0" encoding="UTF-8"?>
<svg width="33px" height="33px" viewBox="0 0 33 33" version="1.1" xmlns="http://www.w3.org/2000/svg" xmlns:xlink="http://www.w3.org/1999/xlink">
    <title>Group 4 Copy 2</title>
    <defs>
        <filter color-interpolation-filters="auto" id="filter-1">
            <feColorMatrix in="SourceGraphic" type="matrix" values="0 0 0 0 1.000000 0 0 0 0 1.000000 0 0 0 0 1.000000 0 0 0 1.000000 0"></feColorMatrix>
        </filter>
        <filter color-interpolation-filters="auto" id="filter-2">
            <feColorMatrix in="SourceGraphic" type="matrix" values="0 0 0 0 0.172549 0 0 0 0 0.729412 0 0 0 0 0.847059 0 0 0 1.000000 0"></feColorMatrix>
        </filter>
    </defs>
    <g id="Desktop" stroke="none" stroke-width="1" fill="none" fill-rule="evenodd">
        <g filter="url(#filter-1)" id="Group-4-Copy-2">
            <g transform="translate(0.179348, 0.281522)" filter="url(#filter-2)" id="qr_code_black_24dp">
                <g transform="translate(-0.069841, -0.109630)">
                    <g id="Group">
                        <rect id="Rectangle" x="0" y="0" width="31.9322751" height="31.9322751"></rect>
                        <rect id="Rectangle" x="0" y="0" width="31.9322751" height="31.9322751"></rect>
                    </g>
                    <g id="Group" transform="translate(3.991534, 3.991534)" fill="#000000" fill-rule="nonzero">
                        <path d="M2.66102293,10.6440917 L7.98306878,10.6440917 C9.44663139,10.6440917 10.6440917,9.44663139 10.6440917,7.98306878 L10.6440917,2.66102293 C10.6440917,1.19746032 9.44663139,0 7.98306878,0 L2.66102293,0 C1.19746032,0 0,1.19746032 0,2.66102293 L0,7.98306878 C0,9.44663139 1.19746032,10.6440917 2.66102293,10.6440917 Z M2.66102293,2.66102293 L7.98306878,2.66102293 L7.98306878,7.98306878 L2.66102293,7.98306878 L2.66102293,2.66102293 Z" id="Shape"></path>
                        <path d="M2.66102293,23.9492063 L7.98306878,23.9492063 C9.44663139,23.9492063 10.6440917,22.751746 10.6440917,21.2881834 L10.6440917,15.9661376 C10.6440917,14.502575 9.44663139,13.3051146 7.98306878,13.3051146 L2.66102293,13.3051146 C1.19746032,13.3051146 0,14.502575 0,15.9661376 L0,21.2881834 C0,22.751746 1.19746032,23.9492063 2.66102293,23.9492063 Z M2.66102293,15.9661376 L7.98306878,15.9661376 L7.98306878,21.2881834 L2.66102293,21.2881834 L2.66102293,15.9661376 Z" id="Shape"></path>
                        <path d="M13.3051146,2.66102293 L13.3051146,7.98306878 C13.3051146,9.44663139 14.502575,10.6440917 15.9661376,10.6440917 L21.2881834,10.6440917 C22.751746,10.6440917 23.9492063,9.44663139 23.9492063,7.98306878 L23.9492063,2.66102293 C23.9492063,1.19746032 22.751746,0 21.2881834,0 L15.9661376,0 C14.502575,0 13.3051146,1.19746032 13.3051146,2.66102293 Z M21.2881834,7.98306878 L15.9661376,7.98306878 L15.9661376,2.66102293 L21.2881834,2.66102293 L21.2881834,7.98306878 Z" id="Shape"></path>
                        <path d="M23.9492063,23.2839506 L23.9492063,21.9534392 C23.9492063,21.5808959 23.6564938,21.2881834 23.2839506,21.2881834 L21.9534392,21.2881834 C21.5808959,21.2881834 21.2881834,21.5808959 21.2881834,21.9534392 L21.2881834,23.2839506 C21.2881834,23.6564938 21.5808959,23.9492063 21.9534392,23.9492063 L23.2839506,23.9492063 C23.6564938,23.9492063 23.9492063,23.6564938 23.9492063,23.2839506 Z" id="Path"></path>
                        <path d="M13.3051146,13.9703704 L13.3051146,15.3008818 C13.3051146,15.673425 13.5978272,15.9661376 13.9703704,15.9661376 L15.3008818,15.9661376 C15.673425,15.9661376 15.9661376,15.673425 15.9661376,15.3008818 L15.9661376,13.9703704 C15.9661376,13.5978272 15.673425,13.3051146 15.3008818,13.3051146 L13.9703704,13.3051146 C13.5978272,13.3051146 13.3051146,13.5978272 13.3051146,13.9703704 Z" id="Path"></path>
                        <path d="M17.9619048,15.9661376 L16.6313933,15.9661376 C16.2588501,15.9661376 15.9661376,16.2588501 15.9661376,16.6313933 L15.9661376,17.9619048 C15.9661376,18.334448 16.2588501,18.6271605 16.6313933,18.6271605 L17.9619048,18.6271605 C18.334448,18.6271605 18.6271605,18.334448 18.6271605,17.9619048 L18.6271605,16.6313933 C18.6271605,16.2588501 18.334448,15.9661376 17.9619048,15.9661376 Z" id="Path"></path>
                        <path d="M13.3051146,19.2924162 L13.3051146,20.6229277 C13.3051146,20.9954709 13.5978272,21.2881834 13.9703704,21.2881834 L15.3008818,21.2881834 C15.673425,21.2881834 15.9661376,20.9954709 15.9661376,20.6229277 L15.9661376,19.2924162 C15.9661376,18.919873 15.673425,18.6271605 15.3008818,18.6271605 L13.9703704,18.6271605 C13.5978272,18.6271605 13.3051146,18.919873 13.3051146,19.2924162 Z" id="Path"></path>
                        <path d="M16.6313933,23.9492063 L17.9619048,23.9492063 C18.334448,23.9492063 18.6271605,23.6564938 18.6271605,23.2839506 L18.6271605,21.9534392 C18.6271605,21.5808959 18.334448,21.2881834 17.9619048,21.2881834 L16.6313933,21.2881834 C16.2588501,21.2881834 15.9661376,21.5808959 15.9661376,21.9534392 L15.9661376,23.2839506 C15.9661376,23.6564938 16.2588501,23.9492063 16.6313933,23.9492063 Z" id="Path"></path>
                        <path d="M19.2924162,21.2881834 L20.6229277,21.2881834 C20.9954709,21.2881834 21.2881834,20.9954709 21.2881834,20.6229277 L21.2881834,19.2924162 C21.2881834,18.919873 20.9954709,18.6271605 20.6229277,18.6271605 L19.2924162,18.6271605 C18.919873,18.6271605 18.6271605,18.919873 18.6271605,19.2924162 L18.6271605,20.6229277 C18.6271605,20.9954709 18.919873,21.2881834 19.2924162,21.2881834 Z" id="Path"></path>
                        <path d="M20.6229277,13.3051146 L19.2924162,13.3051146 C18.919873,13.3051146 18.6271605,13.5978272 18.6271605,13.9703704 L18.6271605,15.3008818 C18.6271605,15.673425 18.919873,15.9661376 19.2924162,15.9661376 L20.6229277,15.9661376 C20.9954709,15.9661376 21.2881834,15.673425 21.2881834,15.3008818 L21.2881834,13.9703704 C21.2881834,13.5978272 20.9954709,13.3051146 20.6229277,13.3051146 Z" id="Path"></path>
                        <path d="M21.9534392,18.6271605 L23.2839506,18.6271605 C23.6564938,18.6271605 23.9492063,18.334448 23.9492063,17.9619048 L23.9492063,16.6313933 C23.9492063,16.2588501 23.6564938,15.9661376 23.2839506,15.9661376 L21.9534392,15.9661376 C21.5808959,15.9661376 21.2881834,16.2588501 21.2881834,16.6313933 L21.2881834,17.9619048 C21.2881834,18.334448 21.5808959,18.6271605 21.9534392,18.6271605 Z" id="Path"></path>
                    </g>
                </g>
            </g>
        </g>
    </g>
</svg>