<?xml version="1.0" encoding="UTF-8"?>
<svg width="240px" height="240px" viewBox="0 0 240 240" version="1.1" xmlns="http://www.w3.org/2000/svg" xmlns:xlink="http://www.w3.org/1999/xlink">
    <title>Group 4</title>
    <defs>
        <filter x="-33.3%" y="-33.3%" width="166.7%" height="166.7%" filterUnits="objectBoundingBox" id="filter-1">
            <feGaussianBlur stdDeviation="16" in="SourceGraphic"></feGaussianBlur>
        </filter>
        <filter x="-162.2%" y="-166.7%" width="424.3%" height="433.3%" filterUnits="objectBoundingBox" id="filter-2">
            <feGaussianBlur stdDeviation="20" in="SourceGraphic"></feGaussianBlur>
        </filter>
    </defs>
    <g id="Desktop" stroke="none" stroke-width="1" fill="none" fill-rule="evenodd" opacity="0.115722656">
        <g id="Verificar-celular" transform="translate(-24.000000, -670.000000)">
            <g id="Group-4" transform="translate(72.000000, 718.000000)">
                <path d="M72,144 C111.764575,144 144,111.764817 144,72.0005419 C144,32.2351826 111.764575,0 72,0 C32.2354252,0 0,32.2351826 0,72.0005419 C0,111.764817 32.2354252,144 72,144 M72,29.4086568 C95.5227673,29.4086568 114.592206,48.4779516 114.592206,72.0005419 C114.592206,95.5231322 95.5227673,114.591343 72,114.591343 C48.4772327,114.591343 29.4077943,95.5231322 29.4077943,72.0005419 C29.4077943,48.4779516 48.4772327,29.4086568 72,29.4086568" id="Fill-246" fill="#E73743" filter="url(#filter-1)" transform="translate(72.000000, 72.000000) rotate(-270.000000) translate(-72.000000, -72.000000) "></path>
                <path d="M53,73 C53,63.0584254 61.283369,55 71.5,55 C81.7177295,55 90,63.0584254 90,73 C90,82.9415746 81.7177295,91 71.5,91 C61.283369,91 53,82.9415746 53,73" id="Fill-248" fill="#FDC608" filter="url(#filter-2)" transform="translate(71.500000, 73.000000) rotate(-270.000000) translate(-71.500000, -73.000000) "></path>
            </g>
        </g>
    </g>
</svg>