<?xml version="1.0" encoding="UTF-8"?>
<svg width="361px" height="338px" viewBox="0 0 361 338" version="1.1" xmlns="http://www.w3.org/2000/svg" xmlns:xlink="http://www.w3.org/1999/xlink">
    <title>Group 83</title>
    <g id="Desktop/mejoras" stroke="none" stroke-width="1" fill="none" fill-rule="evenodd">
        <g id="Página-en-construcción-desktop" transform="translate(-540.000000, -226.000000)">
            <g id="Group-83" transform="translate(541.000000, 226.000000)">
                <g id="Group-4" transform="translate(184.000000, 174.000000)">
                    <path d="M105,29.2785075 L64.6385098,36.8549634 C64.6385098,36.8549634 16.2670601,51.1201401 0,39.3376438 L5.65105127,0 C53.0394688,2.65576088 105,28.3070238 105,28.3070238" id="Fill-1" fill="#2CBAD8"></path>
                    <path d="M105,29.2785075 L64.6385098,36.8549634 C64.6385098,36.8549634 16.2670601,51.1201401 0,39.3376438 L5.65105127,0 C53.0394688,2.65576088 105,28.3070238 105,28.3070238" id="Stroke-3" stroke="#0C1B2B" stroke-width="2" stroke-linecap="round" stroke-linejoin="round"></path>
                </g>
                <path d="M26,255.669426 C26,255.669426 53.8870495,148.969277 104.319705,144 C114.732023,150.06536 117.091682,155.036483 128.354362,159.17724 C144.811237,165.224148 160.576043,204.184907 182.720396,173.291612 L190,173.695723 L178.486998,279.342229 C178.486998,279.342229 141.192602,348.255202 26,255.669426" id="Fill-5" fill="#2CBAD8"></path>
                <path d="M26,255.669426 C26,255.669426 53.8870495,148.969277 104.319705,144 C114.732023,150.06536 117.091682,155.036483 128.354362,159.17724 C144.811237,165.224148 160.576043,204.184907 182.720396,173.291612 L190,173.695723 L178.486998,279.342229 C178.486998,279.342229 141.192602,348.255202 26,255.669426 Z" id="Stroke-7" stroke="#0C1B2B" stroke-width="2" stroke-linecap="round" stroke-linejoin="round"></path>
                <path d="M43.5459976,252.090903 C42.9878803,252.090903 42.4371067,252.150071 41.8900049,252.246218 C39.0663722,251.4567 36.1032102,251 33.0298934,251 C14.7882714,251 0,265.893601 0,284.266997 C0,294.343983 4.46677398,303.355952 11.4946453,309.455764 C11.4946453,309.457613 11.4909734,309.474254 11.4909734,309.474254 C11.4909734,309.474254 33.5512925,342.811513 138,322.3654 L138,292.356321 C138,292.356321 62.5311639,252.072413 43.5459976,252.090903" id="Fill-9" fill="#EFF0F6"></path>
                <path d="M43.5459976,252.090903 C42.9878803,252.090903 42.4371067,252.150071 41.8900049,252.246218 C39.0663722,251.4567 36.1032102,251 33.0298934,251 C14.7882714,251 0,265.893601 0,284.266997 C0,294.343983 4.46677398,303.355952 11.4946453,309.455764 C11.4946453,309.457613 11.4909734,309.474254 11.4909734,309.474254 C11.4909734,309.474254 33.5512925,342.811513 138,322.3654 L138,292.356321 C138,292.356321 62.5311639,252.072413 43.5459976,252.090903 Z" id="Stroke-11" stroke="#0C1B2B" stroke-width="2" stroke-linecap="round" stroke-linejoin="round"></path>
                <path d="M246.660727,45 C246.660727,45 262.797581,65.8776653 232.834122,103 C232.834122,103 241.49113,67.4609095 235.076423,56.1465501 C235.076423,56.1465501 208.795039,75.4154349 172,47.9147745" id="Stroke-13" stroke="#0C1B2B" stroke-width="2" stroke-linecap="round" stroke-linejoin="round"></path>
                <path d="M161.186888,34 C161.186888,34 172.047877,44.6572568 170.917515,53.2935629 C170.917515,53.2935629 162.412362,44.7049813 152.061681,46.8544212 C141.71283,49.003861 126.721811,53.1760871 116.312601,39.0643079 C116.312601,39.0643079 122.610073,47.8015697 113.852508,57.8494208 C105.094944,67.8954364 98.757233,82.8735996 98,92" id="Stroke-15" stroke="#0C1B2B" stroke-width="2" stroke-linecap="round" stroke-linejoin="round"></path>
                <path d="M251.137375,59 C261.593533,26.6347194 224.61632,21.1705947 224.61632,21.1705947 C232.836339,22.2505412 237.845586,17.6253527 237.845586,17.6253527 C237.845586,17.6253527 217.056478,18.4146152 203.667225,13.1326279 C190.277973,7.84880086 174.612125,3.14818172 162.066942,1.49790565 C149.51992,-0.150530649 130.667205,2.65328288 126,4.68255212" id="Stroke-17" stroke="#0C1B2B" stroke-width="2" stroke-linecap="round" stroke-linejoin="round"></path>
                <path d="M76.053546,85 C76.053546,85 60.3940712,26.5734223 99.9991754,19.8532098 C99.9991754,19.8532098 106.965346,-3.08580085 130,3.03983255" id="Stroke-19" stroke="#0C1B2B" stroke-width="2" stroke-linecap="round" stroke-linejoin="round"></path>
                <path d="M96,138.425745 C138.35704,171.123522 169.946807,178.655927 205.09684,169.232641 C240.246872,159.811186 232.208216,104 232.208216,104" id="Stroke-21" stroke="#0C1B2B" stroke-width="2" stroke-linecap="round" stroke-linejoin="round"></path>
                <path d="M104,97.6079048 C104,97.6079048 83.0138058,79.0110905 70.8094358,91.0636954 C58.6032177,103.1163 69.8687901,145.098958 101.900641,136.961472" id="Stroke-23" stroke="#0C1B2B" stroke-width="2" stroke-linecap="round" stroke-linejoin="round"></path>
                <path d="M88.4657721,102 C88.4657721,102 97.5220792,109.302137 95.77661,115.191477 C95.77661,115.191477 89.1380744,111.103498 85,117" id="Stroke-25" stroke="#0C1B2B" stroke-width="2" stroke-linecap="round" stroke-linejoin="round"></path>
                <path d="M232.987913,110.373572 C232.987913,110.373572 244.443952,107.076014 243.986665,120.075268 C243.527542,133.074522 234.993363,148.814769 228,147.967189" id="Stroke-27" stroke="#0C1B2B" stroke-width="2" stroke-linecap="round" stroke-linejoin="round"></path>
                <path d="M202.034376,99.4784256 C201.747372,101.667752 203.289099,103.676781 205.478425,103.965625 C207.667752,104.252629 209.67678,102.710902 209.965624,100.519736 C210.252628,98.330409 208.710901,96.3213799 206.521575,96.0343758 C204.330409,95.7473716 202.32138,97.2890991 202.034376,99.4784256" id="Fill-29" fill="#000000"></path>
                <path d="M156.034376,94.4784256 C155.747372,96.6677522 157.289099,98.6767813 159.478425,98.9656252 C161.667752,99.2526294 163.67678,97.7109019 163.965624,95.5197356 C164.252628,93.330409 162.710901,91.3213799 160.521575,91.0343758 C158.330409,90.7473716 156.32138,92.2890991 156.034376,94.4784256" id="Fill-31" fill="#000000"></path>
                <path d="M188.803189,101 C188.803189,101 194.788591,115.961893 187,117" id="Stroke-33" stroke="#0C1B2B" stroke-width="2" stroke-linecap="round" stroke-linejoin="round"></path>
                <g id="Group-38" transform="translate(114.000000, 207.000000)">
                    <path d="M44.8170865,121 C35.1675548,119.464516 18.9394641,114.592062 11.8142206,112.06044 C4.20466598,109.356375 -0.636610457,101.891759 0.0678420447,93.8456051 L3.50755153,54.5577709 C3.99369713,49.0083827 6.66658071,43.8790969 10.9813523,40.3550061 C14.7072456,37.313391 20.3667143,33.9489024 28.9650707,30.7238364 C57.0918045,20.173578 113.666311,-3.24759212 178.358533,0.377396686 C178.358533,0.377396686 203.201491,3.62264223 211,8.1006775" id="Fill-35" fill="#EFF0F6"></path>
                    <path d="M44.8170865,121 C35.1675548,119.464516 18.9394641,114.592062 11.8142206,112.06044 C4.20466598,109.356375 -0.636610457,101.891759 0.0678420447,93.8456051 L3.50755153,54.5577709 C3.99369713,49.0083827 6.66658071,43.8790969 10.9813523,40.3550061 C14.7072456,37.313391 20.3667143,33.9489024 28.9650707,30.7238364 C57.0918045,20.173578 113.666311,-3.24759212 178.358533,0.377396686 C178.358533,0.377396686 203.201491,3.62264223 211,8.1006775" id="Stroke-37" stroke="#0C1B2B" stroke-width="2" stroke-linecap="round" stroke-linejoin="round"></path>
                </g>
                <line x1="118" y1="253" x2="144" y2="257" id="Stroke-39" stroke="#0C1B2B" stroke-width="2" stroke-linecap="round" stroke-linejoin="round"></line>
                <g id="Group-44" transform="translate(251.000000, 195.000000)">
                    <path d="M5.81738904,24.0510483 C-0.751298329,24.0437934 -1.28962618,27.5189182 1.87871419,33.4480325 C5.04524202,39.3771469 11.1408534,36.689185 22.993129,33.9576933 C34.8472171,31.2280154 36,6.81145462 36,6.81145462 C36,6.81145462 16.139871,-10.0690187 2.32460191,9.31804258 C2.32460191,9.31804258 2.8955557,22.8612352 8.07220336,26.8768544" id="Fill-41" fill="#EFF0F6"></path>
                    <path d="M5.81738904,24.0510483 C-0.751298329,24.0437934 -1.28962618,27.5189182 1.87871419,33.4480325 C5.04524202,39.3771469 11.1408534,36.689185 22.993129,33.9576933 C34.8472171,31.2280154 36,6.81145462 36,6.81145462 C36,6.81145462 16.139871,-10.0690187 2.32460191,9.31804258 C2.32460191,9.31804258 2.8955557,22.8612352 8.07220336,26.8768544" id="Stroke-43" stroke="#0C1B2B" stroke-width="2" stroke-linecap="round" stroke-linejoin="round"></path>
                </g>
                <g id="Group-48" transform="translate(257.000000, 220.000000)">
                    <path d="M0,12 C0,12 11.8563101,10.3820628 12,0" id="Fill-45" fill="#EFF0F6"></path>
                    <path d="M0,12 C0,12 11.8563101,10.3820628 12,0" id="Stroke-47" stroke="#0C1B2B" stroke-width="2" stroke-linecap="round" stroke-linejoin="round"></path>
                </g>
                <g id="Group-52" transform="translate(266.000000, 218.000000)">
                    <path d="M0,12 C0,12 11.8563101,10.3820628 12,0" id="Fill-49" fill="#EFF0F6"></path>
                    <path d="M0,12 C0,12 11.8563101,10.3820628 12,0" id="Stroke-51" stroke="#0C1B2B" stroke-width="2" stroke-linecap="round" stroke-linejoin="round"></path>
                </g>
                <path d="M150.874696,326.133256 C143.226189,323.403303 138.360131,315.865373 139.068189,307.744041 L142.525506,268.080082 C143.01414,262.477567 145.700706,257.299176 150.037564,253.741347 C153.78253,250.668761 159.470969,247.273914 168.113339,244.017973 C196.38405,233.366711 253.248154,209.721317 318.271527,213.38101 C318.271527,213.38101 348.279194,212.990223 351.884023,251.379956 C355.540481,290.299381 364.835593,320.160326 349.341281,330.894932 C347.012433,332.508086 344.241047,333.319293 341.419877,333.537837 C320.074863,335.193589 199.723357,343.570507 150.874696,326.133256" id="Fill-53" fill="#EFF0F6"></path>
                <path d="M150.874696,326.133256 C143.226189,323.403303 138.360131,315.865373 139.068189,307.744041 L142.525506,268.080082 C143.01414,262.477567 145.700706,257.299176 150.037564,253.741347 C153.78253,250.668761 159.470969,247.273914 168.113339,244.017973 C196.38405,233.366711 253.248154,209.721317 318.271527,213.38101 C318.271527,213.38101 348.279194,212.990223 351.884023,251.379956 C355.540481,290.299381 364.835593,320.160326 349.341281,330.894932 C347.012433,332.508086 344.241047,333.319293 341.419877,333.537837 C320.074863,335.193589 199.723357,343.570507 150.874696,326.133256 Z" id="Stroke-55" stroke="#0C1B2B" stroke-width="2" stroke-linecap="round" stroke-linejoin="round"></path>
                <path d="M197.389852,301.314261 C193.922697,300.400192 191.862047,296.881302 192.786745,293.454003 C193.711443,290.026703 197.271253,287.989741 200.738409,288.903809 C204.205564,289.817878 206.266214,293.336768 205.341516,296.764067 C204.416818,300.191367 200.857007,302.228329 197.389852,301.314261 M209.625889,284.582591 L221.784096,239.523952 L222.656908,239.754759 C232.318985,238.496312 239.119872,229.734808 237.846791,220.183798 C237.220442,215.472406 234.739137,211.453435 231.231214,208.736874 C231.266423,208.909063 231.329428,209.06843 231.351666,209.244283 C231.351666,209.244283 223.696498,214.179154 227.899335,221.478881 C229.465207,224.195442 225.438415,232.048372 220.679647,231.145295 L214.914645,229.626732 C210.331921,228.066037 210.79705,219.273393 213.522964,217.688885 C220.846426,213.428116 216.693623,205.379183 216.693623,205.379183 C216.801103,205.238134 216.93638,205.13189 217.053125,205 C212.642741,205.628308 208.4677,207.890582 205.549063,211.667755 C199.633959,219.324683 201.118295,230.269694 208.862411,236.116802 L208.953213,236.140616 L195.269902,280.76695 C190.205373,282.082183 185.958061,285.912479 184.512641,291.272328 C182.368601,299.216849 187.1459,307.373858 195.182807,309.493252 C203.219713,311.612645 211.473433,306.890263 213.617473,298.945742 C215.057333,293.607874 213.324682,288.218716 209.625889,284.582591" id="Fill-57" fill="#2CBAD8"></path>
                <path d="M197.389852,301.314261 C193.922697,300.400192 191.862047,296.881302 192.786745,293.454003 C193.711443,290.026703 197.271253,287.989741 200.738409,288.903809 C204.205564,289.817878 206.266214,293.336768 205.341516,296.764067 C204.416818,300.191367 200.857007,302.228329 197.389852,301.314261 Z M209.625889,284.582591 L221.784096,239.523952 L222.656908,239.754759 C232.318985,238.496312 239.119872,229.734808 237.846791,220.183798 C237.220442,215.472406 234.739137,211.453435 231.231214,208.736874 C231.266423,208.909063 231.329428,209.06843 231.351666,209.244283 C231.351666,209.244283 223.696498,214.179154 227.899335,221.478881 C229.465207,224.195442 225.438415,232.048372 220.679647,231.145295 L214.914645,229.626732 C210.331921,228.066037 210.79705,219.273393 213.522964,217.688885 C220.846426,213.428116 216.693623,205.379183 216.693623,205.379183 C216.801103,205.238134 216.93638,205.13189 217.053125,205 C212.642741,205.628308 208.4677,207.890582 205.549063,211.667755 C199.633959,219.324683 201.118295,230.269694 208.862411,236.116802 L208.953213,236.140616 L195.269902,280.76695 C190.205373,282.082183 185.958061,285.912479 184.512641,291.272328 C182.368601,299.216849 187.1459,307.373858 195.182807,309.493252 C203.219713,311.612645 211.473433,306.890263 213.617473,298.945742 C215.057333,293.607874 213.324682,288.218716 209.625889,284.582591 Z" id="Stroke-59" stroke="#0C1B2B" stroke-width="2" stroke-linecap="round" stroke-linejoin="round"></path>
                <g id="Group-64" transform="translate(177.000000, 242.000000)">
                    <path d="M2.45800595,34.2852509 C2.45800595,34.2852509 26.475656,47.3558311 31.0062791,39.4709528 C35.5369022,31.584209 26.6176413,32.7351364 26.6176413,32.7351364 C26.6176413,32.7351364 39.7263917,40.8102815 42.6712046,31.74463 C45.6160174,22.6789786 25.9630336,18.7915675 25.9630336,18.7915675 L42.5900701,24.8260084 C45.7561588,25.9750704 48.99785,22.8226113 47.7107622,19.6776137 C44.4782907,11.7778124 27.1357956,6.13882799 27.1357956,6.13882799 C34.0986092,-6.5903913 0,4.42456179 0,4.42456179" id="Fill-61" fill="#EFF0F6"></path>
                    <path d="M2.45800595,34.2852509 C2.45800595,34.2852509 26.475656,47.3558311 31.0062791,39.4709528 C35.5369022,31.584209 26.6176413,32.7351364 26.6176413,32.7351364 C26.6176413,32.7351364 39.7263917,40.8102815 42.6712046,31.74463 C45.6160174,22.6789786 25.9630336,18.7915675 25.9630336,18.7915675 L42.5900701,24.8260084 C45.7561588,25.9750704 48.99785,22.8226113 47.7107622,19.6776137 C44.4782907,11.7778124 27.1357956,6.13882799 27.1357956,6.13882799 C34.0986092,-6.5903913 0,4.42456179 0,4.42456179" id="Stroke-63" stroke="#0C1B2B" stroke-width="2" stroke-linecap="round" stroke-linejoin="round"></path>
                </g>
                <path d="M81.3684388,156.304251 C87.8974719,146.660882 101.066012,144.098819 110.78223,150.5789 C114.985778,153.382184 118.31658,157.298375 119.688302,161.755487 C126.027688,176.970703 130.245966,217.833955 130.245966,217.833955 C141.324701,217.625628 184.29001,239.37392 184.29001,239.37392 C195.296936,258.657004 178.305984,279 178.305984,279 C178.305984,279 125.105227,274.902893 95.5220421,241.056987 C84.4285778,228.365458 75.1247977,188.271555 76.275572,172.659786 C75.0714018,167.241444 78.0044954,161.273044 81.3684388,156.304251" id="Fill-65" fill="#2CBAD8"></path>
                <path d="M81.3684388,156.304251 C87.8974719,146.660882 101.066012,144.098819 110.78223,150.5789 C114.985778,153.382184 118.31658,157.298375 119.688302,161.755487 C126.027688,176.970703 130.245966,217.833955 130.245966,217.833955 C141.324701,217.625628 184.29001,239.37392 184.29001,239.37392 C195.296936,258.657004 178.305984,279 178.305984,279 C178.305984,279 125.105227,274.902893 95.5220421,241.056987 C84.4285778,228.365458 75.1247977,188.271555 76.275572,172.659786 C75.0714018,167.241444 78.0044954,161.273044 81.3684388,156.304251 Z" id="Stroke-67" stroke="#0C1B2B" stroke-width="2" stroke-linecap="round" stroke-linejoin="round"></path>
                <path d="M305.703395,267.05591 C301.25435,265.787622 298.673977,261.15244 299.942265,256.703395 C301.210553,252.25435 305.845735,249.673977 310.296605,250.942265 C314.74565,252.210553 317.324198,256.845735 316.05591,261.29478 C314.787622,265.74565 310.15244,268.324198 305.703395,267.05591 L305.703395,267.05591 Z M333.78457,272.446591 L337,261.167039 L331.439606,259.068433 C331.445081,257.201586 331.237045,255.360287 330.811849,253.581034 L335.740836,250.274361 L330.038102,240.025863 L324.630998,242.471195 C323.342636,241.171884 321.888211,240.024038 320.29692,239.04408 L321.446591,233.213605 L310.167039,230 L308.068433,235.560394 C306.201586,235.553094 304.362112,235.76113 302.581034,236.186326 L299.274361,231.257339 L289.025863,236.960073 L291.471195,242.369002 C290.171884,243.657364 289.024038,245.109964 288.045905,246.701255 L282.213605,245.553409 L279,256.831136 L284.560394,258.929742 C284.553094,260.798414 284.762955,262.637888 285.186326,264.417141 L280.259164,267.723815 L285.960073,277.972312 L291.369002,275.52698 C292.657364,276.826291 294.109964,277.974137 295.701255,278.954095 L294.553409,284.78457 L305.832961,288 L307.929742,282.439606 C309.798414,282.445081 311.637888,282.237045 313.417141,281.811849 L316.723815,286.740836 L326.972312,281.038102 L324.528805,275.630998 C325.826291,274.340811 326.974137,272.888211 327.954095,271.29692 L333.78457,272.446591 Z" id="Fill-69" fill="#2CBAD8"></path>
                <path d="M305.703395,267.05591 C301.25435,265.787622 298.673977,261.15244 299.942265,256.703395 C301.210553,252.25435 305.845735,249.673977 310.296605,250.942265 C314.74565,252.210553 317.324198,256.845735 316.05591,261.29478 C314.787622,265.74565 310.15244,268.324198 305.703395,267.05591 Z M333.78457,272.446591 L337,261.167039 L331.439606,259.068433 C331.445081,257.201586 331.237045,255.360287 330.811849,253.581034 L335.740836,250.274361 L330.038102,240.025863 L324.630998,242.471195 C323.342636,241.171884 321.888211,240.024038 320.29692,239.04408 L321.446591,233.213605 L310.167039,230 L308.068433,235.560394 C306.201586,235.553094 304.362112,235.76113 302.581034,236.186326 L299.274361,231.257339 L289.025863,236.960073 L291.471195,242.369002 C290.171884,243.657364 289.024038,245.109964 288.045905,246.701255 L282.213605,245.553409 L279,256.831136 L284.560394,258.929742 C284.553094,260.798414 284.762955,262.637888 285.186326,264.417141 L280.259164,267.723815 L285.960073,277.972312 L291.369002,275.52698 C292.657364,276.826291 294.109964,277.974137 295.701255,278.954095 L294.553409,284.78457 L305.832961,288 L307.929742,282.439606 C309.798414,282.445081 311.637888,282.237045 313.417141,281.811849 L316.723815,286.740836 L326.972312,281.038102 L324.528805,275.630998 C325.826291,274.340811 326.974137,272.888211 327.954095,271.29692 L333.78457,272.446591 Z" id="Stroke-71" stroke="#0C1B2B" stroke-width="2" stroke-linecap="round" stroke-linejoin="round"></path>
                <path d="M342,311 C342,316.521576 337.523032,321 331.999062,321 C326.476968,321 322,316.521576 322,311 C322,305.478424 326.476968,301 331.999062,301 C337.523032,301 342,305.478424 342,311" id="Fill-73" fill="#2CBAD8"></path>
                <path d="M342,311 C342,316.521576 337.523032,321 331.999062,321 C326.476968,321 322,316.521576 322,311 C322,305.478424 326.476968,301 331.999062,301 C337.523032,301 342,305.478424 342,311 Z" id="Stroke-75" stroke="#0C1B2B" stroke-width="2" stroke-linecap="round" stroke-linejoin="round"></path>
                <path d="M166.949486,77.5839619 C166.656527,77.8716056 166.399514,78.0935021 165.914244,78.4304561 C165.705758,78.5742779 165.493677,78.7098814 165.278002,78.8352118 C165.143205,78.9153411 165.006611,78.9893066 164.868219,79.0632722 C164.792732,79.1043641 164.616598,79.1824388 164.79453,79.1023095 C164.314652,79.3200969 163.820396,79.4988468 163.317153,79.6385595 C163.079911,79.7043066 162.842668,79.7597807 162.60183,79.8070365 C162.571276,79.8132003 162.22979,79.8727836 162.387952,79.850183 C162.56229,79.8234733 162.069831,79.8830566 162.082412,79.881002 C161.597142,79.9282577 161.108278,79.9385307 160.621211,79.9138756 C159.941834,79.8789474 160.004739,79.8892204 159.379281,79.743344 C158.874241,79.6241773 158.37639,79.4639187 157.892918,79.2605135 C157.777891,79.2132578 157.664661,79.1639474 157.553229,79.1105279 C157.774296,79.217367 157.474148,79.0612176 157.398662,79.0201256 C157.150635,78.8824676 156.911595,78.7324819 156.674352,78.5763325 C154.677557,77.2490625 152.873073,80.7850249 154.866273,82.1102404 C159.483524,85.1736454 165.459529,84.4298811 169.481875,80.4788899 C170.215171,79.7577261 170.128901,78.323617 169.481875,77.5839619 C168.75397,76.7518499 167.68458,76.8607435 166.949486,77.5839619" id="Fill-77" fill="#0C1B2B"></path>
                <path d="M213.769579,88.0046284 C213.602037,88.047783 213.415096,88.0575908 213.252845,88.1144764 C213.663763,87.9732433 213.515621,88.075245 213.356897,88.0909376 C213.268718,88.0987838 213.182301,88.1066301 213.094122,88.1105533 C212.755511,88.1262458 212.381629,88.0262057 212.050073,88.0654371 C212.177052,88.0517061 212.450409,88.1340921 212.154125,88.0772066 C212.067709,88.0595524 211.981293,88.0418983 211.89664,88.020321 C211.725571,87.9810895 211.556266,87.9320503 211.386961,87.8771263 C211.219419,87.8222023 211.053641,87.7613935 210.889627,87.6927385 C210.827901,87.6672381 210.531617,87.5358128 210.806738,87.6593918 C211.090677,87.786894 210.766175,87.6338914 210.72914,87.6123141 C210.413456,87.443619 210.108354,87.2494234 209.819124,87.0297274 C209.760925,86.9865728 209.70449,86.9414567 209.646292,86.8963405 C209.337662,86.6589904 209.956685,87.1886147 209.669218,86.9179178 C209.549294,86.8041467 209.429369,86.6903755 209.314736,86.5707197 C209.187757,86.4373328 209.066069,86.2980612 208.949671,86.1548665 C208.891473,86.0822884 208.835038,86.0077486 208.776839,85.9351705 C208.53699,85.6370116 208.946144,86.2039058 208.82622,86.0097102 C208.616352,85.6703583 208.418829,85.3329681 208.253051,84.9661542 C207.84037,84.0501003 206.611143,83.7185947 205.84927,84.2639116 C205.008035,84.8680756 204.778767,85.9587094 205.219666,86.9375335 C206.92859,90.7272896 211.037769,92.7006305 214.704285,91.7728072 C215.600191,91.5452649 216.213923,90.3428216 215.929984,89.3698822 C215.626645,88.3243646 214.730739,87.7613935 213.769579,88.0046284" id="Fill-79" fill="#0C1B2B"></path>
                <path d="M251.077356,34.8211422 C246.989445,28.4220573 240.470137,24.5767272 234.867435,22.3150926 C237.243614,21.1631471 238.585391,19.9230143 238.697666,19.818292 C239.441257,19.1146315 239.669488,18.0251519 239.266403,17.0863255 C238.865158,16.1456619 237.917263,15.5687705 236.897586,15.6055152 C236.695123,15.6183758 216.448826,16.555365 203.629239,11.6848585 C188.472125,5.92880539 173.035244,1.82258811 161.273986,0.422616051 C151.049606,-0.795469879 137.217705,0.82680746 129.200171,2.6566922 C108.305993,-2.3130249 99.901939,14.9882047 97.8773093,20.2132972 C89.0315182,22.1607649 82.2471682,26.8218268 77.6991137,34.0788998 C65.1114388,54.1635384 74.0529397,87.0904404 74.4394599,88.4830635 C74.6658503,89.3006325 75.3063695,89.9436643 76.1272648,90.1751558 C76.8561315,90.3864376 77.6402154,90.2376217 78.2439231,89.7948484 C80.1710025,89.3814708 88.5143173,92.1575309 96.3165039,95.8191376 C96.5520971,95.9293716 96.802415,95.9973493 97.0545734,96.0304195 C97.0582546,96.0304195 97.0619357,96.0322567 97.0656168,96.0322567 C97.0656168,96.034094 97.0656168,96.0322567 97.0674574,96.034094 L97.0674574,96.034094 L97.0674574,96.034094 C97.1061094,96.0377684 97.1447615,96.0414429 97.1834135,96.0451174 C97.2423118,96.0487918 97.2956884,96.0230706 97.3545867,96.0230706 C97.5754554,96.0230706 97.792643,95.9973493 98.0061494,95.9385578 C98.111062,95.9091621 98.2049312,95.8724174 98.3024815,95.830161 C98.3834667,95.7970908 98.4699736,95.7842302 98.5454371,95.7419738 C98.670596,95.6721589 98.7810304,95.5821345 98.8896241,95.4939473 C98.9172327,95.4700632 98.9485225,95.4535281 98.976131,95.4296441 C99.1822752,95.2477579 99.3479267,95.0272899 99.4804479,94.7884495 C99.509897,94.737007 99.5338245,94.6874017 99.5595925,94.6341219 C99.6681863,94.398956 99.7546932,94.1546039 99.7859829,93.8900423 L100.028938,91.7735491 C101.291571,83.2836922 106.802245,70.1272618 114.75904,60.8253477 C118.515648,56.4361965 119.822454,52.0635803 119.877672,48.3082747 C129.884864,55.0656201 141.63876,52.4291898 149.948944,50.5625604 L151.739821,50.1638807 C160.670279,48.2109013 168.477987,55.6663956 168.557131,55.7435594 C169.221578,56.3865912 170.202603,56.6070592 171.078716,56.2947295 C171.954828,55.9879115 172.582463,55.2107616 172.692898,54.2866331 C172.740753,53.8861161 172.735231,53.4819247 172.742593,53.0777333 C191.181448,65.4606883 206.776618,66.5850753 216.826144,65.214499 C224.4682,64.1746247 230.058019,61.6227071 233.087601,59.9251032 C234.716508,65.1244745 234.493798,73.6565877 233.604802,82.0086521 C233.40602,82.723336 233.315832,83.4710901 233.348962,84.2133325 C232.43972,91.7735491 231.072174,98.9295742 230.133482,103.015582 C229.877643,104.128946 230.431655,105.271705 231.464216,105.762246 C231.710853,105.879829 231.968533,105.951481 232.226213,105.982714 C233.056311,106.081925 233.902975,105.751223 234.440422,105.064097 C249.326972,86.0689385 252.95474,71.1432521 252.704422,60.733486 C252.895842,60.4983201 253.054131,60.2319212 253.149841,59.923266 C256.181263,50.1638807 255.485527,41.7181175 251.077356,34.8211422" id="Fill-81" fill="#0C1B2B"></path>
            </g>
        </g>
    </g>
</svg>