<?xml version="1.0" encoding="UTF-8"?>
<svg width="34px" height="34px" viewBox="0 0 34 34" version="1.1" xmlns="http://www.w3.org/2000/svg" xmlns:xlink="http://www.w3.org/1999/xlink">
    <title>Twitter</title>
    <g id="Desktop" stroke="none" stroke-width="1" fill="none" fill-rule="evenodd">
        <g id="Verificar-celular" transform="translate(-291.000000, -961.000000)" fill-rule="nonzero">
            <g id="Footer" transform="translate(0.000000, 926.000000)">
                <g id="Group-11" transform="translate(176.000000, 35.000000)">
                    <g id="Twitter" transform="translate(115.200000, 0.000000)">
                        <circle id="Oval" fill="#0C1B2B" cx="16.8" cy="16.79993" r="16.7999"></circle>
                        <path d="M16.8,0 C7.5215,0 0,7.52153 0,16.80003 C0,26.07853 7.5215,33.60003 16.8,33.60003 C26.0785,33.60003 33.6,26.07853 33.6,16.80003 C33.6,7.52153 26.0785,0 16.8,0 Z M23.6337,13.76203 C23.6407,13.90553 23.6425,14.04903 23.6425,14.18903 C23.6425,18.56403 20.3157,23.605743 14.2292,23.605743 C12.4307,23.60873 10.6697,23.09223 9.1577,22.11823 C9.415,22.14973 9.6792,22.16203 9.947,22.16203 C11.4975,22.16203 12.9237,21.63523 14.056,20.74623 C13.366,20.73273 12.6974,20.50423 12.1434,20.09263 C11.5894,19.68113 11.1777,19.10693 10.9655,18.45023 C11.461,18.54443 11.9715,18.52473 12.4582,18.39253 C11.7093,18.24103 11.0358,17.83523 10.552,17.24393 C10.0681,16.65253 9.8037,15.91203 9.8035,15.14803 L9.8035,15.10773 C10.2497,15.35453 10.7607,15.50503 11.3032,15.52253 C10.6011,15.05513 10.1041,14.33713 9.9138,13.51553 C9.7235,12.69383 9.8543,11.83043 10.2795,11.10203 C11.1106,12.12403 12.1472,12.96003 13.322,13.55603 C14.4968,14.15203 15.7836,14.49463 17.0992,14.56173 C16.932,13.85183 17.004,13.10643 17.304,12.44163 C17.604,11.77683 18.1153,11.22973 18.7584,10.88543 C19.4014,10.54123 20.1402,10.41903 20.8598,10.53793 C21.5794,10.65683 22.2396,11.01013 22.7377,11.54303 C23.4783,11.39653 24.1884,11.12483 24.8377,10.73973 C24.5909,11.50653 24.0742,12.15753 23.3835,12.57203 C24.0395,12.49303 24.68,12.31663 25.284,12.04873 C24.8403,12.71353 24.2815,13.29373 23.6337,13.76203 Z" id="Shape" fill="#FFFFFF"></path>
                    </g>
                </g>
            </g>
        </g>
    </g>
</svg>